<svg xmlns="http://www.w3.org/2000/svg" width="32.458" height="23.35" viewBox="0 0 32.458 23.35">
  <g id="angular" transform="translate(0.506 -71.812)">
    <path id="Path_1858" data-name="Path 1858" d="M-183.135,0H-183a15.578,15.578,0,0,1,2.266.138l.188.028a10.311,10.311,0,0,1,5.128,2.06l.161.135a4.607,4.607,0,0,1,.724.751v.127l.128-.1.37-.3q.187-.153.37-.309A6.589,6.589,0,0,1-169.554.8l.158,0a4.469,4.469,0,0,1,2.227.739l.224.128.44.254q.263.152.529.3a5.363,5.363,0,0,1,2.64,3.4,9.877,9.877,0,0,1,.288,2.643c0,.082,0,.082,0,.166a17.38,17.38,0,0,1-3.76,10.437l-.133.17a11.588,11.588,0,0,1-1.765,1.855l-.176.145a6.935,6.935,0,0,1-3.684,1.69l-.193.016a5.135,5.135,0,0,1-2.844-.9l-.179-.1q-.511-.289-1.018-.584l-.132-.074-.13-.079-.123-.047a3.86,3.86,0,0,0-.463.249l-.276.162-.14.082A17.3,17.3,0,0,1-190.5,22.767a8.175,8.175,0,0,1-3.645-1.938l-.174-.166-.142-.15-.178-.178a3.786,3.786,0,0,1-.471-.767l-.065-.128-.062-.127-.055-.112a3.083,3.083,0,0,1-.2-1.161c0-.049,0-.1,0-.148,0-.163,0-.325,0-.488q0-.176,0-.351,0-.476,0-.952,0-.3,0-.6,0-1.04,0-2.081,0-.967,0-1.934,0-.832,0-1.665,0-.5,0-.993,0-.467,0-.935,0-.171,0-.341a5.307,5.307,0,0,1,1.649-3.877C-191.079,1.016-186.883-.007-183.135,0Z" transform="translate(195 71.812)" fill="#f29136"/>
    <path id="Path_1859" data-name="Path 1859" d="M-146.243-.046l.195,0A3.4,3.4,0,0,1-143.6.961,7.082,7.082,0,0,1-141.9,6.14v.166a17.38,17.38,0,0,1-3.76,10.437l-.133.17a11.591,11.591,0,0,1-1.765,1.855l-.176.145a6.935,6.935,0,0,1-3.684,1.69l-.193.016a3.743,3.743,0,0,1-2.6-.831c-.112-.124-.211-.254-.311-.387l-.121-.137c-1.383-1.595-1.575-3.953-1.447-5.964a17.242,17.242,0,0,1,.935-4.276l.058-.167c1.156-3.267,3.349-6.82,6.586-8.376A5.417,5.417,0,0,1-146.243-.046Z" transform="translate(173.852 73.938)" fill="#f39336"/>
    <path id="Path_1860" data-name="Path 1860" d="M-.214,0H-.15l.017.139A3.99,3.99,0,0,0,.736,2.151L.85,2.3c1.3,1.561,3.581,2.263,5.517,2.575l.177.029a18.328,18.328,0,0,0,5.581-.029l.176-.027a13.8,13.8,0,0,0,3.448-.988.375.375,0,0,1,.363,0,1.432,1.432,0,0,1,.095.293,5.617,5.617,0,0,0,.285.783c.067.189.129.379.19.569h.127l.063.316H17l.063.19.127.063.079.142a2.341,2.341,0,0,0,.633.6,1.5,1.5,0,0,1,.237.21A17.107,17.107,0,0,1,5.889,9.159a9.221,9.221,0,0,1-4.773-2.2L.941,6.794.8,6.644.621,6.466A3.786,3.786,0,0,1,.15,5.7L.085,5.571.023,5.444l-.055-.112A3,3,0,0,1-.228,4.2V4.057c0-.149,0-.3,0-.448q0-.156,0-.313,0-.409,0-.819t0-.837Q-.218.82-.214,0Z" transform="translate(-0.26 85.682)" fill="#e68532"/>
    <path id="Path_1861" data-name="Path 1861" d="M-146.243-.046l.195,0A3.4,3.4,0,0,1-143.6.961,7.082,7.082,0,0,1-141.9,6.14v.166a17.38,17.38,0,0,1-3.76,10.437l-.133.17a11.591,11.591,0,0,1-1.765,1.855l-.176.145a6.935,6.935,0,0,1-3.684,1.69l-.193.016a3.743,3.743,0,0,1-2.6-.831c-.112-.124-.211-.254-.311-.387l-.121-.137c-1.383-1.595-1.575-3.953-1.447-5.964a17.242,17.242,0,0,1,.935-4.276l.058-.167c1.156-3.267,3.349-6.82,6.586-8.376A5.417,5.417,0,0,1-146.243-.046Zm-4.1,3.563-.177.147a7.6,7.6,0,0,0-1.026,1.119l-.147.18a14.078,14.078,0,0,0-3.061,10.016,5.315,5.315,0,0,0,.234.941l.04.124a3.778,3.778,0,0,0,1.87,2.336,3.446,3.446,0,0,0,2.6.092c2.653-.986,4.4-3.527,5.528-6a14.987,14.987,0,0,0,.976-2.883l.028-.127a10.017,10.017,0,0,0,.225-1.835l.005-.164a6.531,6.531,0,0,0-1.231-4.606,3.133,3.133,0,0,0-2.223-1A5.921,5.921,0,0,0-150.344,3.518Z" transform="translate(173.852 73.938)" fill="#fad43d"/>
    <path id="Path_1862" data-name="Path 1862" d="M0,0A3.46,3.46,0,0,1,.233.6,5.282,5.282,0,0,0,3.1,3.544,12.5,12.5,0,0,0,8.469,4.822h.176l.561,0H9.4a16.338,16.338,0,0,0,2.875-.206l.19-.032a15.048,15.048,0,0,0,4.176-1.234l-.046.2c-.072.313-.14.627-.207.941l-.035.164a21.13,21.13,0,0,0-.345,3.316,20.328,20.328,0,0,1-3.37.937l-.2.037a19.439,19.439,0,0,1-3.38.247H8.873A13.512,13.512,0,0,1,6.2,8.985l-.165-.032C4,8.549,1.782,7.669.569,5.885A2.946,2.946,0,0,1,.127,4.746H0Z" transform="translate(-0.474 79.48)" fill="#f39336"/>
    <path id="Path_1863" data-name="Path 1863" d="M-182.971,0h.139a15.578,15.578,0,0,1,2.266.138l.188.028a10.324,10.324,0,0,1,5.128,2.06l.159.13a4.264,4.264,0,0,1,.79.882,1.983,1.983,0,0,1-.451.609c-.276.294-.533.6-.779.918a.474.474,0,0,1-.225.181l-.056-.146a5,5,0,0,0-.64-1.183l-.134-.19c-1.338-1.527-3.784-2.014-5.707-2.143a14.8,14.8,0,0,0-7.32,1.383l-.126.062a6.413,6.413,0,0,0-3.364,3.259A3.125,3.125,0,0,0-193,8.266a6.119,6.119,0,0,0,3.891,2.692c.209.051.418.1.629.138l.146.03a13.233,13.233,0,0,0,2.583.231h.146A14.352,14.352,0,0,0-178.1,9.25c-.061.212-.125.422-.19.633l-.041.139c-.046.153-.093.306-.141.459l-.045.152c-.114.357-.114.357-.293.506l-.176.074-.224.1a17.6,17.6,0,0,1-3.374.964l-.2.037a17.166,17.166,0,0,1-3.069.248c-.181,0-.362,0-.543,0a13.539,13.539,0,0,1-3.245-.395l-.212-.05a9.342,9.342,0,0,1-3.751-1.729l-.189-.152a4.254,4.254,0,0,1-1.534-2.7,5,5,0,0,1,1.486-3.7C-191.161,1.016-186.715-.007-182.971,0Z" transform="translate(194.836 71.813)" fill="#fad43d"/>
    <path id="Path_1864" data-name="Path 1864" d="M0,0H.063L.1.172A4.608,4.608,0,0,0,2.163,3.239,11.263,11.263,0,0,0,6.2,4.783l.285.058a17.327,17.327,0,0,0,9.389-.933.554.554,0,0,1,.266-.048l-.127,2.151a21.169,21.169,0,0,1-3.37.937l-.2.037a19.439,19.439,0,0,1-3.38.247H8.873A13.512,13.512,0,0,1,6.2,7.024l-.165-.032C4,6.587,1.782,5.707.569,3.923A2.946,2.946,0,0,1,.127,2.784H0Z" transform="translate(-0.474 81.442)" fill="#d6732e"/>
    <path id="Path_1865" data-name="Path 1865" d="M-66.017-4.145c.1.074.1.074.223.264a1.021,1.021,0,0,1,0,.38,1.638,1.638,0,0,1-.8.36l-.149.043a1.376,1.376,0,0,1-.508.1v.127l.139.052a3.011,3.011,0,0,1,.476.26l.17.105q.175.109.347.222A1.045,1.045,0,0,0-65.439-2a4.639,4.639,0,0,0,.468-.175q.135-.04.271-.074l.132-.033a4.3,4.3,0,0,1,3.3.378,2.02,2.02,0,0,1,.79.868,1.362,1.362,0,0,1-.19,1.012,4.666,4.666,0,0,1-.443.506h-.127V.612l.131.047a3.317,3.317,0,0,1,.629.332,1,1,0,0,1,.063.38.927.927,0,0,1-.758.222,1.845,1.845,0,0,1-.728-.335c-.266-.129-.509-.007-.777.085l-.171.058-.35.121C-64.616,2-64.616,2-65.26,1.7a.767.767,0,0,1-.344-.328.914.914,0,0,1,.063-.38,1.924,1.924,0,0,1,.8-.312A6.5,6.5,0,0,0-63.579.3c-.24-.151-.482-.3-.724-.447l-.205-.13a1.288,1.288,0,0,0-1.03-.283l-.13.037L-65.8-.5c-.122.029-.242.063-.363.1a4.325,4.325,0,0,1-3.188-.214q-.188-.112-.372-.229l-.124-.077a1.655,1.655,0,0,1-.572-.872,1.078,1.078,0,0,1,.241-.842c.142-.172.3-.328.455-.486v-.127a2.245,2.245,0,0,0-.308-.19,1.436,1.436,0,0,1-.451-.316.9.9,0,0,1,.063-.316,1.126,1.126,0,0,1,.886-.127,3.764,3.764,0,0,1,.388.2.911.911,0,0,0,.511.172,4.654,4.654,0,0,0,.431-.184C-66.732-4.538-66.732-4.538-66.017-4.145Z" transform="translate(75.887 79.502)" fill="#fad13c"/>
    <path id="Path_1866" data-name="Path 1866" d="M-41.36-.079c.142.051.142.051.206.115,0,.16.006.318,0,.479V.651q0,.167,0,.334l.13-.053.171-.069.169-.069a2,2,0,0,1,.7-.141l.147,0a.391.391,0,0,1,.245.1,1.044,1.044,0,0,1,.079.745A1.26,1.26,0,0,1-40,2.3a2.479,2.479,0,0,1-1.158.269V4.592l.506-.127a1.666,1.666,0,0,1,1.2.19,1.746,1.746,0,0,1,.4,1.421A5.037,5.037,0,0,1-40.9,9.464l-.19.127a2.256,2.256,0,0,0-.032.455,1.665,1.665,0,0,1-.34,1.092.469.469,0,0,1-.3.127l-.15-.028a.993.993,0,0,1-.166-.613l-.014-.226-.009-.173-.2.067-.258.087-.129.044a2.917,2.917,0,0,1-1.188.181.432.432,0,0,1-.219-.338,1.841,1.841,0,0,1,.346-1.18.952.952,0,0,1,.641-.257c.363-.047.706-.113,1.068-.186V6.617l-.633.127c-.769.087-.769.087-1.084-.162a1.343,1.343,0,0,1-.4-.94q0-.151,0-.3l0-.161a4.833,4.833,0,0,1,1.664-3.317,1.02,1.02,0,0,1,.27-.2.555.555,0,0,0,.148-.468c0-.045,0-.09,0-.136A1.33,1.33,0,0,1-41.7.008.4.4,0,0,1-41.36-.079Z" transform="translate(66.308 78.685)" fill="#fbd13c"/>
    <path id="Path_1867" data-name="Path 1867" d="M-9.836,0V1.645h-.506c-.165-.165-.151-.248-.158-.479A1.49,1.49,0,0,1-9.985.079C-9.9,0-9.9,0-9.836,0Z" transform="translate(34.103 81.885)" fill="#f69837"/>
    <path id="Path_1868" data-name="Path 1868" d="M-2.049,0a1.38,1.38,0,0,1,.61.222l.161.095.166.1.169.1L-.53.759c-.189.189-.4.15-.649.15l-.144,0A1.064,1.064,0,0,1-2.112.633C-2.176.569-2.176.569-2.187.352-2.176.127-2.176.127-2.049,0Z" transform="translate(9.675 77.139)" fill="#f39536"/>
    <path id="Path_1869" data-name="Path 1869" d="M0,0C.38,0,.38,0,.53.059A.675.675,0,0,1,.661.6,1.6,1.6,0,0,1,0,1.645Z" transform="translate(25.153 85.049)" fill="#f19236"/>
    <path id="Path_1870" data-name="Path 1870" d="M-19.905-2.01a.55.55,0,0,1,.241.38.51.51,0,0,1-.131.407,1.815,1.815,0,0,1-.8-.348,3.093,3.093,0,0,0-.657-.348v-.127A1.974,1.974,0,0,1-19.905-2.01Z" transform="translate(33.115 80.45)" fill="#f39636"/>
  </g>
</svg>
