<svg id="award" xmlns="http://www.w3.org/2000/svg" width="29.589" height="26.288" viewBox="0 0 29.589 26.288">
  <path id="Path_2055" data-name="Path 2055" d="M-147.16-.568a.582.582,0,0,1,.2.379,4.19,4.19,0,0,1-1.081,2.441,4.436,4.436,0,0,1-.4.29l-.109.075a3.42,3.42,0,0,1-.564.317,5.015,5.015,0,0,0-1.5,1.387l.163-.03a4.106,4.106,0,0,1,1.635.081l.13.031a.789.789,0,0,1,.517.294.613.613,0,0,1,0,.376,3.327,3.327,0,0,1-1.818,1.254,5.139,5.139,0,0,1-1.88-.063,23.22,23.22,0,0,0-.878,2.319l.143-.089a3.436,3.436,0,0,1,2.239-.6.462.462,0,0,1,.251.251,2.4,2.4,0,0,1-.705,1.524,2.814,2.814,0,0,1-1.876.989c-.122,0-.243,0-.365-.006l.012.166q.021.307.042.614l.018.265q.013.191.026.382l.016.232c.011.221.013.44.012.661h.125l.043-.165a1.715,1.715,0,0,1,.4-.588l.093-.1c.6-.627.6-.627.984-.685a.654.654,0,0,1,.356.157,3.444,3.444,0,0,1-.135,2.432,4.094,4.094,0,0,1-.994,1.2l-.125.125c.249.516.5,1.024.8,1.516l.069.116a5.079,5.079,0,0,0,.448.624l.016-.166a3.581,3.581,0,0,1,.986-2.216.922.922,0,0,1,.439,0,2.92,2.92,0,0,1,.642,1.955,4.041,4.041,0,0,1-.705,2.057l.106.047a2.538,2.538,0,0,1,.45.333,10.757,10.757,0,0,0,1.261.874l-.039-.108a3.594,3.594,0,0,1,.1-2.649c.125-.125.125-.125.333-.151.45.049.7.459.973.793a3.383,3.383,0,0,1,.512,2.429c-.034.19-.076.377-.125.564l.239.051c.342.076.678.168,1.015.262l.016-.227a1.253,1.253,0,0,1,.482-.823,1.345,1.345,0,0,1,1.069-.266,2.106,2.106,0,0,1,.815.5,1.652,1.652,0,0,0,.4-.251,1.35,1.35,0,0,1,1.1-.251,1.55,1.55,0,0,1,.877.689,1.335,1.335,0,0,1,.125.627l.226-.069.295-.088.149-.045.144-.043.132-.04a.889.889,0,0,1,.307-.029l-.027-.1a3.639,3.639,0,0,1,.152-2.468,5.669,5.669,0,0,1,.5-.689l.129-.154a.957.957,0,0,1,.612-.394c.236.056.263.1.388.3a3.761,3.761,0,0,1,0,2.632,14.246,14.246,0,0,0,1.438-1.028,1.786,1.786,0,0,1,.379-.225l-.073-.113a3.518,3.518,0,0,1-.571-2.631A2.819,2.819,0,0,1-135,15.227a.755.755,0,0,1,.439,0,3.465,3.465,0,0,1,1,2.382,8.144,8.144,0,0,0,1.316-2.319l-.094-.078a3.275,3.275,0,0,1-1.285-2.115,3.565,3.565,0,0,1,.125-1.5.591.591,0,0,1,.564-.125,3.555,3.555,0,0,1,1.316,1.379v.125h.125q.071-1.159.125-2.319l-.222.008a2.612,2.612,0,0,1-1.784-.76l-.13-.123a3.5,3.5,0,0,1-.81-1.319,1.279,1.279,0,0,1,.063-.439,1.538,1.538,0,0,1,1.179-.055,4.1,4.1,0,0,1,1.391.619q-.13-.386-.262-.772l-.074-.218a12.157,12.157,0,0,0-.541-1.329l-.17.027a3.554,3.554,0,0,1-2.776-.466c-.625-.5-.625-.5-.752-.752-.028-.334-.028-.334.066-.474a1.5,1.5,0,0,1,.58-.228l.134-.033a4.049,4.049,0,0,1,1.664-.018l-.482-.517-.137-.148a3.277,3.277,0,0,0-1.058-.828,3.315,3.315,0,0,1-1.75-2.011,2.26,2.26,0,0,1-.146-1.26.353.353,0,0,1,.3-.149A3.817,3.817,0,0,1-134.749.485a3.207,3.207,0,0,1,.689,1.2,2.749,2.749,0,0,0,.908,1.3,7.327,7.327,0,0,1,.658.779l.063.063.012-.106a3.493,3.493,0,0,1,1.246-2.136c.12-.077.12-.077.312-.077.235.08.261.159.372.376a3.451,3.451,0,0,1,.021,2.4,5.684,5.684,0,0,1-.9,1.3l.1.193a13.548,13.548,0,0,1,.969,2.69l.083-.131a3.493,3.493,0,0,1,1.86-1.436.55.55,0,0,1,.5.188,3.314,3.314,0,0,1-.695,2.484,1.83,1.83,0,0,1-.743.56,1.454,1.454,0,0,0-.693.4,3.993,3.993,0,0,0-.063,1.3,6.805,6.805,0,0,1-.089.985l-.023.176c-.049.355-.118.7-.2,1.05l.133-.064.18-.085.176-.084a3.019,3.019,0,0,1,1.23-.222h.141a3.1,3.1,0,0,1,.96.14.532.532,0,0,1,.112.5,2.965,2.965,0,0,1-1.531,1.447,3.7,3.7,0,0,1-1.966.188l-.088.182a12.332,12.332,0,0,1-1.417,2.388l.111,0a3.887,3.887,0,0,1,2.334.631.685.685,0,0,1,.063.376,2.974,2.974,0,0,1-1.822,1.05l-.184.016-.127.012a3.7,3.7,0,0,1-1.7-.355c-.2-.058-.2-.058-.383.1q-.107.1-.211.2l-.23.21-.118.107a6.237,6.237,0,0,1-.573.432l-.2.138c-.16.1-.16.1-.285.1v.125l.176.008a2.89,2.89,0,0,1,1.579,1,.959.959,0,0,1,.188.439.478.478,0,0,1-.188.313,3.091,3.091,0,0,1-.564.188l-.141.035a3.428,3.428,0,0,1-2.594-.552,2.868,2.868,0,0,1-.461-.423l-.274.074-.19.052-.491.138-.141.04-.292.084a5.555,5.555,0,0,1-.879.169,2.453,2.453,0,0,0-1.258.96,2.733,2.733,0,0,1-.8.615,1.071,1.071,0,0,1-.764-.368l-.109-.093a3.559,3.559,0,0,1-.467-.477,2.881,2.881,0,0,0-1.978-.839,6.237,6.237,0,0,1-.96-.311c-.167-.057-.167-.057-.3,0-.141.1-.27.21-.4.324a3.3,3.3,0,0,1-2.476.638,1.833,1.833,0,0,1-1-.376.338.338,0,0,1-.063-.251,2.613,2.613,0,0,1,1.379-1.261,1.163,1.163,0,0,1,.564-.118v-.125l-.135-.047a2.5,2.5,0,0,1-.527-.329l-.2-.15c-.14-.109-.272-.224-.4-.347a1.173,1.173,0,0,0-.7-.448,1.122,1.122,0,0,0-.269.116,3,3,0,0,1-2.146.146,3.54,3.54,0,0,1-1.389-.822.539.539,0,0,1-.024-.436,2.336,2.336,0,0,1,1.34-.629,8.387,8.387,0,0,1,1.128-.063l-.1-.143a16.667,16.667,0,0,1-1.4-2.427l-.15.018a3.261,3.261,0,0,1-2.428-.563A3.03,3.03,0,0,1-157,14.224a1.352,1.352,0,0,1,.063-.439,2.663,2.663,0,0,1,1.692-.188,4.566,4.566,0,0,1,1.191.439l-.022-.117q-.05-.267-.1-.534l-.035-.183a6.706,6.706,0,0,1-.144-1.545,1.945,1.945,0,0,0-.161-1.239,2.723,2.723,0,0,0-.736-.343,2.649,2.649,0,0,1-1.185-1.555,3.034,3.034,0,0,1-.125-1.442.454.454,0,0,1,.251-.188,2.98,2.98,0,0,1,1.755.94,6.446,6.446,0,0,1,.439.627l.069-.239a17.671,17.671,0,0,1,1-2.707l-.11-.111a3.122,3.122,0,0,1-.979-2.208c0-.069,0-.069,0-.139a2.42,2.42,0,0,1,.385-1.489.6.6,0,0,1,.516,0A3.23,3.23,0,0,1-152,3.643l.016.176c.3-.332.6-.664.89-1a1.957,1.957,0,0,1,.2-.206,1.553,1.553,0,0,0,.47-.777A3.216,3.216,0,0,1-148.73-.149C-147.706-.646-147.706-.646-147.16-.568Z" transform="translate(157 1.597)" fill="#fea81a"/>
  <path id="Path_2056" data-name="Path 2056" d="M-118.045-16.125c.158.139.31.281.46.428l.119.117a4.873,4.873,0,0,1,1.211,3.493A4.976,4.976,0,0,1-117.9-8.677a5.1,5.1,0,0,1-3.724,1.142,4.938,4.938,0,0,1-3.288-1.783,5.157,5.157,0,0,1-.98-3.868,5.047,5.047,0,0,1,1.411-2.637l.131-.133A4.857,4.857,0,0,1-118.045-16.125Z" transform="translate(135.887 25.376)" fill="#fea81a"/>
  <path id="Path_2057" data-name="Path 2057" d="M-49.967-.326c.45.049.7.459.973.793A3.383,3.383,0,0,1-48.482,2.9c-.034.19-.077.377-.125.564l.239.051c.342.076.678.168,1.015.262l.016-.227a1.253,1.253,0,0,1,.482-.823,1.345,1.345,0,0,1,1.069-.266,2.106,2.106,0,0,1,.815.5,1.652,1.652,0,0,0,.4-.251,1.35,1.35,0,0,1,1.1-.251,1.549,1.549,0,0,1,.877.689,1.334,1.334,0,0,1,.125.627l.227-.069.295-.088.149-.045.144-.043.132-.04a.889.889,0,0,1,.307-.029l-.027-.1A3.64,3.64,0,0,1-41.086.89a5.676,5.676,0,0,1,.5-.689l.129-.154a.957.957,0,0,1,.612-.394c.236.056.263.1.388.3a3.345,3.345,0,0,1,.079,2.34,4.558,4.558,0,0,1-1.207,1.546l.153-.055a3.679,3.679,0,0,1,2.521-.024,5.236,5.236,0,0,1,.711.455l.14.106a1.323,1.323,0,0,1,.55.771A.478.478,0,0,1-36.7,5.4a3.09,3.09,0,0,1-.564.188l-.141.035A3.427,3.427,0,0,1-40,5.074a2.865,2.865,0,0,1-.461-.423l-.274.074-.19.052-.491.138-.141.04-.292.084a5.553,5.553,0,0,1-.879.169,2.454,2.454,0,0,0-1.258.96,2.733,2.733,0,0,1-.8.615,1.071,1.071,0,0,1-.764-.368l-.109-.093a3.553,3.553,0,0,1-.467-.477A2.88,2.88,0,0,0-48.1,5.005a6.237,6.237,0,0,1-.96-.311c-.167-.057-.167-.057-.3,0-.141.1-.27.211-.4.324a3.294,3.294,0,0,1-2.476.639,1.833,1.833,0,0,1-1-.376.338.338,0,0,1-.063-.251A2.585,2.585,0,0,1-51.93,3.769a4.042,4.042,0,0,1,2.7.067l-.135-.129a3.32,3.32,0,0,1-1.244-2.353C-50.613.865-50.587-.251-49.967-.326Z" transform="translate(59.702 19.506)" fill="#fea81a"/>
  <path id="Path_2058" data-name="Path 2058" d="M-41.254-4.139a1.4,1.4,0,0,1,.439.439,1.049,1.049,0,0,0,.313,0l.043-.113a.878.878,0,0,1,.391-.338l.166-.1a2.044,2.044,0,0,1,1.3-.118,1.958,1.958,0,0,1,1.009.8,2.142,2.142,0,0,1,.1,1.618,7.652,7.652,0,0,1-2.637,3.135l-.114.091a.76.76,0,0,1-.638.159,2.906,2.906,0,0,1-.384-.27l-.106-.085c-.374-.3-.728-.629-1.077-.961L-42.57.009a4.539,4.539,0,0,1-1.442-2.455,2,2,0,0,1,.491-1.446A1.86,1.86,0,0,1-41.254-4.139Z" transform="translate(55.482 4.415)" fill="#e6384f"/>
  <path id="Path_2059" data-name="Path 2059" d="M-48.8,0c.339.059.434.216.632.486a4.032,4.032,0,0,1,.618,1.939A12.53,12.53,0,0,0-46.171.106l.117.062A6.305,6.305,0,0,0-44.98.607a5.722,5.722,0,0,1-.451,1.085l-.074.139a11.046,11.046,0,0,1-.917,1.409l.111,0a3.887,3.887,0,0,1,2.334.631.685.685,0,0,1,.063.376,2.974,2.974,0,0,1-1.822,1.05l-.184.016-.127.012a3.714,3.714,0,0,1-1.7-.354c-.2-.058-.2-.058-.379.1q-.105.1-.208.2l-.234.21-.121.108a2.583,2.583,0,0,1-1.97.791,3.3,3.3,0,0,0-1.033.192l-.235.074-.141.051.125-.125.086-.087q.109-.109.221-.216a3.372,3.372,0,0,0,.539-.629,2.481,2.481,0,0,1,.835-.647,6.408,6.408,0,0,0,.937-.689,1.622,1.622,0,0,1,.391-.239L-49,3.942a3.518,3.518,0,0,1-.571-2.631C-49.247.1-49.247.1-48.8,0Z" transform="translate(70.991 16.781)" fill="#fea81a"/>
  <path id="Path_2060" data-name="Path 2060" d="M-72.408,0c.235.035.235.035.325.123a3.618,3.618,0,0,1,.512,2.525,6.139,6.139,0,0,1-.665,1.4l.107.047a2.415,2.415,0,0,1,.438.325,7.72,7.72,0,0,0,.94.658,2.9,2.9,0,0,1,.915.827,4.828,4.828,0,0,0,.609.65c-.2.1-.368,0-.568-.055a3.288,3.288,0,0,0-.961-.138,2.666,2.666,0,0,1-1.892-.953,1.347,1.347,0,0,0-.738-.492,2.983,2.983,0,0,0-.417.2A3.245,3.245,0,0,1-76.427,4.9c-.706-.4-.706-.4-.823-.7a.575.575,0,0,1,.125-.4,4.4,4.4,0,0,1,2.382-.564l-.1-.143C-76.184,1.2-76.184,1.2-76.184.6l.165-.062L-75.8.454l.216-.082c.2-.082.4-.174.591-.275l.048.093c.29.566.586,1.126.924,1.665l.08.128a2.413,2.413,0,0,0,.328.433l.016-.166C-73.519,1.583-73.218.14-72.408,0Z" transform="translate(79.757 16.788)" fill="#fea81a"/>
  <path id="Path_2061" data-name="Path 2061" d="M-123-4.777l.135.047a6.318,6.318,0,0,1,2.309,1.457l.128.114A5.926,5.926,0,0,1-118.686.589a6.628,6.628,0,0,1-1.732,4.976,6.129,6.129,0,0,1-4.141,1.9h-.573a6.329,6.329,0,0,1-4.309-1.852A6.442,6.442,0,0,1-131.229.946a6.477,6.477,0,0,1,2.113-4.463,6.157,6.157,0,0,1,2.226-1.26l.123-.043A6.1,6.1,0,0,1-123-4.777Zm-3.761.564-.125.045a5.894,5.894,0,0,0-3.28,3.054,5.8,5.8,0,0,0-.075,4.46,6.534,6.534,0,0,0,1.1,1.718l.114.13a5.87,5.87,0,0,0,2.706,1.562l.152.043a5.621,5.621,0,0,0,3.859-.545l.189-.1A5.605,5.605,0,0,0-119.5,2.924a5.831,5.831,0,0,0-.45-4.485A5.806,5.806,0,0,0-123.424-4.3,5.741,5.741,0,0,0-126.766-4.213Z" transform="translate(139.74 11.823)" fill="#e6384f"/>
  <path id="Path_2062" data-name="Path 2062" d="M-88.108-.109c.188.125.188.125.234.244a3.693,3.693,0,0,1-.365,2.656A3.573,3.573,0,0,1-90.49,4.278a3.367,3.367,0,0,1-2.417-.421A3.2,3.2,0,0,1-94,2.648a1.352,1.352,0,0,1,.063-.439,2.666,2.666,0,0,1,1.692-.188,3.017,3.017,0,0,1,1.892,1.2l.083.1a5.42,5.42,0,0,1,.344.457l-.061-.179a3.461,3.461,0,0,1,.267-2.478C-89.4.59-88.8-.2-88.108-.109Z" transform="translate(94 13.173)" fill="#fea81a"/>
  <path id="Path_2063" data-name="Path 2063" d="M-10.9-.321a4.059,4.059,0,0,1,.564.439l.12.1a2.782,2.782,0,0,1,.9,1.753c.006.167.006.333,0,.5v.169a3.451,3.451,0,0,1-.146.983l.069-.108A3.478,3.478,0,0,1-7.3,1.834a4.08,4.08,0,0,1,1.8.1.532.532,0,0,1,.112.5A2.965,2.965,0,0,1-6.923,3.879,3.447,3.447,0,0,1-9.451,3.9,3.417,3.417,0,0,1-11.4,2.061,3.416,3.416,0,0,1-11.459-.2.591.591,0,0,1-10.9-.321Z" transform="translate(34.963 13.384)" fill="#fea81a"/>
  <path id="Path_2064" data-name="Path 2064" d="M-22.836,0c.236.056.263.1.388.3a3.345,3.345,0,0,1,.079,2.34,4.559,4.559,0,0,1-1.207,1.546l.153-.055A3.679,3.679,0,0,1-20.9,4.1a5.236,5.236,0,0,1,.711.455l.14.106a1.323,1.323,0,0,1,.55.771.478.478,0,0,1-.188.313,3.092,3.092,0,0,1-.564.188l-.141.035a3.436,3.436,0,0,1-2.583-.537,4.093,4.093,0,0,1-.661-.689l-.137-.149a3.776,3.776,0,0,1-.514-2.833A3.369,3.369,0,0,1-23.577.548l.129-.154A.957.957,0,0,1-22.836,0Z" transform="translate(42.694 19.158)" fill="#fea81a"/>
  <path id="Path_2065" data-name="Path 2065" d="M-49.967,0c.45.049.7.459.973.793a2.935,2.935,0,0,1,.539,1.814l0,.158a2.768,2.768,0,0,1-.217,1.021l-.067.182a3.385,3.385,0,0,1-1.841,1.851A3.558,3.558,0,0,1-53,5.792a.825.825,0,0,1-.313-.3.862.862,0,0,1,.251-.58,3.131,3.131,0,0,1,2.314-1.024,5.816,5.816,0,0,1,1.509.271l-.135-.129a3.32,3.32,0,0,1-1.244-2.353C-50.613,1.191-50.587.075-49.967,0Z" transform="translate(59.702 19.18)" fill="#fea81a"/>
  <path id="Path_2066" data-name="Path 2066" d="M-18.571-1.352a2.637,2.637,0,0,1,1.516.807l.116.13A4.62,4.62,0,0,1-16.177.9l.063-.627h.063v1l.5-.063a15.262,15.262,0,0,1-.188,2.946l-.037.242a1.15,1.15,0,0,1-.519.837,3.221,3.221,0,0,0-.572.739l-.188.251.027-.114a5.091,5.091,0,0,0,.114-1.171V4.773A3.661,3.661,0,0,0-17,3.957a2.011,2.011,0,0,1-.008-.8c.06-.422.095-.84.114-1.265l.008-.169q.008-.2.016-.392l-.222.008a2.612,2.612,0,0,1-1.784-.76L-19,.46a3.5,3.5,0,0,1-.81-1.319A1.279,1.279,0,0,1-19.75-1.3,1.538,1.538,0,0,1-18.571-1.352Z" transform="translate(42.502 10.913)" fill="#fea81a"/>
  <path id="Path_2067" data-name="Path 2067" d="M-9.9-.822A3.293,3.293,0,0,1-8.078.683a3.64,3.64,0,0,1,.313,2.194h.752L-7,3.039q.02.3.04.606l.017.261q.012.189.025.378l.016.246c.015.192.036.382.061.573a1.648,1.648,0,0,1-.106.718c-.018.216-.018.43-.016.646v.168a4.857,4.857,0,0,0,.142,1.128l-.332-.445-.161-.213L-7.4,7a1.751,1.751,0,0,0-.409-.418.994.994,0,0,1-.282-.645l-.031-.152c-.063-.322-.116-.646-.157-.972l-.017-.128a5.383,5.383,0,0,1-.023-.812,1.932,1.932,0,0,0-.159-1.226A2.711,2.711,0,0,0-9.212,2.3,2.649,2.649,0,0,1-10.4.745,3.033,3.033,0,0,1-10.522-.7C-10.33-.927-10.171-.9-9.9-.822Z" transform="translate(10.961 9.372)" fill="#fea81a"/>
  <path id="Path_2068" data-name="Path 2068" d="M-65.613,0a1.945,1.945,0,0,1,1.058.964,2.431,2.431,0,0,1-.227,1.963,9.488,9.488,0,0,1-2.4,2.589l-.114.091a.76.76,0,0,1-.638.159,2.906,2.906,0,0,1-.384-.27l-.106-.085c-.374-.3-.728-.629-1.077-.961l-.142-.134c-.288-.279-.288-.279-.359-.492a1.481,1.481,0,0,1,.486.353,1.007,1.007,0,0,0,.505.274,1.822,1.822,0,0,0,.952-.627l.2-.176c.188-.169.372-.341.556-.514l.121-.108A4.11,4.11,0,0,0-65.777.39c.009-.109.024-.218.04-.327Z" transform="translate(82.536 0.089)" fill="#b9022d"/>
  <path id="Path_2069" data-name="Path 2069" d="M-39.7-.139l.125.313-.1.124q-.192.232-.381.466l-.225.277a7.049,7.049,0,0,0-1.422,3.332l-.021.144A7.324,7.324,0,0,0-40.364,9.8c.194.243.4.478.6.714a1.412,1.412,0,0,1,.188.251,1.139,1.139,0,0,1-.125.313.55.55,0,0,1-.443-.088,7.992,7.992,0,0,1-2.211-5.744,7.76,7.76,0,0,1,2.214-5.3A.553.553,0,0,1-39.7-.139Z" transform="translate(49.291 7.561)" fill="#ef7715"/>
  <path id="Path_2070" data-name="Path 2070" d="M-1.875-.152a.542.542,0,0,1,.455.1A7.75,7.75,0,0,1,.464,3.177l.046.149A7.328,7.328,0,0,1,.777,5.442v.224a7.743,7.743,0,0,1-2.338,5.4,2.089,2.089,0,0,1-.313,0L-2,10.754l.106-.127A7.873,7.873,0,0,0,.174,4.753,7.731,7.731,0,0,0-1.749.474L-2,.161Z" transform="translate(21.869 7.574)" fill="#ef7715"/>
  <path id="Path_2071" data-name="Path 2071" d="M-55.946-1.945l.13.031a.789.789,0,0,1,.517.294.613.613,0,0,1,0,.376A3.327,3.327,0,0,1-57.118.01a3.849,3.849,0,0,1-2.57-.439,3.845,3.845,0,0,1,2.163-1.609A4.126,4.126,0,0,1-55.946-1.945Z" transform="translate(64.138 7.913)" fill="#fea81a"/>
  <path id="Path_2072" data-name="Path 2072" d="M-54.013-2.244a.54.54,0,0,1,.069.455A3.423,3.423,0,0,1-55.557.165a4.306,4.306,0,0,1-2.068.251,3.572,3.572,0,0,1,1.066-2.068C-55.965-2.088-54.735-2.674-54.013-2.244Z" transform="translate(60.822 11.833)" fill="#fea81a"/>
  <path id="Path_2073" data-name="Path 2073" d="M-39.615-3.147l.152.065a3.724,3.724,0,0,1,1.541,1.314,1.178,1.178,0,0,1-.611.353l-.226.081a3.181,3.181,0,0,1-2.394-.218,2.851,2.851,0,0,1-1.093-.968c-.028-.334-.028-.334.066-.474a1.5,1.5,0,0,1,.58-.228l.135-.033A2.84,2.84,0,0,1-39.615-3.147Z" transform="translate(62.994 9.19)" fill="#fea81a"/>
  <path id="Path_2074" data-name="Path 2074" d="M-38.624-.771c.174.174.144.282.145.525A3.227,3.227,0,0,1-39.341,2a3.872,3.872,0,0,1-.823.588l-.114.064a2.155,2.155,0,0,1-.916.215A3.675,3.675,0,0,1-40.592.2C-40.168-.25-39.3-1.03-38.624-.771Z" transform="translate(67.644 9.321)" fill="#fea919"/>
  <path id="Path_2075" data-name="Path 2075" d="M-62.75-13.907a1.008,1.008,0,0,1,.125.251h.125v.125a3.469,3.469,0,0,1-2.293.772,3.514,3.514,0,0,1-2.094-.96.539.539,0,0,1-.024-.436,2.317,2.317,0,0,1,1.34-.629A3.328,3.328,0,0,1-62.75-13.907Z" transform="translate(69.457 34.867)" fill="#fea81a"/>
  <path id="Path_2076" data-name="Path 2076" d="M-63.738-9.1a.685.685,0,0,1,.063.376A2.974,2.974,0,0,1-65.5-7.672l-.184.016-.127.012a3.438,3.438,0,0,1-2.077-.6L-68-8.346c0-.267.118-.364.293-.556A3.15,3.15,0,0,1-63.738-9.1Z" transform="translate(90.752 29.745)" fill="#fea81a"/>
  <path id="Path_2077" data-name="Path 2077" d="M-67.9-.172a.74.74,0,0,1,.317.555,2.7,2.7,0,0,1-.54,2.093,10.776,10.776,0,0,1-1,1.156l-.131.139a10.353,10.353,0,0,1-1.06.927l-.133.109a.988.988,0,0,1-.759.044,1.717,1.717,0,0,1-.729-.557l-.128-.129c-.309-.317-.309-.317-.381-.533a1.481,1.481,0,0,1,.486.353,1.007,1.007,0,0,0,.505.274,1.822,1.822,0,0,0,.952-.627l.2-.176c.188-.169.372-.341.556-.514l.121-.108A4.109,4.109,0,0,0-68.215.2c.009-.109.024-.218.04-.327A.324.324,0,0,1-67.9-.172Z" transform="translate(84.973 0.281)" fill="#d00028"/>
  <path id="Path_2078" data-name="Path 2078" d="M-22.5,0a15.262,15.262,0,0,1-.188,2.946l-.037.242a1.15,1.15,0,0,1-.519.837,3.221,3.221,0,0,0-.572.739L-24,5.014l.027-.114a5.091,5.091,0,0,0,.114-1.171V3.564a3.661,3.661,0,0,0-.084-.816,2.011,2.011,0,0,1-.008-.8c.06-.422.095-.84.114-1.265l.008-.169q.008-.2.016-.392l.2-.012L-23.35.1l.133-.007C-22.961.074-22.749,0-22.5,0Z" transform="translate(49.447 12.123)" fill="#e6394f"/>
  <path id="Path_2079" data-name="Path 2079" d="M-.124,0,1.192.125l.025.389.025.38.017.261q.012.189.025.378l.016.246c.015.192.036.382.061.573a1.648,1.648,0,0,1-.106.718c-.018.216-.018.43-.016.646v.168A4.857,4.857,0,0,0,1.38,5.014L1.048,4.57.887,4.356l-.08-.108A1.75,1.75,0,0,0,.4,3.83a.994.994,0,0,1-.282-.645l-.03-.152C.055,2.879.027,2.724,0,2.57l-.023-.133A13.733,13.733,0,0,1-.124,0Z" transform="translate(2.757 12.123)" fill="#e6394f"/>
  <path id="Path_2080" data-name="Path 2080" d="M-16.872,0a1.665,1.665,0,0,1,.411.639,12.174,12.174,0,0,0,1.043,1.75,1.383,1.383,0,0,1,.2.534,3.664,3.664,0,0,0,.408,1l.07.15L-14.8,4.2l-.133-.1a4.328,4.328,0,0,0-1.277-.722c-.855-.458-1.448-1.882-1.786-2.75V.5l.167-.062.221-.083.218-.082A3.254,3.254,0,0,0-16.872,0Z" transform="translate(21.573 16.886)" fill="#e6394f"/>
  <path id="Path_2081" data-name="Path 2081" d="M-29.994,0l.117.062A6.305,6.305,0,0,0-28.8.5a5.719,5.719,0,0,1-.45,1.085l-.074.139a11.365,11.365,0,0,1-.729,1.158l-.133.212a2.441,2.441,0,0,1-.823.433A4.178,4.178,0,0,0-32,4.2a.914.914,0,0,1,.141-.49,3.949,3.949,0,0,0,.278-.811,3.528,3.528,0,0,1,.609-1.16A11.887,11.887,0,0,0-29.994,0Z" transform="translate(54.815 16.886)" fill="#e6394f"/>
  <path id="Path_2082" data-name="Path 2082" d="M-15.769,0a1.17,1.17,0,0,1,.305.42l.062.138.064.147.067.152a12.8,12.8,0,0,1,.505,1.4l.065.2a2.113,2.113,0,0,1-.069,1.387,5.127,5.127,0,0,0-.121.979,1.977,1.977,0,0,1-.356-.6,2.286,2.286,0,0,0-.5-.76,2.125,2.125,0,0,1-.44-1.014,8.711,8.711,0,0,0-.5-1.321l-.063-.142L-16.8.863c-.033-.111-.033-.111.03-.3a1.76,1.76,0,0,1,.294-.118A1.9,1.9,0,0,0-15.769,0Z" transform="translate(41.279 7.109)" fill="#e6394f"/>
  <path id="Path_2083" data-name="Path 2083" d="M-16.766,0l.135.089a5.144,5.144,0,0,0,.993.537c-.121.383-.264.752-.418,1.123a6.64,6.64,0,0,0-.262.8,1.913,1.913,0,0,1-.517,1.011,4.042,4.042,0,0,0-.514.87,2.735,2.735,0,0,1-.232.394l-.021-.213a4.057,4.057,0,0,0-.214-1.158c-.3-.8.409-2.15.736-2.891C-16.982.372-16.879.184-16.766,0Z" transform="translate(20.778 7.109)" fill="#e6394f"/>
  <path id="Path_2084" data-name="Path 2084" d="M0,0H4.262A1.89,1.89,0,0,1,3.4,1.173a2.569,2.569,0,0,1-1.973.28A2.6,2.6,0,0,1,.086.384.64.64,0,0,1,0,0Z" transform="translate(12.661 14.191)" fill="#ef7816"/>
  <path id="Path_2085" data-name="Path 2085" d="M-14.06,0a1.231,1.231,0,0,1,.54.326,6.746,6.746,0,0,0,.851.626c.829.539.829.539,1.042.85a5.568,5.568,0,0,0,.7.768c-.2.1-.368,0-.568-.055a3.288,3.288,0,0,0-.961-.138,2.39,2.39,0,0,1-1.668-.747l-.129-.106q-.381-.316-.749-.646a2.87,2.87,0,0,1,.435-.368A2.13,2.13,0,0,0-14.06,0Z" transform="translate(21.456 20.772)" fill="#e63a4f"/>
  <path id="Path_2086" data-name="Path 2086" d="M-48.741,0c.068.074.133.152.2.231A2.4,2.4,0,0,0-47.8.815c-.1.106-.207.21-.313.313l-.127.124c-.162.152-.329.3-.5.44l-.1.086a2.53,2.53,0,0,1-1.894.6,3.282,3.282,0,0,0-.888.192l-.235.074L-52,2.7l.125-.125.086-.087q.109-.109.221-.216a3.372,3.372,0,0,0,.539-.629A2.486,2.486,0,0,1-50.194.99a6.722,6.722,0,0,0,.937-.682C-48.9,0-48.9,0-48.741,0Z" transform="translate(70.929 20.772)" fill="#e6394f"/>
  <path id="Path_2087" data-name="Path 2087" d="M-7.3-.142h3.914c.178.008.178.008.241.071A2.449,2.449,0,0,1-3.167.2l-.017.15a1.385,1.385,0,0,1-.085.328H-7.657a1.638,1.638,0,0,1-.125-.752C-7.664-.189-7.456-.141-7.3-.142Z" transform="translate(20.255 13.51)" fill="#fef9f4"/>
  <path id="Path_2088" data-name="Path 2088" d="M-17.809,0a7.8,7.8,0,0,1,.966.945c.092.1.185.206.284.3a2.343,2.343,0,0,1,.425,1.38c.033.235.088.463.144.693a3.775,3.775,0,0,1-.45-.4,3.7,3.7,0,0,0-1-.7,3.453,3.453,0,0,1-.9-.858A4.99,4.99,0,0,0-19,.752a.443.443,0,0,1,.392,0,1.761,1.761,0,0,0,.674.067C-17.792.7-17.792.7-17.8.526l0-.19,0-.19Z" transform="translate(40.937 3.912)" fill="#e63a4e"/>
  <path id="Path_2089" data-name="Path 2089" d="M-27.182,0a1.022,1.022,0,0,1,.059.443c-.025.247-.025.247.129.372a1.478,1.478,0,0,0,.639-.067.535.535,0,0,1,.427,0l-.145.129a10.612,10.612,0,0,0-1.044,1.056,1.714,1.714,0,0,1-.441.319A6.827,6.827,0,0,0-29,3.385l.037-.115a4.936,4.936,0,0,0,.281-1.385A1.868,1.868,0,0,1-28.06.94l.152-.172C-27.674.5-27.436.245-27.182,0Z" transform="translate(33.575 3.912)" fill="#e63a4e"/>
  <path id="Path_2090" data-name="Path 2090" d="M-25.586-1.623a2.8,2.8,0,0,1,.819.658.84.84,0,0,1,0,.313c-.063.063-.063.063-.227.094a.82.82,0,0,1-.555-.368.625.625,0,0,0-.522-.192.728.728,0,0,0-.436.1.894.894,0,0,0-.238.511A3.509,3.509,0,0,0-25.7,1.319c.118.161.118.161.106.341l-.051.133a.906.906,0,0,1-.313.063A3.921,3.921,0,0,1-27.274-.213a1.269,1.269,0,0,1,.215-1.018A1.229,1.229,0,0,1-25.586-1.623Z" transform="translate(39.308 2.244)" fill="#e7546d"/>
  <path id="Path_2091" data-name="Path 2091" d="M-10.311,0c.216.049.431.1.646.157L-9.479.2c.441.115.441.115.561.29a3.371,3.371,0,0,1,.111.39q.093.2.192.392l.1.189.088.171.125.251a8.112,8.112,0,0,1-1.312-.239l-.194-.047A7.636,7.636,0,0,1-11,1.191l.08-.1a2.952,2.952,0,0,0,.5-.905A.355.355,0,0,1-10.311,0Z" transform="translate(21.342 22.903)" fill="#e6394e"/>
  <path id="Path_2092" data-name="Path 2092" d="M-29.057,0c.214.107.255.348.344.561a4.052,4.052,0,0,0,.408.63c-1.973.689-1.973.689-2.7.689q.113-.228.229-.454l.116-.228.059-.114a2.106,2.106,0,0,0,.2-.538c.082-.171.082-.171.188-.229A4.375,4.375,0,0,1-29.782.2l.148-.039.272-.069C-29.259.066-29.158.034-29.057,0Z" transform="translate(47.547 22.903)" fill="#e6394f"/>
  <path id="Path_2093" data-name="Path 2093" d="M-11.263-.074a.64.64,0,0,1,.449.345.932.932,0,0,1-.09.686.882.882,0,0,1-.587.209c-.137-.017-.137-.017-.325-.162a.766.766,0,0,1-.188-.67A.65.65,0,0,1-11.263-.074Z" transform="translate(24.478 10.786)" fill="#ef7916"/>
  <path id="Path_2094" data-name="Path 2094" d="M-10.732-.057A.822.822,0,0,1-10.3.221a.827.827,0,0,1,.063.5.852.852,0,0,1-.3.4,1.09,1.09,0,0,1-.513.043.922.922,0,0,1-.376-.376C-11.468.348-11.468.348-11.3.1A.753.753,0,0,1-10.732-.057Z" transform="translate(27.346 10.773)" fill="#ef7916"/>
  <path id="Path_2095" data-name="Path 2095" d="M-3.339,0c.161.012.161.012.286.137-.034.222-.034.222-.125.313a2.092,2.092,0,0,1-.313,0C-3.555.388-3.555.388-3.562.231-3.552.022-3.547.016-3.339,0Z" transform="translate(18.597 1.205)" fill="#e7546d"/>
  <path id="Path_2096" data-name="Path 2096" d="M0,0A1.869,1.869,0,0,1,.486.321L.6.424.689.5.564.564A1.369,1.369,0,0,1,0,.063Z" transform="translate(12.536 3.912)" fill="#d71034"/>
  <path id="Path_2097" data-name="Path 2097" d="M0,0A2.366,2.366,0,0,1,.627.439L.439.5.219.286.1.165C0,.063,0,.063,0,0Z" transform="translate(12.974 4.413)" fill="#c5072f"/>
  <path id="Path_2098" data-name="Path 2098" d="M-4.687,0l.125.063L-5,.439V.251A2.926,2.926,0,0,1-4.687,0Z" transform="translate(27.627 20.898)" fill="#fa9622"/>
</svg>
