<svg xmlns="http://www.w3.org/2000/svg" width="28.758" height="35.148" viewBox="0 0 28.758 35.148">
  <g id="emotions" transform="translate(-46.495 0.627)">
    <path id="Path_2017" data-name="Path 2017" d="M-108.914-.329h.733l.4,0,1.1,0h.686l2.4,0q1.115,0,2.229-.005.959,0,1.918,0,.572,0,1.144,0,.538,0,1.077,0h.393a3.671,3.671,0,0,1,2.9,1.008,3.868,3.868,0,0,1,.955,2.912c0,.06,0,.12,0,.182q0,.333,0,.666c0,.5,0,.994,0,1.507h4.04a5.124,5.124,0,0,1-1.312,3.937,4.63,4.63,0,0,1-2.728,1.336V19c1.379-.011,1.379-.011,2.758-.025l.519,0,.271,0c.792,0,.792,0,1.108.3a4.343,4.343,0,0,1-.11,2.62,5.983,5.983,0,0,1-1.191,2.037l-.155.174A5.22,5.22,0,0,1-92.5,25.619l-.239.054-.18.04c0,.068,0,.137,0,.207q-.008.386-.018.772,0,.166-.007.332a4.434,4.434,0,0,1-1.074,3.357,4.039,4.039,0,0,1-3.062.954h-.2l-.638,0h-.436l-1.062,0c0,.087,0,.174,0,.264q.007.486.011.972,0,.21.006.42c0,.2,0,.4.006.6,0,.062,0,.125,0,.189a1.163,1.163,0,0,1-.3.906,1.4,1.4,0,0,1-.65.082l-.16,0-.526,0h-.181l-.951,0q-.491,0-.982.008-.378,0-.755,0l-.362,0c-.169,0-.338,0-.507,0l-.151,0a.758.758,0,0,1-.589-.208.762.762,0,0,1-.218-.6c0-.059,0-.118,0-.179s0-.127,0-.193c0-.1,0-.1,0-.2q0-.313,0-.626,0-.212,0-.424,0-.52,0-1.04l-.268,0-1,.005-.429,0c-1.442.012-2.705.016-3.8-1.044a3.863,3.863,0,0,1-.969-2.762l0-.159q-.007-.248-.013-.5l-.009-.339q-.011-.413-.021-.825l-.219-.051a4.094,4.094,0,0,1-1.454-.484l-.138-.072a4.847,4.847,0,0,1-1-.694l-.167-.148a5.586,5.586,0,0,1-1.476-2.317l-.066-.191a5.781,5.781,0,0,1-.169-1.555l0-.218c0-.513,0-.513.161-.785a.991.991,0,0,1,.766-.2h.788l.935,0,2.11,0V11.194l-.548-.068a4.991,4.991,0,0,1-2.876-2.191,5.462,5.462,0,0,1-.616-3.013h4.04c-.005-.977-.005-.977-.012-1.954a4.306,4.306,0,0,1,1.047-3.4A3.071,3.071,0,0,1-108.914-.329Zm-1.318,2.073a2.359,2.359,0,0,0-.5,1.606c0,.088,0,.176,0,.267s0,.194,0,.291,0,.207,0,.311q0,.427,0,.853,0,.46,0,.921,0,.9,0,1.8,0,.733,0,1.466,0,2.078,0,4.156c0,.075,0,.149,0,.226s0,.149,0,.227q0,1.818,0,3.635,0,1.866,0,3.733,0,1.048,0,2.1,0,.892,0,1.784,0,.455,0,.91,0,.417,0,.834,0,.151,0,.3a2.9,2.9,0,0,0,.565,2.11,2.4,2.4,0,0,0,1.825.626h4.857l2.038,0h4.139a3.136,3.136,0,0,0,2.276-.565,2.325,2.325,0,0,0,.625-1.742c0-.132,0-.132,0-.267q0-.146,0-.291t0-.311q0-.427,0-.853,0-.46,0-.921,0-.9,0-1.8,0-.733,0-1.466,0-2.078,0-4.156v-.453q0-1.818,0-3.635,0-1.866,0-3.733,0-1.048,0-2.1,0-.892,0-1.784,0-.455,0-.91,0-.417,0-.834,0-.151,0-.3a2.9,2.9,0,0,0-.565-2.11,2.488,2.488,0,0,0-1.9-.625h-4.8l-2.012,0h-4.088A2.964,2.964,0,0,0-110.232,1.744Zm-5.217,18.7a4.168,4.168,0,0,0,1.507,3.013,3.334,3.334,0,0,0,1.78.753V20.439Zm22.462,0v3.766a2.8,2.8,0,0,0,1.014-.308l.145-.074a4.206,4.206,0,0,0,2.047-2.537,3.31,3.31,0,0,0,.081-.848Zm-11.3,10.888v2.054h3.424V31.328Z" transform="translate(163.416 -0.274)" fill="#010188"/>
    <path id="Path_2018" data-name="Path 2018" d="M-116.127-14.323a5.458,5.458,0,0,1,2.059,3.525,5.6,5.6,0,0,1-1.1,4.079q-.133.154-.27.3l-.107.126A5.222,5.222,0,0,1-117.7-4.976l-.176.066a5.414,5.414,0,0,1-4.026-.463,5.279,5.279,0,0,1-1.072-.768l-.126-.107A5.169,5.169,0,0,1-124.408-8.4l-.066-.2a5.531,5.531,0,0,1,.541-4.148,4.728,4.728,0,0,1,.621-.86l.133-.152A5.38,5.38,0,0,1-116.127-14.323Z" transform="translate(180.183 18.362)" fill="#a3fbc3"/>
    <path id="Path_2019" data-name="Path 2019" d="M-130.247-15.722a6.125,6.125,0,0,1,2.363,4.079,6.126,6.126,0,0,1-1.4,4.674l-.308.325-.112.128A5.713,5.713,0,0,1-133.5-4.864l-.144.011a5.838,5.838,0,0,1-4.114-1.47,5.929,5.929,0,0,1-2.061-4.12,6.167,6.167,0,0,1,1.646-4.605A6.1,6.1,0,0,1-130.247-15.722Zm-7.032,1.836a4.845,4.845,0,0,0-1.083,3.681,4.7,4.7,0,0,0,1.81,3,4.526,4.526,0,0,0,3.3.865,4.77,4.77,0,0,0,3.108-1.856,4.895,4.895,0,0,0,.805-3.526,4.78,4.78,0,0,0-2.021-3A4.638,4.638,0,0,0-137.279-13.886Z" transform="translate(194.684 32.972)" fill="#010188"/>
    <path id="Path_2020" data-name="Path 2020" d="M0,0H4.109A5.124,5.124,0,0,1,2.8,3.937,4.6,4.6,0,0,1,0,5.273Z" transform="translate(70.361 5.647)" fill="#a3fbc3"/>
    <path id="Path_2021" data-name="Path 2021" d="M0,0H4.109V5.273A4.661,4.661,0,0,1,1.014,3.591,5.215,5.215,0,0,1,0,0Z" transform="translate(47.215 5.647)" fill="#a3fbc3"/>
    <path id="Path_2022" data-name="Path 2022" d="M-46.895-6.163a1.15,1.15,0,0,1,.518.663,1.038,1.038,0,0,1-.2.681.986.986,0,0,1-.715.181A1.67,1.67,0,0,1-47.942-5a.783.783,0,0,0-.551-.135,1.768,1.768,0,0,0-.482.247,1.179,1.179,0,0,1-.827.241.747.747,0,0,1-.478-.378,1.088,1.088,0,0,1-.013-.685A2.515,2.515,0,0,1-46.895-6.163Z" transform="translate(109.205 29.5)" fill="#010188"/>
    <path id="Path_2023" data-name="Path 2023" d="M-12.4-.381c.114.064.225.133.334.205A1.16,1.16,0,0,0-11.1.03a1.626,1.626,0,0,0,.539-.321.914.914,0,0,1,.693-.09A.95.95,0,0,1-9.456.03a.821.821,0,0,1-.083.621,2.258,2.258,0,0,1-1.355.817A2.51,2.51,0,0,1-12.953.912a.819.819,0,0,1-.36-.629.774.774,0,0,1,.3-.595A.877.877,0,0,1-12.4-.381Z" transform="translate(72.216 9.452)" fill="#040588"/>
    <path id="Path_2024" data-name="Path 2024" d="M-14.349-.388a1.3,1.3,0,0,1,.411.479c.01.168.016.333.017.5l.005.273a.964.964,0,0,1-.228.6.986.986,0,0,1-.687.159.786.786,0,0,1-.477-.3A2.343,2.343,0,0,1-15.4.579L-15.4.433a.929.929,0,0,1,.157-.611A.927.927,0,0,1-14.349-.388Z" transform="translate(76.63 20.621)" fill="#010188"/>
    <path id="Path_2025" data-name="Path 2025" d="M-14.4-.333a.923.923,0,0,1,.411.411c.01.179.016.356.017.535l0,.148a1.038,1.038,0,0,1-.227.755.967.967,0,0,1-.753.137.809.809,0,0,1-.418-.318,1.8,1.8,0,0,1-.087-.666L-15.461.4a1.132,1.132,0,0,1,.305-.666A1.273,1.273,0,0,1-14.4-.333Z" transform="translate(74.423 20.567)" fill="#010189"/>
    <path id="Path_2026" data-name="Path 2026" d="M-12.682-.235A1.165,1.165,0,0,1-12.2.245c.01.155.015.311.017.467l.005.254a.942.942,0,0,1-.228.581.753.753,0,0,1-.505.171l-.156.011A.768.768,0,0,1-13.5,1.4,1.245,1.245,0,0,1-13.61.72l0-.144A.906.906,0,0,1-13.3-.166.986.986,0,0,1-12.682-.235Z" transform="translate(72.634 6.704)" fill="#050789"/>
    <path id="Path_2027" data-name="Path 2027" d="M-11.242-.058l.16.009a.686.686,0,0,1,.431.393,3.228,3.228,0,0,1,.034.548l0,.145a.9.9,0,0,1-.311.745,1.06,1.06,0,0,1-.685.068,1.343,1.343,0,0,1-.411-.479c-.072-.805-.072-.805.072-1.111A.712.712,0,0,1-11.242-.058Z" transform="translate(73.274 6.536)" fill="#050789"/>
  </g>
</svg>
