<svg xmlns="http://www.w3.org/2000/svg" width="28.089" height="35.644" viewBox="0 0 28.089 35.644">
  <g id="figma" transform="translate(-53.476 1.11)">
    <path id="Path_1904" data-name="Path 1904" d="M-308.857-43.545c.345.3.682.61,1.016.924l.134.122a9.692,9.692,0,0,1,1.018,1.207l.185.241a13.991,13.991,0,0,1,2.628,10.083c-.041.3-.092.6-.151.9l-.036.184a13.894,13.894,0,0,1-3.61,6.855l-.194.205a12.241,12.241,0,0,1-2.886,2.255h-.139l0,.178c.048,2.233.048,2.233-.282,3.22l-.045.137a7.376,7.376,0,0,1-2.2,3.169,3.833,3.833,0,0,0-.64.724,4.59,4.59,0,0,1-2.77,1.906,4.859,4.859,0,0,1-3.476-.616,4.809,4.809,0,0,1-1.46-1.537,1.677,1.677,0,0,0-.511-.542,6.852,6.852,0,0,1-2.488-4.49q-.008-.255-.007-.511c0-.047,0-.094,0-.143q0-.224,0-.447,0-.152,0-.3,0-.372,0-.744l-.159-.06a2.4,2.4,0,0,1-.425-.224l-.128-.085-.133-.09-.139-.094a14.06,14.06,0,0,1-3.453-3.33l-.088-.121a14.235,14.235,0,0,1-2.4-10.528,14.75,14.75,0,0,1,.544-2.11l.05-.152a13.869,13.869,0,0,1,.92-2.067l.125-.239a13.412,13.412,0,0,1,2.372-3.089l.113-.113a13.3,13.3,0,0,1,2.729-2.037l.13-.075a13.628,13.628,0,0,1,3.753-1.45l.178-.041A14.084,14.084,0,0,1-308.857-43.545Z" transform="translate(385.344 45.68)" fill="#fdd45e"/>
    <path id="Path_1905" data-name="Path 1905" d="M-71.823-.409A8.075,8.075,0,0,1-71,.021c.126.073.253.145.381.217a5.159,5.159,0,0,1,1.154.81l.139.069-.069.069c-.016.117-.029.234-.039.351l-.018.193-.013.149.145.02a2.439,2.439,0,0,1,.648.287l.127.072.264.151c.133.077.267.152.4.228l.257.147.234.134a2.269,2.269,0,0,1,.905,1.042,2.32,2.32,0,0,1-.28,1.616,2.868,2.868,0,0,1-.83.742l-.139.09a2.654,2.654,0,0,1-1.078.252,3.967,3.967,0,0,0-2.527.975,4.158,4.158,0,0,0-.485.763c.253-.03.5-.06.756-.1a4.106,4.106,0,0,1,3.162.577l.193.112c1.335.781,1.335.781,1.662,1.565A7.52,7.52,0,0,1-67.1,16.112a7.425,7.425,0,0,1-2.364,2.548V18.9c0,.293-.005.587-.01.88q0,.19,0,.379a2.774,2.774,0,0,1-.568,2.088l-.16.13-.161.135a.933.933,0,0,1-.656.206,3.009,3.009,0,0,1-.965-.459c-.12-.073-.242-.144-.363-.215-.984-.581-.984-.581-1.136-.886,0-.142-.006-.283,0-.425l0-.23,0-.177-.143.012a2.027,2.027,0,0,1-1.3-.359l-.181-.105q-.179-.1-.357-.212c-.145-.087-.29-.171-.437-.253a2.785,2.785,0,0,1-1.214-1.15,2.219,2.219,0,0,1,.377-1.816,2.721,2.721,0,0,1,1.525-.9c.107-.006.214-.009.322-.01a4.663,4.663,0,0,0,3.491-1.263,3.336,3.336,0,0,0,.417-.807l-.115.019a13.574,13.574,0,0,1-1.983.219l-.27,0a5.13,5.13,0,0,1-1.81-.827l-.243-.138-.235-.135-.211-.121a2.218,2.218,0,0,1-.99-1.521A7.647,7.647,0,0,1-75.295,5.32l.144-.182.157-.2c.754-.94.754-.94,1.173-1.168a.563.563,0,0,0,.232-.448c.011-.285.013-.568.008-.853A3.3,3.3,0,0,1-72.87-.075,1.09,1.09,0,0,1-71.823-.409Z" transform="translate(139.064 1.802)" fill="#87ecd7"/>
    <path id="Path_1906" data-name="Path 1906" d="M-.093,0,.144.117a18.128,18.128,0,0,0,3.2,1.257l.14.038a12.534,12.534,0,0,0,3.236.347h.188a13.4,13.4,0,0,0,2.772-.233l.142-.03c.3-.068.6-.154.9-.247l.14-.042A17.87,17.87,0,0,0,13.775,0c.059,2.39.059,2.39-.277,3.4l-.045.137a7.376,7.376,0,0,1-2.2,3.169,3.834,3.834,0,0,0-.64.724,4.59,4.59,0,0,1-2.77,1.906,4.859,4.859,0,0,1-3.476-.616,4.81,4.81,0,0,1-1.46-1.537,1.676,1.676,0,0,0-.511-.542A6.852,6.852,0,0,1-.093,2.149Q-.1,1.894-.1,1.639V1.5q0-.224,0-.447,0-.152,0-.3Q-.095.372-.093,0Z" transform="translate(60.678 25.108)" fill="#d6cfee"/>
    <path id="Path_1907" data-name="Path 1907" d="M-46.447-.088A2.444,2.444,0,0,1-45.9.166l.205.121.212.127.216.126.2.121.187.111.135.1v.139a2.367,2.367,0,0,1-.234.208,8.172,8.172,0,0,0-2.956,5.27c-.017.295-.023.589-.026.884l0,.219a3.331,3.331,0,0,0,.423,1.753l.092.155.069.11A7.026,7.026,0,0,1-48.378,9.1l-.177-.1a2.3,2.3,0,0,1-1.227-1.448,7.4,7.4,0,0,1,1.092-5.3c.174-.264.359-.515.555-.763l.157-.2A9.653,9.653,0,0,1-47.026.245l.11-.109C-46.656-.106-46.656-.106-46.447-.088Z" transform="translate(112.048 5.448)" fill="#5fbcb2"/>
    <path id="Path_1908" data-name="Path 1908" d="M-94.951-.081A1.14,1.14,0,0,1-94.04.14,1.562,1.562,0,0,1-93.9,1.25a2.8,2.8,0,0,1-1.273,1.533,4.906,4.906,0,0,1-2.4.642,3.434,3.434,0,0,0-1.46.321l-.225.078a2.156,2.156,0,0,0-.815,1.239,2.21,2.21,0,0,0,.347,1.595,6.347,6.347,0,0,1-1-.494l-.173-.094a2.542,2.542,0,0,1-1.079-1.063,2.218,2.218,0,0,1,.377-1.816,2.721,2.721,0,0,1,1.525-.9c.107-.006.214-.009.322-.01a4.57,4.57,0,0,0,3.5-1.272,2.113,2.113,0,0,0,.309-.586c.135-.328.135-.328.306-.43A3.914,3.914,0,0,1-94.951-.081Z" transform="translate(163.916 15.052)" fill="#22a697"/>
    <path id="Path_1909" data-name="Path 1909" d="M-23.59-.419a9.974,9.974,0,0,1,.971.52l.263.15q.32.183.638.37V.69L-21.845.7a1.671,1.671,0,0,0-1.112.625,2.131,2.131,0,0,0-.391,1.356l0,.166c0,.172-.006.345-.008.517q0,.177-.007.353-.009.43-.014.86l-.139.069-.081-.09a2.419,2.419,0,0,0-.5-.335l-.216-.121-.225-.125-.228-.127-.557-.31q-.01-.449-.015-.9,0-.152-.006-.3a3.093,3.093,0,0,1,.708-2.416A1.086,1.086,0,0,1-23.59-.419Z" transform="translate(90.831 1.813)" fill="#a8d9d3"/>
    <path id="Path_1910" data-name="Path 1910" d="M0,0,.295.147l.192.1Q.694.347.9.455A6.217,6.217,0,0,0,2.219.971l.186.053a5.386,5.386,0,0,0,1.509.19H4.15A7.8,7.8,0,0,0,8.043,0a4.1,4.1,0,0,1-2.08,2.08,4.85,4.85,0,0,1-3.523.152A4.712,4.712,0,0,1,0,.139Z" transform="translate(63.497 32.042)" fill="#023a5f"/>
    <path id="Path_1911" data-name="Path 1911" d="M-27.491-.105l.253-.008A4.463,4.463,0,0,1-25.5.627l.2.116.484.282a.816.816,0,0,1-.555,0,6.207,6.207,0,0,0-1.755.173c-1.786.354-1.786.354-2.267.035A.848.848,0,0,1-29.536.6l0-.228,0-.175A10.659,10.659,0,0,1-27.491-.105Z" transform="translate(96.7 10.076)" fill="#56b3aa"/>
    <path id="Path_1912" data-name="Path 1912" d="M-25.44,0q.015.5.03,1l.01.339.014.487,0,.153c.006.2.011.394.011.591q-.408-.23-.815-.464l-.233-.132-.225-.129-.207-.118a1.664,1.664,0,0,1-.462-.475A1.734,1.734,0,0,1-27.33.81l.008-.225.01-.17.173-.038c.431-.1.855-.2,1.275-.34A1.168,1.168,0,0,1-25.44,0Z" transform="translate(92.89 21.71)" fill="#24a698"/>
    <path id="Path_1913" data-name="Path 1913" d="M0,0,.277.069.208.139C.192.255.179.372.169.49L.151.683.139.832.287.853a2.06,2.06,0,0,1,.6.267l.224.132.232.139.236.139.575.342a1.38,1.38,0,0,1-.589.056,2.387,2.387,0,0,0-1.049.23.868.868,0,0,1-.442.061Z" transform="translate(69.46 2.85)" fill="#c1e1dc"/>
    <path id="Path_1914" data-name="Path 1914" d="M0,0A4.487,4.487,0,0,1,2.658,1.842a2.914,2.914,0,0,1,.462.793l-.069.139L2.891,2.6q-.334-.365-.672-.726L2.059,1.7A10.392,10.392,0,0,0,.1.14L0,.069Z" transform="translate(74.383 2.157)" fill="#feefc9"/>
  </g>
</svg>
