<svg xmlns="http://www.w3.org/2000/svg" width="35.829" height="35.833" viewBox="0 0 35.829 35.833">
  <g id="graduated" transform="translate(0.317 0.316)">
    <path id="Path_1915" data-name="Path 1915" d="M-238.053,0h.216a14.841,14.841,0,0,1,3.026.231l.206.042a18.716,18.716,0,0,1,9.574,5.257l.153.152c.76.762.76.762.76.979l.128-.02.169-.023.167-.025a.68.68,0,0,1,.444.138.389.389,0,0,1,.05.323,2.636,2.636,0,0,0,.687,1.9,16.383,16.383,0,0,1,2.361,8.937c0,.071,0,.142,0,.216a14.844,14.844,0,0,1-.231,3.026l-.042.206a17.658,17.658,0,0,1-2.963,6.923,3.759,3.759,0,0,0,.372.616,6.545,6.545,0,0,1,1.375,4.276,3.551,3.551,0,0,1-1.608,2.027,4.347,4.347,0,0,1-3.33.5,5.993,5.993,0,0,1-2.263-1.393l-.1-.1c-.095-.092-.188-.185-.281-.278-.159-.139-.159-.139-.334-.126a8.111,8.111,0,0,0-.765.351,17.738,17.738,0,0,1-5.5,1.608l-.141.018a10.246,10.246,0,0,1-1.2.066h-.626c-.21,0-.421,0-.631.005a16.092,16.092,0,0,1-2.785-.231l-.241-.04a17.388,17.388,0,0,1-8.216-3.944l-.158-.134a16.837,16.837,0,0,1-2.568-2.731l-.18-.241a17.493,17.493,0,0,1-1.148-1.786l-.085-.15a17.841,17.841,0,0,1-1.894-5.193l-.031-.152a17.051,17.051,0,0,1-.248-3.286c0-.071,0-.142,0-.216a14.843,14.843,0,0,1,.231-3.026l.042-.207a18.069,18.069,0,0,1,4.641-8.949l.134-.14a15.6,15.6,0,0,1,2.033-1.817l.241-.18a17.519,17.519,0,0,1,1.786-1.148l.15-.085A17.839,17.839,0,0,1-241.491.276l.152-.031A17.05,17.05,0,0,1-238.053,0Z" transform="translate(255.625 -0.313)" fill="#face4e"/>
    <path id="Path_1916" data-name="Path 1916" d="M-182.472,0a16.1,16.1,0,0,1-3.411,8.67c-.168.182-.168.182-.154.346l.152.065a5.6,5.6,0,0,1,1.493,1.03c.09.083.183.163.275.244a6.863,6.863,0,0,1,2.011,4.158A2.731,2.731,0,0,1-182.8,16.6a4.477,4.477,0,0,1-3.168,1.455,5.952,5.952,0,0,1-3.886-2.017,7.166,7.166,0,0,1-.517-.665l-.22-.287c-1.221-1.588-1.221-1.588-1.318-1.879a1.293,1.293,0,0,0-.28-.14l-.184-.1a7.178,7.178,0,0,0-1.048-.459,3.923,3.923,0,0,1-2.149-2.176,4.955,4.955,0,0,1-.6-2.442.935.935,0,0,1,.268-.205l.175-.107.186-.107.176-.1c.187-.107.374-.212.563-.317q.848-.475,1.686-.965.916-.537,1.839-1.062,1.019-.581,2.032-1.173,1.1-.645,2.212-1.281l1.362-.786,1.057-.609.373-.215.468-.269c.312-.18.622-.361.926-.555C-182.612,0-182.612,0-182.472,0Z" transform="translate(216.145 17.459)" fill="#14bca0"/>
    <path id="Path_1917" data-name="Path 1917" d="M-182.542,0a17.048,17.048,0,0,1-3.634,9.016l-.139-.046a5.716,5.716,0,0,0-1.958-.164l-.265.012a10.931,10.931,0,0,0-4.186,1.39l-.179.1a11.842,11.842,0,0,0-1.354.9l-.138.1-.119.092c-.119.065-.119.065-.4.065a5.484,5.484,0,0,1-1.346-3.389c.018-.176.018-.176.13-.287l.157-.094.175-.107.186-.107.176-.1c.187-.107.374-.212.563-.317q.848-.475,1.686-.965.916-.537,1.839-1.062,1.019-.581,2.032-1.173,1.1-.645,2.212-1.281l1.362-.786,1.057-.609.373-.215.468-.269c.312-.18.622-.361.926-.555C-182.682,0-182.682,0-182.542,0Z" transform="translate(216.215 17.459)" fill="#653011"/>
    <path id="Path_1918" data-name="Path 1918" d="M-37.381-.127c.166.052.166.052.236.122.005.164.006.329,0,.494l0,.273,0,.212L-36.968.9A2.542,2.542,0,0,1-35.607.624c.189.189.167.3.175.564A1.474,1.474,0,0,1-35.887,2.3a1.262,1.262,0,0,1-.633.214,1.7,1.7,0,0,0-.555.135l-.07,2.027.559-.14a2.269,2.269,0,0,1,1.158.1,1.605,1.605,0,0,1,.485,1.267,4.775,4.775,0,0,1-1.223,3.032l-.091.117A3.644,3.644,0,0,1-37,9.78h-.14l.007.215q0,.142.006.283l.005.141a1.433,1.433,0,0,1-.324.96.555.555,0,0,1-.463.079c-.14-.14-.14-.14-.153-.352l0-.251,0-.252,0-.194-.166.074a2.427,2.427,0,0,1-1.162.345l-.146.011c-.374.017-.374.017-.532-.1a1.049,1.049,0,0,1-.091-.823,1.982,1.982,0,0,1,.533-.8,1.973,1.973,0,0,1,.8-.156,2.72,2.72,0,0,0,.767-.159V6.775l-.7.14a1.519,1.519,0,0,1-.939-.118,1.277,1.277,0,0,1-.472-.871,4.241,4.241,0,0,1,.363-2.3l.09-.2a4.04,4.04,0,0,1,1.387-1.6c.2-.153.2-.232.236-.486.009-.149.013-.3.01-.446a1.139,1.139,0,0,1,.3-.833l.1-.135C-37.564-.145-37.564-.145-37.381-.127Z" transform="translate(58.796 10.264)" fill="#1db19b"/>
    <path id="Path_1919" data-name="Path 1919" d="M-35.021,0c.329.049.329.049.419.14.005.164.006.329,0,.494l0,.273,0,.212.164-.074c.982-.429.982-.429,1.4-.289a.423.423,0,0,1,.179.223,1.482,1.482,0,0,1-.28,1.188,1.207,1.207,0,0,1-.93.476l-.537.083v2.1l.489-.14c.994-.1.994-.1,1.31.144a2.389,2.389,0,0,1,.367,1.883,5.647,5.647,0,0,1-1.957,3.145l-.14.07c-.016.169-.026.333-.031.5a1.73,1.73,0,0,1-.345,1.1.534.534,0,0,1-.463.079.855.855,0,0,1-.149-.642l0-.23,0-.176-.235.092c-1.2.454-1.2.454-1.652.328a.787.787,0,0,1-.24-.616A1.736,1.736,0,0,1-37.166,9.3a2.007,2.007,0,0,1,1.057-.263,3.152,3.152,0,0,0,.6-.095V6.919l-.419.07c-.189.012-.375.019-.564.022l-.147.006a1.009,1.009,0,0,1-.6-.143,2.241,2.241,0,0,1-.4-1.777,4.96,4.96,0,0,1,1.92-3.28l.14-.07c.011-.177.016-.351.017-.529A1.408,1.408,0,0,1-35.187.16l.1-.09Z" transform="translate(65.34 5.577)" fill="#1db19b"/>
    <path id="Path_1920" data-name="Path 1920" d="M-.324-.174a1.165,1.165,0,0,1,.349,0,1.212,1.212,0,0,1,.28.28v.14L.428.169c.581-.345.581-.345.926-.273a.717.717,0,0,1,.28.28.884.884,0,0,1-.07.559q-.242.11-.489.21a2.877,2.877,0,0,0,.393.612l.134.169.1.128a3.983,3.983,0,0,0,.559-.21,1.554,1.554,0,0,1,.93.114A1.927,1.927,0,0,1,3.96,2.939a2.068,2.068,0,0,1-.129.9.535.535,0,0,0-.031.529l.114.135c.1.144.1.144.074.336L3.94,5a.529.529,0,0,1-.28.07,2.64,2.64,0,0,1-.349-.349,3.97,3.97,0,0,0-.55.253,1.1,1.1,0,0,1-.708.1.811.811,0,0,1-.315-.533.383.383,0,0,1,.144-.28,5.527,5.527,0,0,1,.66-.306.963.963,0,0,0-.319-.568c-.24-.256-.24-.256-.24-.411l-.131.061a1.831,1.831,0,0,1-1.2.218A1.861,1.861,0,0,1-.254,2.2,1.666,1.666,0,0,1-.215.992L-.114.8A.589.589,0,0,0-.324.315,4.566,4.566,0,0,1-.324-.174Z" transform="translate(28.476 28.327)" fill="#643213"/>
    <path id="Path_1921" data-name="Path 1921" d="M0,0C.489,0,.489,0,.625.07A1,1,0,0,1,.7.769a1.94,1.94,0,0,1-.7.909Z" transform="translate(30.738 12.217)" fill="#e6e068"/>
    <path id="Path_1922" data-name="Path 1922" d="M0,0C.419,0,.419,0,.585.109A.752.752,0,0,1,.7.769a1.98,1.98,0,0,1-.7.909Z" transform="translate(21.652 16.76)" fill="#e8e064"/>
    <path id="Path_1923" data-name="Path 1923" d="M-7.054,0h.14V1.677c-.419,0-.419,0-.629-.14A1.484,1.484,0,0,1-7.338.376,1.73,1.73,0,0,1-7.054,0Z" transform="translate(27.657 13.545)" fill="#f2e776"/>
    <path id="Path_1924" data-name="Path 1924" d="M-8,0h.07V1.747c-.419,0-.419,0-.548-.085A1.082,1.082,0,0,1-8.558.839,2.781,2.781,0,0,1-8,0Z" transform="translate(37.758 8.932)" fill="#f1e87c"/>
    <path id="Path_1925" data-name="Path 1925" d="M-1.163,0A2.76,2.76,0,0,1-.534.629v.14a1.832,1.832,0,0,1-.489,0A.787.787,0,0,1-1.25.227C-1.233.07-1.233.07-1.163,0Z" transform="translate(30.223 29.76)" fill="#16b799"/>
    <path id="Path_1926" data-name="Path 1926" d="M0-.185C.375-.21.375-.21.55-.111A1.006,1.006,0,0,1,.629.514,1.357,1.357,0,0,1,0-.046Z" transform="translate(30.948 31.203)" fill="#0dcca4"/>
  </g>
</svg>
