<svg xmlns="http://www.w3.org/2000/svg" width="22.618" height="21.527" viewBox="0 0 22.618 21.527">
  <g id="laurel" transform="translate(-41 -74)">
    <path id="Path_2028" data-name="Path 2028" d="M-110.86,0a2.79,2.79,0,0,1-.112.892l-.035.131a1.918,1.918,0,0,1-.693,1.123,1.779,1.779,0,0,1-.945.116l-.367.87.387-.167a2.985,2.985,0,0,1,1.24-.3c-.246,1.685-.246,1.685-.787,2.147a1.507,1.507,0,0,1-1.312.174l-.1,1.16.138-.2a3.826,3.826,0,0,1,1.542-1.077h.1a3.813,3.813,0,0,1-.189,2.261,1.96,1.96,0,0,1-.7.669,2.889,2.889,0,0,1-.741.029l-.052-.058a5.949,5.949,0,0,0,.184,1.07l.036.141a2.844,2.844,0,0,0,.148.472l.049-.225a3.573,3.573,0,0,1,1.63-1.748h.157c.3,2,.3,2-.082,2.709a1.325,1.325,0,0,1-.8.632,3.388,3.388,0,0,1-.378.024,12.724,12.724,0,0,0,.84,1.334l.012-.132a3.193,3.193,0,0,1,1.271-2.076c.409-.345.409-.345.554-.345a5.648,5.648,0,0,1,.246,1.106l.021.149a2.654,2.654,0,0,1-.274,1.876,2.284,2.284,0,0,1-.569.467l-.157.116.367.276.1.078a5.553,5.553,0,0,0,.737.459l-.009-.191a3.836,3.836,0,0,1,1.131-2.728c.176-.206.176-.206.3-.272.915,2.051.915,2.051.635,3.075a2.481,2.481,0,0,1-.53.755c.513.126,1.026.245,1.545.337l.124.024A4.983,4.983,0,0,0-104.4,15l.207-.04a4.273,4.273,0,0,0,.681-.163l-.086-.1a1.861,1.861,0,0,1-.509-1.483,4.41,4.41,0,0,1,.753-2.249,4.569,4.569,0,0,1,1.364,2.2c0,.135.007.271.007.406,0,.071,0,.141,0,.214a1.67,1.67,0,0,1-.059.424,11.349,11.349,0,0,0,1.259-.87l-.113-.068a1.893,1.893,0,0,1-.879-1.064,4.832,4.832,0,0,1,.257-2.581,2.4,2.4,0,0,1,.735.522l.134.122a2.832,2.832,0,0,1,.968,1.908,9.924,9.924,0,0,0,.84-1.334h-.1a1.223,1.223,0,0,1-.9-.406,2.241,2.241,0,0,1-.434-1.538c.033-.476.1-.949.172-1.421a1.163,1.163,0,0,1,.61.312l.1.078A2.7,2.7,0,0,1-98.265,9.4a4.792,4.792,0,0,0,.272-.91l.028-.131a2.716,2.716,0,0,0,.067-.583l-.052.058a1.349,1.349,0,0,1-1.1-.29,2.341,2.341,0,0,1-.577-1.625,2.518,2.518,0,0,1,.052-1.044,3.721,3.721,0,0,1,1.732,1.16l.052.116-.1-1.16-.262.058a1.321,1.321,0,0,1-1.1-.29A3.89,3.89,0,0,1-100,2.669a3.521,3.521,0,0,1,1.627.464l-.367-.87-.285.015a1.236,1.236,0,0,1-.907-.326,3.048,3.048,0,0,1-.6-1.81l.007-.141A2.682,2.682,0,0,1-98.79.7a.9.9,0,0,1,.21.522l.1-.058c.078-.006.155-.008.233-.007h.124a.666.666,0,0,1,.272.066l.01-.123A1,1,0,0,1-97.426.5,2.861,2.861,0,0,1-95.9.058a3,3,0,0,1-.63,1.915.958.958,0,0,1-.84.232l.063.163.409,1.055.141-.156a2.753,2.753,0,0,1,1.748-.656,3.457,3.457,0,0,1-.515,1.958,1.11,1.11,0,0,1-.8.424c-.1,0-.209,0-.314,0l.021.168c.055.446.1.891.136,1.341l.094-.049.126-.064.124-.063a1.659,1.659,0,0,1,.715-.12h.184l.191,0h.194l.472,0a3.51,3.51,0,0,1-1.013,1.911,1.258,1.258,0,0,1-1.04.185c-.085-.021-.171-.042-.256-.065l-.013.2a9.253,9.253,0,0,1-.249,1.247l.19-.058a3.687,3.687,0,0,1,1.528.022l.125.022c.294.057.294.057.413.188-.869,1.648-.869,1.648-1.574,1.857a1.93,1.93,0,0,1-1.417-.29l-.367.7.052.058c.1,0,.2-.006.305-.011a4.187,4.187,0,0,1,.984.12l.136.031a2.748,2.748,0,0,1,.622.209,3.142,3.142,0,0,1-1.164,1.621,1.535,1.535,0,0,1-1.276.319,1.432,1.432,0,0,1-.855-.588l-.064-.134-.083.093-.111.124-.109.122a5,5,0,0,1-.38.356l.137.032a6.994,6.994,0,0,1,1.647.722c-.109.55-.712.919-1.117,1.214a1.8,1.8,0,0,1-1.461.375,2.106,2.106,0,0,1-1.043-.776.806.806,0,0,1-.052-.348l-.087.035-.392.16-.136.056c-.231.094-.462.186-.7.271l.079.086a3.055,3.055,0,0,1,.813,1.945.86.86,0,0,1-.157.348l-.062.105a.776.776,0,0,1-.515.127.823.823,0,0,1-.472-.406q-.056-.168-.1-.341a1.447,1.447,0,0,0-.68-.967,5.488,5.488,0,0,0-1-.374l-.128-.039a2.646,2.646,0,0,0-1.745.487,1.082,1.082,0,0,1-.279.132,1.131,1.131,0,0,0-.1.232l-.051.106a3.563,3.563,0,0,0-.235.634.691.691,0,0,1-.344.479.673.673,0,0,1-.538-.011.708.708,0,0,1-.337-.495,2.717,2.717,0,0,1,.594-1.707c.2-.267.2-.267.333-.34l-.113-.042-1.3-.48.036.1a.271.271,0,0,1-.046.244,1.853,1.853,0,0,1-1.364.812,3.035,3.035,0,0,1-2.037-1.216l-.126-.126c-.084-.106-.084-.106-.084-.28,1.327-.716,1.327-.716,1.837-.7v-.116l-.088-.041a2.086,2.086,0,0,1-.4-.343l-.142-.144-.107-.11-.064.134a1.432,1.432,0,0,1-.855.588,1.582,1.582,0,0,1-1.286-.316,5.548,5.548,0,0,1-1.155-1.451v-.174a5.571,5.571,0,0,1,2.152-.348l-.42-.754-.289.141a1.433,1.433,0,0,1-1.233.091,2.993,2.993,0,0,1-.42-.29l-.129-.1a4.325,4.325,0,0,1-.606-.824l-.091-.141c-.177-.291-.177-.291-.152-.452l.032-.1a4.173,4.173,0,0,1,2.152-.058l-.044-.185a7.623,7.623,0,0,1-.218-1.266l-.121.029a1.3,1.3,0,0,1-1.194-.171A4.148,4.148,0,0,1-117,6.382V6.208c1.517-.049,1.517-.049,2.047.232l.052.058.009-.107q.02-.242.04-.484l.014-.169.014-.164.012-.15c.016-.147.04-.29.068-.435l-.184.011a1.374,1.374,0,0,1-.8-.279,3.071,3.071,0,0,1-.651-1.776l.005-.334a2.739,2.739,0,0,1,1.889.812l.05-.134c.136-.364.276-.726.422-1.084l-.184.015a.937.937,0,0,1-.656-.247,3.083,3.083,0,0,1-.63-1.915A2.583,2.583,0,0,1-113.746.7a.741.741,0,0,1,.21.522l.157-.058c.08-.005.16-.008.239-.007h.125a.347.347,0,0,1,.213.066l.036-.156a1.434,1.434,0,0,1,.646-.714,4.093,4.093,0,0,1,.426-.156l.112-.037.3-.1.118-.037A.988.988,0,0,1-110.86,0Z" transform="translate(158 76.727)" fill="#fecc51"/>
    <path id="Path_2029" data-name="Path 2029" d="M-12.593,0a4.469,4.469,0,0,1,1.567,2.2,1.959,1.959,0,0,1-.38,1.529,1.48,1.48,0,0,1-.49.386,1.5,1.5,0,0,1-.988-.454,1.743,1.743,0,0,1-.482-1.416A6.391,6.391,0,0,1-12.593,0Z" transform="translate(67.117 87.693)" fill="#f29327"/>
    <path id="Path_2030" data-name="Path 2030" d="M-25.034,0A4.342,4.342,0,0,1-24.2,2.7a1.6,1.6,0,0,1-.653,1.1,1.282,1.282,0,0,1-.795.308,1.8,1.8,0,0,1-.84-.86,2.144,2.144,0,0,1,.135-1.567A7.624,7.624,0,0,1-25.034,0Z" transform="translate(75.071 87.693)" fill="#f29327"/>
    <path id="Path_2031" data-name="Path 2031" d="M-65.765-11.981c-.077.453-.567.743-.917,1a2.6,2.6,0,0,1-1.818.614,2.206,2.206,0,0,1-1.268-.8c-.058-.174-.058-.174-.025-.276a2.211,2.211,0,0,1,1.244-1.232A4.393,4.393,0,0,1-65.765-11.981Z" transform="translate(125.631 103.909)" fill="#f29326"/>
    <path id="Path_2032" data-name="Path 2032" d="M-54.6-8.487c.258.267.685.725.7,1.109a2.127,2.127,0,0,1-1.1.87,2.393,2.393,0,0,1-1.915-.464c-.284-.216-.551-.453-.812-.7l-.139-.126c-.093-.106-.093-.106-.093-.28C-55.573-9.242-55.573-9.242-54.6-8.487Z" transform="translate(102.717 100.003)" fill="#f29326"/>
    <path id="Path_2033" data-name="Path 2033" d="M-32.429,0a5.192,5.192,0,0,1,.272,1.106l.023.149a2.435,2.435,0,0,1-.3,1.876,1.565,1.565,0,0,1-1.08.558c-.322,0-.322,0-.48-.12a2.116,2.116,0,0,1-.231-.377l-.059-.112A1.719,1.719,0,0,1-34.318,1.8C-34.064,1.237-33.123,0-32.429,0Z" transform="translate(80.698 86.359)" fill="#f29326"/>
    <path id="Path_2034" data-name="Path 2034" d="M-5.776,0a2.662,2.662,0,0,1,.812.522l.148.122a2.6,2.6,0,0,1,1.03,1.6,1.717,1.717,0,0,1-.25,1.008l-.056.123a.721.721,0,0,1-.235.284,1.355,1.355,0,0,1-1-.138A1.775,1.775,0,0,1-6.1,2.43,4.694,4.694,0,0,1-5.776,0Z" transform="translate(62.126 86.359)" fill="#f29326"/>
    <path id="Path_2035" data-name="Path 2035" d="M-59.345-6.216a3.174,3.174,0,0,1-1.287,1.621,1.831,1.831,0,0,1-1.411.319A2.147,2.147,0,0,1-63-4.823,2.045,2.045,0,0,1-62.5-6.1C-61.694-6.851-60.277-6.639-59.345-6.216Z" transform="translate(121.223 95.475)" fill="#f29326"/>
    <path id="Path_2036" data-name="Path 2036" d="M-49.689-6.47a1.978,1.978,0,0,1,.595,1.364,2.11,2.11,0,0,1-1.585.57,2,2,0,0,1-.91-.454l-.116-.087A5.417,5.417,0,0,1-52.75-6.325V-6.5A3.3,3.3,0,0,1-49.689-6.47Z" transform="translate(95.491 95.758)" fill="#f29326"/>
    <path id="Path_2037" data-name="Path 2037" d="M-3.017,0a1.339,1.339,0,0,1,.674.312l.107.078A2.686,2.686,0,0,1-.993,1.933a1.844,1.844,0,0,1-.4,1.316c-.116.116-.116.116-.326.134A1.528,1.528,0,0,1-2.75,2.951a1.8,1.8,0,0,1-.441-1.095L-3.2,1.733A8.973,8.973,0,0,1-3.017,0Z" transform="translate(60.761 84.212)" fill="#f29326"/>
    <path id="Path_2038" data-name="Path 2038" d="M-33.048,0c.35,2.09.35,2.09-.183,2.838a1.584,1.584,0,0,1-1.09.552c-.212,0-.231-.021-.4-.178q-.066-.1-.127-.2l-.1-.152a1.8,1.8,0,0,1-.03-1.286C-34.665,1.031-33.724,0-33.048,0Z" transform="translate(79.921 84.212)" fill="#f29327"/>
    <path id="Path_2039" data-name="Path 2039" d="M-41.3-4.19v.116l.1.045a1.464,1.464,0,0,1,.588.8.94.94,0,0,1,0,.664,1.835,1.835,0,0,1-1.3.4,1.978,1.978,0,0,1-.846-.4l-.142-.1a4.379,4.379,0,0,1-.67-.824l-.1-.141c-.2-.291-.2-.291-.168-.452l.036-.1C-41.989-4.534-41.989-4.534-41.3-4.19Z" transform="translate(85.26 90.665)" fill="#f29327"/>
    <path id="Path_2040" data-name="Path 2040" d="M-44.127-1.759l.138.022c.326.057.326.057.456.188C-44.493.1-44.493.1-45.273.308A1.985,1.985,0,0,1-46.839-.04a1.8,1.8,0,0,1,.406-1.334A2.417,2.417,0,0,1-44.127-1.759Z" transform="translate(106.802 88.139)" fill="#f29326"/>
    <path id="Path_2041" data-name="Path 2041" d="M-34.206,0a3.474,3.474,0,0,1-.209,2.261,2.088,2.088,0,0,1-.77.669,2.418,2.418,0,0,1-.82.029,1.19,1.19,0,0,1-.308-.921A1.5,1.5,0,0,1-35.9.922,3.346,3.346,0,0,1-34.206,0Z" transform="translate(80.827 81.601)" fill="#f29326"/>
    <path id="Path_2042" data-name="Path 2042" d="M-1.239,0A3.46,3.46,0,0,1,.75,1.285,2.013,2.013,0,0,1,.77,2.647a.756.756,0,0,1-.21.312,1.562,1.562,0,0,1-1.218-.29A2.21,2.21,0,0,1-1.3,1.044,2.288,2.288,0,0,1-1.239,0Z" transform="translate(59.236 81.601)" fill="#f29326"/>
    <path id="Path_2043" data-name="Path 2043" d="M-35.238-.055l.209,0,.505.008a3.42,3.42,0,0,1-1.121,1.911,1.651,1.651,0,0,1-1.285.166,1.191,1.191,0,0,1-.438-.221A1.624,1.624,0,0,1-37.166.6,2.035,2.035,0,0,1-35.238-.055Z" transform="translate(98.142 82.979)" fill="#f29327"/>
    <path id="Path_2044" data-name="Path 2044" d="M0-.425C1.9-.48,1.9-.48,2.391-.09a1.573,1.573,0,0,1,.463,1.2c0,.106-.006.213-.011.319a1.7,1.7,0,0,1-1.382.223A2.925,2.925,0,0,1,.073-.066.66.66,0,0,1,0-.425Z" transform="translate(41 83.36)" fill="#f29326"/>
    <path id="Path_2045" data-name="Path 2045" d="M-39.807-.024c-.273,1.685-.273,1.685-.87,2.147a1.619,1.619,0,0,1-1.16.232c-.272-.089-.272-.089-.366-.232a1.529,1.529,0,0,1,.159-1.2A2.616,2.616,0,0,1-40.257,0,2.942,2.942,0,0,1-39.807-.024Z" transform="translate(86.736 79.42)" fill="#f29326"/>
    <path id="Path_2046" data-name="Path 2046" d="M0,0A3.341,3.341,0,0,1,1.962.595a1.625,1.625,0,0,1,.5,1.106,1.061,1.061,0,0,1-.141.562,1.473,1.473,0,0,1-1.084.071A1.689,1.689,0,0,1,.321,1.3,6.382,6.382,0,0,1,0,0Z" transform="translate(57.538 79.396)" fill="#f29327"/>
    <path id="Path_2047" data-name="Path 2047" d="M-37.331,0A3.208,3.208,0,0,1-37.9,1.958a1.373,1.373,0,0,1-.986.432,1.762,1.762,0,0,1-.649-.127A2.02,2.02,0,0,1-39.507.954,2.585,2.585,0,0,1-37.788.04,1.745,1.745,0,0,1-37.331,0Z" transform="translate(100.254 79.338)" fill="#f29327"/>
    <path id="Path_2048" data-name="Path 2048" d="M-.008,0A3.284,3.284,0,0,1,1.964.7a1.23,1.23,0,0,1,.3.932v.212a.936.936,0,0,1-.068.422,1.448,1.448,0,0,1-1,.085A1.377,1.377,0,0,1,.351,1.6,3.6,3.6,0,0,1-.008,0Z" transform="translate(41.705 79.338)" fill="#f29326"/>
    <path id="Path_2049" data-name="Path 2049" d="M-8.8,0A2.927,2.927,0,0,1-7.548,1.566a1.437,1.437,0,0,1-.207,1.1.928.928,0,0,1-.4.393,1.155,1.155,0,0,1-.7-.277,1.325,1.325,0,0,1-.484-.848A3.767,3.767,0,0,1-8.8,0Z" transform="translate(67.551 74)" fill="#f29326"/>
    <path id="Path_2050" data-name="Path 2050" d="M-20.046,0a1.237,1.237,0,0,1,.355.631l.046.124a2.138,2.138,0,0,1,.088,1.587,1.547,1.547,0,0,1-.95.719c-.12.013-.12.013-.28-.059a1.818,1.818,0,0,1-.495-1.186,2.265,2.265,0,0,1,.6-1.178l.1-.126A2.869,2.869,0,0,1-20.046,0Z" transform="translate(65.855 74)" fill="#f29326"/>
    <path id="Path_2051" data-name="Path 2051" d="M-.046,0A3.177,3.177,0,0,1,1.869.7a1.435,1.435,0,0,1,.257,1.078.576.576,0,0,1-.2.431,1.356,1.356,0,0,1-.968-.033A1.7,1.7,0,0,1,.13,1.057,2.859,2.859,0,0,1-.046,0Z" transform="translate(57.359 76.727)" fill="#f29326"/>
    <path id="Path_2052" data-name="Path 2052" d="M-35.406,0a2.54,2.54,0,0,1-.123.892l-.039.131a1.9,1.9,0,0,1-.766,1.123,1.562,1.562,0,0,1-.87.116.79.79,0,0,1-.29-.174A1.884,1.884,0,0,1-37.5.956a2.4,2.4,0,0,1,1.634-.9l.13-.037A1.2,1.2,0,0,1-35.406,0Z" transform="translate(82.712 76.727)" fill="#f29326"/>
    <path id="Path_2053" data-name="Path 2053" d="M0,0A3.038,3.038,0,0,1,1.915.638a1.167,1.167,0,0,1,.3.834l0,.165a.994.994,0,0,1-.129.452,1.837,1.837,0,0,1-1.063.027A1.528,1.528,0,0,1,.29,1.334,3.97,3.97,0,0,1,0,0Z" transform="translate(42.683 76.785)" fill="#f29327"/>
    <path id="Path_2054" data-name="Path 2054" d="M-35.95-.01a2.823,2.823,0,0,1-.7,1.915,1.529,1.529,0,0,1-1.218.232l-.174-.058A1.716,1.716,0,0,1-38.071.893,2.131,2.131,0,0,1-36.66.066,2.98,2.98,0,0,1-35.95-.01Z" transform="translate(97.885 76.795)" fill="#f29326"/>
  </g>
</svg>
