<svg xmlns="http://www.w3.org/2000/svg" width="32.556" height="32.601" viewBox="0 0 32.556 32.601">
  <g id="pencil" transform="translate(-7.943 -7.604)">
    <path id="Path_1954" data-name="Path 1954" d="M-197.249-.127h6.917l2.523,0,2.593,0h4.21a2.423,2.423,0,0,1,1.848.742,2.142,2.142,0,0,1,.6,1.6c0,.085,0,.169,0,.257s0,.188,0,.282,0,.2,0,.3q0,.412,0,.823,0,.444,0,.888,0,1.072,0,2.144,0,.505,0,1.01,0,1.679,0,3.358,0,.436,0,.871c0,.072,0,.144,0,.219q0,1.754,0,3.508,0,1.8,0,3.6,0,1.011,0,2.022,0,.861,0,1.722,0,.439,0,.878,0,.4,0,.8,0,.145,0,.29a2.785,2.785,0,0,1-.689,2.109,2.621,2.621,0,0,1-1.939.662h-.162l-.509,0h-.346l-.846,0v.15q.006.7.009,1.4,0,.359,0,.719t0,.694c0,.131,0,.262,0,.393v.243c0,.105,0,.105,0,.213a.955.955,0,0,1-.22.519.673.673,0,0,1-.59.131,3.19,3.19,0,0,1-.717-.587l-.178-.185q-.138-.144-.274-.289c-.089-.094-.179-.187-.269-.28l-.16-.169a.9.9,0,0,0-.631-.2.531.531,0,0,0-.254.187l-.133.129-.137.143-.143.148c-.2.208-.4.417-.592.63a1.2,1.2,0,0,1-.908.485.675.675,0,0,1-.455-.279,1.436,1.436,0,0,1-.079-.49l0-.179,0-.192c0-.065,0-.13,0-.2q-.006-.313-.012-.625,0-.212-.009-.424-.011-.52-.02-1.039l-.246.06q-5.258,1.282-10.518,2.557l-.577.14-.9.218-.326.079c-2.262.547-2.262.547-3.184.007a2.886,2.886,0,0,1-1.1-1.886l-.038-.154q-.062-.253-.123-.505l-.089-.363q-.12-.491-.239-.983l-.2-.831q-.341-1.4-.679-2.8l-.048-.2q-.539-2.222-1.075-4.445-.4-1.66-.8-3.319-.24-.99-.48-1.981l-.139-.577-.092-.38q-.264-1.091-.531-2.181-.162-.661-.323-1.321-.109-.449-.22-.9-.067-.273-.133-.545c-.029-.121-.06-.242-.09-.363a2.891,2.891,0,0,1,.217-2.3,2.857,2.857,0,0,1,1.873-1.1l.149-.036.486-.118.346-.084.926-.225L-206,4.24l2.084-.505.5-.122q1.737-.421,3.475-.838l.011-.231.016-.3.007-.152a2.425,2.425,0,0,1,.754-1.674A2.83,2.83,0,0,1-197.249-.127Z" transform="translate(219.031 7.739)" fill="#f8e9af"/>
    <path id="Path_1955" data-name="Path 1955" d="M-159.842,0c0,.049,0,.1,0,.148q0,4.355.012,8.71,0,.523,0,1.046c0,.069,0,.139,0,.21q0,1.685,0,3.371,0,1.73.005,3.46,0,1.067,0,2.134,0,.732,0,1.464,0,.422,0,.844,0,.387,0,.774,0,.14,0,.279a2.574,2.574,0,0,0,.625,1.948v.131l.109.053c.107.055.213.114.317.175a2.833,2.833,0,0,0,1.585.347l.281,0c.252,0,.5,0,.756,0s.529,0,.793,0q.749,0,1.5,0,.854,0,1.707,0,1.754.006,3.509,0V21.243h-.459a1.351,1.351,0,0,1-.721-.787q-.01-.174-.016-.348a.95.95,0,0,0-.377-.766l-.2-.131a1.135,1.135,0,0,1-.455-.525,1.449,1.449,0,0,1,.2-1.054.973.973,0,0,0,.059-.651,1.956,1.956,0,0,0-.131-.258,1.19,1.19,0,0,1-.131-.856,1.247,1.247,0,0,1,.561-.59.918.918,0,0,0,.488-.59q.015-.2.025-.393a.952.952,0,0,1,.193-.631,1.058,1.058,0,0,1,.82-.307,1.11,1.11,0,0,0,.865-.373c.09-.133.171-.268.251-.406a.682.682,0,0,1,.4-.315,1.149,1.149,0,0,1,.926.2,1.263,1.263,0,0,0,.779.059,4.142,4.142,0,0,0,.393-.2,1.11,1.11,0,0,1,.721-.06,1.518,1.518,0,0,1,.711.734.672.672,0,0,0,.4.315c.182.02.364.033.547.046a1.034,1.034,0,0,1,.719.38,1.2,1.2,0,0,1,.2.709,1.094,1.094,0,0,0,.307.766c.149.105.3.2.457.3a.655.655,0,0,1,.286.5,1.244,1.244,0,0,1-.153.716,1.162,1.162,0,0,0-.131.852c.066.113.132.226.2.335a1.278,1.278,0,0,1,.059.779,1.9,1.9,0,0,1-.72.747.612.612,0,0,0-.282.461l-.007.182a1.491,1.491,0,0,1-.3.906,1.3,1.3,0,0,1-.918.262l0,.122c.039,1.924.071,3.847.078,5.771q0,.265,0,.53,0,.371,0,.741c0,.11,0,.11,0,.222,0,.067,0,.135,0,.2s0,.117,0,.177a1.006,1.006,0,0,1-.221.493.673.673,0,0,1-.59.131,3.193,3.193,0,0,1-.717-.587l-.178-.185q-.138-.144-.274-.289c-.089-.094-.179-.187-.269-.28l-.16-.169a.9.9,0,0,0-.631-.2.531.531,0,0,0-.254.187l-.133.129-.137.143-.143.148c-.2.208-.4.417-.592.63a1.2,1.2,0,0,1-.908.485.676.676,0,0,1-.455-.279,1.436,1.436,0,0,1-.079-.49l0-.179,0-.192c0-.065,0-.13,0-.2q-.007-.313-.012-.625,0-.212-.009-.424-.011-.52-.02-1.039l-.246.06q-5.258,1.282-10.519,2.557l-.577.14-.9.218-.326.079c-2.262.547-2.262.547-3.184.007a2.886,2.886,0,0,1-1.1-1.886l-.038-.154q-.062-.253-.123-.505l-.089-.363q-.12-.491-.239-.983l-.2-.831q-.341-1.4-.679-2.8l-.048-.2q-.539-2.222-1.075-4.445-.4-1.66-.8-3.319-.24-.99-.48-1.981l-.139-.577-.092-.38q-.264-1.091-.531-2.181-.162-.661-.323-1.322-.109-.449-.22-.9-.067-.273-.133-.545c-.029-.121-.06-.242-.09-.363a2.891,2.891,0,0,1,.217-2.3,2.857,2.857,0,0,1,1.873-1.1l.149-.036.486-.118.346-.084.926-.225.957-.232,1.9-.462.991-.24,1.613-.391.245-.059.668-.161.2-.048.176-.042.153-.037A.572.572,0,0,1-159.842,0Z" transform="translate(179 10.514)" fill="#f2d45b"/>
    <path id="Path_1956" data-name="Path 1956" d="M-60.184-.468c.113.066.226.132.336.2a1.263,1.263,0,0,0,.779.059,4.152,4.152,0,0,0,.393-.2,1.109,1.109,0,0,1,.721-.06,1.518,1.518,0,0,1,.711.734.673.673,0,0,0,.4.315c.182.02.364.033.547.046a1.034,1.034,0,0,1,.719.38,1.2,1.2,0,0,1,.2.709,1.094,1.094,0,0,0,.307.766c.149.105.3.2.457.3a.655.655,0,0,1,.286.5,1.243,1.243,0,0,1-.153.716,1.162,1.162,0,0,0-.131.852c.066.113.132.226.2.336a1.278,1.278,0,0,1,.059.779,1.9,1.9,0,0,1-.72.747.613.613,0,0,0-.282.461l-.007.182a1.491,1.491,0,0,1-.3.906,1.3,1.3,0,0,1-.918.262l0,.122c.039,1.924.071,3.847.078,5.771q0,.265,0,.53,0,.371,0,.741l0,.222v.382a1.006,1.006,0,0,1-.221.493.673.673,0,0,1-.59.131,3.191,3.191,0,0,1-.717-.587l-.178-.185q-.138-.144-.274-.289c-.089-.094-.179-.187-.269-.28l-.16-.169a.9.9,0,0,0-.631-.2.531.531,0,0,0-.254.187l-.133.129-.137.143-.143.148c-.2.208-.4.417-.592.63a1.2,1.2,0,0,1-.908.485.676.676,0,0,1-.455-.279,2.082,2.082,0,0,1-.074-.7c0-.08,0-.08,0-.162q0-.273,0-.545c0-.094,0-.094,0-.191,0-2.177.041-4.353.074-6.529l-.216.007A.866.866,0,0,1-63,8.252a1.163,1.163,0,0,1-.344-.873.95.95,0,0,0-.377-.766l-.2-.131a1.135,1.135,0,0,1-.455-.525,1.449,1.449,0,0,1,.2-1.054.973.973,0,0,0,.059-.651,1.956,1.956,0,0,0-.131-.258,1.19,1.19,0,0,1-.131-.856,1.247,1.247,0,0,1,.561-.59.918.918,0,0,0,.488-.59q.015-.2.025-.393a.952.952,0,0,1,.193-.631,1.058,1.058,0,0,1,.82-.307,1.11,1.11,0,0,0,.865-.373c.09-.133.171-.268.251-.406A.89.89,0,0,1-60.184-.468Z" transform="translate(92.52 23.243)" fill="#e64c3c"/>
    <path id="Path_1957" data-name="Path 1957" d="M-1.063-.095c.444.054.444.054.578.159L-.4.18-.3.3-.21.43A1.486,1.486,0,0,0,.249.889,1.674,1.674,0,0,0,1.37.686,1.015,1.015,0,0,1,2.019.626c.11.067.22.133.329.2A1.415,1.415,0,0,0,3.2.889,1.78,1.78,0,0,0,3.855.167c.267-.26.267-.26.5-.269l.153.007c.04,1.964.074,3.929.081,5.894q0,.265,0,.53,0,.371,0,.741l0,.222c0,.1,0,.1,0,.2v.177a1.006,1.006,0,0,1-.221.493.673.673,0,0,1-.59.131,3.191,3.191,0,0,1-.717-.587l-.178-.185q-.138-.144-.274-.289c-.089-.094-.179-.187-.269-.28l-.16-.169a.9.9,0,0,0-.631-.2.531.531,0,0,0-.254.187l-.133.129-.137.143L.893,7.2c-.2.208-.4.417-.592.63a1.2,1.2,0,0,1-.908.485.676.676,0,0,1-.455-.279,2.082,2.082,0,0,1-.074-.7V7.17q0-.273,0-.545V6.434C-1.134,4.258-1.1,2.081-1.063-.095Z" transform="translate(31.432 31.852)" fill="#c03a2b"/>
    <path id="Path_1958" data-name="Path 1958" d="M-63.839-7.851a2.792,2.792,0,0,1,1.115,1.7,2.978,2.978,0,0,1-.549,2.287A2.949,2.949,0,0,1-64.953-2.8a3.084,3.084,0,0,1-1.836-.262l-.152-.084a2.851,2.851,0,0,1-1.291-1.686,2.93,2.93,0,0,1,.312-2.224,3.2,3.2,0,0,1,1.78-1.292A3.081,3.081,0,0,1-63.839-7.851Z" transform="translate(98.666 33.379)" fill="#e57d25"/>
    <path id="Path_1959" data-name="Path 1959" d="M-12.847-.464h.149l.5,0,.355,0,1.167,0h.4l1.67,0q1.2,0,2.395-.007.841,0,1.683,0,.5,0,1.005,0,.473,0,.946,0l.347,0c.158,0,.316,0,.474,0l.138,0A.869.869,0,0,1-1.028-.3.53.53,0,0,1-.82.1a.821.821,0,0,1-.3.557A2.309,2.309,0,0,1-1.618.7l-.152,0c-.168,0-.336,0-.5,0l-.361,0q-.49,0-.981,0H-4.64q-.861,0-1.723,0-1,0-1.992,0-.855,0-1.71,0h-1.021q-.48,0-.96,0H-12.4c-.16,0-.321,0-.481,0l-.141,0a.742.742,0,0,1-.555-.2.581.581,0,0,1-.172-.37.893.893,0,0,1,.3-.525A1.269,1.269,0,0,1-12.847-.464Z" transform="translate(39.032 14.246)" fill="#435f6d"/>
    <path id="Path_1960" data-name="Path 1960" d="M-12.016-.05l.151,0c.167,0,.333,0,.5,0l.359,0q.487,0,.974,0h1.02q.856,0,1.712,0,.99,0,1.98,0,.85,0,1.7,0H-2.6q.477,0,.954,0h.35c.159,0,.319,0,.478,0l.14,0a.749.749,0,0,1,.553.2A.6.6,0,0,1,.043.553a.608.608,0,0,1-.3.488,1.267,1.267,0,0,1-.6.075h-1l-.966,0h-.6l-1.887,0q-1.09,0-2.18.005l-1.684,0-1.006,0q-.473,0-.947,0h-.348c-.158,0-.316,0-.474,0l-.139,0a.839.839,0,0,1-.685-.3A.792.792,0,0,1-12.844.32.844.844,0,0,1-12.016-.05Z" transform="translate(38.165 11.047)" fill="#415d6c"/>
    <path id="Path_1961" data-name="Path 1961" d="M-12.327-.235h1l.966,0h.6l1.887,0,2.18,0,1.684,0L-3-.249h1.768l.139,0a1,1,0,0,1,.685.222.945.945,0,0,1,.066.59A.749.749,0,0,1-.9.93q-.135,0-.271,0h-.151c-.167,0-.334,0-.5,0h-.359c-.325,0-.65,0-.975,0-.34,0-.68,0-1.02,0q-.857,0-1.713,0-.991,0-1.981,0-.953,0-1.905,0h-.811q-.477,0-.955,0h-.351c-.159,0-.319,0-.478,0l-.141,0A.721.721,0,0,1-13.022.77a.866.866,0,0,1-.17-.6C-12.949-.218-12.755-.236-12.327-.235Z" transform="translate(38.513 16.837)" fill="#405c6c"/>
    <path id="Path_1962" data-name="Path 1962" d="M-67.763,0V1.115a11.338,11.338,0,0,1-1.2.344c-.422.1-.842.2-1.262.3l-.255.064-.5.126c-1.053.261-1.053.261-1.416.048a.851.851,0,0,1-.094-.688,1.018,1.018,0,0,1,.61-.377l.208-.055.223-.056.23-.06C-70.558.6-69.9.445-69.241.3c.314-.07.628-.146.941-.223A2.2,2.2,0,0,1-67.763,0Z" transform="translate(86.921 14.055)" fill="#415d6b"/>
    <path id="Path_1963" data-name="Path 1963" d="M-58.323,0V1.115a4.047,4.047,0,0,1-.61.2l-.163.038-.173.04-.181.042q-.492.115-.984.226l-.2.045-.382.085-.175.039-.154.034a.655.655,0,0,0-.257.1.78.78,0,0,1-.652-.131.794.794,0,0,1-.135-.721.966.966,0,0,1,.641-.377l.227-.055.242-.056.248-.059.74-.174.418-.1.832-.2q.128-.03.254-.067A1.6,1.6,0,0,1-58.323,0Z" transform="translate(77.481 16.939)" fill="#425e6b"/>
    <path id="Path_1964" data-name="Path 1964" d="M-15.568-.048h.217l.454,0c.232,0,.463,0,.695,0l.441,0h.21c.477.008.477.008.694.157a.984.984,0,0,1,.155.6.706.706,0,0,1-.459.393c-.1.007-.2.01-.3.012l-.184,0h-.2l-.2,0-.428,0c-.218,0-.436,0-.654.007l-.415,0-.2,0a1.135,1.135,0,0,1-.705-.156A.664.664,0,0,1-16.66.53a.574.574,0,0,1,.144-.383A1.352,1.352,0,0,1-15.568-.048Z" transform="translate(41.956 19.438)" fill="#425e6d"/>
    <path id="Path_1965" data-name="Path 1965" d="M-49.178,0V1.115c-.712.211-1.429.389-2.153.557q-.141.033-.282.069a1.151,1.151,0,0,1-.88-.069,1.065,1.065,0,0,1-.135-.551A.776.776,0,0,1-52.26.656a5.631,5.631,0,0,1,.766-.2l.22-.049.442-.1q.286-.062.571-.129l.315-.072L-49.8.073A2.708,2.708,0,0,1-49.178,0Z" transform="translate(68.336 19.824)" fill="#425e6b"/>
    <path id="Path_1966" data-name="Path 1966" d="M-39.712,0V1.115l-.847.224-.288.076-.415.109-.252.067a2.028,2.028,0,0,1-.625.048.7.7,0,0,1-.357-.457.709.709,0,0,1,.133-.534,1.456,1.456,0,0,1,.629-.264L-41.6.35l.287-.069c.146-.035.291-.071.436-.107l.279-.068.13-.032A3,3,0,0,1-39.712,0Z" transform="translate(58.87 22.709)" fill="#425e6b"/>
    <path id="Path_1967" data-name="Path 1967" d="M-16-.061h.2c.593.005.593.005.853.227a.945.945,0,0,1,.066.59.856.856,0,0,1-.328.328A3.827,3.827,0,0,1-16,1.127l-.215.006c-.5,0-.5,0-.694-.133a.72.72,0,0,1-.214-.549C-16.939-.106-16.509-.071-16-.061Z" transform="translate(38.504 16.644)" fill="#425e6d"/>
    <path id="Path_1968" data-name="Path 1968" d="M-29.433-1.59a.712.712,0,0,1,.168.557.649.649,0,0,1-.3.393,4.444,4.444,0,0,1-.582.18l-.157.044a2.239,2.239,0,0,1-.835.1.7.7,0,0,1-.357-.457.72.72,0,0,1,.131-.533,1.566,1.566,0,0,1,.669-.272l.135-.034A1.613,1.613,0,0,1-29.433-1.59Z" transform="translate(44.067 25.578)" fill="#425e6b"/>
    <path id="Path_1969" data-name="Path 1969" d="M-9.779-.015h.208l.216,0,.216,0a1.433,1.433,0,0,1,.786.153.625.625,0,0,1,.145.545.608.608,0,0,1-.291.387,1.931,1.931,0,0,1-.84.09l-.2.007c-.487.006-.487.006-.741-.193L-10.4.807l-.066-.066a.929.929,0,0,1,.178-.6A.65.65,0,0,1-9.779-.015Z" transform="translate(31.852 19.411)" fill="#435f6d"/>
    <path id="Path_1970" data-name="Path 1970" d="M-29.873-2.308a.715.715,0,0,1,.1.615,1.275,1.275,0,0,1-.84.479l-.134.033A1.477,1.477,0,0,1-31.836-1.2a.948.948,0,0,1-.133-.557.632.632,0,0,1,.3-.393,4.313,4.313,0,0,1,.578-.184l.155-.045A1.2,1.2,0,0,1-29.873-2.308Z" transform="translate(42.568 18.174)" fill="#425e6b"/>
    <path id="Path_1971" data-name="Path 1971" d="M-9.779-.015h.208l.216,0,.216,0a1.433,1.433,0,0,1,.786.153.625.625,0,0,1,.145.545.608.608,0,0,1-.291.387,1.931,1.931,0,0,1-.84.09l-.2.007c-.487.006-.487.006-.741-.193L-10.4.807l-.066-.066a.929.929,0,0,1,.178-.6A.65.65,0,0,1-9.779-.015Z" transform="translate(31.852 11.018)" fill="#435f6d"/>
    <path id="Path_1972" data-name="Path 1972" d="M-29.431-2.213a.671.671,0,0,1,.168.385.835.835,0,0,1-.3.525,2.983,2.983,0,0,1-.545.184l-.146.043a2.4,2.4,0,0,1-.883.1.682.682,0,0,1-.357-.457.718.718,0,0,1,.131-.533,1.566,1.566,0,0,1,.669-.272l.135-.034A1.324,1.324,0,0,1-29.431-2.213Z" transform="translate(42.754 20.8)" fill="#425e6b"/>
    <path id="Path_1973" data-name="Path 1973" d="M-16.14-.119l.187-.007A1.061,1.061,0,0,1-15.2.055c.207.239.207.239.2.445a.611.611,0,0,1-.3.52,1.355,1.355,0,0,1-.375.035H-15.9l-.227,0-.227,0h-.417a.618.618,0,0,1-.438-.3A.98.98,0,0,1-17.271.3C-16.927-.128-16.653-.111-16.14-.119Z" transform="translate(38.657 13.886)" fill="#445f6d"/>
    <path id="Path_1974" data-name="Path 1974" d="M-29.873-2.308a.715.715,0,0,1,.1.615,1.275,1.275,0,0,1-.84.479l-.134.033A1.477,1.477,0,0,1-31.836-1.2a.948.948,0,0,1-.133-.557.632.632,0,0,1,.3-.393,4.313,4.313,0,0,1,.578-.184l.155-.045A1.2,1.2,0,0,1-29.873-2.308Z" transform="translate(43.88 23.616)" fill="#415d6b"/>
  </g>
</svg>
