<svg xmlns="http://www.w3.org/2000/svg" width="30.702" height="30.883" viewBox="0 0 30.702 30.883">
  <g id="science" transform="translate(-32.819 -31.705)">
    <path id="Path_1985" data-name="Path 1985" d="M-348.932-5.9c.13.127.245.253.362.392.3.343.621.661.944.98l.33.327q.468.464.937.928l.576.571.218.215A2.9,2.9,0,0,1-344.437-.51a3.061,3.061,0,0,1-1.209,2.057l-.2.2-.422.42-.669.666-1.059,1.054q-.948.942-1.895,1.886l-.664.66-.414.412-.281.279c-.245.244-.485.487-.71.75-.362.421-.762.805-1.155,1.2l-.272.272-.584.583-.925.923-2.13,2.126-1.953,1.95-.919.917-.572.571-.264.264c-.392.39-.781.779-1.14,1.2-.218.249-.454.481-.688.716l-.168.17-.547.55-.19.191-.892.895q-.513.514-1.024,1.029-.445.448-.892.9l-.377.38q-.263.266-.528.53l-.156.158a2.2,2.2,0,0,1-1.578.756c-1.042-.02-1.618-.777-2.311-1.471l-.174-.174-.361-.361-.549-.549-.353-.353-.164-.163c-.287-.288-.563-.582-.827-.891a5.53,5.53,0,0,0-.423-.42,2.034,2.034,0,0,1-.643-1.34,2.748,2.748,0,0,1,1.088-2l.176-.174.554-.546.553-.546.343-.338.159-.157.138-.136c.127-.132.246-.267.365-.406.349-.4.728-.771,1.1-1.146l.25-.25.536-.535.849-.847,1.955-1.951,1.792-1.789.843-.841.525-.524.242-.242c.485-.479.485-.479.942-.984.387-.452.82-.864,1.241-1.284l.3-.3.816-.815.855-.855,1.619-1.618,1.839-1.838,3.144-3.141.134-.134.244-.243.109-.109.1-.1.288-.29a2.3,2.3,0,0,1,.434-.341l.136-.085A2.142,2.142,0,0,1-348.932-5.9Zm-3.852,4.054a.719.719,0,0,0-.187.574,1.266,1.266,0,0,0,.2.245l.134.147c.273.29.551.574.831.857l.1.1.5.506q.259.26.517.523t.5.5l.186.19.175.174.153.154a.784.784,0,0,0,.495.186A2.718,2.718,0,0,0-347.9.816a2.6,2.6,0,0,0-.019-1.947,3.123,3.123,0,0,0-1.708-1.646A3.017,3.017,0,0,0-352.784-1.841Zm-1.331,1.383-.177.17-.193.192-.223.215-.224.219-.108.1a1.368,1.368,0,0,0-.408.562.909.909,0,0,0,.273.6l.132.144.145.152.149.157c.352.366.709.726,1.066,1.086q.2.2.391.4.282.29.568.576l.175.181a1.377,1.377,0,0,0,.746.5.5.5,0,0,0,.449-.179l.135-.133.174-.176.264-.245.286-.271.143-.131a.953.953,0,0,0,.379-.648.41.41,0,0,0-.19-.387.71.71,0,0,0-.538-.108.805.805,0,0,0-.244.211l-.128.132L-351.2,3l-.135.139q-.164.17-.326.343l-.228-.194-.128-.109c-.165-.144-.317-.3-.469-.454a2.239,2.239,0,0,1,.671-.791,1.2,1.2,0,0,0,.358-.5.717.717,0,0,0-.2-.5.742.742,0,0,0-.551-.069,4.08,4.08,0,0,0-.542.516l-.144.149q-.175.182-.347.367a1.925,1.925,0,0,1-.6-.456l-.167-.17-.126-.131a8,8,0,0,1,.748-.791.9.9,0,0,0,.34-.572.659.659,0,0,0-.331-.495A.733.733,0,0,0-354.115-.459Zm-2.469,2.434a.645.645,0,0,0-.034.611,1.728,1.728,0,0,0,.312.355l.1.1c.107.108.215.214.322.321l.224.224q.235.235.471.468.3.3.6.6.231.232.463.462l.222.222q.155.155.311.308l.179.177a.76.76,0,0,0,.513.2.7.7,0,0,0,.413-.344.7.7,0,0,0-.119-.587l-.161-.166-.17-.178-.169-.171-.144-.151a4.324,4.324,0,0,0-.338-.33h-.138V3.963a1.676,1.676,0,0,0-.223-.2,9.653,9.653,0,0,1-.725-.694l-.214-.221q-.165-.171-.328-.343c-.107-.113-.214-.224-.323-.335l-.1-.1a.748.748,0,0,0-.547-.27A.4.4,0,0,0-356.584,1.976Zm-1.88,1.8-.162.153a1.929,1.929,0,0,0-.5.689c.075.576.792,1.078,1.187,1.472l.191.192.4.4.51.51.488.488.185.185.171.17.15.15a.656.656,0,0,0,.458.209c.224-.007.224-.007.383-.168a.7.7,0,0,0,.1-.541,2.7,2.7,0,0,0-.718-.827l-.188-.182q-.229-.222-.461-.441a10.174,10.174,0,0,1,.851-.9.6.6,0,0,0,.181-.406.742.742,0,0,0-.344-.482.688.688,0,0,0-.589.123l-.168.165-.178.17-.166.161c-.136.117-.274.231-.413.344l-.688-.688A7.23,7.23,0,0,1-357.113,4a.906.906,0,0,0,.3-.495.537.537,0,0,0-.082-.391C-357.488,2.616-358.058,3.379-358.463,3.778Zm-1.905,1.983a.645.645,0,0,0-.034.611,1.726,1.726,0,0,0,.312.355l.1.1c.107.108.214.214.322.321l.224.224q.235.235.471.468.3.3.6.6.231.232.463.462l.222.222q.155.155.311.308l.179.177a.76.76,0,0,0,.513.2.7.7,0,0,0,.413-.344.679.679,0,0,0-.127-.593l-.181-.182-.1-.1c-.108-.111-.218-.22-.328-.328l-.228-.23q-.239-.24-.48-.479-.308-.305-.612-.615-.235-.238-.472-.473l-.225-.227c-.1-.106-.211-.211-.318-.315l-.182-.181A.621.621,0,0,0-360.368,5.761Zm-1.172,1.217-.145.134-.163.155-.186.174q-.253.239-.5.483l-.209.2c-.1.1-.2.2-.3.3l-.182.175a.78.78,0,0,0-.13.668.586.586,0,0,0,.344.275.5.5,0,0,0,.413-.069,4.345,4.345,0,0,0,.364-.386c.118-.1.118-.1.245-.084a1.091,1.091,0,0,1,.425.316l.163.166.174.181.368.375.578.594q.279.287.559.571l.173.181.164.166.143.147a.9.9,0,0,0,.565.181.835.835,0,0,0,.417-.439c-.012-.491-.555-.88-.881-1.2l-.356-.35-.561-.547q-.272-.264-.541-.531l-.172-.165-.156-.155-.139-.135a.283.283,0,0,1-.075-.277.758.758,0,0,1,.266-.321.634.634,0,0,0,.249-.469.432.432,0,0,0-.2-.4A.5.5,0,0,0-361.54,6.978Zm-3.465,3.467-.178.164a2.2,2.2,0,0,0-.829,1.035c.085.573.8,1.073,1.191,1.466l.191.192.4.4.51.51.488.488.185.185.171.17.15.15a.6.6,0,0,0,.458.2.588.588,0,0,0,.49-.224.508.508,0,0,0,.069-.344,3.138,3.138,0,0,0-.482-.662l-.142-.158c-.111-.119-.223-.236-.34-.35l.187.015c.479.036.958.064,1.439.075l.269.008a.793.793,0,0,0,.582-.3.7.7,0,0,0,0-.482.745.745,0,0,0-.512-.3c-.2-.013-.406-.018-.611-.02l-.416-.009-.2,0a7.026,7.026,0,0,1-.739-.077l.075-.091a1.487,1.487,0,0,0,.3-1.076,1.9,1.9,0,0,0-.732-1.23,1.468,1.468,0,0,0-.845-.239l-.189,0A1.67,1.67,0,0,0-365.005,10.445Zm-2.486,2.464-.262.247-.284.273-.141.133a1.891,1.891,0,0,0-.44.583c.092.739,1.261,1.534,1.786,2.061l.412.418q.3.3.6.6l.185.19.175.174.152.154a.921.921,0,0,0,.572.186.635.635,0,0,0,.265-.2l.141-.135.145-.144.292-.273.288-.281.15-.142a1.431,1.431,0,0,0,.445-.633.416.416,0,0,0-.117-.378.58.58,0,0,0-.508-.219,3.71,3.71,0,0,0-.9.783c-.235.248-.235.248-.413.257a1.984,1.984,0,0,1-.462-.39l-.167-.172-.126-.133a11.693,11.693,0,0,1,.851-.915.594.594,0,0,0,.2-.491c0-.236,0-.236-.1-.374a.845.845,0,0,0-.469-.146,2.941,2.941,0,0,0-.869.755,2.727,2.727,0,0,1-.3.277.9.9,0,0,1-.572-.331l-.15-.143c-.1-.145-.1-.145-.088-.28a1.845,1.845,0,0,1,.582-.644,1,1,0,0,0,.363-.577.463.463,0,0,0-.106-.429.481.481,0,0,0-.357-.194A1.564,1.564,0,0,0-367.491,12.909Zm-3.166,3.1a2.533,2.533,0,0,0-.791,1.819,3.074,3.074,0,0,0,.723,1.9l.1.128a2.972,2.972,0,0,0,1.842.92,2.752,2.752,0,0,0,1.97-.686,2.559,2.559,0,0,0,.721-1.649.8.8,0,0,0-.228-.572.7.7,0,0,0-.482-.069.753.753,0,0,0-.386.5q-.032.178-.061.357a1.257,1.257,0,0,1-.521.817,1.872,1.872,0,0,1-1.351.108,1.9,1.9,0,0,1-1.133-1.043,1.95,1.95,0,0,1,.131-1.51,1.559,1.559,0,0,1,1.131-.552.957.957,0,0,0,.468-.262.774.774,0,0,0-.107-.645C-369.273,15.139-370.116,15.59-370.657,16.006Z" transform="translate(407.755 38.223)" fill="#4fdaa4"/>
    <path id="Path_1986" data-name="Path 1986" d="M-247.695,0l.264.2.148.111a4.41,4.41,0,0,1,1.773,2.449,5.014,5.014,0,0,1-1.032,3.213,3.726,3.726,0,0,0-.512,2.878q.057.241.116.482a4.186,4.186,0,0,1-.168,3.217q-.087.128-.176.254l-.116.176a6.423,6.423,0,0,1-2.111,1.267,4.668,4.668,0,0,0-2.547,2.715,4.276,4.276,0,0,1-1.875,2.337,5.248,5.248,0,0,1-2.913-.086,4.618,4.618,0,0,0-3.8.749,3.947,3.947,0,0,1-2.949.642,5.342,5.342,0,0,1-2.272-1.813q-.071-.171-.138-.344l.088-.088.914-.911.341-.339.492-.49.152-.151c.379-.379.732-.776,1.077-1.187.416-.464.416-.464.673-.51a2.35,2.35,0,0,1,.328.057,4,4,0,0,0,.782.058l.146,0a.785.785,0,0,0,.508-.111.78.78,0,0,0,.073-.6,1.4,1.4,0,0,0-.963-.275,2,2,0,0,1,.525-.677l.12-.119.393-.39.274-.273.722-.718,1.152-1.145.4-.4c.355-.353.7-.7,1.028-1.085.353-.395.736-.763,1.11-1.137l.284-.285.592-.593.76-.762.585-.586.28-.281.39-.39.117-.118c.267-.265.267-.265.42-.265a8.793,8.793,0,0,1-2.238,6.514,7.272,7.272,0,0,1-1.341,1.193h-.138a.852.852,0,0,0,0,.606c.124.166.124.166.326.208.54.028,1.038-.579,1.424-.926a9.392,9.392,0,0,0,2.937-6.2c0-.265,0-.53,0-.795,0-.089,0-.178,0-.27a2.962,2.962,0,0,0-.057-.882.915.915,0,0,1-.025-.482,5.741,5.741,0,0,1,.791-.858l.246-.243q.322-.318.649-.632t.661-.648Q-248.347.63-247.695,0Z" transform="translate(309.017 41.91)" fill="#2ccaa0"/>
    <path id="Path_1987" data-name="Path 1987" d="M-257.466-7.666q.128.1.254.211l.119.091a4,4,0,0,1,1.12,1.354l-.131.13-.489.486-.21.209c-.357.354-.709.71-1.037,1.092-.258.3-.526.585-.8.869q-.1.109-.2.22c-.563.618-.563.618-.908.673a3.653,3.653,0,0,1-.556-.1c-.171-.014-.34-.015-.512-.017l-.241-.005a.632.632,0,0,0-.486.229.769.769,0,0,0,0,.482,1.4,1.4,0,0,0,.963.275,2,2,0,0,1-.525.677l-.12.12-.393.39-.274.273-.722.718-1.152,1.145-.4.4c-.355.353-.7.7-1.028,1.085-.353.395-.736.763-1.11,1.137l-.284.285-.592.593-.76.762-.585.586-.28.281-.39.39-.117.118c-.267.265-.267.265-.42.265a8.771,8.771,0,0,1,2.326-6.583,8.1,8.1,0,0,1,1.659-1.363,1.226,1.226,0,0,0,.557-.587,1.343,1.343,0,0,0-.069-.413,1.023,1.023,0,0,0-.869.086,6.255,6.255,0,0,0-1.226.919c-.1.09-.2.177-.305.264A9.373,9.373,0,0,0-270.7,6.033c-.014.325-.017.648-.014.973,0,.146,0,.292,0,.438a5.179,5.179,0,0,0,.068,1.057.533.533,0,0,1-.117.489q-.1.1-.2.193l-.108.108c-.117.117-.237.232-.356.346l-.246.243q-.323.319-.649.634t-.661.649q-.647.637-1.3,1.27l-.264-.2-.148-.111a4.2,4.2,0,0,1-1.79-2.582,5.263,5.263,0,0,1,1.049-3.118,3.959,3.959,0,0,0,.4-3.234A4.452,4.452,0,0,1-274.857-.2a5.478,5.478,0,0,1,2.474-1.648,4.876,4.876,0,0,0,2.587-2.98,3.627,3.627,0,0,1,1.744-2.009,4.97,4.97,0,0,1,3.129.121,3.782,3.782,0,0,0,2.885-.375c.241-.144.48-.291.719-.439A3.294,3.294,0,0,1-257.466-7.666Z" transform="translate(309.313 39.938)" fill="#6feaa7"/>
    <path id="Path_1988" data-name="Path 1988" d="M-22.93-1.849A2.308,2.308,0,0,1-21.793-.7,1.754,1.754,0,0,1-21.8.489a1.347,1.347,0,0,1-.276.376c-.275,0-.275,0-.395-.086l-.12-.122-.138-.138-.146-.151-.152-.153q-.24-.242-.477-.486L-23.831-.6q-.4-.4-.794-.807a.859.859,0,0,1,.527-.5A1.651,1.651,0,0,1-22.93-1.849Z" transform="translate(80.717 38.293)" fill="#1dc29f"/>
    <path id="Path_1989" data-name="Path 1989" d="M-13.961-.739a.976.976,0,0,1,.357.465.949.949,0,0,1-.36.655,1.43,1.43,0,0,1-.41.257q-.158-.145-.314-.292l-.177-.165c-.129-.162-.129-.162-.128-.3a1.376,1.376,0,0,1,.3-.387l.129-.126A.493.493,0,0,1-13.961-.739Z" transform="translate(58.079 49.943)" fill="#64e4a6"/>
  </g>
</svg>
