<svg xmlns="http://www.w3.org/2000/svg" width="24.379" height="23.207" viewBox="0 0 24.379 23.207">
  <path id="star" d="M-255.011-3.327a1.807,1.807,0,0,1,.331.539l.073.144.156.313q.129.26.26.518c.243.481.483.963.714,1.449.324.681.66,1.355,1,2.028.963,1.915.963,1.915.963,2.069l.1.007c.388.03.772.079,1.157.135l.2.029.539.078.338.049L-248,4.2l1.1.159.946.137.563.082.529.077.285.041c.884.131.884.131,1.147.461a1.086,1.086,0,0,1-.024.791,3.573,3.573,0,0,1-.674.692c-.2.171-.38.351-.562.536l-.1.1-.306.309-.4.407-.091.093c-.178.178-.361.346-.552.511-.157.139-.3.288-.451.437l-.1.1-.306.309-.4.407-.091.093c-.207.208-.423.4-.646.594-.146.128-.289.259-.431.392l-.113.1-.106.1-.1.088c-.178.364.032.956.1,1.341l.035.2.076.434q.06.344.12.688.17.978.341,1.955.095.541.188,1.082.059.341.12.683.037.213.074.426.017.1.035.2c.151.841.151.841-.006,1.149a.9.9,0,0,1-.526.341,2.31,2.31,0,0,1-1.127-.4l-.2-.105q-.6-.319-1.2-.651c-.429-.236-.865-.457-1.3-.68-.479-.244-.956-.489-1.427-.749l-.5-.273-.083-.046q-.279-.153-.56-.3l-.185-.1c-.086-.047-.172-.093-.258-.138l-.15-.081c-.27-.086-.5.079-.734.2l-.116.06-.123.063-.39.2-.255.131q-.671.345-1.338.7-.5.263-1,.519l-.507.261-.1.052q-.431.222-.862.447l-.13.067q-.344.179-.684.363l-.149.08-.281.153a1.3,1.3,0,0,1-.859.209.841.841,0,0,1-.506-.411A2.807,2.807,0,0,1-263.3,18.1l.037-.213q.049-.287.1-.574t.1-.6q.1-.569.2-1.139.178-1.02.355-2.041.062-.358.125-.716l.077-.445.036-.206q.025-.141.049-.281l.028-.159a1.674,1.674,0,0,0,.019-.379,1.226,1.226,0,0,0-.226-.251l-.071-.07c-.075-.074-.151-.147-.226-.22l-.148-.146c-.2-.195-.4-.386-.607-.567-.193-.167-.373-.344-.552-.526l-.1-.1-.409-.413-.3-.3-.091-.093c-.147-.148-.3-.291-.456-.428-.191-.165-.37-.34-.547-.52l-.1-.1-.409-.413-.3-.3L-266.8,6.8c-.181-.181-.366-.353-.561-.519a.946.946,0,0,1-.381-.611.78.78,0,0,1,.2-.653,1.168,1.168,0,0,1,.618-.256l.1-.015.333-.047.243-.036.544-.078q.486-.069.972-.142l1.929-.282.769-.112.843-.123.355-.052.491-.071.146-.022.135-.019.116-.017a2.8,2.8,0,0,1,.349-.012l.035-.117a5.054,5.054,0,0,1,.261-.581l.06-.12.127-.252.188-.376c.2-.394.4-.786.6-1.175.307-.579.6-1.167.889-1.754,1.331-2.678,1.331-2.678,1.727-2.842A.94.94,0,0,1-255.011-3.327Zm-.546,2.257-.047.1-.449.9-.231.462c-.3.6-.593,1.189-.906,1.776-.16.3-.311.606-.461.913l-.074.15q-.15.3-.3.61-.11.227-.222.453l-.067.139a1.232,1.232,0,0,1-.479.59,7.233,7.233,0,0,1-1.175.236l-.174.025-.466.066-.49.07-1.453.207-1.134.162-.582.083-.446.064-.163.023-.148.022-.129.018a.4.4,0,0,0-.251.12l.333.336.093.095.094.094.085.085c.094.09.19.175.289.259.194.169.376.347.557.53l.1.1.409.413.3.3.091.093c.178.179.361.346.552.511.155.137.3.283.445.43l.1.1.3.3.2.2.451.453.147.146c.21.206.21.206.221.386a5.915,5.915,0,0,1-.1,1.1l-.03.172q-.04.23-.08.46t-.084.484q-.079.458-.159.915-.144.82-.285,1.641-.042.24-.084.481-.047.268-.093.535l-.028.16a3.017,3.017,0,0,0-.063.685,3.883,3.883,0,0,0,.687-.3l.117-.06.37-.191.241-.124q.653-.336,1.3-.679.5-.264,1-.521.832-.427,1.661-.86l.123-.064.106-.055.1-.05.087-.05a.989.989,0,0,1,.683-.013c.1.045.2.1.3.149l.109.057c.115.06.23.122.345.184l.24.126.571.3q.182.1.365.192c.312.162.622.328.932.495l.332.179.084.045c.535.288,1.074.567,1.615.844l.091.047.245.125q.139.073.273.156c.1.07.1.07.2.062a10.52,10.52,0,0,0-.14-1.137l-.028-.162-.06-.344q-.048-.273-.1-.547-.135-.777-.271-1.553-.084-.476-.166-.953-.031-.181-.063-.361-.045-.253-.088-.507l-.027-.148c-.144-.852-.144-.852.012-1.2a3.879,3.879,0,0,1,.295-.278c.192-.167.372-.342.551-.523l.095-.1.3-.3.391-.394.088-.089c.145-.146.292-.285.448-.42.191-.165.37-.341.548-.521l.1-.1.306-.309.4-.407.091-.093c.181-.182.368-.354.562-.521.112-.1.217-.2.321-.308l.11-.111.08-.082a.753.753,0,0,0-.392-.14l-.157-.023-.172-.024-.275-.04-.3-.042-.617-.088-1.533-.219-1.191-.17-.613-.087-.472-.068-.17-.024c-.684-.1-.684-.1-.909-.3a5.6,5.6,0,0,1-.456-.837l-.15-.319-.079-.167c-.133-.278-.271-.553-.409-.828l-.084-.168-.256-.509C-254.287,1.38-254.63.7-254.957,0c-.172-.364-.358-.72-.552-1.072Z" transform="translate(267.745 3.493)" fill="#fedb41"/>
</svg>
