<svg xmlns="http://www.w3.org/2000/svg" width="13.873" height="13.207" viewBox="0 0 13.873 13.207">
  <path id="star" d="M-260.5-3.4a1.028,1.028,0,0,1,.188.307l.042.082.089.178q.073.148.148.295c.138.274.275.548.406.825.184.387.376.771.569,1.154.548,1.09.548,1.09.548,1.177l.057,0c.221.017.439.045.658.077l.114.016.307.044.192.028.672.1.625.09.538.078.321.046.3.044.162.023c.5.075.5.075.653.262a.618.618,0,0,1-.014.45,2.034,2.034,0,0,1-.384.394c-.111.1-.216.2-.32.3l-.056.056-.174.176-.23.232-.052.053c-.1.1-.205.2-.314.291-.089.079-.173.164-.257.249l-.056.056-.174.176-.23.232-.052.053c-.118.118-.241.229-.368.338-.083.073-.165.148-.245.223l-.064.056-.06.057-.055.05c-.1.207.018.544.057.763l.02.116.043.247q.034.2.068.391.1.556.194,1.113.054.308.107.616.034.194.068.389.021.121.042.242l.02.112c.086.479.086.479,0,.654a.512.512,0,0,1-.3.194,1.314,1.314,0,0,1-.641-.225l-.114-.06q-.344-.181-.684-.37c-.244-.134-.492-.26-.74-.387-.272-.139-.544-.278-.812-.426l-.284-.156-.047-.026-.319-.172-.105-.057-.147-.079-.086-.046c-.153-.049-.282.045-.418.114l-.066.034-.07.036-.222.115-.145.075q-.382.2-.761.4-.284.15-.569.3l-.289.148-.057.03-.49.254-.074.038q-.2.1-.389.207l-.085.046-.16.087a.741.741,0,0,1-.489.119.479.479,0,0,1-.288-.234,1.6,1.6,0,0,1,.035-.677l.021-.121q.028-.163.057-.326t.059-.342q.056-.324.113-.648.1-.581.2-1.161l.071-.407.044-.253.021-.117.028-.16.016-.09a.95.95,0,0,0,.011-.215.7.7,0,0,0-.129-.143l-.04-.04-.129-.125-.084-.083c-.113-.111-.226-.219-.346-.323s-.212-.2-.314-.3l-.056-.056-.233-.235-.171-.173-.052-.053c-.084-.084-.169-.166-.259-.243-.109-.094-.21-.194-.311-.3l-.056-.056-.233-.235-.171-.173-.052-.053c-.1-.1-.209-.2-.32-.3a.538.538,0,0,1-.217-.348.444.444,0,0,1,.115-.372.665.665,0,0,1,.351-.146l.057-.008.19-.027.138-.02.31-.045.553-.081,1.1-.16.438-.064.48-.07.2-.029.279-.041.083-.012.077-.011.066-.01a1.592,1.592,0,0,1,.2-.007l.02-.067a2.878,2.878,0,0,1,.148-.33l.034-.068.072-.143.107-.214c.112-.224.226-.447.344-.669.175-.33.34-.664.506-1,.758-1.524.758-1.524.983-1.617A.535.535,0,0,1-260.5-3.4Zm-.31,1.285-.027.054-.255.512-.131.263c-.169.339-.338.677-.516,1.011-.091.171-.177.345-.262.519l-.042.085q-.085.173-.17.347l-.126.258-.038.079a.7.7,0,0,1-.273.336,4.116,4.116,0,0,1-.668.134l-.1.014-.265.038-.279.04-.827.118-.645.092-.331.047-.254.036-.093.013-.084.012-.073.01a.225.225,0,0,0-.143.068l.189.191.053.054.053.054.048.049c.054.051.108.1.164.148.111.1.214.2.317.3l.056.056.233.235.171.173.052.053c.1.1.206.2.314.291.088.078.171.161.253.245l.055.055.17.171.115.115.256.258.084.083c.119.117.119.117.126.22a3.373,3.373,0,0,1-.057.625l-.017.1q-.023.131-.046.262t-.048.276q-.045.26-.091.521-.082.467-.162.934l-.048.274-.053.3-.016.091a1.712,1.712,0,0,0-.036.39,2.209,2.209,0,0,0,.391-.168l.067-.034.211-.109.137-.071q.371-.191.741-.386.285-.15.571-.3.474-.243.945-.489l.07-.037.06-.032.055-.029.05-.028a.562.562,0,0,1,.388-.008c.058.026.113.054.168.085l.062.032.2.1.136.072.325.173.208.109c.178.092.354.187.53.282l.189.1.048.026c.3.164.611.323.919.48l.052.027.139.071q.079.042.155.089c.057.04.057.04.115.035a6,6,0,0,0-.08-.647l-.016-.092-.034-.2q-.027-.155-.054-.311-.077-.442-.154-.884-.048-.271-.094-.542l-.036-.206q-.026-.144-.05-.288l-.015-.084c-.082-.485-.082-.485.007-.684A2.205,2.205,0,0,1-257.7,4.4c.109-.095.212-.195.313-.3l.054-.054.168-.17.222-.224.05-.051c.082-.083.166-.162.255-.239.109-.094.211-.194.312-.3l.056-.056.174-.176.23-.232.052-.053c.1-.1.209-.2.32-.3.064-.056.123-.115.183-.175l.063-.063.046-.047a.429.429,0,0,0-.223-.08l-.089-.013-.1-.014-.156-.023-.168-.024-.351-.05-.873-.125-.677-.1-.349-.05-.269-.039-.1-.013c-.389-.057-.389-.057-.517-.168a3.179,3.179,0,0,1-.26-.476l-.086-.182-.045-.095c-.075-.158-.154-.315-.233-.471l-.048-.1-.146-.29c-.2-.389-.391-.779-.577-1.173-.1-.207-.2-.41-.314-.61Z" transform="translate(267.745 3.493)" fill="#fedb41"/>
</svg>
