<svg id="star_1_" data-name="star (1)" xmlns="http://www.w3.org/2000/svg" width="13.749" height="13.053" viewBox="0 0 13.749 13.053">
  <path id="Path_2111" data-name="Path 2111" d="M-257.652-1.835a2.2,2.2,0,0,1,.367.6l.037.075.116.234.152.307.038.077q.117.235.241.467c.11.208.217.418.322.628l.024.048.172.345.2.394.047.094c.1.2.2.4.31.591a.183.183,0,0,1,.034.121l.1.014q1.243.173,2.485.353l.49.071.486.071.183.026.252.037.074.01a.689.689,0,0,1,.445.184.4.4,0,0,1,.079.26l0,.076a.852.852,0,0,1-.309.436l-.056.056-.117.116-.176.176-.114.113-.052.052c-.084.083-.169.164-.259.241-.114.1-.221.2-.327.312l-.061.061-.19.191-.251.252-.057.057c-.1.105-.212.205-.324.3-.142.123-.279.25-.415.38l-.114.1c-.056.05-.11.1-.165.154l-.052.045a.319.319,0,0,0-.114.245c.01.093.025.184.043.276s.03.17.044.255c.034.2.069.406.1.608l.054.308q.085.489.171.979.056.323.113.646.032.183.064.365l.04.227.027.155c.077.45.077.45-.04.661a.477.477,0,0,1-.4.142.84.84,0,0,1-.334-.125l-.07-.037-.211-.114-.174-.092-.184-.1c-.2-.1-.4-.206-.594-.307-.252-.129-.5-.259-.753-.392q-.2-.107-.408-.212l-.057-.029-.292-.15c-.165-.084-.329-.169-.491-.258l-.071-.039-.124-.07a.354.354,0,0,0-.311-.043,1.258,1.258,0,0,0-.165.079l-.047.024-.15.079-.106.055q-.336.176-.667.36c-.242.133-.488.258-.733.384-.229.117-.457.236-.682.361-.244.135-.491.264-.739.392l-.056.029-.158.082-.093.048a.649.649,0,0,1-.4.064.479.479,0,0,1-.268-.215,1.39,1.39,0,0,1,.038-.716l.021-.119.045-.255.071-.4q.087-.5.175-1,.068-.39.136-.78.035-.2.07-.4l.043-.25.02-.116c.009-.053.018-.105.028-.158l.016-.089a.34.34,0,0,0-.057-.264l-.048-.048-.055-.055-.06-.058-.061-.061-.2-.193-.13-.129-.126-.125-.059-.058c-.089-.088-.18-.173-.274-.255-.114-.1-.22-.2-.326-.311l-.061-.061-.254-.256-.187-.188-.057-.057c-.1-.105-.212-.2-.325-.3-.081-.072-.158-.147-.235-.224l-.049-.049-.1-.1-.156-.155-.1-.1-.047-.046a.465.465,0,0,1-.179-.373.407.407,0,0,1,.117-.312.4.4,0,0,1,.228-.107l.073-.012.08-.012.086-.013.284-.043.1-.015.707-.1.3-.044.507-.074.585-.085.566-.083.24-.035.333-.049.1-.015.091-.013.079-.012a.6.6,0,0,1,.116-.008l.019-.064a3.174,3.174,0,0,1,.165-.361l.039-.078.124-.247.162-.321.041-.081c.1-.209.206-.419.306-.63.136-.285.278-.568.42-.85l.156-.31.038-.076q.1-.191.187-.385l.036-.077.066-.145a.87.87,0,0,1,.278-.38A.7.7,0,0,1-257.652-1.835Z" transform="translate(264.75 1.886)" fill="#fc3"/>
  <path id="Path_2112" data-name="Path 2112" d="M-248.528,0V11.02l-.885.456-.433.237c-.2.108-.4.21-.6.313-.249.127-.5.255-.741.39s-.491.264-.739.392l-.056.029-.159.082-.093.048a.65.65,0,0,1-.4.064.479.479,0,0,1-.268-.214,1.39,1.39,0,0,1,.038-.716l.021-.119.045-.255q.036-.2.071-.4.087-.5.175-1,.068-.39.136-.78.035-.2.07-.4l.044-.25.02-.116q.014-.079.028-.158l.016-.089a.34.34,0,0,0-.057-.264l-.048-.048-.055-.055-.06-.058-.061-.061-.2-.193-.13-.129-.126-.125-.059-.058c-.089-.088-.18-.173-.274-.255-.114-.1-.22-.2-.326-.311l-.061-.061-.254-.256-.187-.188-.057-.057c-.1-.105-.212-.2-.325-.3-.081-.072-.158-.147-.235-.224l-.049-.049-.1-.1-.156-.155-.1-.1-.047-.046a.465.465,0,0,1-.179-.373.408.408,0,0,1,.117-.312.4.4,0,0,1,.228-.107l.073-.012.08-.012.086-.013.283-.043.1-.015.707-.1.3-.044.507-.074.585-.085.566-.083.24-.035.333-.049.1-.015.091-.013.079-.012a.6.6,0,0,1,.116-.008l.019-.064A3.183,3.183,0,0,1-250.6,3.6l.039-.078.124-.247.162-.321.041-.081c.1-.209.206-.419.306-.63.136-.285.278-.568.42-.85l.156-.31.038-.076q.1-.191.187-.385l.036-.077.066-.145a.885.885,0,0,1,.277-.381A.555.555,0,0,1-248.528,0Z" transform="translate(255.375 0.014)" fill="#fedb41"/>
</svg>
