<svg xmlns="http://www.w3.org/2000/svg" width="24.445" height="23.207" viewBox="0 0 24.445 23.207">
  <g id="star_1_" data-name="star (1)" transform="translate(0.375 -12.489)">
    <path id="Path_2111" data-name="Path 2111" d="M-252.129-1.8a3.919,3.919,0,0,1,.652,1.075l.066.133.206.416.27.545.068.137q.208.418.428.83c.2.37.385.743.572,1.117l.043.086.305.613.349.7.083.167c.177.354.359.7.55,1.051a.326.326,0,0,1,.06.215l.176.024q2.21.307,4.419.628l.871.126.865.125.324.047.448.065.132.018a1.225,1.225,0,0,1,.792.328.718.718,0,0,1,.14.462l.005.135a1.515,1.515,0,0,1-.55.775l-.1.1-.207.206-.314.313-.2.2-.093.093c-.149.148-.3.291-.46.428-.2.176-.392.364-.581.555l-.108.108-.338.34-.445.448-.1.1c-.186.187-.376.365-.576.537-.253.218-.5.445-.738.675q-.1.094-.2.186c-.1.09-.2.182-.293.275l-.093.08a.568.568,0,0,0-.2.436c.018.166.045.327.076.49s.054.3.079.454c.06.361.123.721.187,1.081l.1.547q.151.87.3,1.74.1.574.2,1.148.056.325.114.649.035.2.07.4.024.137.048.275c.138.8.138.8-.071,1.175a.849.849,0,0,1-.717.253,1.493,1.493,0,0,1-.594-.223l-.125-.066c-.126-.067-.251-.134-.376-.2l-.31-.163-.327-.172c-.351-.185-.7-.365-1.056-.547-.448-.23-.895-.461-1.34-.7q-.361-.191-.725-.377l-.1-.052-.519-.267c-.292-.15-.584-.3-.872-.459l-.126-.069-.22-.124a.629.629,0,0,0-.553-.076,2.237,2.237,0,0,0-.293.141l-.083.043-.267.141-.188.1q-.6.313-1.186.64c-.43.236-.867.459-1.3.682-.407.209-.813.42-1.213.641-.434.24-.873.469-1.314.7l-.1.052-.282.145-.165.085a1.155,1.155,0,0,1-.707.114.852.852,0,0,1-.477-.381,2.472,2.472,0,0,1,.067-1.272l.037-.212q.04-.227.08-.454.063-.359.125-.718.155-.892.312-1.783.122-.694.242-1.387.062-.357.125-.714.039-.222.077-.444l.036-.206c.017-.094.033-.187.049-.281l.028-.159a.6.6,0,0,0-.1-.469l-.086-.085-.1-.1-.106-.1-.109-.109-.348-.343-.231-.229-.224-.222-.1-.1c-.159-.156-.319-.308-.488-.453-.2-.175-.391-.362-.579-.552l-.108-.108-.451-.455-.332-.334-.1-.1c-.186-.187-.378-.364-.578-.537-.145-.127-.281-.262-.417-.4l-.087-.087-.18-.18-.277-.275-.176-.176-.083-.082a.826.826,0,0,1-.318-.663.725.725,0,0,1,.209-.554.714.714,0,0,1,.405-.191l.13-.021.143-.021.152-.024.5-.077.175-.027q.628-.095,1.256-.185l.539-.079.9-.131,1.041-.152,1.007-.147.427-.062.592-.086.179-.026.162-.024.141-.021a1.07,1.07,0,0,1,.206-.014l.033-.114a5.658,5.658,0,0,1,.293-.641l.07-.138.221-.438.287-.57.073-.145c.186-.371.365-.745.543-1.119.242-.507.494-1.009.747-1.511l.277-.552.068-.135q.17-.34.332-.685l.064-.137q.06-.128.118-.257a1.548,1.548,0,0,1,.494-.676A1.245,1.245,0,0,1-252.129-1.8Z" transform="translate(264.375 14.375)" fill="#fc3"/>
    <path id="Path_2112" data-name="Path 2112" d="M-243.2,0V19.592l-1.573.81-.77.422c-.352.192-.709.373-1.065.556-.442.226-.882.454-1.317.694s-.873.47-1.314.7l-.1.052-.282.145-.165.085a1.155,1.155,0,0,1-.707.114.852.852,0,0,1-.477-.381,2.472,2.472,0,0,1,.067-1.272l.037-.212q.04-.227.08-.454.063-.359.126-.718.155-.892.312-1.783.122-.694.242-1.387.062-.357.125-.714.039-.222.077-.444l.036-.206c.017-.094.033-.187.049-.281l.028-.159a.6.6,0,0,0-.1-.469l-.086-.085-.1-.1-.106-.1-.109-.109-.348-.343-.231-.229-.224-.222-.1-.1c-.159-.156-.319-.308-.488-.453-.2-.175-.391-.362-.579-.552l-.108-.108-.451-.455-.332-.334-.1-.1c-.186-.187-.378-.364-.578-.537-.145-.127-.281-.262-.417-.4l-.087-.087-.18-.18-.277-.275-.176-.176-.083-.082a.826.826,0,0,1-.318-.663.725.725,0,0,1,.209-.554.714.714,0,0,1,.406-.191l.13-.021.143-.021.152-.024.5-.077.175-.027q.628-.095,1.256-.185l.539-.079.9-.131,1.041-.152,1.007-.147.427-.062.592-.086.179-.026.162-.024.141-.021a1.07,1.07,0,0,1,.206-.014l.033-.114a5.656,5.656,0,0,1,.293-.641l.07-.138.221-.438.287-.57.073-.145c.186-.371.365-.745.543-1.119.242-.507.494-1.009.747-1.511l.277-.552.068-.135q.17-.34.332-.685l.064-.137q.06-.128.118-.257a1.575,1.575,0,0,1,.493-.677A.986.986,0,0,1-243.2,0Z" transform="translate(255 12.514)" fill="#fedb41"/>
  </g>
</svg>
