<svg id="vip-card" xmlns="http://www.w3.org/2000/svg" width="28.195" height="19.754" viewBox="0 0 28.195 19.754">
  <path id="Path_2099" data-name="Path 2099" d="M-40.657-.469H-39l.885,0,2.138,0h.6l3.75,0h1.087l3.5,0q1.8,0,3.59,0l2.016,0q.859,0,1.717,0h.876q.4,0,.8,0h.289A2.8,2.8,0,0,1-15.6.281a2.188,2.188,0,0,1,.627,1.444c0,.055,0,.11,0,.167,0,.091,0,.091,0,.184,0,.064,0,.129,0,.2q0,.268,0,.537,0,.289,0,.579,0,.7,0,1.4v.4q0,1.228,0,2.456,0,.284,0,.569c0,.047,0,.094,0,.143q0,1.144,0,2.288,0,1.175,0,2.35,0,.659,0,1.319,0,.562,0,1.124,0,.286,0,.573c0,.208,0,.415,0,.623,0,.059,0,.119,0,.18a2.555,2.555,0,0,1-.778,1.8,2.245,2.245,0,0,1-1.574.627h-1.656l-.885,0-2.138,0h-.6l-3.75,0h-1.087l-3.5,0q-1.8,0-3.59,0l-2.016,0q-.858,0-1.717,0h-.876q-.4,0-.8,0H-40.2a2.8,2.8,0,0,1-2.154-.777,2.188,2.188,0,0,1-.627-1.444V16.87c0-.061,0-.121,0-.184v-.2q0-.268,0-.537,0-.289,0-.579,0-.7,0-1.4,0-.2,0-.4,0-1.228,0-2.456,0-.284,0-.569c0-.047,0-.094,0-.143q0-1.144,0-2.288,0-1.175,0-2.35,0-.659,0-1.319,0-.562,0-1.124,0-.286,0-.573c0-.208,0-.415,0-.623l0-.18a2.555,2.555,0,0,1,.778-1.8A2.245,2.245,0,0,1-40.657-.469Z" transform="translate(43.009 0.497)" fill="#4c4a40"/>
  <path id="Path_2100" data-name="Path 2100" d="M0,0H14c.006,1.925.011,3.85.017,5.834,0,.911,0,.911.007,1.84,0,.743,0,.743,0,1.091q0,.364,0,.728,0,.465,0,.93,0,.17,0,.34a2.89,2.89,0,0,1-.775,2.288,2.3,2.3,0,0,1-1.656.626H4.5l-4.5,0V10.389l.492-.164a.386.386,0,0,0,.273-.219A3.4,3.4,0,0,0,.8,9.348v-.2q0-.277,0-.554c0-.193,0-.387,0-.58q0-.487,0-.974,0-.563,0-1.126,0-.484,0-.967,0-.289,0-.577c0-.215,0-.429,0-.644l0-.193a.875.875,0,0,0-.145-.609A1.759,1.759,0,0,0,0,2.734Z" transform="translate(14.034 6.05)" fill="#1f1e1a"/>
  <path id="Path_2101" data-name="Path 2101" d="M-40.043-.469h1.656l.885,0,2.138,0h.6l3.75,0h1.087l3.5,0q1.8,0,3.59,0l2.016,0q.859,0,1.717,0h.876q.4,0,.8,0h.289a2.8,2.8,0,0,1,2.154.777c1.259,1.333.619,3.91.619,5.272h-28c0-4.611,0-4.611.743-5.4A2.245,2.245,0,0,1-40.043-.469Z" transform="translate(42.394 0.497)" fill="#ffce2c"/>
  <path id="Path_2102" data-name="Path 2102" d="M0-.57Q2.345-.579,4.69-.584L6.868-.591q.949,0,1.9-.005l1,0q.474,0,.947,0l.346,0a2.915,2.915,0,0,1,2.314.775c.944,1,.619,2.319.619,3.632H0Z" transform="translate(14.034 0.605)" fill="#ffa81c"/>
  <path id="Path_2103" data-name="Path 2103" d="M0,0H28V1.64H0Z" transform="translate(0.036 4.409)" fill="#ffcf2c"/>
  <path id="Path_2104" data-name="Path 2104" d="M-12.652-.193l.159,0h.726l.568,0h.365l.169,0A2.908,2.908,0,0,1-8.7.472a2.938,2.938,0,0,1,.547,2.242,2.292,2.292,0,0,1-.82,1.531,3.62,3.62,0,0,1-2.051.441h-.2l-.484,0,0,.212q.006.389.009.778,0,.168,0,.337c0,.161,0,.323,0,.484l0,.152a.873.873,0,0,1-.127.556,1.179,1.179,0,0,1-.93.234.7.7,0,0,1-.5-.236.6.6,0,0,1-.124-.443l0-.175V6.184q0-.275,0-.55,0-.172,0-.344,0-.6,0-1.2,0-.559,0-1.117,0-.48,0-.959,0-.286,0-.573c0-.213,0-.426,0-.639l0-.191c0-.427,0-.427.164-.644A.88.88,0,0,1-12.652-.193Z" transform="translate(30.172 8.968)" fill="#fccd2b"/>
  <path id="Path_2105" data-name="Path 2105" d="M0,0H14V1.64H0Z" transform="translate(0.036 4.409)" fill="#fff566"/>
  <path id="Path_2106" data-name="Path 2106" d="M-23.693-1.533a.716.716,0,0,1,.31.5l.047.186.049.2c.159.63.159.63.338,1.254.118.39.22.784.321,1.179.178.7.375,1.386.581,2.074.207-.645.379-1.3.553-1.953q.126-.471.256-.942.1-.379.206-.758t.206-.754c.033-.119.064-.238.1-.357l.053-.191.043-.159a.775.775,0,0,1,.336-.353,1.627,1.627,0,0,1,1.159.335.626.626,0,0,1,.083.538c-.073.312-.172.614-.272.918-.069.214-.133.43-.2.646-.227.76-.456,1.519-.694,2.276q-.129.411-.252.825-.062.208-.125.416-.086.285-.166.572l-.082.28-.035.13a1.006,1.006,0,0,1-.587.682,2.1,2.1,0,0,1-.57.059h-.118a1.2,1.2,0,0,1-.767-.239,1.611,1.611,0,0,1-.318-.653l-.043-.133c-.113-.35-.214-.7-.313-1.057-.151-.534-.314-1.065-.478-1.6l-.042-.138c-.138-.45-.278-.9-.428-1.346-.109-.324-.211-.648-.305-.977l-.042-.142c-.186-.645-.186-.645-.163-.9A1.147,1.147,0,0,1-23.693-1.533Z" transform="translate(30.939 10.391)" fill="#fdf365"/>
  <path id="Path_2107" data-name="Path 2107" d="M-23.769-1.625a1.189,1.189,0,0,1,.3.256,1.2,1.2,0,0,1,.022.282l0,.177c0,.064,0,.128,0,.194l0,.2q0,.277,0,.554,0,.231,0,.463,0,.546,0,1.092,0,.563,0,1.126,0,.483,0,.967,0,.289,0,.577c0,.215,0,.429,0,.644l0,.193c0,.421,0,.421-.115.573a1.221,1.221,0,0,1-.943.244A.68.68,0,0,1-25,5.685a.6.6,0,0,1-.124-.441l0-.174c0-.063,0-.126,0-.191v-.2q0-.273,0-.545,0-.17,0-.341,0-.595,0-1.189,0-.554,0-1.108,0-.476,0-.952,0-.284,0-.568c0-.211,0-.423,0-.634l0-.19c0-.424,0-.424.166-.639A1.257,1.257,0,0,1-23.769-1.625Z" transform="translate(38.323 10.481)" fill="#fdce2c"/>
  <path id="Path_2108" data-name="Path 2108" d="M-14.789-.061V7.485c-.442,0-.442,0-.711-.219a.6.6,0,0,1-.124-.441l0-.174c0-.063,0-.126,0-.191v-.2q0-.273,0-.545,0-.17,0-.341,0-.595,0-1.189,0-.554,0-1.108,0-.476,0-.952,0-.284,0-.568c0-.211,0-.423,0-.634l0-.19c0-.425,0-.425.167-.64C-15.2-.1-15.206-.061-14.789-.061Z" transform="translate(28.823 8.9)" fill="#fcf265"/>
  <path id="Path_2109" data-name="Path 2109" d="M-21.9-.07c.12,0,.24,0,.36,0h.443a1.079,1.079,0,0,1,.688.359,1.222,1.222,0,0,1-.027.95,1.1,1.1,0,0,1-.887.388q-.211,0-.422,0l-.214,0a1.367,1.367,0,0,1-.961-.249.827.827,0,0,1-.246-.629.844.844,0,0,1,.246-.629A1.54,1.54,0,0,1-21.9-.07Z" transform="translate(44.827 15.391)" fill="#fbcc2b"/>
  <path id="Path_2110" data-name="Path 2110" d="M0-.347.6-.361.788-.367A1.284,1.284,0,0,1,1.7-.129a1.174,1.174,0,0,1,.246.906l0,.137a.923.923,0,0,1-.249.708A.989.989,0,0,1,.87,1.86L.663,1.854,0,1.84Z" transform="translate(18.463 10.553)" fill="#201f1a"/>
</svg>
