<svg id="vip-card_small" xmlns="http://www.w3.org/2000/svg" width="37.217" height="15.109" viewBox="0 0 37.217 15.109">
  <path id="Path_2099" data-name="Path 2099" d="M-39.9-.476h3.361l2.829,0h.8l4.961,0h1.438l4.626,0,4.75,0,2.667,0h4.875A5.521,5.521,0,0,1-6.743.1a1.482,1.482,0,0,1,.829,1.1c0,.042,0,.084,0,.128,0,.07,0,.07,0,.14,0,.049,0,.1,0,.149q0,.205,0,.411,0,.221,0,.443,0,.535,0,1.07v.3q0,.939,0,1.878,0,.218,0,.435c0,.036,0,.072,0,.109q0,.875.006,1.75,0,.9.005,1.8,0,.5,0,1.009,0,.43,0,.86c0,.146,0,.292,0,.438s0,.318,0,.476l0,.138c-.01.551-.385.983-1.03,1.377a4.344,4.344,0,0,1-2.082.48h-3.361l-2.829,0h-.8l-4.961,0h-1.438L-27,14.6l-4.75,0-2.667,0h-4.875a5.521,5.521,0,0,1-2.85-.594,1.482,1.482,0,0,1-.829-1.1c0-.042,0-.084,0-.128s0-.093,0-.14,0-.1,0-.149q0-.205,0-.411,0-.221,0-.443,0-.535,0-1.07,0-.151,0-.3,0-.939,0-1.878,0-.218,0-.435c0-.036,0-.072,0-.109q0-.875-.006-1.75,0-.9-.005-1.8,0-.5,0-1.009,0-.43,0-.86c0-.146,0-.292,0-.438s0-.318,0-.476l0-.138C-43,.83-42.624.4-41.979,0A4.345,4.345,0,0,1-39.9-.476Z" transform="translate(43.009 0.497)" fill="#4c4a40"/>
  <path id="Path_2100" data-name="Path 2100" d="M0,0H9.342c0,1.285.008,2.57.011,3.893,0,.608,0,.608,0,1.228,0,.5,0,.5,0,.728q0,.243,0,.486,0,.31,0,.62,0,.114,0,.227A1.929,1.929,0,0,1,8.846,8.71a1.532,1.532,0,0,1-1.105.418H3l-3,0V6.933l.328-.109a.257.257,0,0,0,.182-.146,2.272,2.272,0,0,0,.024-.44V6.1q0-.185,0-.37c0-.129,0-.258,0-.387q0-.325,0-.65,0-.376,0-.751,0-.323,0-.645,0-.193,0-.385c0-.143,0-.286,0-.43V2.354a.584.584,0,0,0-.1-.407A1.174,1.174,0,0,0,0,1.825Z" transform="translate(27.767 5.963)" fill="#1f1e1a"/>
  <path id="Path_2101" data-name="Path 2101" d="M-39.3-.478h3.356l2.824,0h.8l4.953,0h1.435l4.619,0,4.742,0,2.662,0h4.867A6.186,6.186,0,0,1-6.2.022c1.663.89.818,2.609.818,3.518H-42.359c0-3.077,0-3.077.981-3.6A4.856,4.856,0,0,1-39.3-.478Z" transform="translate(42.383 0.497)" fill="#ffce2c"/>
  <path id="Path_2102" data-name="Path 2102" d="M0-.581Q1.565-.587,3.13-.59l1.453,0L5.85-.6l.671,0h.863a1.946,1.946,0,0,1,1.544.517c.63.668.413,1.548.413,2.424H0Z" transform="translate(27.767 0.604)" fill="#ffa81c"/>
  <path id="Path_2103" data-name="Path 2103" d="M0,0H37.085V1.095H0Z" transform="translate(0.024 3.411)" fill="#ffcf2c"/>
  <path id="Path_2104" data-name="Path 2104" d="M-12.9-.2h.591l.379,0h.357a1.94,1.94,0,0,1,1.31.451,1.961,1.961,0,0,1,.365,1.5,1.529,1.529,0,0,1-.547,1.022,2.416,2.416,0,0,1-1.368.294h-.133l-.323,0,0,.141q0,.26.006.519,0,.112,0,.225c0,.108,0,.215,0,.323l0,.1a.583.583,0,0,1-.085.371.787.787,0,0,1-.621.156.47.47,0,0,1-.332-.158.4.4,0,0,1-.083-.3v-.38q0-.183,0-.367,0-.115,0-.229,0-.4,0-.8,0-.373,0-.745,0-.32,0-.64,0-.191,0-.382c0-.142,0-.284,0-.426l0-.128c0-.285,0-.285.109-.43A.588.588,0,0,1-12.9-.2Z" transform="translate(38.052 7.446)" fill="#fccd2b"/>
  <path id="Path_2105" data-name="Path 2105" d="M0,0H9.342V1.095H0Z" transform="translate(0.024 3.411)" fill="#fff566"/>
  <path id="Path_2106" data-name="Path 2106" d="M-24.149-1.562a.478.478,0,0,1,.207.333l.031.124.033.133c.106.42.106.42.226.837.079.26.147.523.214.787.119.465.25.925.388,1.384.138-.43.253-.867.369-1.3q.084-.314.171-.628.069-.253.138-.506t.138-.5c.022-.079.043-.159.064-.238l.035-.128.029-.106a.517.517,0,0,1,.225-.236,1.086,1.086,0,0,1,.773.224.418.418,0,0,1,.055.359c-.048.208-.115.41-.182.612-.046.143-.089.287-.131.431-.152.507-.3,1.014-.463,1.519q-.086.275-.168.55l-.083.277q-.057.19-.111.381l-.055.187-.024.087a.672.672,0,0,1-.392.455,1.4,1.4,0,0,1-.38.04h-.079a.8.8,0,0,1-.512-.159,1.075,1.075,0,0,1-.212-.436l-.029-.089c-.075-.234-.143-.469-.209-.705-.1-.357-.21-.711-.319-1.065L-24.43.964c-.092-.3-.185-.6-.286-.9-.073-.216-.141-.433-.2-.652l-.028-.095c-.124-.43-.124-.43-.109-.6A.765.765,0,0,1-24.149-1.562Z" transform="translate(33.864 8.874)" fill="#fdf365"/>
  <path id="Path_2107" data-name="Path 2107" d="M-24.227-1.657a.793.793,0,0,1,.2.171.8.8,0,0,1,.015.188v.118c0,.043,0,.085,0,.129v.136q0,.185,0,.37,0,.154,0,.309,0,.364,0,.729t0,.751q0,.323,0,.645,0,.193,0,.385c0,.143,0,.287,0,.43l0,.129c0,.281,0,.281-.076.382a.815.815,0,0,1-.629.163.454.454,0,0,1-.344-.157.4.4,0,0,1-.083-.295V2.811c0-.042,0-.084,0-.127V2.55q0-.182,0-.364,0-.114,0-.227,0-.4,0-.794,0-.37,0-.739,0-.318,0-.635,0-.19,0-.379c0-.141,0-.282,0-.423l0-.127c0-.283,0-.283.11-.427A.839.839,0,0,1-24.227-1.657Z" transform="translate(43.098 8.959)" fill="#fdce2c"/>
  <path id="Path_2108" data-name="Path 2108" d="M-15.073-.062V4.974c-.3,0-.3,0-.474-.146a.4.4,0,0,1-.083-.295V4.417c0-.042,0-.084,0-.127V4.156q0-.182,0-.364,0-.114,0-.227,0-.4,0-.794,0-.37,0-.739,0-.318,0-.635,0-.19,0-.379c0-.141,0-.282,0-.423l0-.127c0-.283,0-.283.112-.427C-15.347-.09-15.352-.062-15.073-.062Z" transform="translate(33.309 7.355)" fill="#fcf265"/>
  <path id="Path_2109" data-name="Path 2109" d="M-22.319-.071l.24,0h.3a.72.72,0,0,1,.459.24A.815.815,0,0,1-21.342.8a.731.731,0,0,1-.592.259h-.282l-.143,0A.912.912,0,0,1-23,.894a.552.552,0,0,1-.164-.42A.563.563,0,0,1-23,.054,1.028,1.028,0,0,1-22.319-.071Z" transform="translate(56.022 12.222)" fill="#fbcc2b"/>
  <path id="Path_2110" data-name="Path 2110" d="M0-.354.4-.363l.125,0a.857.857,0,0,1,.605.159A.783.783,0,0,1,1.3.4l0,.091A.616.616,0,0,1,1.131.96a.66.66,0,0,1-.55.159l-.138,0L0,1.106Z" transform="translate(25.264 8.284)" fill="#201f1a"/>
</svg>
