<?xml version="1.0" encoding="UTF-8"?>
<svg version="1.1" xmlns="http://www.w3.org/2000/svg" width="119" height="171">
<path d="M0 0 C7.28907819 5.18308449 13.36184082 11.94957603 15 21 C15.83667234 32.65854896 14.92262799 41.56186538 7.3125 50.8125 C1.5704837 56.87649852 -4.95997695 60.63830423 -13.3203125 61.23828125 C-25.1753495 61.46953967 -33.21993886 59.55501365 -42.01953125 51.22265625 C-48.73484121 43.68614468 -50.36987744 36.38324042 -50.28125 26.5234375 C-49.63529343 18.43103714 -46.88539492 9.82579598 -41 4 C-29.5847005 -5.26552559 -12.97357479 -7.89986115 0 0 Z M-33.5 15.375 C-37.42528338 20.58653443 -38.57033427 25.49818927 -38 32 C-36.0282225 37.91533251 -33.32501843 42.98123881 -27.921875 46.26171875 C-22.42273891 48.92711634 -17.8161487 50.13344311 -11.77734375 48.33984375 C-4.90338641 45.68895202 -0.68968607 41.6865878 2.375 35 C3.89083063 27.72401297 2.87877145 22.27448323 -1 16 C-4.95677676 11.39681912 -8.97304809 9.11610221 -15 8 C-22.04712932 7.59894386 -28.73657873 10.09661426 -33.5 15.375 Z " fill="#081825" transform="translate(50,56)"/>
<path d="M0 0 C2.4375 1.5625 2.4375 1.5625 4 4 C4.79443479 7.98855406 4.64584478 10.95050223 2.5 14.4375 C0 16 0 16 -3.69921875 16.16015625 C-9.16152658 16.75680069 -11.78836884 20.06968468 -15.3125 24 C-16.51256864 25.29571704 -17.71682343 26.58757297 -18.92578125 27.875 C-19.44567627 28.44992188 -19.96557129 29.02484375 -20.5012207 29.6171875 C-22 31 -22 31 -25 32 C-27.25 30.3125 -27.25 30.3125 -29 28 C-28.66131548 24.60511105 -27.44213264 23.15111586 -24.875 21.01171875 C-24.25109375 20.46966797 -23.6271875 19.92761719 -22.984375 19.36914062 C-21.66722068 18.25293012 -20.34431855 17.1434651 -19.015625 16.04101562 C-15.6332063 13.08139926 -14.16443738 11.75924438 -13.18359375 7.23046875 C-13.12300781 6.16441406 -13.06242187 5.09835938 -13 4 C-8.89584932 -1.03089438 -6.29304756 -1.41051066 0 0 Z " fill="#F16522" transform="translate(86,29)"/>
<path d="M0 0 C2.9712912 1.14765556 4.84670826 2.65231523 6.953125 5.00390625 C7.49066406 5.57947266 8.02820313 6.15503906 8.58203125 6.74804688 C9.68884164 7.95205958 10.78537631 9.16560464 11.87109375 10.38867188 C16.14927669 14.9158227 18.82640541 15.61899364 25 16 C28.21152592 18.72979703 28.89433954 20.34255711 29.5625 24.5 C29 28 29 28 27.0625 31 C23.30188382 33.45591261 21.34228149 33.41870213 17.0234375 32.63671875 C15 32 15 32 13 30.375 C12 28 12 28 11.734375 24.67578125 C10.8533969 20.26620469 9.50560843 18.84175696 6.25 15.8125 C5.38890625 14.99394531 4.5278125 14.17539063 3.640625 13.33203125 C1.87053098 11.76879733 0.0448521 10.26648863 -1.828125 8.828125 C-2.54484375 8.22484375 -3.2615625 7.6215625 -4 7 C-4 4.37073639 -3.18092426 3.25846322 -1.6875 1.125 C-1.130625 0.75375 -0.57375 0.3825 0 0 Z " fill="#F16522" transform="translate(61,108)"/>
<path d="M0 0 C2.40355927 3.6053389 2.75085268 6.79361025 2 11 C1.50806152 11.59466064 1.01612305 12.18932129 0.50927734 12.80200195 C-1.31275849 15.45547794 -1.41890831 17.0104459 -1.51171875 20.203125 C-1.54716797 21.1828125 -1.58261719 22.1625 -1.61914062 23.171875 C-1.65297852 24.69554687 -1.65297852 24.69554687 -1.6875 26.25 C-1.72166016 27.28125 -1.75582031 28.3125 -1.79101562 29.375 C-1.87338093 31.91655812 -1.94256834 34.45777626 -2 37 C-4.64 37 -7.28 37 -10 37 C-10.0093457 36.35973877 -10.01869141 35.71947754 -10.02832031 35.05981445 C-10.08218847 32.14327625 -10.16580199 29.22831375 -10.25 26.3125 C-10.26417969 25.30509766 -10.27835938 24.29769531 -10.29296875 23.25976562 C-10.48293829 17.5036887 -10.74987589 14.24175772 -15 10 C-15.64819613 6.11082323 -15.3410429 4.54810466 -13.25 1.1875 C-8.79804241 -3.14079211 -5.66600943 -2.09852201 0 0 Z " fill="#F16522" transform="translate(40,10)"/>
<path d="M0 0 C3.94765385 0.5742042 5.05390965 1.38299724 7.4375 4.5 C8.88180855 7.38861709 8.81438506 9.29647701 8.4375 12.5 C6.44116611 15.36972996 4.96520117 17.15210765 1.46484375 17.94921875 C-0.625 18.0625 -0.625 18.0625 -4.5625 17.5 C-5.19188477 16.8409668 -5.82126953 16.18193359 -6.46972656 15.50292969 C-9.09637882 12.98904085 -10.40105758 12.97025428 -13.984375 12.890625 C-15.00917969 12.85839844 -16.03398438 12.82617188 -17.08984375 12.79296875 C-18.15332031 12.77878906 -19.21679688 12.76460937 -20.3125 12.75 C-21.39144531 12.72035156 -22.47039062 12.69070312 -23.58203125 12.66015625 C-26.24226244 12.58953064 -28.90162102 12.53679804 -31.5625 12.5 C-31.5625 10.19 -31.5625 7.88 -31.5625 5.5 C-30.8919458 5.4906543 -30.2213916 5.48130859 -29.53051758 5.47167969 C-26.47794433 5.41783404 -23.42688018 5.33421505 -20.375 5.25 C-19.31990234 5.23582031 -18.26480469 5.22164063 -17.17773438 5.20703125 C-9.88243628 4.97689566 -6.39781546 0.89793901 0 0 Z " fill="#F16522" transform="translate(101.5625,75.5)"/>
<path d="M0 0 C1.65 0 3.3 0 5 0 C4.93039063 1.58941406 4.93039063 1.58941406 4.859375 3.2109375 C4.82186168 4.59893022 4.78546105 5.98695333 4.75 7.375 C4.71648438 8.07367188 4.68296875 8.77234375 4.6484375 9.4921875 C4.56035661 11.76991596 4.56035661 11.76991596 5 15 C6.81958978 16.45164306 6.81958978 16.45164306 9 17 C11 19 11 19 11.4375 22.8125 C11.34337753 26.25738255 10.98819656 27.01666367 8.875 30 C5.50172663 32.34662495 4.02250703 32.59909679 0 32 C-2.58971247 31.13676251 -3.66500737 30.46898968 -5.25 28.25 C-6.25828913 25.2251326 -6.45341075 23.17387527 -6 20 C-5.18273437 19.27296875 -4.36546875 18.5459375 -3.5234375 17.796875 C-0.39794785 14.33271 -0.22590431 11.64666742 -0.1875 7.1875 C-0.16236328 6.49462891 -0.13722656 5.80175781 -0.11132812 5.08789062 C-0.05286737 3.39252878 -0.02346953 1.69620713 0 0 Z " fill="#F16522" transform="translate(31,130)"/>
<path d="M0 0 C2 0.0625 2 0.0625 4 1 C4.75 4.0625 4.75 4.0625 5 7 C2.625 7.625 2.625 7.625 0 8 C-0.66 7.34 -1.32 6.68 -2 6 C-1.44444444 1.44444444 -1.44444444 1.44444444 0 0 Z " fill="#F26522" transform="translate(58,146)"/>
<path d="M0 0 C3 0.1875 3 0.1875 6 1 C7 2.9375 7 2.9375 7 5 C6.34 5.66 5.68 6.32 5 7 C2.4375 6.9375 2.4375 6.9375 0 6 C-0.875 3.5 -0.875 3.5 -1 1 C-0.67 0.67 -0.34 0.34 0 0 Z " fill="#F26522" transform="translate(108,114)"/>
<path d="M0 0 C1.2375 0.1546875 1.2375 0.1546875 2.5 0.3125 C3.5 2.125 3.5 2.125 3.5 4.3125 C2.375 6.125 2.375 6.125 0.5 7.3125 C-2.1875 7 -2.1875 7 -4.5 6.3125 C-3.4442623 0.43053279 -3.4442623 0.43053279 0 0 Z " fill="#F26522" transform="translate(112.5,48.6875)"/>
<path d="M0 0 C2.5 0.75 2.5 0.75 5 2 C5.33 2.99 5.66 3.98 6 5 C5.01 6.485 5.01 6.485 4 8 C1.05320015 7.72373751 0.12570696 7.12570696 -2 5 C-1.46428571 1.46428571 -1.46428571 1.46428571 0 0 Z " fill="#F26522" transform="translate(89,139)"/>
<path d="M0 0 C3.69230769 0.69230769 3.69230769 0.69230769 5 2 C5.04063832 3.66617115 5.042721 5.33388095 5 7 C3.34385343 7.38218767 1.67542976 7.71395102 0 8 C-1 7 -1 7 -1.125 4 C-1 1 -1 1 0 0 Z " fill="#F26522" transform="translate(55,137)"/>
<path d="M0 0 C0.99 0.33 1.98 0.66 3 1 C3.33 1.99 3.66 2.98 4 4 C2.8125 6.25 2.8125 6.25 1 8 C-1.125 8 -1.125 8 -3 7 C-4 5.125 -4 5.125 -4 3 C-2.25 1.1875 -2.25 1.1875 0 0 Z " fill="#F26522" transform="translate(92,23)"/>
<path d="M0 0 C2.0625 0.1875 2.0625 0.1875 4 1 C4.33 1.99 4.66 2.98 5 4 C3.8125 6.25 3.8125 6.25 2 8 C-0.1875 8.0625 -0.1875 8.0625 -2 7 C-2.375 4.5625 -2.375 4.5625 -2 2 C-1.34 1.34 -0.68 0.68 0 0 Z " fill="#F16522" transform="translate(66,3)"/>
<path d="M0 0 C1.67542976 0.28604898 3.34385343 0.61781233 5 1 C5.25 3.375 5.25 3.375 5 6 C3.125 7.375 3.125 7.375 1 8 C0.34 7.67 -0.32 7.34 -1 7 C-1.1875 4 -1.1875 4 -1 1 C-0.67 0.67 -0.34 0.34 0 0 Z " fill="#F16522" transform="translate(32,163)"/>
<path d="M0 0 C1.2375 0.1546875 1.2375 0.1546875 2.5 0.3125 C3.625 2.125 3.625 2.125 3.5 4.3125 C1.25 6.1875 1.25 6.1875 -1.5 7.3125 C-2.49 6.6525 -3.48 5.9925 -4.5 5.3125 C-4.06728466 1.74259849 -3.66024536 0.45753067 0 0 Z " fill="#F16522" transform="translate(103.5,52.6875)"/>
<path d="M0 0 C2.625 0.3125 2.625 0.3125 5 1 C4.67 2.98 4.34 4.96 4 7 C1.5625 7.25 1.5625 7.25 -1 7 C-1.9375 5.1875 -1.9375 5.1875 -2 3 C-1.34 2.01 -0.68 1.02 0 0 Z " fill="#F16522" transform="translate(61,12)"/>
<path d="M0 0 C3.0625 -0.125 3.0625 -0.125 6 0 C6.38218767 1.65614657 6.71395102 3.32457024 7 5 C6 6 6 6 3.5625 6.3125 C2.716875 6.209375 1.87125 6.10625 1 6 C-0.375 4.125 -0.375 4.125 -1 2 C-0.67 1.34 -0.34 0.68 0 0 Z " fill="#F16522" transform="translate(112,81)"/>
<path d="M0 0 C1.66611905 -0.042721 3.33382885 -0.04063832 5 0 C6 1 6 1 6.125 3.5 C6 6 6 6 5 7 C3.33382885 7.04063832 1.66611905 7.042721 0 7 C0 4.69 0 2.38 0 0 Z " fill="#F16522" transform="translate(31,0)"/>
<path d="M0 0 C2.4375 -0.25 2.4375 -0.25 5 0 C5.66 0.66 6.32 1.32 7 2 C6.9375 4.125 6.9375 4.125 6 6 C3.5625 6.5 3.5625 6.5 1 6 C-0.375 4.125 -0.375 4.125 -1 2 C-0.67 1.34 -0.34 0.68 0 0 Z " fill="#F16522" transform="translate(99,110)"/>
</svg>
