<?xml version="1.0" encoding="UTF-8"?>
<svg version="1.1" xmlns="http://www.w3.org/2000/svg" width="623" height="204">
<path d="M0 0 C2.20214844 1.39355469 2.20214844 1.39355469 4 4 C4.55580728 7.34136398 4.4650102 10.63666261 4.390625 14.015625 C4.38659668 14.87655762 4.38256836 15.73749023 4.37841797 16.62451172 C4.35752717 19.83322534 4.30168144 23.0416346 4.25 26.25 C4.1675 33.4275 4.085 40.605 4 48 C19.18 48 34.36 48 50 48 C49.84190609 34.07353946 49.84190609 34.07353946 49.63964844 20.14770508 C49.62796162 18.39665706 49.61776978 16.64559815 49.609375 14.89453125 C49.58891113 13.99166382 49.56844727 13.08879639 49.54736328 12.15856934 C49.54500204 7.89711305 49.61698801 5.62161204 51.8972168 1.92089844 C54.1786474 -0.16319491 55.02286123 -0.66206428 58.0625 -0.5625 C62 0 62 0 63.72402954 1.61508179 C65.42313589 4.7908839 65.36490875 7.12359141 65.35302734 10.72119141 C65.35518753 11.38846252 65.35734772 12.05573364 65.35957336 12.7432251 C65.36265544 14.1891447 65.35906887 15.63509059 65.34955978 17.08098221 C65.33577965 19.37787286 65.34228485 21.67390328 65.35440063 23.97079468 C65.38529161 30.49995571 65.38059334 37.02891698 65.36035156 43.55810547 C65.34936502 47.55706146 65.36277464 51.5553742 65.39024734 55.55424118 C65.39565082 57.06990542 65.39171965 58.58563548 65.37784958 60.10124588 C65.29826682 68.90553443 65.54950175 76.66881344 71 84 C76.75098054 89.43222545 82.26014252 90.4284705 89.921875 90.3359375 C94.59387734 89.82604892 97.63879979 88.25227242 101 85 C105.46194703 79.26639807 107.12113918 74.58608583 107.1418457 67.29711914 C107.14705734 66.28197487 107.14705734 66.28197487 107.15237427 65.24632263 C107.15972051 63.77800885 107.16507192 62.30968404 107.16866493 60.84135628 C107.17583732 58.51698443 107.19150857 56.19282282 107.21000671 53.86851501 C107.26244696 47.2604354 107.31047014 40.6524728 107.32592773 34.04418945 C107.33600515 30.00102363 107.36531954 25.95838964 107.40724754 21.91543388 C107.41956288 20.37530984 107.42467781 18.83511071 107.42244911 17.29493904 C107.42009779 15.14013944 107.4422446 12.98686844 107.4699707 10.83227539 C107.47877007 8.99385826 107.47877007 8.99385826 107.48774719 7.11830139 C108.09836294 3.40122282 108.99497291 2.21104052 112 0 C115.5 -0.5625 115.5 -0.5625 119 0 C121.834327 2.72231207 122.90453535 4.41914286 123.54589844 8.3215332 C123.5668457 9.55218506 123.58779297 10.78283691 123.609375 12.05078125 C123.62591125 12.70958786 123.64244751 13.36839447 123.65948486 14.04716492 C123.70777556 16.13570651 123.72929082 18.22352122 123.75 20.3125 C123.77817596 21.73506224 123.80810568 23.1575909 123.83984375 24.58007812 C123.91352563 28.05322825 123.96321715 31.52624072 124 35 C124.81984375 34.57847656 125.6396875 34.15695313 126.484375 33.72265625 C127.56203125 33.17480469 128.6396875 32.62695312 129.75 32.0625 C130.81734375 31.51722656 131.8846875 30.97195312 132.984375 30.41015625 C141.40422062 26.47289684 152.21173432 26.67974856 160.9375 29.625 C171.66765925 34.17140822 179.81769167 42.15059378 184.2734375 52.921875 C187.64081456 62.55329755 187.26197087 74.24347519 183.26171875 83.60546875 C177.5003589 94.53956655 169.14324712 100.74270115 157.875 105.25 C145.33607347 107.67688901 134.76470191 105.86753673 124.0625 99 C121.09219872 96.90269049 118.41976716 94.73538896 116 92 C115.17435547 93.12341797 115.17435547 93.12341797 114.33203125 94.26953125 C109.32764701 100.12893591 101.63900547 104.83472798 94 106 C82.22367773 106.91934114 72.18832878 105.36091519 62.84765625 97.765625 C55.93459947 91.1594904 51.87351699 84.36758495 50 75 C50 71.04 50 67.08 50 63 C34.82 63 19.64 63 4 63 C4.19755338 75.28119582 4.19755338 75.28119582 4.45043945 87.5612793 C4.46505008 89.10724153 4.4777894 90.65322307 4.48828125 92.19921875 C4.51386108 92.9941272 4.53944092 93.78903564 4.5657959 94.60803223 C4.5691441 98.87966505 4.36043921 100.52345025 1.69604492 104.04614258 C-1 106 -1 106 -4.625 106.0625 C-8.46594205 104.85331454 -9.17219845 104.49421336 -11 101 C-11.437734 97.93207586 -11.39928486 94.89132894 -11.37231445 91.796875 C-11.37779045 90.40112244 -11.37779045 90.40112244 -11.38337708 88.97717285 C-11.39148324 85.90126293 -11.37787171 82.8258797 -11.36328125 79.75 C-11.36276265 77.61295573 -11.36328034 75.47591098 -11.36479187 73.33886719 C-11.36470214 68.8599536 -11.35427167 64.38122 -11.33618164 59.90234375 C-11.31349459 54.15875697 -11.31295038 48.41543322 -11.31969929 42.67181396 C-11.32303943 38.25892801 -11.3164083 33.84610211 -11.30657005 29.43322754 C-11.30271855 27.31531081 -11.30156963 25.19738741 -11.3031559 23.07946777 C-11.30352641 20.12055717 -11.29091022 17.16198483 -11.2746582 14.203125 C-11.27713562 13.32611938 -11.27961304 12.44911377 -11.28216553 11.54553223 C-11.27153831 10.33431702 -11.27153831 10.33431702 -11.26069641 9.09863281 C-11.25864354 8.39957825 -11.25659067 7.70052368 -11.25447559 6.98028564 C-10.95105963 4.61915442 -10.24193304 3.02339187 -9 1 C-5.90826248 -0.54586876 -3.40570448 -0.29359521 0 0 Z M127.5 52 C122.84179738 58.7164782 122.17425889 64.9725421 123 73 C124.91186192 79.77737877 129.83757023 85.51312459 135.84375 89.1015625 C142.15101821 91.86745471 149.22035982 92.25630086 155.75 90.0859375 C163.50796366 86.50711498 167.58845777 81.86840381 171 74 C172.07638957 66.34866412 171.81006089 59.3813141 167.484375 52.83203125 C162.93607716 47.21847418 157.46150921 43.57425366 150.23828125 42.64453125 C140.91052903 42.2026275 133.39300464 44.48428394 127.5 52 Z " fill="#FFFFFF" transform="translate(372,34)"/>
<path d="M0 0 C6.991875 -0.0928125 6.991875 -0.0928125 14.125 -0.1875 C15.58437988 -0.21481201 17.04375977 -0.24212402 18.54736328 -0.27026367 C19.70993652 -0.27775635 20.87250977 -0.28524902 22.0703125 -0.29296875 C23.25383301 -0.3086792 24.43735352 -0.32438965 25.65673828 -0.34057617 C30.26820078 0.12919089 33.68033874 1.54382206 36.8125 5 C39.19889845 9.0191974 39.31143719 12.40630148 39 17 C37.39265334 21.17910132 35.81927559 23.62941515 32 26 C32.73605469 26.81984375 33.47210938 27.6396875 34.23046875 28.484375 C37.24903758 32.1087871 39.27075629 36.01929008 41.3125 40.25 C41.67150391 40.96929687 42.03050781 41.68859375 42.40039062 42.4296875 C45 47.71803571 45 47.71803571 45 50 C40.03266277 51.01749155 35.91352811 51.39942256 31 50 C27.15564895 46.05289902 25.02149259 40.72980892 22.94458008 35.69580078 C21.97676694 33.6544788 21.97676694 33.6544788 19 32 C17.02 31.67 15.04 31.34 13 31 C13 37.27 13 43.54 13 50 C8.71 50 4.42 50 0 50 C0 33.5 0 17 0 0 Z M13 10 C13 13.96 13 17.92 13 22 C15.413125 21.814375 15.413125 21.814375 17.875 21.625 C18.77992187 21.55539063 19.68484375 21.48578125 20.6171875 21.4140625 C23.17941903 21.20431868 23.17941903 21.20431868 25 19 C25.33333333 15.5 25.33333333 15.5 25 12 C23.18806994 9.75675164 23.18806994 9.75675164 20.6171875 9.8046875 C19.71226563 9.82789062 18.80734375 9.85109375 17.875 9.875 C16.26625 9.91625 14.6575 9.9575 13 10 Z " fill="#F16522" transform="translate(54,59)"/>
<path d="M0 0 C3.35720179 0.14158813 5.75411484 0.77382418 8.5703125 2.6328125 C13.77616889 9.03610636 15.7110616 17.63049895 18.0703125 25.3828125 C18.79646368 27.56741711 19.52946763 29.74975662 20.26953125 31.9296875 C24.91022496 45.75576344 24.91022496 45.75576344 26.5703125 52.6328125 C24.30360082 52.84840463 22.03109774 53.00383178 19.7578125 53.1328125 C17.86095703 53.27203125 17.86095703 53.27203125 15.92578125 53.4140625 C14.81847656 53.15625 13.71117187 52.8984375 12.5703125 52.6328125 C11.78564453 50.8515625 11.78564453 50.8515625 11.21484375 48.6640625 C10.66618137 46.46566416 10.66618137 46.46566416 9.5703125 44.6328125 C6.42187087 43.36351454 3.42478916 43.51318777 0.0703125 43.6328125 C-0.79722656 43.601875 -1.66476563 43.5709375 -2.55859375 43.5390625 C-5.11827412 43.57071233 -7.05105691 43.67386477 -9.4296875 44.6328125 C-10.55166078 46.67207291 -11.05875105 48.60478507 -11.64501953 50.8515625 C-11.90395996 51.439375 -12.16290039 52.0271875 -12.4296875 52.6328125 C-15.78515625 53.4140625 -15.78515625 53.4140625 -19.6171875 53.1328125 C-20.88949219 53.060625 -22.16179687 52.9884375 -23.47265625 52.9140625 C-24.93638672 52.77484375 -24.93638672 52.77484375 -26.4296875 52.6328125 C-25.43310014 49.29844899 -24.43229413 45.96537086 -23.4296875 42.6328125 C-23.18756531 41.8254364 -22.94544312 41.0180603 -22.69598389 40.18621826 C-21.13335297 35.02041344 -19.46866919 29.89732359 -17.72851562 24.78857422 C-17.10969537 22.92589907 -16.5190146 21.05365188 -15.95605469 19.17333984 C-10.39414666 0.7138354 -10.39414666 0.7138354 0 0 Z M-0.4296875 15.6328125 C-0.94972817 16.92632049 -1.4072723 18.2449872 -1.83984375 19.5703125 C-2.10732422 20.38242188 -2.37480469 21.19453125 -2.65039062 22.03125 C-2.92818359 22.88976562 -3.20597656 23.74828125 -3.4921875 24.6328125 C-3.77384766 25.49132812 -4.05550781 26.34984375 -4.34570312 27.234375 C-5.0443634 29.36588093 -5.73752903 31.49918639 -6.4296875 33.6328125 C-2.4696875 33.6328125 1.4903125 33.6328125 5.5703125 33.6328125 C4.30879221 27.51929109 2.96490821 21.42089241 0.5703125 15.6328125 C0.2403125 15.6328125 -0.0896875 15.6328125 -0.4296875 15.6328125 Z " fill="#F16522" transform="translate(172.4296875,56.3671875)"/>
<path d="M0 0 C1 1 1 1 1.09765625 3.72265625 C1.08605469 4.82480469 1.07445312 5.92695312 1.0625 7.0625 C1.05347656 8.16722656 1.04445312 9.27195312 1.03515625 10.41015625 C1.02355469 11.26480469 1.01195312 12.11945313 1 13 C0.31035156 12.71125 -0.37929688 12.4225 -1.08984375 12.125 C-7.11551688 9.74448716 -12.49014752 7.89813781 -19 9 C-22.35161246 10.38214122 -22.35161246 10.38214122 -25 12 C-25.66 12 -26.32 12 -27 12 C-30.62587516 19.03552841 -31.20979059 26.80781595 -28.875 34.3125 C-27.06619691 38.43163795 -25.25881054 40.23773357 -21 42 C-12.80801288 43.03614066 -6.15645778 42.14223913 1 38 C1.51277083 42.43768334 1.79246067 46.5856592 1 51 C-1.6424575 53.44459233 -4.5052936 53.63027019 -8 54 C-8.88945313 54.14566406 -9.77890625 54.29132813 -10.6953125 54.44140625 C-21.00327964 55.83635907 -29.66819787 53.83889753 -38.125 47.75 C-44.09424783 42.04028468 -46.08718428 36.2208273 -46.29223633 28.05957031 C-46.3747659 18.90773691 -45.71862539 12.40363534 -39.625 5.1875 C-28.16322847 -4.36397628 -13.7207119 -5.91409996 0 0 Z " fill="#FFFFFF" transform="translate(46,58)"/>
<path d="M0 0 C11.55 0 23.1 0 35 0 C35 3.3 35 6.6 35 10 C27.74 10 20.48 10 13 10 C13 12.64 13 15.28 13 18 C19.93 18 26.86 18 34 18 C34 21.63 34 25.26 34 29 C27.07 29 20.14 29 13 29 C13 32.3 13 35.6 13 39 C20.59 39 28.18 39 36 39 C36 42.63 36 46.26 36 50 C24.12 50 12.24 50 0 50 C0 33.5 0 17 0 0 Z " fill="#F16522" transform="translate(323,59)"/>
<path d="M0 0 C11.55 0 23.1 0 35 0 C35 3.3 35 6.6 35 10 C27.74 10 20.48 10 13 10 C13 12.64 13 15.28 13 18 C19.93 18 26.86 18 34 18 C34 21.63 34 25.26 34 29 C27.07 29 20.14 29 13 29 C13 32.3 13 35.6 13 39 C20.59 39 28.18 39 36 39 C36 42.63 36 46.26 36 50 C24.12 50 12.24 50 0 50 C0 33.5 0 17 0 0 Z " fill="#F16522" transform="translate(106,59)"/>
<path d="M0 0 C4.5131654 -0.71364841 8.5175026 -1.01252994 13 0 C15.54136659 2.94293693 16.37464941 6.21956976 17.39160156 9.93115234 C18.35195469 13.19681542 19.57894709 16.35745431 20.77783203 19.54174805 C21.98800435 22.75742692 23.15580076 25.98784853 24.32324219 29.21923828 C24.99040148 31.06438474 24.99040148 31.06438474 26 33 C26.2902002 32.00033203 26.58040039 31.00066406 26.87939453 29.97070312 C27.97517922 26.25921266 29.15331324 22.57834878 30.35791016 18.90087891 C30.86703354 17.30739726 31.35366147 15.7065431 31.81689453 14.09912109 C33.314319 8.93635913 34.78963552 4.35564654 38 0 C42.90742516 -1.42408381 47.03673457 -1.02066113 52 0 C49.21775582 9.32968569 46.40168465 18.63368167 43.24389648 27.84423828 C42.61985915 29.70735367 42.02235191 31.57955352 41.45092773 33.45947266 C36.878215 48.41597266 36.878215 48.41597266 32.14593506 51.02038574 C27.03728137 52.5281255 22.9018356 51.92947441 18 50 C14.84689681 46.50117955 14.15539497 42.49076957 13 38 C11.9567279 35.06604075 10.8040987 32.17637093 9.66796875 29.27734375 C9.08845641 27.73627808 8.51231484 26.19394088 7.93945312 24.65039062 C6.75841902 21.47083624 5.57019726 18.29413184 4.37695312 15.11914062 C3.80681837 13.5887179 3.23713958 12.05812522 2.66796875 10.52734375 C2.39929489 9.81488998 2.13062103 9.10243622 1.85380554 8.36839294 C0.77161213 5.43488831 0 3.1540213 0 0 Z " fill="#F16522" transform="translate(265,59)"/>
<path d="M0 0 C15.51 0 31.02 0 47 0 C47 3.3 47 6.6 47 10 C41.39 10 35.78 10 30 10 C30 23.2 30 36.4 30 50 C25.71 50 21.42 50 17 50 C17 36.8 17 23.6 17 10 C11.39 10 5.78 10 0 10 C0 6.7 0 3.4 0 0 Z " fill="#F16522" transform="translate(193,59)"/>
<path d="M0 0 C4.62 0 9.24 0 14 0 C14 16.5 14 33 14 50 C9.38 50 4.76 50 0 50 C0 33.5 0 17 0 0 Z " fill="#F16622" transform="translate(245,59)"/>
<path d="M0 0 C2.75355275 0.59579796 4.89379083 1.72355156 6.9296875 3.67578125 C9.18749176 7.37037005 8.88037197 11.32094693 8.00390625 15.43359375 C6.06640625 18.55859375 6.06640625 18.55859375 3.00390625 20.43359375 C-0.12756848 21.06215378 -2.88935971 21.20495751 -5.99609375 20.43359375 C-6.73174561 19.77447998 -7.46739746 19.11536621 -8.2253418 18.4362793 C-11.60050475 15.99672852 -13.48216492 15.89960158 -17.609375 15.82421875 C-18.85654297 15.79199219 -20.10371094 15.75976562 -21.38867188 15.7265625 C-22.68224609 15.71238281 -23.97582031 15.69820312 -25.30859375 15.68359375 C-26.62150391 15.65394531 -27.93441406 15.62429687 -29.28710938 15.59375 C-32.5234991 15.52313786 -35.75917186 15.47039498 -38.99609375 15.43359375 C-38.99609375 12.13359375 -38.99609375 8.83359375 -38.99609375 5.43359375 C-37.76306519 5.4195752 -37.76306519 5.4195752 -36.50512695 5.40527344 C-32.77234413 5.35151504 -29.04080694 5.26787544 -25.30859375 5.18359375 C-23.36823242 5.16232422 -23.36823242 5.16232422 -21.38867188 5.140625 C-19.51791992 5.09228516 -19.51791992 5.09228516 -17.609375 5.04296875 C-16.46251221 5.02202148 -15.31564941 5.00107422 -14.1340332 4.97949219 C-8.39081647 3.98036104 -6.35778273 -0.39811543 0 0 Z " fill="#F16522" transform="translate(602.99609375,90.56640625)"/>
<path d="M0 0 C3.44996778 0.79999253 5.06552996 2.75592995 7.15625 5.5 C8.91501803 9.01753607 8.09637292 12.77923181 7.15625 16.5 C5.15625 19 5.15625 19 2.15625 20.5 C0.77791868 20.54378939 -0.60144976 20.55931043 -1.98046875 20.5546875 C-8.40471698 21.18163377 -11.5651608 25.52298412 -15.65625 30.125 C-17.10941153 31.73199577 -18.57376113 33.32896774 -20.05078125 34.9140625 C-20.6847583 35.6251416 -21.31873535 36.3362207 -21.97192383 37.06884766 C-23.84375 38.5 -23.84375 38.5 -25.93237305 38.33740234 C-28.60780744 37.1652552 -30.10477053 35.8409339 -31.84375 33.5 C-30.60889178 29.34474715 -27.18817084 26.87346797 -24.03125 24.125 C-16.21974976 17.73659851 -16.21974976 17.73659851 -12.34375 8.9375 C-11.84375 5.5 -11.84375 5.5 -9.84375 2.5625 C-6.30256346 0.12793425 -4.21844649 -0.22498381 0 0 Z " fill="#F16522" transform="translate(579.84375,33.5)"/>
<path d="M0 0 C3.66765147 3.06885123 7.21041809 6.15055948 10.5625 9.5625 C11.14515625 10.14515625 11.7278125 10.7278125 12.328125 11.328125 C13.82291667 12.82291667 15.31770833 14.31770833 16.8125 15.8125 C20.50257106 18.34490171 23.352756 18.89389553 27.73046875 19.4453125 C30.42153779 20.10302645 31.36995339 20.77766938 33 23 C33.95204777 25.99296454 34.19200376 28.86927204 34 32 C31.20481928 37.39759036 31.20481928 37.39759036 28 39 C23.026234 39.4973766 20.93691502 39.54511419 16.5625 37 C14 34 14 34 13.9375 30.4375 C13.31069329 23.97258451 7.92511718 20.19445626 3.4375 16 C2.53580078 15.12988281 1.63410156 14.25976562 0.70507812 13.36328125 C-1.51494753 11.22547877 -3.74961405 9.10574326 -6 7 C-4.02 4.69 -2.04 2.38 0 0 Z " fill="#F16522" transform="translate(554,129)"/>
<path d="M0 0 C2.92152702 1.8344472 5.4326609 3.86532181 7 7 C7.375 10.25 7.375 10.25 7 14 C6.18402344 14.78117187 5.36804688 15.56234375 4.52734375 16.3671875 C0.28079706 21.18416583 1.21593495 27.808878 1.1875 33.875 C1.16236328 35.13570312 1.13722656 36.39640625 1.11132812 37.6953125 C1.05258047 40.79718887 1.01620769 43.89765777 1 47 C-1.97 46.67 -4.94 46.34 -8 46 C-8.01401855 44.85785034 -8.01401855 44.85785034 -8.02832031 43.69262695 C-8.08210937 40.2319338 -8.16574184 36.77257982 -8.25 33.3125 C-8.26417969 32.11431641 -8.27835938 30.91613281 -8.29296875 29.68164062 C-8.32519531 28.52470703 -8.35742188 27.36777344 -8.390625 26.17578125 C-8.41157227 25.11270752 -8.43251953 24.04963379 -8.45410156 22.9543457 C-9.12077753 19.34636452 -10.62700768 17.73972229 -13 15 C-14.03486732 11.13649534 -14.3989764 8.97527565 -12.875 5.25 C-9.23620846 0.88345015 -5.70532297 -0.9314813 0 0 Z " fill="#F16522" transform="translate(524,10)"/>
<path d="M0 0 C1.98 0 3.96 0 6 0 C6.01417969 1.25296875 6.02835938 2.5059375 6.04296875 3.796875 C6.08987438 5.44795328 6.13812175 7.09899382 6.1875 8.75 C6.19330078 9.575 6.19910156 10.4 6.20507812 11.25 C6.29038384 13.60064647 6.42693928 15.71722919 7 18 C9.38667152 20.33290272 9.38667152 20.33290272 12 22 C13.17981561 24.99031606 13.29809747 27.80925301 13 31 C10.20481928 36.39759036 10.20481928 36.39759036 7 38 C2.25383306 38.65271451 -0.98277746 38.69934049 -5 35.9375 C-7.40813237 32.40055558 -8 30.27436594 -8 26 C-6.875 22.6875 -6.875 22.6875 -5 20 C-3.71416016 19.70416016 -3.71416016 19.70416016 -2.40234375 19.40234375 C-1.60957031 18.93957031 -0.81679688 18.47679687 0 18 C0.66939753 14.95746725 0.46660726 11.97137046 0.3125 8.875 C0.28994141 8.02550781 0.26738281 7.17601562 0.24414062 6.30078125 C0.18512355 4.19977351 0.09543948 2.09966851 0 0 Z " fill="#F16522" transform="translate(518,155)"/>
<path d="M0 0 C3.5625 0.0625 3.5625 0.0625 7 1 C8.125 2.875 8.125 2.875 8 5 C6.9375 6.8125 6.9375 6.8125 5 8 C1.875 7.9375 1.875 7.9375 -1 7 C-2 5.125 -2 5.125 -2 3 C-1.34 2.01 -0.68 1.02 0 0 Z " fill="#F26522" transform="translate(615,96)"/>
<path d="M0 0 C2.375 0.875 2.375 0.875 3.375 2.75 C3.375 4.875 3.375 4.875 2.25 6.625 C-0.18588579 8.24892386 -1.75294676 8.17732139 -4.625 7.875 C-5.625 6.875 -5.625 6.875 -5.875 4.4375 C-5.7925 3.591875 -5.71 2.74625 -5.625 1.875 C-2.625 -0.125 -2.625 -0.125 0 0 Z " fill="#F26522" transform="translate(604.625,63.125)"/>
<path d="M0 0 C0.598125 0.37125 1.19625 0.7425 1.8125 1.125 C2.40890872 3.87674715 2.40890872 6.37325285 1.8125 9.125 C0 10.25 0 10.25 -2.1875 10.125 C-3.1775 9.465 -4.1675 8.805 -5.1875 8.125 C-5.5625 5.125 -5.5625 5.125 -5.1875 2.125 C-2.1875 0.125 -2.1875 0.125 0 0 Z " fill="#F26522" transform="translate(522.1875,193.875)"/>
<path d="M0 0 C5.71428571 0.71428571 5.71428571 0.71428571 7 2 C7.125 4.5 7.125 4.5 7 7 C6 8 6 8 3.625 8.25 C1 8 1 8 -0.875 6.75 C-2 5 -2 5 -1.75 2.875 C-1 1 -1 1 0 0 Z " fill="#F26522" transform="translate(610,136)"/>
<path d="M0 0 C2.625 0.25 2.625 0.25 4.5 1.5 C5.625 3.25 5.625 3.25 5.625 5.375 C4.625 7.25 4.625 7.25 2.25 8.125 C-0.375 8.25 -0.375 8.25 -3.375 6.25 C-3.625 3.6875 -3.625 3.6875 -3.375 1.25 C-2.375 0.25 -2.375 0.25 0 0 Z " fill="#F26522" transform="translate(601.375,130.75)"/>
<path d="M0 0 C1.175625 0.4640625 1.175625 0.4640625 2.375 0.9375 C3.375 3.9375 3.375 3.9375 2.25 6.6875 C1.321875 7.80125 1.321875 7.80125 0.375 8.9375 C-2.25 9 -2.25 9 -4.625 7.9375 C-5.625 6.125 -5.625 6.125 -5.625 3.9375 C-4.10727957 0.81774133 -3.55387427 -0.08461605 0 0 Z " fill="#F26522" transform="translate(561.625,4.0625)"/>
<path d="M0 0 C4.43243243 0.43243243 4.43243243 0.43243243 6 2 C6.04080783 3.99958364 6.04254356 6.00045254 6 8 C1.25 9.125 1.25 9.125 -1 8 C-1.75 5.625 -1.75 5.625 -2 3 C-1.34 2.01 -0.68 1.02 0 0 Z " fill="#F16522" transform="translate(549,175)"/>
<path d="M0 0 C2.6875 1.0625 2.6875 1.0625 5 3 C5.375 5.625 5.375 5.625 5 8 C4 9 4 9 1.5625 9.1875 C-1 9 -1 9 -3 7 C-3.3125 4.5 -3.3125 4.5 -3 2 C-2.01 1.34 -1.02 0.68 0 0 Z " fill="#F26522" transform="translate(588,166)"/>
<path d="M0 0 C2.625 0.375 2.625 0.375 5 1 C4.8125 4.4375 4.8125 4.4375 4 8 C1.5625 9.0625 1.5625 9.0625 -1 9 C-1.66 8.34 -2.32 7.68 -3 7 C-2.67028521 3.70285207 -2.3773161 2.3773161 0 0 Z " fill="#F16522" transform="translate(554,14)"/>
<path d="M0 0 C2.5625 0 2.5625 0 5 1 C5.9375 3.9375 5.9375 3.9375 6 7 C5.34 7.66 4.68 8.32 4 9 C1.4375 9 1.4375 9 -1 8 C-1.9375 5.0625 -1.9375 5.0625 -2 2 C-1.34 1.34 -0.68 0.68 0 0 Z " fill="#F16522" transform="translate(546,164)"/>
<path d="M0 0 C1.1446875 0.3403125 1.1446875 0.3403125 2.3125 0.6875 C2.5625 3 2.5625 3 2.3125 5.6875 C0.5625 7.5625 0.5625 7.5625 -1.6875 8.6875 C-3.9375 8.6875 -3.9375 8.6875 -5.6875 7.6875 C-6.21934797 4.80032528 -6.07766693 3.30355304 -4.5 0.8125 C-2.6875 -0.3125 -2.6875 -0.3125 0 0 Z " fill="#F16522" transform="translate(591.6875,28.3125)"/>
<path d="M0 0 C1.8125 1.375 1.8125 1.375 2.1875 3.9375 C2.06375 4.741875 1.94 5.54625 1.8125 6.375 C-0.9934917 7.77799585 -3.09584321 7.70389966 -6.1875 7.375 C-7.1875 5.5625 -7.1875 5.5625 -7.1875 3.375 C-5.00843924 0.10640886 -3.93565281 -1.12447223 0 0 Z " fill="#F16522" transform="translate(616.1875,58.625)"/>
<path d="M0 0 C2.5 0.125 2.5 0.125 3.5 1.125 C3.6875 4.0625 3.6875 4.0625 3.5 7.125 C2.84 7.785 2.18 8.445 1.5 9.125 C-2.03571429 8.58928571 -2.03571429 8.58928571 -3.5 7.125 C-3.625 4.125 -3.625 4.125 -3.5 1.125 C-2.5 0.125 -2.5 0.125 0 0 Z " fill="#F16522" transform="translate(520.5,-0.125)"/>
</svg>
