<svg xmlns="http://www.w3.org/2000/svg" xmlns:xlink="http://www.w3.org/1999/xlink" width="111.753" height="111.753" viewBox="0 0 111.753 111.753">
  <defs>
    <filter id="Path_2366" x="0" y="0" width="111.753" height="111.753" filterUnits="userSpaceOnUse">
      <feOffset dy="3" input="SourceAlpha"/>
      <feGaussianBlur stdDeviation="3" result="blur"/>
      <feFlood flood-opacity="0.522"/>
      <feComposite operator="in" in2="blur"/>
      <feComposite in="SourceGraphic"/>
    </filter>
  </defs>
  <g id="Group_149" data-name="Group 149" transform="translate(-1707.124 -798.124)">
    <g transform="matrix(1, 0, 0, 1, 1707.12, 798.12)" filter="url(#Path_2366)">
      <path id="Path_2366-2" data-name="Path 2366" d="M46.876,0A46.876,46.876,0,1,1,0,46.876,46.876,46.876,0,0,1,46.876,0Z" transform="translate(9 6)" fill="#fff"/>
    </g>
    <g id="Group_148" data-name="Group 148" transform="translate(223.865 54.525)">
      <path id="Path_146" data-name="Path 146" d="M1919.275,1223.353a9.846,9.846,0,0,0-.434-1.262c-.124-.293-.258-.576-.405-.851a10.055,10.055,0,0,0-5.054-4.629,9.783,9.783,0,0,0-2.316-.667,10.448,10.448,0,0,0-1.624-.126,6.917,6.917,0,0,0-.847.051,5.092,5.092,0,0,0-.515.081c-1.929.256-4.242,1.03-5.062,2.074-.011.009-2.99,1.541-3.8,8.018q0,.388.028.769h0a9.835,9.835,0,0,0,.766,3.163,10.122,10.122,0,0,0,1.262,2.178q.285.375.607.723a.108.108,0,0,1,.014.019c.053.057.108.116.165.173l.116.12.053.051.047.045,0,0c.114.114.23.222.35.33.043.039.088.075.132.114.077.067.156.136.236.2s.144.116.219.173c.053.041.106.083.161.124.1.073.2.145.3.214l.09.061c.122.083.248.163.377.24a.164.164,0,0,1,.026.017c.141.083.279.163.423.24a0,0,0,0,0,0,0c.139.075.277.145.417.214.016.006.029.015.045.02.112.055.226.106.342.155l.1.047c.059.024.118.049.181.073.125.051.251.1.375.142.063.025.124.047.189.067s.118.039.177.057c.108.034.218.065.326.1h0c.142.039.282.073.425.106.081.02.163.037.246.053s.165.032.246.046.167.029.25.041a10.335,10.335,0,0,0,1.513.112c.091,0,.178,0,.27,0,.169-.006.34-.014.509-.029a9.742,9.742,0,0,0,2.956-.676,9.891,9.891,0,0,0,1.124-.525c.067-.035.132-.071.2-.108.114-.065.224-.132.334-.2a10.045,10.045,0,0,0,1.836-1.451,9.944,9.944,0,0,0,.789-.89,10.192,10.192,0,0,0,1.4-2.374,10.059,10.059,0,0,0,.784-3.933A10.218,10.218,0,0,0,1919.275,1223.353Zm-3.342,3.078c0,.039,0,.075-.006.114,0,.057-.011.116-.015.173-.01.085-.02.171-.032.256a6.546,6.546,0,0,1-.511,1.75c-.006.014-.012.024-.016.037-.063.139-.132.275-.2.407a.127.127,0,0,0-.018.033c-.071.126-.146.25-.224.37l-.051.079c-.047.069-.1.141-.146.208s-.1.134-.147.2c-.035.045-.073.094-.112.139-.057.067-.112.134-.171.2-.071.079-.142.155-.218.23a6.532,6.532,0,0,1-10.644-2.082c-.051-.122-.1-.246-.144-.373-.025-.063-.045-.126-.063-.189s-.041-.126-.057-.191c-.016-.049-.028-.1-.041-.151s-.026-.1-.039-.155c-.043-.2-.081-.4-.106-.611q-.01-.067-.017-.133c-.007-.065-.012-.13-.017-.195,0-.039-.006-.075-.008-.114-.008-.128-.01-.256-.01-.389s0-.236.01-.354c0-.075.008-.15.014-.226,0-.024,0-.053.008-.078s0-.055.008-.082.005-.046.008-.069c.006-.057.014-.114.022-.167s.02-.12.031-.179c.022-.118.046-.238.073-.353,0-.008,0-.016.006-.026a6.1,6.1,0,0,1,.385-1.124c.008-.018.016-.037.026-.057a.634.634,0,0,1,.051-.11c.006-.016.014-.03.022-.049.025-.053.053-.106.082-.159.014-.025.024-.047.039-.073.028-.049.055-.1.083-.148s.047-.083.073-.125.057-.094.089-.138c.037-.063.077-.124.12-.183a1.287,1.287,0,0,1,.1-.138c.075-.106.153-.206.236-.306.128-.156.267-.309.411-.454.039-.039.079-.079.12-.118.073-.071.153-.142.232-.209.039-.035.082-.07.12-.1.059-.051.122-.1.183-.149a6.711,6.711,0,0,1,6.5-.818c.2.079.384.169.568.262.042.027.089.053.136.078a6.52,6.52,0,0,1,3.227,4.881c.008.069.012.134.02.2s.012.14.014.211c.008.118.01.234.01.354S1915.943,1226.3,1915.932,1226.43Z" transform="translate(-376.339 -429.733)" fill="#091926"/>
      <path id="Path_130" data-name="Path 130" d="M2821.188,924.545a.84.84,0,0,0,.58-.23l.374-.348a.853.853,0,1,0-1.16-1.25l-.375.348a.855.855,0,0,0,.58,1.48Z" transform="translate(-1267.635 -145.267)" fill="#f16623"/>
      <path id="Path_133" data-name="Path 133" d="M3063.482,1516.506l-.511-.01a.066.066,0,0,0-.018,0,.853.853,0,0,0-.018,1.706l.513.012h.018a.853.853,0,0,0,.016-1.706Z" transform="translate(-1501.347 -721.325)" fill="#f16623"/>
      <path id="Path_138" data-name="Path 138" d="M2812.813,2128.471a.854.854,0,0,0-1.252,1.16l.346.377a.853.853,0,0,0,1.252-1.158Z" transform="translate(-1258.933 -1314.547)" fill="#f16623"/>
      <path id="Path_139" data-name="Path 139" d="M2222.241,676.654a.853.853,0,0,0,.845-.861l-.006-.513a.848.848,0,0,0-.849-.843h-.012a.853.853,0,0,0-.844.861l0,.513A.849.849,0,0,0,2222.241,676.654Z" transform="translate(-688.765 95.289)" fill="#f16623"/>
      <path id="Path_140" data-name="Path 140" d="M2223.829,2371.651h-.012a.852.852,0,0,0-.845.861l0,.513a.854.854,0,0,0,1.708-.018l-.006-.513A.849.849,0,0,0,2223.829,2371.651Z" transform="translate(-690.315 -1550.644)" fill="#f16623"/>
      <path id="Path_141" data-name="Path 141" d="M2501.811,1809.587a2.547,2.547,0,0,0-.511-.4,2.621,2.621,0,0,0-2.276-.192l-5.193-5-.282.308c-.115.126-.231.248-.347.363-.188.188-.391.376-.6.559l-.338.292,5.239,5.041a2.632,2.632,0,0,0,.278,2.313,2.727,2.727,0,0,0,.336.413,2.616,2.616,0,0,0,3.52.163c.059-.049.118-.1.179-.163a2.619,2.619,0,0,0,0-3.7Z" transform="translate(-950.039 -1000.145)" fill="#f16623"/>
      <path id="Path_142" data-name="Path 142" d="M2163.849,769.576a2.563,2.563,0,0,0,.625,1.016,2.074,2.074,0,0,0,.181.163,2.6,2.6,0,0,0,.608.382v6.958l.422-.016c.091,0,.177-.005.26-.005.352,0,.709.016,1.059.046l.443.039v-7.054c.073-.034.145-.071.214-.113a2.584,2.584,0,0,0,1.079-1.264,2.663,2.663,0,0,0,.145-1.486,2.593,2.593,0,0,0-.556-1.179,2.308,2.308,0,0,0-.157-.171,2.618,2.618,0,0,0-3.7,0,2.6,2.6,0,0,0-.677,1.189,2.611,2.611,0,0,0,.051,1.494Z" transform="translate(-632.844 6.368)" fill="#f16623"/>
      <path id="Path_143" data-name="Path 143" d="M2168.552,2031.84a2.688,2.688,0,0,0-.23-.323,1.8,1.8,0,0,0-.156-.171,2.608,2.608,0,0,0-1.109-.66h0l-.079-4.835h-1.37l.079,4.8h0a2.593,2.593,0,0,0-1.217.69,2.484,2.484,0,0,0-.336.413c-.047.073-.092.147-.13.222a2.584,2.584,0,0,0-.283,1.474,2.611,2.611,0,0,0,.75,1.592,2.355,2.355,0,0,0,.181.163,2.568,2.568,0,0,0,1.667.6,2.612,2.612,0,0,0,1.339-.367,2.539,2.539,0,0,0,.511-.4,2.644,2.644,0,0,0,.387-3.206Z" transform="translate(-632.837 -1215.292)" fill="#f16623"/>
      <path id="Path_144" data-name="Path 144" d="M2492.424,980.667c.241.244.475.5.7.771l.277.335,5.254-4.984a2.6,2.6,0,0,0,.968.183,2.63,2.63,0,0,0,1.339-.364,2.529,2.529,0,0,0,.511-.4,2.636,2.636,0,0,0,.157-3.528c-.043-.053-.1-.11-.157-.173a2.617,2.617,0,0,0-3.7,0,2.517,2.517,0,0,0-.336.415,2.616,2.616,0,0,0-.288,2.283l-5.24,4.971.313.3C2492.292,980.538,2492.36,980.6,2492.424,980.667Z" transform="translate(-949.698 -193.032)" fill="#f16623"/>
      <path id="Path_145" data-name="Path 145" d="M2639.306,1468.994c-.043-.053-.1-.11-.157-.173a2.617,2.617,0,0,0-3.7,0,2.706,2.706,0,0,0-.338.413,2.6,2.6,0,0,0-.19.345h-7.441l.023.429c.012.221.018.44.018.65s-.007.441-.021.674l-.025.431h7.447a2.594,2.594,0,0,0,.527.758,2.324,2.324,0,0,0,.179.163,2.562,2.562,0,0,0,1.669.6,2.614,2.614,0,0,0,1.339-.366,2.541,2.541,0,0,0,.511-.4A2.635,2.635,0,0,0,2639.306,1468.994Z" transform="translate(-1079.857 -674.35)" fill="#f16623"/>
    </g>
  </g>
</svg>
