<?xml version="1.0" encoding="UTF-8"?>
<svg version="1.1" xmlns="http://www.w3.org/2000/svg" width="384" height="449">
<path d="M0 0 C1.55074219 0.95471191 1.55074219 0.95471191 3.1328125 1.92871094 C7.40699574 4.56030328 11.68104626 7.19210804 15.95385742 9.82592773 C24.53646082 15.11206142 33.14830916 20.34851666 41.76913452 25.57192993 C51.27566238 31.33305936 60.74982644 37.14496594 70.2109375 42.98046875 C78.12022624 47.85435249 86.05437 52.68572832 94 57.5 C104.09679224 63.6176648 114.1628798 69.78294411 124.2109375 75.98046875 C132.12022624 80.85435249 140.05437 85.68572832 148 90.5 C158.09679224 96.6176648 168.1628798 102.78294411 178.2109375 108.98046875 C186.1202289 113.85435413 194.05450053 118.68550965 202 123.5 C213.30736848 130.35271341 224.58601642 137.24997174 235.83203125 144.203125 C239.87516463 146.70078414 243.93452119 149.16774675 248.01171875 151.609375 C248.96054932 152.18268555 249.90937988 152.75599609 250.88696289 153.34667969 C252.63709812 154.40347111 254.39235124 155.4518624 256.15405273 156.48925781 C267.97616806 163.66796475 277.04153449 174.57990937 280.55859375 188.15625 C282.11537006 198.18574693 282.20954504 209.65608564 278 219 C277.5978125 219.89976562 277.195625 220.79953125 276.78125 221.7265625 C269.81799951 235.76911765 258.14975471 242.38541936 245.12792969 250.13427734 C240.09570616 253.13585806 235.09413014 256.18787759 230.08828735 259.2331543 C228.29959038 260.32034663 226.50973431 261.40560463 224.71948242 262.49023438 C216.79237071 267.29363779 208.88879529 272.13382849 201 277 C191.43496004 282.89966601 181.84091987 288.74917238 172.22949219 294.57275391 C163.79891874 299.68183969 155.39032117 304.82494789 147 310 C137.43493259 315.89962187 127.8409202 321.74917218 118.22949219 327.57275391 C109.79891795 332.68184017 101.39038816 337.82505556 93 343 C84.06134554 348.51183089 75.10365927 353.99116478 66.125 359.4375 C65.54628143 359.78856812 64.96756287 360.13963623 64.37130737 360.50134277 C59.0414927 363.73407327 53.71004477 366.96410702 48.37841797 370.19384766 C44.77255984 372.37832162 41.16724069 374.56368257 37.5625 376.75 C36.67960297 377.28546951 36.67960297 377.28546951 35.77886963 377.83175659 C28.32974835 382.35132842 20.90096141 386.90194052 13.5 391.5 C5.76294938 396.3041811 -1.99519657 401.07282119 -9.77368164 405.80957031 C-10.98532567 406.54777359 -12.19644727 407.28683521 -13.40698242 408.02685547 C-31.62916617 419.16220818 -46.70278462 427.5355973 -68.578125 423.30859375 C-81.75843925 419.27001028 -91.59353495 410.5309769 -98.67578125 398.8828125 C-102.95225376 389.5729697 -103.4328213 380.8986351 -103.38768005 370.74891663 C-103.39185835 369.213696 -103.39733858 367.67847847 -103.40399987 366.14326662 C-103.41840809 361.94564927 -103.41422429 357.74822905 -103.40683305 353.55060112 C-103.40209224 349.01539989 -103.41461926 344.48024074 -103.42485046 339.9450531 C-103.44202556 331.06864077 -103.44288119 322.19229927 -103.43763756 313.31587464 C-103.43359244 306.09985739 -103.43504348 298.88386103 -103.44038582 291.66784477 C-103.44113424 290.63994124 -103.44188266 289.61203771 -103.44265376 288.55298559 C-103.44418527 286.46465997 -103.44572362 284.37633435 -103.44726873 282.28800874 C-103.46098896 262.71497494 -103.4555593 243.14198114 -103.44408352 223.56894826 C-103.43415034 205.6711637 -103.44709414 187.77348251 -103.47101771 169.87571389 C-103.49541235 151.48664164 -103.50501576 133.09761752 -103.49836498 114.70852941 C-103.49487375 104.38907613 -103.49709863 94.06970234 -103.51461601 83.75026131 C-103.52934246 74.96620177 -103.52996753 66.18227774 -103.5125451 57.39822084 C-103.50403666 52.91883932 -103.50188177 48.43969982 -103.51719666 43.96033096 C-103.53105822 39.85514123 -103.52626194 35.75040052 -103.50695742 31.64523666 C-103.50320161 30.16486643 -103.50610728 28.6844601 -103.51656907 27.20412207 C-103.61186259 12.68069761 -99.8261623 0.06112943 -89.75 -10.75 C-60.14837847 -38.51789276 -28.11963767 -17.32246244 0 0 Z " fill="#D6283D" transform="translate(103,24)"/>
</svg>
