<?xml version="1.0" encoding="UTF-8"?>
<svg version="1.1" xmlns="http://www.w3.org/2000/svg" width="160" height="160">
<path d="M0 0 C52.8 0 105.6 0 160 0 C160 52.8 160 105.6 160 160 C107.2 160 54.4 160 0 160 C0 107.2 0 54.4 0 0 Z " fill="#B91D8A" transform="translate(0,0)"/>
<path d="M0 0 C0.90733887 0.43771729 1.81467773 0.87543457 2.74951172 1.32641602 C3.70067871 1.77251221 4.6518457 2.2186084 5.63183594 2.67822266 C31.13159806 14.76362859 31.13159806 14.76362859 37.43701172 19.95141602 C37.37451172 21.70141602 37.37451172 21.70141602 36.43701172 23.95141602 C34.1953685 25.54643138 31.90134529 26.6968462 29.43701172 27.95141602 C30.42701172 28.61141602 31.41701172 29.27141602 32.43701172 29.95141602 C34.11124855 31.27523118 35.77912387 32.60718262 37.43701172 33.95141602 C37.37451172 35.70141602 37.37451172 35.70141602 36.43701172 37.95141602 C34.1953685 39.54643138 31.90134529 40.6968462 29.43701172 41.95141602 C30.20013672 42.40516602 30.96326172 42.85891602 31.74951172 43.32641602 C33.67333986 44.48966094 35.56642396 45.70435751 37.43701172 46.95141602 C37.37451172 49.20141602 37.37451172 49.20141602 36.43701172 51.95141602 C34.20616422 53.62991426 31.96295266 54.71140865 29.43701172 55.95141602 C30.57138672 56.52891602 31.70576172 57.10641602 32.87451172 57.70141602 C36.28416928 59.65472186 36.28416928 59.65472186 37.49951172 62.01391602 C37.43701172 63.95141602 37.43701172 63.95141602 35.43701172 66.95141602 C33.22349485 68.19446 31.04073599 69.30840986 28.74951172 70.38891602 C27.31359211 71.08602992 25.87876416 71.78539528 24.44482422 72.48657227 C23.65495117 72.87216309 22.86507812 73.25775391 22.05126953 73.6550293 C17.0388817 76.14062693 12.08392687 78.73718656 7.12451172 81.32641602 C5.61207886 82.11230103 5.61207886 82.11230103 4.0690918 82.9140625 C3.12187256 83.40849854 2.17465332 83.90293457 1.19873047 84.41235352 C-0.07031128 85.07436768 -0.07031128 85.07436768 -1.36499023 85.74975586 C-3.74287472 87.00808878 -3.74287472 87.00808878 -6.56298828 88.95141602 C-15.26587857 90.40189773 -21.26102982 86.25729528 -28.53076172 82.0847168 C-31.87246768 80.22116573 -35.31285374 78.56650476 -38.75048828 76.88891602 C-43.70800434 74.42221127 -48.64300711 71.92286898 -53.50048828 69.26391602 C-54.45826172 68.74442383 -55.41603516 68.22493164 -56.40283203 67.68969727 C-58.56298828 65.95141602 -58.56298828 65.95141602 -59.37939453 63.24438477 C-59.43998047 62.48770508 -59.50056641 61.73102539 -59.56298828 60.95141602 C-55.60298828 58.47641602 -55.60298828 58.47641602 -51.56298828 55.95141602 C-52.69736328 55.39454102 -53.83173828 54.83766602 -55.00048828 54.26391602 C-58.43282572 52.33322621 -58.43282572 52.33322621 -59.50048828 49.20141602 C-59.52111328 48.45891602 -59.54173828 47.71641602 -59.56298828 46.95141602 C-57.25298828 45.63141602 -54.94298828 44.31141602 -52.56298828 42.95141602 C-55.88385599 40.18140777 -55.88385599 40.18140777 -59.56298828 37.95141602 C-59.56298828 36.30141602 -59.56298828 34.65141602 -59.56298828 32.95141602 C-57.25298828 31.63141602 -54.94298828 30.31141602 -52.56298828 28.95141602 C-54.86020929 27.20869663 -57.16165557 25.55230449 -59.56298828 23.95141602 C-59.75048828 21.32641602 -59.75048828 21.32641602 -59.56298828 18.95141602 C-48.92941562 13.22272133 -38.20566542 7.67461208 -27.37548828 2.32641602 C-26.32562744 1.79371094 -25.2757666 1.26100586 -24.1940918 0.7121582 C-14.94789577 -3.79803686 -9.48840041 -4.36297768 0 0 Z " fill="#F0D0E8" transform="translate(91.56298828125,37.048583984375)"/>
<path d="M0 0 C0.90733887 0.43771729 1.81467773 0.87543457 2.74951172 1.32641602 C3.70067871 1.77251221 4.6518457 2.2186084 5.63183594 2.67822266 C31.13159806 14.76362859 31.13159806 14.76362859 37.43701172 19.95141602 C37.27294922 21.74829102 37.27294922 21.74829102 36.43701172 23.95141602 C34.03857422 25.65454102 34.03857422 25.65454102 31.06201172 27.20141602 C29.59634766 27.98258789 29.59634766 27.98258789 28.10107422 28.77954102 C25.43701172 29.95141602 25.43701172 29.95141602 22.43701172 29.95141602 C22.43701172 30.61141602 22.43701172 31.27141602 22.43701172 31.95141602 C21.26783203 32.49411133 20.09865234 33.03680664 18.89404297 33.59594727 C17.34579935 34.31846095 15.79762596 35.04112515 14.24951172 35.76391602 C13.48058594 36.1203418 12.71166016 36.47676758 11.91943359 36.84399414 C6.73220043 39.2706397 1.94413477 41.93700627 -2.81298828 45.13891602 C-7.03213025 47.49905341 -10.82105728 47.63387405 -15.56298828 46.95141602 C-18.91039901 45.71971644 -21.91693784 44.04539744 -25.00048828 42.26391602 C-26.6811448 41.33492779 -28.36213058 40.40653496 -30.04345703 39.47875977 C-30.83284668 39.03516113 -31.62223633 38.5915625 -32.43554688 38.13452148 C-34.85892642 36.78683991 -37.31891477 35.53782315 -39.81298828 34.32641602 C-46.48402702 31.03837735 -53.0123562 27.47128899 -59.56298828 23.95141602 C-59.56298828 22.30141602 -59.56298828 20.65141602 -59.56298828 18.95141602 C-48.92941562 13.22272133 -38.20566542 7.67461208 -27.37548828 2.32641602 C-26.32562744 1.79371094 -25.2757666 1.26100586 -24.1940918 0.7121582 C-14.94789577 -3.79803686 -9.48840041 -4.36297768 0 0 Z " fill="#FEFBFD" transform="translate(91.56298828125,37.048583984375)"/>
<path d="M0 0 C1.6506783 1.01298036 3.2958478 2.03495628 4.9375 3.0625 C6.19055823 3.70594386 7.45031989 4.3364232 8.71484375 4.95703125 C11.58059866 6.36489421 14.37841745 7.84760941 17.15625 9.421875 C17.86136719 9.81503906 18.56648438 10.20820312 19.29296875 10.61328125 C20.72936166 11.41651007 22.1590832 12.23178059 23.58203125 13.05859375 C28.67368886 15.86040168 32.12087911 16.72455441 37.9375 16.0625 C41.08668636 14.96635841 41.08668636 14.96635841 43.9375 13.3125 C45.46503906 12.49652344 45.46503906 12.49652344 47.0234375 11.6640625 C47.98507813 11.13554688 48.94671875 10.60703125 49.9375 10.0625 C57.62234848 6.0625 57.62234848 6.0625 59.9375 6.0625 C59.9375 5.4025 59.9375 4.7425 59.9375 4.0625 C61.70747474 3.24813132 63.47851152 2.4360706 65.25 1.625 C66.72919922 0.94630859 66.72919922 0.94630859 68.23828125 0.25390625 C73.5101254 -2.0730293 73.5101254 -2.0730293 75.9453125 -1.30078125 C76.64398438 -0.95402344 77.34265625 -0.60726562 78.0625 -0.25 C78.76632813 0.08386719 79.47015625 0.41773437 80.1953125 0.76171875 C81.9375 2.0625 81.9375 2.0625 82.8046875 4.01953125 C82.9375 6.0625 82.9375 6.0625 80.9375 9.0625 C78.72398313 10.30554398 76.54122427 11.41949384 74.25 12.5 C72.81408039 13.1971139 71.37925244 13.89647926 69.9453125 14.59765625 C69.15543945 14.98324707 68.36556641 15.36883789 67.55175781 15.76611328 C62.53936998 18.25171091 57.58441515 20.84827055 52.625 23.4375 C51.11256714 24.22338501 51.11256714 24.22338501 49.56958008 25.02514648 C48.62236084 25.51958252 47.6751416 26.01401855 46.69921875 26.5234375 C45.85319092 26.96478027 45.00716309 27.40612305 44.13549805 27.86083984 C41.75761356 29.11917276 41.75761356 29.11917276 38.9375 31.0625 C30.23460971 32.51298171 24.23945846 28.36837926 16.96972656 24.19580078 C13.6280206 22.33224972 10.18763454 20.67758874 6.75 19 C1.79248394 16.53329526 -3.14251883 14.03395297 -8 11.375 C-8.95777344 10.85550781 -9.91554688 10.33601563 -10.90234375 9.80078125 C-13.0625 8.0625 -13.0625 8.0625 -13.87890625 5.35546875 C-13.93949219 4.59878906 -14.00007813 3.84210938 -14.0625 3.0625 C-9.2024436 -0.75276167 -5.84112084 -3.00659243 0 0 Z " fill="#CD71C0" transform="translate(46.0625,94.9375)"/>
<path d="M0 0 C3.47369651 1.32358948 6.69797419 2.84493196 9.94921875 4.64453125 C10.88056641 5.15693359 11.81191406 5.66933594 12.77148438 6.19726562 C13.73376953 6.73029297 14.69605469 7.26332031 15.6875 7.8125 C18.52786286 9.38314495 21.37047657 10.94822956 24.22412109 12.49462891 C26.04303957 13.48103623 27.85371431 14.48283456 29.65478516 15.50146484 C35.11831199 18.46684186 38.77583248 19.85937744 45 19 C47.67798063 18.08716275 50.08642596 16.86060409 52.5625 15.5 C53.2428833 15.14341309 53.9232666 14.78682617 54.62426758 14.41943359 C56.75870393 13.29599424 58.8797895 12.15002706 61 11 C63.07498332 9.88918907 65.151451 8.78119968 67.22827148 7.67382812 C68.50118352 6.99240381 69.77168556 6.30645136 71.03930664 5.61523438 C72.68245188 4.72400594 74.3407814 3.86093438 76 3 C76.86625 2.54625 77.7325 2.0925 78.625 1.625 C81 1 81 1 83.45703125 1.8984375 C84.23433594 2.38570313 85.01164062 2.87296875 85.8125 3.375 C86.60269531 3.85710937 87.39289063 4.33921875 88.20703125 4.8359375 C88.79871094 5.22007813 89.39039063 5.60421875 90 6 C89.8515625 8.2734375 89.8515625 8.2734375 89 11 C86.5234375 12.9140625 86.5234375 12.9140625 83.375 14.625 C82.29089844 15.21667969 81.20679687 15.80835937 80.08984375 16.41796875 C71.14074074 21 71.14074074 21 67 21 C67 21.66 67 22.32 67 23 C55.0859375 28.95703125 55.0859375 28.95703125 52.96386719 30.00244141 C51.26996375 30.86287023 49.61812343 31.80520198 47.9765625 32.76171875 C43.2988133 34.70771153 39.41398529 34.92255206 34.72705078 33.13134766 C32.28334411 31.94176202 29.92461208 30.65655893 27.5625 29.3125 C26.37043945 28.65991211 26.37043945 28.65991211 25.15429688 27.99414062 C21.94486028 26.23143135 18.75796799 24.43031349 15.57373047 22.62255859 C11.77251911 20.48000042 8.0845748 18.55636384 4 17 C2.2274536 16.10586047 0.47673523 15.1671896 -1.25 14.1875 C-2.12140625 13.70667969 -2.9928125 13.22585937 -3.890625 12.73046875 C-6 11 -6 11 -6.796875 8.30078125 C-6.86390625 7.54152344 -6.9309375 6.78226562 -7 6 C-4.69 4.68 -2.38 3.36 0 2 C0 1.34 0 0.68 0 0 Z " fill="#E1A1D3" transform="translate(39,78)"/>
<path d="M0 0 C3.3 1.65 6.6 3.3 10 5 C10 5.66 10 6.32 10 7 C11.03125 7.0825 12.0625 7.165 13.125 7.25 C17.32854741 8.06358982 19.54316838 9.564505 23 12 C23.99 12 24.98 12 26 12 C27.75 14.25 27.75 14.25 29 17 C28.75 18.9375 28.75 18.9375 28 21 C27.43522621 24.0748795 27 26.87060846 27 30 C27.66 30 28.32 30 29 30 C28.67 30.99 28.34 31.98 28 33 C27.0925 32.21625 26.185 31.4325 25.25 30.625 C22.94809764 28.69947504 20.78422793 27.17794259 18 26 C20.36620011 23.38472619 22.942048 21.73559438 26 20 C25.74164988 18.05417635 25.74164988 18.05417635 25 16 C22.54247856 14.52309539 20.21858839 13.30775155 17.625 12.125 C16.16847565 11.43135477 14.71274971 10.73603064 13.2578125 10.0390625 C12.53754883 9.6977832 11.81728516 9.35650391 11.07519531 9.00488281 C6.62285971 6.84890477 2.31610198 4.41409094 -2 2 C-1.34 1.34 -0.68 0.68 0 0 Z " fill="#CF387D" transform="translate(102,40)"/>
<path d="M0 0 C0.66 0.33 1.32 0.66 2 1 C1.5875 1.886875 1.175 2.77375 0.75 3.6875 C0.5025 4.780625 0.255 5.87375 0 7 C1.78468339 9.77287937 1.78468339 9.77287937 4 12 C4 14 4 14 2.25 16.0625 C0.0329554 17.97162174 -1.158832 18.59411886 -4 19 C-4 18.01 -4 17.02 -4 16 C-2.68 15.34 -1.36 14.68 0 14 C0 12.68 0 11.36 0 10 C-2.64 8.68 -5.28 7.36 -8 6 C-5.36435544 3.36435544 -3.27929831 1.68169144 0 0 Z " fill="#C93086" transform="translate(128,74)"/>
<path d="M0 0 C0.99 0 1.98 0 3 0 C3.2475 0.78375 3.495 1.5675 3.75 2.375 C5.15389099 5.32317108 6.00675737 5.9024777 9 7 C9 7.66 9 8.32 9 9 C6.03 9 3.06 9 0 9 C0 6.03 0 3.06 0 0 Z " fill="#4B3459" transform="translate(0,151)"/>
<path d="M0 0 C2.86724686 0.57344937 3.8614515 0.8614515 6 3 C6.0625 4.875 6.0625 4.875 5 7 C2.28420604 8.99610856 -0.54219533 11 -4 11 C-2.66667905 7.00003714 -0.5042173 6.16217663 3 4 C2.67 3.01 2.34 2.02 2 1 C1.34 0.67 0.68 0.34 0 0 Z " fill="#FCBBE4" transform="translate(123,68)"/>
<path d="M0 0 C4 0 4 0 6 1.9375 C6.99 2.9584375 6.99 2.9584375 8 4 C10.1381966 4.7872678 10.1381966 4.7872678 12 5 C12 5.66 12 6.32 12 7 C12.99 7 13.98 7 15 7 C15 7.66 15 8.32 15 9 C9.08030998 7.24009216 3.58365008 4.60305395 -2 2 C-1.34 1.34 -0.68 0.68 0 0 Z " fill="#C7337E" transform="translate(84,32)"/>
<path d="M0 0 C-0.66 1.65 -1.32 3.3 -2 5 C-7.44693314 5.09688221 -12.63904667 5.12862175 -18 4 C-18 3.01 -18 2.02 -18 1 C-17.15115234 1.24169922 -17.15115234 1.24169922 -16.28515625 1.48828125 C-13.93807777 2.01386635 -11.8398366 2.16717566 -9.4375 2.1875 C-8.29087891 2.20876953 -8.29087891 2.20876953 -7.12109375 2.23046875 C-4.24365854 1.91781925 -2.90000866 0 0 0 Z " fill="#A41A99" transform="translate(90,123)"/>
<path d="M0 0 C0.66 0 1.32 0 2 0 C2 2.64 2 5.28 2 8 C-0.64 8 -3.28 8 -6 8 C-6 7.34 -6 6.68 -6 6 C-4.68 6 -3.36 6 -2 6 C-2 5.34 -2 4.68 -2 4 C-1.34 4 -0.68 4 0 4 C0 2.68 0 1.36 0 0 Z " fill="#624C5E" transform="translate(158,152)"/>
<path d="M0 0 C0.99 0.33 1.98 0.66 3 1 C3.8125 2.875 3.8125 2.875 4 5 C1.49316923 8.76024616 -0.86493934 9.39192086 -5 11 C-3.99814595 8.76509481 -3.1888327 7.17430711 -1.375 5.5 C0.45048309 3.847706 0.45048309 3.847706 0 0 Z " fill="#E46AB8" transform="translate(125,96)"/>
<path d="M0 0 C2.64 0 5.28 0 8 0 C8 2.64 8 5.28 8 8 C7.34 8 6.68 8 6 8 C6 6.68 6 5.36 6 4 C5.34 4 4.68 4 4 4 C4 3.34 4 2.68 4 2 C2.68 2 1.36 2 0 2 C0 1.34 0 0.68 0 0 Z " fill="#816A70" transform="translate(152,0)"/>
<path d="M0 0 C3.3 1.65 6.6 3.3 10 5 C6.7895201 7.40785992 4.64991166 8.68197635 1 10 C1 9.01 1 8.02 1 7 C1.99 6.34 2.98 5.68 4 5 C3.01 4.319375 3.01 4.319375 2 3.625 C1.34 3.08875 0.68 2.5525 0 2 C0 1.34 0 0.68 0 0 Z " fill="#A22991" transform="translate(31,60)"/>
<path d="M0 0 C2.64 0 5.28 0 8 0 C8 0.66 8 1.32 8 2 C6.7934375 2.37125 6.7934375 2.37125 5.5625 2.75 C2.828919 3.72238859 2.828919 3.72238859 2.1875 6.125 C2.0946875 7.053125 2.0946875 7.053125 2 8 C1.34 8 0.68 8 0 8 C0 5.36 0 2.72 0 0 Z " fill="#624F59" transform="translate(0,0)"/>
<path d="M0 0 C-0.66 0 -1.32 0 -2 0 C-2.2475 0.969375 -2.495 1.93875 -2.75 2.9375 C-3.1625 3.948125 -3.575 4.95875 -4 6 C-6.125 6.875 -6.125 6.875 -8 7 C-8.3125 4.6875 -8.3125 4.6875 -8 2 C-3.92125984 -1.30708661 -3.92125984 -1.30708661 0 0 Z " fill="#F5BFF2" transform="translate(40,68)"/>
<path d="M0 0 C-0.33 0.66 -0.66 1.32 -1 2 C-2.65 2 -4.3 2 -6 2 C-5.34 3.98 -4.68 5.96 -4 8 C-5.32 7.34 -6.64 6.68 -8 6 C-7.75 3.625 -7.75 3.625 -7 1 C-4.12732844 -1.10662581 -3.46720491 -1.15573497 0 0 Z " fill="#DF94DE" transform="translate(40,82)"/>
<path d="M0 0 C0.99 0.33 1.98 0.66 3 1 C1.38944319 2.77161249 0.1075243 3.94786701 -2.0625 5 C-4.33242155 5.97325058 -4.33242155 5.97325058 -6 9 C-5.70381606 5.44579276 -5.19662957 4.19662957 -2.625 1.625 C-1.325625 0.820625 -1.325625 0.820625 0 0 Z " fill="#A4289D" transform="translate(37,78)"/>
<path d="M0 0 C1 3 1 3 1 6 C-0.98 5.34 -2.96 4.68 -5 4 C-3.36587557 2.29159719 -2.13093906 1.06546953 0 0 Z " fill="#C43E80" transform="translate(125,62)"/>
<path d="M0 0 C0.66 0.33 1.32 0.66 2 1 C-1.87564767 4.61139896 -1.87564767 4.61139896 -4 6 C-6.375 5.8125 -6.375 5.8125 -8 5 C-7.34 5 -6.68 5 -6 5 C-6 4.34 -6 3.68 -6 3 C-4.03533587 1.93224776 -2.03144641 0.93446535 0 0 Z " fill="#D780BC" transform="translate(112,96)"/>
<path d="M0 0 C3.96 1.98 3.96 1.98 8 4 C6.68 4.99 5.36 5.98 4 7 C3.67 6.01 3.34 5.02 3 4 C2.01 3.34 1.02 2.68 0 2 C0 1.34 0 0.68 0 0 Z " fill="#9E2498" transform="translate(33,89)"/>
<path d="M0 0 C0.33 1.32 0.66 2.64 1 4 C2.98 4.495 2.98 4.495 5 5 C5 5.99 5 6.98 5 8 C3.68 8 2.36 8 1 8 C0.67 5.36 0.34 2.72 0 0 Z " fill="#A7259D" transform="translate(31,71)"/>
<path d="M0 0 C-0.99 1.485 -0.99 1.485 -2 3 C-4.625 3.1875 -4.625 3.1875 -7 3 C-7 2.34 -7 1.68 -7 1 C-3.375 -1.125 -3.375 -1.125 0 0 Z " fill="#AE1A8F" transform="translate(107,116)"/>
</svg>
