<?xml version="1.0" encoding="UTF-8"?>
<svg version="1.1" xmlns="http://www.w3.org/2000/svg" width="80" height="80">
<path d="M0 0 C26.4 0 52.8 0 80 0 C80 26.4 80 52.8 80 80 C53.6 80 27.2 80 0 80 C0 53.6 0 27.2 0 0 Z " fill="#FB9903" transform="translate(0,0)"/>
<path d="M0 0 C3.50625069 1.86706012 5.39361012 3.57847167 6.80078125 7.2421875 C7.10375977 9.72827148 7.10375977 9.72827148 7.1796875 12.48828125 C7.23092773 13.99165039 7.23092773 13.99165039 7.28320312 15.52539062 C7.30962891 16.56630859 7.33605469 17.60722656 7.36328125 18.6796875 C7.42349342 20.74099341 7.48717622 22.80220149 7.5546875 24.86328125 C7.57861572 25.7752124 7.60254395 26.68714355 7.62719727 27.62670898 C7.80076957 30.2420115 8.22853166 32.68710027 8.80078125 35.2421875 C6.55078125 37.3046875 6.55078125 37.3046875 3.80078125 39.2421875 C1.55078125 39.1171875 1.55078125 39.1171875 -0.19921875 38.2421875 C-0.52921875 37.5821875 -0.85921875 36.9221875 -1.19921875 36.2421875 C-4.74440759 37.63978655 -4.74440759 37.63978655 -8.19921875 39.2421875 C-13.42236251 39.83094767 -17.75011014 40.06619044 -22.38671875 37.4296875 C-25.07169002 32.70784147 -25.01509544 28.54538598 -24.19921875 23.2421875 C-22.18484791 18.73383371 -19.17206093 17.65340614 -14.76171875 15.9296875 C-11.08624959 14.6363722 -8.09697135 14.05119055 -4.19921875 14.2421875 C-4.85921875 11.9321875 -5.51921875 9.6221875 -6.19921875 7.2421875 C-8.52993754 6.82348197 -8.52993754 6.82348197 -11.19921875 7.2421875 C-11.79734375 8.0878125 -12.39546875 8.9334375 -13.01171875 9.8046875 C-13.73359375 10.6090625 -14.45546875 11.4134375 -15.19921875 12.2421875 C-18.072622 12.39720733 -20.34999141 11.85952009 -23.19921875 11.2421875 C-23.51171875 9.0546875 -23.51171875 9.0546875 -23.19921875 6.2421875 C-17.40323293 -0.87859508 -8.73971105 -3.0115523 0 0 Z " fill="#FDFCF0" transform="translate(48.19921875,13.7578125)"/>
<path d="M0 0 C0.66 0.33 1.32 0.66 2 1 C2 2.65 2 4.3 2 6 C0.35 6.33 -1.3 6.66 -3 7 C-3 7.66 -3 8.32 -3 9 C-2.35546875 9.2165625 -1.7109375 9.433125 -1.046875 9.65625 C1 11 1 11 1.609375 13.53125 C1.65578125 14.5109375 1.7021875 15.490625 1.75 16.5 C1.80671875 17.4796875 1.8634375 18.459375 1.921875 19.46875 C1.96847754 20.97867214 2 22.48935885 2 24 C2.33 24.66 2.66 25.32 3 26 C-2.15251243 29.66400884 -6.1173846 30.72654254 -12.46484375 30.4296875 C-15 30 -15 30 -18.1875 28.1875 C-20.87247127 23.46565397 -20.81587669 19.30319848 -20 14 C-17.98562916 9.49164621 -14.97284218 8.41121864 -10.5625 6.6875 C-6.88703084 5.3941847 -3.8977526 4.80900305 0 5 C0 3.35 0 1.7 0 0 Z " fill="#FDF8E6" transform="translate(44,23)"/>
<path d="M0 0 C1.216875 0.4125 2.43375 0.825 3.6875 1.25 C4.93660156 1.65412109 4.93660156 1.65412109 6.2109375 2.06640625 C8.08657479 2.69424562 9.94678931 3.36996389 11.7890625 4.08984375 C25.68738149 9.13561589 40.20321353 8.26777054 54.12890625 3.875 C57 3 57 3 60 3 C60 3.66 60 4.32 60 5 C45.57739654 12.64397984 33.16130152 15.65059936 16.8984375 11.05078125 C10.33714188 8.67209052 3.93091806 5.9672625 0 0 Z " fill="#FEF3CB" transform="translate(6,55)"/>
<path d="M0 0 C0.33 0 0.66 0 1 0 C1.04898438 1.31355469 1.09796875 2.62710937 1.1484375 3.98046875 C1.22349468 5.71616595 1.29904123 7.45184203 1.375 9.1875 C1.4059375 10.05181641 1.436875 10.91613281 1.46875 11.80664062 C1.6762495 16.31975471 2.07630574 19.84763556 4 24 C4 24.99 4 25.98 4 27 C4.66 27.33 5.32 27.66 6 28 C5.67 29.32 5.34 30.64 5 32 C8.63 32 12.26 32 16 32 C17.25187763 38.25938813 16.27679547 38.93586154 13 44 C12.34 43.67 11.68 43.34 11 43 C11.66 40.36 12.32 37.72 13 35 C9.7 35 6.4 35 3 35 C3 33.68 3 32.36 3 31 C1.68 31 0.36 31 -1 31 C-1 31.66 -1 32.32 -1 33 C-2.32 32.67 -3.64 32.34 -5 32 C-3.02 30.68 -1.04 29.36 1 28 C0.83701416 27.28884033 0.67402832 26.57768066 0.50610352 25.8449707 C-0.00277656 22.98439204 -0.11387043 20.38280642 -0.09765625 17.48046875 C-0.09443359 16.45888672 -0.09121094 15.43730469 -0.08789062 14.38476562 C-0.07951172 13.32966797 -0.07113281 12.27457031 -0.0625 11.1875 C-0.05798828 10.11306641 -0.05347656 9.03863281 -0.04882812 7.93164062 C-0.03707729 5.28770317 -0.02064787 2.64388048 0 0 Z " fill="#EB9F26" transform="translate(55,21)"/>
<path d="M0 0 C0.36190476 7.23809524 0.36190476 7.23809524 -1.1875 10.5 C-3 12 -3 12 -5.5625 12.375 C-8 12 -8 12 -10 10 C-10.46879799 6.40588208 -10.44361448 4.64835963 -8.375 1.625 C-5.3962104 -0.4131192 -3.53677664 -0.32152515 0 0 Z " fill="#F79A04" transform="translate(44,34)"/>
<path d="M0 0 C2.375 0.4375 2.375 0.4375 4.375 2.4375 C4.5 5.5625 4.5 5.5625 4.375 8.4375 C3.54355469 8.64246094 2.71210937 8.84742188 1.85546875 9.05859375 C0.76878906 9.32800781 -0.31789063 9.59742188 -1.4375 9.875 C-3.05591797 10.27525391 -3.05591797 10.27525391 -4.70703125 10.68359375 C-6.6990843 11.19827412 -8.67311524 11.78687175 -10.625 12.4375 C-10.295 11.4475 -9.965 10.4575 -9.625 9.4375 C-8.305 9.4375 -6.985 9.4375 -5.625 9.4375 C-5.625 8.7775 -5.625 8.1175 -5.625 7.4375 C-8.265 7.4375 -10.905 7.4375 -13.625 7.4375 C-13.625 6.7775 -13.625 6.1175 -13.625 5.4375 C-12.5525 5.540625 -11.48 5.64375 -10.375 5.75 C-6.48622207 5.86994929 -6.48622207 5.86994929 -4.5 2.9375 C-2.625 0.4375 -2.625 0.4375 0 0 Z " fill="#F2A023" transform="translate(39.625,19.5625)"/>
<path d="M0 0 C6.75 -0.125 6.75 -0.125 9 1 C10.95774069 1.15378852 12.92017352 1.24971463 14.8828125 1.31640625 C16.04941406 1.35830078 17.21601562 1.40019531 18.41796875 1.44335938 C19.64128906 1.48267578 20.86460938 1.52199219 22.125 1.5625 C23.35605469 1.60568359 24.58710937 1.64886719 25.85546875 1.69335938 C28.90352853 1.79968704 31.9516719 1.90171781 35 2 C35 2.33 35 2.66 35 3 C24.30215581 5.73511893 10.10992434 5.46965076 0 1 C0 0.67 0 0.34 0 0 Z " fill="#EBA32E" transform="translate(18,59)"/>
<path d="M0 0 C1.216875 0.4125 2.43375 0.825 3.6875 1.25 C9.75757149 3.27658936 15.87841551 5.13608633 22 7 C20.02 7.99 20.02 7.99 18 9 C18 9.66 18 10.32 18 11 C11.00680762 9.02756112 4.13243286 6.16585221 0 0 Z " fill="#FEF0B4" transform="translate(6,55)"/>
<path d="M0 0 C0.80050781 0.03480469 1.60101563 0.06960937 2.42578125 0.10546875 C3.63814453 0.14607422 3.63814453 0.14607422 4.875 0.1875 C5.48988281 0.22230469 6.10476562 0.25710937 6.73828125 0.29296875 C7.68549197 2.89779824 8.04050518 4.59971576 6.9140625 7.18359375 C5.908914 8.91879748 4.82766675 10.60937298 3.73828125 12.29296875 C3.07828125 11.96296875 2.41828125 11.63296875 1.73828125 11.29296875 C2.39828125 8.65296875 3.05828125 6.01296875 3.73828125 3.29296875 C0.76828125 3.29296875 -2.20171875 3.29296875 -5.26171875 3.29296875 C-2.26171875 0.29296875 -2.26171875 0.29296875 0 0 Z " fill="#FDE9AD" transform="translate(64.26171875,52.70703125)"/>
<path d="M0 0 C0.33 0 0.66 0 1 0 C1.02505615 0.6705542 1.0501123 1.3411084 1.07592773 2.03198242 C1.19230801 5.0839959 1.31484348 8.13573258 1.4375 11.1875 C1.47681641 12.24259766 1.51613281 13.29769531 1.55664062 14.38476562 C1.59853516 15.40634766 1.64042969 16.42792969 1.68359375 17.48046875 C1.72025146 18.41785889 1.75690918 19.35524902 1.79467773 20.32104492 C1.99625599 22.95114982 2.42678321 25.42766414 3 28 C0.75 30.0625 0.75 30.0625 -2 32 C-4.3125 31.75 -4.3125 31.75 -6 31 C-4.75 29.5 -4.75 29.5 -3 28 C-1.68 28 -0.36 28 1 28 C0.83701416 27.45633789 0.67402832 26.91267578 0.50610352 26.35253906 C-0.08049219 23.62584529 -0.11249248 21.14858707 -0.09765625 18.359375 C-0.09443359 17.28945313 -0.09121094 16.21953125 -0.08789062 15.1171875 C-0.07951172 14.00601563 -0.07113281 12.89484375 -0.0625 11.75 C-0.05798828 10.62335937 -0.05347656 9.49671875 -0.04882812 8.3359375 C-0.03705397 5.55723783 -0.0206084 2.77864591 0 0 Z " fill="#FEE5AA" transform="translate(54,21)"/>
<path d="M0 0 C6.15234375 -0.09765625 6.15234375 -0.09765625 8 0 C8.33 0.33 8.66 0.66 9 1 C11.01594582 1.23427778 13.038474 1.41336124 15.0625 1.5625 C16.16722656 1.64628906 17.27195312 1.73007813 18.41015625 1.81640625 C19.26480469 1.87699219 20.11945312 1.93757813 21 2 C19 4 19 4 16.13671875 4.23046875 C14.99847656 4.21628906 13.86023438 4.20210938 12.6875 4.1875 C10.99173828 4.17783203 10.99173828 4.17783203 9.26171875 4.16796875 C6.39143692 4.02015783 3.79181228 3.65474022 1 3 C0.67 2.01 0.34 1.02 0 0 Z " fill="#FEFDED" transform="translate(23,63)"/>
<path d="M0 0 C0.36190476 7.23809524 0.36190476 7.23809524 -1.1875 10.5 C-3 12 -3 12 -5.5625 12.375 C-8 12 -8 12 -10 10 C-10.46879799 6.40588208 -10.44361448 4.64835963 -8.375 1.625 C-5.3962104 -0.4131192 -3.53677664 -0.32152515 0 0 Z M-5 1 C-6.9529689 3.14311671 -6.9529689 3.14311671 -8 6 C-7.78670551 8.74239143 -7.78670551 8.74239143 -7 11 C-5.68 11 -4.36 11 -3 11 C-3 9.68 -3 8.36 -3 7 C-2.34 7 -1.68 7 -1 7 C-1 5.02 -1 3.04 -1 1 C-2.32 1 -3.64 1 -5 1 Z " fill="#EAA32C" transform="translate(44,34)"/>
<path d="M0 0 C2.41734542 -0.08117951 4.83194949 -0.14056926 7.25 -0.1875 C7.93191406 -0.21263672 8.61382812 -0.23777344 9.31640625 -0.26367188 C12.59199289 -0.31137459 14.65348556 -0.21085076 17.484375 1.51171875 C17.98453125 2.00285156 18.4846875 2.49398438 19 3 C18.67 3.66 18.34 4.32 18 5 C17.4534375 4.67386719 16.906875 4.34773437 16.34375 4.01171875 C13.55710306 2.80881615 11.52512566 2.76679068 8.5 2.8125 C7.5615625 2.81894531 6.623125 2.82539063 5.65625 2.83203125 C3.29379415 2.98142184 1.26283335 3.33289111 -1 4 C-0.67 2.68 -0.34 1.36 0 0 Z " fill="#F0A025" transform="translate(32,11)"/>
<path d="M0 0 C2.64 0 5.28 0 8 0 C7.67 2.64 7.34 5.28 7 8 C6.67 7.34 6.34 6.68 6 6 C5.4225 6.350625 4.845 6.70125 4.25 7.0625 C1.64198224 8.14917407 0.60582371 7.93065133 -2 7 C3.75 4 3.75 4 6 4 C6 3.34 6 2.68 6 2 C4.02 2.33 2.04 2.66 0 3 C0 2.01 0 1.02 0 0 Z " fill="#EEA32B" transform="translate(60,56)"/>
<path d="M0 0 C0.33 0 0.66 0 1 0 C1.16777183 1.79156352 1.33418294 3.5832545 1.5 5.375 C1.5928125 6.37273438 1.685625 7.37046875 1.78125 8.3984375 C2 11 2 11 2 13 C2.33 13.66 2.66 14.32 3 15 C1.02 15.99 1.02 15.99 -1 17 C-1.33 16.01 -1.66 15.02 -2 14 C-4.97 13.505 -4.97 13.505 -8 13 C-8 12.67 -8 12.34 -8 12 C-6.02 11.34 -4.04 10.68 -2 10 C-1.34 6.7 -0.68 3.4 0 0 Z " fill="#FAE7BD" transform="translate(44,34)"/>
<path d="M0 0 C2.64 0 5.28 0 8 0 C9.60725635 3.21451269 9.05748185 6.43612536 9 10 C8.01 10.33 7.02 10.66 6 11 C6.33 8.36 6.66 5.72 7 3 C4.36 2.67 1.72 2.34 -1 2 C-0.67 1.34 -0.34 0.68 0 0 Z " fill="#ECA126" transform="translate(64,51)"/>
<path d="M0 0 C0.99 0.33 1.98 0.66 3 1 C2.67 2.32 2.34 3.64 2 5 C2.66 5.33 3.32 5.66 4 6 C2.02 6.99 2.02 6.99 0 8 C0 6.68 0 5.36 0 4 C-1.32 4 -2.64 4 -4 4 C-4 4.66 -4 5.32 -4 6 C-5.32 5.67 -6.64 5.34 -8 5 C-3.375 2 -3.375 2 0 2 C0 1.34 0 0.68 0 0 Z " fill="#F19F17" transform="translate(58,48)"/>
<path d="M0 0 C3.63 0.33 7.26 0.66 11 1 C9.02 1.99 9.02 1.99 7 3 C7 3.66 7 4.32 7 5 C4.0625 4.1875 4.0625 4.1875 1 3 C0.67 2.01 0.34 1.02 0 0 Z " fill="#FEF4CF" transform="translate(17,61)"/>
<path d="M0 0 C0 0.66 0 1.32 0 2 C-4.77830905 4.91360308 -7.55106131 5.19876651 -13 4 C-8.84541088 1.76291355 -4.76123067 0 0 0 Z " fill="#FDEAAE" transform="translate(66,58)"/>
<path d="M0 0 C3.96 0.33 7.92 0.66 12 1 C12 1.33 12 1.66 12 2 C7.71 2.66 3.42 3.32 -1 4 C-0.67 2.68 -0.34 1.36 0 0 Z " fill="#EFA93D" transform="translate(32,11)"/>
</svg>
