<?xml version="1.0" encoding="UTF-8"?>
<svg version="1.1" xmlns="http://www.w3.org/2000/svg" width="161" height="160">
<path d="M0 0 C53.13 0 106.26 0 161 0 C161 52.8 161 105.6 161 160 C107.87 160 54.74 160 0 160 C0 107.2 0 54.4 0 0 Z " fill="#0394FE" transform="translate(0,0)"/>
<path d="M0 0 C2.09063319 1.23648344 4.04608288 2.56805255 6.0078125 4 C6.65621094 4.47050781 7.30460937 4.94101562 7.97265625 5.42578125 C15.91927684 11.76734184 25.11991298 23.10478031 26.44140625 33.3671875 C26.4547065 45.31081574 23.68520222 50.83827617 15.57421875 59.45703125 C4.08378697 70.84252758 4.08378697 70.84252758 -1.6484375 71.27734375 C-4.51288355 71.03975535 -7.18425124 70.57810453 -9.9921875 70 C-10.3221875 70.33 -10.6521875 70.66 -10.9921875 71 C-15.22533517 71.23961213 -18.35955239 71.32488647 -21.9921875 69 C-22.6521875 69.66 -23.3121875 70.32 -23.9921875 71 C-27.6856945 71.20146402 -30.47159182 71.17353189 -33.9921875 70 C-34.72308594 70.16757813 -35.45398438 70.33515625 -36.20703125 70.5078125 C-47.69281204 73.11147586 -56.64263344 65.76361713 -65.9921875 60 C-67.66044029 58.99570281 -69.32968833 57.9930567 -71 56.9921875 C-75.35562998 54.36738203 -79.68055086 51.69633208 -83.9921875 49 C-84.74822266 48.52788086 -85.50425781 48.05576172 -86.28320312 47.56933594 C-88.18666369 46.38029977 -90.08965236 45.19051614 -91.9921875 44 C-91.6621875 43.01 -91.3321875 42.02 -90.9921875 41 C-86.57707466 41.57787834 -83.5960913 43.22961106 -79.8359375 45.5703125 C-79.25235474 45.9296286 -78.66877197 46.2889447 -78.06750488 46.65914917 C-76.2046101 47.80740913 -74.34806518 48.96543911 -72.4921875 50.125 C-67.67951663 53.11783959 -62.85515875 56.08944474 -57.9921875 59 C-57.10587646 59.53046936 -57.10587646 59.53046936 -56.20166016 60.07165527 C-54.48660746 61.08489098 -52.75519874 62.07028141 -51.0234375 63.0546875 C-50.02892578 63.62429199 -49.03441406 64.19389648 -48.00976562 64.78076172 C-44.48764236 66.2038591 -41.7566478 66.22188892 -37.9921875 66 C-37.9921875 64.35 -37.9921875 62.7 -37.9921875 61 C-38.7346875 61.0825 -39.4771875 61.165 -40.2421875 61.25 C-42.9921875 61 -42.9921875 61 -44.75195312 59.23461914 C-47.4112306 56.58200725 -50.34872731 54.8366971 -53.5859375 52.99609375 C-54.21447632 52.6315358 -54.84301514 52.26697784 -55.49060059 51.89137268 C-57.48776767 50.73414335 -59.48962757 49.58536755 -61.4921875 48.4375 C-63.49396528 47.2847787 -65.49465983 46.13024961 -67.49377441 44.97291565 C-68.73416225 44.25536802 -69.97619267 43.54064996 -71.22009277 42.82920837 C-77.68352213 39.1017232 -77.68352213 39.1017232 -79.9921875 37 C-79.9921875 36.01 -79.9921875 35.02 -79.9921875 34 C-75.50417111 33.78628493 -72.1996284 34.47002149 -67.9921875 36 C-67.3321875 36 -66.6721875 36 -65.9921875 36 C-65.9921875 35.34 -65.9921875 34.68 -65.9921875 34 C-66.6521875 34 -67.3121875 34 -67.9921875 34 C-68.6521875 32.02 -69.3121875 30.04 -69.9921875 28 C-67.65277698 27.17356012 -66.43911959 26.8313593 -64.07958984 27.72167969 C-63.08886475 28.31577637 -63.08886475 28.31577637 -62.078125 28.921875 C-61.32515137 29.3650708 -60.57217773 29.8082666 -59.79638672 30.26489258 C-58.99475098 30.75497803 -58.19311523 31.24506348 -57.3671875 31.75 C-56.53848145 32.24717529 -55.70977539 32.74435059 -54.85595703 33.2565918 C-53.11473305 34.30300519 -51.37633896 35.35414014 -49.640625 36.40966797 C-47.03964564 37.97150237 -44.4133374 39.47774314 -41.7734375 40.97265625 C-40.13765037 41.91863051 -38.50221995 42.86522193 -36.8671875 43.8125 C-36.09165527 44.24336914 -35.31612305 44.67423828 -34.51708984 45.11816406 C-29.21461811 48.25476988 -29.21461811 48.25476988 -28 52.32421875 C-27.99613281 53.64873047 -27.99613281 53.64873047 -27.9921875 55 C-23.33364144 53.5393427 -20.18666574 50.83085032 -16.6796875 47.5625 C-16.12990234 47.07201172 -15.58011719 46.58152344 -15.01367188 46.07617188 C-13.60936325 44.78351014 -12.29325689 43.39652265 -10.9921875 42 C-10.9921875 41.01 -10.9921875 40.02 -10.9921875 39 C-12.60287109 38.23816406 -12.60287109 38.23816406 -14.24609375 37.4609375 C-31.45873267 29.18570797 -31.45873267 29.18570797 -35.4296875 22.625 C-36.80482763 16.20767938 -36.57493298 11.55943264 -32.9921875 6 C-24.5100194 -4.17860171 -11.69599043 -5.87092853 0 0 Z " fill="#0694FB" transform="translate(115.9921875,50)"/>
<path d="M0 0 C2.09063319 1.23648344 4.04608288 2.56805255 6.0078125 4 C6.65621094 4.47050781 7.30460937 4.94101562 7.97265625 5.42578125 C15.91927684 11.76734184 25.11991298 23.10478031 26.44140625 33.3671875 C26.4547065 45.31081574 23.68520222 50.83827617 15.57421875 59.45703125 C4.05532749 70.87072716 4.05532749 70.87072716 -1.828125 71.2421875 C-2.87226562 71.16226563 -3.91640625 71.08234375 -4.9921875 71 C-5.3221875 69.68 -5.6521875 68.36 -5.9921875 67 C-4.46464844 66.92845703 -4.46464844 66.92845703 -2.90625 66.85546875 C1.82226373 66.17367752 4.34347528 63.59003338 7.6328125 60.3125 C8.179375 59.79494141 8.7259375 59.27738281 9.2890625 58.74414062 C16.13546694 52.16798899 21.08445507 46.23266263 22.5078125 36.625 C20.91800109 25.09886728 11.7075284 14.2726195 2.80859375 7.21484375 C-3.83339913 2.73401992 -9.99169517 0.94357428 -17.9921875 2 C-23.56363036 3.24662233 -26.83046174 5.06770781 -29.9921875 10 C-31.56430901 13.14424302 -31.510125 16.57791292 -30.9921875 20 C-28.88151703 24.99239768 -25.34577003 26.83050266 -20.6796875 29.125 C-20.02806641 29.45886719 -19.37644531 29.79273438 -18.70507812 30.13671875 C-15.67680835 31.6826823 -12.62571619 33.18009447 -9.57421875 34.6796875 C-6.9921875 36 -6.9921875 36 -5.9921875 37 C-5.4032033 40.01854404 -5.45895181 42.10867903 -7.0625 44.7890625 C-11.74506784 50.50697197 -17.63813274 54.86536911 -23.4921875 59.3046875 C-27.2989904 62.19480897 -30.87589698 65.33090138 -34.41796875 68.5390625 C-38.23079302 70.70294152 -41.61821755 71.33737398 -45.9921875 71 C-49.40657862 69.83985061 -52.35411954 68.11533749 -55.4296875 66.25 C-56.28788086 65.7535498 -57.14607422 65.25709961 -58.03027344 64.74560547 C-60.7007617 63.1898623 -63.34807098 61.60008978 -65.9921875 60 C-66.83217285 59.49694336 -67.6721582 58.99388672 -68.53759766 58.47558594 C-73.72114753 55.36770661 -78.86792066 52.20451981 -83.9921875 49 C-84.74822266 48.52788086 -85.50425781 48.05576172 -86.28320312 47.56933594 C-88.18666369 46.38029977 -90.08965236 45.19051614 -91.9921875 44 C-91.6621875 43.01 -91.3321875 42.02 -90.9921875 41 C-86.57707466 41.57787834 -83.5960913 43.22961106 -79.8359375 45.5703125 C-79.25235474 45.9296286 -78.66877197 46.2889447 -78.06750488 46.65914917 C-76.2046101 47.80740913 -74.34806518 48.96543911 -72.4921875 50.125 C-67.67951663 53.11783959 -62.85515875 56.08944474 -57.9921875 59 C-57.10587646 59.53046936 -57.10587646 59.53046936 -56.20166016 60.07165527 C-54.48660746 61.08489098 -52.75519874 62.07028141 -51.0234375 63.0546875 C-50.02892578 63.62429199 -49.03441406 64.19389648 -48.00976562 64.78076172 C-44.48764236 66.2038591 -41.7566478 66.22188892 -37.9921875 66 C-37.9921875 64.35 -37.9921875 62.7 -37.9921875 61 C-38.7346875 61.0825 -39.4771875 61.165 -40.2421875 61.25 C-42.9921875 61 -42.9921875 61 -44.75195312 59.23461914 C-47.4112306 56.58200725 -50.34872731 54.8366971 -53.5859375 52.99609375 C-54.21447632 52.6315358 -54.84301514 52.26697784 -55.49060059 51.89137268 C-57.48776767 50.73414335 -59.48962757 49.58536755 -61.4921875 48.4375 C-63.49396528 47.2847787 -65.49465983 46.13024961 -67.49377441 44.97291565 C-68.73416225 44.25536802 -69.97619267 43.54064996 -71.22009277 42.82920837 C-77.68352213 39.1017232 -77.68352213 39.1017232 -79.9921875 37 C-79.9921875 36.01 -79.9921875 35.02 -79.9921875 34 C-75.50417111 33.78628493 -72.1996284 34.47002149 -67.9921875 36 C-67.3321875 36 -66.6721875 36 -65.9921875 36 C-65.9921875 35.34 -65.9921875 34.68 -65.9921875 34 C-66.6521875 34 -67.3121875 34 -67.9921875 34 C-68.6521875 32.02 -69.3121875 30.04 -69.9921875 28 C-67.65277698 27.17356012 -66.43911959 26.8313593 -64.07958984 27.72167969 C-63.08886475 28.31577637 -63.08886475 28.31577637 -62.078125 28.921875 C-61.32515137 29.3650708 -60.57217773 29.8082666 -59.79638672 30.26489258 C-58.99475098 30.75497803 -58.19311523 31.24506348 -57.3671875 31.75 C-56.53848145 32.24717529 -55.70977539 32.74435059 -54.85595703 33.2565918 C-53.11473305 34.30300519 -51.37633896 35.35414014 -49.640625 36.40966797 C-47.03964564 37.97150237 -44.4133374 39.47774314 -41.7734375 40.97265625 C-40.13765037 41.91863051 -38.50221995 42.86522193 -36.8671875 43.8125 C-36.09165527 44.24336914 -35.31612305 44.67423828 -34.51708984 45.11816406 C-29.21461811 48.25476988 -29.21461811 48.25476988 -28 52.32421875 C-27.99613281 53.64873047 -27.99613281 53.64873047 -27.9921875 55 C-23.33364144 53.5393427 -20.18666574 50.83085032 -16.6796875 47.5625 C-16.12990234 47.07201172 -15.58011719 46.58152344 -15.01367188 46.07617188 C-13.60936325 44.78351014 -12.29325689 43.39652265 -10.9921875 42 C-10.9921875 41.01 -10.9921875 40.02 -10.9921875 39 C-12.60287109 38.23816406 -12.60287109 38.23816406 -14.24609375 37.4609375 C-31.45873267 29.18570797 -31.45873267 29.18570797 -35.4296875 22.625 C-36.80482763 16.20767938 -36.57493298 11.55943264 -32.9921875 6 C-24.5100194 -4.17860171 -11.69599043 -5.87092853 0 0 Z " fill="#D4F7FE" transform="translate(115.9921875,50)"/>
<path d="M0 0 C4.49482434 0.41603637 7.8251192 2.46139555 11.5625 4.8125 C12.87930487 5.63166244 14.1970683 6.44928537 15.515625 7.265625 C16.22654297 7.70583984 16.93746094 8.14605469 17.66992188 8.59960938 C20.20224208 10.12154868 22.7732806 11.55584816 25.359375 12.984375 C26.26357178 13.49508545 27.16776855 14.0057959 28.09936523 14.53198242 C29.87957222 15.53622228 31.67062319 16.52152543 33.47290039 17.4855957 C39.50248345 20.94334677 39.50248345 20.94334677 41.01318359 24.15185547 C41.57421875 26.37109375 41.57421875 26.37109375 42 30 C38.7 32.64 35.4 35.28 32 38 C31.505 36.02 31.505 36.02 31 34 C30.2575 34.0825 29.515 34.165 28.75 34.25 C26 34 26 34 24.24023438 32.23461914 C21.5809569 29.58200725 18.64346019 27.8366971 15.40625 25.99609375 C14.77771118 25.6315358 14.14917236 25.26697784 13.50158691 24.89137268 C11.50441983 23.73414335 9.50255993 22.58536755 7.5 21.4375 C5.49822222 20.2847787 3.49752767 19.13024961 1.49841309 17.97291565 C0.25802525 17.25536802 -0.98400517 16.54064996 -2.22790527 15.82920837 C-8.69133463 12.1017232 -8.69133463 12.1017232 -11 10 C-11 9.01 -11 8.02 -11 7 C-6.51198361 6.78628493 -3.2074409 7.47002149 1 9 C1.66 9 2.32 9 3 9 C3 8.34 3 7.68 3 7 C2.34 7 1.68 7 1 7 C0.34 5.02 -0.32 3.04 -1 1 C-0.67 0.67 -0.34 0.34 0 0 Z " fill="#1396F2" transform="translate(47,77)"/>
<path d="M0 0 C0.66 0 1.32 0 2 0 C1.96519531 0.65226562 1.93039063 1.30453125 1.89453125 1.9765625 C1.72585036 7.42254556 1.68290011 11.43898765 5 16 C11.14946459 21.98806132 19.34190035 25.36455382 27 29 C26.43455575 32.76400202 24.87689907 34.50046584 22.1875 37.125 C21.50042969 37.80820313 20.81335938 38.49140625 20.10546875 39.1953125 C18.13283849 40.88613844 16.36974182 41.96689907 14 43 C14.33 41.35 14.66 39.7 15 38 C15.66 38 16.32 38 17 38 C17.33 37.01 17.66 36.02 18 35 C17.04480469 34.61328125 16.08960938 34.2265625 15.10546875 33.828125 C10.33644037 31.78203094 5.84237555 29.27296321 1.3125 26.75 C0.43561523 26.26200928 -0.44126953 25.77401855 -1.34472656 25.27124023 C-3.09121673 24.29748351 -4.83684532 23.32217963 -6.58154297 22.34521484 C-8.70240516 21.16553075 -10.83350553 20.00931443 -12.97265625 18.86328125 C-14.59494141 17.97189453 -14.59494141 17.97189453 -16.25 17.0625 C-17.18328125 16.55847656 -18.1165625 16.05445312 -19.078125 15.53515625 C-19.71234375 15.02855469 -20.3465625 14.52195312 -21 14 C-21 12.68 -21 11.36 -21 10 C-15.31453985 10.60134675 -11.19409016 13.80467285 -6.52734375 16.84960938 C-2.89257454 19.13694394 -0.45619426 20.60844191 4 20 C3.71125 19.443125 3.4225 18.88625 3.125 18.3125 C0.89903089 13.73689684 -0.24905885 10.33594234 -0.125 5.1875 C-0.10695313 4.21167969 -0.08890625 3.23585937 -0.0703125 2.23046875 C-0.04710938 1.49441406 -0.02390625 0.75835937 0 0 Z " fill="#1C95EC" transform="translate(79,60)"/>
<path d="M0 0 C5.72740556 2.12250139 10.77828072 5.26634456 16.00341797 8.39477539 C17.75355509 9.43962242 19.51126277 10.47086371 21.26953125 11.50195312 C22.37167969 12.16001953 23.47382812 12.81808594 24.609375 13.49609375 C26.1248291 14.39606079 26.1248291 14.39606079 27.67089844 15.31420898 C30 17 30 17 31 20 C32.65 20 34.3 20 36 20 C36 21.65 36 23.3 36 25 C31.31102247 26.30811098 28.76455294 26.20814351 24.3984375 23.97265625 C22.71273602 23.02223948 21.03857224 22.05113994 19.375 21.0625 C18.50069336 20.56194092 17.62638672 20.06138184 16.72558594 19.5456543 C14.13598043 18.05346436 11.56505203 16.5339519 9 15 C7.91477051 14.3512793 7.91477051 14.3512793 6.80761719 13.68945312 C3.1760971 11.504521 -0.42507019 9.27673449 -4 7 C-3.01 6.34 -2.02 5.68 -1 5 C-0.27034634 2.43717258 -0.27034634 2.43717258 0 0 Z " fill="#1095F4" transform="translate(42,91)"/>
<path d="M0 0 C1.65 0.66 3.3 1.32 5 2 C5.28515625 4.22265625 5.28515625 4.22265625 5 7 C3.05859375 9.24609375 3.05859375 9.24609375 0.4375 11.4375 C-0.47773437 12.20835938 -1.39296875 12.97921875 -2.3359375 13.7734375 C-3.21507813 14.50820312 -4.09421875 15.24296875 -5 16 C-5.65226562 16.63164063 -6.30453125 17.26328125 -6.9765625 17.9140625 C-9.98478188 20.81239259 -11.36936849 21.91301634 -15.625 22.5 C-18.73881369 22.03869427 -21.17742284 21.36852226 -24 20 C-20.65049799 16.45885981 -16.97179981 13.53131471 -13.125 10.5625 C-8.68118078 7.11734553 -4.30049458 3.62319957 0 0 Z " fill="#1B97EF" transform="translate(104,99)"/>
<path d="M0 0 C4.43414291 0.57789367 7.77924706 2.37159149 11.55078125 4.640625 C12.47723701 5.18671417 12.47723701 5.18671417 13.42240906 5.74383545 C15.38982909 6.90585953 17.3511038 8.07784319 19.3125 9.25 C20.61876316 10.02277382 21.92540058 10.79491539 23.23242188 11.56640625 C25.7281104 13.04172984 28.21763374 14.52661215 30.70166016 16.02148438 C32.69207726 17.21543998 34.68975444 18.39756593 36.70068359 19.55664062 C38.51698025 20.62377991 40.26979618 21.79828683 42 23 C42 23.99 42 24.98 42 26 C35.90295728 25.59550364 31.67249122 22.7140358 26.625 19.5625 C25.75391602 19.0269751 24.88283203 18.4914502 23.98535156 17.93969727 C22.19580344 16.83777241 20.40869203 15.73188061 18.62402344 14.62207031 C16.14018457 13.08665671 13.64072459 11.5816138 11.1328125 10.0859375 C9.671566 9.20363655 8.21061191 8.32085108 6.75 7.4375 C6.06502441 7.03281494 5.38004883 6.62812988 4.67431641 6.21118164 C2.796875 5.05859375 2.796875 5.05859375 0 3 C0 2.01 0 1.02 0 0 Z " fill="#D6F8FE" transform="translate(36,84)"/>
<path d="M0 0 C4.49957429 0.56349809 7.79215906 2.44257141 11.5625 4.8125 C12.8770565 5.62458512 14.1921943 6.43572976 15.5078125 7.24609375 C16.2184082 7.68550293 16.92900391 8.12491211 17.66113281 8.57763672 C20.23103464 10.14050186 22.82681854 11.65287097 25.4296875 13.16015625 C26.34290771 13.69342529 27.25612793 14.22669434 28.19702148 14.77612305 C30.00965424 15.83366709 31.82683643 16.88345538 33.64868164 17.92504883 C34.88799438 18.65437622 34.88799438 18.65437622 36.15234375 19.3984375 C36.89476318 19.82817871 37.63718262 20.25791992 38.40209961 20.70068359 C38.92940674 21.12945801 39.45671387 21.55823242 40 22 C40 22.99 40 23.98 40 25 C35.94882275 24.40156197 32.98654541 23.09303452 29.4296875 21.0859375 C28.3675 20.48910156 27.3053125 19.89226562 26.2109375 19.27734375 C24.55964844 18.33568359 24.55964844 18.33568359 22.875 17.375 C21.79734375 16.77042969 20.7196875 16.16585937 19.609375 15.54296875 C12.59373027 11.57870685 5.75267642 7.39658137 -1 3 C-0.67 2.01 -0.34 1.02 0 0 Z " fill="#D3F7FE" transform="translate(47,77)"/>
<path d="M0 0 C3.84127622 0.58018609 6.56193977 1.69149543 9.87890625 3.6953125 C10.79526855 4.2433252 11.71163086 4.79133789 12.65576172 5.35595703 C13.61498535 5.93974121 14.57420898 6.52352539 15.5625 7.125 C17.53481818 8.31306142 19.50747212 9.50056561 21.48046875 10.6875 C22.42841309 11.25984375 23.37635742 11.8321875 24.35302734 12.421875 C26.58908524 13.75501263 28.83697989 15.04988676 31.11328125 16.3125 C32.18964844 16.910625 33.26601562 17.50875 34.375 18.125 C35.29023437 18.62257813 36.20546875 19.12015625 37.1484375 19.6328125 C37.75945312 20.08398438 38.37046875 20.53515625 39 21 C39 21.99 39 22.98 39 24 C34.48766424 23.46723318 31.36834356 22.34582152 27.48046875 20.015625 C26.45759766 19.40976563 25.43472656 18.80390625 24.38085938 18.1796875 C23.32705078 17.54289062 22.27324219 16.90609375 21.1875 16.25 C19.09814061 15.00439552 17.00830406 13.75959102 14.91796875 12.515625 C13.42209229 11.62133789 13.42209229 11.62133789 11.89599609 10.70898438 C7.9732495 8.3940943 3.99985266 6.17839495 0 4 C0 2.68 0 1.36 0 0 Z " fill="#DBF9FE" transform="translate(58,70)"/>
<path d="M0 0 C-0.5662547 3.50251333 -1.64784462 4.93819361 -4.34375 7.19921875 C-5.01277344 7.76833984 -5.68179688 8.33746094 -6.37109375 8.92382812 C-7.07363281 9.50583984 -7.77617188 10.08785156 -8.5 10.6875 C-9.20253906 11.28111328 -9.90507813 11.87472656 -10.62890625 12.48632812 C-11.92415036 13.58067213 -13.22266864 14.6711603 -14.52539062 15.7565918 C-15.95287358 16.92462147 -15.95287358 16.92462147 -17 18 C-19.33297433 18.04092937 -21.66705225 18.04241723 -24 18 C-24.33 16.68 -24.66 15.36 -25 14 C-23.9275 13.896875 -22.855 13.79375 -21.75 13.6875 C-15.72965667 12.26333276 -11.82134386 7.62032583 -7.5390625 3.43359375 C-3.95666132 0 -3.95666132 0 0 0 Z " fill="#D3F9FE" transform="translate(122,103)"/>
<path d="M0 0 C-0.5662547 3.50251333 -1.64784462 4.93819361 -4.34375 7.19921875 C-5.01277344 7.76833984 -5.68179688 8.33746094 -6.37109375 8.92382812 C-7.07363281 9.50583984 -7.77617188 10.08785156 -8.5 10.6875 C-9.20253906 11.28111328 -9.90507813 11.87472656 -10.62890625 12.48632812 C-11.92415036 13.58067213 -13.22266864 14.6711603 -14.52539062 15.7565918 C-15.95287358 16.92462147 -15.95287358 16.92462147 -17 18 C-19.33297433 18.04092937 -21.66705225 18.04241723 -24 18 C-24.33 16.68 -24.66 15.36 -25 14 C-23.97390625 13.94714844 -22.9478125 13.89429687 -21.890625 13.83984375 C-17.09130578 12.80384613 -15.10668019 10.96676199 -11.75 7.5625 C-4.00352113 0 -4.00352113 0 0 0 Z " fill="#D7F9FE" transform="translate(109,103)"/>
<path d="M0 0 C1.43836751 0.11458693 2.87570966 0.24209116 4.3125 0.375 C5.51326172 0.47941406 5.51326172 0.47941406 6.73828125 0.5859375 C9 1 9 1 12 3 C11.43455575 6.76400202 9.87689907 8.50046584 7.1875 11.125 C6.50042969 11.80820313 5.81335938 12.49140625 5.10546875 13.1953125 C3.13283849 14.88613844 1.36974182 15.96689907 -1 17 C-0.67 15.35 -0.34 13.7 0 12 C0.66 12 1.32 12 2 12 C3.2380014 8.42355152 2.74926071 5.66305234 2 2 C1.34 2 0.68 2 0 2 C0 1.34 0 0.68 0 0 Z " fill="#0C93F4" transform="translate(94,86)"/>
<path d="M0 0 C0.66 0.66 1.32 1.32 2 2 C2.66 1.67 3.32 1.34 4 1 C4.99 1.66 5.98 2.32 7 3 C5.21079529 4.6485816 3.4187995 6.29393121 1.625 7.9375 C1.11710937 8.40607422 0.60921875 8.87464844 0.0859375 9.35742188 C-4.26612287 13.33726656 -6.11194137 14.12800127 -12 14 C-12.33 14.66 -12.66 15.32 -13 16 C-13 15.01 -13 14.02 -13 13 C-11.05809031 11.21918388 -9.14117743 9.60442753 -7.0625 8 C-2.60584146 4.74043246 -2.60584146 4.74043246 0 0 Z " fill="#1B96EF" transform="translate(109,103)"/>
<path d="M0 0 C2.70926555 0.60205901 4.48834582 1.34612884 6.22265625 3.5625 C9.24603389 8.93739359 9.72956679 13.92375086 9 20 C8 23.125 8 23.125 7 25 C6.67 25 6.34 25 6 25 C5.98582031 24.24976562 5.97164062 23.49953125 5.95703125 22.7265625 C5.63839837 15.8888731 4.49877843 10.99364324 1.05859375 5.05859375 C0 3 0 3 0 0 Z " fill="#E1FCFE" transform="translate(133,70)"/>
<path d="M0 0 C2.75 0.8125 2.75 0.8125 5 2 C2.32258974 5.56988034 -0.20060786 8.61433517 -4 11 C-7.8125 11.25 -7.8125 11.25 -11 11 C-11.33 11.99 -11.66 12.98 -12 14 C-12.66 13.34 -13.32 12.68 -14 12 C-12.41856529 10.56041153 -10.83477221 9.12341355 -9.25 7.6875 C-8.36828125 6.88699219 -7.4865625 6.08648437 -6.578125 5.26171875 C-2.03510933 1.276255 -2.03510933 1.276255 0 0 Z " fill="#1A96ED" transform="translate(121,106)"/>
<path d="M0 0 C4.25212516 0.97495741 7.96629941 2.55626936 11.77734375 4.65234375 C10.78734375 5.97234375 9.79734375 7.29234375 8.77734375 8.65234375 C8.22046875 8.37519531 7.66359375 8.09804688 7.08984375 7.8125 C1.87915116 5.33918139 -2.46982178 4.07073171 -8.22265625 3.65234375 C-6.90265625 3.32234375 -5.58265625 2.99234375 -4.22265625 2.65234375 C-4.22265625 1.99234375 -4.22265625 1.33234375 -4.22265625 0.65234375 C-7.85265625 0.98234375 -11.48265625 1.31234375 -15.22265625 1.65234375 C-10.53363367 -1.4736713 -5.46160755 -0.85427605 0 0 Z " fill="#D0F3FE" transform="translate(108.22265625,47.34765625)"/>
<path d="M0 0 C5.38323353 6.49700599 5.38323353 6.49700599 7 10 C6.3125 12.125 6.3125 12.125 5 14 C4.01 15.485 4.01 15.485 3 17 C1.68 16.67 0.36 16.34 -1 16 C-1.33 13.69 -1.66 11.38 -2 9 C-0.35 9 1.3 9 3 9 C2.67 7.35 2.34 5.7 2 4 C1.34 4 0.68 4 0 4 C0 2.68 0 1.36 0 0 Z " fill="#2C9DEA" transform="translate(131,70)"/>
<path d="M0 0 C2.64 0 5.28 0 8 0 C8 0.66 8 1.32 8 2 C7.195625 2.61875 6.39125 3.2375 5.5625 3.875 C2.96935871 6.02540985 2.34779165 6.75394458 2 10 C1.34 10 0.68 10 0 10 C0 6.7 0 3.4 0 0 Z " fill="#6C777B" transform="translate(0,0)"/>
<path d="M0 0 C3.42491198 -0.39141851 4.79010327 -0.13357065 7.75 1.75 C9.96883223 3.96883223 10.67278832 4.94602429 11 8 C10.01 8.33 9.02 8.66 8 9 C6.99403703 8.0479279 5.99538437 7.08812654 5 6.125 C4.443125 5.59132813 3.88625 5.05765625 3.3125 4.5078125 C2 3 2 3 2 1 C1.34 0.67 0.68 0.34 0 0 Z " fill="#DEFAFF" transform="translate(116,53)"/>
<path d="M0 0 C0.680625 0.33 1.36125 0.66 2.0625 1 C5.50840238 2.17307315 8.38397422 2.14180493 12 2 C11.67 2.66 11.34 3.32 11 4 C8.4375 4.625 8.4375 4.625 6 5 C7.32 5.66 8.64 6.32 10 7 C5.12335991 7.34833144 2.22949995 6.41685712 -2 4 C-1.34 3.67 -0.68 3.34 0 3 C0 2.01 0 1.02 0 0 Z " fill="#C8F4FE" transform="translate(66,114)"/>
<path d="M0 0 C0.66 0 1.32 0 2 0 C2.33 1.32 2.66 2.64 3 4 C3.99 4 4.98 4 6 4 C6 4.66 6 5.32 6 6 C6.66 6 7.32 6 8 6 C8 6.66 8 7.32 8 8 C5.36 8 2.72 8 0 8 C0 5.36 0 2.72 0 0 Z " fill="#68787F" transform="translate(0,152)"/>
<path d="M0 0 C3.96 1.98 7.92 3.96 12 6 C8.65998143 7.11333952 5.4665594 7.70344605 2.17578125 6.125 C0.45052083 5.08333333 -1.27473958 4.04166667 -3 3 C-2.01 2.67 -1.02 2.34 0 2 C0 1.34 0 0.68 0 0 Z " fill="#C9F4FE" transform="translate(77,80)"/>
<path d="M0 0 C1.65 0 3.3 0 5 0 C5 0.66 5 1.32 5 2 C6.32 2 7.64 2 9 2 C9.12375 2.928125 9.12375 2.928125 9.25 3.875 C9.81258459 6.18437567 9.81258459 6.18437567 12.0625 7.25 C12.701875 7.4975 13.34125 7.745 14 8 C14 8.99 14 9.98 14 11 C13.32453125 10.45730469 12.6490625 9.91460937 11.953125 9.35546875 C11.06109375 8.64003906 10.1690625 7.92460938 9.25 7.1875 C8.36828125 6.47980469 7.4865625 5.77210937 6.578125 5.04296875 C4.41007071 3.32494998 2.22271099 1.64626024 0 0 Z " fill="#2296E6" transform="translate(114,49)"/>
<path d="M0 0 C1.85625 0.061875 1.85625 0.061875 3.75 0.125 C3.75 0.785 3.75 1.445 3.75 2.125 C5.73 2.125 7.71 2.125 9.75 2.125 C9.75 2.785 9.75 3.445 9.75 4.125 C3.81 3.465 -2.13 2.805 -8.25 2.125 C-4.63863788 0.31931894 -3.705469 -0.12351563 0 0 Z " fill="#1993E8" transform="translate(104.25,44.875)"/>
<path d="M0 0 C2.31 0 4.62 0 7 0 C7 2.64 7 5.28 7 8 C5.8274869 7.04882866 4.66212985 6.08882991 3.5 5.125 C2.8503125 4.59132813 2.200625 4.05765625 1.53125 3.5078125 C1.0259375 3.01023438 0.520625 2.51265625 0 2 C0 1.34 0 0.68 0 0 Z " fill="#4C5860" transform="translate(154,0)"/>
<path d="M0 0 C0.90105469 0.01804688 1.80210938 0.03609375 2.73046875 0.0546875 C3.41753906 0.07789063 4.10460937 0.10109375 4.8125 0.125 C4.8125 0.785 4.8125 1.445 4.8125 2.125 C5.8025 2.455 6.7925 2.785 7.8125 3.125 C6.8125 4.125 6.8125 4.125 4.96484375 4.22265625 C2.9140625 4.19010417 0.86328125 4.15755208 -1.1875 4.125 C0.1325 3.795 1.4525 3.465 2.8125 3.125 C2.8125 2.465 2.8125 1.805 2.8125 1.125 C-0.8175 1.455 -4.4475 1.785 -8.1875 2.125 C-4.87379 -0.08414 -3.8428979 -0.09981553 0 0 Z " fill="#BCF2FE" transform="translate(101.1875,46.875)"/>
<path d="M0 0 C0 1.32 0 2.64 0 4 C-2.31 4 -4.62 4 -7 4 C-7.33 4.99 -7.66 5.98 -8 7 C-8.66 6.34 -9.32 5.68 -10 5 C-4.03225806 0 -4.03225806 0 0 0 Z " fill="#309CE9" transform="translate(117,113)"/>
<path d="M0 0 C0.33 0.99 0.66 1.98 1 3 C-0.8125 5 -0.8125 5 -3 7 C-3.99 7 -4.98 7 -6 7 C-5.8125 5.1875 -5.8125 5.1875 -5 3 C-2.4375 1.25 -2.4375 1.25 0 0 Z " fill="#E5FEFE" transform="translate(127,109)"/>
<path d="M0 0 C0.33 0 0.66 0 1 0 C1 2.64 1 5.28 1 8 C-1.31 8 -3.62 8 -6 8 C-6 7.34 -6 6.68 -6 6 C-5.195625 5.525625 -4.39125 5.05125 -3.5625 4.5625 C-0.7081924 3.20016328 -0.7081924 3.20016328 0 0 Z " fill="#4A5358" transform="translate(160,152)"/>
<path d="M0 0 C0.33 0.66 0.66 1.32 1 2 C3.02463255 2.65213292 3.02463255 2.65213292 5 3 C4 4 4 4 0.4375 4.0625 C-0.696875 4.041875 -1.83125 4.02125 -3 4 C-3.33 4.99 -3.66 5.98 -4 7 C-4.99 6.34 -5.98 5.68 -7 5 C-4.69 3.35 -2.38 1.7 0 0 Z " fill="#3B9AE3" transform="translate(87,113)"/>
<path d="M0 0 C4.455 0.99 4.455 0.99 9 2 C9 2.99 9 3.98 9 5 C7.68428397 4.7452486 6.37239624 4.47065859 5.0625 4.1875 C4.33160156 4.03667969 3.60070312 3.88585937 2.84765625 3.73046875 C2.23792969 3.48941406 1.62820312 3.24835938 1 3 C0.67 2.01 0.34 1.02 0 0 Z " fill="#E3FBFE" transform="translate(65,89)"/>
<path d="M0 0 C0 0.66 0 1.32 0 2 C-3.67410785 3.17571451 -7.16929183 3.07366746 -11 3 C-11 2.34 -11 1.68 -11 1 C-7.32589215 -0.17571451 -3.83070817 -0.07366746 0 0 Z " fill="#EBFEFF" transform="translate(104,48)"/>
<path d="M0 0 C0.66 0.33 1.32 0.66 2 1 C1.67 1.33 1.34 1.66 1 2 C1.99 2.66 2.98 3.32 4 4 C2 6 2 6 -0.625 6.125 C-1.40875 6.08375 -2.1925 6.0425 -3 6 C-2.42655063 3.13275314 -2.1385485 2.1385485 0 0 Z " fill="#2297EA" transform="translate(91,109)"/>
<path d="M0 0 C1.46726798 3.81489674 0.43336419 6.29011622 -1 10 C-1.99 9.67 -2.98 9.34 -4 9 C-3.35455571 5.51460083 -1.89865603 2.97180943 0 0 Z " fill="#CCF2FD" transform="translate(106,89)"/>
<path d="M0 0 C2.475 0.99 2.475 0.99 5 2 C5 2.99 5 3.98 5 5 C2.0625 4.625 2.0625 4.625 -1 4 C-1.33 3.34 -1.66 2.68 -2 2 C-1.34 2 -0.68 2 0 2 C0 1.34 0 0.68 0 0 Z " fill="#C7F7FF" transform="translate(92,89)"/>
<path d="M0 0 C1.98 0.495 1.98 0.495 4 1 C4 2.32 4 3.64 4 5 C2.35 4.67 0.7 4.34 -1 4 C-0.67 2.68 -0.34 1.36 0 0 Z " fill="#D0FBFF" transform="translate(130,80)"/>
<path d="M0 0 C0.33 0.66 0.66 1.32 1 2 C1.99 2.33 2.98 2.66 4 3 C3 4 3 4 -0.0625 4.0625 C-1.031875 4.041875 -2.00125 4.02125 -3 4 C-3.33 4.66 -3.66 5.32 -4 6 C-4 5.01 -4 4.02 -4 3 C-2 1.3125 -2 1.3125 0 0 Z " fill="#3E9BDD" transform="translate(100,113)"/>
<path d="M0 0 C-0.375 2.4375 -0.375 2.4375 -1 5 C-1.99 5.495 -1.99 5.495 -3 6 C-3.33 5.34 -3.66 4.68 -4 4 C-4.66 3.67 -5.32 3.34 -6 3 C-3.375 0 -3.375 0 0 0 Z " fill="#CBF3FF" transform="translate(114,109)"/>
<path d="M0 0 C0.66 0.33 1.32 0.66 2 1 C0.625 3 0.625 3 -1 5 C-1.66 5 -2.32 5 -3 5 C-3.66 6.32 -4.32 7.64 -5 9 C-5.66 8.67 -6.32 8.34 -7 8 C-4.69 5.36 -2.38 2.72 0 0 Z " fill="#2396E9" transform="translate(139,100)"/>
<path d="M0 0 C0.66 0.99 1.32 1.98 2 3 C0.02 4.32 -1.96 5.64 -4 7 C-3.6875 4.625 -3.6875 4.625 -3 2 C-2.01 1.34 -1.02 0.68 0 0 Z " fill="#1A98EA" transform="translate(97,96)"/>
<path d="M0 0 C0.66 1.65 1.32 3.3 2 5 C-0.97 4.01 -3.94 3.02 -7 2 C-7 1.67 -7 1.34 -7 1 C-2.25 0 -2.25 0 0 0 Z " fill="#2498EC" transform="translate(106,80)"/>
<path d="M0 0 C2.475 0.495 2.475 0.495 5 1 C5.33 1.99 5.66 2.98 6 4 C7.49985609 5.66710346 7.49985609 5.66710346 9 7 C5.07353523 5.69117841 2.72225079 4.1255472 0 1 C0 0.67 0 0.34 0 0 Z " fill="#2599EF" transform="translate(86,72)"/>
<path d="M0 0 C0.33 1.32 0.66 2.64 1 4 C-1.31 4 -3.62 4 -6 4 C-6.33 3.34 -6.66 2.68 -7 2 C-4.69 1.34 -2.38 0.68 0 0 Z " fill="#E8FCFE" transform="translate(78,116)"/>
<path d="M0 0 C1.32 0 2.64 0 4 0 C2.25 3.875 2.25 3.875 0 5 C-0.66 4.34 -1.32 3.68 -2 3 C-1.34 2.01 -0.68 1.02 0 0 Z " fill="#E6FCFF" transform="translate(87,108)"/>
<path d="M0 0 C0.99 0 1.98 0 3 0 C2.6875 1.875 2.6875 1.875 2 4 C1.01 4.66 0.02 5.32 -1 6 C-1.625 4.125 -1.625 4.125 -2 2 C-1.34 1.34 -0.68 0.68 0 0 Z " fill="#E3FDFF" transform="translate(115,106)"/>
<path d="M0 0 C1.65 0 3.3 0 5 0 C5.33 1.65 5.66 3.3 6 5 C5.67 4.01 5.34 3.02 5 2 C3.02 2.66 1.04 3.32 -1 4 C-0.67 2.68 -0.34 1.36 0 0 Z " fill="#249EEA" transform="translate(117,101)"/>
<path d="M0 0 C2.475 0.99 2.475 0.99 5 2 C4.67 2.99 4.34 3.98 4 5 C2.68 4.67 1.36 4.34 0 4 C0 2.68 0 1.36 0 0 Z " fill="#E4FCFF" transform="translate(54,108)"/>
<path d="M0 0 C2.475 0.99 2.475 0.99 5 2 C4.67 3.32 4.34 4.64 4 6 C1.525 5.01 1.525 5.01 -1 4 C-0.01 3.34 0.98 2.68 2 2 C1.34 2 0.68 2 0 2 C0 1.34 0 0.68 0 0 Z " fill="#CDF6FF" transform="translate(50,105)"/>
<path d="M0 0 C0.99 0 1.98 0 3 0 C2.42655063 2.86724686 2.1385485 3.8614515 0 6 C-0.38218767 4.34385343 -0.71395102 2.67542976 -1 1 C-0.67 0.67 -0.34 0.34 0 0 Z " fill="#DFFCFF" transform="translate(134,100)"/>
</svg>
