<svg xmlns="http://www.w3.org/2000/svg" width="380.768" height="442.796" viewBox="0 0 380.768 442.796">
  <g id="Business_Technology_startup_account_preferences_user_profile_settings_woman_graph_analysis" data-name="Business, Technology, startup | account, preferences, user, profile, settings, woman, graph, analysis" transform="translate(2.327 2.325)">
    <g id="Group">
      <g id="Group-2" data-name="Group" transform="translate(219.848 259.992)">
        <path id="Path" d="M.441.49A.3.3,0,0,0,.441.4a.95.95,0,0,1,0-.117V.207A2.4,2.4,0,0,0,.49.451.088.088,0,0,1,.441.49Z" transform="translate(38.87 47.102)" fill="#fff"/>
        <path id="Path-2" data-name="Path" d="M39.234,47.3c-4.108,4.157-8.177,8.782-12.514,12.983q-1.789,1.752-3.661,3.386c-1.386,1.21-2.815,2.361-4.278,3.415a6.281,6.281,0,0,0-.389-.893c-2.455-4.879-9.116-7.967-9.942-13.5-.754-5.167,3.889-9.914,3.131-14.978C10.725,31.99,3.7,28.589,2.407,22.993c-.826-3.474-.088-7.479-.389-11.06A73.013,73.013,0,0,0,0,.067C.486.033.972.018,1.459,0c9.869-.166,19.583,5.4,22.777,13.212,2.572,6.343,1.264,13.617,4.682,19.545a9.275,9.275,0,0,0,.7,1.1,20.863,20.863,0,0,0,1.459,1.786l1.084,1.132c.18.181.379.346.559.542s.374.366.554.561a25.187,25.187,0,0,1,4.565,5.23,4.528,4.528,0,0,1,.272.527,4.965,4.965,0,0,1,.272.561c.1.21.18.41.253.6s.165.488.243.693c.107.366.209.712.287,1.073a.648.648,0,0,0,.029.244c.029.073,0,.059,0,.093a.186.186,0,0,1,0,.088.25.25,0,0,0,.029.151v.029a.23.23,0,0,0,.015.127Z" transform="translate(0 0)" fill="#21dc72"/>
        <path id="Path-3" data-name="Path" d="M.476.478H.49L.476.493Z" transform="translate(38.821 47.129)" fill="#fff"/>
        <path id="Path-4" data-name="Path" d="M.142.475C.264.368.366.295.487.187c-.1.093-.224.2-.331.3H.128Z" transform="translate(39.184 47.102)" fill="#fff"/>
        <path id="Path-5" data-name="Path" d="M27.58,10.3a41.617,41.617,0,0,0,0,5.108c-2.966.727-5.888,1.527-8.751,2.493-1.779.59-3.525,1.239-5.27,1.981A58.894,58.894,0,0,0,0,27.644a15.954,15.954,0,0,0,1.886-5.006A1.679,1.679,0,0,1,1.93,22.4c.754-3.654.812-7.494,2.528-10.987C7.652,4.972,16.992.3,26.768,0h.18c.89,0,1.794,0,2.7.044A55.121,55.121,0,0,0,27.58,10.3Z" transform="translate(46.298 13.255)" fill="#21dc72"/>
      </g>
      <path id="Path-6" data-name="Path" d="M.455.5A1.755,1.755,0,0,1,.5.25" transform="translate(267.38 295.426)" fill="none"/>
      <path id="Path-7" data-name="Path" d="M18.834,25.191a1.151,1.151,0,0,1-.044.24,15.869,15.869,0,0,1-1.913,5.021,15.341,15.341,0,0,1-1.144,1.56,38.083,38.083,0,0,1-5.177,4.5,4.005,4.005,0,0,1-.385.318c-.1.093-.227.2-.335.3h-.03a.087.087,0,0,0,0-.059.787.787,0,0,0-.049-.152v-.073a.141.141,0,0,1,0-.078v-.029a.315.315,0,0,0-.03-.152.184.184,0,0,0,0-.088.1.1,0,0,0,0-.093,1.853,1.853,0,0,0-.044-.244c-.079-.362-.182-.709-.291-1.076-.079-.225-.153-.489-.247-.694s-.153-.4-.256-.606a2.572,2.572,0,0,0-.276-.562,4.519,4.519,0,0,0-.276-.528,25.331,25.331,0,0,0-4.63-5.241c-.182-.2-.38-.4-.562-.562s-.385-.362-.567-.543l-1.1-1.134A20.957,20.957,0,0,1,0,23.427S1.006,5.944,10.033.63c8.525-5.031,8.8,21.608,8.8,24.561Z" transform="translate(249.27 270.799)" fill="#21dc72"/>
      <path id="Path-8" data-name="Path" d="M.455.5A1.755,1.755,0,0,1,.5.25" transform="translate(267.38 295.426)" fill="none"/>
      <g id="Group-3" data-name="Group" transform="translate(225.846 266.592)">
        <path id="Path-9" data-name="Path" d="M.489.416V.489A.3.3,0,0,0,.489.4a.941.941,0,0,1,0-.117V.206Q.484.311.489.416Z" transform="translate(32.569 40.508)" fill="#fff"/>
        <path id="Path-10" data-name="Path" d="M9.644,0,5.291,12.254C3.5,12.843,1.752,13.491,0,14.23A63.682,63.682,0,0,1,9.644,0Z" transform="translate(53.669 12.318)" fill="#fff"/>
        <path id="Path-11" data-name="Path" d="M.492.489A.971.971,0,0,0,.448.2C.477.382.492.489.492.489Z" transform="translate(32.614 40.528)" fill="#fff"/>
        <path id="Path-12" data-name="Path" d="M0,0C9.761,12.619,16.243,34.067,20.431,53.646q-1.8,1.747-3.675,3.377Z" transform="translate(0 0)" fill="#fff"/>
        <path id="Path-13" data-name="Path" d="M1.887,0a43.3,43.3,0,0,0-1.8,15.744,31.687,31.687,0,0,0,.39,3.665Z" transform="translate(32.58 21.277)" fill="#fff"/>
      </g>
      <g id="Group-4" data-name="Group" transform="translate(0 13.267)">
        <path id="Path-14" data-name="Path" d="M.442.489A.3.3,0,0,0,.442.4a.944.944,0,0,1,0-.117V.207A2.388,2.388,0,0,0,.491.45.088.088,0,0,1,.442.489Z" transform="translate(258.522 294.002)" fill="none" stroke="#ccdde2" stroke-miterlimit="10" stroke-width="4.65"/>
        <path id="Path-15" data-name="Path" d="M39.325,47.2c-4.118,4.148-8.2,8.763-12.543,12.955q-1.793,1.748-3.669,3.379c-1.389,1.207-2.821,2.356-4.288,3.408a6.254,6.254,0,0,0-.39-.891C15.973,61.184,9.3,58.1,8.469,52.582c-.755-5.156,3.9-9.893,3.138-14.946-.858-5.715-7.894-9.109-9.2-14.693-.828-3.466-.088-7.463-.39-11.037A72.559,72.559,0,0,0,0,.067C.487.033.975.018,1.462,0c9.892-.166,19.628,5.384,22.83,13.184,2.578,6.329,1.267,13.588,4.693,19.5a9.249,9.249,0,0,0,.7,1.1,20.836,20.836,0,0,0,1.462,1.782L32.23,36.7c.18.18.38.346.56.54s.375.365.556.56a25.167,25.167,0,0,1,4.576,5.219,4.513,4.513,0,0,1,.273.526,4.945,4.945,0,0,1,.273.56c.1.209.18.409.253.6s.166.487.244.691c.107.365.21.711.288,1.071a.644.644,0,0,0,.029.243c.029.073,0,.058,0,.092a.185.185,0,0,1,0,.088.248.248,0,0,0,.029.151v.029a.229.229,0,0,0,.015.127Z" transform="translate(219.562 247.001)" fill="none" stroke="#ccdde2" stroke-miterlimit="10" stroke-width="4.65"/>
        <path id="Path-16" data-name="Path" d="M8.864,0A15.876,15.876,0,0,1,6.973,4.98,15.273,15.273,0,0,1,5.843,6.533,37.723,37.723,0,0,1,.726,11.012a3.966,3.966,0,0,1-.38.316c-.122.107-.224.18-.346.287" transform="translate(258.994 282.831)" fill="none" stroke="#ccdde2" stroke-miterlimit="10" stroke-width="4.65"/>
        <path id="Path-17" data-name="Path" d="M25.71,15.373a41.342,41.342,0,0,1,0-5.1A54.787,54.787,0,0,1,27.781.052c-.906-.058-1.813-.058-2.7-.044H24.9C15.1.31,5.735,4.969,2.534,11.4.814,14.881.755,18.7,0,22.359" transform="translate(267.887 260.234)" fill="none" stroke="#ccdde2" stroke-miterlimit="10" stroke-width="4.65"/>
        <path id="Path-18" data-name="Path" d="M.447.489A1.726,1.726,0,0,1,.491.246" transform="translate(267.416 282.346)" fill="none" stroke="#ccdde2" stroke-miterlimit="10" stroke-width="4.65"/>
        <path id="Path-19" data-name="Path" d="M18.615,25.086a1.154,1.154,0,0,1-.044.239,15.876,15.876,0,0,1-1.891,5,15.273,15.273,0,0,1-1.131,1.553,37.723,37.723,0,0,1-5.117,4.479,3.965,3.965,0,0,1-.38.316c-.1.092-.224.195-.331.3H9.692a.088.088,0,0,0,0-.058.788.788,0,0,0-.049-.151v-.073a.141.141,0,0,1,0-.078v-.029a.315.315,0,0,0-.029-.151.185.185,0,0,0,0-.088.1.1,0,0,0,0-.093,1.858,1.858,0,0,0-.044-.243c-.078-.36-.18-.706-.288-1.071-.078-.224-.151-.487-.244-.691s-.151-.394-.253-.6a2.57,2.57,0,0,0-.273-.56,4.512,4.512,0,0,0-.273-.526A25.167,25.167,0,0,0,3.664,27.34c-.18-.195-.375-.394-.556-.56s-.38-.36-.56-.54L1.462,25.111A20.836,20.836,0,0,1,0,23.329S.994,5.92,9.916.628c8.425-5.01,8.7,21.518,8.7,24.459Z" transform="translate(249.287 257.486)" fill="none" stroke="#ccdde2" stroke-miterlimit="10" stroke-width="4.65"/>
        <path id="Path-20" data-name="Path" d="M.447.489A1.726,1.726,0,0,1,.491.246" transform="translate(267.416 282.346)" fill="none" stroke="#ccdde2" stroke-miterlimit="10" stroke-width="4.65"/>
        <path id="Path-21" data-name="Path" d="M.488.416V.489A.3.3,0,0,0,.488.4a.944.944,0,0,1,0-.117V.207Q.483.311.488.416Z" transform="translate(258.462 294.016)" fill="none" stroke="#ccdde2" stroke-miterlimit="10" stroke-width="4.65"/>
        <path id="Path-22" data-name="Path" d="M9.629,0A63.559,63.559,0,0,0,0,14.255" transform="translate(279.529 265.816)" fill="#f16623" stroke="#ccdde2" stroke-miterlimit="10" stroke-width="4.65"/>
        <path id="Path-23" data-name="Path" d="M.491.489A.973.973,0,0,0,.447.2C.477.382.491.489.491.489Z" transform="translate(258.508 294.036)" fill="none" stroke="#ccdde2" stroke-miterlimit="10" stroke-width="4.65"/>
        <path id="Path-24" data-name="Path" d="M0,0C9.746,12.624,16.217,34.079,20.4,53.664" transform="translate(225.946 253.494)" fill="#22d481" stroke="#ccdde2" stroke-miterlimit="10" stroke-width="4.65"/>
        <path id="Path-25" data-name="Path" d="M1.884,0A43.4,43.4,0,0,0,.091,15.749a31.757,31.757,0,0,0,.39,3.666" transform="translate(258.474 274.779)" fill="none" stroke="#ccdde2" stroke-miterlimit="10" stroke-width="4.65"/>
        <path id="Path-26" data-name="Path" d="M150.813,0c6.2,23.212,12.6,48.221,12.075,72.081-.56,25.145-13.376,46.249-36.338,56.96-14.945,6.967-31.011,8.247-46.152,11.913-2.972.725-5.9,1.524-8.771,2.488-1.784.589-3.533,1.237-5.282,1.977a59.1,59.1,0,0,0-13.576,7.75,54.773,54.773,0,0,0-4.386,3.724c-.877.828-1.749,1.689-2.627,2.58s0,.029-.029.044h0c-4.118,4.148-8.2,8.763-12.543,12.955q-1.793,1.748-3.669,3.379c-1.389,1.207-2.821,2.356-4.288,3.408a35.73,35.73,0,0,1-16.709,7.054,82.009,82.009,0,0,1-8.381.638.22.22,0,0,1-.136,0" transform="translate(213.198 134.643)" fill="none" stroke="#ccdde2" stroke-miterlimit="10" stroke-width="4.65"/>
        <path id="Path-27" data-name="Path" d="M116.071,2.525s-28.926-6.6-53,1.534A53.425,53.425,0,0,0,54.384,7.8C40.74,15.173,30.444,29.034,31.2,54.208A166.126,166.126,0,0,1,28.241,92.9q-1.272,6.124-3.143,12.122a109.7,109.7,0,0,1-13.1,27.633c-17.952,27.195-15.233,55.46,4.678,81.672,1.043,1.373,2.115,2.731,3.216,4.06" transform="translate(0 0)" fill="none" stroke="#ccdde2" stroke-miterlimit="10" stroke-width="4.65"/>
      </g>
      <rect id="Rectangle" width="252.281" height="242.085" rx="76.3" transform="translate(111.978 3.465)" fill="#3fbdf1"/>
      <rect id="Rectangle-2" data-name="Rectangle" width="256.246" height="245.551" rx="81.37" transform="translate(108.013)" fill="none" stroke="#000" stroke-miterlimit="10" stroke-width="4.65"/>
      <rect id="Rectangle-3" data-name="Rectangle" width="242.368" height="232.184" rx="76.3" transform="translate(116.934 8.416)" fill="#3fbdf1"/>
      <path id="Shape" d="M12.5,144.063c-6.9,0-12.5-6.023-12.5-13.431V13.4C0,6.008,5.6,0,12.5,0H63.3c6.917,0,12.538,6.008,12.538,13.4v117.23c0,7.408-5.621,13.431-12.538,13.431Z" transform="translate(267.113 20.793)" fill="#d7e8f0"/>
      <path id="Shape-2" data-name="Shape" d="M12.5,44.556c-6.9,0-12.5-6.008-12.5-13.4V13.368C0,5.993,5.606,0,12.5,0H63.3c6.917,0,12.538,5.993,12.538,13.368V31.154c0,7.394-5.621,13.4-12.538,13.4Z" transform="translate(266.618 178.717)" fill="#d7e8f0"/>
      <path id="Path-28" data-name="Path" d="M77.227,6.931,2.967,5.87A2.974,2.974,0,0,1,0,2.89a2.7,2.7,0,0,1,.117-.8A3.028,3.028,0,0,1,3.06,0L77.32,1.052a5.423,5.423,0,0,0-.9,2.809,5.482,5.482,0,0,0,.807,3.07Z" transform="translate(138.743 184.658)" fill="#3fbdf1"/>
      <path id="Path-29" data-name="Path" d="M8.284,3.83A3.041,3.041,0,0,1,5.361,5.941L0,5.865A5.441,5.441,0,0,0,.093,0L5.453.076A2.99,2.99,0,0,1,8.426,3.053a2.73,2.73,0,0,1-.141.776Z" transform="translate(225.975 185.648)" fill="#d7e8f0"/>
      <path id="Path-30" data-name="Path" d="M76.707,4.823A3.018,3.018,0,0,1,73.79,6.931L0,5.875A5.455,5.455,0,0,0,.812,0L73.858,1.018A2.99,2.99,0,0,1,76.824,4.01a2.717,2.717,0,0,1-.117.813Z" transform="translate(157.081 197.035)" fill="#d7e8f0"/>
      <path id="Path-31" data-name="Path" d="M9.417,5.941l-6.51-.095A2.94,2.94,0,0,1,0,2.888,3.043,3.043,0,0,1,.119,2.08,2.929,2.929,0,0,1,2.974,0l5.8.09a5.64,5.64,0,0,0-.561,2.235,5.439,5.439,0,0,0,1.2,3.615Z" transform="translate(138.743 196.54)" fill="#3fbdf1"/>
      <path id="Path-32" data-name="Path" d="M71.868,6.931l-68.9-.988A3.013,3.013,0,0,1,0,2.926a2.614,2.614,0,0,1,.126-.787A3.03,3.03,0,0,1,3.045,0l68.8,1a5.551,5.551,0,0,0,0,5.933Z" transform="translate(138.743 208.421)" fill="#3fbdf1"/>
      <path id="Path-33" data-name="Path" d="M24.184,4.236a3.015,3.015,0,0,1-2.913,2.2L10.465,6.291.858,6.157A5.954,5.954,0,0,1,.858,0l9.787.149,10.68.159a3.051,3.051,0,0,1,2.961,3.116,2.971,2.971,0,0,1-.1.811Z" transform="translate(210.115 209.411)" fill="#d7e8f0"/>
      <path id="Path-34" data-name="Path" d="M10.5,8.761A5.69,5.69,0,1,1,11.4,5.9a5.7,5.7,0,0,1-.9,2.866Z" transform="translate(215.567 183.173)" fill="#fff"/>
      <path id="Path-35" data-name="Path" d="M5.445,1.746a3.612,3.612,0,0,1-.957,1.828,6.255,6.255,0,0,1-.782.712c-.155.107-.962.736-1.118.658A4.838,4.838,0,0,1,.021,1.828a2.215,2.215,0,0,1,0-.6A1.493,1.493,0,0,1,1.525,0,1.515,1.515,0,0,1,2.713.639,1.588,1.588,0,0,1,3.951.088,1.572,1.572,0,0,1,5.067.6a1.485,1.485,0,0,1,.378,1.143Z" transform="translate(218.541 186.638)" fill="#3fbdf1" opacity="0.72"/>
      <path id="Path-36" data-name="Path" d="M10.063,9.34A5.681,5.681,0,0,1,1.221,9.2,5.618,5.618,0,0,1,0,5.49a5.833,5.833,0,0,1,.572-2.3A5.709,5.709,0,0,1,5.909,0a5.643,5.643,0,0,1,4.979,3.355,5.672,5.672,0,0,1-.81,6Z" transform="translate(147.168 193.569)" fill="#fff"/>
      <path id="Path-37" data-name="Path" d="M5.439,1.741a3.643,3.643,0,0,1-.961,1.828,5.336,5.336,0,0,1-.781.714c-.15.108-.961.743-1.111.66A4.845,4.845,0,0,1,.021,1.819a2.241,2.241,0,0,1,0-.606A1.482,1.482,0,0,1,1.177.034a1.518,1.518,0,0,1,1.555.6,1.522,1.522,0,0,1,1.8-.495,1.46,1.46,0,0,1,.9,1.6Z" transform="translate(150.142 197.035)" fill="#3fbdf1" opacity="0.72"/>
      <path id="Path-38" data-name="Path" d="M10.476,8.826A5.712,5.712,0,0,1,0,5.5a5.776,5.776,0,0,1,.85-2.814,5.709,5.709,0,1,1,9.623,6.143Z" transform="translate(210.115 206.936)" fill="#fff"/>
      <path id="Path-39" data-name="Path" d="M5.441,1.736A3.638,3.638,0,0,1,4.48,3.57a5.337,5.337,0,0,1-.781.714c-.15.108-.961.738-1.111.66A4.857,4.857,0,0,1,.021,1.819a2.236,2.236,0,0,1,0-.606A1.483,1.483,0,0,1,1.177.034a1.518,1.518,0,0,1,1.556.6,1.522,1.522,0,0,1,1.8-.494,1.461,1.461,0,0,1,.9,1.6Z" transform="translate(213.089 210.401)" fill="#3fbdf1" opacity="0.72"/>
      <path id="Path-40" data-name="Path" d="M0,11.379.128,29.005a11.934,11.934,0,0,0,11.59,11.782l17.509.3A11.222,11.222,0,0,0,40.641,29.711l-.132-17.626A11.919,11.919,0,0,0,28.924.308L11.415,0A11.222,11.222,0,0,0,0,11.379Z" transform="translate(138.247 23.763)" fill="#fff"/>
      <path id="Path-41" data-name="Path" d="M0,3.657.093,16.321a10.308,10.308,0,0,0,10.037,10.15l15.165.261a9.792,9.792,0,0,0,7.037-2.827,9.625,9.625,0,0,0,2.858-6.975v-.856c-2.13-4.321-6.278-10.788-10.724-6.922-6.381,5.559-9.3,1.329-13.02-4.128C8.34.457,3.617-2.878,0,3.657Z" transform="translate(140.725 35.644)" fill="#3fbdf1"/>
      <ellipse id="Oval" cx="4.187" cy="4.296" rx="4.187" ry="4.296" transform="matrix(0.833, -0.553, 0.553, 0.833, 161.15, 32.754)" fill="#2b7cff"/>
      <path id="Path-42" data-name="Path" d="M101.148,0a13.174,13.174,0,0,0-8.36,23.4L58.138,93.764a5.56,5.56,0,0,0-.644-.063,5.877,5.877,0,0,0-1.63.253l-22.542-27.9a8.631,8.631,0,1,0-11.908,2.023l-15.8,44.791a5.955,5.955,0,1,0,4.358,1.522l15.8-44.8c.2,0,.386.029.581.029a8.685,8.685,0,0,0,3.416-.7L52.306,96.813a5.852,5.852,0,0,0-.732,2.8,5.963,5.963,0,1,0,11.922,0,5.865,5.865,0,0,0-1.279-3.637l34.65-70.361A13.2,13.2,0,0,0,113.362,7.849,13.233,13.233,0,0,0,101.148,0Z" transform="translate(138.743 42.08)" fill="#d7e8f0"/>
      <g id="Group-5" data-name="Group" transform="translate(281.574 67.392)">
        <path id="Path-43" data-name="Path" d="M0,.491H46.1" transform="translate(0 -0.491)" fill="none" stroke="#fff" stroke-miterlimit="10" stroke-width="4.65"/>
        <path id="Path-44" data-name="Path" d="M0,.491H46.1" transform="translate(0 6.635)" fill="none" stroke="#fff" stroke-miterlimit="10" stroke-width="4.65"/>
        <path id="Path-45" data-name="Path" d="M0,.491H46.1" transform="translate(0 13.756)" fill="none" stroke="#fff" stroke-miterlimit="10" stroke-width="4.65"/>
        <path id="Path-46" data-name="Path" d="M0,.491H46.1" transform="translate(0 20.876)" fill="none" stroke="#fff" stroke-miterlimit="10" stroke-width="4.65"/>
        <path id="Path-47" data-name="Path" d="M0,.491H46.1" transform="translate(0 28.002)" fill="none" stroke="#fff" stroke-miterlimit="10" stroke-width="4.65"/>
        <path id="Path-48" data-name="Path" d="M0,.491H46.1" transform="translate(0 69.599)" fill="none" stroke="#fff" stroke-miterlimit="10" stroke-width="4.65"/>
        <path id="Path-49" data-name="Path" d="M0,.491H46.1" transform="translate(0 75.884)" fill="none" stroke="#fff" stroke-miterlimit="10" stroke-width="4.65"/>
      </g>
      <path id="Path-50" data-name="Path" d="M28.277,1.159a4.067,4.067,0,0,1,1.461,3.184l-.107,14.345a4.1,4.1,0,0,1-4.14,4.084L4.062,22.587A4.11,4.11,0,0,1,0,18.434L.127,4.079A4.231,4.231,0,0,1,4.262,0L25.691.186a4.018,4.018,0,0,1,2.586.973Z" transform="translate(289.913 191.094)" fill="#fff"/>
      <path id="Path-51" data-name="Path" d="M21.556,1.449l-10.1,8.775a.707.707,0,0,1-.925,0L.252,1.265a.722.722,0,0,1-.2-.811A.708.708,0,0,1,.745,0L21.123.185a.71.71,0,0,1,.646.482.722.722,0,0,1-.213.783Z" transform="translate(293.382 193.074)" fill="#eab308"/>
      <g id="Group-6" data-name="Group" transform="translate(18.215 35.053)">
        <path id="Shape-3" data-name="Shape" d="M3.161,18.408a10.816,10.816,0,1,1,7.645,3.163A10.771,10.771,0,0,1,3.161,18.408Z" transform="translate(276.464 72.303)" fill="#eab308"/>
        <ellipse id="Oval-2" data-name="Oval" cx="9.702" cy="9.685" rx="9.702" ry="9.685" transform="translate(212.102 10.663)" fill="#eab308"/>
        <ellipse id="Oval-3" data-name="Oval" cx="3.242" cy="3.236" rx="3.242" ry="3.236" transform="translate(283.958)" fill="#ec4899"/>
        <path id="Path-52" data-name="Path" d="M0,9.038a9.054,9.054,0,0,1,18.108,0Z" transform="translate(278.146 8.833)" fill="#ec4899"/>
        <path id="Path-53" data-name="Path" d="M224.842,312.763a3.616,3.616,0,0,1-2.355,3.378l-33.958,12.654s-1.619-3-4.442-8.006L164.692,288.4c-5.241,26.914-11.087,53.862-14.71,70.658l-3.491,16.723,13.993,4.594a3.852,3.852,0,1,1-1.843,7.48l-32.432-8.206v-7.914l-.77-.151.668-92.311-31.691-7.48c-3.974,1.236-8.171,2.37-12.462,3.29a.966.966,0,0,0-.137.029,75.545,75.545,0,0,1-31.9,1.372,1.443,1.443,0,0,1-.288-.063c-.77-.146-1.541-.316-2.3-.487-.229-.044-.453-.088-.683-.151-.663-.151-1.326-.346-1.989-.526-.366-.107-.726-.195-1.073-.3s-.6-.195-.907-.3A43.067,43.067,0,0,1,27.2,265.968a39.177,39.177,0,0,1-8.649-10.24c-.975-1.538-1.887-3.154-2.735-4.813-5.149-10.148-6.221-13.6-4.724-13.691a62.672,62.672,0,0,1-9.546-4.283S-5.2,193.689,9.5,154.185a27.256,27.256,0,0,1,.151-7.344c3.1-22.164,20.136-44.946,40.467-54.174,10.892-4.945,28.654-12.532,22.915-27.639-1.814-4.779-4.388-8.9-4.876-13.856-.044-.487-.1-.92-.137-1.4A26.41,26.41,0,0,1,85.045,23a27.122,27.122,0,0,1,22.311,1.46,11.094,11.094,0,0,1,3.111,2.433c3.354.088,7.567.676,9.546,1.6a20,20,0,0,1,8.05,7.4,28.26,28.26,0,0,1,4.188,19.438,27.842,27.842,0,0,1-3.93,10.551,28.274,28.274,0,0,1-3.442,4.5c-1.136,1.188-2.75,2.92-4.305,3.558a.1.1,0,0,0,.122,0l-.453,7.237c9.312-2.117,34.192-10.839,52.432-46.849,1.316-2.789,2.672-5.563,4.1-8.308,4.212-8.172,8.727-16.3,14.71-23.327,1.463-1.7,3.627-3.241,5.953-2.5,2.038.647,3.413,2.92,1.994,4.828l-9.79,13.355,3.125-.4a2.4,2.4,0,0,1,1.648,3.285l-1.979,4.692.936-1.1a3.859,3.859,0,0,1,6.09,4.731L194.3,36.23a7.569,7.569,0,0,1-2.569,2.093l-10.209,4.916a127.225,127.225,0,0,1,8.41,11.6,199.459,199.459,0,0,1-19.634,30.457c-12.569,16.163-30.667,34.229-52.763,41.782a167.552,167.552,0,0,1-6.523,39.549h33.456l8.337-22.709a5.445,5.445,0,0,1,5.119-3.572h33.324a4.566,4.566,0,0,1,1.692.331,4.463,4.463,0,0,1,2.764,4.117,4.548,4.548,0,0,1-.3,1.582l-2.209,5.733h-9.468L179.9,163.037l1.087-2.76h4.7a4.459,4.459,0,0,1,4.12,6.181l-4,9.559a18.6,18.6,0,0,1-13.983,11.131l-.424.073-.785,2.317.4-.8c-.132.316-.283.662-.419,1.042h10.541s-2.34,6.814-6.645,7.223a4.748,4.748,0,0,1-1.043-.034H151.606c1.224,1.358,2.6,3,4.066,4.935,6.338-.092,15.558.584,17.84,5a11.6,11.6,0,0,1,1.073,1.4c.873,1.46,1.16,4.867.951,9.787a79.222,79.222,0,0,1-1.273,15.136q1.658,3.105,3.189,6.244a135.01,135.01,0,0,1,6,12.742,2.153,2.153,0,0,1,.151.36,374.331,374.331,0,0,1,13.988,37.32l.224.784c3.023,8.9,5.485,16.981,6.421,21.9l15.846-3.241a3.622,3.622,0,0,1,4.763,3.421Z" transform="translate(0 14.474)" fill="#f16623"/>
      </g>
      <g id="Group-7" data-name="Group" transform="translate(155.56 190.706)">
        <path id="Path-54" data-name="Path" d="M32.607,2.5H43.144A18.93,18.93,0,0,1,41.5,5.907c-1.3,2.034-3.309,4.16-5.966,3.8H3.569A5.616,5.616,0,0,1,.128,8.559a5.665,5.665,0,0,1,.18-3.041C13.219,3.542,26.447,1.416,32.363.195L33.479,0Z" transform="translate(0 46.879)" fill="#ec4899"/>
        <path id="Path-55" data-name="Path" d="M47.792,1.051a4.548,4.548,0,0,1-.3,1.581l-2.2,5.727h-9.4l-3.86,11-1.4,3.513H0l7.1-19.3A5.458,5.458,0,0,1,12.219,0H45.526a4.529,4.529,0,0,1,1.691.331,5.585,5.585,0,0,1,.546.258c.015.146.029.311.029.462Z" transform="translate(9.91 3.407)" fill="#ec4899"/>
        <path id="Path-56" data-name="Path" d="M11.9,4.453a4.568,4.568,0,0,1-.3,1.581L9.392,11.761H0L3.265,2.915A4.456,4.456,0,0,1,11.9,4.453Z" transform="translate(45.805 0)" fill="#ec4899"/>
        <path id="Path-57" data-name="Path" d="M11.179.019S8.157,8.885,2.669,6.978C-.742,5.805-.231,2.414.661,0Z" transform="translate(31.96 49.361)" fill="#ec4899"/>
      </g>
      <path id="Path-58" data-name="Path" d="M15.365.5H0" transform="translate(175.42 201.733)" fill="none" stroke="#fff" stroke-linecap="round" stroke-linejoin="round" stroke-miterlimit="10" stroke-width="4.65"/>
      <path id="Path-59" data-name="Path" d="M15.365.5H0" transform="translate(173.933 207.674)" fill="none" stroke="#fff" stroke-linecap="round" stroke-linejoin="round" stroke-miterlimit="10" stroke-width="4.65"/>
      <path id="Path-60" data-name="Path" d="M173.011,60.108a149.846,149.846,0,0,0-9.263-18.593c1.424-7.528,2.394-20.714-.692-26.7-2.282-4.423-11.491-5.095-17.849-5A65.69,65.69,0,0,0,136.329,0s-29.555,4.778-36.3,4.817-6.743,3.771-6.743,3.771-4.7,14.155-10.014,21.186S63.66,45.345,43.062,48.635s-36.8-.764-40.515-2.827-3.837-.073,2.813,13S22.248,81.285,39.444,84.384a75.43,75.43,0,0,0,31.89-1.372s27.21-6.846,35.191-12.067,9.229,1.878,9.229,1.878l-.78,106.651,21.062,4.194,18.2-87.357,19.4,32.407,20.16-8.272C191.421,108,179.228,75.193,173.011,60.108Z" transform="translate(28.215 242.085)" fill="#2e2e2e"/>
      <path id="Path-61" data-name="Path" d="M23.707,38.873a15.807,15.807,0,0,1-3.618,7.986,16.211,16.211,0,0,1-5.536,4.521,9.833,9.833,0,0,1-1.574.6c0-1.682-.029-3.392-.121-5.059-.344-6.246-1.6-12.749-5.579-17.552A19.485,19.485,0,0,0,.223,24.04c.077-1.153.17-2.3.242-3.45a26.988,26.988,0,0,0-.029-5.931A19.923,19.923,0,0,1,0,11.024C.044,9.886-.121,5.515.78,4.57a12.586,12.586,0,0,0,4.741.969C9.168,5.51,12.064,3.271,14.016.407A8.4,8.4,0,0,1,16.234,0C18.442.33,11.851,6.275,14,5.6c-1.4.431-2.422,2.534-3.08,3.736-.969,1.861-1.53,4.051-.581,6.019.93,1.88,2.877,3.5,4.257,5.045a66.529,66.529,0,0,1,5.211,6.188c2.547,3.547,4.407,7.9,3.9,12.284Z" transform="translate(122.386 120.795)" fill="#3fbdf1"/>
      <g id="Group-8" data-name="Group" transform="translate(35.029 84.336)">
        <path id="Path-62" data-name="Path" d="M22.693,0A29.4,29.4,0,0,1,32.8,2.473a19.635,19.635,0,0,1,7.1,5.356c4,4.83,5.27,11.359,5.616,17.635.093,1.69.137,3.408.122,5.083a164.488,164.488,0,0,1-6.616,43.942h67.453l1.4-3.51L109,68.155h4.729a4.465,4.465,0,0,1,4.124,6.188l-4,9.563a18.628,18.628,0,0,1-13.987,11.13l-.424.078-1.116.195c-5.918,1.222-19.15,3.35-32.064,5.327-11.812,1.826-23.367,3.515-28.832,4.3q-3.108.453-6.338.662c-12.758.784-25.931-2.05-29.344-16.554C-.474,79.753.014,69.737.116,60.068" transform="translate(54.578 57.872)" fill="none" stroke="#000" stroke-miterlimit="10" stroke-width="4.65"/>
        <path id="Path-63" data-name="Path" d="M0,.064c8.259-.38,15.659.842,18.833,6,1.6,2.61,1.209,11.812-.439,24.646" transform="translate(138.352 167.981)" fill="none" stroke="#000" stroke-miterlimit="10" stroke-width="4.65"/>
        <path id="Path-64" data-name="Path" d="M0,0A.321.321,0,0,1,.044.073c3.534,7.2,9.75,13.409,17.7,17.757C45.763,33.138,87.9,15.2,103.061,7.737a3.963,3.963,0,0,1,5.714,3.559V126.09l32.425,8.2a3.851,3.851,0,1,0,1.843-7.479l-13.987-4.6c.648-4.538,10.135-46.035,18.2-87.411" transform="translate(0 219.378)" fill="none" stroke="#000" stroke-miterlimit="10" stroke-width="4.65"/>
        <path id="Path-65" data-name="Path" d="M49.341,0c8.288,7.011,14.24,17.791,19.813,26.949,13.577,22.314,23.732,46.6,31.62,71.451,2.384,7.508,4.578,15.094,6.65,22.679l15.834-3.248a3.613,3.613,0,0,1,2.394,6.816L91.7,137.308S81.761,118.772,67.877,96.9C47.528,64.8,9.926,15.332,0,25.883" transform="translate(79.406 157.266)" fill="none" stroke="#000" stroke-miterlimit="10" stroke-width="4.65"/>
        <path id="Path-66" data-name="Path" d="M0,47.433S33.3,45.13,56.123,0c0,0,7.215,4.971,17.273,20.522,0,0-28.217,57.2-72.425,72.289" transform="translate(99.126 0)" fill="none" stroke="#000" stroke-miterlimit="10" stroke-width="4.65"/>
      </g>
      <path id="Path-67" data-name="Path" d="M0,0,1.927,2.963l1.161,1.8a88.586,88.586,0,0,1,3.1,8.493l.058.2,2.206,8.528a.039.039,0,0,1,0,.029,9.017,9.017,0,0,0,2.982,3.026,4.114,4.114,0,0,1,.8.57c1.325,1.345-2.168,1.735-2.89,2.178A2.444,2.444,0,0,0,8.3,29.778C4.152,47.238,6.821,42.652,5.038,46.536,6.585,45.21,10.428,41,10.428,41a6.745,6.745,0,0,0,1.248-1.74,31.017,31.017,0,0,0,2.558-4.873,25.794,25.794,0,0,0,1.445-16.119C13.689,9.887,9.051,1.506,0,0Z" transform="translate(131.308 79.21)" fill="#3fbdf1"/>
      <path id="Path-68" data-name="Path" d="M101.487,9.93a9.851,9.851,0,0,1-2.477,4.835,19.55,19.55,0,0,1-4.731,3.787c-3.319,1.979-7.013,3.475-9.8,6.146A15.349,15.349,0,0,0,79.8,34.91c-.195,3.968,1.222,8.076,2.083,11.791,2.73,12,1.854,23.542.346,35.625-1.431,11.4-4.478,22.557-10.386,32.481a62.229,62.229,0,0,1-31.29,25.867c-10.707,4-31.514,7.55-39.384-3.582a22.988,22.988,0,0,1-.847-11.323c3.091-22.216,20.1-45.017,40.4-54.259,10.873-4.952,28.6-12.561,22.875-27.695-1.825-4.772-4.38-8.89-4.867-13.877-.044-.453-.088-.907-.131-1.389A26.447,26.447,0,0,1,75.585,1.742,26.938,26.938,0,0,1,97.856,3.2a11.3,11.3,0,0,1,3.183,2.525,1.569,1.569,0,0,1,.165.224,3.709,3.709,0,0,1,.165.531,8.683,8.683,0,0,1,.117,3.446Z" transform="translate(29.206 74.259)" fill="#091926"/>
      <g id="Group-9" data-name="Group" transform="translate(26.817 71.518)">
        <path id="Path-69" data-name="Path" d="M.784,48.337c5.891-1.359,11.061-5.57,12.538-11.725,1.375-5.7-.8-11.555-4.17-16.141C6.027,16.234-.484,12.679.029,6.671a9.394,9.394,0,0,1,2.39-5.161C2.872.984,3.34.5,3.852,0" transform="translate(107.576 52.68)" fill="none" stroke="#000" stroke-miterlimit="10" stroke-width="4"/>
        <path id="Path-70" data-name="Path" d="M.49,0,.216,19.881" transform="translate(95.723 53.751)" fill="none" stroke="#000" stroke-miterlimit="10" stroke-width="4"/>
        <path id="Path-71" data-name="Path" d="M63.733,43.784c-1.819-4.772-4.389-8.886-4.877-13.863-.049-.458-.093-.915-.127-1.4A26.416,26.416,0,0,1,75.75,1.738,27.094,27.094,0,0,1,98.071,3.2a11.316,11.316,0,0,1,3.18,2.527L101.48,6a8.784,8.784,0,0,1,1.868,7.036,9.835,9.835,0,0,1-2.468,4.821,19.853,19.853,0,0,1-4.75,3.8c-3.326,1.977-7.023,3.462-9.827,6.13a15.3,15.3,0,0,0-4.672,10.225c-.2,3.964,1.224,8.063,2.073,11.783,2.736,11.993,1.863,23.513.351,35.579-1.434,11.389-4.482,22.54-10.412,32.453A62.267,62.267,0,0,1,42.29,143.671C31.352,147.741,9.9,151.345,2.369,139.43c-2.531-4-2.7-9.057-2.043-13.741,3.1-22.189,20.151-44.977,40.477-54.2C51.717,66.479,69.483,58.9,63.733,43.784Z" transform="translate(0 0)" fill="none" stroke="#000" stroke-miterlimit="10" stroke-width="4"/>
      </g>
      <ellipse id="Oval-4" data-name="Oval" cx="1.983" cy="1.98" rx="1.983" ry="1.98" transform="translate(130.812 98.022)"/>
      <g id="Group-10" data-name="Group" transform="translate(14.624 17.4)">
        <g id="Group-11" data-name="Group" transform="translate(0 32.921)">
          <g id="Group-12" data-name="Group" transform="translate(101.703 27.006)">
            <path id="Path-72" data-name="Path" d="M4.784,0S-1.635,2.89.4,8.51" transform="translate(11.079 16.508)" fill="none" stroke="#000" stroke-miterlimit="10" stroke-width="4"/>
            <path id="Path-73" data-name="Path" d="M21.794,46.966c1.608-.584,3.324-2.433,4.493-3.644a29.023,29.023,0,0,0,3.45-4.481,27.855,27.855,0,0,0-.268-29.985,19.851,19.851,0,0,0-8.036-7.4A15.354,15.354,0,0,0,12.461.195a27.066,27.066,0,0,1,4.552,4.739,22.364,22.364,0,0,1,4.074,8.806c.107.56.2,1.114.3,1.679.487,3.007.76,6.053,2.237,8.514a9.145,9.145,0,0,0,3.031,3.051,4.162,4.162,0,0,1,.809.569c1.34,1.343-2.193,1.727-2.924,2.17-1.876,1.095-1.179,4.238-1.428,6.057a20.177,20.177,0,0,1-1.886,6.111,16.755,16.755,0,0,1-1.145,1.975c-1.949,2.885-4.873,5.143-8.548,5.162a12.689,12.689,0,0,1-4.761-.973A18.382,18.382,0,0,1,0,43.3" transform="translate(0 0)" fill="none" stroke="#000" stroke-miterlimit="10" stroke-width="4"/>
            <path id="Path-74" data-name="Path" d="M6.335,3.274S1.915,5.79,0,0" transform="translate(11.93 33.625)" fill="none" stroke="#000" stroke-miterlimit="10" stroke-width="4"/>
          </g>
          <path id="Path-75" data-name="Path" d="M8.046,43.636,19.06,38.323a7.166,7.166,0,0,0,2.568-2.082L26.77,29.58a3.857,3.857,0,0,0-6.087-4.734l-.941,1.095,1.983-4.685a2.432,2.432,0,0,0-1.642-3.294l-3.134.414,9.8-13.356C28.134,3.126,26.784.84,24.752.193c-2.339-.744-4.5.793-5.955,2.5C12.822,9.714,8.295,17.839,4.089,26.013Q1.969,30.134,0,34.323" transform="translate(175.745 0)" fill="none" stroke="#000" stroke-linejoin="round" stroke-miterlimit="10" stroke-width="4"/>
          <g id="Group-13" data-name="Group" transform="translate(0 18.375)">
            <path id="Path-76" data-name="Path" d="M2.163,0S-4.226,7.935,4.956,7.566" transform="translate(190.536 0)" fill="none" stroke="#000" stroke-miterlimit="10" stroke-width="4"/>
            <path id="Path-77" data-name="Path" d="M1.892,0s-4.737,7.673.78,9.556,8.533-6.972,8.533-6.972H.557" transform="translate(173.019 168.742)" fill="none" stroke="#000" stroke-miterlimit="10" stroke-width="4"/>
            <path id="Path-78" data-name="Path" d="M21.969.491H0" transform="translate(154.638 178.03)" fill="none" stroke="#000" stroke-miterlimit="10" stroke-width="4"/>
            <path id="Path-79" data-name="Path" d="M11.9,4.452a4.567,4.567,0,0,1-.3,1.581l-2.2,5.727H0L3.26,2.915A4.455,4.455,0,0,1,11.9,4.452Z" transform="translate(186.89 121.946)" fill="none" stroke="#000" stroke-miterlimit="10" stroke-width="4"/>
            <path id="Path-80" data-name="Path" d="M5.361,11.755,0,26.259,8.319,3.571A5.453,5.453,0,0,1,13.451,0h33.3" transform="translate(147.571 121.951)" fill="none" stroke="#000" stroke-miterlimit="10" stroke-width="4"/>
            <path id="Path-81" data-name="Path" d="M0,14.5,5.331,0" transform="translate(181.559 133.706)" fill="none" stroke="#000" stroke-miterlimit="10" stroke-width="4"/>
            <path id="Path-82" data-name="Path" d="M9.5,0C-5.194,39.492,1.541,78.742,1.541,78.742,23.734,91.071,55.2,90,77.741,79.165c7.973-3.844,16.57-9.633,20.049-18.119,2.554-6.213,5.21-12.378,7.4-18.678" transform="translate(3.172 135.759)" fill="none" stroke="#000" stroke-miterlimit="10" stroke-width="4"/>
            <path id="Path-83" data-name="Path" d="M0,.491H129.306" transform="translate(0 258.489)" fill="none" stroke="#000" stroke-miterlimit="10" stroke-width="4"/>
            <path id="Path-84" data-name="Path" d="M1.394,0,0,4.7" transform="translate(112.736 148.224)" fill="none" stroke="#000" stroke-miterlimit="10" stroke-width="4"/>
            <path id="Path-85" data-name="Path" d="M7.544,16.888S1.852,6.748,0,0" transform="translate(13.051 218.354)" fill="none" stroke="#000" stroke-miterlimit="10" stroke-width="4"/>
          </g>
        </g>
        <g id="Group-14" data-name="Group" transform="translate(10.717 0)">
          <path id="Path-86" data-name="Path" d="M37.974,0V100.9H0q1.876-5.989,3.143-12.115A166.014,166.014,0,0,0,6.1,50.118C5.346,24.959,15.629,11.108,29.289,3.737A53.449,53.449,0,0,1,37.974,0Z" transform="translate(0)" fill="none" stroke="#ccdde2" stroke-miterlimit="10" stroke-width="4"/>
          <path id="Path-87" data-name="Path" d="M26.16,0V85.047H0A166.014,166.014,0,0,0,2.958,46.382C2.217,21.223,12.5,7.381,26.16,0Z" transform="translate(3.129 3.737)" fill="none" stroke="#ccdde2" stroke-miterlimit="10" stroke-width="4"/>
        </g>
      </g>
    </g>
  </g>
</svg>
