<?xml version="1.0" encoding="UTF-8"?>
<svg version="1.1" xmlns="http://www.w3.org/2000/svg" width="512" height="512">
<path d="M0 0 C1.01790619 0.00215515 2.03581238 0.0043103 3.08456421 0.00653076 C17.69363523 0.05620146 32.02575853 0.30709809 46.375 3.3125 C47.34985352 3.51117676 48.32470703 3.70985352 49.32910156 3.91455078 C97.7109774 14.03517194 141.69928269 35.9516877 177.375 70.3125 C178.3640332 71.26068604 178.3640332 71.26068604 179.37304688 72.22802734 C188.86130305 81.37247479 197.6012044 90.66984009 205.375 101.3125 C206.23306152 102.46355017 207.09113451 103.61459177 207.94921875 104.765625 C213.98736829 112.95680614 219.34595521 121.47054105 224.375 130.3125 C224.73948242 130.94430176 225.10396484 131.57610352 225.47949219 132.22705078 C247.08534998 169.97532572 256.85198095 212.74189997 256.6875 255.9375 C256.68534485 256.95540619 256.6831897 257.97331238 256.68096924 259.02206421 C256.63129854 273.63113523 256.38040191 287.96325853 253.375 302.3125 C253.07698486 303.77478027 253.07698486 303.77478027 252.77294922 305.26660156 C242.65232806 353.6484774 220.7358123 397.63678269 186.375 433.3125 C185.74287598 433.97185547 185.11075195 434.63121094 184.45947266 435.31054688 C175.31502521 444.79880305 166.01765991 453.5387044 155.375 461.3125 C154.22394983 462.17056152 153.07290823 463.02863451 151.921875 463.88671875 C143.73224019 469.92427396 135.22961724 475.30707302 126.375 480.3125 C125.66778809 480.7146875 124.96057617 481.116875 124.23193359 481.53125 C101.09654164 494.5566741 75.92537591 503.30551461 49.9375 508.625 C49.21860596 508.77235596 48.49971191 508.91971191 47.7590332 509.0715332 C33.08339502 511.86090125 18.55831162 512.66142619 3.64770508 512.62817383 C0.70811513 512.6250221 -2.2304558 512.64854926 -5.16992188 512.67382812 C-18.54306192 512.71848737 -31.43916711 511.51301542 -44.625 509.3125 C-46.33055054 509.03031616 -46.33055054 509.03031616 -48.07055664 508.74243164 C-91.33802759 500.97044532 -132.38793216 480.98345309 -165.625 452.3125 C-166.37007813 451.67828125 -167.11515625 451.0440625 -167.8828125 450.390625 C-181.38779833 438.57948485 -194.05918743 425.82889772 -204.625 411.3125 C-205.48149066 410.16255169 -206.33826433 409.01281411 -207.1953125 407.86328125 C-213.23534209 399.67315742 -218.61867614 391.16870382 -223.625 382.3125 C-224.0271875 381.60528809 -224.429375 380.89807617 -224.84375 380.16943359 C-237.8691741 357.03404164 -246.61801461 331.86287591 -251.9375 305.875 C-252.08485596 305.15610596 -252.23221191 304.43721191 -252.3840332 303.6965332 C-255.35789088 288.05024391 -255.99800362 272.57681954 -255.9375 256.6875 C-255.93534485 255.66959381 -255.9331897 254.65168762 -255.93096924 253.60293579 C-255.88129854 238.99386477 -255.63040191 224.66174147 -252.625 210.3125 C-252.42632324 209.33764648 -252.22764648 208.36279297 -252.02294922 207.35839844 C-241.90232806 158.9765226 -219.9858123 114.98821731 -185.625 79.3125 C-184.99287598 78.65314453 -184.36075195 77.99378906 -183.70947266 77.31445312 C-174.56502521 67.82619695 -165.26765991 59.0862956 -154.625 51.3125 C-153.47394983 50.45443848 -152.32290823 49.59636549 -151.171875 48.73828125 C-142.98224019 42.70072604 -134.47961724 37.31792698 -125.625 32.3125 C-124.91778809 31.9103125 -124.21057617 31.508125 -123.48193359 31.09375 C-100.34654164 18.0683259 -75.17537591 9.31948539 -49.1875 4 C-48.46860596 3.85264404 -47.74971191 3.70528809 -47.0090332 3.5534668 C-31.36274391 0.57960912 -15.88931954 -0.06050362 0 0 Z " fill="#EA1C80" transform="translate(255.625,-0.3125)"/>
<path d="M0 0 C1.01790619 0.00215515 2.03581238 0.0043103 3.08456421 0.00653076 C17.69363523 0.05620146 32.02575853 0.30709809 46.375 3.3125 C47.34985352 3.51117676 48.32470703 3.70985352 49.32910156 3.91455078 C97.7109774 14.03517194 141.69928269 35.9516877 177.375 70.3125 C178.3640332 71.26068604 178.3640332 71.26068604 179.37304688 72.22802734 C188.86130305 81.37247479 197.6012044 90.66984009 205.375 101.3125 C206.23306152 102.46355017 207.09113451 103.61459177 207.94921875 104.765625 C213.98736829 112.95680614 219.34595521 121.47054105 224.375 130.3125 C224.73948242 130.94430176 225.10396484 131.57610352 225.47949219 132.22705078 C239.52385444 156.7643986 254.375 190.49257291 254.375 219.3125 C250.5518693 217.81820776 249.03573643 215.72980749 246.73129845 212.39571953 C239.98561869 203.60802582 232.89775998 195.62971508 221.54578932 193.5953166 C210.19884637 192.1236487 198.68351401 192.45365382 187.26995301 192.67451334 C181.69005303 192.75795942 176.11091463 192.71269944 170.53067017 192.68385315 C160.88576657 192.6512455 151.24397238 192.69838618 141.59959793 192.80124283 C127.65642243 192.94982825 113.71508795 192.97574166 99.77121882 192.97267137 C77.14372582 192.97097758 54.51790893 193.06693349 31.89111328 193.22558594 C9.92429422 193.37937587 -12.04195363 193.48652849 -34.00927734 193.53125 C-34.68767326 193.53264952 -35.36606918 193.53404904 -36.06502256 193.53549097 C-42.87841973 193.54949581 -49.69181843 193.5625601 -56.50521875 193.57493567 C-113.54605063 193.67863015 -170.58532327 193.94052301 -227.625 194.3125 C-234.42106159 239.17754781 -243.35565921 298.62075621 -215.21964199 337.99512546 C-206.19252605 350.23550797 -195.75750257 361.23440646 -184.96484375 371.9140625 C-184.4449209 372.4298969 -183.92499805 372.9457313 -183.38931996 373.47719705 C-170.00701148 386.7280083 -156.08554252 399.33782361 -141.93037093 411.75331855 C-133.72984801 418.95626146 -125.69468743 426.31585217 -117.74682617 433.79638672 C-116.89592652 434.59711768 -116.89592652 434.59711768 -116.02783697 435.41402502 C-113.17989792 438.09569265 -110.33458803 440.78013012 -107.49072826 443.46612287 C-101.98123646 448.66884612 -96.45692159 453.85573222 -90.92469788 459.03427124 C-90.39154923 459.53338195 -89.85840059 460.03249266 -89.30909593 460.54672794 C-81.4689682 467.87970002 -73.55345617 475.12379916 -65.56785583 482.29800415 C-65.0710038 482.74445686 -64.57415176 483.19090957 -64.0622436 483.65089116 C-58.94653895 488.24485974 -53.81626071 492.82201572 -48.67153931 497.38345337 C-47.84946458 498.1155985 -47.02738985 498.84774363 -46.18040377 499.60207498 C-44.65568449 500.95945454 -43.12685088 502.31223182 -41.59322971 503.65954554 C-40.93200125 504.24890214 -40.27077279 504.83825874 -39.5895071 505.44547462 C-39.01287427 505.95467308 -38.43624144 506.46387153 -37.84213489 506.98850024 C-36.625 508.3125 -36.625 508.3125 -36.625 510.3125 C-83.78468609 505.49689825 -129.98089143 483.0598141 -165.625 452.3125 C-166.37007813 451.67828125 -167.11515625 451.0440625 -167.8828125 450.390625 C-181.38779833 438.57948485 -194.05918743 425.82889772 -204.625 411.3125 C-205.48149066 410.16255169 -206.33826433 409.01281411 -207.1953125 407.86328125 C-213.23534209 399.67315742 -218.61867614 391.16870382 -223.625 382.3125 C-224.0271875 381.60528809 -224.429375 380.89807617 -224.84375 380.16943359 C-237.8691741 357.03404164 -246.61801461 331.86287591 -251.9375 305.875 C-252.08485596 305.15610596 -252.23221191 304.43721191 -252.3840332 303.6965332 C-255.35789088 288.05024391 -255.99800362 272.57681954 -255.9375 256.6875 C-255.93534485 255.66959381 -255.9331897 254.65168762 -255.93096924 253.60293579 C-255.88129854 238.99386477 -255.63040191 224.66174147 -252.625 210.3125 C-252.42632324 209.33764648 -252.22764648 208.36279297 -252.02294922 207.35839844 C-241.90232806 158.9765226 -219.9858123 114.98821731 -185.625 79.3125 C-184.99287598 78.65314453 -184.36075195 77.99378906 -183.70947266 77.31445312 C-174.56502521 67.82619695 -165.26765991 59.0862956 -154.625 51.3125 C-153.47394983 50.45443848 -152.32290823 49.59636549 -151.171875 48.73828125 C-142.98224019 42.70072604 -134.47961724 37.31792698 -125.625 32.3125 C-124.91778809 31.9103125 -124.21057617 31.508125 -123.48193359 31.09375 C-100.34654164 18.0683259 -75.17537591 9.31948539 -49.1875 4 C-48.46860596 3.85264404 -47.74971191 3.70528809 -47.0090332 3.5534668 C-31.36274391 0.57960912 -15.88931954 -0.06050362 0 0 Z " fill="#FE405B" transform="translate(255.625,-0.3125)"/>
<path d="M0 0 C150.48 0 300.96 0 456 0 C456 40.92 456 81.84 456 124 C305.52 124 155.04 124 0 124 C0 83.08 0 42.16 0 0 Z " fill="#575072" transform="translate(28,194)"/>
<path d="M0 0 C4.27757185 3.51431883 7.96857889 7.28112898 11.3046875 11.69921875 C17.38147802 18.34129211 26.4056604 22.90109628 35.39892578 23.90551758 C37.83323092 24.00065756 40.24419411 23.9980458 42.6796875 23.94921875 C43.49501953 23.95244141 44.31035156 23.95566406 45.15039062 23.95898438 C49.88189811 23.91690953 53.49861067 23.20339824 57.9921875 21.63671875 C70.63961958 20.34338608 81.37440085 22.29581576 91.8671875 29.88671875 C99.76611338 36.61167583 103.98470089 43.77345621 106.9921875 53.63671875 C107.3221875 54.62671875 107.6521875 55.61671875 107.9921875 56.63671875 C108.14548103 58.63782073 108.29695711 60.63909926 108.43432617 62.64135742 C109.3374503 74.34820942 112.67438273 84.81767322 121.65625 93.02734375 C126.77082767 96.5510996 132.50126994 99.04374102 138.09179688 101.71533203 C148.56748882 106.79437384 155.82533384 113.09633727 160.9921875 123.63671875 C160.9921875 124.62671875 160.9921875 125.61671875 160.9921875 126.63671875 C38.2321875 126.63671875 -84.5278125 126.63671875 -211.0078125 126.63671875 C-209.20868317 117.64107208 -203.57867682 111.37887076 -196.25 106.0859375 C-192.05414618 103.3739832 -187.62591272 101.37221885 -183.0859375 99.30859375 C-171.86703666 94.00612818 -166.15432903 87.97229374 -161.0078125 76.63671875 C-159.31198656 71.54924093 -158.76653529 66.64641609 -158.1328125 61.32421875 C-156.41181791 48.09489395 -152.05572448 38.39174326 -141.6328125 29.82421875 C-131.29889061 22.24952431 -120.65774838 20.72095652 -108.0078125 21.63671875 C-107.08355469 21.9615625 -106.15929687 22.28640625 -105.20703125 22.62109375 C-95.11212134 25.82582705 -81.93640922 24.89158555 -72.546875 20.18359375 C-65.86406666 16.11222128 -60.7108966 11.51017209 -55.671875 5.55078125 C-41.219262 -11.07311634 -17.6909103 -12.86317104 0 0 Z " fill="#FFEB29" transform="translate(281.0078125,67.36328125)"/>
<path d="M0 0 C122.76 0 245.52 0 372 0 C370.32274213 8.38628934 364.63289321 15.67336609 357.58984375 20.5546875 C354.03546505 22.53827742 350.33735411 24.14867394 346.625 25.8125 C334.69585194 31.18532737 326.05757606 38.77568139 321.25 51.125 C320.03965299 55.00210059 319.7969268 58.63817131 319.625 62.6875 C318.90116295 75.57736747 314.23800588 86.00326098 305.0078125 94.92578125 C295.34337829 103.19188157 284.9879033 105.5797362 272.62890625 105.37109375 C269 105 269 105 266.109375 103.9921875 C261.92099372 102.65569398 258.05617149 102.67023252 253.6875 102.6875 C252.88376953 102.67138672 252.08003906 102.65527344 251.25195312 102.63867188 C241.51158575 102.6308357 232.64401839 105.97031276 225 112 C222.622658 114.42406932 220.37723493 116.95998461 218.125 119.5 C212.44816956 125.87516152 207.18452426 130.11204927 199 133 C197.94232422 133.38865234 197.94232422 133.38865234 196.86328125 133.78515625 C186.86933301 136.84618299 176.70287207 135.22730877 167.46875 130.78125 C160.10655873 126.69114374 153.99069187 121.14837905 149.0625 114.3125 C143.72667501 108.32990834 134.60673916 103.62271941 126.58203125 102.73144531 C124.0060952 102.63489748 121.45214754 102.63920263 118.875 102.6875 C118.00746094 102.68427734 117.13992187 102.68105469 116.24609375 102.67773438 C111.36575703 102.71858955 107.63097311 103.37631638 103 105 C89.50856035 106.22519938 79.23386117 104.03970822 68.22265625 95.85546875 C59.64987778 88.69893136 55.08071977 79.88160203 53 69 C52.82096838 66.8358236 52.67582404 64.66861003 52.5625 62.5 C51.89071447 51.80213231 48.21592027 43.86488954 41 36 C40.26716797 35.18595703 40.26716797 35.18595703 39.51953125 34.35546875 C35.24029079 30.18623447 29.99882714 28.02224113 24.62670898 25.59838867 C14.00945741 20.78602548 4.63635997 14.22977642 0 3 C0 2.01 0 1.02 0 0 Z " fill="#FEEA29" transform="translate(70,318)"/>
<path d="M0 0 C0 40.92 0 81.84 0 124 C-47.13691304 124 -47.13691304 124 -62.82055664 123.90820312 C-64.66894481 123.89825632 -66.5173335 123.88840815 -68.36572266 123.87864685 C-73.21645145 123.85276803 -78.06717192 123.82557313 -82.91789174 123.79807091 C-88.04929622 123.7692249 -93.18070775 123.74168749 -98.31211853 123.71398926 C-107.95452602 123.66175403 -117.59692699 123.60840512 -127.23932594 123.5546174 C-140.32185553 123.48170768 -153.4043949 123.41059683 -166.48693371 123.33936501 C-186.99129723 123.2276771 -207.49564706 123.11365374 -228 123 C-228 96.93 -228 70.86 -228 44 C-226.02 44 -224.04 44 -222 44 C-222 38.72 -222 33.44 -222 28 C-223.98 28 -225.96 28 -228 28 C-228 19.09 -228 10.18 -228 1 C-204.32633455 0.86828405 -180.65266267 0.7377957 -156.97898197 0.60884857 C-145.98199692 0.54892011 -134.98501437 0.48858998 -123.98803711 0.42724609 C-114.38095959 0.37365651 -104.77387793 0.3208899 -95.1667909 0.26903296 C-90.1000472 0.24165712 -85.03330614 0.2139229 -79.9665699 0.18519592 C-75.15587996 0.15793385 -70.34518496 0.13180665 -65.53448486 0.10640144 C-63.80852995 0.09711349 -62.08257685 0.08747746 -60.35662651 0.07737541 C-40.23760066 -0.03984501 -20.11981867 0 0 0 Z " fill="#323240" transform="translate(484,194)"/>
<path d="M0 0 C11.25702441 0 19.72760835 2.19234946 28 10 C29.807795 11.98802833 31.597346 13.98559229 33.375 16 C40.52486314 24.06983689 49.45764539 30.04132334 60.40820312 31.27026367 C62.84187632 31.36396107 65.25268591 31.36131343 67.6875 31.3125 C68.50283203 31.31572266 69.31816406 31.31894531 70.15820312 31.32226562 C74.88971061 31.28019078 78.50642317 30.56667949 83 29 C95.64743208 27.70666733 106.38221335 29.65909701 116.875 37.25 C124.77392588 43.97495708 128.99251339 51.13673746 132 61 C132.33 61.99 132.66 62.98 133 64 C133.15329353 66.00110198 133.30476961 68.00238051 133.44213867 70.00463867 C134.3452628 81.71149067 137.68219523 92.18095447 146.6640625 100.390625 C151.77864017 103.91438085 157.50908244 106.40702227 163.09960938 109.07861328 C173.57530132 114.15765509 180.83314634 120.45961852 186 131 C186 131.99 186 132.98 186 134 C164.88 134 143.76 134 122 134 C119.36 129.38 116.72 124.76 114 120 C112.40014776 117.68160948 110.74954224 115.39511495 109 113.1875 C108.58121582 112.65817871 108.16243164 112.12885742 107.73095703 111.58349609 C85.57192377 83.81948138 54.18609656 65.0950425 18.71484375 60.47265625 C12.48848713 59.84847303 6.24166279 59.44583306 0 59 C0 39.53 0 20.06 0 0 Z " fill="#FECA00" transform="translate(256,60)"/>
<path d="M0 0 C21.12 0 42.24 0 64 0 C62.32274213 8.38628934 56.63289321 15.67336609 49.58984375 20.5546875 C46.03546505 22.53827742 42.33735411 24.14867394 38.625 25.8125 C26.69585194 31.18532737 18.05757606 38.77568139 13.25 51.125 C12.03965299 55.00210059 11.7969268 58.63817131 11.625 62.6875 C10.90116295 75.57736747 6.23800588 86.00326098 -2.9921875 94.92578125 C-12.65662171 103.19188157 -23.0120967 105.5797362 -35.37109375 105.37109375 C-39 105 -39 105 -41.890625 103.9921875 C-46.07900628 102.65569398 -49.94382851 102.67023252 -54.3125 102.6875 C-55.11623047 102.67138672 -55.91996094 102.65527344 -56.74804688 102.63867188 C-66.48841425 102.6308357 -75.35598161 105.97031276 -83 112 C-85.37732728 114.42405431 -87.62330819 116.95951959 -89.875 119.5 C-96.63532698 127.12093349 -102.94571722 131.48642931 -113 134 C-115.97 134 -118.94 134 -122 134 C-122 114.53 -122 95.06 -122 75 C-114.08 74.505 -114.08 74.505 -106 74 C-78.61158788 71.10567872 -54.18110402 59.11845759 -33 42 C-32.1646875 41.32710938 -31.329375 40.65421875 -30.46875 39.9609375 C-25.82059897 36.04576413 -21.83519006 31.70575467 -18 27 C-17.21496094 26.0409375 -16.42992187 25.081875 -15.62109375 24.09375 C-14.76643981 23.02225814 -13.91357353 21.94933794 -13.0625 20.875 C-12.29035156 19.90304687 -11.51820313 18.93109375 -10.72265625 17.9296875 C-6.75672791 12.20554989 -3.45500623 6.0462609 0 0 Z " fill="#FECA00" transform="translate(378,318)"/>
<path d="M0 0 C64.02 0 128.04 0 194 0 C189.60882232 10.97794421 182.6809639 20.1084494 175 29 C174.3915625 29.73089844 173.783125 30.46179688 173.15625 31.21484375 C153.08111439 54.98562933 122.70401782 69.36165087 92.47265625 74.625 C85.67115687 75.19525672 78.82536347 75 72 75 C72 61.47 72 47.94 72 34 C69.36 34 66.72 34 64 34 C60.71031872 33.62920323 57.49274822 32.97535817 54.25 32.3125 C53.36820068 32.13243408 52.48640137 31.95236816 51.57788086 31.7668457 C44.64067592 30.27625399 38.35220596 28.19831349 32 25 C30.92363281 24.4740625 29.84726563 23.948125 28.73828125 23.40625 C17.60024004 17.71433579 8.39503809 10.26698649 0 1 C0 0.67 0 0.34 0 0 Z " fill="#FE8659" transform="translate(184,318)"/>
<path d="M0 0 C37.4719989 0 71.18489194 13.57758181 98 40 C122 64.91479821 122 64.91479821 122 75 C57.98 75 -6.04 75 -72 75 C-62.94625688 64.4372997 -54.18499286 57.35799513 -42 51 C-41.1646875 50.52691406 -40.329375 50.05382812 -39.46875 49.56640625 C-33.07594622 46.23509129 -26.30369815 44.73945266 -19.3125 43.1875 C-18.32580322 42.96811768 -17.33910645 42.74873535 -16.32250977 42.52270508 C-10.56660079 41.32107115 -6.07289551 41 0 41 C0 27.47 0 13.94 0 0 Z " fill="#FE8659" transform="translate(256,119)"/>
<path d="M0 0 C0 13.53 0 27.06 0 41 C-6.27 41.99 -12.54 42.98 -19 44 C-35.6429871 47.46728898 -53.68318908 55.07534491 -64.98057556 68.32237244 C-68.82642811 72.75690182 -71.60664304 75.53722322 -77.61157227 76.02172852 C-79.68039762 76.02032267 -81.74961261 75.97058155 -83.81640625 75.87890625 C-84.91347397 75.86617172 -86.01054169 75.85343719 -87.14085388 75.84031677 C-90.6170625 75.79025803 -94.08789196 75.67741285 -97.5625 75.5625 C-99.93026271 75.51731802 -102.29810792 75.47625998 -104.66601562 75.43945312 C-110.44582051 75.34065856 -116.222526 75.19040608 -122 75 C-117.83396682 64.35681697 -111.43737856 55.59076882 -104 47 C-103.39027344 46.2678125 -102.78054687 45.535625 -102.15234375 44.78125 C-98.13779493 40.02597577 -93.81562307 35.93491348 -89 32 C-88.08734375 31.23816406 -87.1746875 30.47632813 -86.234375 29.69140625 C-61.15436887 9.49506965 -32.07916097 0 0 0 Z " fill="#FF9D21" transform="translate(256,119)"/>
<path d="M0 0 C6.89987011 -0.30656306 13.79796296 -0.51532215 20.703125 -0.65917969 C23.04689124 -0.71919353 25.39021449 -0.80083963 27.73242188 -0.90527344 C48.3089798 -1.79914435 48.3089798 -1.79914435 54.04760742 2.55541992 C56.15747718 4.52239413 57.90577832 6.61344128 59.61499023 8.93139648 C73.40287908 26.67118305 101.66947009 31.09563858 122 34 C122 47.53 122 61.06 122 75 C87.25344809 75 58.73782873 63.82679897 32 42 C31.22785156 41.3709375 30.45570313 40.741875 29.66015625 40.09375 C17.61627901 29.92233736 7.04440362 16.11213308 0 2 C0 1.34 0 0.68 0 0 Z " fill="#FF9D21" transform="translate(134,318)"/>
<path d="M0 0 C47.52 0 95.04 0 144 0 C128.63556494 17.92517424 107.56809436 31.22329184 83.50952148 33.30151367 C79.91710058 33.43611439 76.34476355 33.46843559 72.75 33.4375 C71.47656738 33.42775146 70.20313477 33.41800293 68.89111328 33.40795898 C42.22938518 32.90743653 20.35366052 21.90750317 1.765625 2.96875 C0 1 0 1 0 0 Z " fill="#FFFEFD" transform="translate(184,318)"/>
<path d="M0 0 C0.65210449 0.25201172 1.30420898 0.50402344 1.97607422 0.76367188 C18.03378586 7.04368665 30.88063449 15.65676138 42 29 C-5.52 29 -53.04 29 -102 29 C-92.95622548 18.44892972 -84.19028539 11.33117328 -72 5 C-71.09507812 4.5153125 -70.19015625 4.030625 -69.2578125 3.53125 C-49.05102286 -6.54143541 -20.9979612 -8.35006644 0 0 Z " fill="#FFFEFD" transform="translate(286,165)"/>
<path d="M0 0 C32.7047619 0 32.7047619 0 40.171875 5.640625 C48.70092621 14.33856831 50.3312014 22.77426251 50.38720703 34.57128906 C50.2354383 43.54440185 47.70923139 50.72648285 42.3125 57.9375 C29.11624337 70.13781273 19.14449225 66 0 66 C0 44.22 0 22.44 0 0 Z " fill="#E0E0E0" transform="translate(398,223)"/>
<path d="M0 0 C28 0 28 0 37 6 C41.48520545 11.4005535 42.78281082 15.30829673 42.4140625 22.32421875 C41.33731642 29.28243636 37.98647716 33.52802803 32.68359375 37.96875 C31 39 31 39 28 39 C29.87294933 41.66811219 31.74874585 44.33421101 33.625 47 C34.40810547 48.11568359 34.40810547 48.11568359 35.20703125 49.25390625 C38.34437557 53.70816053 41.55357245 58.08007322 44.91162109 62.37109375 C46 64 46 64 46 66 C39.99446206 67.15257799 33.86077636 68.21385752 28 66 C22.18731341 60.90739847 18.58441941 53.73820186 15 47 C14.67 53.27 14.34 59.54 14 66 C9.38 66 4.76 66 0 66 C0 44.22 0 22.44 0 0 Z " fill="#FDFDFD" transform="translate(170,223)"/>
<path d="M0 0 C3.79419293 2.00011424 7.38813578 4.21180081 10.95483398 6.58959961 C9.48664731 9.69702384 7.75458398 12.494317 5.82983398 15.33959961 C5.29100586 16.13881836 4.75217773 16.93803711 4.19702148 17.76147461 C3.78709961 18.36475586 3.37717773 18.96803711 2.95483398 19.58959961 C-0.24771915 18.34228944 -3.33220585 16.96956214 -6.42016602 15.46459961 C-11.20882746 13.3591716 -15.00174908 12.5674709 -20.11547852 14.28491211 C-24.97963714 16.42083416 -27.49966751 18.80406241 -30.04516602 23.58959961 C-31.74624668 28.69284162 -31.61037848 32.90833395 -29.35766602 37.77709961 C-27.10134937 41.92037145 -24.27593987 44.47421268 -20.04516602 46.58959961 C-15.28239994 47.29519458 -10.84259568 47.75124424 -6.68188477 45.06225586 C-4.60410354 43.19639943 -4.60410354 43.19639943 -2.79907227 41.21850586 C-0.75890782 39.32374289 0.15178202 38.58959961 2.95483398 38.58959961 C5.53295898 40.46069336 5.53295898 40.46069336 8.20483398 43.02709961 C9.09686523 43.87143555 9.98889648 44.71577148 10.90795898 45.58569336 C11.58342773 46.24698242 12.25889648 46.90827148 12.95483398 47.58959961 C7.69698391 55.71349346 1.38235259 60.97998723 -8.04516602 63.58959961 C-19.25285189 65.00073681 -27.46621047 62.61412639 -36.39282227 55.79663086 C-42.70327168 50.07594307 -46.52280727 43.37621385 -47.45141602 34.86694336 C-47.7148076 23.90326868 -46.09197814 16.16963464 -39.07641602 7.66772461 C-28.82001419 -2.82536342 -13.45528033 -6.3938618 0 0 Z " fill="#FCFBFC" transform="translate(111.045166015625,225.410400390625)"/>
<path d="M0 0 C5.27423678 4.4085742 10.19430011 9.0511401 15.04663086 13.91723633 C16.20396225 15.07193924 16.20396225 15.07193924 17.38467407 16.24996948 C19.91390521 18.77482721 22.43949432 21.30329151 24.96484375 23.83203125 C26.72589241 25.59240599 28.48708948 27.35263229 30.24842834 29.11271667 C33.92741903 32.79023687 37.60460398 36.46955062 41.28051758 40.15014648 C45.06208564 43.93629549 48.84581105 47.7202615 52.63208008 51.50170898 C57.20709985 56.07095273 61.77969455 60.6426072 66.35019112 65.21637535 C68.09387261 66.96072591 69.8383027 68.70432849 71.58347893 70.44718361 C74.01111614 72.87229808 76.4355534 75.30056563 78.85913086 77.72973633 C79.58684189 78.45542313 80.31455292 79.18110992 81.0643158 79.92878723 C81.71891785 80.58620911 82.3735199 81.24363098 83.04795837 81.92097473 C83.62143981 82.49483319 84.19492125 83.06869165 84.78578091 83.65993977 C86 85 86 85 86 86 C77.09 86 68.18 86 59 86 C57.35 82.7 55.7 79.4 54 76 C48.72837411 68.64424295 42.16698878 64.95382767 34.078125 61.12890625 C21.76474573 55.29132431 13.1259133 49.07139532 7.63525391 35.94677734 C6.22673156 31.63026805 5.97693893 27.11901055 5.63745117 22.61523438 C5.12326348 15.96422017 3.35966357 10.23114622 1 4 C0.65551044 2.66950542 0.32029374 1.33652565 0 0 Z " fill="#EA1D7F" transform="translate(383,108)"/>
<path d="M0 0 C11.88 0 23.76 0 36 0 C36 4.62 36 9.24 36 14 C28.74 14 21.48 14 14 14 C14 17.96 14 21.92 14 26 C20.93 26 27.86 26 35 26 C35 30.62 35 35.24 35 40 C28.07 40 21.14 40 14 40 C14 43.96 14 47.92 14 52 C21.26 52 28.52 52 36 52 C36 56.62 36 61.24 36 66 C24.12 66 12.24 66 0 66 C0 44.22 0 22.44 0 0 Z " fill="#E1E1E1" transform="translate(354,223)"/>
<path d="M0 0 C11.88 0 23.76 0 36 0 C36 4.62 36 9.24 36 14 C28.74 14 21.48 14 14 14 C14 17.96 14 21.92 14 26 C20.93 26 27.86 26 35 26 C35 30.62 35 35.24 35 40 C28.07 40 21.14 40 14 40 C14 43.96 14 47.92 14 52 C21.26 52 28.52 52 36 52 C36 56.62 36 61.24 36 66 C24.12 66 12.24 66 0 66 C0 44.22 0 22.44 0 0 Z " fill="#FEFEFE" transform="translate(127,223)"/>
<path d="M0 0 C23.76 0 47.52 0 72 0 C56.96221503 17.54408247 38.00906775 29.05558839 15 33 C10.05 33 5.1 33 0 33 C0 22.11 0 11.22 0 0 Z " fill="#E2E1E1" transform="translate(256,318)"/>
<path d="M0 0 C24.9566243 0 46.14590218 7.77176704 64.7109375 24.69140625 C67.30500403 27.30760646 69.64140179 30.16968214 72 33 C48.24 33 24.48 33 0 33 C0 22.11 0 11.22 0 0 Z " fill="#E2E1E1" transform="translate(256,161)"/>
<path d="M0 0 C11.88 0 23.76 0 36 0 C36 4.95 36 9.9 36 15 C29.07 15 22.14 15 15 15 C15 18.63 15 22.26 15 26 C21.27 26 27.54 26 34 26 C34 30.95 34 35.9 34 41 C27.73 41 21.46 41 15 41 C15 49.91 15 58.82 15 68 C10.05 68 5.1 68 0 68 C0 45.56 0 23.12 0 0 Z " fill="#D8D8D9" transform="translate(289,222)"/>
<path d="M0 0 C14.52 0 29.04 0 44 0 C44 4.62 44 9.24 44 14 C39.05 14 34.1 14 29 14 C29 31.16 29 48.32 29 66 C24.05 66 19.1 66 14 66 C14 48.84 14 31.68 14 14 C9.38 14 4.76 14 0 14 C0 9.38 0 4.76 0 0 Z " fill="#FBFBFC" transform="translate(218,223)"/>
<path d="M0 0 C4.62 0 9.24 0 14 0 C14 21.78 14 43.56 14 66 C9.38 66 4.76 66 0 66 C0 44.22 0 22.44 0 0 Z " fill="#E1E1E1" transform="translate(332,223)"/>
<path d="M0 0 C4.62 0 9.24 0 14 0 C14 21.78 14 43.56 14 66 C9.38 66 4.76 66 0 66 C0 44.22 0 22.44 0 0 Z " fill="#E1E1E1" transform="translate(268,223)"/>
<path d="M0 0 C13 0 13 0 16.625 2.0625 C22.27172635 9.04660891 22.85559741 15.18617458 22 24 C20.81780319 29.57190436 18.35928573 33.31137361 14 37 C9.81537205 39.09231398 4.67855628 38 0 38 C0 25.46 0 12.92 0 0 Z " fill="#363644" transform="translate(412,237)"/>
<path d="M0 0 C1.5675 -0.061875 3.135 -0.12375 4.75 -0.1875 C6.07257813 -0.23970703 6.07257813 -0.23970703 7.421875 -0.29296875 C10.50002806 0.05682137 11.80182488 0.84709622 14 3 C14.5625 5.9375 14.5625 5.9375 14 9 C11.78457303 11.71568468 10.18738889 12.87689279 6.6640625 13.2421875 C4.44125293 13.24919952 2.21886982 13.13246984 0 13 C0 8.71 0 4.42 0 0 Z " fill="#595275" transform="translate(184,237)"/>
<path d="M0 0 C1.98 0 3.96 0 6 0 C6 4.62 6 9.24 6 14 C4.02 14 2.04 14 0 14 C0 9.38 0 4.76 0 0 Z " fill="#DBDBDB" transform="translate(256,223)"/>
</svg>
