<?xml version="1.0" encoding="UTF-8"?>
<svg version="1.1" xmlns="http://www.w3.org/2000/svg" width="512" height="512">
<path d="M0 0 C1.11761719 0.51304688 2.23523438 1.02609375 3.38671875 1.5546875 C12.08325554 5.65852999 20.46995193 10.40023324 28.875 15.0625 C29.92067139 15.63983887 30.96634277 16.21717773 32.04370117 16.81201172 C53.32541756 28.74356739 67.72187915 42.80273308 75.12109375 66.703125 C77.90025638 77.12807284 79.281743 87.27442797 79.4375 98.0625 C79.45973633 98.93060303 79.48197266 99.79870605 79.50488281 100.69311523 C79.48632435 106.0343432 78.53765131 109.49076613 75.92407227 114.12670898 C74.49351327 117.02675633 74.38319313 119.80336493 74.25 123 C74.19328125 124.134375 74.1365625 125.26875 74.078125 126.4375 C74.05234375 127.283125 74.0265625 128.12875 74 129 C74.98613281 128.7834375 74.98613281 128.7834375 75.9921875 128.5625 C100.66671006 123.74795901 125.93272132 128.21696002 147.03125 141.92578125 C151.54463818 145.07921431 155.84630941 148.38584573 160 152 C160.90105469 152.77537109 160.90105469 152.77537109 161.8203125 153.56640625 C179.81571904 170.26446953 188.81581874 194.91983711 190 219 C190.65016461 241.98491777 182.68259837 265.49526383 167.38671875 282.828125 C165.49100878 285.79718062 165.18138076 288.53165241 164.625 292 C162.21574298 305.29044931 156.82804993 318.30965083 145.625 326.5625 C126.65555581 338.73603739 111.40680024 345.48136005 88.74609375 340.94921875 C84.66341289 339.91471255 80.91502045 338.54437823 77 337 C76.39414062 337.88300781 75.78828125 338.76601563 75.1640625 339.67578125 C56.44093797 366.64599635 30.03522487 386.25732988 -2.75976562 392.41503906 C-25.28778997 396.2007145 -51.17568657 395.41215672 -72 385 C-71.690625 386.134375 -71.38125 387.26875 -71.0625 388.4375 C-66.43310968 407.34905196 -67.55888221 430.6784912 -77 448 C-83.16886134 457.60773759 -91.55395756 464.153919 -101.375 469.75 C-102.16132813 470.21792969 -102.94765625 470.68585938 -103.7578125 471.16796875 C-112.39408419 476.14934768 -120.64758863 478.57273328 -130.625 478.5 C-131.90673096 478.49794556 -131.90673096 478.49794556 -133.21435547 478.49584961 C-142.23226793 478.28233358 -150.91457459 476.0427127 -159 472 C-160.56358159 471.88259053 -162.13156391 471.82116666 -163.69921875 471.7890625 C-192.45397589 471.00285648 -216.31930159 463.60985499 -237.6875 443.75 C-256.93797779 423.30532384 -263.87950195 398.28782048 -263.13183594 370.70263672 C-262.52444308 358.25108305 -258.61897513 344.24628209 -251.87109375 333.66015625 C-249.30323002 329.30438455 -249.26072682 324.8922087 -249 319.9375 C-247.8277845 304.40429411 -244.15950302 287.86142972 -232 277 C-228.47643573 274.40753303 -224.78135728 272.19489987 -221 270 C-220.02571045 269.42983154 -220.02571045 269.42983154 -219.03173828 268.84814453 C-216.92258371 267.61792753 -214.80686787 266.40003 -212.6875 265.1875 C-212.01799316 264.80223145 -211.34848633 264.41696289 -210.65869141 264.02001953 C-204.43406127 260.5191498 -199.19167989 259.02738284 -192 258 C-192 249.75 -192 241.5 -192 233 C-194.31 231.68 -196.62 230.36 -199 229 C-208.07039574 210.85920851 -195.73785938 175.06871562 -190.04785156 157.13818359 C-177.18965926 118.62951541 -156.47666418 83.30687047 -129.12109375 53.34375 C-127.18168497 51.20075688 -125.30670701 49.01655362 -123.4375 46.8125 C-120.54118097 43.49005587 -117.43161408 40.6033079 -114.06640625 37.76171875 C-112.7134478 36.60825134 -111.386155 35.4238142 -110.08984375 34.20703125 C-84.20857249 10.02125752 -35.79358951 -17.52133752 0 0 Z M-59 66 C-59.85207031 66.64839844 -60.70414062 67.29679687 -61.58203125 67.96484375 C-67.51216327 72.56502296 -72.79208401 77.60497326 -78 83 C-83 88 -83 88 -84.54125977 89.48193359 C-88.88557708 93.70920515 -92.67043199 98.16019362 -96.3125 103 C-96.87372559 103.7427417 -97.43495117 104.4854834 -98.01318359 105.25073242 C-124.49403902 140.59744149 -144.09649146 183.14786353 -145.4375 227.875 C-145.6549989 234.64885745 -146.49397323 240.66983056 -151 246 C-152.02609375 246.58394531 -153.0521875 247.16789063 -154.109375 247.76953125 C-157.34082191 249.79611876 -157.34082191 249.79611876 -157.97265625 253.64453125 C-158.04975829 255.03203632 -158.07798567 256.42294063 -158.0625 257.8125 C-158.06306396 258.52792969 -158.06362793 259.24335938 -158.06420898 259.98046875 C-157.83322358 263.8685005 -157.23540265 265.74837569 -154.5625 268.60546875 C-150.1049607 271.66343199 -150.1049607 271.66343199 -145 273 C-144.93006836 272.41210693 -144.86013672 271.82421387 -144.78808594 271.21850586 C-140.39646074 235.01583996 -128.1759153 203.89392984 -98.94140625 180.55859375 C-79.68108471 166.73252024 -56.71755045 156.23123809 -32.6015625 157.15625 C-31.87103165 157.18126083 -31.14050079 157.20627167 -30.38783264 157.23204041 C-27.36281033 157.34091684 -24.34101898 157.45510663 -21.31982422 157.64453125 C-16.39753983 157.93808602 -11.83467396 158.06921986 -7 157 C-3.94435719 154.10296428 -2.68573094 150.79999002 -1 147 C3.67953155 140.87238285 10.11151167 137.12774994 16.6875 133.3125 C17.60466797 132.75755859 18.52183594 132.20261719 19.46679688 131.63085938 C26.06126958 127.75528177 32.66689009 125.15017746 40 123 C41.18543201 114.95108371 41.18543201 114.95108371 40 107 C36.75978044 103.85837633 34.10244379 102.41477989 30.0390625 100.48046875 C27 99 27 99 25 96 C24.65283203 93.87792969 24.65283203 93.87792969 24.5078125 91.421875 C24.44480957 90.51526123 24.38180664 89.60864746 24.31689453 88.67456055 C24.25356934 87.70945557 24.19024414 86.74435059 24.125 85.75 C22.9024852 70.17119658 19.56965283 54.75953711 10 42 C-9.57635499 32.21182251 -44.38638759 54.56423286 -59 66 Z M49 113 C49 116.3 49 119.6 49 123 C56.425 123.99 56.425 123.99 64 125 C63.56718216 119.97000367 63.56718216 119.97000367 60.34765625 117.98046875 C59.26355469 117.38878906 58.17945313 116.79710937 57.0625 116.1875 C55.98097656 115.58292969 54.89945312 114.97835937 53.78515625 114.35546875 C51.21652422 112.85413216 51.21652422 112.85413216 49 113 Z M-181 239 C-181 245.6 -181 252.2 -181 259 C-179.081875 259.495 -177.16375 259.99 -175.1875 260.5 C-174.10855469 260.7784375 -173.02960938 261.056875 -171.91796875 261.34375 C-169.01066025 262.10970948 -169.01066025 262.10970948 -166 262 C-166 257.05 -166 252.1 -166 247 C-168.3110361 245.66407203 -170.62371755 244.33115569 -172.9375 243 C-173.59685547 242.6184375 -174.25621094 242.236875 -174.93554688 241.84375 C-177.79768502 239.87490953 -177.79768502 239.87490953 -181 239 Z " fill="#213844" transform="translate(300,19)"/>
<path d="M0 0 C1.02480469 0.00031723 1.02480469 0.00031723 2.0703125 0.00064087 C12.59070459 0.03311692 21.79255002 0.9030698 31.75 4.375 C32.94238281 4.71402344 34.13476562 5.05304688 35.36328125 5.40234375 C66.56517243 14.66077186 91.12601314 36.4497687 106.5 64.75 C110.50323816 72.39339987 113.49424234 80.02427359 115.75 88.375 C116.06839844 89.509375 116.38679687 90.64375 116.71484375 91.8125 C124.13410197 123.54094069 117.42935548 157.22371943 100.52734375 184.7421875 C97.52838603 189.18459959 94.22522774 193.29919892 90.75 197.375 C90.15832031 198.11234375 89.56664062 198.8496875 88.95703125 199.609375 C70.5497666 221.74519006 41.49875081 235.00992218 13.28417969 238.14794922 C-5.68551407 239.84754606 -30.7984323 239.3427118 -47.25 228.375 C-48.03027344 226.48999023 -48.03027344 226.48999023 -48.609375 224.18359375 C-48.83399414 223.33007324 -49.05861328 222.47655273 -49.29003906 221.59716797 C-49.52432617 220.67822754 -49.75861328 219.75928711 -50 218.8125 C-57.55271835 191.02624771 -71.47813952 166.16005579 -90.25 144.375 C-91.26707031 143.17423828 -91.26707031 143.17423828 -92.3046875 141.94921875 C-97.52796011 135.90282341 -103.03263025 130.54798332 -109.64453125 126.03515625 C-110.23854736 125.61613037 -110.83256348 125.19710449 -111.44458008 124.76538086 C-112.62317396 123.93932919 -113.81947553 123.1378332 -115.03393555 122.36547852 C-117.38729294 120.70009509 -119.07045514 119.25425745 -119.66064453 116.36401367 C-119.69720935 113.99013314 -119.5259446 111.7326319 -119.25 109.375 C-119.18135742 108.64442383 -119.11271484 107.91384766 -119.04199219 107.16113281 C-115.52575487 74.73361085 -99.80876591 45.82418106 -74.63769531 25.04394531 C-71.01155939 22.21307409 -67.19549824 19.72990471 -63.25 17.375 C-62.61755371 16.99504883 -61.98510742 16.61509766 -61.33349609 16.22363281 C-42.14848118 4.91309911 -22.23892207 -0.02861626 0 0 Z " fill="#26404F" transform="translate(274.25,174.625)"/>
<path d="M0 0 C29.81460118 18.25711339 51.40197752 52.04824014 59.59423828 85.62548828 C64.52966091 107.87031179 64.89058598 128.8985873 52.57470703 148.92236328 C43.96249563 160.71070939 24.98917593 165.47269524 11.27246094 167.72998047 C-14.08910687 170.96514694 -38.68275114 164.65819002 -59.02685547 149.11767578 C-78.73159412 133.62337572 -91.06791537 112.00014408 -94.27685547 87.05517578 C-95.78368381 59.3561254 -89.68891906 36.0666956 -71.64404297 14.68017578 C-51.35708039 -7.81625797 -27.61229374 -15.96010615 0 0 Z " fill="#F8C539" transform="translate(131.27685546875,321.94482421875)"/>
<path d="M0 0 C1.02480469 0.00031723 1.02480469 0.00031723 2.0703125 0.00064087 C12.59070459 0.03311692 21.79255002 0.9030698 31.75 4.375 C32.94238281 4.71402344 34.13476562 5.05304688 35.36328125 5.40234375 C66.56517243 14.66077186 91.12601314 36.4497687 106.5 64.75 C110.50323816 72.39339987 113.49424234 80.02427359 115.75 88.375 C116.06839844 89.509375 116.38679687 90.64375 116.71484375 91.8125 C124.13410197 123.54094069 117.42935548 157.22371943 100.52734375 184.7421875 C97.52838603 189.18459959 94.22522774 193.29919892 90.75 197.375 C90.15832031 198.11234375 89.56664062 198.8496875 88.95703125 199.609375 C70.5497666 221.74519006 41.49875081 235.00992218 13.28417969 238.14794922 C-5.68551407 239.84754606 -30.7984323 239.3427118 -47.25 228.375 C-48.03027344 226.48999023 -48.03027344 226.48999023 -48.609375 224.18359375 C-48.83399414 223.33007324 -49.05861328 222.47655273 -49.29003906 221.59716797 C-49.52432617 220.67822754 -49.75861328 219.75928711 -50 218.8125 C-57.55271835 191.02624771 -71.47813952 166.16005579 -90.25 144.375 C-91.26707031 143.17423828 -91.26707031 143.17423828 -92.3046875 141.94921875 C-97.52796011 135.90282341 -103.03263025 130.54798332 -109.64453125 126.03515625 C-110.23854736 125.61613037 -110.83256348 125.19710449 -111.44458008 124.76538086 C-112.62317396 123.93932919 -113.81947553 123.1378332 -115.03393555 122.36547852 C-117.38729294 120.70009509 -119.07045514 119.25425745 -119.66064453 116.36401367 C-119.69720935 113.99013314 -119.5259446 111.7326319 -119.25 109.375 C-119.18135742 108.64442383 -119.11271484 107.91384766 -119.04199219 107.16113281 C-115.52575487 74.73361085 -99.80876591 45.82418106 -74.63769531 25.04394531 C-71.01155939 22.21307409 -67.19549824 19.72990471 -63.25 17.375 C-62.61755371 16.99504883 -61.98510742 16.61509766 -61.33349609 16.22363281 C-42.14848118 4.91309911 -22.23892207 -0.02861626 0 0 Z M-6.25 50.375 C-7.15105469 51.16583984 -7.15105469 51.16583984 -8.0703125 51.97265625 C-27.24803354 69.41100259 -38.01717251 100.5425561 -39.37573242 125.70361328 C-40.26086829 153.70964729 -34.2154618 180.31702394 -15.19140625 201.6875 C-4.88609977 212.56226192 7.87654534 219.62751859 22.9765625 220.578125 C31.04655176 220.6894352 38.06755332 219.85355472 45.75 217.375 C46.59046875 217.10816406 47.4309375 216.84132813 48.296875 216.56640625 C71.83499404 208.13316296 87.33104061 187.40160456 97.70605469 165.68359375 C109.16377053 140.34585731 112.73164282 107.02523833 103.75 80.375 C103.50862305 79.65570313 103.26724609 78.93640625 103.01855469 78.1953125 C96.43603777 59.31715076 84.80339133 42.84232934 66.75 33.375 C39.72832477 21.41398856 14.14164234 30.6001867 -6.25 50.375 Z " fill="#C5D6F3" transform="translate(274.25,174.625)"/>
<path d="M0 0 C1.11761719 0.51304688 2.23523438 1.02609375 3.38671875 1.5546875 C16.28377506 7.64458817 28.60474061 14.9661351 41 22 C37.34635163 23.21788279 36.60855401 22.64897183 33.1875 21.125 C16.18910708 13.5877281 -6.72794754 17.71330518 -23.47265625 24.11328125 C-43.09560084 32.04377554 -60.26301267 44.0104347 -76 58 C-77.48693359 59.30324219 -77.48693359 59.30324219 -79.00390625 60.6328125 C-84.43558504 65.46589812 -89.3370915 70.43489943 -94 76 C-95.30517578 77.47339844 -95.30517578 77.47339844 -96.63671875 78.9765625 C-108.1410901 91.99860526 -118.31637701 105.9774118 -126.90527344 121.08837891 C-128.03193585 123.05576666 -129.19023699 125.00212312 -130.3515625 126.94921875 C-152.04686214 163.9509383 -162.5625194 204.36058559 -164 247 C-168.61233853 246.48601506 -171.5390062 245.33732719 -175.375 242.75 C-176.33019531 242.11835938 -177.28539062 241.48671875 -178.26953125 240.8359375 C-179.17058594 240.23007812 -180.07164062 239.62421875 -181 239 C-186.16988641 235.61641803 -191.39663077 232.73776237 -196.99609375 230.11328125 C-199 229 -199 229 -200 227 C-205.28303945 169.04687892 -174.38632942 107.02452 -138.22265625 63.58984375 C-135.24595419 60.12138423 -132.20273997 56.71914066 -129.12109375 53.34375 C-127.18168497 51.20075688 -125.30670701 49.01655362 -123.4375 46.8125 C-120.54118097 43.49005587 -117.43161408 40.6033079 -114.06640625 37.76171875 C-112.7134478 36.60825134 -111.386155 35.4238142 -110.08984375 34.20703125 C-84.20857249 10.02125752 -35.79358951 -17.52133752 0 0 Z " fill="#1C323D" transform="translate(300,19)"/>
<path d="M0 0 C33.72380759 23.00528929 61.34822028 60.35840245 71.4375 100.25 C71.66163574 101.12785156 71.88577148 102.00570312 72.11669922 102.91015625 C78.03721831 126.92803519 80.56244067 153.65636055 68.4375 176.25 C60.90170501 187.38242441 52.0044781 194.14202177 38.75 197.0625 C37.656875 197.124375 36.56375 197.18625 35.4375 197.25 C34.81230469 197.30027344 34.18710937 197.35054687 33.54296875 197.40234375 C23.17096621 197.88341993 12.36371793 195.53286368 3.4375 190.25 C4.59822054 187.24403141 5.86044857 184.30482297 7.20703125 181.37890625 C20.68637646 151.63400089 23.23047354 118.68186225 12.04345703 87.68139648 C0.15865788 56.68359548 -22.46239753 33.90027954 -52.5625 20.25 C-61.61808947 16.44534661 -70.78374589 13.47498432 -80.5625 12.25 C-79.344747 4.23773879 -73.37959535 -1.78616609 -67.3671875 -6.91796875 C-46.5371239 -20.52423592 -19.21005118 -12.71115236 0 0 Z " fill="#26404F" transform="translate(373.5625,164.75)"/>
<path d="M0 0 C13.89354405 0.59121464 23.44427807 6.11303939 33.0625 15.9375 C45.16067517 30.13655589 49.1743601 48.0579593 50.31787109 66.18188477 C50.38055176 67.13506592 50.44323242 68.08824707 50.5078125 69.0703125 C50.55566895 69.92383301 50.60352539 70.77735352 50.65283203 71.65673828 C51.01911691 74.12903244 51.7642865 75.84294847 53 78 C48.01475706 76.23104283 43.5878012 73.6020365 39 71 C39 74.3 39 77.6 39 81 C40.175625 80.95875 41.35125 80.9175 42.5625 80.875 C46.73676693 80.86757248 50.06325871 81.6341918 54 83 C55 84 55 84 55.09765625 86.28515625 C55.08605469 87.20167969 55.07445312 88.11820312 55.0625 89.0625 C55.05347656 89.98160156 55.04445313 90.90070313 55.03515625 91.84765625 C55.02355469 92.55792969 55.01195312 93.26820313 55 94 C57.64 94 60.28 94 63 94 C63 91.69 63 89.38 63 87 C88.80154435 81.89439405 114.80774171 85.48600173 137.03125 99.92578125 C141.54463818 103.07921431 145.84630941 106.38584573 150 110 C150.60070312 110.51691406 151.20140625 111.03382813 151.8203125 111.56640625 C169.81571904 128.26446953 178.81581874 152.91983711 180 177 C180.65016461 199.98491777 172.68259837 223.49526383 157.38671875 240.828125 C155.49100878 243.79718062 155.18138076 246.53165241 154.625 250 C152.14415583 263.68535337 146.57033601 276.62833142 134.9375 284.9375 C133.30584887 285.98085165 131.66072009 287.00356795 130 288 C129.30003906 288.44472656 128.60007812 288.88945312 127.87890625 289.34765625 C126 290.5 126 290.5 123 292 C122.34 291.67 121.68 291.34 121 291 C121.70125 290.34 122.4025 289.68 123.125 289 C136.74071748 275.15350765 139.4444824 257.8666201 139.43603516 239.125 C138.69417094 195.60229936 115.95933939 155.17508955 87 124 C86.39929688 123.33355469 85.79859375 122.66710937 85.1796875 121.98046875 C69.93695478 105.78094112 47.50727658 92.31737452 24.9921875 90.796875 C17.21895723 90.67998432 10.43562038 91.74921762 3 94 C9.97671674 86.29507377 20.06619508 82.84937857 30 81 C30.55162124 72.89510341 30.55162124 72.89510341 29 65 C26.11623287 62.28309773 23.50999275 60.91512942 19.8828125 59.359375 C16.73314832 57.8741675 15.79344586 56.91785928 14 54 C13.53930664 51.7644043 13.53930664 51.7644043 13.41015625 49.32421875 C13.32048584 47.96913208 13.32048584 47.96913208 13.22900391 46.58666992 C13.17405762 45.62994385 13.11911133 44.67321777 13.0625 43.6875 C12.12382452 31.04439092 9.77165509 19.41011814 4 8 C3.43539063 6.85144531 3.43539063 6.85144531 2.859375 5.6796875 C1.91940647 3.77989196 0.96163297 1.88892191 0 0 Z " fill="#1D333D" transform="translate(310,61)"/>
<path d="M0 0 C0.99128906 0.32871094 1.98257813 0.65742187 3.00390625 0.99609375 C19.11128368 6.94121773 29.58949366 19.77932624 36.7265625 35.01953125 C42.66242303 48.9123582 45.22030916 63.01938533 45.4375 78.0625 C45.45973633 78.93060303 45.48197266 79.79870605 45.50488281 80.69311523 C45.48641951 86.00695688 44.54636702 89.31198724 41.95532227 93.90795898 C40.13651463 97.89092925 40.05136219 102.18047525 39.75 106.5 C39.67265625 107.4178125 39.5953125 108.335625 39.515625 109.28125 C39.32905557 111.52008322 39.15751257 113.75896751 39 116 C33.25 117.125 33.25 117.125 31 116 C30.4906783 112.90634229 30.16249161 109.84253992 29.87695312 106.72265625 C29.53773784 103.61165482 29.22441504 101.34243643 27.4921875 98.69921875 C25.11963502 94.40750733 25.32933288 89.89233071 25.0625 85.0625 C23.65117406 65.84779167 18.00135535 46.15652848 3 33 C-5.75308271 26.2490887 -14.99485798 22.69840324 -26 22 C-26.7115625 21.94714844 -27.423125 21.89429687 -28.15625 21.83984375 C-51.72367578 20.93642576 -74.90773574 32.84204129 -93 47 C-93.85207031 47.64839844 -94.70414062 48.29679687 -95.58203125 48.96484375 C-101.51293478 53.56562145 -106.78567015 58.61153669 -112 64 C-112.80824219 64.80695313 -113.61648437 65.61390625 -114.44921875 66.4453125 C-129.77533052 81.79489458 -141.69524143 98.94490139 -152 118 C-152.36963867 118.68271973 -152.73927734 119.36543945 -153.12011719 120.06884766 C-167.56591925 147.08982026 -177.54446729 177.0866342 -178.4375 207.875 C-178.70165505 216.39188521 -180.51305772 222.5941494 -186.6875 228.625 C-189 230 -189 230 -191 230 C-190.98952637 230.68626465 -190.97905273 231.3725293 -190.96826172 232.07958984 C-190.92678126 235.17802289 -190.90069931 238.27639761 -190.875 241.375 C-190.85824219 242.45523438 -190.84148437 243.53546875 -190.82421875 244.6484375 C-190.81777344 245.6796875 -190.81132812 246.7109375 -190.8046875 247.7734375 C-190.79421387 248.72653809 -190.78374023 249.67963867 -190.77294922 250.66162109 C-191 253 -191 253 -193 255 C-195.5 255.25 -195.5 255.25 -198 255 C-200 253 -200 253 -200.22705078 250.38623047 C-200.21657715 249.30744629 -200.20610352 248.22866211 -200.1953125 247.1171875 C-200.18886719 245.95058594 -200.18242187 244.78398437 -200.17578125 243.58203125 C-200.15902344 242.35871094 -200.14226562 241.13539063 -200.125 239.875 C-200.11597656 238.64394531 -200.10695312 237.41289062 -200.09765625 236.14453125 C-200.07402548 233.09616185 -200.04108054 230.04817618 -200 227 C-199.34 227 -198.68 227 -198 227 C-198.01571045 226.44352783 -198.0314209 225.88705566 -198.04760742 225.3137207 C-198.80112481 194.2160263 -191.84585397 165.68423673 -180 137 C-179.72220703 136.30825684 -179.44441406 135.61651367 -179.15820312 134.90380859 C-167.25234455 105.3065428 -148.96379876 78.86921282 -128 55 C-127.13246094 54.00871094 -126.26492187 53.01742187 -125.37109375 51.99609375 C-121.13502745 47.24264531 -116.85208059 42.75773461 -111.97265625 38.6640625 C-109.8795543 36.8983963 -107.88561421 35.04629988 -105.875 33.1875 C-78.64476212 9.03465202 -36.86179265 -13.06293083 0 0 Z " fill="#314465" transform="translate(334,39)"/>
<path d="M0 0 C1.02480469 0.00031723 1.02480469 0.00031723 2.0703125 0.00064087 C12.59070459 0.03311692 21.79255002 0.9030698 31.75 4.375 C32.94238281 4.71402344 34.13476562 5.05304688 35.36328125 5.40234375 C55.62753482 11.41528488 73.44338465 22.86876162 87.75 38.375 C86.75 41.375 86.75 41.375 84.9375 42.625 C82.29516614 43.53094304 81.36693813 43.26177093 78.75 42.375 C77.34222085 41.5095171 75.96872482 40.58692847 74.625 39.625 C71.44629875 37.46431418 68.26521179 35.43887127 64.875 33.625 C63.79605469 33.04492188 63.79605469 33.04492188 62.6953125 32.453125 C47.85093659 27.01937467 27.81170696 26.86537685 13.13671875 32.69921875 C-12.94031666 45.60238852 -27.37025131 67.19560472 -38.25 93.375 C-54.36541934 93.99218627 -67.87787225 90.62583938 -83.01928711 85.3671875 C-92.61458365 82.10018676 -102.26857562 80.05329259 -112.25 78.375 C-103.81401383 53.23660906 -86.01709862 31.04644999 -63.25 17.375 C-62.61610352 16.99359863 -61.98220703 16.61219727 -61.32910156 16.21923828 C-42.14582716 4.91164459 -22.23555655 -0.02861193 0 0 Z " fill="#DAE6FD" transform="translate(274.25,174.625)"/>
<path d="M0 0 C1.12305542 0.01341431 1.12305542 0.01341431 2.26879883 0.02709961 C19.00990425 0.37515879 31.62626664 6.29731333 43.51953125 17.89453125 C45.75 20.25 45.75 20.25 46.75 22.25 C45.88375 22.600625 45.0175 22.95125 44.125 23.3125 C36.31276115 27.79730379 33.7318127 34.03547026 30.828125 42.359375 C29.75 45.25 29.75 45.25 27.75 48.25 C27.35273989 56.11654662 29.93947312 64.25460217 31.70629883 71.86450195 C32.18872733 73.94278731 32.66248819 76.02290238 33.13476562 78.10351562 C34.84298124 85.58231217 34.84298124 85.58231217 36.82836914 92.99145508 C37.78077498 96.35880892 38.30118965 98.78537936 37.75 102.25 C35.5 104 35.5 104 32.75 105.25 C32.09 105.6625 31.43 106.075 30.75 106.5 C28.12066637 107.48600011 26.44088572 106.86961184 23.75 106.25 C20.18274491 93.65171936 16.81839268 81.00950115 13.61816406 68.31298828 C13.11611533 66.32821349 12.60982087 64.34450855 12.09960938 62.36181641 C11.35156286 59.45437739 10.61578621 56.54408288 9.8828125 53.6328125 C9.65272491 52.74747833 9.42263733 51.86214417 9.18557739 50.94998169 C8.98141205 50.12746918 8.7772467 49.30495667 8.56689453 48.45751953 C8.38434113 47.73903839 8.20178772 47.02055725 8.01370239 46.28030396 C7.71251523 43.96139632 7.94651147 42.43929563 8.75 40.25 C10.59765625 38.984375 10.59765625 38.984375 12.8125 38 C13.54597656 37.66484375 14.27945313 37.3296875 15.03515625 36.984375 C15.60105469 36.74203125 16.16695313 36.4996875 16.75 36.25 C16.09 35.92 15.43 35.59 14.75 35.25 C12.5741616 36.020645 12.5741616 36.020645 10.25 37.1875 C5.94322034 39.25 5.94322034 39.25 3.75 39.25 C3.9665625 40.12011719 3.9665625 40.12011719 4.1875 41.0078125 C5.25889428 45.51659675 5.98945936 49.58054247 5.75 54.25 C5.15832031 54.26417969 4.56664062 54.27835937 3.95703125 54.29296875 C-0.09737978 54.5376885 -2.6244814 54.80929371 -6 57.1875 C-8.51403046 60.60937479 -10.29095291 64.08539266 -12.0390625 67.9453125 C-13.25 70.25 -13.25 70.25 -14.89135742 71.44750977 C-16.59767862 73.30235711 -16.59767862 73.30235711 -16.03393555 76.45629883 C-15.77457015 77.77290191 -15.49485562 79.08559545 -15.19921875 80.39453125 C-15.05280441 81.10060013 -14.90639008 81.80666901 -14.75553894 82.53413391 C-12.93582774 91.11231565 -10.71786133 99.59712653 -8.50317383 108.07983398 C-7.9620259 110.16005701 -7.42803862 112.24202544 -6.89453125 114.32421875 C-6.57846924 115.53682373 -6.26240723 116.74942871 -5.93676758 117.9987793 C-5.32316184 120.90364515 -4.96736763 123.30141212 -5.25 126.25 C-8.45207125 129.45207125 -12.38640873 131.21442484 -16.91015625 131.30078125 C-17.68230469 131.28402344 -18.45445312 131.26726562 -19.25 131.25 C-21.19285167 123.67936361 -23.13167825 116.10770871 -25.06545925 108.53475094 C-25.96364176 105.01786171 -26.8631751 101.50132989 -27.76586914 97.9855957 C-28.63795823 94.58884786 -29.50640267 91.19118681 -30.37239265 87.7928791 C-30.86233801 85.87413336 -31.35599367 83.95633626 -31.84971619 82.03855896 C-33.26969576 76.45440148 -34.62536117 70.98263212 -35.25 65.25 C-31.9159053 63.05902348 -29.20820859 61.81545837 -25.25 61.25 C-25.25 60.59 -25.25 59.93 -25.25 59.25 C-25.84167969 59.45496094 -26.43335938 59.65992188 -27.04296875 59.87109375 C-27.83316406 60.14050781 -28.62335938 60.40992188 -29.4375 60.6875 C-30.21480469 60.95433594 -30.99210937 61.22117187 -31.79296875 61.49609375 C-34.23414213 62.24513423 -36.74608208 62.74921642 -39.25 63.25 C-38.59 68.2 -37.93 73.15 -37.25 78.25 C-39.22742188 78.21519531 -41.20484375 78.18039062 -43.2421875 78.14453125 C-45.19172017 78.1236434 -47.1412558 78.10287271 -49.09082031 78.08520508 C-51.08152905 78.06298521 -53.07203968 78.02483405 -55.0625 77.98632812 C-62.66181664 77.92875754 -69.14367547 78.46174733 -76.25 81.25 C-72.80787808 55.68860873 -58.03100577 29.63982024 -37.50830078 13.91552734 C-30.60856644 8.97420817 -23.37319252 4.82434509 -15.25 2.25 C-14.17105469 1.89292969 -13.09210938 1.53585938 -11.98046875 1.16796875 C-7.85956301 0.15392388 -4.21815899 -0.05700862 0 0 Z " fill="#324566" transform="translate(314.25,202.75)"/>
<path d="M0 0 C1.08667969 0.94552734 1.08667969 0.94552734 2.1953125 1.91015625 C2.79601562 2.42707031 3.39671875 2.94398438 4.015625 3.4765625 C22.01103154 20.17462578 31.01113124 44.82999336 32.1953125 68.91015625 C32.82692314 91.23914546 25.32303224 113.55324343 11.1953125 130.91015625 C9.88075575 132.26200539 8.55203217 133.60062683 7.1953125 134.91015625 C7.1655835 133.96716675 7.1655835 133.96716675 7.13525391 133.00512695 C6.65736433 115.85596896 6.65736433 115.85596896 4.1953125 98.91015625 C3.95167969 97.72292969 3.70804687 96.53570312 3.45703125 95.3125 C-2.29806166 69.16869455 -14.65527719 45.09503034 -30.8046875 23.91015625 C-31.54074219 22.93046875 -32.27679688 21.95078125 -33.03515625 20.94140625 C-46.65827962 3.56106124 -63.02150212 -10.31501522 -82.8046875 -20.08984375 C-59.82312502 -35.4108854 -17.72012457 -14.7857631 0 0 Z " fill="#F7C339" transform="translate(457.8046875,169.08984375)"/>
<path d="M0 0 C39.17473301 26.72373407 65.89532917 69.51745505 74.73828125 115.9140625 C75.2955183 119.06658576 75.61451272 122.03754694 75.4375 125.25 C70.48416995 119.94286067 68.50835142 113.51700432 66.28515625 106.734375 C62.70634383 95.98650383 59.98252952 90.89640693 49.875 85.5625 C45.16548806 83.21995457 40.71585566 81.78285523 35.5625 80.625 C30.01786276 79.0657808 28.07300071 77.04408111 25.125 72.125 C24.50753906 70.97128906 23.89007813 69.81757813 23.25390625 68.62890625 C15.35323991 53.93196779 1.35960248 41.17944264 -14.25 35.25 C-17.48917238 34.28061265 -20.14093164 34.27049844 -23.5 34.5 C-28.89888664 34.65637019 -31.3304813 32.60258263 -35.4921875 29.38671875 C-48.51966882 20.32051992 -64.92729936 14.57709963 -80.5625 12.25 C-80.12190453 5.20047248 -74.39844182 -0.15435984 -69.6875 -4.9375 C-49.86681669 -21.85515394 -19.35969018 -12.81016741 0 0 Z " fill="#314465" transform="translate(373.5625,164.75)"/>
<path d="M0 0 C29.87654533 17.26886 51.32946171 50.32101185 60.47265625 83.06640625 C65.70691623 104.51983055 67.3517308 125.52070896 56.97265625 145.73828125 C55.47265625 148.06640625 55.47265625 148.06640625 52.47265625 150.06640625 C52.2303125 149.06222656 51.98796875 148.05804688 51.73828125 147.0234375 C50.6839888 142.69551376 49.58741204 138.3791177 48.47265625 134.06640625 C48.18390625 132.94621094 47.89515625 131.82601562 47.59765625 130.671875 C45.21754314 122.22459856 41.49343348 114.77129358 37.47314453 107.02099609 C35.92808228 104.00250699 34.4749178 100.94924113 33.03515625 97.87890625 C32.56207031 96.87472656 32.08898437 95.87054688 31.6015625 94.8359375 C29.35498108 89.32442806 28.47036221 83.01091827 29.95703125 77.16015625 C30.58235498 74.62096293 30.75341626 72.24225359 30.84765625 69.62890625 C30.92113281 68.23865234 30.92113281 68.23865234 30.99609375 66.8203125 C30.23230706 62.80188255 28.70819241 61.53942752 25.47265625 59.06640625 C22.39922064 57.76277402 19.25472815 56.87385986 16.03515625 56.00390625 C2.98249115 52.40003816 2.98249115 52.40003816 -1.3125 46.6953125 C-3.07466882 42.88200183 -3.76380118 39.00659026 -4.5859375 34.90625 C-5.70229322 31.53865413 -6.74760654 30.25445031 -9.52734375 28.06640625 C-12.52257654 27.58085073 -12.52257654 27.58085073 -15.83203125 27.81640625 C-17.66701172 27.8628125 -17.66701172 27.8628125 -19.5390625 27.91015625 C-22.10678361 28.01400746 -24.67449206 28.1181722 -27.2421875 28.22265625 C-37.79240373 28.48890776 -37.79240373 28.48890776 -41.27734375 26.33984375 C-43.47772521 24.11654165 -44.59879918 22.60655385 -45.65234375 19.69140625 C-48.36593992 12.91853712 -51.26140514 8.76900634 -57.52734375 5.06640625 C-54.53638832 1.81785658 -51.4702783 -0.35332367 -47.65234375 -2.55859375 C-46.64429687 -3.14898437 -45.63625 -3.739375 -44.59765625 -4.34765625 C-30.01681972 -11.87923339 -13.78248906 -7.31097703 0 0 Z " fill="#F9D36B" transform="translate(129.52734375,320.93359375)"/>
<path d="M0 0 C5.33361891 4.16710049 10.22739708 8.71213677 15.08984375 13.4140625 C15.95480469 14.22746094 16.81976563 15.04085937 17.7109375 15.87890625 C43.34883938 40.55688668 65.71716588 80.47645028 68.08984375 116.4140625 C67.75984375 117.4040625 67.42984375 118.3940625 67.08984375 119.4140625 C63.30075573 113.92227709 60.91562914 108.66942282 59.02734375 102.2890625 C56.36138851 93.34280374 52.76031002 86.97687813 45.08984375 81.4140625 C41.60961902 79.6334824 40.0983343 79.4140625 36.08984375 79.4140625 C35.59355469 78.38667969 35.09726563 77.35929687 34.5859375 76.30078125 C21.29089848 49.05073603 2.14126351 23.09453024 -26.91015625 11.4140625 C-37.54502909 8.00677314 -48.82433792 6.19406265 -59.28125 10.9609375 C-72.53048676 18.28443835 -83.44561091 27.78822626 -92.1953125 40.10546875 C-92.76121094 40.86730469 -93.32710937 41.62914062 -93.91015625 42.4140625 C-94.24015625 42.4140625 -94.57015625 42.4140625 -94.91015625 42.4140625 C-95.75992187 23.7506917 -91.64702831 5.57853493 -78.91015625 -8.5859375 C-55.48266758 -29.559483 -22.07322092 -15.87962247 0 0 Z " fill="#324565" transform="translate(145.91015625,305.5859375)"/>
<path d="M0 0 C0.79519043 0.00563965 1.59038086 0.0112793 2.40966797 0.01708984 C26.731685 0.50285684 47.49438271 9.37378229 65.8125 25.3125 C66.41320312 25.82941406 67.01390625 26.34632813 67.6328125 26.87890625 C85.57337383 43.52607828 94.74083431 68.2696802 95.8125 92.3125 C95.94062413 102.63335636 94.56364721 112.36338272 91.8125 122.3125 C87.6432212 120.9227404 87.194749 118.83939755 85.1875 115 C84.57648438 113.84886719 83.96546875 112.69773437 83.3359375 111.51171875 C81.21300535 107.05356124 80.68490709 103.55447167 80.56640625 98.62890625 C80.53353516 97.53642578 80.50066406 96.44394531 80.46679688 95.31835938 C80.40570571 93.02679085 80.3484006 90.73511819 80.29492188 88.44335938 C80.26076172 87.34958984 80.22660156 86.25582031 80.19140625 85.12890625 C80.1663501 84.13318604 80.14129395 83.13746582 80.11547852 82.11157227 C79.79542539 79.15475596 79.15763131 76.96071808 77.8125 74.3125 C76.17215807 73.58345914 74.49948082 72.92594757 72.8125 72.3125 C68.65557647 69.29669273 66.2136622 67.25853799 64.8125 62.3125 C64.45737048 57.84524489 64.44630323 53.36429179 64.421875 48.88476562 C64.37536024 43.42711338 64.37536024 43.42711338 61.8984375 38.72265625 C58.03562864 36.11128172 55.09750585 36.09051406 50.515625 35.88671875 C45.60897011 34.84440911 42.60630215 32.38190796 39.65234375 28.40234375 C39.02457031 27.36207031 38.39679688 26.32179687 37.75 25.25 C34.34420218 19.57738682 34.34420218 19.57738682 28.8125 16.3125 C24.26340441 16.02989085 19.72441871 16.34066734 15.1796875 16.60546875 C6.46895185 16.87991659 1.44469671 14.22288437 -5.25390625 8.85546875 C-6.48947266 7.68951172 -6.48947266 7.68951172 -7.75 6.5 C-8.59691406 5.70980469 -9.44382812 4.91960937 -10.31640625 4.10546875 C-10.93386719 3.51378906 -11.55132812 2.92210937 -12.1875 2.3125 C-8.36778524 -0.20390001 -4.4130457 -0.03278637 0 0 Z " fill="#FBD36B" transform="translate(394.1875,145.6875)"/>
<path d="M0 0 C11.5139764 -0.97576071 21.27123399 3.67234563 30.24609375 10.6484375 C47.80549556 25.64242316 60.32793548 44.49085973 66 67 C66.22429687 67.84820312 66.44859375 68.69640625 66.6796875 69.5703125 C69.54633295 81.78300751 69.04341951 95.346127 62.75 106.4375 C60.17869436 110.13278955 57.14324008 113.15062272 53 115 C50.67027148 115.3576599 48.33693772 115.69295338 46 116 C46.02356567 114.53530273 46.02356567 114.53530273 46.04760742 113.04101562 C46.10288119 109.33586238 46.13669494 105.63074344 46.16479492 101.92529297 C46.17966405 100.33701402 46.19996555 98.74877445 46.22631836 97.16064453 C46.72436054 66.32109151 36.34095932 37.2276488 14.91015625 14.70703125 C10.98268444 10.68322409 6.9962427 6.78290142 2.640625 3.21875 C1.76921875 2.4865625 0.8978125 1.754375 0 1 C0 0.67 0 0.34 0 0 Z " fill="#1C323E" transform="translate(346,198)"/>
<path d="M0 0 C13.73252496 8.04041889 23.05587037 22.99838655 27.2734375 38.078125 C29.65562054 48.42765144 29.97120719 61.20966531 24.5859375 70.55078125 C22.91615811 72.44026845 21.36296019 73.16924449 19.1015625 74.23046875 C18.66400635 73.56104248 18.2264502 72.89161621 17.77563477 72.2019043 C15.74484629 69.10301022 13.70451785 66.01050545 11.6640625 62.91796875 C10.97634766 61.86544922 10.28863281 60.81292969 9.58007812 59.72851562 C4.81696073 52.52845444 -0.30216189 45.80159228 -5.8984375 39.23046875 C-6.97375732 37.96759033 -6.97375732 37.96759033 -8.07080078 36.67919922 C-13.06888425 30.86510212 -18.39069842 25.37806411 -24.9609375 21.35546875 C-27.22595903 18.87125159 -27.23173991 18.28987628 -27.0859375 15.04296875 C-25.96557438 8.58754314 -22.41845369 3.47805075 -17.5859375 -0.83203125 C-11.77272148 -2.8598973 -5.64870397 -2.39676085 0 0 Z " fill="#F7C43A" transform="translate(189.8984375,279.76953125)"/>
<path d="M0 0 C13.89354405 0.59121464 23.44427807 6.11303939 33.0625 15.9375 C45.16067517 30.13655589 49.1743601 48.0579593 50.31787109 66.18188477 C50.38055176 67.13506592 50.44323242 68.08824707 50.5078125 69.0703125 C50.55566895 69.92383301 50.60352539 70.77735352 50.65283203 71.65673828 C51.01911691 74.12903244 51.7642865 75.84294847 53 78 C49.50452594 76.69229605 46.42072551 75.15107021 43.25 73.1875 C40.07274129 71.24740397 36.8882137 69.35430097 33.625 67.5625 C32.08301796 66.7089028 30.54138357 65.85467743 29 65 C27.96875 64.43023437 26.9375 63.86046875 25.875 63.2734375 C24.8025 62.66757813 23.73 62.06171875 22.625 61.4375 C21.62726563 60.87933594 20.62953125 60.32117188 19.6015625 59.74609375 C16.36804817 57.57585215 14.34259026 55.6624796 13.53930664 51.7644043 C13.49668701 50.95914307 13.45406738 50.15388184 13.41015625 49.32421875 C13.32048584 47.96913208 13.32048584 47.96913208 13.22900391 46.58666992 C13.17405762 45.62994385 13.11911133 44.67321777 13.0625 43.6875 C12.12382452 31.04439092 9.77165509 19.41011814 4 8 C3.43539063 6.85144531 3.43539063 6.85144531 2.859375 5.6796875 C1.91940647 3.77989196 0.96163297 1.88892191 0 0 Z " fill="#1C323D" transform="translate(310,61)"/>
<path d="M0 0 C3.70604107 1.23534702 5.33748463 3.19735224 8 6 C9.03898924 7.26792901 9.03898924 7.26792901 11.32910156 7.06591797 C12.3394043 7.04158691 13.34970703 7.01725586 14.390625 6.9921875 C16.04384766 6.96705078 16.04384766 6.96705078 17.73046875 6.94140625 C20.06136492 6.89742708 22.39212506 6.84545121 24.72265625 6.78515625 C25.82996094 6.77097656 26.93726563 6.75679687 28.078125 6.7421875 C29.09293945 6.7201123 30.10775391 6.69803711 31.15332031 6.67529297 C35.22377937 7.13959061 37.823697 8.85043116 40.71875 11.6796875 C42.88005079 15.59375051 43.19013637 19.96360551 43.81640625 24.33203125 C44.12285109 26.237625 44.55425667 28.12209988 45 30 C47.95280957 31.96853971 48.73561818 32.26803054 52.0625 32.4921875 C52.85430664 32.55486816 53.64611328 32.61754883 54.46191406 32.68212891 C55.29948242 32.74577637 56.13705078 32.80942383 57 32.875 C75.30134348 34.59484377 75.30134348 34.59484377 82.125 42.0625 C85.7388378 46.56682894 86.11910108 49.97079112 86.0625 55.6875 C86.05347656 56.86699219 86.04445313 58.04648438 86.03515625 59.26171875 C86.02355469 60.16535156 86.01195312 61.06898438 86 62 C79.53984064 56.50199203 79.53984064 56.50199203 76.8828125 54.03125 C69.43691113 47.14180389 59.34626242 38.75885598 48.56640625 39.0703125 C47.74011719 39.12960938 46.91382813 39.18890625 46.0625 39.25 C40.66361336 39.40637019 38.2320187 37.35258263 34.0703125 34.13671875 C21.04283118 25.07051992 4.63520064 19.32709963 -11 17 C-10.56917524 10.10680386 -4.84473253 4.47206079 0 0 Z " fill="#274050" transform="translate(304,160)"/>
<path d="M0 0 C-2.51472247 2.51472247 -4.37940537 2.73662969 -7.8125 3.625 C-19.75981494 7.19864498 -29.26432069 14.26432069 -38 23 C-38.77085937 23.77085937 -39.54171875 24.54171875 -40.3359375 25.3359375 C-61.80891727 47.98150319 -70.59657314 80.0050602 -70.2109375 110.546875 C-69.50792988 135.38647771 -60.1653899 159.67226679 -42.234375 177.08203125 C-35.89453291 182.52409849 -28.93527027 186.45472463 -21 189 C-21 189.33 -21 189.66 -21 190 C-33.71519092 189.74569618 -44.48076589 181.78018362 -53 173 C-53.93392578 172.07960938 -53.93392578 172.07960938 -54.88671875 171.140625 C-73.07823121 152.00887706 -77.67095838 124.19837576 -77.25390625 98.890625 C-77.01311819 91.32576595 -75.80903833 84.34674954 -74 77 C-73.75636719 75.82179688 -73.51273438 74.64359375 -73.26171875 73.4296875 C-69.12771839 55.28710772 -60.00401336 39.07279013 -48 25 C-46.89398438 23.69675781 -46.89398438 23.69675781 -45.765625 22.3671875 C-34.30220652 9.9987623 -17.16485396 -0.33009335 0 0 Z " fill="#8EAFD6" transform="translate(306,203)"/>
<path d="M0 0 C3.37679239 0.44394501 4.73040679 1.57310744 6.9609375 4.05078125 C11.13476637 7.77828868 14.84880903 7.54506127 20.2578125 7.38085938 C21.36898437 7.31705078 22.48015625 7.25324219 23.625 7.1875 C25.84575427 7.08388186 28.06717679 6.99353408 30.2890625 6.91796875 C31.26568848 6.86406982 32.24231445 6.8101709 33.24853516 6.75463867 C36.55652969 7.04962842 38.33254924 8.06277633 41 10 C43.03671629 13.00658118 43 14.19096596 43 18 C41.88882813 17.95359375 40.77765625 17.9071875 39.6328125 17.859375 C21.00775125 17.3038098 8.89253024 25.02708747 -4.63671875 37.515625 C-8.24139876 41.30500762 -11.25952218 45.43212173 -14.28515625 49.69140625 C-14.85105469 50.45324219 -15.41695312 51.21507812 -16 52 C-16.33 52 -16.66 52 -17 52 C-17.88403091 32.58406193 -13.17838482 16.16607269 -1 1 C-0.67 0.67 -0.34 0.34 0 0 Z " fill="#27414F" transform="translate(68,296)"/>
<path d="M0 0 C1.78620713 6.01272541 3.24580691 12.08407645 4.6875 18.1875 C6.38707332 25.3582804 8.12012515 32.5172642 9.94921875 39.65625 C10.26995361 40.91284424 10.59068848 42.16943848 10.92114258 43.46411133 C11.54659539 45.90557046 12.17774659 48.34557842 12.81518555 50.78393555 C13.24311401 52.45903198 13.24311401 52.45903198 13.6796875 54.16796875 C14.06229736 55.64172974 14.06229736 55.64172974 14.45263672 57.14526367 C15.03916026 60.20423772 15.25249939 62.89403649 15 66 C12.75 67.75 12.75 67.75 10 69 C9.34 69.4125 8.68 69.825 8 70.25 C5.37066637 71.23600011 3.69088572 70.61961184 1 70 C-2.56725509 57.40171936 -5.93160732 44.75950115 -9.13183594 32.06298828 C-9.63388467 30.07821349 -10.14017913 28.09450855 -10.65039062 26.11181641 C-11.39843714 23.20437739 -12.13421379 20.29408288 -12.8671875 17.3828125 C-13.09727509 16.49747833 -13.32736267 15.61214417 -13.56442261 14.69998169 C-13.87067062 13.46621292 -13.87067062 13.46621292 -14.18310547 12.20751953 C-14.36565887 11.48903839 -14.54821228 10.77055725 -14.73629761 10.03030396 C-15.03687239 7.71611117 -14.78737909 6.18869247 -14 4 C-9.78681984 0.74207548 -5.29567977 -0.52956798 0 0 Z " fill="#F5D06A" transform="translate(337,239)"/>
<path d="M0 0 C2.90590921 9.7376263 5.33584889 19.50590139 7.5 29.4375 C9.50990544 38.63597581 11.67162011 47.7228167 14.24804688 56.77758789 C14.92877025 59.69475278 15.29587503 62.02758884 15 65 C11.79792875 68.20207125 7.86359127 69.96442484 3.33984375 70.05078125 C2.56769531 70.03402344 1.79554688 70.01726562 1 70 C-0.94285167 62.42936361 -2.88167825 54.85770871 -4.81545925 47.28475094 C-5.71364176 43.76786171 -6.6131751 40.25132989 -7.51586914 36.7355957 C-8.38795823 33.33884786 -9.25640267 29.94118681 -10.12239265 26.5428791 C-10.61233801 24.62413336 -11.10599367 22.70633626 -11.59971619 20.78855896 C-13.01969576 15.20440148 -14.37536117 9.73263212 -15 4 C-6.29834254 -1.46961326 -6.29834254 -1.46961326 0 0 Z " fill="#F7D16B" transform="translate(294,264)"/>
<path d="M0 0 C9.72738739 2.92612466 17.6472398 12.35886349 22.984375 20.640625 C24.49296147 23.58169714 25.80885491 26.55214675 26.984375 29.640625 C23.921875 30.015625 23.921875 30.015625 19.984375 29.640625 C18.3828125 28.3046875 18.3828125 28.3046875 16.796875 26.640625 C14.39972748 24.29820687 13.33800391 23.67880601 9.9453125 23.3125 C7.81446613 23.36335552 5.68403252 23.46499206 3.55859375 23.625 C2.70910156 23.63015625 1.85960937 23.6353125 0.984375 23.640625 C-1.23752324 21.41872676 -1.94161392 19.55579792 -3.015625 16.640625 C-3.61890625 16.69863281 -4.2221875 16.75664062 -4.84375 16.81640625 C-7.31113149 16.95569391 -9.5657204 16.97971214 -12.015625 16.640625 C-14.390625 14.453125 -14.390625 14.453125 -16.015625 11.640625 C-16.593125 10.7125 -17.170625 9.784375 -17.765625 8.828125 C-18.178125 8.10625 -18.590625 7.384375 -19.015625 6.640625 C-12.68286638 0.13671074 -8.90346971 -1.58744034 0 0 Z " fill="#FAD36C" transform="translate(186.015625,278.359375)"/>
<path d="M0 0 C-0.57944995 3.36988651 -1.59850472 4.94499217 -4.0625 7.28515625 C-5.00343506 8.19563721 -5.00343506 8.19563721 -5.96337891 9.12451172 C-6.63546387 9.76404785 -7.30754883 10.40358398 -8 11.0625 C-14.14369134 17.06482441 -19.75230307 23.18782784 -25 30 C-26.00319572 31.26358527 -27.00715842 32.52656184 -28.01171875 33.7890625 C-46.78704377 57.59535256 -61.79983999 84.42508365 -72 113 C-72.27779297 113.77666016 -72.55558594 114.55332031 -72.84179688 115.35351562 C-76.40532257 125.44038953 -79.39844246 135.62437639 -82 146 C-82.99 146 -83.98 146 -85 146 C-82.69500418 121.62466924 -71.41223619 97.39597343 -60 76 C-59.62794434 75.29456055 -59.25588867 74.58912109 -58.87255859 73.86230469 C-48.19686102 53.71931142 -35.49843632 35.02649739 -20.05078125 18.234375 C-18.13614309 16.14833114 -16.28177042 14.02317954 -14.4375 11.875 C-11.93813557 9.02024809 -9.38230372 6.23299294 -6.75 3.5 C-6.10546875 2.8296875 -5.4609375 2.159375 -4.796875 1.46875 C-3 0 -3 0 0 0 Z " fill="#344E64" transform="translate(172,47)"/>
<path d="M0 0 C0 0.66 0 1.32 0 2 C-2.97 3.32 -5.94 4.64 -9 6 C-8.26441121 12.42546752 -6.67634142 18.55846555 -5.05859375 24.8125 C-4.4691356 27.1275366 -3.87995121 29.44264291 -3.29101562 31.7578125 C-2.36381319 35.38597456 -1.43403837 39.01342855 -0.49926758 42.63964844 C0.40498174 46.1537656 1.29885954 49.67039514 2.19140625 53.1875 C2.47262833 54.26684814 2.7538504 55.34619629 3.04359436 56.45825195 C4.38862728 61.78494804 5.34939285 66.50301537 5 72 C3.14453125 71.4609375 3.14453125 71.4609375 1 70 C0.01481978 67.49509382 -0.68261228 65.22278716 -1.3125 62.625 C-1.51343262 61.8520459 -1.71436523 61.0790918 -1.92138672 60.28271484 C-2.63195059 57.52602464 -3.31588645 54.76337015 -4 52 C-4.5890812 49.66647403 -5.17896813 47.33315136 -5.76953125 45 C-7.255628 39.10630639 -8.72554541 33.20884141 -10.17749023 27.30664062 C-10.73044625 25.08365569 -11.29527067 22.86359261 -11.87133789 20.64648438 C-12.14453857 19.59009766 -12.41773926 18.53371094 -12.69921875 17.4453125 C-12.94502686 16.50961426 -13.19083496 15.57391602 -13.4440918 14.60986328 C-14.21797405 10.97666113 -14.21341044 7.69911437 -14 4 C-4.58997722 -0.59225513 -4.58997722 -0.59225513 0 0 Z " fill="#213134" transform="translate(289,262)"/>
<path d="M0 0 C0.76747559 0.30969727 1.53495117 0.61939453 2.32568359 0.93847656 C4.13313099 1.65591141 5.95529691 2.33716361 7.7890625 2.984375 C10 5 10 5 10.40917969 7.09570312 C10.53195972 9.83044477 10.48321621 12.5147421 10.375 15.25 C10.35373047 16.64412109 10.35373047 16.64412109 10.33203125 18.06640625 C10.03719969 31.96280031 10.03719969 31.96280031 8 34 C5 34.125 5 34.125 2 34 C-1.00351688 30.99648312 -0.07553356 23.53214306 -0.09765625 19.62890625 C-0.09105824 17.27341759 -0.07920524 14.91793866 -0.0625 12.5625 C-0.05798828 11.35400391 -0.05347656 10.14550781 -0.04882812 8.90039062 C-0.03710145 5.93354211 -0.02068896 2.9667973 0 0 Z " fill="#D9E5FC" transform="translate(109,252)"/>
<path d="M0 0 C-2.54456151 2.96865509 -5.48994665 4.3619751 -9 6 C-7.67546044 13.89558826 -5.93908858 21.62336325 -3.9609375 29.37890625 C-3.67521881 30.51279282 -3.38950012 31.64667938 -3.09512329 32.81492615 C-2.19182993 36.39832358 -1.28382557 39.980502 -0.375 43.5625 C0.54050925 47.17674415 1.45495099 50.79124555 2.36654663 54.40647888 C2.93172023 56.64736884 3.49921665 58.88767449 4.06924438 61.12733459 C4.44996597 62.63546974 4.44996597 62.63546974 4.83837891 64.17407227 C5.0632901 65.0602272 5.28820129 65.94638214 5.51992798 66.85939026 C6 69 6 69 6 71 C4.09712219 70.73797607 4.09712219 70.73797607 2 70 C1.06340027 68.35821533 1.06340027 68.35821533 0.44604492 66.19238281 C0.20703461 65.37499634 -0.03197571 64.55760986 -0.27822876 63.7154541 C-0.51641327 62.81935425 -0.75459778 61.92325439 -1 61 C-1.24986664 60.08101929 -1.49973328 59.16203857 -1.75717163 58.21520996 C-2.57650218 55.12355936 -3.36086378 52.02471367 -4.13671875 48.921875 C-4.42102249 47.79227356 -4.70532623 46.66267212 -4.99824524 45.49884033 C-5.59414682 43.12598299 -6.18820847 40.75266289 -6.78051758 38.37890625 C-7.68859256 34.74562857 -8.60670571 31.11498249 -9.52539062 27.484375 C-10.10477819 25.17202814 -10.6835749 22.85953314 -11.26171875 20.546875 C-11.53666672 19.46347839 -11.81161469 18.38008179 -12.09489441 17.26385498 C-12.34548111 16.25220276 -12.59606781 15.24055054 -12.85424805 14.19824219 C-13.07614304 13.31271667 -13.29803802 12.42719116 -13.5266571 11.51483154 C-14.00940132 8.95005156 -14.08570752 6.60333168 -14 4 C-12.23494565 3.13395466 -10.46271926 2.28251358 -8.6875 1.4375 C-7.70136719 0.96183594 -6.71523438 0.48617187 -5.69921875 -0.00390625 C-3 -1 -3 -1 0 0 Z " fill="#1A2B31" transform="translate(332,238)"/>
<path d="M0 0 C11.13348785 1.16072533 18.95371407 6.834236 26.0546875 15.30078125 C36.07248761 29.20098181 41.60085774 44.70678367 40 62 C38.86528626 68.48005944 36.01082092 73.65914957 31 78 C30.34 78 29.68 78 29 78 C28.67 78.66 28.34 79.32 28 80 C27.67 79.01 27.34 78.02 27 77 C27.763125 76.319375 28.52625 75.63875 29.3125 74.9375 C34.81455433 68.92362666 35.53266581 63.22880208 35.4375 55.375 C35.42920166 54.49126709 35.42090332 53.60753418 35.41235352 52.69702148 C35.00787976 36.91102982 28.19997333 22.54650102 17.33203125 11.16015625 C12.19928474 6.40570262 6.84317091 2.75465921 0 1 C0 0.67 0 0.34 0 0 Z " fill="#96B3D3" transform="translate(182,277)"/>
<path d="M0 0 C2.97 0.99 5.94 1.98 9 3 C9.05786668 6.79160297 9.09355054 10.58309311 9.125 14.375 C9.14175781 15.45523437 9.15851563 16.53546875 9.17578125 17.6484375 C9.18222656 18.6796875 9.18867188 19.7109375 9.1953125 20.7734375 C9.20578613 21.72653809 9.21625977 22.67963867 9.22705078 23.66162109 C9 26 9 26 7 28 C4.5 28.25 4.5 28.25 2 28 C0 26 0 26 -0.22705078 23.38623047 C-0.21657715 22.30744629 -0.20610352 21.22866211 -0.1953125 20.1171875 C-0.18886719 18.95058594 -0.18242187 17.78398437 -0.17578125 16.58203125 C-0.15902344 15.35871094 -0.14226562 14.13539063 -0.125 12.875 C-0.11597656 11.64394531 -0.10695312 10.41289062 -0.09765625 9.14453125 C-0.07402548 6.09616185 -0.04108054 3.04817618 0 0 Z " fill="#D4E0F7" transform="translate(134,266)"/>
<path d="M0 0 C6.64107617 2.3981664 6.64107617 2.3981664 9 5 C9.32343618 7.85454681 9.42466301 10.28852208 9.3125 13.125 C9.30283203 13.86621094 9.29316406 14.60742188 9.28320312 15.37109375 C9.16840278 20.83159722 9.16840278 20.83159722 8 22 C4.5 22.125 4.5 22.125 1 22 C0 21 0 21 -0.11352539 18.95874023 C-0.10828857 18.08419189 -0.10305176 17.20964355 -0.09765625 16.30859375 C-0.09443359 15.36435547 -0.09121094 14.42011719 -0.08789062 13.44726562 C-0.07951172 12.45404297 -0.07113281 11.46082031 -0.0625 10.4375 C-0.05798828 9.44041016 -0.05347656 8.44332031 -0.04882812 7.41601562 C-0.03700007 4.94395151 -0.02051849 2.47200482 0 0 Z " fill="#D5E2F8" transform="translate(340,126)"/>
<path d="M0 0 C0.99 0 1.98 0 3 0 C3 18.48 3 36.96 3 56 C2.01 55.67 1.02 55.34 0 55 C0 36.85 0 18.7 0 0 Z " fill="#364D66" transform="translate(444,385)"/>
<path d="M0 0 C4.8447202 0.88984657 7.91828937 3.5613157 11.5625 6.75 C14.50682938 8.8846388 16.43569531 9.48365642 20.0625 9.5625 C22.38230757 8.01596162 23.21661407 6.2974238 24.625 3.875 C25.099375 3.111875 25.57375 2.34875 26.0625 1.5625 C26.7225 1.5625 27.3825 1.5625 28.0625 1.5625 C27.81804295 5.71826993 27.40314564 8.09160749 24.9375 11.5 C22.0625 13.5625 22.0625 13.5625 18.8125 14.25 C12.82684963 13.15263077 8.62851705 9.61151916 3.94921875 5.875 C2.10147926 4.35253697 2.10147926 4.35253697 -0.4375 4.375 C-4.34698705 6.23200635 -5.35677738 9.6857557 -6.9375 13.5625 C-7.9275 13.2325 -8.9175 12.9025 -9.9375 12.5625 C-8.62554102 6.47978109 -6.82366811 1.30665985 0 0 Z " fill="#344F65" transform="translate(68.9375,47.4375)"/>
<path d="M0 0 C0.99 0.33 1.98 0.66 3 1 C2.66691617 9.72679641 2.66691617 9.72679641 0.625 13.625 C-4.628916 16.37705124 -10.82712315 15.64381536 -16.375 14 C-17.24125 13.67 -18.1075 13.34 -19 13 C-21.75065232 12.83142517 -21.75065232 12.83142517 -24 13 C-26.39073445 16.82517513 -26.55966552 20.59665524 -27 25 C-27.99 24.67 -28.98 24.34 -30 24 C-30.29047722 18.38410702 -30.10842092 14.90174068 -27 10 C-23.96344656 8.48172328 -21.36087176 8.83195641 -18 9 C-17.05125 9.33 -16.1025 9.66 -15.125 10 C-11.02286537 11.31268308 -7.26879078 11.17075163 -3 11 C-1.38935371 7.34920174 -0.55105909 3.9492568 0 0 Z " fill="#354E65" transform="translate(316,451)"/>
<path d="M0 0 C0.18451025 13.6332574 0.18451025 13.6332574 -1 20 C-6.75 21.125 -6.75 21.125 -9 20 C-9.31241455 17.28553021 -9.51336592 14.66090639 -9.625 11.9375 C-9.66367187 11.17888672 -9.70234375 10.42027344 -9.7421875 9.63867188 C-9.83673562 7.75952805 -9.91946756 5.87979664 -10 4 C-8.6078125 3.566875 -8.6078125 3.566875 -7.1875 3.125 C-5.01319732 2.35759905 -2.12787814 0 0 0 Z " fill="#D4E0F8" transform="translate(374,135)"/>
<path d="M0 0 C3.15850062 2.75356464 3.90662809 4.34639662 4.5 8.5 C3.90662809 12.65360338 3.15850062 14.24643536 0 17 C-3.94929279 18.14888518 -6.02958859 18.43129396 -9.8125 16.75 C-12 15 -12 15 -14 12 C-14.46362482 7.82737663 -14.4494094 5.71285629 -12.1875 2.125 C-8.28149586 -1.66940403 -5.0774203 -1.24708569 0 0 Z M-8.875 3.5625 C-11.15151719 5.80087429 -11.15151719 5.80087429 -11.625 8.5 C-10.75625443 11.97498228 -8.8989331 13.04322016 -6 15 C-3.08482708 13.92598892 -1.22189824 13.22189824 1 11 C0.67673447 7.40320934 0.67673447 7.40320934 0 4 C-4.44210126 1.89271749 -4.44210126 1.89271749 -8.875 3.5625 Z " fill="#354E65" transform="translate(44,138)"/>
<path d="M0 0 C2.16015625 0.34375 2.16015625 0.34375 4.66015625 1.90625 C6.66149037 5.15841794 7.09326721 7.53107499 7.16015625 11.34375 C5.94408413 14.22392082 4.85712081 15.79613499 2.41015625 17.71875 C-0.98096462 18.66072802 -3.44975578 18.19127199 -6.83984375 17.34375 C-9.51865411 15.36988974 -10.59375678 14.02927799 -11.71484375 10.90625 C-11.89769451 7.15780952 -10.87696038 4.6362527 -8.5390625 1.72265625 C-5.82466843 -0.48005894 -3.37442693 -0.13168495 0 0 Z M-7.83984375 5.34375 C-8.85446765 7.1502155 -8.85446765 7.1502155 -8.83984375 9.34375 C-7.50524378 12.53196104 -6.61350585 13.97727848 -3.46484375 15.46875 C-0.596896 15.57574916 -0.596896 15.57574916 2.03515625 13.21875 C4.44031908 10.57913555 4.44031908 10.57913555 4.09765625 7.65625 C3.27712204 5.2009558 3.27712204 5.2009558 1.16015625 3.34375 C-2.89245662 2.99884678 -4.38738551 3.04211118 -7.83984375 5.34375 Z " fill="#354D65" transform="translate(33.83984375,467.65625)"/>
<path d="M0 0 C0.99 0 1.98 0 3 0 C3 15.18 3 30.36 3 46 C2.01 46 1.02 46 0 46 C0 30.82 0 15.64 0 0 Z " fill="#354E65" transform="translate(435,399)"/>
<path d="M0 0 C-1.42986842 4.28960527 -4.65374718 5.4475591 -8.375 7.625 C-14.74629152 11.44549614 -20.32849992 15.5050987 -25.86328125 20.48046875 C-26.92095703 21.23263672 -26.92095703 21.23263672 -28 22 C-28.99 21.67 -29.98 21.34 -31 21 C-29.91900985 17.75702956 -29.411412 17.27802257 -26.7890625 15.328125 C-26.12608154 14.83143311 -25.46310059 14.33474121 -24.7800293 13.82299805 C-24.06886963 13.30390869 -23.35770996 12.78481934 -22.625 12.25 C-21.54375854 11.45299683 -21.54375854 11.45299683 -20.44067383 10.63989258 C-4.04568984 -1.34856328 -4.04568984 -1.34856328 0 0 Z " fill="#354E65" transform="translate(207,22)"/>
<path d="M0 0 C4.17576168 0.68416434 7.88080407 2.01365009 11.8125 3.5625 C13.55466797 4.24505859 13.55466797 4.24505859 15.33203125 4.94140625 C16.21246094 5.29074219 17.09289062 5.64007813 18 6 C17.4837985 11.93631729 16.10645166 17.85216582 13 23 C10.86328125 23.7890625 10.86328125 23.7890625 9 24 C9.45535099 22.43662827 9.91442776 20.87434151 10.375 19.3125 C10.63023437 18.44238281 10.88546875 17.57226562 11.1484375 16.67578125 C11.97617314 14.07486881 12.98630809 11.53422977 14 9 C9.38 7.02 4.76 5.04 0 3 C0 2.01 0 1.02 0 0 Z " fill="#334D64" transform="translate(435,79)"/>
<path d="M0 0 C0.99 0 1.98 0 3 0 C2.93941406 0.80179688 2.87882812 1.60359375 2.81640625 2.4296875 C2.09041742 12.28079749 1.52560833 22.13645652 1 32 C-0.485 32.495 -0.485 32.495 -2 33 C-2.20127315 21.78461253 -2.25572049 11.03691812 0 0 Z " fill="#344F66" transform="translate(85,201)"/>
<path d="M0 0 C0.99 0 1.98 0 3 0 C3 9.24 3 18.48 3 28 C2.01 27.67 1.02 27.34 0 27 C0 18.09 0 9.18 0 0 Z " fill="#364F65" transform="translate(453,410)"/>
<path d="M0 0 C0.99 0.33 1.98 0.66 3 1 C3 9.25 3 17.5 3 26 C2.01 26.33 1.02 26.66 0 27 C0 18.09 0 9.18 0 0 Z " fill="#354F65" transform="translate(425,422)"/>
<path d="M0 0 C3.96 0 7.92 0 12 0 C6.56777494 5.73401535 6.56777494 5.73401535 3 7 C1.68 7 0.36 7 -1 7 C-0.67 4.69 -0.34 2.38 0 0 Z " fill="#172931" transform="translate(393,307)"/>
<path d="M0 0 C10.55808656 1.55808656 10.55808656 1.55808656 15 6 C14.01 6.495 14.01 6.495 13 7 C11.28269241 6.04227077 9.56844825 5.07750324 7.88671875 4.05859375 C5.36959267 2.6462932 2.76212522 1.80842689 0 1 C0 0.67 0 0.34 0 0 Z " fill="#A4BBD3" transform="translate(182,277)"/>
<path d="M0 0 C-2.52956528 3.0916909 -5.22454612 3.90931332 -9 5 C-8.8125 3.125 -8.8125 3.125 -8 1 C-4.70594381 -0.82039948 -3.63772813 -1.21257604 0 0 Z " fill="#243337" transform="translate(332,238)"/>
</svg>
