<?xml version="1.0" encoding="UTF-8"?>
<svg version="1.1" xmlns="http://www.w3.org/2000/svg" width="512" height="512">
<path d="M0 0 C1.78876993 1.44800301 1.78876993 1.44800301 4.65356445 2.97363281 C8.604513 2.208359 11.28414016 -0.1300853 14.40356445 -2.58886719 C26.88573599 -11.7959308 40.71047983 -18.00039019 55.65356445 -22.02636719 C56.31195313 -22.20425781 56.9703418 -22.38214844 57.64868164 -22.56542969 C76.56808904 -27.37884782 98.81525351 -27.09715147 117.65356445 -22.02636719 C118.36061523 -21.8383252 119.06766602 -21.6502832 119.79614258 -21.45654297 C137.61490272 -16.52302281 153.5600026 -7.94238301 167.65356445 3.97363281 C168.42055664 4.60140625 169.18754883 5.22917969 169.9777832 5.87597656 C188.70319863 21.60532552 201.35673793 44.60191172 207.65356445 67.97363281 C207.83145508 68.63202148 208.0093457 69.29041016 208.19262695 69.96875 C216.08471101 100.98902483 210.001409 135.88121294 193.76391602 163.22460938 C191.25374454 167.17862619 188.37602459 170.84269169 185.4387207 174.48535156 C183.16123193 177.45844805 183.16123193 177.45844805 182.65356445 180.97363281 C184.05092193 183.23415278 185.45612254 185.21054562 187.09106445 187.28613281 C207.46279268 214.56432134 214.59599581 248.44972733 209.87817383 282.06420898 C209.30220336 285.41585834 208.53726097 288.69063973 207.65356445 291.97363281 C207.46552246 292.68068359 207.27748047 293.38773437 207.08374023 294.11621094 C202.15022008 311.93497108 193.56958027 327.88007096 181.65356445 341.97363281 C181.02579102 342.740625 180.39801758 343.50761719 179.7512207 344.29785156 C164.02187174 363.02326699 141.02528555 375.67680629 117.65356445 381.97363281 C116.99517578 382.15152344 116.33678711 382.32941406 115.65844727 382.51269531 C84.64864038 390.40211614 49.85133013 384.31052963 22.49291992 368.14453125 C18.59682489 365.66435183 14.88792444 362.86228 11.30712891 359.94726562 C9.51835898 358.49926261 9.51835898 358.49926261 6.65356445 356.97363281 C2.67175039 357.74121143 -0.06748105 360.13245656 -3.22143555 362.59863281 C-29.92326214 382.30372409 -63.83545294 388.77389956 -96.43701172 384.19824219 C-99.78866107 383.62227172 -103.06344246 382.85732933 -106.34643555 381.97363281 C-107.05348633 381.78559082 -107.76053711 381.59754883 -108.48901367 381.40380859 C-126.30777381 376.47028844 -142.25287369 367.88964863 -156.34643555 355.97363281 C-157.11342773 355.34585937 -157.88041992 354.71808594 -158.6706543 354.07128906 C-177.39606972 338.3419401 -190.04960903 315.34535391 -196.34643555 291.97363281 C-196.61327148 290.9860498 -196.61327148 290.9860498 -196.88549805 289.97851562 C-204.77491888 258.96870874 -198.68333237 224.17139849 -182.51733398 196.81298828 C-180.03715456 192.91689325 -177.23508274 189.2079928 -174.32006836 185.62719727 C-172.87206535 183.83842734 -172.87206535 183.83842734 -171.34643555 180.97363281 C-172.11401416 176.99181875 -174.50525929 174.25258731 -176.97143555 171.09863281 C-196.67652683 144.39680622 -203.14670229 110.48461542 -198.57104492 77.88305664 C-197.99507446 74.53140729 -197.23013206 71.2566259 -196.34643555 67.97363281 C-196.15839355 67.26658203 -195.97035156 66.55953125 -195.77661133 65.83105469 C-190.84309117 48.01229455 -182.26245137 32.06719467 -170.34643555 17.97363281 C-169.71866211 17.20664063 -169.09088867 16.43964844 -168.4440918 15.64941406 C-152.71474284 -3.07600136 -129.71815664 -15.72954067 -106.34643555 -22.02636719 C-105.68804687 -22.20425781 -105.0296582 -22.38214844 -104.35131836 -22.56542969 C-69.14339976 -31.52292135 -28.18285992 -22.94279052 0 0 Z " fill="#7CB342" transform="translate(250.346435546875,76.0263671875)"/>
<path d="M0 0 C-0.58023879 4.48213441 -2.46245953 7.84303621 -4.6875 11.6875 C-9.34228943 20.10341797 -12.40799354 28.75875071 -15 38 C-15.34160156 39.19109375 -15.68320313 40.3821875 -16.03515625 41.609375 C-20.62205956 61.15171655 -19.97484827 84.84319956 -14 104 C-13.78569336 104.6904541 -13.57138672 105.3809082 -13.35058594 106.09228516 C-10.61376327 114.5915736 -6.99332149 122.44144118 -2.45214844 130.12988281 C-1.1028816 132.48034476 -0.03107734 134.41060221 0.11328125 137.1484375 C-1.66042734 140.09839495 -4.3794406 141.62114896 -7.25 143.375 C-8.19456055 143.96317505 -8.19456055 143.96317505 -9.15820312 144.56323242 C-30.34256693 157.49067765 -53.86447465 162.37079316 -78.16015625 156.96875 C-95.90782239 152.49121063 -109.16185301 144.68439672 -122 132 C-122.65484375 131.41734375 -123.3096875 130.8346875 -123.984375 130.234375 C-140.20848668 115.49871394 -147.4336904 91.90259829 -148.52392578 70.61035156 C-148.84408006 53.61380689 -143.46089579 37.53796776 -135 23 C-134.4946875 22.13117188 -133.989375 21.26234375 -133.46875 20.3671875 C-122.64261427 3.10551553 -106.08227776 -9.25519491 -87 -16 C-85.44732422 -16.58974609 -85.44732422 -16.58974609 -83.86328125 -17.19140625 C-54.69659114 -26.73626379 -23.70883449 -17.90341782 0 0 Z " fill="#F0F6E8" transform="translate(233,268)"/>
<path d="M0 0 C2.50471999 1.95023999 4.91878678 3.96563855 7.30859375 6.0546875 C8.32179687 6.92480469 8.32179687 6.92480469 9.35546875 7.8125 C23.3246226 20.71999816 34.27972416 41.82409226 35.4855957 60.84692383 C36.02435791 87.5725344 31.57585491 108.51255481 15.30859375 130.0546875 C10.82655076 129.47446055 7.46539742 127.59243211 3.62109375 125.3671875 C-1.98894354 122.26083211 -7.60924101 119.77617334 -13.69140625 117.7421875 C-14.36518311 117.51249268 -15.03895996 117.28279785 -15.7331543 117.04614258 C-27.57077006 113.25472058 -39.27170402 111.54660069 -51.67089844 111.66357422 C-53.69144106 111.67968778 -55.70998499 111.66359242 -57.73046875 111.64453125 C-70.06561589 111.62380117 -81.87717556 113.71869849 -93.56640625 117.6796875 C-94.3032666 117.92404541 -95.04012695 118.16840332 -95.79931641 118.42016602 C-102.30117303 120.69035963 -108.27316544 123.7729127 -114.21044922 127.24658203 C-119.20605788 130.10764804 -119.20605788 130.10764804 -121.77441406 129.82739258 C-124.97075085 128.5390067 -126.33708821 125.6350933 -128.06640625 122.8046875 C-128.6545813 121.86012695 -128.6545813 121.86012695 -129.25463867 120.89648438 C-142.32182687 99.48312204 -147.44165465 75.18851504 -141.59570312 50.62695312 C-135.57259584 27.72303009 -121.22232901 7.43991758 -100.93383789 -5.02514648 C-68.60347628 -23.8863948 -30.45579303 -22.01304054 0 0 Z " fill="#F0F6E8" transform="translate(228.69140625,102.9453125)"/>
<path d="M0 0 C25.44335924 -0.7871698 48.50831387 7.64683177 67.09521484 25.10522461 C83.93361605 41.52549102 94.19263158 63.30904822 95.13647461 86.95141602 C95.42965475 110.75608693 86.24017439 133.37281911 70.6640625 151.19140625 C69.79394531 152.20460937 69.79394531 152.20460937 68.90625 153.23828125 C54.58063649 168.74219198 32.52784144 178.63541614 11.58203125 179.5390625 C-4.74073851 179.91103898 -18.41926496 178.16220176 -33.3359375 171.19140625 C-34.64884766 170.60359375 -34.64884766 170.60359375 -35.98828125 170.00390625 C-41.98333298 167.19574643 -47.54072079 163.8009312 -52.3359375 159.19140625 C-53.3359375 156.19140625 -53.3359375 156.19140625 -51.859375 153.07421875 C-51.14998841 151.81777428 -50.43336099 150.56540039 -49.7109375 149.31640625 C-35.01741835 122.73635443 -30.22642362 88.69852318 -38.13964844 59.15771484 C-41.48219408 47.72474152 -46.04207769 37.14601039 -52.11328125 26.8984375 C-53.3359375 24.19140625 -53.3359375 24.19140625 -53.41796875 22.1015625 C-51.70686753 19.08088201 -48.97468451 17.58136953 -46.0859375 15.81640625 C-45.45623047 15.42428955 -44.82652344 15.03217285 -44.17773438 14.62817383 C-30.54572487 6.3094413 -15.99702816 0.91786227 0 0 Z " fill="#F0F6E8" transform="translate(332.3359375,84.80859375)"/>
<path d="M0 0 C4.65535946 0.60877778 8.40381792 2.59276921 12.5 4.75 C31.24911241 14.29051521 48.79500681 18.35234101 69.8125 18.4375 C71.08657715 18.4475708 72.3606543 18.4576416 73.67333984 18.46801758 C85.77026625 18.35796037 97.40771444 16.26078113 108.875 12.375 C109.61186035 12.13064209 110.3487207 11.88628418 111.10791016 11.63452148 C117.60976678 9.36432787 123.58175919 6.2817748 129.51904297 2.80810547 C134.51465163 -0.05296054 134.51465163 -0.05296054 137.08300781 0.22729492 C140.2793446 1.5156808 141.64568196 4.4195942 143.375 7.25 C143.96317505 8.19456055 143.96317505 8.19456055 144.56323242 9.15820312 C156.934908 29.43182036 162.91079685 53.28126359 157.375 76.75 C152.96257092 94.03034099 145.38371127 108.05339276 133 121 C132.07960938 122.03253906 132.07960938 122.03253906 131.140625 123.0859375 C117.33439395 138.01318731 95.15478647 147.1437509 75 148 C73.96359375 148.07476562 72.9271875 148.14953125 71.859375 148.2265625 C54.31949831 148.94789942 38.03199097 143.74841045 23 135 C21.69675781 134.24203125 21.69675781 134.24203125 20.3671875 133.46875 C3.18144726 122.69023696 -9.39987072 106.0722597 -16 87 C-16.39316406 85.89140625 -16.78632813 84.7828125 -17.19140625 83.640625 C-22.38190334 66.49570778 -22.50529329 45.76364039 -16 29 C-15.75862305 28.35562988 -15.51724609 27.71125977 -15.26855469 27.04736328 C-11.46411137 17.03378135 -6.4520822 8.54425397 0 0 Z " fill="#F0F6E8" transform="translate(268,279)"/>
<path d="M0 0 C4.65535946 0.60877778 8.40381792 2.59276921 12.5 4.75 C31.24911241 14.29051521 48.79500681 18.35234101 69.8125 18.4375 C71.08657715 18.4475708 72.3606543 18.4576416 73.67333984 18.46801758 C85.77026625 18.35796037 97.40771444 16.26078113 108.875 12.375 C109.61186035 12.13064209 110.3487207 11.88628418 111.10791016 11.63452148 C117.60976678 9.36432787 123.58175919 6.2817748 129.51904297 2.80810547 C134.51465163 -0.05296054 134.51465163 -0.05296054 137.08300781 0.22729492 C140.2793446 1.5156808 141.64568196 4.4195942 143.375 7.25 C143.96317505 8.19456055 143.96317505 8.19456055 144.56323242 9.15820312 C156.934908 29.43182036 162.91079685 53.28126359 157.375 76.75 C152.96257092 94.03034099 145.38371127 108.05339276 133 121 C132.07960938 122.03253906 132.07960938 122.03253906 131.140625 123.0859375 C117.83592808 137.47093032 96.83441829 146.31381505 77.47265625 147.91796875 C71.64896412 148.11117181 65.82559807 148.06907824 60 148 C60.33 147.34 60.66 146.68 61 146 C62.94140625 145.578125 62.94140625 145.578125 65.5625 145.25 C87.00000759 141.65852146 106.80080523 129.14486153 120 112 C126.37872701 102.91994278 130.78728949 93.63162033 134 83 C134.35191406 81.8759375 134.70382812 80.751875 135.06640625 79.59375 C139.03875945 64.30268327 138.370085 47.03042341 133.875 31.984375 C133 29 133 29 133 26 C131.99324219 26.44730469 130.98648438 26.89460938 129.94921875 27.35546875 C95.40366148 42.34905579 55.33614292 45.43496495 19.62939453 32.11572266 C9.26956381 27.96186426 -0.45743218 22.76849759 -10 17 C-8.51364884 12.78345644 -6.38750841 9.37521395 -3.875 5.6875 C-3.15054687 4.61886719 -2.42609375 3.55023438 -1.6796875 2.44921875 C-0.84824219 1.23685547 -0.84824219 1.23685547 0 0 Z " fill="#DAEAC6" transform="translate(268,279)"/>
<path d="M0 0 C-3.32628166 2.21752111 -5.80250071 2.74148263 -9.6875 3.625 C-30.836783 8.8642896 -50.09273435 22.39829437 -61.96875 40.62109375 C-74.57112579 61.58466116 -79.43532265 85.20390774 -74.64453125 109.43359375 C-73.65199286 113.38570116 -72.40278946 117.17421056 -71 121 C-66.25050211 119.4520155 -61.54600725 117.83426137 -56.875 116.0625 C-31.82496003 106.95656625 -5.09768067 105.31379418 21.00585938 110.59863281 C22.79482588 110.95870394 24.59243464 111.27519032 26.390625 111.5859375 C41.93546616 114.59335652 57.87788464 122.25192309 71 131 C69.51364884 135.21654356 67.38750841 138.62478605 64.875 142.3125 C64.15054688 143.38113281 63.42609375 144.44976562 62.6796875 145.55078125 C62.12539062 146.35902344 61.57109375 147.16726562 61 148 C56.51795701 147.41977305 53.15680367 145.53774461 49.3125 143.3125 C43.70246271 140.20614461 38.08216524 137.72148584 32 135.6875 C31.32622314 135.45780518 30.65244629 135.22811035 29.95825195 134.99145508 C18.12063619 131.20003308 6.41970223 129.49191319 -5.97949219 129.60888672 C-8.00003481 129.62500028 -10.01857874 129.60890492 -12.0390625 129.58984375 C-24.37420964 129.56911367 -36.18576931 131.66401099 -47.875 135.625 C-48.61186035 135.86935791 -49.3487207 136.11371582 -50.10791016 136.36547852 C-56.60976678 138.63567213 -62.58175919 141.7182252 -68.51904297 145.19189453 C-73.51465163 148.05296054 -73.51465163 148.05296054 -76.08300781 147.77270508 C-79.2793446 146.4843192 -80.64568196 143.5804058 -82.375 140.75 C-82.96317505 139.80543945 -82.96317505 139.80543945 -83.56323242 138.84179688 C-96.63042062 117.42843454 -101.7502484 93.13382754 -95.90429688 68.57226562 C-89.88118959 45.66834259 -75.53092276 25.38523008 -55.24243164 12.92016602 C-37.63943707 2.65073397 -20.11608549 -0.85600364 0 0 Z " fill="#DAEAC6" transform="translate(183,85)"/>
<path d="M0 0 C25.44335924 -0.7871698 48.50831387 7.64683177 67.09521484 25.10522461 C83.35424432 40.96050638 94.20493039 62.36946191 94.90625 85.33984375 C94.95023322 89.63028237 94.84646308 93.90499259 94.6640625 98.19140625 C92.44654139 94.86512459 91.92257987 92.38890554 91.0390625 88.50390625 C85.63503704 66.76250139 71.35799131 47.34472317 52.6640625 35.19140625 C32.2540526 23.36882476 7.81758471 17.97875455 -15.50952148 23.62426758 C-17.46527181 24.15844841 -19.4090112 24.73605897 -21.3515625 25.31640625 C-24.3359375 26.19140625 -24.3359375 26.19140625 -27.3359375 26.19140625 C-26.87703125 27.25617188 -26.418125 28.3209375 -25.9453125 29.41796875 C-11.40567439 63.61722656 -7.1809292 104.01410838 -21.3359375 139.19140625 C-21.57683105 139.79227051 -21.81772461 140.39313477 -22.06591797 141.01220703 C-26.06748331 150.87031931 -30.85499082 160.08022216 -36.3359375 169.19140625 C-40.11039201 167.82257355 -43.22540145 166.101581 -46.5234375 163.81640625 C-47.38324219 163.23117188 -48.24304688 162.6459375 -49.12890625 162.04296875 C-52.72359688 159.02724599 -52.72359688 159.02724599 -53.3359375 156.19140625 C-52.26408487 153.69244105 -51.16002089 151.56743539 -49.7734375 149.25390625 C-34.89573381 122.84374351 -30.25272919 88.60032203 -38.13964844 59.15771484 C-41.48219408 47.72474152 -46.04207769 37.14601039 -52.11328125 26.8984375 C-53.3359375 24.19140625 -53.3359375 24.19140625 -53.41796875 22.1015625 C-51.70686753 19.08088201 -48.97468451 17.58136953 -46.0859375 15.81640625 C-45.45623047 15.42428955 -44.82652344 15.03217285 -44.17773438 14.62817383 C-30.54572487 6.3094413 -15.99702816 0.91786227 0 0 Z " fill="#DAEAC6" transform="translate(332.3359375,84.80859375)"/>
<path d="M0 0 C4.21654356 1.48635116 7.62478605 3.61249159 11.3125 6.125 C12.91544922 7.21167969 12.91544922 7.21167969 14.55078125 8.3203125 C15.35902344 8.87460937 16.16726562 9.42890625 17 10 C16.41976121 14.48213441 14.53754047 17.84303621 12.3125 21.6875 C7.65771057 30.10341797 4.59200646 38.75875071 2 48 C1.65839844 49.19109375 1.31679687 50.3821875 0.96484375 51.609375 C-3.62205956 71.15171655 -2.97484827 94.84319956 3 114 C3.21430664 114.6904541 3.42861328 115.3809082 3.64941406 116.09228516 C6.38623673 124.5915736 10.00667851 132.44144118 14.54785156 140.12988281 C15.8971184 142.48034476 16.96892266 144.41060221 17.11328125 147.1484375 C15.33957266 150.09839495 12.6205594 151.62114896 9.75 153.375 C8.80543945 153.96317505 8.80543945 153.96317505 7.84179688 154.56323242 C-13.34256693 167.49067765 -36.86447465 172.37079316 -61.16015625 166.96875 C-78.90782239 162.49121063 -92.16185301 154.68439672 -105 142 C-105.65484375 141.41734375 -106.3096875 140.8346875 -106.984375 140.234375 C-122.09010291 126.51449369 -129.88946498 104.39284034 -131.16308594 84.44580078 C-131.31548916 79.62063954 -131.22482536 74.82125501 -131 70 C-129.24806142 73.06194671 -128.35186445 76.18522916 -127.4543457 79.58300781 C-121.07512822 103.44391569 -107.42887072 123.18743349 -85.90844727 135.87231445 C-71.74851932 143.80680302 -57.14021412 147.39688851 -40.9375 147.4375 C-39.32016968 147.44330078 -39.32016968 147.44330078 -37.67016602 147.44921875 C-27.86146959 147.30968628 -19.19337004 145.28753974 -10 142 C-10.43338746 140.64451156 -10.87197995 139.29068724 -11.3125 137.9375 C-11.55613281 137.18339844 -11.79976563 136.42929687 -12.05078125 135.65234375 C-13.00739627 132.87275352 -13.00739627 132.87275352 -14.4453125 129.765625 C-16.27011993 125.56295224 -17.42188397 121.24183226 -18.5625 116.8125 C-18.77068359 116.03841797 -18.97886719 115.26433594 -19.19335938 114.46679688 C-22.15042708 103.1483653 -23.32418934 92.32218598 -23.25 80.625 C-23.26160156 78.80742187 -23.26160156 78.80742187 -23.2734375 76.953125 C-23.25537169 68.48025918 -22.43519882 60.34667633 -21 52 C-20.86464844 51.21270508 -20.72929687 50.42541016 -20.58984375 49.61425781 C-17.23401871 31.61561887 -9.30321503 15.61303448 0 0 Z " fill="#DAEAC6" transform="translate(216,258)"/>
<path d="M0 0 C3.24000075 1.08000025 3.6336358 1.49783862 5.48046875 4.16015625 C5.92197266 4.78857422 6.36347656 5.41699219 6.81835938 6.06445312 C7.27017578 6.72380859 7.72199219 7.38316406 8.1875 8.0625 C8.65091797 8.72572266 9.11433594 9.38894531 9.59179688 10.07226562 C10.73472863 11.71007505 11.8682718 13.35442897 13 15 C9.06651656 24.48013707 -3.26845663 33.87965049 -12 39 C-15.87291872 37.70902709 -16.40234904 36.19088359 -18.5 32.75 C-19.0878125 31.79609375 -19.675625 30.8421875 -20.28125 29.859375 C-23.71875 24.140625 -23.71875 24.140625 -25 22 C-23.80117188 21.12601562 -23.80117188 21.12601562 -22.578125 20.234375 C-14.33197848 14.11516558 -7.08187339 7.42639696 0 0 Z " fill="#578C3F" transform="translate(430,256)"/>
<path d="M0 0 C3.12594404 2.80222168 5.34493896 6.23904092 7.6875 9.6875 C8.10322266 10.29400391 8.51894531 10.90050781 8.94726562 11.52539062 C9.96769264 13.01497948 10.98423413 14.50722877 12 16 C8.92407618 19.16302962 5.81995505 22.01487722 2.3125 24.6875 C-3.22592198 29.0432815 -8.11777341 33.93079452 -13 39 C-16.24000075 37.91999975 -16.6336358 37.50216138 -18.48046875 34.83984375 C-18.92197266 34.21142578 -19.36347656 33.58300781 -19.81835938 32.93554688 C-20.27017578 32.27619141 -20.72199219 31.61683594 -21.1875 30.9375 C-21.65091797 30.27427734 -22.11433594 29.61105469 -22.59179688 28.92773438 C-23.73472863 27.28992495 -24.8682718 25.64557103 -26 24 C-21.41719891 13.32304853 -9.27676536 6.28253562 0 0 Z " fill="#578C3F" transform="translate(95,217)"/>
<path d="M0 0 C2.97971963 2.89891368 5.68328801 5.76285208 8.125 9.125 C12.54944233 14.942504 17.75925819 19.92984291 23 25 C21.91999975 28.24000075 21.50216138 28.6336358 18.83984375 30.48046875 C18.21142578 30.92197266 17.58300781 31.36347656 16.93554688 31.81835938 C16.27619141 32.27017578 15.61683594 32.72199219 14.9375 33.1875 C14.27427734 33.65091797 13.61105469 34.11433594 12.92773438 34.59179688 C11.28992495 35.73472863 9.64557103 36.8682718 8 38 C-2.67695147 33.41719891 -9.71746438 21.27676536 -16 12 C-13.19777832 8.87405596 -9.76095908 6.65506104 -6.3125 4.3125 C-5.70599609 3.89677734 -5.09949219 3.48105469 -4.47460938 3.05273438 C-2.98502052 2.03230736 -1.49277123 1.01576587 0 0 Z " fill="#578B3F" transform="translate(233,405)"/>
<path d="M0 0 C10.67695147 4.58280109 17.71746438 16.72323464 24 26 C21.19777832 29.12594404 17.76095908 31.34493896 14.3125 33.6875 C13.70599609 34.10322266 13.09949219 34.51894531 12.47460938 34.94726562 C10.98502052 35.96769264 9.49277123 36.98423413 8 38 C5.02028037 35.10108632 2.31671199 32.23714792 -0.125 28.875 C-4.54944233 23.057496 -9.75925819 18.07015709 -15 13 C-13.91999975 9.75999925 -13.50216138 9.3663642 -10.83984375 7.51953125 C-10.21142578 7.07802734 -9.58300781 6.63652344 -8.93554688 6.18164062 C-8.27619141 5.72982422 -7.61683594 5.27800781 -6.9375 4.8125 C-6.27427734 4.34908203 -5.61105469 3.88566406 -4.92773438 3.40820312 C-3.28992495 2.26527137 -1.64557103 1.1317282 0 0 Z " fill="#578C3F" transform="translate(271,69)"/>
</svg>
