<?xml version="1.0" encoding="UTF-8"?>
<svg version="1.1" xmlns="http://www.w3.org/2000/svg" width="512" height="512">
<path d="M0 0 C0.6537561 0.32106216 1.30751221 0.64212433 1.9810791 0.97291565 C2.69348755 1.30690872 3.405896 1.64090179 4.13989258 1.98501587 C6.47376263 3.08215941 8.79732792 4.19956986 11.1217041 5.31666565 C13.595245 6.48428581 16.07145102 7.64611477 18.5479126 8.80752563 C20.25267196 9.60724672 21.95664419 10.40864775 23.65985107 11.21166992 C33.30599992 15.75184315 43.05671168 20.05045106 52.81445312 24.3440094 C57.67489471 26.48385786 62.52808959 28.63898212 67.3717041 30.81666565 C68.5324646 31.3371347 68.5324646 31.3371347 69.7166748 31.86811829 C72.08036211 32.9333839 74.43765992 34.01168783 76.7935791 35.0940094 C77.52304749 35.42171829 78.25251587 35.74942719 79.00408936 36.08706665 C82.46311377 37.69276908 84.21151892 38.57638788 86.3717041 41.81666565 C86.59875488 44.63575745 86.59875488 44.63575745 86.5670166 48.0158844 C86.55734863 49.82862854 86.55734863 49.82862854 86.54748535 51.67799377 C86.52234863 53.57194885 86.52234863 53.57194885 86.4967041 55.50416565 C86.48768066 56.77840393 86.47865723 58.05264221 86.46936035 59.36549377 C86.44576052 62.51607192 86.41283604 65.66627548 86.3717041 68.81666565 C87.30549882 68.81756128 87.30549882 68.81756128 88.25815809 68.81847501 C125.16782697 68.85438177 162.07740992 68.91104043 198.98700281 68.9945866 C203.42041203 69.00460386 207.85382161 69.01444802 212.28723145 69.02418518 C213.61112975 69.02709724 213.61112975 69.02709724 214.96177347 69.03006813 C229.24603753 69.06107531 243.53028554 69.0780652 257.81457691 69.08985987 C272.47545186 69.10227807 287.13624263 69.1297946 301.79706442 69.17127872 C310.84100768 69.19639496 319.8848113 69.2097843 328.92878993 69.20809522 C335.13357528 69.20806543 341.33821856 69.22272307 347.54294853 69.24882993 C351.12089703 69.26345381 354.69855419 69.27169798 358.2765274 69.26246834 C362.16182387 69.25261585 366.04661155 69.27374158 369.93185425 69.29768372 C371.05444653 69.2899233 372.17703881 69.28216288 373.33364904 69.2741673 C381.86312703 69.36707156 388.52181536 71.22539438 395.6217041 76.00416565 C403.49599918 84.05742198 406.67985254 91.83237084 406.63912964 102.98153687 C406.64366075 103.89502905 406.64819186 104.80852124 406.65286028 105.749695 C406.66550404 108.80568024 406.66388392 111.86148725 406.66223145 114.91749573 C406.6682167 117.11064889 406.67502224 119.30379995 406.68258667 121.49694824 C406.70025406 127.45156406 406.70494237 133.40612239 406.70621824 139.36076188 C406.70763997 143.08193131 406.71190999 146.80308614 406.71721268 150.52425194 C406.73476057 162.83882467 406.74405263 175.15336668 406.74255173 187.46795145 C406.74243186 188.46294657 406.74243186 188.46294657 406.74230957 189.4780426 C406.74222781 190.14218651 406.74214605 190.80633041 406.74206181 191.49059989 C406.74124912 202.25096509 406.76038418 213.01119023 406.7885863 223.77151493 C406.81734332 234.83119097 406.83075913 245.8907954 406.82939875 256.95050925 C406.82888905 263.15526995 406.83457676 269.35987212 406.85575485 275.56459999 C406.87513308 281.40134409 406.87526427 287.23777838 406.86072159 293.07453346 C406.8586319 295.21385145 406.86334384 297.35318881 406.8754425 299.4924736 C406.89091811 302.4189594 406.88157121 305.34438003 406.86618042 308.27084351 C406.88161111 309.5327397 406.88161111 309.5327397 406.89735353 310.82012874 C406.79855076 319.35484021 403.27247195 327.58807737 397.3717041 333.81666565 C388.7870861 340.71615493 381.48254168 342.11433117 370.67492676 342.04371643 C369.50362213 342.04400848 368.3323175 342.04430054 367.1255188 342.04460144 C363.26219216 342.04321048 359.39905947 342.02765996 355.5357666 342.01197815 C352.85390903 342.00824719 350.17206214 342.0053022 347.49020386 342.00340271 C341.15799543 341.99719617 334.82585638 341.98079658 328.49367845 341.96070373 C321.28207808 341.93831897 314.07047434 341.92734483 306.85884786 341.91731286 C292.02976452 341.89642958 277.20073552 341.86126971 262.3717041 341.81666565 C262.37539127 342.55050696 262.37907845 343.28434828 262.38287735 344.04042721 C262.47132 361.91896257 262.53745822 379.79745411 262.57895279 397.67616177 C262.59955404 406.32227893 262.62762785 414.96824981 262.67346191 423.61427307 C262.71340452 431.15255763 262.73915463 438.69073621 262.74805808 446.22912365 C262.75326032 450.21851001 262.76543613 454.20759329 262.79462433 458.19688225 C262.82191108 461.95699651 262.83012261 465.71668478 262.82413483 469.47688866 C262.82574832 471.50413338 262.84720137 473.53133243 262.86938477 475.55845642 C262.83643022 482.89419272 262.10859392 488.4475929 258.3717041 494.81666565 C257.80422644 495.79617014 257.80422644 495.79617014 257.22528458 496.79546261 C253.00036522 503.72973208 245.99056322 507.59096959 238.3717041 509.81666565 C235.58501977 510.06966531 235.58501977 510.06966531 232.66099834 510.07393456 C231.53991576 510.08038345 230.41883317 510.08683234 229.26377839 510.09347665 C228.04229106 510.09037945 226.82080373 510.08728225 225.56230164 510.08409119 C223.60403182 510.09088786 223.60403182 510.09088786 221.60620099 510.09782183 C217.98860349 510.11004295 214.37109852 510.10979242 210.75348508 510.10743308 C206.84948198 510.10702469 202.94550846 510.11806617 199.04151917 510.12754822 C191.39515502 510.14415423 183.74882171 510.14965758 176.10244104 510.15077297 C169.88650461 510.15172362 163.67057836 510.15583475 157.45464516 510.16217422 C139.82767076 510.17978541 122.20072072 510.18901327 104.57373746 510.18751328 C103.62365581 510.18743336 102.67357416 510.18735345 101.69470215 510.18727112 C100.74345922 510.18718936 99.7922163 510.1871076 98.81214783 510.18702336 C83.39590179 510.18621045 67.97975344 510.20534952 52.56353565 510.23354785 C36.73069153 510.26227952 20.89789505 510.276088 5.0650242 510.2743603 C-3.82249973 510.2736965 -12.70992122 510.27918424 -21.59742165 510.3007164 C-29.16439187 510.3189319 -36.73121322 510.32327251 -44.29819588 510.30969755 C-48.15758961 510.30316978 -52.01669777 510.30304357 -55.8760643 510.32040405 C-60.06357289 510.33904658 -64.25042098 510.32657544 -68.4379425 510.31114197 C-69.65273767 510.32142909 -70.86753283 510.33171622 -72.11913997 510.34231508 C-81.85874824 510.26296307 -90.42360229 507.64216486 -97.6282959 500.81666565 C-103.78530338 493.15587293 -105.93120929 486.36661471 -105.89572144 476.65852356 C-105.90025255 475.74573694 -105.90478366 474.83295032 -105.90945208 473.8925035 C-105.92209586 470.8388522 -105.92047571 467.78537926 -105.91882324 464.73170471 C-105.92480854 462.54017406 -105.93161409 460.34864552 -105.93917847 458.15711975 C-105.95684648 452.20656889 -105.96153422 446.25607554 -105.96281004 440.30550098 C-105.96423185 436.58633387 -105.96850205 432.86718137 -105.97380447 429.14801788 C-105.99135325 416.83850955 -106.0006444 404.52903635 -105.99914353 392.21951535 C-105.99906361 391.556448 -105.9989837 390.89338064 -105.99890137 390.21022034 C-105.99881961 389.54633874 -105.99873784 388.88245715 -105.99865361 388.19845793 C-105.99784113 377.44523476 -106.01697062 366.6921518 -106.0451781 355.93896917 C-106.07394478 344.88493835 -106.08735049 333.83097921 -106.08599055 322.77691054 C-106.08548106 316.5760303 -106.09115694 310.37530872 -106.11234665 304.17446136 C-106.13173929 298.34017649 -106.1318462 292.50620145 -106.11731339 286.67190552 C-106.11522542 284.53462012 -106.1199254 282.39731528 -106.1320343 280.26006317 C-106.1475345 277.33392824 -106.13814686 274.40885535 -106.12277222 271.48274231 C-106.13305934 270.64439102 -106.14334647 269.80603974 -106.15394533 268.94228387 C-106.05528857 260.39882888 -103.20245126 252.63406937 -97.3314209 246.34791565 C-89.02510432 238.8798512 -80.79578083 237.51863001 -69.93151855 237.58961487 C-68.17456161 237.58917679 -68.17456161 237.58917679 -66.3821106 237.58872986 C-62.51878395 237.59012082 -58.65565127 237.60567134 -54.7923584 237.62135315 C-52.11050083 237.62508411 -49.42865394 237.6280291 -46.74679565 237.62992859 C-40.41458723 237.63613513 -34.08244818 237.65253472 -27.75027025 237.67262757 C-20.53866988 237.69501232 -13.32706613 237.70598647 -6.11543965 237.71601844 C8.71364855 237.73690172 23.54266232 237.77356761 38.3717041 237.81666565 C38.0417041 224.28666565 37.7117041 210.75666565 37.3717041 196.81666565 C33.0817041 200.11666565 28.7917041 203.41666565 24.3717041 206.81666565 C21.5231115 208.68080024 18.75352406 210.45176914 15.8092041 212.12916565 C15.09449951 212.54085999 14.37979492 212.95255432 13.64343262 213.37672424 C-4.50967963 223.65283867 -4.50967963 223.65283867 -12.6282959 221.81666565 C-16.80226294 220.48481968 -20.68436551 218.71756903 -24.6282959 216.81666565 C-25.28571777 216.50020081 -25.94313965 216.18373596 -26.6204834 215.85768127 C-41.10533383 208.7902589 -52.89054674 199.86518754 -64.6282959 188.81666565 C-65.22899902 188.26881409 -65.82970215 187.72096252 -66.4486084 187.1565094 C-90.02754999 164.83876701 -104.90174965 129.76327744 -105.93347168 97.59742737 C-106.07597012 90.67717742 -106.09756383 83.75891324 -106.07434082 76.8374176 C-106.06270207 73.19356244 -106.08334724 69.55065518 -106.11225796 65.90692425 C-106.13058091 63.07844938 -106.13033823 60.25020546 -106.12462044 57.42168617 C-106.12439381 55.42747493 -106.14125345 53.43328521 -106.15843201 51.43914795 C-106.14905106 50.23301346 -106.1396701 49.02687897 -106.13000488 47.78419495 C-106.12983871 46.72516464 -106.12967255 45.66613434 -106.12950134 44.57501221 C-105.49918516 41.10611441 -104.34945491 39.99133492 -101.6282959 37.81666565 C-99.23052847 36.52924019 -96.88791299 35.37379962 -94.4095459 34.26979065 C-93.69138702 33.94141205 -92.97322815 33.61303345 -92.23330688 33.27470398 C-89.86888206 32.19650505 -87.49877438 31.1314811 -85.1282959 30.06666565 C-83.47354378 29.31551928 -81.81908821 28.56371931 -80.16491699 27.81129456 C-67.10287306 21.88240015 -53.99809251 16.04568373 -40.87243652 10.25904846 C-40.1718512 9.94963318 -39.47126587 9.6402179 -38.74945068 9.32142639 C-37.3759736 8.71531365 -36.00176063 8.11086535 -34.62677002 7.50819397 C-31.22704212 6.00886274 -27.86790943 4.45802045 -24.54138184 2.80201721 C-23.54453873 2.31265182 -23.54453873 2.31265182 -22.52755737 1.81340027 C-20.71431047 0.91752526 -18.90995004 0.00372668 -17.10632324 -0.91136169 C-10.77857902 -3.22552338 -6.04922391 -2.79873542 0 0 Z " fill="#92E5E4" transform="translate(105.6282958984375,2.1833343505859375)"/>
<path d="M0 0 C1.75695694 -0.00043808 1.75695694 -0.00043808 3.54940796 -0.00088501 C7.4127346 0.00050595 11.27586729 0.01605647 15.13916016 0.03173828 C17.82101773 0.03546924 20.50286462 0.03841423 23.1847229 0.04031372 C29.51693133 0.04652027 35.84907038 0.06291985 42.18124831 0.0830127 C49.39284867 0.10539746 56.60445242 0.1163716 63.8160789 0.12640357 C78.64516224 0.14728685 93.47419124 0.18244672 108.30322266 0.22705078 C108.3090889 1.15697845 108.31495514 2.08690613 108.32099915 3.04501343 C108.3790912 11.84231902 108.45126179 20.63937517 108.53893757 29.43643761 C108.58351595 33.95825771 108.62279912 38.47999031 108.6496582 43.00195312 C108.67581695 47.37230078 108.7163066 51.74230942 108.76640892 56.11244583 C108.78299312 57.77320743 108.79455967 59.43402754 108.80083656 61.09486008 C108.85350922 73.75963522 109.53571591 85.30192951 118.30322266 95.22705078 C125.45742933 101.214532 132.26353978 103.5293391 141.57955933 103.50552368 C142.80618953 103.51421228 142.80618953 103.51421228 144.05760014 103.52307642 C146.78909147 103.54003892 149.52041344 103.54294968 152.25195312 103.54589844 C154.21340853 103.5551992 156.17485999 103.56536809 158.13630676 103.57633972 C163.45602135 103.60363706 168.77570947 103.6187884 174.09547567 103.63176775 C179.65687185 103.6473994 185.21821396 103.67418954 190.77957153 103.69979858 C201.30851846 103.74658571 211.83747556 103.78333018 222.36647332 103.81647146 C234.35432591 103.85469327 246.3421242 103.9041033 258.32993102 103.95445561 C282.98765466 104.05777451 307.64541317 104.1470351 332.30322266 104.22705078 C332.39677742 122.84683661 332.46725638 141.46657455 332.51047134 160.0865469 C332.5310726 168.73266406 332.55914641 177.37863494 332.60498047 186.0246582 C332.64492307 193.56294276 332.67067318 201.10112134 332.67957664 208.63950878 C332.68477887 212.62889514 332.69695469 216.61797842 332.72614288 220.60726738 C332.75342964 224.36738164 332.76164116 228.12706991 332.75565338 231.88727379 C332.75726687 233.91451851 332.77871993 235.94171756 332.80090332 237.96884155 C332.76794877 245.30457785 332.04011248 250.85797804 328.30322266 257.22705078 C327.73574499 258.20655528 327.73574499 258.20655528 327.15680313 259.20584774 C322.93188377 266.14011721 315.92208178 270.00135472 308.30322266 272.22705078 C305.51653832 272.48005044 305.51653832 272.48005044 302.5925169 272.48431969 C301.47143431 272.49076858 300.35035173 272.49721747 299.19529694 272.50386178 C297.36306595 272.49921598 297.36306595 272.49921598 295.49382019 272.49447632 C294.18830698 272.49900743 292.88279377 272.50353854 291.53771955 272.50820696 C287.92012204 272.52042808 284.30261707 272.52017756 280.68500364 272.51781821 C276.78100054 272.51740982 272.87702701 272.52845131 268.97303772 272.53793335 C261.32667357 272.55453936 253.68034026 272.56004271 246.03395959 272.56115811 C239.81802317 272.56210875 233.60209692 272.56621988 227.38616371 272.57255936 C209.75918932 272.59017055 192.13223927 272.5993984 174.50525602 272.59789841 C173.55517437 272.5978185 172.60509271 272.59773858 171.6262207 272.59765625 C170.67497778 272.59757449 169.72373486 272.59749273 168.74366639 272.59740849 C153.32742034 272.59659558 137.911272 272.61573466 122.49505421 272.64393298 C106.66221008 272.67266465 90.82941361 272.68647313 74.99654275 272.68474543 C66.10901883 272.68408164 57.22159734 272.68956938 48.33409691 272.71110153 C40.76712669 272.72931703 33.20030534 272.73365765 25.63332268 272.72008269 C21.77392894 272.71355491 17.91482078 272.71342871 14.05545425 272.73078918 C9.86794566 272.74943171 5.68109757 272.73696057 1.49357605 272.7215271 C0.27878089 272.73181423 -0.93601428 272.74210135 -2.18762141 272.75270021 C-11.92722969 272.67334821 -20.49208373 270.05254999 -27.69677734 263.22705078 C-33.85378483 255.56625806 -35.99969073 248.77699984 -35.96420288 239.06890869 C-35.97099955 237.69972876 -35.97099955 237.69972876 -35.97793353 236.30288863 C-35.9905773 233.24923733 -35.98895715 230.1957644 -35.98730469 227.14208984 C-35.99328998 224.95055919 -36.00009553 222.75903065 -36.00765991 220.56750488 C-36.02532792 214.61695402 -36.03001566 208.66646067 -36.03129148 202.71588612 C-36.0327133 198.996719 -36.0369835 195.2775665 -36.04228592 191.55840302 C-36.05983469 179.24889468 -36.06912584 166.93942148 -36.06762497 154.62990049 C-36.06754506 153.96683313 -36.06746515 153.30376577 -36.06738281 152.62060547 C-36.06730105 151.95672387 -36.06721929 151.29284228 -36.06713505 150.60884306 C-36.06632257 139.85561989 -36.08545207 129.10253693 -36.11365955 118.3493543 C-36.14242623 107.29532348 -36.15583193 96.24136434 -36.15447199 85.18729568 C-36.15396251 78.98641543 -36.15963838 72.78569385 -36.18082809 66.5848465 C-36.20022073 60.75056162 -36.20032764 54.91658658 -36.18579483 49.08229065 C-36.18370686 46.94500525 -36.18840685 44.80770042 -36.20051575 42.6704483 C-36.21601595 39.74431338 -36.2066283 36.81924048 -36.19125366 33.89312744 C-36.20154079 33.05477616 -36.21182791 32.21642487 -36.22242677 31.352669 C-36.12377002 22.80921402 -33.27093271 15.0444545 -27.39990234 8.75830078 C-19.09358577 1.29023634 -10.86426227 -0.07098486 0 0 Z " fill="#50D9D7" transform="translate(35.69677734375,239.77294921875)"/>
<path d="M0 0 C0.6537561 0.32106216 1.30751221 0.64212433 1.9810791 0.97291565 C2.69348755 1.30690872 3.405896 1.64090179 4.13989258 1.98501587 C6.47376263 3.08215941 8.79732792 4.19956986 11.1217041 5.31666565 C13.595245 6.48428581 16.07145102 7.64611477 18.5479126 8.80752563 C20.25267196 9.60724672 21.95664419 10.40864775 23.65985107 11.21166992 C33.30599992 15.75184315 43.05671168 20.05045106 52.81445312 24.3440094 C57.67489471 26.48385786 62.52808959 28.63898212 67.3717041 30.81666565 C68.5324646 31.3371347 68.5324646 31.3371347 69.7166748 31.86811829 C72.08036211 32.9333839 74.43765992 34.01168783 76.7935791 35.0940094 C77.52304749 35.42171829 78.25251587 35.74942719 79.00408936 36.08706665 C82.46311377 37.69276908 84.21151892 38.57638788 86.3717041 41.81666565 C86.63912964 44.30722046 86.63912964 44.30722046 86.66223145 47.31593323 C86.67499115 48.44594254 86.68775085 49.57595184 86.70089722 50.74020386 C86.70312286 51.96813156 86.70534851 53.19605927 86.7076416 54.4611969 C86.7176268 56.37420845 86.7176268 56.37420845 86.72781372 58.3258667 C86.73981112 61.04036317 86.74349366 63.75473242 86.74230957 66.46925354 C86.74214916 69.20878628 86.75567715 71.94763515 86.7833252 74.68702698 C87.22384081 118.99215091 75.81398791 156.54668712 44.4263916 188.81666565 C43.26028968 189.98781563 42.08752888 191.15238967 40.90686035 192.30885315 C39.59631113 193.59605925 38.32351413 194.92151454 37.0592041 196.25416565 C25.83363496 206.9576153 7.43361271 221.12780809 -8.6282959 222.44166565 C-14.35960094 221.9845677 -19.52404926 219.27682056 -24.6282959 216.81666565 C-25.28571777 216.50020081 -25.94313965 216.18373596 -26.6204834 215.85768127 C-41.10533383 208.7902589 -52.89054674 199.86518754 -64.6282959 188.81666565 C-65.22899902 188.26881409 -65.82970215 187.72096252 -66.4486084 187.1565094 C-90.02754999 164.83876701 -104.90174965 129.76327744 -105.93347168 97.59742737 C-106.07597012 90.67717742 -106.09756383 83.75891324 -106.07434082 76.8374176 C-106.06270207 73.19356244 -106.08334724 69.55065518 -106.11225796 65.90692425 C-106.13058091 63.07844938 -106.13033823 60.25020546 -106.12462044 57.42168617 C-106.12439381 55.42747493 -106.14125345 53.43328521 -106.15843201 51.43914795 C-106.14905106 50.23301346 -106.1396701 49.02687897 -106.13000488 47.78419495 C-106.12983871 46.72516464 -106.12967255 45.66613434 -106.12950134 44.57501221 C-105.49918516 41.10611441 -104.34945491 39.99133492 -101.6282959 37.81666565 C-99.23052847 36.52924019 -96.88791299 35.37379962 -94.4095459 34.26979065 C-93.69138702 33.94141205 -92.97322815 33.61303345 -92.23330688 33.27470398 C-89.86888206 32.19650505 -87.49877438 31.1314811 -85.1282959 30.06666565 C-83.47354378 29.31551928 -81.81908821 28.56371931 -80.16491699 27.81129456 C-67.10287306 21.88240015 -53.99809251 16.04568373 -40.87243652 10.25904846 C-40.1718512 9.94963318 -39.47126587 9.6402179 -38.74945068 9.32142639 C-37.3759736 8.71531365 -36.00176063 8.11086535 -34.62677002 7.50819397 C-31.22704212 6.00886274 -27.86790943 4.45802045 -24.54138184 2.80201721 C-23.54453873 2.31265182 -23.54453873 2.31265182 -22.52755737 1.81340027 C-20.71431047 0.91752526 -18.90995004 0.00372668 -17.10632324 -0.91136169 C-10.77857902 -3.22552338 -6.04922391 -2.79873542 0 0 Z " fill="#FEAB00" transform="translate(105.6282958984375,2.1833343505859375)"/>
<path d="M0 0 C1.75695694 -0.00043808 1.75695694 -0.00043808 3.54940796 -0.00088501 C7.4127346 0.00050595 11.27586729 0.01605647 15.13916016 0.03173828 C17.82101773 0.03546924 20.50286462 0.03841423 23.1847229 0.04031372 C29.51693133 0.04652027 35.84907038 0.06291985 42.18124831 0.0830127 C49.39284867 0.10539746 56.60445242 0.1163716 63.8160789 0.12640357 C78.64516224 0.14728685 93.47419124 0.18244672 108.30322266 0.22705078 C108.3090889 1.15697845 108.31495514 2.08690613 108.32099915 3.04501343 C108.3790912 11.84231902 108.45126179 20.63937517 108.53893757 29.43643761 C108.58351595 33.95825771 108.62279912 38.47999031 108.6496582 43.00195312 C108.67581695 47.37230078 108.7163066 51.74230942 108.76640892 56.11244583 C108.78299312 57.77320743 108.79455967 59.43402754 108.80083656 61.09486008 C108.85350922 73.75963522 109.53571591 85.30192951 118.30322266 95.22705078 C125.45742933 101.214532 132.26353978 103.5293391 141.57955933 103.50552368 C142.80618953 103.51421228 142.80618953 103.51421228 144.05760014 103.52307642 C146.78909147 103.54003892 149.52041344 103.54294968 152.25195312 103.54589844 C154.21340853 103.5551992 156.17485999 103.56536809 158.13630676 103.57633972 C163.45602135 103.60363706 168.77570947 103.6187884 174.09547567 103.63176775 C179.65687185 103.6473994 185.21821396 103.67418954 190.77957153 103.69979858 C201.30851846 103.74658571 211.83747556 103.78333018 222.36647332 103.81647146 C234.35432591 103.85469327 246.3421242 103.9041033 258.32993102 103.95445561 C282.98765541 104.05777452 307.64541384 104.14663824 332.30322266 104.22705078 C332.30322266 109.50705078 332.30322266 114.78705078 332.30322266 120.22705078 C210.86322266 120.22705078 89.42322266 120.22705078 -35.69677734 120.22705078 C-35.69677734 17.64182351 -35.69677734 17.64182351 -27.39990234 8.75830078 C-19.09358577 1.29023634 -10.86426227 -0.07098486 0 0 Z " fill="#00BDBC" transform="translate(35.69677734375,239.77294921875)"/>
<path d="M0 0 C0.6537561 0.32106216 1.30751221 0.64212433 1.9810791 0.97291565 C2.69348755 1.30690872 3.405896 1.64090179 4.13989258 1.98501587 C6.47376263 3.08215941 8.79732792 4.19956986 11.1217041 5.31666565 C13.595245 6.48428581 16.07145102 7.64611477 18.5479126 8.80752563 C20.25267196 9.60724672 21.95664419 10.40864775 23.65985107 11.21166992 C33.30599992 15.75184315 43.05671168 20.05045106 52.81445312 24.3440094 C57.67489471 26.48385786 62.52808959 28.63898212 67.3717041 30.81666565 C68.5324646 31.3371347 68.5324646 31.3371347 69.7166748 31.86811829 C72.08036211 32.9333839 74.43765992 34.01168783 76.7935791 35.0940094 C77.52304749 35.42171829 78.25251587 35.74942719 79.00408936 36.08706665 C82.46311377 37.69276908 84.21151892 38.57638788 86.3717041 41.81666565 C86.63912964 44.30722046 86.63912964 44.30722046 86.66223145 47.31593323 C86.67499115 48.44594254 86.68775085 49.57595184 86.70089722 50.74020386 C86.70312286 51.96813156 86.70534851 53.19605927 86.7076416 54.4611969 C86.7176268 56.37420845 86.7176268 56.37420845 86.72781372 58.3258667 C86.73981112 61.04036317 86.74349366 63.75473242 86.74230957 66.46925354 C86.74214916 69.20878628 86.75567715 71.94763515 86.7833252 74.68702698 C87.22384081 118.99215091 75.81398791 156.54668712 44.4263916 188.81666565 C43.26028968 189.98781563 42.08752888 191.15238967 40.90686035 192.30885315 C39.59631113 193.59605925 38.32351413 194.92151454 37.0592041 196.25416565 C25.83363496 206.9576153 7.43361271 221.12780809 -8.6282959 222.44166565 C-14.35960094 221.9845677 -19.52404926 219.27682056 -24.6282959 216.81666565 C-25.28571777 216.50020081 -25.94313965 216.18373596 -26.6204834 215.85768127 C-41.10533383 208.7902589 -52.89054674 199.86518754 -64.6282959 188.81666565 C-65.22899902 188.26881409 -65.82970215 187.72096252 -66.4486084 187.1565094 C-90.02754999 164.83876701 -104.90174965 129.76327744 -105.93347168 97.59742737 C-106.07597012 90.67717742 -106.09756383 83.75891324 -106.07434082 76.8374176 C-106.06270207 73.19356244 -106.08334724 69.55065518 -106.11225796 65.90692425 C-106.13058091 63.07844938 -106.13033823 60.25020546 -106.12462044 57.42168617 C-106.12439381 55.42747493 -106.14125345 53.43328521 -106.15843201 51.43914795 C-106.14905106 50.23301346 -106.1396701 49.02687897 -106.13000488 47.78419495 C-106.12983871 46.72516464 -106.12967255 45.66613434 -106.12950134 44.57501221 C-105.49918516 41.10611441 -104.34945491 39.99133492 -101.6282959 37.81666565 C-99.23052847 36.52924019 -96.88791299 35.37379962 -94.4095459 34.26979065 C-93.69138702 33.94141205 -92.97322815 33.61303345 -92.23330688 33.27470398 C-89.86888206 32.19650505 -87.49877438 31.1314811 -85.1282959 30.06666565 C-83.47354378 29.31551928 -81.81908821 28.56371931 -80.16491699 27.81129456 C-67.10287306 21.88240015 -53.99809251 16.04568373 -40.87243652 10.25904846 C-40.1718512 9.94963318 -39.47126587 9.6402179 -38.74945068 9.32142639 C-37.3759736 8.71531365 -36.00176063 8.11086535 -34.62677002 7.50819397 C-31.22704212 6.00886274 -27.86790943 4.45802045 -24.54138184 2.80201721 C-23.54453873 2.31265182 -23.54453873 2.31265182 -22.52755737 1.81340027 C-20.71431047 0.91752526 -18.90995004 0.00372668 -17.10632324 -0.91136169 C-10.77857902 -3.22552338 -6.04922391 -2.79873542 0 0 Z M-16.8782959 17.09791565 C-17.94418945 17.60242249 -19.01008301 18.10692932 -20.10827637 18.62672424 C-21.26988281 19.18440491 -22.43148926 19.74208557 -23.6282959 20.31666565 C-26.14921797 21.51213264 -28.67349677 22.70038949 -31.1986084 23.88697815 C-31.86651398 24.20131805 -32.53441956 24.51565796 -33.2225647 24.83952332 C-42.33865405 29.11215065 -51.56236816 33.14803835 -60.78210449 37.19093323 C-70.54294692 41.47157383 -80.14484318 45.94790356 -89.6282959 50.81666565 C-89.67967246 57.21718351 -89.71430809 63.61764681 -89.73815918 70.01832581 C-89.74811896 72.18859341 -89.76169165 74.35884795 -89.7791748 76.52906799 C-89.90504859 92.57427326 -89.89827865 108.29910868 -85.0032959 123.75416565 C-84.74532227 124.58625549 -84.48734863 125.41834534 -84.22155762 126.27565002 C-73.29816572 160.17360955 -49.74999145 185.34258055 -18.6282959 201.81666565 C-13.74619601 204.28725525 -10.93020933 205.44025032 -5.6282959 203.81666565 C-2.81440816 202.60842207 -0.13045907 201.2160376 2.5592041 199.75416565 C3.30951904 199.35004456 4.05983398 198.94592346 4.83288574 198.52955627 C15.11645855 192.88358654 23.86047961 185.85658455 32.3717041 177.81666565 C33.12193848 177.1308844 33.87217285 176.44510315 34.6451416 175.73854065 C57.28942955 154.28605733 69.74411554 122.66210359 70.60925293 91.79542542 C70.69884738 85.55137923 70.63588949 79.31049637 70.5592041 73.06666565 C70.5441059 70.89349801 70.53042672 68.72032003 70.51818848 66.5471344 C70.48564538 61.30338202 70.43415696 56.06014356 70.3717041 50.81666565 C58.28428688 44.62916066 46.00852178 38.93910671 33.6217041 33.37916565 C31.84031954 32.57672992 30.05906912 31.77399635 28.2779541 30.97096252 C25.62542632 29.77514137 22.97234275 28.58066087 20.31713867 27.39079285 C15.77648447 25.35584114 11.2459487 23.30199352 6.72912598 21.21461487 C5.36095734 20.58667274 5.36095734 20.58667274 3.96514893 19.94604492 C2.2250778 19.146841 0.48765561 18.34183608 -1.24664307 17.53018188 C-2.02646545 17.17346909 -2.80628784 16.81675629 -3.60974121 16.44923401 C-4.29143372 16.13304611 -4.97312622 15.81685822 -5.67547607 15.49108887 C-10.04584069 13.98174564 -12.95108489 15.21384165 -16.8782959 17.09791565 Z " fill="#E99706" transform="translate(105.6282958984375,2.1833343505859375)"/>
<path d="M0 0 C0.74814352 -0.00297112 1.49628705 -0.00594224 2.26710159 -0.0090034 C4.78735725 -0.01771172 7.30756554 -0.01920046 9.82783508 -0.02069092 C11.62955833 -0.02531768 13.43128059 -0.03034214 15.23300171 -0.03573608 C20.13815515 -0.04887796 25.0432949 -0.05530881 29.9484632 -0.05974674 C33.01228314 -0.06267529 36.07609932 -0.06677973 39.13991737 -0.07125092 C48.72354162 -0.08493209 58.3071573 -0.09459506 67.89079064 -0.09845281 C78.95748364 -0.10293176 90.02405302 -0.12046955 101.09070843 -0.1494534 C109.64110845 -0.17107023 118.19147369 -0.18115713 126.74190074 -0.18249393 C131.85005332 -0.18354218 136.95808978 -0.18945409 142.06621361 -0.20731354 C146.8736077 -0.22379364 151.68079841 -0.22594998 156.48821068 -0.21717453 C158.25102788 -0.21640406 160.013856 -0.22074822 161.77664566 -0.23063278 C164.18719476 -0.24335468 166.59702387 -0.23747442 169.00756836 -0.22705078 C169.70174872 -0.23510719 170.39592907 -0.24316359 171.1111452 -0.25146413 C176.57701275 -0.19635928 181.38224129 0.99127646 185.56343079 4.67559814 C190.35830561 11.14041214 190.03567969 15.46865188 190.07124329 23.39044189 C190.10218079 25.0900708 190.10218079 25.0900708 190.13374329 26.82403564 C190.16524145 33.54101928 190.05541278 38.59464669 185.32124329 43.78497314 C180.2644534 47.72242152 176.702014 48.28923607 170.47753906 48.28761292 C169.723752 48.2912896 168.96996493 48.29496629 168.19333583 48.29875439 C165.66003706 48.30979353 163.12677931 48.31363544 160.59346008 48.31744385 C158.78011444 48.32370825 156.96677007 48.33035503 155.15342712 48.33735657 C150.22154548 48.35476664 145.28967353 48.36531807 140.35776877 48.3735621 C137.27736794 48.3787116 134.19697013 48.38478731 131.11657143 48.39107323 C121.48116322 48.41012421 111.84576267 48.42435629 102.21033925 48.4326852 C91.08304987 48.44246224 79.95595917 48.46879437 68.82873982 48.50918609 C60.23077813 48.53932722 51.63287346 48.55415211 43.03485996 48.55746621 C37.8982082 48.55981871 32.76176872 48.56880533 27.62517357 48.59392738 C22.7931041 48.61717847 17.96138715 48.62145327 13.12927628 48.611166 C11.35635647 48.61066983 9.58341948 48.61701415 7.8105526 48.63072205 C5.38857787 48.64840033 2.96787385 48.64135571 0.54589844 48.62818909 C-0.5045546 48.64464296 -0.5045546 48.64464296 -1.57622892 48.66142923 C-6.55089586 48.59621075 -9.32958673 47.22018251 -13.17875671 44.14044189 C-18.94086378 37.75540434 -18.42147757 32.05722913 -18.49125671 23.82794189 C-18.52026062 22.69936768 -18.54926453 21.57079346 -18.57914734 20.40802002 C-18.62815567 14.00300822 -18.57424257 9.96026427 -14.17875671 5.14044189 C-9.2649578 0.81161904 -6.40267902 -0.0078655 0 0 Z " fill="#F2F2F2" transform="translate(42.17875671386719,383.85955810546875)"/>
<path d="M0 0 C0.86847565 -0.0049649 1.73695129 -0.00992981 2.63174438 -0.01504517 C5.51394434 -0.02968723 8.39608922 -0.03647292 11.27832031 -0.04199219 C13.27891034 -0.04774288 15.27950035 -0.05350062 17.28009033 -0.05926514 C21.48002378 -0.06978157 25.67993805 -0.07561973 29.87988281 -0.07910156 C35.25791726 -0.08458128 40.63569788 -0.10859547 46.0136528 -0.13707352 C50.14866877 -0.15571309 54.28362385 -0.16090625 58.41867828 -0.16243744 C60.40098709 -0.16546256 62.38329485 -0.17348636 64.36556244 -0.18662262 C67.1423409 -0.20370717 69.91850257 -0.20179672 72.6953125 -0.1953125 C73.51216522 -0.20452728 74.32901794 -0.21374207 75.17062378 -0.22323608 C80.7293154 -0.18264348 85.02998512 0.75602864 89.25097656 4.69628906 C93.34522568 10.05030713 93.7760074 13.19508762 93.80957031 19.82519531 C93.81527039 20.69123383 93.82097046 21.55727234 93.82684326 22.44955444 C93.83630171 24.28715796 93.84283059 26.12477851 93.84667969 27.96240234 C93.85633493 30.75421511 93.88732881 33.54527576 93.91894531 36.33691406 C93.92548058 38.12467012 93.93072899 39.91243144 93.93457031 41.70019531 C93.94691711 42.52758209 93.95926392 43.35496887 93.97198486 44.20742798 C93.94964537 50.11607493 93.31270851 56.09618301 89.22515869 60.72549438 C83.85421028 65.46459749 78.95703092 65.31526106 72.09350586 65.33813477 C70.8073941 65.34799156 70.8073941 65.34799156 69.49530029 65.35804749 C66.66125394 65.37773881 63.82726045 65.38943307 60.99316406 65.39941406 C60.02367136 65.40348959 59.05417866 65.40756512 58.05530739 65.41176414 C52.92497599 65.43260593 47.79467119 65.44691651 42.66430664 65.45629883 C37.37154606 65.46736645 32.07920551 65.50177597 26.78659344 65.54147053 C22.71073128 65.56763755 18.6349693 65.57599069 14.55903053 65.57958031 C12.60823539 65.58444508 10.65744469 65.59605595 8.7067318 65.6146183 C5.97333987 65.63901423 3.24103624 65.63804409 0.50756836 65.63110352 C-0.29319626 65.64391357 -1.09396088 65.65672363 -1.91899109 65.66992188 C-7.5260687 65.61819551 -10.78178303 64.39033961 -15.39355469 61.16113281 C-19.62710804 55.6452186 -19.98710007 51.09593904 -19.92480469 44.28222656 C-19.92863159 43.3519313 -19.9324585 42.42163605 -19.93640137 41.46315002 C-19.93911149 39.50577709 -19.93181364 37.54836738 -19.91503906 35.59106445 C-19.89359201 32.60383106 -19.91488371 29.61899581 -19.94042969 26.63183594 C-19.93778673 24.72362753 -19.9326624 22.81542062 -19.92480469 20.90722656 C-19.93290161 20.01958115 -19.94099854 19.13193573 -19.94934082 18.21739197 C-19.86641474 12.70694731 -19.06488879 9.52946515 -15.39355469 5.16113281 C-10.11298983 0.50920662 -6.88590335 0.00933083 0 0 Z " fill="#50D9D7" transform="translate(203.3935546875,238.8388671875)"/>
<path d="M0 0 C1.05158798 -0.0098568 1.05158798 -0.0098568 2.12442017 -0.01991272 C4.44989121 -0.03965871 6.77529752 -0.05131326 9.10083008 -0.0612793 C10.29303885 -0.06739259 10.29303885 -0.06739259 11.50933266 -0.07362938 C15.718947 -0.09449911 19.92852869 -0.10879494 24.13818359 -0.11816406 C28.47819202 -0.12920966 32.81768506 -0.16358511 37.15751171 -0.20333576 C40.5007876 -0.22953902 43.84394163 -0.23785933 47.18731117 -0.24144554 C48.78643575 -0.24630467 50.38555512 -0.25789947 51.98457909 -0.27648354 C54.22971164 -0.30094747 56.47352375 -0.29989718 58.71875 -0.29296875 C59.99401047 -0.29883499 61.26927094 -0.30470123 62.58317566 -0.31074524 C68.09807629 0.43650814 71.78263245 2.62938056 75.55786133 6.80200195 C78.57639505 11.21370509 78.36045787 14.91808607 78.38598633 20.13012695 C78.3916864 21.02310486 78.39738647 21.91608276 78.40325928 22.83612061 C78.41271618 24.72919528 78.41924599 26.62228648 78.4230957 28.51538086 C78.43277607 31.40158171 78.46378224 34.28706284 78.49536133 37.1730957 C78.50189397 39.01293523 78.50714341 40.85277984 78.51098633 42.69262695 C78.52333313 43.55221008 78.53567993 44.41179321 78.54840088 45.29742432 C78.52721142 51.0443183 77.71040333 55.40592075 73.68286133 59.8215332 C68.66563527 63.72817536 65.50996491 64.30545423 59.23632812 64.35400391 C58.53351715 64.3605751 57.83070618 64.3671463 57.1065979 64.37391663 C54.7817575 64.39361987 52.4569816 64.4053054 50.13208008 64.4152832 C48.93937469 64.42139649 48.93937469 64.42139649 47.72257423 64.42763329 C43.51410813 64.44848114 39.30567452 64.46278851 35.09716797 64.47216797 C30.75596979 64.48323106 26.41528436 64.51763305 22.07426739 64.55733967 C18.73103396 64.5835142 15.38792259 64.59186051 12.04459572 64.59544945 C10.44464466 64.60031311 8.84469897 64.6119209 7.24484825 64.63048744 C5.00201405 64.65489852 2.76050516 64.65391112 0.51757812 64.64697266 C-1.39411919 64.65577202 -1.39411919 64.65577202 -3.34443665 64.66474915 C-8.59416695 63.92741516 -11.63873159 61.4828044 -15.12963867 57.61450195 C-17.33721331 54.42578303 -17.94112267 51.9573557 -17.99414062 48.16796875 C-18.00697586 47.36671066 -18.0198111 46.56545258 -18.03303528 45.73991394 C-18.04042221 44.87739517 -18.04780914 44.0148764 -18.05541992 43.1262207 C-18.06349167 42.23465775 -18.07156342 41.34309479 -18.07987976 40.42451477 C-18.09370774 38.53742409 -18.10443564 36.65030853 -18.11230469 34.76318359 C-18.12951212 31.88566396 -18.17340855 29.00929514 -18.2175293 26.13208008 C-18.22765722 24.29680205 -18.23617301 22.46151427 -18.24291992 20.6262207 C-18.26042801 19.76977463 -18.2779361 18.91332855 -18.29597473 18.03092957 C-18.27629947 12.57864624 -17.43935527 9.50504397 -13.81713867 5.17700195 C-8.92847932 0.87032586 -6.48724567 0.05023415 0 0 Z " fill="#FEAC00" transform="translate(401.817138671875,103.822998046875)"/>
<path d="M0 0 C5.28 0 10.56 0 16 0 C16.01458252 2.24989746 16.02916504 4.49979492 16.04418945 6.81787109 C16.09470337 14.28184522 16.16132735 21.7456144 16.23571491 29.20938683 C16.28029329 33.73120693 16.31957646 38.25293952 16.34643555 42.77490234 C16.3725943 47.14525 16.41308395 51.51525864 16.46318626 55.88539505 C16.47977046 57.54615664 16.49133701 59.20697676 16.49761391 60.8678093 C16.55028657 73.53258443 17.23249326 85.07487873 26 95 C33.15420668 100.98748122 39.96031713 103.30228832 49.27633667 103.2784729 C50.50296687 103.2871615 50.50296687 103.2871615 51.75437748 103.29602563 C54.48586881 103.31298814 57.21719079 103.3158989 59.94873047 103.31884766 C61.91018588 103.32814842 63.87163733 103.33831731 65.83308411 103.34928894 C71.1527987 103.37658628 76.47248681 103.39173762 81.79225302 103.40471697 C87.35364919 103.42034862 92.91499131 103.44713875 98.47634888 103.4727478 C109.0052958 103.51953493 119.5342529 103.5562794 130.06325066 103.58942068 C142.05110325 103.62764249 154.03890154 103.67705252 166.02670836 103.72740483 C190.68443276 103.83072374 215.34219119 103.91958746 240 104 C240 109.28 240 114.56 240 120 C214.48710461 120.0463273 188.97421937 120.08200433 163.46129036 120.10362434 C151.61480399 120.11393037 139.76834427 120.12797786 127.921875 120.15087891 C117.59470885 120.17083336 107.26756201 120.18372133 96.94037712 120.18817699 C91.47385956 120.19078087 86.00739721 120.19688719 80.54089737 120.21146011 C75.39129816 120.22507646 70.24177668 120.22921444 65.09216118 120.22621536 C63.20644012 120.22676371 61.32071635 120.23071692 59.43501091 120.23841095 C41.29566888 120.3087668 26.94323346 118.55227859 13.1875 105.34765625 C7.00641844 98.71403122 3.64853041 91.62470158 1 83 C0.82163101 82.44777771 0.64326202 81.89555542 0.45948792 81.32659912 C-0.19961851 77.98923944 -0.13033795 74.68111185 -0.11352539 71.29394531 C-0.11374443 70.13727104 -0.11374443 70.13727104 -0.1139679 68.95722961 C-0.11327249 66.4141659 -0.10549749 63.87117588 -0.09765625 61.328125 C-0.09579075 59.56264282 -0.09436747 57.79716013 -0.09336853 56.03167725 C-0.08955375 51.38908454 -0.07973232 46.7465232 -0.06866455 42.10394287 C-0.0584281 37.36487248 -0.05386612 32.62579701 -0.04882812 27.88671875 C-0.03810913 18.59112984 -0.02052072 9.29557244 0 0 Z " fill="#00AAA8" transform="translate(128,240)"/>
<path d="M0 0 C1.0152475 -0.00029205 2.030495 -0.00058411 3.07650757 -0.00088501 C6.42039644 0.00050438 9.76406038 0.01604739 13.10791016 0.03173828 C15.43103921 0.03546979 17.75416984 0.03831611 20.07730103 0.04031372 C26.18304817 0.04793926 32.28869973 0.06757858 38.39440918 0.08972168 C44.62832344 0.1102033 50.86225318 0.1193204 57.09619141 0.12939453 C69.32150051 0.15082542 81.54671367 0.18599887 93.77197266 0.22705078 C93.77197266 13.42705078 93.77197266 26.62705078 93.77197266 40.22705078 C51.53197266 40.22705078 9.29197266 40.22705078 -34.22802734 40.22705078 C-34.22802734 17.64182351 -34.22802734 17.64182351 -25.93115234 8.75830078 C-18.11839951 1.73399089 -10.26634837 -0.07763204 0 0 Z " fill="#4FD9D7" transform="translate(34.22802734375,239.77294921875)"/>
<path d="M0 0 C2.10409639 -0.02701408 4.20829178 -0.04640223 6.3125 -0.0625 C7.48425781 -0.07410156 8.65601563 -0.08570312 9.86328125 -0.09765625 C13 0 13 0 16 1 C16.02907584 5.3958194 16.0468244 9.79161399 16.0625 14.1875 C16.07087891 15.43337891 16.07925781 16.67925781 16.08789062 17.96289062 C16.09111328 19.16494141 16.09433594 20.36699219 16.09765625 21.60546875 C16.10289307 22.71043701 16.10812988 23.81540527 16.11352539 24.95385742 C16.00874193 27.76543432 15.58524867 30.25768522 15 33 C15.62782883 32.99333817 16.25565765 32.98667633 16.9025116 32.97981262 C23.43991981 32.91341618 29.97723214 32.86818137 36.51489258 32.83520508 C38.95438528 32.82012346 41.3938509 32.79965531 43.83325195 32.77368164 C47.34072559 32.73727188 50.84784054 32.72026711 54.35546875 32.70703125 C55.44522507 32.69154739 56.53498138 32.67606354 57.65776062 32.66011047 C67.37740004 32.6579527 67.37740004 32.6579527 71 36 C72.17180914 39.95485583 72.4048133 42.06892942 70.75 45.875 C69 48 69 48 66 49 C64.26654193 49.0878506 62.52986731 49.11764814 60.79418945 49.11352539 C59.20287956 49.11341209 59.20287956 49.11341209 57.579422 49.11329651 C56.43559555 49.10813522 55.2917691 49.10297394 54.11328125 49.09765625 C52.94113571 49.0962413 51.76899017 49.09482635 50.56132507 49.09336853 C46.81169093 49.08776388 43.06211615 49.07521056 39.3125 49.0625 C36.77278732 49.0574856 34.2330737 49.05292259 31.69335938 49.04882812 C25.46221927 49.03779294 19.23111388 49.02105025 13 49 C12.87239288 49.73736893 12.74478577 50.47473785 12.61331177 51.23445129 C12.44072845 52.21129379 12.26814514 53.18813629 12.09033203 54.19458008 C11.92147491 55.15882401 11.7526178 56.12306793 11.5786438 57.11653137 C10.71022806 61.44397691 9.36081128 65.53793697 7.875 69.6875 C7.57078125 70.54472656 7.2665625 71.40195313 6.953125 72.28515625 C3.93954116 80.54188596 0.19831339 88.28986289 -4 96 C-4.82951172 97.56621094 -4.82951172 97.56621094 -5.67578125 99.1640625 C-14.95102898 115.94362761 -30.45773852 136.54729315 -48 145 C-50.07758816 128.61013788 -50.07758816 128.61013788 -46.80322266 122.92041016 C-43.57854341 119.05510696 -39.6773537 115.91405379 -35.84667969 112.66992188 C-14.21191257 93.10596008 -2.32210752 57.15547024 -0.74316406 28.80712891 C-0.28174321 19.21076224 -0.10150422 9.60614934 0 0 Z " fill="#50D8D6" transform="translate(192,71)"/>
<path d="M0 0 C2.875 2.125 2.875 2.125 5 5 C5.46919431 8.60741451 5.42559957 10.36387534 3.38267517 13.41734314 C2.6375618 14.18446121 1.89244843 14.95157928 1.12475586 15.74194336 C0.29918182 16.60471893 -0.52639221 17.46749451 -1.37698364 18.35641479 C-2.67537674 19.66498947 -2.67537674 19.66498947 -4 21 C-4.79896698 21.82299591 -5.59793396 22.64599182 -6.42111206 23.493927 C-8.92715811 26.05845935 -11.45767889 28.59642499 -13.99609375 31.12890625 C-15.36822777 32.50247536 -15.36822777 32.50247536 -16.76808167 33.90379333 C-18.68158272 35.81875162 -20.59683765 37.73193237 -22.51342773 39.64379883 C-24.9703328 42.09494255 -27.42263254 44.55063767 -29.87368679 47.00763035 C-32.22456897 49.36298021 -34.5792367 51.71452973 -36.93359375 54.06640625 C-37.81373642 54.94857315 -38.69387909 55.83074005 -39.60069275 56.73963928 C-40.41236404 57.54815842 -41.22403534 58.35667755 -42.06030273 59.18969727 C-42.77484116 59.90344009 -43.48937958 60.61718292 -44.22557068 61.35255432 C-46.41214605 63.38265161 -47.68367303 63.93974724 -50.625 64.5 C-59.13260908 63.23961347 -66.61097713 52.53955912 -72.4375 46.6875 C-73.34693359 45.78193359 -74.25636719 44.87636719 -75.19335938 43.94335938 C-76.05638672 43.07904297 -76.91941406 42.21472656 -77.80859375 41.32421875 C-78.59032959 40.54135498 -79.37206543 39.75849121 -80.17749023 38.9519043 C-82.42090253 36.54921424 -82.93854388 35.46092093 -83.375 32.1875 C-83 29 -83 29 -80.875 26.125 C-78 24 -78 24 -75.1875 23.25 C-70.22858374 24.41680383 -67.55156521 27.46601679 -64 31 C-63.49500977 31.49806152 -62.99001953 31.99612305 -62.46972656 32.50927734 C-58.95253467 35.97961499 -55.46771952 39.48026469 -52 43 C-48.64803688 41.54454619 -46.46799449 39.70664227 -43.90576172 37.11694336 C-43.11168915 36.31949203 -42.31761658 35.52204071 -41.4994812 34.70042419 C-40.22743332 33.40818687 -40.22743332 33.40818687 -38.9296875 32.08984375 C-38.05224884 31.20720352 -37.17481018 30.32456329 -36.27078247 29.41517639 C-33.94347304 27.07307161 -31.62028733 24.72698316 -29.29943848 22.378479 C-26.02330685 19.06430506 -22.74193282 15.75535053 -19.45779419 12.44911194 C-17.70998749 10.68901146 -15.96486025 8.92624555 -14.22262573 7.16062927 C-13.43485748 6.36633011 -12.64708923 5.57203094 -11.83544922 4.75366211 C-11.14135956 4.05131943 -10.4472699 3.34897675 -9.73214722 2.62535095 C-6.60426359 -0.30968169 -4.22070896 -0.496554 0 0 Z " fill="#F3F0EB" transform="translate(135,80)"/>
<path d="M0 0 C5.28 0 10.56 0 16 0 C13.79049557 16.69403347 6.99657917 32.31440697 -1 47 C-1.55300781 48.04414063 -2.10601562 49.08828125 -2.67578125 50.1640625 C-11.95102898 66.94362761 -27.45773852 87.54729315 -45 96 C-47.07758816 79.61013788 -47.07758816 79.61013788 -43.80322266 73.92041016 C-40.57854341 70.05510696 -36.6773537 66.91405379 -32.84667969 63.66992188 C-17.51159658 49.80266004 -8.76812461 27.38720507 -2.69506836 8.18383789 C-1.8240091 5.44705353 -0.90822535 2.72467606 0 0 Z " fill="#51D8D5" transform="translate(189,120)"/>
<path d="M0 0 C2.77042379 2.86277125 2.875 5.0136242 2.875 8.9375 C1.87109375 11.57421875 1.87109375 11.57421875 -0.125 13.9375 C-2.88080565 14.65418939 -5.26309819 15.07786703 -8.0625 15.375 C-19.79080406 17.05260388 -29.78155197 21.26123403 -37.125 30.9375 C-42.01354205 38.29815215 -44.00476126 45.56766082 -44.92504883 54.23803711 C-45.37841973 57.82885101 -45.66853184 59.55195416 -48.48828125 61.93359375 C-52.15191 63.32848647 -54.38873905 63.04454028 -58.125 61.9375 C-61.15723096 59.00308294 -61.37371734 55.98452826 -61.5625 51.9375 C-61.12041249 37.63693002 -54.29173372 24.4743357 -44.61328125 14.2265625 C-33.55506939 4.05370198 -15.25909157 -5.18809113 0 0 Z " fill="#51D9D7" transform="translate(477.125,249.0625)"/>
<path d="M0 0 C0.80232056 -0.00004028 1.60464111 -0.00008057 2.43127441 -0.00012207 C4.12239443 0.00522359 5.8135146 0.02276578 7.50439453 0.05175781 C10.08573724 0.09362006 12.66446867 0.09282315 15.24609375 0.0859375 C16.89324721 0.09643096 18.54038728 0.10936992 20.1875 0.125 C21.3392572 0.12530212 21.3392572 0.12530212 22.51428223 0.12561035 C27.00556641 0.22428421 30.08499362 0.69725983 33.59375 3.59375 C34.76555914 7.54860583 34.9985633 9.66267942 33.34375 13.46875 C31.59375 15.59375 31.59375 15.59375 28.59375 16.59375 C25.83664043 16.71468389 23.10557638 16.78187326 20.34765625 16.796875 C19.13637306 16.80542511 19.13637306 16.80542511 17.90061951 16.81414795 C16.19344388 16.82358834 14.48625011 16.83012812 12.77905273 16.83398438 C10.16943625 16.8437009 7.56060393 16.8747369 4.95117188 16.90625 C3.29167134 16.91277933 1.63216518 16.91803007 -0.02734375 16.921875 C-0.80661728 16.9342218 -1.58589081 16.9465686 -2.38877869 16.95928955 C-5.67506266 16.9457938 -7.99136563 16.82910765 -10.88085938 15.18994141 C-12.65730202 13.33104544 -13.11884837 12.25184068 -13.46875 9.71875 C-13.58347656 9.06132812 -13.69820312 8.40390625 -13.81640625 7.7265625 C-12.44387172 0.58938296 -6.11332719 -0.13053482 0 0 Z " fill="#50D9D7" transform="translate(229.40625,135.40625)"/>
<path d="M0 0 C5.28 0 10.56 0 16 0 C16 13.2 16 26.4 16 40 C10.72 40 5.44 40 0 40 C0 26.8 0 13.6 0 0 Z " fill="#00BEBD" transform="translate(128,240)"/>
<path d="M0 0 C2.0625 1.9375 2.0625 1.9375 3.0625 5.3125 C3.0625 9.50742957 2.98995046 10.9264081 0.0625 13.9375 C-2.4902815 14.875774 -5.00770294 15.56424193 -7.66015625 16.1640625 C-10.28415356 16.7972198 -10.28415356 16.7972198 -11.9375 19.9375 C-12.68299605 22.23543013 -13.32566201 24.54828713 -13.9609375 26.87890625 C-14.9375 28.9375 -14.9375 28.9375 -16.81640625 30.22265625 C-20.13504593 31.34109283 -22.59015931 30.78955036 -25.9375 29.9375 C-28.25376116 28.14426555 -28.7986608 26.81912894 -29.25 23.953125 C-29.57113389 18.1325732 -28.40863657 13.63645881 -24.9375 8.9375 C-17.84487745 1.46113482 -10.42061897 -3.76916005 0 0 Z " fill="#51D9D7" transform="translate(476.9375,281.0625)"/>
<path d="M0 0 C13 0 13 0 16 1 C16.02907584 5.3958194 16.0468244 9.79161399 16.0625 14.1875 C16.07087891 15.43337891 16.07925781 16.67925781 16.08789062 17.96289062 C16.09272461 19.7659668 16.09272461 19.7659668 16.09765625 21.60546875 C16.10551147 23.26292114 16.10551147 23.26292114 16.11352539 24.95385742 C16 28 16 28 15 33 C10.05 33 5.1 33 0 33 C0 22.11 0 11.22 0 0 Z " fill="#50D9D7" transform="translate(192,71)"/>
<path d="M0 0 C0.93714844 -0.00257813 1.87429687 -0.00515625 2.83984375 -0.0078125 C7.80437377 0.06260637 11.52949427 0.18039685 15.5 3.5 C16.94430855 6.38861709 16.87688506 8.29647701 16.5 11.5 C14.41724956 14.5330886 12.78877454 16.26008524 9.09082031 16.94848633 C6.19075499 17.10162254 3.34023801 17.08320552 0.4375 17 C-1.05233398 17.00386719 -1.05233398 17.00386719 -2.57226562 17.0078125 C-10.78724833 16.897173 -10.78724833 16.897173 -14.5 13.5 C-15.28515625 11.6328125 -15.28515625 11.6328125 -15.5625 9.625 C-15.67722656 8.96757812 -15.79195312 8.31015625 -15.91015625 7.6328125 C-14.31531979 -0.66033708 -6.69368514 -0.20255994 0 0 Z " fill="#D9D9D9" transform="translate(199.5,399.5)"/>
<path d="M0 0 C0.93714844 -0.00257813 1.87429687 -0.00515625 2.83984375 -0.0078125 C7.80437377 0.06260637 11.52949427 0.18039685 15.5 3.5 C16.94430855 6.38861709 16.87688506 8.29647701 16.5 11.5 C14.41724956 14.5330886 12.78877454 16.26008524 9.09082031 16.94848633 C6.19075499 17.10162254 3.34023801 17.08320552 0.4375 17 C-1.05233398 17.00386719 -1.05233398 17.00386719 -2.57226562 17.0078125 C-10.78724833 16.897173 -10.78724833 16.897173 -14.5 13.5 C-15.28515625 11.6328125 -15.28515625 11.6328125 -15.5625 9.625 C-15.67722656 8.96757812 -15.79195312 8.31015625 -15.91015625 7.6328125 C-14.31531979 -0.66033708 -6.69368514 -0.20255994 0 0 Z " fill="#D9D9D9" transform="translate(151.5,399.5)"/>
<path d="M0 0 C0.93714844 -0.00257813 1.87429687 -0.00515625 2.83984375 -0.0078125 C7.80437377 0.06260637 11.52949427 0.18039685 15.5 3.5 C16.94430855 6.38861709 16.87688506 8.29647701 16.5 11.5 C14.41724956 14.5330886 12.78877454 16.26008524 9.09082031 16.94848633 C6.19075499 17.10162254 3.34023801 17.08320552 0.4375 17 C-1.05233398 17.00386719 -1.05233398 17.00386719 -2.57226562 17.0078125 C-10.78724833 16.897173 -10.78724833 16.897173 -14.5 13.5 C-15.28515625 11.6328125 -15.28515625 11.6328125 -15.5625 9.625 C-15.67722656 8.96757812 -15.79195313 8.31015625 -15.91015625 7.6328125 C-14.31531979 -0.66033708 -6.69368514 -0.20255994 0 0 Z " fill="#D9D9D9" transform="translate(103.5,399.5)"/>
<path d="M0 0 C0.93714844 -0.00257813 1.87429687 -0.00515625 2.83984375 -0.0078125 C7.80437377 0.06260637 11.52949427 0.18039685 15.5 3.5 C16.94430855 6.38861709 16.87688506 8.29647701 16.5 11.5 C14.41724956 14.5330886 12.78877454 16.26008524 9.09082031 16.94848633 C6.19075499 17.10162254 3.34023801 17.08320552 0.4375 17 C-1.05233398 17.00386719 -1.05233398 17.00386719 -2.57226562 17.0078125 C-10.78724833 16.897173 -10.78724833 16.897173 -14.5 13.5 C-15.28515625 11.6328125 -15.28515625 11.6328125 -15.5625 9.625 C-15.67722656 8.96757812 -15.79195312 8.31015625 -15.91015625 7.6328125 C-14.31531979 -0.66033708 -6.69368514 -0.20255994 0 0 Z " fill="#D9D9D9" transform="translate(55.5,399.5)"/>
<path d="M0 0 C0.93714844 -0.00257813 1.87429688 -0.00515625 2.83984375 -0.0078125 C11.66104117 0.11731087 11.66104117 0.11731087 15.5 3.5 C16.67180914 7.45485583 16.9048133 9.56892942 15.25 13.375 C13.5 15.5 13.5 15.5 10.5 16.5 C7.02517506 16.75394579 3.54564065 16.73126084 0.0625 16.75 C-1.36932617 16.7809375 -1.36932617 16.7809375 -2.83007812 16.8125 C-3.75111328 16.81765625 -4.67214844 16.8228125 -5.62109375 16.828125 C-6.4608374 16.8374707 -7.30058105 16.84681641 -8.16577148 16.85644531 C-11.0252817 16.41978755 -12.38411115 15.43640556 -14.5 13.5 C-15.28515625 11.6328125 -15.28515625 11.6328125 -15.5625 9.625 C-15.67722656 8.96757812 -15.79195313 8.31015625 -15.91015625 7.6328125 C-14.31531979 -0.66033708 -6.69368514 -0.20255994 0 0 Z " fill="#50D9D7" transform="translate(463.5,199.5)"/>
<path d="M0 0 C0.93714844 -0.00257813 1.87429688 -0.00515625 2.83984375 -0.0078125 C11.66104117 0.11731087 11.66104117 0.11731087 15.5 3.5 C16.67180914 7.45485583 16.9048133 9.56892942 15.25 13.375 C13.5 15.5 13.5 15.5 10.5 16.5 C7.02517506 16.75394579 3.54564065 16.73126084 0.0625 16.75 C-1.36932617 16.7809375 -1.36932617 16.7809375 -2.83007812 16.8125 C-3.75111328 16.81765625 -4.67214844 16.8228125 -5.62109375 16.828125 C-6.4608374 16.8374707 -7.30058105 16.84681641 -8.16577148 16.85644531 C-11.0252817 16.41978755 -12.38411115 15.43640556 -14.5 13.5 C-15.28515625 11.6328125 -15.28515625 11.6328125 -15.5625 9.625 C-15.67722656 8.96757812 -15.79195313 8.31015625 -15.91015625 7.6328125 C-14.31531979 -0.66033708 -6.69368514 -0.20255994 0 0 Z " fill="#50D9D7" transform="translate(415.5,199.5)"/>
<path d="M0 0 C0.93714844 -0.00257813 1.87429688 -0.00515625 2.83984375 -0.0078125 C11.66104117 0.11731087 11.66104117 0.11731087 15.5 3.5 C16.67180914 7.45485583 16.9048133 9.56892942 15.25 13.375 C13.5 15.5 13.5 15.5 10.5 16.5 C7.02517506 16.75394579 3.54564065 16.73126084 0.0625 16.75 C-1.36932617 16.7809375 -1.36932617 16.7809375 -2.83007812 16.8125 C-3.75111328 16.81765625 -4.67214844 16.8228125 -5.62109375 16.828125 C-6.4608374 16.8374707 -7.30058105 16.84681641 -8.16577148 16.85644531 C-11.0252817 16.41978755 -12.38411115 15.43640556 -14.5 13.5 C-15.28515625 11.6328125 -15.28515625 11.6328125 -15.5625 9.625 C-15.67722656 8.96757812 -15.79195313 8.31015625 -15.91015625 7.6328125 C-14.31531979 -0.66033708 -6.69368514 -0.20255994 0 0 Z " fill="#50D9D7" transform="translate(367.5,199.5)"/>
<path d="M0 0 C0.93714844 -0.00257813 1.87429688 -0.00515625 2.83984375 -0.0078125 C11.66104117 0.11731087 11.66104117 0.11731087 15.5 3.5 C16.67180914 7.45485583 16.9048133 9.56892942 15.25 13.375 C13.5 15.5 13.5 15.5 10.5 16.5 C7.02517506 16.75394579 3.54564065 16.73126084 0.0625 16.75 C-1.36932617 16.7809375 -1.36932617 16.7809375 -2.83007812 16.8125 C-3.75111328 16.81765625 -4.67214844 16.8228125 -5.62109375 16.828125 C-6.4608374 16.8374707 -7.30058105 16.84681641 -8.16577148 16.85644531 C-11.0252817 16.41978755 -12.38411115 15.43640556 -14.5 13.5 C-15.28515625 11.6328125 -15.28515625 11.6328125 -15.5625 9.625 C-15.67722656 8.96757812 -15.79195313 8.31015625 -15.91015625 7.6328125 C-14.31531979 -0.66033708 -6.69368514 -0.20255994 0 0 Z " fill="#50D9D7" transform="translate(319.5,199.5)"/>
<path d="M0 0 C5.28 0 10.56 0 16 0 C15.125 12.625 15.125 12.625 14 16 C8.72 16 3.44 16 -2 16 C-1.48890761 10.59702331 -0.89347026 5.36082155 0 0 Z " fill="#03BDBA" transform="translate(191,104)"/>
</svg>
