<?xml version="1.0" encoding="UTF-8"?>
<svg version="1.1" xmlns="http://www.w3.org/2000/svg" width="512" height="512">
<path d="M0 0 C3.64485089 1.50049999 6.34663066 3.90396393 9.296875 6.44921875 C25.36148959 19.76499039 43.44511315 29.28375495 63.44116211 35.12231445 C64.21468018 35.35007568 64.98819824 35.57783691 65.78515625 35.8125 C66.82023315 36.1070105 66.82023315 36.1070105 67.8762207 36.4074707 C69.609375 37.07421875 69.609375 37.07421875 71.609375 39.07421875 C71.84988403 41.36477661 71.84988403 41.36477661 71.83642578 44.25830078 C71.83627472 45.33927032 71.83612366 46.42023987 71.83596802 47.53396606 C71.82564545 48.70482758 71.81532288 49.87568909 71.8046875 51.08203125 C71.80044266 52.87566605 71.80044266 52.87566605 71.79611206 54.70553589 C71.78488805 58.53686394 71.75977931 62.36796097 71.734375 66.19921875 C71.72434808 68.7916633 71.71522173 71.3841115 71.70703125 73.9765625 C71.68494146 80.34252717 71.65144206 86.70835646 71.609375 93.07421875 C72.40837125 93.07053158 73.2073675 93.06684441 74.03057575 93.0630455 C93.5037496 92.97457169 112.97688314 92.90844949 132.45021534 92.86697006 C141.86751859 92.84637592 151.28468737 92.81831573 160.7019043 92.77246094 C168.91334635 92.73249655 177.12469098 92.70676307 185.3362276 92.69786477 C189.68113596 92.69266623 194.02576572 92.68051396 198.37058449 92.65129852 C202.46721384 92.62397735 206.56345206 92.61580715 210.66016388 92.62178802 C212.15685597 92.6206952 213.65356229 92.61284115 215.15017509 92.59739685 C225.936803 92.49162369 236.18028508 93.61163792 244.98046875 100.4609375 C252.7194702 108.12570392 255.81989678 115.87196107 255.886186 126.60167384 C255.8830888 127.73687819 255.8799916 128.87208253 255.87680054 130.04168701 C255.88133165 131.25665651 255.88586276 132.471626 255.89053118 133.72341275 C255.90099238 137.08829046 255.90250258 140.45295421 255.90014243 143.81783295 C255.89973387 147.44987006 255.91077724 151.08187543 255.92025757 154.71389771 C255.93686034 161.82719091 255.9423668 168.94045097 255.94348232 176.05376193 C255.94443321 181.83729109 255.94854551 187.62080932 255.95488358 193.40433502 C255.97249454 209.80881851 255.98172275 226.21327584 255.98022263 242.61776885 C255.98010276 243.9439264 255.98010276 243.9439264 255.97998047 245.296875 C255.97989871 246.18206209 255.97981695 247.06724918 255.97973271 247.97926012 C255.97892 262.32139037 255.99805421 276.66341556 256.0262572 291.00551543 C256.05500046 305.73886283 256.06879668 320.47215902 256.06706965 335.20553517 C256.06640621 343.47437683 256.07187807 351.74310837 256.09342575 360.01192474 C256.11165661 367.05295935 256.11596936 374.09383392 256.1024069 381.13488194 C256.0958866 384.72504696 256.09572564 388.31490511 256.1131134 391.90504074 C256.13179777 395.80310703 256.1192649 399.70072768 256.10385132 403.59881592 C256.11413844 404.72509738 256.12442557 405.85137884 256.13502443 407.01179004 C256.0390114 418.01716053 252.76797713 425.89808908 245.18359375 433.87109375 C237.50566411 440.44218983 228.76865625 442.23008309 218.93457603 442.20564651 C218.16558072 442.20769915 217.39658541 442.20975178 216.60428721 442.21186662 C214.01835113 442.217537 211.43246831 442.21607932 208.8465271 442.21466064 C206.97739145 442.21724426 205.10825636 442.22025741 203.23912203 442.22366405 C198.09533826 442.23173776 192.95156843 442.23352383 187.80777907 442.23426151 C182.26295201 442.23611143 176.7181322 442.24365847 171.17330933 442.25039673 C159.04515543 442.26398336 146.91700483 442.27000533 134.78884459 442.27440739 C127.21678949 442.27716933 119.64473566 442.28140661 112.07268143 442.28591156 C91.11042304 442.29810481 70.14816533 442.30843929 49.18590355 442.31178665 C47.83049676 442.31200828 46.47508997 442.31223007 45.11968318 442.312452 C43.76102072 442.31267264 42.40235827 442.31289313 41.04369581 442.31311345 C38.31803028 442.313556 35.59236475 442.31400312 32.86669922 442.31445312 C32.19089342 442.31456252 31.51508762 442.31467191 30.81880285 442.31478461 C8.90926893 442.31841467 -13.00023189 442.33433293 -34.90975313 442.35764349 C-58.07918351 442.3822494 -81.24859571 442.39595313 -104.41804159 442.39715457 C-117.04587005 442.39807143 -129.67365518 442.40382665 -142.30147171 442.42197418 C-153.05458409 442.43737301 -163.80763974 442.4424969 -174.56076105 442.43423608 C-180.04662313 442.43032879 -185.53237096 442.43126313 -191.01821899 442.44529343 C-196.04317693 442.45802738 -201.0679347 442.45683915 -206.09289233 442.44470271 C-207.90786793 442.44274485 -209.72285767 442.44582826 -211.53781338 442.45454708 C-225.94333723 442.51935147 -237.23853355 441.73791552 -248.07421875 431.48046875 C-255.6606431 423.45891283 -256.98320082 414.28333931 -256.89855957 403.6190033 C-256.90479953 402.39991054 -256.9110395 401.18081778 -256.91746855 399.92478281 C-256.93059603 396.56676278 -256.92596325 393.20964677 -256.91352367 389.85168302 C-256.90443328 386.22040201 -256.91846251 382.58919715 -256.92944336 378.95793152 C-256.94719029 371.854831 -256.9434059 364.75189996 -256.9317928 357.64879292 C-256.92274434 351.87439951 -256.92154057 346.10005345 -256.92588806 340.32565498 C-256.92650099 339.50255074 -256.92711393 338.67944649 -256.92774543 337.8313997 C-256.92902438 336.15908061 -256.93032124 334.48676153 -256.9316358 332.81444246 C-256.9430302 317.1491078 -256.92994544 301.4838669 -256.90843433 285.81854761 C-256.89056104 272.38671594 -256.89367155 258.95502255 -256.91210938 245.52319336 C-256.93353051 229.91081659 -256.94193517 214.2985219 -256.92966032 198.68613249 C-256.92838617 197.02041059 -256.92712869 195.35468868 -256.92588806 193.68896675 C-256.92527096 192.86947818 -256.92465386 192.0499896 -256.92401806 191.20566804 C-256.92056913 185.43993248 -256.92638355 179.67424913 -256.93580627 173.90852165 C-256.94704132 166.87961523 -256.94395454 159.85088743 -256.9226833 152.82200139 C-256.91219352 149.23802039 -256.90801534 145.65433686 -256.92127991 142.07035828 C-256.93545712 138.18088864 -256.91849336 134.29190276 -256.89855957 130.40245056 C-256.90748246 129.27598474 -256.91640534 128.14951892 -256.92559862 126.98891777 C-256.83142875 117.51139527 -253.99237314 109.07912708 -247.390625 102.07421875 C-237.1136942 93.56019226 -226.87122375 92.63420272 -213.95678711 92.73364258 C-212.4086814 92.73449004 -210.86057449 92.73401138 -209.31246948 92.73231506 C-205.13327651 92.73145833 -200.95434463 92.74903156 -196.77521205 92.77003694 C-192.39902892 92.78885774 -188.02283906 92.79055842 -183.6466217 92.79411316 C-175.37015248 92.8034178 -167.09380288 92.82801008 -158.81738621 92.85816163 C-149.39052974 92.89175498 -139.96366741 92.90820403 -130.53676593 92.92324793 C-111.15465127 92.95456112 -91.77264777 93.00729071 -72.390625 93.07421875 C-72.40172806 92.40436447 -72.41283112 91.73451019 -72.42427063 91.0443573 C-72.5347093 84.08561509 -72.61022817 77.12712089 -72.6652832 70.16772461 C-72.69046003 67.56898898 -72.72460366 64.97032437 -72.76782227 62.37182617 C-72.8283309 58.64093527 -72.85680377 54.91097872 -72.87890625 51.1796875 C-72.90471268 50.01398727 -72.9305191 48.84828705 -72.95710754 47.64726257 C-72.9574852 46.56636856 -72.95786285 45.48547455 -72.95825195 44.37182617 C-72.96935501 43.41918381 -72.98045807 42.46654144 -72.99189758 41.48503113 C-72.390625 39.07421875 -72.390625 39.07421875 -69.99226379 37.29464722 C-67.65638348 36.19888603 -65.44959096 35.32356498 -62.9765625 34.6015625 C-43.41487823 28.63535274 -25.81900208 19.80656967 -10.26171875 6.41015625 C-8.80958984 5.16105469 -8.80958984 5.16105469 -7.328125 3.88671875 C-6.49152344 3.13003906 -5.65492188 2.37335937 -4.79296875 1.59375 C-2.390625 0.07421875 -2.390625 0.07421875 0 0 Z " fill="#606386" transform="translate(256.390625,34.92578125)"/>
<path d="M0 0 C3.64485089 1.50049999 6.34663066 3.90396393 9.296875 6.44921875 C25.36148959 19.76499039 43.44511315 29.28375495 63.44116211 35.12231445 C64.21468018 35.35007568 64.98819824 35.57783691 65.78515625 35.8125 C66.82023315 36.1070105 66.82023315 36.1070105 67.8762207 36.4074707 C69.609375 37.07421875 69.609375 37.07421875 71.609375 39.07421875 C71.85661316 41.27056885 71.85661316 41.27056885 71.85229492 44.03613281 C71.85537155 45.07191467 71.85844818 46.10769653 71.86161804 47.17486572 C71.85083977 48.86527985 71.85083977 48.86527985 71.83984375 50.58984375 C71.83938553 51.75239685 71.83892731 52.91494995 71.8384552 54.11273193 C71.835427 56.58427952 71.82752391 59.0558251 71.81518555 61.52734375 C71.79715095 65.26699792 71.79467441 69.00640102 71.79492188 72.74609375 C71.74608133 107.00112582 66.9237831 132.75981065 41.609375 158.07421875 C35.82873685 163.2812742 29.59499397 167.89423237 23.296875 172.44921875 C22.72235596 172.86623047 22.14783691 173.28324219 21.5559082 173.71289062 C12.60412896 180.07421875 12.60412896 180.07421875 8.609375 180.07421875 C8.609375 180.73421875 8.609375 181.39421875 8.609375 182.07421875 C2.35268204 184.34937983 -4.0188157 185.10382556 -10.27539062 182.19921875 C-12.27812286 181.05363136 -14.21117101 179.83929193 -16.140625 178.57421875 C-16.83945801 178.12570557 -17.53829102 177.67719238 -18.25830078 177.21508789 C-24.33213626 173.24985469 -29.94149956 168.86233053 -35.390625 164.07421875 C-36.22980469 163.35621094 -37.06898438 162.63820312 -37.93359375 161.8984375 C-55.124524 146.89302086 -69.3380376 128.27388301 -72.390625 105.07421875 C-72.390625 101.44421875 -72.390625 97.81421875 -72.390625 94.07421875 C-124.200625 94.07421875 -176.010625 94.07421875 -229.390625 94.07421875 C-229.390625 93.74421875 -229.390625 93.41421875 -229.390625 93.07421875 C-177.580625 93.07421875 -125.770625 93.07421875 -72.390625 93.07421875 C-72.390625 75.25421875 -72.390625 57.43421875 -72.390625 39.07421875 C-68.8230806 36.93369211 -66.72853996 35.69695508 -62.9765625 34.6015625 C-43.41487823 28.63535274 -25.81900208 19.80656967 -10.26171875 6.41015625 C-8.80958984 5.16105469 -8.80958984 5.16105469 -7.328125 3.88671875 C-6.49152344 3.13003906 -5.65492188 2.37335937 -4.79296875 1.59375 C-2.390625 0.07421875 -2.390625 0.07421875 0 0 Z " fill="#8BB95E" transform="translate(256.390625,34.92578125)"/>
<path d="M0 0 C1.1583284 -0.01913956 2.3166568 -0.03827911 3.51008606 -0.05799866 C4.75803452 -0.06133713 6.00598297 -0.0646756 7.29174805 -0.06811523 C9.22270576 -0.08309303 9.22270576 -0.08309303 11.19267273 -0.09837341 C13.91709941 -0.11631817 16.64124106 -0.12189641 19.36572266 -0.12011719 C22.84302953 -0.11981284 26.31849126 -0.1607187 29.79536152 -0.21243382 C33.1275156 -0.2539891 36.45933854 -0.2520646 39.79174805 -0.25561523 C41.03362381 -0.27717178 42.27549957 -0.29872833 43.55500793 -0.32093811 C53.20613243 -0.24465796 53.20613243 -0.24465796 57.51904297 3.35400391 C61.72685717 7.64899312 61.42992824 11.59573858 61.47924805 17.38891602 C61.48731979 18.28189392 61.49539154 19.17487183 61.50370789 20.09490967 C61.51755249 21.98797665 61.52827296 23.88106863 61.53613281 25.77416992 C61.55331659 28.66056111 61.59719522 31.54579823 61.64135742 34.43188477 C61.651487 36.2717201 61.66000227 38.11156517 61.66674805 39.95141602 C61.68425613 40.81099915 61.70176422 41.67058228 61.71980286 42.55621338 C61.70026753 47.99127192 60.97179768 51.20090149 57.2409668 55.43579102 C53.56532868 58.06741112 51.03388562 58.81513221 46.53613281 58.83984375 C44.85397423 58.85887001 44.85397423 58.85887001 43.13783264 58.87828064 C41.33456764 58.87387718 41.33456764 58.87387718 39.49487305 58.86938477 C38.25100327 58.87462662 37.00713348 58.87986847 35.72557068 58.88526917 C32.42501339 58.89332912 29.12487241 58.88623052 25.82434082 58.87493896 C23.80667133 58.87329363 21.78956527 58.88527247 19.77197266 58.90234375 C15.88767173 58.9330337 12.00427586 58.93642572 8.11987305 58.93188477 C6.31964439 58.94873573 6.31964439 58.94873573 4.48304749 58.96592712 C-6.24531137 58.87643487 -6.24531137 58.87643487 -10.7590332 54.43579102 C-14.09080217 49.57965741 -14.21339872 45.2133817 -14.19262695 39.52954102 C-14.1978688 38.68661499 -14.20311066 37.84368896 -14.20851135 36.97521973 C-14.21490996 35.20020648 -14.21362265 33.4251507 -14.20507812 31.65014648 C-14.19655844 28.94380885 -14.22537338 26.23957728 -14.25708008 23.53344727 C-14.25869215 21.80297914 -14.25811444 20.07250731 -14.25512695 18.34204102 C-14.26636093 17.53875366 -14.27759491 16.73546631 -14.28916931 15.90783691 C-14.22406506 10.62652994 -13.27673015 7.6064041 -9.7590332 3.43579102 C-6.53277036 0.46627971 -4.34427559 0.04879374 0 0 Z " fill="#FD9718" transform="translate(58.759033203125,238.564208984375)"/>
<path d="M0 0 C1.1583284 -0.01913956 2.3166568 -0.03827911 3.51008606 -0.05799866 C4.75803452 -0.06133713 6.00598297 -0.0646756 7.29174805 -0.06811523 C9.22270576 -0.08309303 9.22270576 -0.08309303 11.19267273 -0.09837341 C13.91709941 -0.11631817 16.64124106 -0.12189641 19.36572266 -0.12011719 C22.84302953 -0.11981284 26.31849126 -0.1607187 29.79536152 -0.21243382 C33.1275156 -0.2539891 36.45933854 -0.2520646 39.79174805 -0.25561523 C41.03362381 -0.27717178 42.27549957 -0.29872833 43.55500793 -0.32093811 C50.11630757 -0.26907919 54.33446617 0.13004058 59.18254089 4.75697327 C60.2409668 6.43579102 60.2409668 6.43579102 60.2409668 10.43579102 C53.6409668 10.43579102 47.0409668 10.43579102 40.2409668 10.43579102 C39.5809668 11.75579102 38.9209668 13.07579102 38.2409668 14.43579102 C36.94018555 16.17407227 36.94018555 16.17407227 35.2409668 17.43579102 C32.76049805 17.72875977 32.76049805 17.72875977 30.0534668 17.62329102 C28.4653418 17.56141602 26.8772168 17.49954102 25.2409668 17.43579102 C24.7459668 11.99079102 24.7459668 11.99079102 24.2409668 6.43579102 C22.57753843 8.09921939 22.88048583 10.21836191 22.6784668 12.49829102 C22.59467773 13.41739258 22.51088867 14.33649414 22.42456055 15.28344727 C22.33368164 16.34885742 22.33368164 16.34885742 22.2409668 17.43579102 C19.16487488 17.80492205 16.30498058 17.95667336 13.2409668 17.43579102 C11.89449487 15.89696595 10.55018469 14.35526464 9.2565918 12.77172852 C4.67887877 9.73766291 -2.44825016 11.07092806 -7.7590332 11.43579102 C-6.81801758 11.43836914 -5.87700195 11.44094727 -4.9074707 11.44360352 C6.54849697 11.79937891 6.54849697 11.79937891 10.1159668 14.87329102 C12.2409668 18.43579102 12.2409668 18.43579102 12.2409668 28.43579102 C5.3109668 28.43579102 -1.6190332 28.43579102 -8.7590332 28.43579102 C-8.7590332 29.09579102 -8.7590332 29.75579102 -8.7590332 30.43579102 C-1.8290332 30.43579102 5.1009668 30.43579102 12.2409668 30.43579102 C12.2409668 40.43579102 12.2409668 40.43579102 10.2253418 43.51782227 C6.60741242 45.84295751 3.66875144 46.14341522 -0.5090332 46.12329102 C-2.94631151 46.15312587 -5.32447936 46.25468396 -7.7590332 46.43579102 C-8.0890332 47.09579102 -8.4190332 47.75579102 -8.7590332 48.43579102 C-8.0990332 48.76579102 -7.4390332 49.09579102 -6.7590332 49.43579102 C-7.7490332 51.91079102 -7.7490332 51.91079102 -8.7590332 54.43579102 C-11.7590332 53.43579102 -11.7590332 53.43579102 -12.92553711 51.42382812 C-14.03442945 47.44851079 -14.08365689 43.73685186 -14.0949707 39.62719727 C-14.1016275 38.78285629 -14.1082843 37.93851532 -14.11514282 37.06858826 C-14.12524151 35.28760956 -14.12996071 33.50659324 -14.12963867 31.72558594 C-14.13401351 29.01051186 -14.17036548 26.29706239 -14.20825195 23.58227539 C-14.21412051 21.84725488 -14.21808964 20.11222668 -14.2199707 18.37719727 C-14.23434174 17.57077286 -14.24871277 16.76434845 -14.26351929 15.93348694 C-14.22085986 10.635305 -13.29329292 7.61839976 -9.7590332 3.43579102 C-6.53249645 0.46650595 -4.34441986 0.04879536 0 0 Z " fill="#FDEB9B" transform="translate(58.759033203125,238.564208984375)"/>
<path d="M0 0 C68.97 0 137.94 0 209 0 C209.33 1.32 209.66 2.64 210 4 C207.4503869 6.5496131 205.80997461 6.24243549 202.33332682 6.26748681 C201.53509044 6.26302537 200.73685407 6.25856392 199.91442871 6.25396729 C199.06883565 6.25708727 198.2232426 6.26020725 197.35202551 6.26342177 C194.50219209 6.27143591 191.6525696 6.2650649 188.80273438 6.25878906 C186.7663002 6.26149741 184.729867 6.26505746 182.69343567 6.26940918 C177.15018389 6.27855404 171.60700626 6.2749803 166.06375313 6.26865101 C160.27374185 6.26360184 154.4837371 6.26827943 148.69372559 6.27142334 C138.96881973 6.27506616 129.24394422 6.27025562 119.51904297 6.26074219 C108.26165444 6.24985704 97.00433835 6.2533824 85.74695158 6.264395 C76.09684741 6.2734589 66.44676509 6.27475755 56.79665804 6.26951766 C51.02638848 6.26639301 45.25615301 6.26600214 39.48588562 6.27259064 C34.06213157 6.27835045 28.63847128 6.27439231 23.2147274 6.26280212 C21.21922143 6.26014821 19.22370762 6.26093301 17.22820473 6.26532745 C14.51388554 6.27075561 11.79987084 6.26398223 9.08557129 6.25396729 C8.28733491 6.25842873 7.48909854 6.26289017 6.66667318 6.26748681 C1.22830009 6.22830009 1.22830009 6.22830009 -1 4 C-0.67 2.68 -0.34 1.36 0 0 Z " fill="#D4DAFC" transform="translate(46,420)"/>
<path d="M0 0 C0.66 0.33 1.32 0.66 2 1 C2 4.63 2 8.26 2 12 C4.97 12 7.94 12 11 12 C11 12.33 11 12.66 11 13 C7.37 13 3.74 13 0 13 C3.3 13.33 6.6 13.66 10 14 C10 20.27 10 26.54 10 33 C6.37 33.33 2.74 33.66 -1 34 C-0.67 34.33 -0.34 34.66 0 35 C0.07244053 37.01964199 0.08377188 39.04167124 0.0625 41.0625 C0.05347656 42.16722656 0.04445312 43.27195312 0.03515625 44.41015625 C0.02355469 45.26480469 0.01195312 46.11945313 0 47 C-3.6870516 47.3384185 -7.37470259 47.66981608 -11.0625 48 C-12.10083984 48.09539062 -13.13917969 48.19078125 -14.20898438 48.2890625 C-19.49577606 48.75899954 -24.69234381 49.12045745 -30 49 C-30 49.66 -30 50.32 -30 51 C-30.99 50.67 -31.98 50.34 -33 50 C-32.505 48.63875 -32.505 48.63875 -32 47.25 C-30.80394277 43.92954193 -30.80394277 43.92954193 -31 40 C-29.96359375 39.97421875 -28.9271875 39.9484375 -27.859375 39.921875 C-26.48954199 39.86558049 -25.11975195 39.80823345 -23.75 39.75 C-23.06808594 39.73582031 -22.38617188 39.72164063 -21.68359375 39.70703125 C-18.5582059 39.55531339 -16.28854138 39.16940171 -13.578125 37.578125 C-11.1756613 34.07270971 -11.1756613 34.07270971 -11 25 C-17.93 25 -24.86 25 -32 25 C-32 24.34 -32 23.68 -32 23 C-25.07 23 -18.14 23 -11 23 C-11.1246694 13.77346731 -11.1246694 13.77346731 -14.07421875 9.92578125 C-17.6606286 7.56516702 -20.63945199 7.22344013 -24.8125 7.1875 C-25.85180664 7.14979492 -25.85180664 7.14979492 -26.91210938 7.11132812 C-28.60747122 7.05286737 -30.30379287 7.02346953 -32 7 C-31.67 6.34 -31.34 5.68 -31 5 C-17.44322208 4.06861831 -17.44322208 4.06861831 -13.984375 6.30078125 C-13.09303437 7.37397586 -12.23182024 8.4730814 -11.40625 9.59765625 C-8.67367475 12.32264101 -4.67485196 11.98366732 -1 12 C-1.01160156 11.30132812 -1.02320312 10.60265625 -1.03515625 9.8828125 C-1.04417969 8.97273437 -1.05320312 8.06265625 -1.0625 7.125 C-1.07410156 6.22007812 -1.08570312 5.31515625 -1.09765625 4.3828125 C-1 2 -1 2 0 0 Z " fill="#FEB63E" transform="translate(82,244)"/>
<path d="M0 0 C0.7265625 2.21484375 0.7265625 2.21484375 1 5 C-0.4140625 7.25390625 -0.4140625 7.25390625 -2.625 9.5625 C-3.46546875 10.44164063 -4.3059375 11.32078125 -5.171875 12.2265625 C-8.5351987 15.52484955 -11.97248295 18.73131576 -15.47900391 21.87597656 C-19.08405716 25.13636064 -22.50986428 28.52251834 -25.8828125 32.0234375 C-26.72859863 32.89556885 -27.57438477 33.7677002 -28.44580078 34.66625977 C-30.13127203 36.41246727 -31.80447457 38.17061152 -33.46435547 39.94116211 C-34.62668701 41.14011108 -34.62668701 41.14011108 -35.8125 42.36328125 C-36.49957031 43.08813721 -37.18664062 43.81299316 -37.89453125 44.55981445 C-40 46 -40 46 -42.45776367 45.99584961 C-47.74533584 43.92459187 -51.38762433 39.22202965 -55.3125 35.25 C-56.24384766 34.3425 -57.17519531 33.435 -58.13476562 32.5 C-59.01455078 31.61828125 -59.89433594 30.7365625 -60.80078125 29.828125 C-61.60684814 29.0227832 -62.41291504 28.21744141 -63.2434082 27.38769531 C-65 25 -65 25 -65.38745117 22.32324219 C-65 20 -65 20 -63 18 C-58.98291803 18.27833867 -57.06038195 19.46196681 -54.3359375 22.34375 C-53.68882812 23.01277344 -53.04171875 23.68179688 -52.375 24.37109375 C-51.715 25.07363281 -51.055 25.77617187 -50.375 26.5 C-49.05406354 27.88978836 -47.72872595 29.27541059 -46.3984375 30.65625 C-45.81755371 31.27306641 -45.23666992 31.88988281 -44.63818359 32.52539062 C-42.95677963 34.23644062 -42.95677963 34.23644062 -40 35 C-39.79632813 34.47019531 -39.59265625 33.94039062 -39.3828125 33.39453125 C-37.39919542 29.9596237 -34.69834321 27.44762514 -31.875 24.6875 C-31.28678467 24.10500488 -30.69856934 23.52250977 -30.0925293 22.92236328 C-27.08387094 19.96374584 -24.03867534 17.0977065 -20.8125 14.375 C-16.48903463 10.7244834 -12.83107982 6.49537553 -9.1015625 2.2578125 C-5.82205259 -1.26552715 -4.52210284 -1.07102436 0 0 Z " fill="#D4DAF9" transform="translate(288,106)"/>
<path d="M0 0 C3.03978021 0.68164768 4.80055419 2.23591662 6.93359375 4.43359375 C8.67650484 7.91941594 8.20303297 11.84257259 8.24609375 15.68359375 C8.27509766 16.53050781 8.30410156 17.37742187 8.33398438 18.25 C8.39001489 23.79271049 7.75610877 27.10829747 3.93359375 31.43359375 C0.29576743 32.64620252 -2.24376624 32.82903927 -6.06640625 32.43359375 C-9.10477387 30.35796471 -10.80823212 28.72341169 -11.54541016 25.04052734 C-11.74084878 22.15535818 -11.74816639 19.32457701 -11.69140625 16.43359375 C-11.71074219 15.44875 -11.73007813 14.46390625 -11.75 13.44921875 C-11.71791073 8.70000734 -11.62456222 6.20224881 -8.77734375 2.28125 C-5.44574008 0.01057488 -3.88724005 -0.24249324 0 0 Z " fill="#CFD4F9" transform="translate(105.06640625,342.56640625)"/>
<path d="M0 0 C1.09828125 -0.00580078 1.09828125 -0.00580078 2.21875 -0.01171875 C5.86827367 1.10688525 7.25980652 2.59315996 9.5 5.6875 C10.20344861 9.20586438 10.15350654 12.61118882 10.0625 16.1875 C10.07345703 17.12464844 10.08441406 18.06179688 10.09570312 19.02734375 C10.04910446 23.40761799 9.9283068 25.99380065 7.58984375 29.78125 C4.8775375 32.25527888 3.89232303 32.64308607 0.1875 33.0625 C-4.40598187 32.59536625 -5.61447985 31.16709782 -8.5 27.6875 C-8.83 27.3575 -9.16 27.0275 -9.5 26.6875 C-9.83481341 23.46862932 -9.82507102 20.23403652 -9.875 17 C-9.93107422 15.65131836 -9.93107422 15.65131836 -9.98828125 14.27539062 C-10.04618482 9.89080347 -9.99350102 6.65070281 -7.2578125 3.0859375 C-4.50002811 0.68752445 -3.56764372 -0.11934019 0 0 Z " fill="#CFD5F9" transform="translate(54.5,342.3125)"/>
<path d="M0 0 C1.09828125 -0.00580078 1.09828125 -0.00580078 2.21875 -0.01171875 C5.84740934 1.10049019 7.26414014 2.6248378 9.5 5.6875 C10.17469786 9.04204129 10.10870501 12.27811546 10 15.6875 C10.00386719 17.02167969 10.00386719 17.02167969 10.0078125 18.3828125 C9.93491087 23.2672216 9.68806808 26.74374171 6.5 30.6875 C3.29062591 33.01152951 0.38493979 33.16320691 -3.5 32.6875 C-6.83761045 30.53659549 -8.23470933 29.48337201 -9.5 25.6875 C-9.80042211 22.58858889 -9.82333268 19.48678201 -9.875 16.375 C-9.91238281 15.53259766 -9.94976562 14.69019531 -9.98828125 13.82226562 C-10.04807662 9.57347274 -9.90057772 6.57072777 -7.2578125 3.125 C-3.58642204 -0.11996834 -3.58642204 -0.11996834 0 0 Z " fill="#D0D5FA" transform="translate(127.5,342.3125)"/>
<path d="M0 0 C0.7321875 -0.01546875 1.464375 -0.0309375 2.21875 -0.046875 C5.81270694 1.20854831 7.80661971 3.44886443 9.5 6.75 C10.17912085 10.12972683 10.15550949 13.37617653 10.0625 16.8125 C10.07345703 17.69744141 10.08441406 18.58238281 10.09570312 19.49414062 C10.04903397 23.64147271 9.84235987 26.15581542 7.7421875 29.80078125 C4.68415673 32.45924354 2.63497041 32.77396813 -1.30859375 33.02734375 C-3.5 32.75 -3.5 32.75 -6.5 30.4375 C-10.00161788 25.73220098 -9.78106565 22.21291617 -9.875 16.5 C-9.93107422 15.22962891 -9.93107422 15.22962891 -9.98828125 13.93359375 C-10.04793543 9.67163379 -9.91192408 6.64339587 -7.2578125 3.1875 C-3.56619933 -0.07534224 -3.56619933 -0.07534224 0 0 Z " fill="#CFD5FA" transform="translate(323.5,342.25)"/>
<path d="M0 0 C3.03978021 0.68164768 4.80055419 2.23591662 6.93359375 4.43359375 C8.67650484 7.91941594 8.20303297 11.84257259 8.24609375 15.68359375 C8.27509766 16.53050781 8.30410156 17.37742187 8.33398438 18.25 C8.3897466 23.76617078 7.82709857 27.18980822 3.93359375 31.43359375 C0.94943177 32.72548498 -1.84719863 32.79510904 -5.06640625 32.43359375 C-7.98784042 30.66856061 -9.54564442 29.4751174 -11.06640625 26.43359375 C-11.38518128 23.00333232 -11.3906684 19.56434849 -11.44140625 16.12109375 C-11.47878906 15.17041016 -11.51617187 14.21972656 -11.5546875 13.24023438 C-11.61379689 8.54103759 -11.6182713 6.19406758 -8.79296875 2.30078125 C-5.45145857 0.01246912 -3.90265277 -0.24345471 0 0 Z " fill="#CFD5FA" transform="translate(301.06640625,342.56640625)"/>
<path d="M0 0 C2.9309938 2.03785835 4.72070392 3.61440925 5.44458008 7.20556641 C5.60180593 9.821537 5.58350851 12.38086961 5.5 15 C5.50386719 16.33417969 5.50386719 16.33417969 5.5078125 17.6953125 C5.43517732 22.56186937 5.22549511 26.10506251 2 30 C-1.75047482 32.50031654 -3.55856266 32.53603554 -8 32 C-10.63016161 29.8272578 -12.47336894 28.05326212 -14 25 C-14.28978025 21.90274877 -14.27782438 18.79674735 -14.3125 15.6875 C-14.34150391 14.83220703 -14.37050781 13.97691406 -14.40039062 13.09570312 C-14.44288075 8.87610668 -14.38274023 6.61475183 -12.10546875 2.95703125 C-8.59001465 -0.31058008 -4.67588446 -1.12895228 0 0 Z " fill="#CFD4F8" transform="translate(242,343)"/>
<path d="M0 0 C0.7321875 -0.01546875 1.464375 -0.0309375 2.21875 -0.046875 C5.79891366 1.20373011 7.79733586 3.46976885 9.5 6.75 C10.15030263 9.96641972 10.1112707 13.04265863 10 16.3125 C10.00386719 17.56836914 10.00386719 17.56836914 10.0078125 18.84960938 C9.93239862 23.61199585 9.56746161 26.88727056 6.5 30.75 C3.29471299 33.07106991 0.37840257 33.30405751 -3.5 32.75 C-9.28233468 27.8671396 -9.28233468 27.8671396 -9.69287109 23.87402344 C-9.78031926 21.41593511 -9.83456285 18.95931403 -9.875 16.5 C-9.93107422 15.22962891 -9.93107422 15.22962891 -9.98828125 13.93359375 C-10.04793543 9.67163379 -9.91192408 6.64339587 -7.2578125 3.1875 C-3.56619933 -0.07534224 -3.56619933 -0.07534224 0 0 Z " fill="#D0D5FA" transform="translate(409.5,342.25)"/>
<path d="M0 0 C3.99104912 0.30178065 6.19416343 1.73413808 9 4.625 C10.74291109 8.11082219 10.26943922 12.03397884 10.3125 15.875 C10.34150391 16.72191406 10.37050781 17.56882812 10.40039062 18.44140625 C10.45615285 23.95757703 9.89350482 27.38121447 6 31.625 C3.01437371 32.91752516 0.22081673 32.98095479 -3 32.625 C-6.53724365 30.56160787 -7.70419522 29.51241435 -9 25.625 C-9.30042211 22.52608889 -9.32333268 19.42428201 -9.375 16.3125 C-9.41238281 15.47009766 -9.44976562 14.62769531 -9.48828125 13.75976562 C-9.54836666 9.49036326 -9.39868441 6.5088048 -6.7265625 3.05859375 C-3.11671496 -0.16337619 -3.11671496 -0.16337619 0 0 Z " fill="#D0D6FB" transform="translate(213,342.375)"/>
<path d="M0 0 C0.9590625 -0.03287109 0.9590625 -0.03287109 1.9375 -0.06640625 C5.4676335 1.01001703 6.82585296 2.59302395 9 5.5625 C9.70615982 9.08022209 9.65350163 12.48638195 9.5625 16.0625 C9.57345703 16.99964844 9.58441406 17.93679688 9.59570312 18.90234375 C9.54910446 23.28261799 9.4283068 25.86880065 7.08984375 29.65625 C4.3775375 32.13027888 3.39232303 32.51808607 -0.3125 32.9375 C-4 32.5625 -4 32.5625 -6.69140625 30.76171875 C-10.12863184 25.99845689 -9.73182526 21.7293946 -9.625 16 C-9.64433594 14.95908203 -9.66367188 13.91816406 -9.68359375 12.84570312 C-9.63510683 5.30598683 -9.63510683 5.30598683 -6.7109375 1.8828125 C-4.23445624 0.67668762 -2.72178882 -0.00548748 0 0 Z " fill="#CFD4F9" transform="translate(165,342.4375)"/>
<path d="M0 0 C0.639375 -0.01289063 1.27875 -0.02578125 1.9375 -0.0390625 C5.46568214 1.09690523 6.816232 2.62650425 9 5.625 C9.75962372 9.30590664 9.74390585 12.8776895 9.6875 16.625 C9.71521484 17.60984375 9.74292969 18.5946875 9.77148438 19.609375 C9.74797472 26.5682337 9.74797472 26.5682337 7.7409668 29.40380859 C5.04225484 31.77124786 2.97094916 32.63009664 -0.5625 33.25 C-5.09075291 32.42668129 -6.26591889 31.328646 -9 27.625 C-9.7382261 23.94401306 -9.69848577 20.36787524 -9.625 16.625 C-9.64433594 15.64015625 -9.66367188 14.6553125 -9.68359375 13.640625 C-9.65151282 8.89264802 -9.55974618 6.3948898 -6.7109375 2.4765625 C-2.99646345 -0.06041257 -2.99646345 -0.06041257 0 0 Z " fill="#D0D5F9" transform="translate(79,342.375)"/>
<path d="M0 0 C0.639375 -0.01289063 1.27875 -0.02578125 1.9375 -0.0390625 C5.44540687 1.09037721 6.82370363 2.65630854 9 5.625 C9.70622958 9.14269591 9.65350118 12.5488997 9.5625 16.125 C9.57345703 17.06214844 9.58441406 17.99929688 9.59570312 18.96484375 C9.54910446 23.34511799 9.4283068 25.93130065 7.08984375 29.71875 C4.3775375 32.19277888 3.39232303 32.58058607 -0.3125 33 C-4 32.625 -4 32.625 -6.69140625 30.7890625 C-10.06118378 26.17058569 -9.7344748 22.20091667 -9.625 16.625 C-9.64433594 15.64015625 -9.66367187 14.6553125 -9.68359375 13.640625 C-9.65151282 8.89264802 -9.55974618 6.3948898 -6.7109375 2.4765625 C-2.99646345 -0.06041257 -2.99646345 -0.06041257 0 0 Z " fill="#CFD4F9" transform="translate(348,342.375)"/>
<path d="M0 0 C0.639375 -0.01289063 1.27875 -0.02578125 1.9375 -0.0390625 C5.47179157 1.09887229 6.81852718 2.61568622 9 5.625 C9.70961657 9.32852269 9.65311914 12.92803035 9.5625 16.6875 C9.57345703 17.68072266 9.58441406 18.67394531 9.59570312 19.69726562 C9.52287226 26.90752088 9.52287226 26.90752088 7.08984375 30.24609375 C3.50294149 32.61277879 1.33289892 33.04979401 -3 32.625 C-5.69990662 30.82506226 -7.5418865 29.541227 -9 26.625 C-9.31877503 23.19473857 -9.32426215 19.75575474 -9.375 16.3125 C-9.41238281 15.36181641 -9.44976562 14.41113281 -9.48828125 13.43164062 C-9.54737451 8.73372645 -9.55341209 6.38665478 -6.7265625 2.49609375 C-3.00107947 -0.06050563 -3.00107947 -0.06050563 0 0 Z " fill="#CFD5F9" transform="translate(189,342.375)"/>
<path d="M0 0 C0.639375 -0.01289063 1.27875 -0.02578125 1.9375 -0.0390625 C5.44540687 1.09037721 6.82370363 2.65630854 9 5.625 C9.70622958 9.14269591 9.65350118 12.5488997 9.5625 16.125 C9.57345703 17.06214844 9.58441406 17.99929688 9.59570312 18.96484375 C9.54910446 23.34511799 9.4283068 25.93130065 7.08984375 29.71875 C4.52669801 32.05672219 3.60319921 32.58566092 0.125 32.8125 C-2.94628429 32.62822294 -4.48618314 32.3308043 -7 30.625 C-9.96386596 26.17920106 -9.40719581 21.98252419 -9.4375 16.75 C-9.47037109 15.75613281 -9.50324219 14.76226562 -9.53710938 13.73828125 C-9.57237885 8.94804534 -9.5863728 6.43767448 -6.72265625 2.46875 C-2.98810363 -0.06024402 -2.98810363 -0.06024402 0 0 Z " fill="#CCD2FA" transform="translate(434,342.375)"/>
<path d="M0 0 C0.639375 -0.01289063 1.27875 -0.02578125 1.9375 -0.0390625 C5.46568214 1.09690523 6.816232 2.62650425 9 5.625 C9.75962372 9.30590664 9.74390585 12.8776895 9.6875 16.625 C9.71521484 17.60984375 9.74292969 18.5946875 9.77148438 19.609375 C9.7479297 26.58156012 9.7479297 26.58156012 7.72338867 29.40600586 C5.22318231 31.58297984 3.19442962 32.58928844 -0.0625 33.1875 C-3.67781108 32.49520639 -5.38108416 31.16908967 -8 28.625 C-9.87181618 24.88136763 -9.31428147 20.43307994 -9.375 16.3125 C-9.41238281 15.36181641 -9.44976562 14.41113281 -9.48828125 13.43164062 C-9.54737451 8.73372645 -9.55341209 6.38665478 -6.7265625 2.49609375 C-3.00107947 -0.06050563 -3.00107947 -0.06050563 0 0 Z " fill="#CFD4F9" transform="translate(458,342.375)"/>
<path d="M0 0 C0.639375 -0.00128906 1.27875 -0.00257813 1.9375 -0.00390625 C5.317911 0.92442632 6.69207346 1.85216575 9 4.5625 C9.73278008 8.4051367 9.65145814 12.16276767 9.5625 16.0625 C9.57345703 17.10792969 9.58441406 18.15335937 9.59570312 19.23046875 C9.52163589 26.94333653 9.52163589 26.94333653 7.08959961 29.83007812 C4.57239167 31.91701673 3.45569643 32.51186706 0.1875 32.875 C-3.74932188 32.48903707 -5.23396679 31.32853321 -8 28.5625 C-9.42630596 24.28358211 -9.3048437 20.17112537 -9.375 15.6875 C-9.41238281 14.78902344 -9.44976562 13.89054687 -9.48828125 12.96484375 C-9.54906223 8.39276326 -9.50146912 6.24577322 -6.7265625 2.46484375 C-3.04424311 -0.10433898 -3.04424311 -0.10433898 0 0 Z " fill="#D2D7FC" transform="translate(385,342.4375)"/>
<path d="M0 0 C0.639375 -0.01289063 1.27875 -0.02578125 1.9375 -0.0390625 C5.46568214 1.09690523 6.816232 2.62650425 9 5.625 C9.75962372 9.30590664 9.74390585 12.8776895 9.6875 16.625 C9.71521484 17.60984375 9.74292969 18.5946875 9.77148438 19.609375 C9.7479297 26.58156012 9.7479297 26.58156012 7.72338867 29.40600586 C5.22318231 31.58297984 3.19442962 32.58928844 -0.0625 33.1875 C-3.67781108 32.49520639 -5.38108416 31.16908967 -8 28.625 C-9.87181618 24.88136763 -9.31428147 20.43307994 -9.375 16.3125 C-9.41238281 15.36181641 -9.44976562 14.41113281 -9.48828125 13.43164062 C-9.54737451 8.73372645 -9.55341209 6.38665478 -6.7265625 2.49609375 C-3.00107947 -0.06050563 -3.00107947 -0.06050563 0 0 Z " fill="#CFD5F9" transform="translate(275,342.375)"/>
<path d="M0 0 C4.6875 3.515625 4.6875 3.515625 6 5 C6 6.32 6 7.64 6 9 C-0.6 9 -7.2 9 -14 9 C-14.66 10.32 -15.32 11.64 -16 13 C-17.30078125 14.73828125 -17.30078125 14.73828125 -19 16 C-21.48046875 16.29296875 -21.48046875 16.29296875 -24.1875 16.1875 C-25.775625 16.125625 -27.36375 16.06375 -29 16 C-29.33 12.37 -29.66 8.74 -30 5 C-31.66342837 6.66342837 -31.36048097 8.7825709 -31.5625 11.0625 C-31.64628906 11.98160156 -31.73007813 12.90070313 -31.81640625 13.84765625 C-31.90728516 14.91306641 -31.90728516 14.91306641 -32 16 C-39.69230769 16.92307692 -39.69230769 16.92307692 -42.79296875 14.734375 C-43.79573857 13.67231545 -44.77099041 12.58349601 -45.71484375 11.46875 C-47.2543147 9.70935463 -48.82821128 8.83530335 -51 8 C-44.47059106 5.04328652 -39.12600133 4.64631979 -32 5 C-31.67 3.68 -31.34 2.36 -31 1 C-30.34 1 -29.68 1 -29 1 C-29 1.99 -29 2.98 -29 4 C-27.82824219 3.855625 -26.65648437 3.71125 -25.44921875 3.5625 C-16.93705392 2.54582457 -8.59053275 1.65940619 0 2 C0 1.34 0 0.68 0 0 Z " fill="#FDD673" transform="translate(113,240)"/>
<path d="M0 0 C0.92683594 0.02707031 1.85367188 0.05414063 2.80859375 0.08203125 C5.08173992 0.15233474 7.35367927 0.25994248 9.625 0.375 C9.625 5.655 9.625 10.935 9.625 16.375 C1.045 16.375 -7.535 16.375 -16.375 16.375 C-16.375 6.375 -16.375 6.375 -14.0234375 2.7734375 C-9.81255337 -0.74429698 -5.2285385 -0.29088873 0 0 Z " fill="#FDA62B" transform="translate(110.375,250.625)"/>
<path d="M0 0 C0 5.61 0 11.22 0 17 C-3.21196944 16.99397379 -6.41436854 16.9464466 -9.625 16.875 C-10.52863281 16.87757813 -11.43226562 16.88015625 -12.36328125 16.8828125 C-16.82976677 16.75240416 -20.16373393 16.47626369 -23.6484375 13.5078125 C-26.53658004 10.14972105 -26.50776507 7.04061034 -26.2109375 2.7578125 C-26.14132813 2.17773438 -26.07171875 1.59765625 -26 1 C-21.85417952 0.83301248 -17.70834155 0.66646352 -13.5625 0.5 C-12.37849609 0.45230469 -11.19449219 0.40460938 -9.97460938 0.35546875 C-8.84990234 0.31035156 -7.72519531 0.26523437 -6.56640625 0.21875 C-5.00321655 0.1559082 -5.00321655 0.1559082 -3.40844727 0.09179688 C-1 0 -1 0 0 0 Z " fill="#FE9C1D" transform="translate(120,268)"/>
<path d="M0 0 C6.27 0 12.54 0 19 0 C19 5.94 19 11.88 19 18 C12.73 18 6.46 18 0 18 C0 12.06 0 6.12 0 0 Z " fill="#FDBB45" transform="translate(73,259)"/>
<path d="M0 0 C1.65 0 3.3 0 5 0 C5.63648972 1.30696675 6.25839861 2.62103353 6.875 3.9375 C7.22304688 4.66839844 7.57109375 5.39929688 7.9296875 6.15234375 C10.5916852 13.23481208 11.38893631 20.22072252 11.375 27.75 C11.37411377 28.61890869 11.37322754 29.48781738 11.37231445 30.38305664 C11.19978359 39.84072566 9.10973003 47.93277579 4 56 C2.68 55.67 1.36 55.34 0 55 C0.42266252 51.0269723 1.07648769 47.65110263 2.515625 43.921875 C4.30480877 38.64925777 4.49525587 33.72003113 4.4375 28.1875 C4.43427734 27.22207275 4.43105469 26.25664551 4.42773438 25.26196289 C4.29982065 18.70693573 3.49453152 13.38841479 0.875 7.33984375 C-0.09495014 4.74609314 -0.15666219 2.74648406 0 0 Z " fill="#CBD1FA" transform="translate(456,240)"/>
<path d="M0 0 C6.93 0 13.86 0 21 0 C21 10 21 10 18.984375 13.08203125 C15.36644562 15.40716649 12.42778465 15.7076242 8.25 15.6875 C5.8127217 15.71733486 3.43455385 15.81889295 1 16 C0.67 16.66 0.34 17.32 0 18 C0.66 18.33 1.32 18.66 2 19 C1.01 21.475 1.01 21.475 0 24 C-0.99 23.67 -1.98 23.34 -3 23 C-2.34 22.67 -1.68 22.34 -1 22 C-1.185625 21.030625 -1.37125 20.06125 -1.5625 19.0625 C-1.706875 18.051875 -1.85125 17.04125 -2 16 C-1.67 15.67 -1.34 15.34 -1 15 C-0.76328017 12.47206606 -0.5785675 9.97065034 -0.4375 7.4375 C-0.293125 4.983125 -0.14875 2.52875 0 0 Z " fill="#FECD5C" transform="translate(50,269)"/>
<path d="M0 0 C0.495 1.98 0.495 1.98 1 4 C0.13048706 4.00616333 0.13048706 4.00616333 -0.7565918 4.01245117 C-3.40124109 4.04549277 -6.04361839 4.11614264 -8.6875 4.1875 C-9.59951172 4.19330078 -10.51152344 4.19910156 -11.45117188 4.20507812 C-15.76614238 4.34629534 -18.36712078 4.60455075 -22.08203125 6.92578125 C-24.82650957 10.82017718 -24.82650957 10.82017718 -25 20 C-16.42 20 -7.84 20 1 20 C0.67 20.66 0.34 21.32 0 22 C-8.25 22 -16.5 22 -25 22 C-24.75399966 30.32723682 -24.75399966 30.32723682 -22.05078125 34.01171875 C-17.78087309 36.79453982 -14.18783176 36.77894073 -9.1875 36.8125 C-8.30384766 36.83763672 -7.42019531 36.86277344 -6.50976562 36.88867188 C-4.34031866 36.94730558 -2.17011273 36.97657386 0 37 C0.495 38.98 0.495 38.98 1 41 C0.01 40.505 0.01 40.505 -1 40 C-3.07405789 40.07921025 -5.14808673 40.16180524 -7.22094727 40.26782227 C-17.83434888 40.72900046 -17.83434888 40.72900046 -21.4296875 38.48046875 C-23.0625 36.5625 -23.0625 36.5625 -24.4765625 34.625 C-26.97118014 31.96407452 -29.78171257 32.10687915 -33.27734375 31.97265625 C-34.13005859 31.98619141 -34.13005859 31.98619141 -35 32 C-34.97679688 32.84304688 -34.95359375 33.68609375 -34.9296875 34.5546875 C-34.90261719 36.19824219 -34.90261719 36.19824219 -34.875 37.875 C-34.85179688 38.96554687 -34.82859375 40.05609375 -34.8046875 41.1796875 C-35 44 -35 44 -37 46 C-37 41.38 -37 36.76 -37 32 C-39.64 32 -42.28 32 -45 32 C-45 31.67 -45 31.34 -45 31 C-38.95210034 29.92481784 -33.14252407 29.92416637 -27 30 C-27 23.73 -27 17.46 -27 11 C-31.95 11 -36.9 11 -42 11 C-42 10.67 -42 10.34 -42 10 C-40.35 10 -38.7 10 -37 10 C-37 7.03 -37 4.06 -37 1 C-36.67 1 -36.34 1 -36 1 C-36 3.97 -36 6.94 -36 10 C-34.45834009 10.02132731 -32.91592104 9.98977313 -31.375 9.9375 C-30.51648438 9.92589844 -29.65796875 9.91429687 -28.7734375 9.90234375 C-25.57386817 8.86135711 -25.20535676 8.11546163 -23.3125 5.46875 C-21.47062437 3.1424985 -20.5630647 2.13757692 -17.65087891 1.42602539 C-14.94569676 1.31248765 -12.32661589 1.38714547 -9.625 1.5625 C-8.69816406 1.59408203 -7.77132812 1.62566406 -6.81640625 1.65820312 C-4.54095763 1.74030694 -2.27216254 1.85500225 0 2 C0 1.34 0 0.68 0 0 Z " fill="#C9782A" transform="translate(119,247)"/>
<path d="M0 0 C2.25 0 2.25 0 5 1 C11.15725103 9.36968699 11.77510096 20.01763915 11 30 C9.90475326 35.89632833 8.32067725 41.95257058 5 47 C2.875 47.9375 2.875 47.9375 1 48 C0.67 47.67 0.34 47.34 0 47 C0.3341761 42.9898868 1.07267305 39.72809776 2.5625 36 C5.82993357 26.52120757 4.93035054 16.40723975 0.875 7.3671875 C-0.08839457 4.76086112 -0.1569358 2.75618503 0 0 Z " fill="#D1D6FB" transform="translate(443,244)"/>
<path d="M0 0 C11.9632107 -0.88494983 11.9632107 -0.88494983 16.265625 0.984375 C18.96079603 3.31321211 19.87936409 5.0787803 20.34375 8.625 C20.375 11.375 20.375 11.375 20 16 C13.73 16 7.46 16 1 16 C1.03255208 12.41927083 1.06510417 8.83854167 1.09765625 5.2578125 C1.23176569 2.11335348 1.23176569 2.11335348 0 0 Z " fill="#FED666" transform="translate(51,251)"/>
<path d="M0 0 C1.77206192 0.00015919 3.54412846 0.00585754 5.31616211 0.01586914 C6.24698105 0.01728409 7.17779999 0.01869904 8.13682556 0.02015686 C11.12241777 0.02577367 14.10793615 0.03832899 17.09350586 0.05102539 C19.11238499 0.05603823 21.13126529 0.06060151 23.15014648 0.06469727 C28.11046158 0.07574856 33.07072118 0.09302444 38.03100586 0.11352539 C38.41319353 1.76967196 38.74495688 3.43809563 39.03100586 5.11352539 C38.03100586 6.11352539 38.03100586 6.11352539 34.06201172 6.22705078 C32.28994979 6.22689159 30.51788326 6.22119324 28.74584961 6.21118164 C27.81503067 6.20976669 26.88421173 6.20835175 25.92518616 6.20689392 C22.93959395 6.20127711 19.95407557 6.18872179 16.96850586 6.17602539 C14.94962673 6.17101255 12.93074643 6.16644927 10.91186523 6.16235352 C5.95155014 6.15130222 0.99129054 6.13402634 -3.96899414 6.11352539 C-4.35118181 4.45737882 -4.68294516 2.78895515 -4.96899414 1.11352539 C-3.96899414 0.11352539 -3.96899414 0.11352539 0 0 Z " fill="#D4DAFA" transform="translate(427.968994140625,419.886474609375)"/>
<path d="M0 0 C13.86 0 27.72 0 42 0 C42.495 2.475 42.495 2.475 43 5 C40.85818355 7.14181645 35.97422074 6.16423544 33.00390625 6.16796875 C31.64808693 6.17296135 31.64808693 6.17296135 30.26487732 6.17805481 C28.34903473 6.18312796 26.43318328 6.18546302 24.51733398 6.18530273 C21.57846582 6.18748813 18.63997348 6.20563665 15.70117188 6.22460938 C13.84375129 6.22754337 11.98632891 6.22952813 10.12890625 6.23046875 C9.24554092 6.23765427 8.3621756 6.24483978 7.45204163 6.25224304 C1.22882139 6.22882139 1.22882139 6.22882139 -1 4 C-0.67 2.68 -0.34 1.36 0 0 Z " fill="#D5DAFB" transform="translate(366,420)"/>
<path d="M0 0 C1.32 0 2.64 0 4 0 C4.82113177 1.39077301 5.63152495 2.78788893 6.4375 4.1875 C7.11619141 5.35345703 7.11619141 5.35345703 7.80859375 6.54296875 C11.16380945 13.4624136 11.16022563 22.64053836 9.2109375 29.96484375 C7.69402229 33.90766535 6.36115546 37.29532021 3 40 C0.8125 39.6875 0.8125 39.6875 -1 39 C-0.55643725 35.451498 0.13745762 32.68109831 1.5625 29.375 C3.82940774 23.51695129 4.39912466 16.53861946 2.0625 10.62890625 C1.34061216 9.30293865 0.59618782 7.98885602 -0.17578125 6.69140625 C-1 5 -1 5 -0.75 2 C-0.5025 1.34 -0.255 0.68 0 0 Z " fill="#D4D9F9" transform="translate(431,248)"/>
<path d="M0 0 C0.66 0.33 1.32 0.66 2 1 C2 4.63 2 8.26 2 12 C4.97 12 7.94 12 11 12 C11 12.33 11 12.66 11 13 C7.37 13 3.74 13 0 13 C3.3 13.33 6.6 13.66 10 14 C10 14.33 10 14.66 10 15 C3.73 15 -2.54 15 -9 15 C-9 20.94 -9 26.88 -9 33 C-6.36 33 -3.72 33 -1 33 C-1 33.33 -1 33.66 -1 34 C-1.62648438 34.02578125 -2.25296875 34.0515625 -2.8984375 34.078125 C-4.12433594 34.16320312 -4.12433594 34.16320312 -5.375 34.25 C-6.18710938 34.29640625 -6.99921875 34.3428125 -7.8359375 34.390625 C-10.15572593 34.7752541 -10.15572593 34.7752541 -11.1015625 36.859375 C-11.39804688 37.56578125 -11.69453125 38.2721875 -12 39 C-13.14453125 40.73828125 -13.14453125 40.73828125 -15 42 C-17.64996326 42.2172101 -20.05076558 42.28351554 -22.6875 42.1875 C-23.38939453 42.17396484 -24.09128906 42.16042969 -24.81445312 42.14648438 C-26.54329829 42.11120182 -28.27174765 42.05739583 -30 42 C-30 41.67 -30 41.34 -30 41 C-29.11957031 40.98582031 -28.23914062 40.97164063 -27.33203125 40.95703125 C-20.20950138 40.73188622 -20.20950138 40.73188622 -13.75 38.0625 C-11.22747311 34.13066619 -11.22747311 34.13066619 -11 25 C-17.93 25 -24.86 25 -32 25 C-32 24.34 -32 23.68 -32 23 C-25.07 23 -18.14 23 -11 23 C-11.1246694 13.77346731 -11.1246694 13.77346731 -14.07421875 9.92578125 C-17.6606286 7.56516702 -20.63945199 7.22344013 -24.8125 7.1875 C-25.85180664 7.14979492 -25.85180664 7.14979492 -26.91210938 7.11132812 C-28.60747122 7.05286737 -30.30379287 7.02346953 -32 7 C-31.67 6.34 -31.34 5.68 -31 5 C-17.44322208 4.06861831 -17.44322208 4.06861831 -13.984375 6.30078125 C-13.09303437 7.37397586 -12.23182024 8.4730814 -11.40625 9.59765625 C-8.67367475 12.32264101 -4.67485196 11.98366732 -1 12 C-1.01160156 11.30132812 -1.02320312 10.60265625 -1.03515625 9.8828125 C-1.04417969 8.97273437 -1.05320312 8.06265625 -1.0625 7.125 C-1.07410156 6.22007812 -1.08570312 5.31515625 -1.09765625 4.3828125 C-1 2 -1 2 0 0 Z " fill="#D99039" transform="translate(82,244)"/>
<path d="M0 0 C1.33332095 2.6666419 0.67102033 4.16680303 0 7 C-0.969375 6.979375 -1.93875 6.95875 -2.9375 6.9375 C-5.87465895 6.64381501 -5.87465895 6.64381501 -7 8 C-7.07319621 10.69654854 -7.09242537 13.36691458 -7.0625 16.0625 C-7.05798828 16.82111328 -7.05347656 17.57972656 -7.04882812 18.36132812 C-7.0370068 20.24091871 -7.01907078 22.12046899 -7 24 C-3.41672247 25.00217064 -3.41672247 25.00217064 0 24 C0.33 26.31 0.66 28.62 1 31 C-1.7798816 32.3899408 -3.9186326 32.18488204 -7 32 C-10.34265205 30.79293121 -10.94704566 30.07943151 -13 27 C-13.48479151 23.39129699 -13.41643159 19.76281268 -13.4375 16.125 C-13.47037109 15.13113281 -13.50324219 14.13726562 -13.53710938 13.11328125 C-13.57232902 8.3298136 -13.5727511 5.80561703 -10.7421875 1.82421875 C-6.73314603 -0.84276468 -4.69502821 -0.39788375 0 0 Z " fill="#D4D9FC" transform="translate(438,343)"/>
<path d="M0 0 C1.67542976 0.28604898 3.34385343 0.61781233 5 1 C5.495 3.475 5.495 3.475 6 6 C-0.6 6 -7.2 6 -14 6 C-14.66 7.32 -15.32 8.64 -16 10 C-17.30078125 11.73828125 -17.30078125 11.73828125 -19 13 C-21.48046875 13.29296875 -21.48046875 13.29296875 -24.1875 13.1875 C-25.775625 13.125625 -27.36375 13.06375 -29 13 C-29 9.7 -29 6.4 -29 3 C-28.15703369 2.94465088 -27.31406738 2.88930176 -26.44555664 2.83227539 C-23.32745699 2.6253495 -20.2096715 2.41430883 -17.09204102 2.20043945 C-15.74091591 2.1086091 -14.38967719 2.01843502 -13.03833008 1.92993164 C-11.09948332 1.80266594 -9.16105931 1.66901017 -7.22265625 1.53515625 C-6.05484619 1.456604 -4.88703613 1.37805176 -3.68383789 1.29711914 C-1.08395465 1.29229027 -1.08395465 1.29229027 0 0 Z " fill="#FEC351" transform="translate(113,243)"/>
<path d="M0 0 C0.72317505 1.73539734 0.72317505 1.73539734 1 4 C-0.40261841 6.04426575 -0.40261841 6.04426575 -2.57080078 8.23364258 C-3.77798264 9.46930717 -3.77798264 9.46930717 -5.009552 10.72993469 C-6.33900345 12.04890999 -6.33900345 12.04890999 -7.6953125 13.39453125 C-8.59490692 14.30128098 -9.49450134 15.2080307 -10.4213562 16.14225769 C-12.33062163 18.05932063 -14.24429397 19.97035132 -16.16699219 21.8737793 C-18.63070189 24.31461192 -21.06873149 26.77939115 -23.50032234 29.25217152 C-25.82195236 31.60552042 -28.16592956 33.93636228 -30.5078125 36.26953125 C-31.38196808 37.15896927 -32.25612366 38.04840729 -33.1567688 38.96479797 C-33.98046967 39.77281357 -34.80417053 40.58082916 -35.65283203 41.41333008 C-36.37310577 42.13184647 -37.09337952 42.85036285 -37.83547974 43.59065247 C-40 45 -40 45 -42.62147522 44.8460083 C-45.8280424 43.70547679 -47.49280985 41.9589886 -49.86328125 39.52734375 C-50.74951172 38.62822266 -51.63574219 37.72910156 -52.54882812 36.80273438 C-53.9168457 35.38444336 -53.9168457 35.38444336 -55.3125 33.9375 C-56.25232276 32.97760179 -57.19306889 32.01860671 -58.13476562 31.06054688 C-60.43242024 28.71576088 -62.7202276 26.36215473 -65 24 C-64.67 23.34 -64.34 22.68 -64 22 C-63.17592651 22.87120483 -63.17592651 22.87120483 -62.33520508 23.76000977 C-59.84337023 26.37637068 -57.32852265 28.96940007 -54.8125 31.5625 C-53.94818359 32.47708984 -53.08386719 33.39167969 -52.19335938 34.33398438 C-51.35224609 35.19443359 -50.51113281 36.05488281 -49.64453125 36.94140625 C-48.87471924 37.74263916 -48.10490723 38.54387207 -47.31176758 39.36938477 C-45.14096988 41.21343388 -45.14096988 41.21343388 -42.578125 41.09985352 C-39.0384008 39.58977231 -36.72034762 37.19591238 -34.10546875 34.4609375 C-33.27889519 33.62231674 -33.27889519 33.62231674 -32.43562317 32.76675415 C-30.67653009 30.97873072 -28.93158093 29.17765891 -27.1875 27.375 C-24.89358646 25.02445057 -22.59409533 22.67942387 -20.29296875 20.3359375 C-19.74184418 19.77272293 -19.1907196 19.20950836 -18.62289429 18.62922668 C-15.10274931 15.05233299 -11.49450139 11.65137545 -7.62817383 8.44555664 C-4.76280422 5.90156902 -2.41932595 2.96367428 0 0 Z " fill="#58966C" transform="translate(289,110)"/>
<path d="M0 0 C1.02158203 0.00322266 2.04316406 0.00644531 3.09570312 0.00976562 C4.15080078 0.01814453 5.20589844 0.02652344 6.29296875 0.03515625 C7.36740234 0.03966797 8.44183594 0.04417969 9.54882812 0.04882812 C12.19276558 0.06057896 14.83658827 0.07700838 17.48046875 0.09765625 C17.15046875 1.41765625 16.82046875 2.73765625 16.48046875 4.09765625 C15.77921875 4.13503906 15.07796875 4.17242187 14.35546875 4.2109375 C7.75551624 4.66286406 7.75551624 4.66286406 1.48046875 6.59765625 C-3.34473272 8.65841938 -8.33098712 8.82106107 -13.51953125 9.09765625 C-12.52953125 10.58265625 -12.52953125 10.58265625 -11.51953125 12.09765625 C-11.54296875 15.453125 -11.54296875 15.453125 -11.89453125 19.28515625 C-12.06082031 21.19361328 -12.06082031 21.19361328 -12.23046875 23.140625 C-12.32585938 24.11644531 -12.42125 25.09226562 -12.51953125 26.09765625 C-13.17953125 26.09765625 -13.83953125 26.09765625 -14.51953125 26.09765625 C-14.51953125 21.14765625 -14.51953125 16.19765625 -14.51953125 11.09765625 C-15.50953125 11.09765625 -16.49953125 11.09765625 -17.51953125 11.09765625 C-17.51953125 10.10765625 -17.51953125 9.11765625 -17.51953125 8.09765625 C-16.85953125 8.09765625 -16.19953125 8.09765625 -15.51953125 8.09765625 C-15.43703125 7.49953125 -15.35453125 6.90140625 -15.26953125 6.28515625 C-14.28135279 3.40296906 -13.13090001 2.62095469 -10.51953125 1.09765625 C-6.96278693 0.20534956 -3.65894298 -0.02044102 0 0 Z " fill="#FEE687" transform="translate(64.51953125,240.90234375)"/>
<path d="M0 0 C3.44001921 0.568351 5.02505169 1.57556719 7.25 4.25 C11.15609886 9.77618567 11.08488384 15.49069699 10 22 C8.81477154 25.17988124 7.45347001 27.63936399 5 30 C2.1875 31 2.1875 31 0 31 C-0.75 29.375 -0.75 29.375 -1 27 C-0.360625 26.13375 0.27875 25.2675 0.9375 24.375 C3.69418459 19.86406158 3.88617135 16.17355274 3 11 C1.7295036 8.95950578 0.40568804 6.94982535 -1 5 C-0.75 2.125 -0.75 2.125 0 0 Z " fill="#D9DEF8" transform="translate(418,252)"/>
<path d="M0 0 C3.23356015 1.21258505 4.00856305 2.01284458 6 5 C6.45694847 8.44285712 6.37031082 11.90501023 6.375 15.375 C6.41173828 16.79425781 6.41173828 16.79425781 6.44921875 18.2421875 C6.46783556 22.66057778 6.44272318 25.26794528 4.1171875 29.11328125 C1.99178851 31.00731762 0.80240301 31.69974253 -2 32 C-2.04241723 29.66705225 -2.04092937 27.33297433 -2 25 C-1.67 24.67 -1.34 24.34 -1 24 C-0.84677256 21.17413249 -0.76837245 18.38956118 -0.75 15.5625 C-0.729375 14.77294922 -0.70875 13.98339844 -0.6875 13.16992188 C-0.63526414 10.61061392 -0.63526414 10.61061392 -1 7 C-1.99 6.34 -2.98 5.68 -4 5 C-3.34 5 -2.68 5 -2 5 C-2 3.68 -2 2.36 -2 1 C-1.34 0.67 -0.68 0.34 0 0 Z " fill="#D0D6FB" transform="translate(58,343)"/>
<path d="M0 0 C3.16115776 1.36983503 3.9927092 1.9890638 6 5 C6.42918667 8.27707868 6.32424322 11.57280549 6.3125 14.875 C6.32861328 15.77347656 6.34472656 16.67195313 6.36132812 17.59765625 C6.36496668 22.52426224 6.28328726 26.04260787 3 30 C0.8125 31.3125 0.8125 31.3125 -1 32 C-1.33 29.69 -1.66 27.38 -2 25 C-1.34 25 -0.68 25 0 25 C-0.08670137 22.04019468 -0.19353023 19.08353131 -0.3125 16.125 C-0.33505859 15.28324219 -0.35761719 14.44148438 -0.38085938 13.57421875 C-0.41630859 12.76855469 -0.45175781 11.96289062 -0.48828125 11.1328125 C-0.51446533 10.38918457 -0.54064941 9.64555664 -0.56762695 8.87939453 C-0.86729591 6.59266174 -0.86729591 6.59266174 -4 5 C-3.01 5 -2.02 5 -1 5 C-0.67 3.35 -0.34 1.7 0 0 Z " fill="#CFD5FB" transform="translate(241,343)"/>
<path d="M0 0 C1.2065625 0.0309375 1.2065625 0.0309375 2.4375 0.0625 C4.01727708 3.22205417 3.62197084 6.59713817 3.625 10.0625 C3.63724609 10.79984375 3.64949219 11.5371875 3.66210938 12.296875 C3.66737395 14.22020058 3.55953447 16.14304263 3.4375 18.0625 C2.7775 18.7225 2.1175 19.3825 1.4375 20.0625 C-1.1875 19.6875 -1.1875 19.6875 -3.5625 19.0625 C-3.58933987 16.08327407 -3.60926037 13.10428705 -3.625 10.125 C-3.63337891 9.27486328 -3.64175781 8.42472656 -3.65039062 7.54882812 C-3.65361328 6.73994141 -3.65683594 5.93105469 -3.66015625 5.09765625 C-3.66539307 4.3487915 -3.67062988 3.59992676 -3.67602539 2.82836914 C-3.49028527 -0.06078847 -2.89596652 0.07063333 0 0 Z " fill="#63678C" transform="translate(385.5625,348.9375)"/>
<path d="M0 0 C2.5 0.125 2.5 0.125 3.5 1.125 C3.62663091 3.94916382 3.68520548 6.73794793 3.6875 9.5625 C3.69974609 10.35205078 3.71199219 11.14160156 3.72460938 11.95507812 C3.72987279 14.01307435 3.62206285 16.07062009 3.5 18.125 C2.84 18.785 2.18 19.445 1.5 20.125 C0.18 20.125 -1.14 20.125 -2.5 20.125 C-4.14838944 16.82822112 -3.64272738 13.18183956 -3.625 9.5625 C-3.62886719 8.76908203 -3.63273437 7.97566406 -3.63671875 7.15820312 C-3.6248025 0.18124013 -3.6248025 0.18124013 0 0 Z " fill="#616486" transform="translate(299.5,348.875)"/>
<path d="M0 0 C2.5 0.125 2.5 0.125 3.5 1.125 C3.58631874 2.46767413 3.60706473 3.81474322 3.59765625 5.16015625 C3.59282227 6.37348633 3.59282227 6.37348633 3.58789062 7.61132812 C3.57951172 8.46146484 3.57113281 9.31160156 3.5625 10.1875 C3.55798828 11.04150391 3.55347656 11.89550781 3.54882812 12.77539062 C3.53700373 14.89195663 3.51906769 17.00848685 3.5 19.125 C1.125 19.75 1.125 19.75 -1.5 20.125 C-3.5 18.125 -3.5 18.125 -3.73046875 14.24609375 C-3.72647576 12.68483524 -3.71171261 11.12357586 -3.6875 9.5625 C-3.68685547 8.76908203 -3.68621094 7.97566406 -3.68554688 7.15820312 C-3.6319265 0.18159632 -3.6319265 0.18159632 0 0 Z " fill="#67698C" transform="translate(237.5,348.875)"/>
<path d="M0 0 C1.2065625 0.0309375 1.2065625 0.0309375 2.4375 0.0625 C4.01727708 3.22205417 3.62197084 6.59713817 3.625 10.0625 C3.63724609 10.79984375 3.64949219 11.5371875 3.66210938 12.296875 C3.66737395 14.22020058 3.55953447 16.14304263 3.4375 18.0625 C2.7775 18.7225 2.1175 19.3825 1.4375 20.0625 C-1.1875 19.6875 -1.1875 19.6875 -3.5625 19.0625 C-3.58933987 16.08327407 -3.60926037 13.10428705 -3.625 10.125 C-3.63337891 9.27486328 -3.64175781 8.42472656 -3.65039062 7.54882812 C-3.65361328 6.73994141 -3.65683594 5.93105469 -3.66015625 5.09765625 C-3.66539307 4.3487915 -3.67062988 3.59992676 -3.67602539 2.82836914 C-3.49028527 -0.06078847 -2.89596652 0.07063333 0 0 Z " fill="#727497" transform="translate(103.5625,348.9375)"/>
<path d="M0 0 C1.65 0.33 3.3 0.66 5 1 C5 6.94 5 12.88 5 19 C3.35 19.33 1.7 19.66 0 20 C-2.55948999 17.44051001 -2.26068731 15.72792805 -2.2734375 12.234375 C-2.26570313 11.49703125 -2.25796875 10.7596875 -2.25 10 C-2.25773437 9.26265625 -2.26546875 8.5253125 -2.2734375 7.765625 C-2.2533196 2.2533196 -2.2533196 2.2533196 0 0 Z " fill="#5F6388" transform="translate(432,349)"/>
<path d="M0 0 C2.5 0.125 2.5 0.125 3.5 1.125 C3.62663091 3.94916382 3.68520548 6.73794793 3.6875 9.5625 C3.69974609 10.35205078 3.71199219 11.14160156 3.72460938 11.95507812 C3.72987279 14.01307435 3.62206285 16.07062009 3.5 18.125 C2.84 18.785 2.18 19.445 1.5 20.125 C-2.03571429 19.58928571 -2.03571429 19.58928571 -3.5 18.125 C-3.59986975 15.28164952 -3.63877881 12.46802837 -3.625 9.625 C-3.62886719 8.82707031 -3.63273437 8.02914063 -3.63671875 7.20703125 C-3.62479041 0.18123952 -3.62479041 0.18123952 0 0 Z " fill="#5F6388" transform="translate(409.5,348.875)"/>
<path d="M0 0 C2.5 0.125 2.5 0.125 3.5 1.125 C3.62663091 3.94916382 3.68520548 6.73794793 3.6875 9.5625 C3.69974609 10.35205078 3.71199219 11.14160156 3.72460938 11.95507812 C3.72987279 14.01307435 3.62206285 16.07062009 3.5 18.125 C2.84 18.785 2.18 19.445 1.5 20.125 C-2.03571429 19.58928571 -2.03571429 19.58928571 -3.5 18.125 C-3.59986975 15.28164952 -3.63877881 12.46802837 -3.625 9.625 C-3.62886719 8.82707031 -3.63273437 8.02914063 -3.63671875 7.20703125 C-3.62479041 0.18123952 -3.62479041 0.18123952 0 0 Z " fill="#5E6183" transform="translate(323.5,348.875)"/>
<path d="M0 0 C2.5 0.125 2.5 0.125 3.5 1.125 C3.62663091 3.94916382 3.68520548 6.73794793 3.6875 9.5625 C3.69974609 10.35205078 3.71199219 11.14160156 3.72460938 11.95507812 C3.72987279 14.01307435 3.62206285 16.07062009 3.5 18.125 C2.84 18.785 2.18 19.445 1.5 20.125 C-2.03571429 19.58928571 -2.03571429 19.58928571 -3.5 18.125 C-3.59986975 15.28164952 -3.63877881 12.46802837 -3.625 9.625 C-3.62886719 8.82707031 -3.63273438 8.02914063 -3.63671875 7.20703125 C-3.62479041 0.18123952 -3.62479041 0.18123952 0 0 Z " fill="#676A8C" transform="translate(213.5,348.875)"/>
<path d="M0 0 C2.5 0.125 2.5 0.125 3.5 1.125 C3.62663091 3.94916382 3.68520548 6.73794793 3.6875 9.5625 C3.69974609 10.35205078 3.71199219 11.14160156 3.72460938 11.95507812 C3.72987279 14.01307435 3.62206285 16.07062009 3.5 18.125 C2.84 18.785 2.18 19.445 1.5 20.125 C-2.03571429 19.58928571 -2.03571429 19.58928571 -3.5 18.125 C-3.59986975 15.28164952 -3.63877881 12.46802837 -3.625 9.625 C-3.62886719 8.82707031 -3.63273437 8.02914063 -3.63671875 7.20703125 C-3.62479041 0.18123952 -3.62479041 0.18123952 0 0 Z " fill="#6E7194" transform="translate(127.5,348.875)"/>
<path d="M0 0 C2.5 0.125 2.5 0.125 3.5 1.125 C3.62663091 3.94916382 3.68520548 6.73794793 3.6875 9.5625 C3.69974609 10.35205078 3.71199219 11.14160156 3.72460938 11.95507812 C3.72987279 14.01307435 3.62206285 16.07062009 3.5 18.125 C2.84 18.785 2.18 19.445 1.5 20.125 C-2.03571429 19.58928571 -2.03571429 19.58928571 -3.5 18.125 C-3.59986975 15.28164952 -3.63877881 12.46802837 -3.625 9.625 C-3.62886719 8.82707031 -3.63273437 8.02914063 -3.63671875 7.20703125 C-3.62479041 0.18123952 -3.62479041 0.18123952 0 0 Z " fill="#74769A" transform="translate(54.5,348.875)"/>
<path d="M0 0 C0.33 0 0.66 0 1 0 C1 6.27 1 12.54 1 19 C2.32 19 3.64 19 5 19 C5.02696009 21.7708983 5.04681952 24.5415345 5.0625 27.3125 C5.07087891 28.09818359 5.07925781 28.88386719 5.08789062 29.69335938 C5.09111328 30.45068359 5.09433594 31.20800781 5.09765625 31.98828125 C5.10289307 32.68477783 5.10812988 33.38127441 5.11352539 34.09887695 C5 36 5 36 4 39 C4 40.32 4 41.64 4 43 C3.01 42.67 2.02 42.34 1 42 C-0.3158809 38.0523573 -0.12300273 34.28910644 -0.09765625 30.17578125 C-0.09553383 28.88367989 -0.09553383 28.88367989 -0.09336853 27.56547546 C-0.0877714 24.81444831 -0.07521946 22.06350256 -0.0625 19.3125 C-0.05748463 17.4472668 -0.05292179 15.58203233 -0.04882812 13.71679688 C-0.03780292 9.14449989 -0.02054027 4.57226375 0 0 Z " fill="#F8E090" transform="translate(45,248)"/>
<path d="M0 0 C1.65 0.33 3.3 0.66 5 1 C5 6.94 5 12.88 5 19 C3.35 19.33 1.7 19.66 0 20 C-1.5220959 18.4779041 -1.12959521 17.11789918 -1.1328125 15 C-1.13410156 14.195625 -1.13539063 13.39125 -1.13671875 12.5625 C-1.13285156 11.716875 -1.12898438 10.87125 -1.125 10 C-1.12886719 9.154375 -1.13273437 8.30875 -1.13671875 7.4375 C-1.13542969 6.633125 -1.13414062 5.82875 -1.1328125 5 C-1.13168457 4.2575 -1.13055664 3.515 -1.12939453 2.75 C-1 1 -1 1 0 0 Z " fill="#606388" transform="translate(346,349)"/>
<path d="M0 0 C1.65 0.33 3.3 0.66 5 1 C5 6.94 5 12.88 5 19 C3.35 19.33 1.7 19.66 0 20 C-1.5220959 18.4779041 -1.12959521 17.11789918 -1.1328125 15 C-1.13410156 14.195625 -1.13539063 13.39125 -1.13671875 12.5625 C-1.13285156 11.716875 -1.12898438 10.87125 -1.125 10 C-1.12886719 9.154375 -1.13273437 8.30875 -1.13671875 7.4375 C-1.13542969 6.633125 -1.13414062 5.82875 -1.1328125 5 C-1.13168457 4.2575 -1.13055664 3.515 -1.12939453 2.75 C-1 1 -1 1 0 0 Z " fill="#55597D" transform="translate(456,349)"/>
<path d="M0 0 C1.65 0.33 3.3 0.66 5 1 C5 6.94 5 12.88 5 19 C3.35 19.33 1.7 19.66 0 20 C-1.5220959 18.4779041 -1.12959521 17.11789918 -1.1328125 15 C-1.13410156 14.195625 -1.13539063 13.39125 -1.13671875 12.5625 C-1.13285156 11.716875 -1.12898438 10.87125 -1.125 10 C-1.12886719 9.154375 -1.13273437 8.30875 -1.13671875 7.4375 C-1.13542969 6.633125 -1.13414062 5.82875 -1.1328125 5 C-1.13168457 4.2575 -1.13055664 3.515 -1.12939453 2.75 C-1 1 -1 1 0 0 Z " fill="#5D6082" transform="translate(273,349)"/>
<path d="M0 0 C1.65 0.33 3.3 0.66 5 1 C5 6.94 5 12.88 5 19 C3.35 19.33 1.7 19.66 0 20 C-1.5220959 18.4779041 -1.12959521 17.11789918 -1.1328125 15 C-1.13410156 14.195625 -1.13539063 13.39125 -1.13671875 12.5625 C-1.13285156 11.716875 -1.12898437 10.87125 -1.125 10 C-1.12886719 9.154375 -1.13273438 8.30875 -1.13671875 7.4375 C-1.13542969 6.633125 -1.13414062 5.82875 -1.1328125 5 C-1.13168457 4.2575 -1.13055664 3.515 -1.12939453 2.75 C-1 1 -1 1 0 0 Z " fill="#65678A" transform="translate(187,349)"/>
<path d="M0 0 C1.65 0.33 3.3 0.66 5 1 C5 6.94 5 12.88 5 19 C3.35 19.33 1.7 19.66 0 20 C-1.5220959 18.4779041 -1.12959521 17.11789918 -1.1328125 15 C-1.13410156 14.195625 -1.13539063 13.39125 -1.13671875 12.5625 C-1.13285156 11.716875 -1.12898437 10.87125 -1.125 10 C-1.12886719 9.154375 -1.13273438 8.30875 -1.13671875 7.4375 C-1.13542969 6.633125 -1.13414062 5.82875 -1.1328125 5 C-1.13168457 4.2575 -1.13055664 3.515 -1.12939453 2.75 C-1 1 -1 1 0 0 Z " fill="#67698C" transform="translate(163,349)"/>
<path d="M0 0 C1.65 0.33 3.3 0.66 5 1 C5 6.94 5 12.88 5 19 C3.35 19.33 1.7 19.66 0 20 C-1.5220959 18.4779041 -1.12959521 17.11789918 -1.1328125 15 C-1.13410156 14.195625 -1.13539062 13.39125 -1.13671875 12.5625 C-1.13285156 11.716875 -1.12898438 10.87125 -1.125 10 C-1.12886719 9.154375 -1.13273437 8.30875 -1.13671875 7.4375 C-1.13542969 6.633125 -1.13414063 5.82875 -1.1328125 5 C-1.13168457 4.2575 -1.13055664 3.515 -1.12939453 2.75 C-1 1 -1 1 0 0 Z " fill="#6E7094" transform="translate(77,349)"/>
<path d="M0 0 C1.77503906 0.03480469 1.77503906 0.03480469 3.5859375 0.0703125 C5.36871094 0.09738281 5.36871094 0.09738281 7.1875 0.125 C8.10273437 0.14820313 9.01796875 0.17140625 9.9609375 0.1953125 C9.9609375 3.1653125 9.9609375 6.1353125 9.9609375 9.1953125 C2.00744913 10.0388643 2.00744913 10.0388643 -0.97265625 7.63671875 C-2.4468225 5.87973884 -3.78890452 4.11712398 -5.0390625 2.1953125 C-3.0390625 0.1953125 -3.0390625 0.1953125 0 0 Z " fill="#FED15F" transform="translate(71.0390625,246.8046875)"/>
<path d="M0 0 C0.66 0.33 1.32 0.66 2 1 C2 4.63 2 8.26 2 12 C4.97 12 7.94 12 11 12 C11 12.33 11 12.66 11 13 C4.07 13 -2.86 13 -10 13 C-10 16.3 -10 19.6 -10 23 C-10.33 23 -10.66 23 -11 23 C-11.01417969 22.33613281 -11.02835938 21.67226563 -11.04296875 20.98828125 C-11.09066406 20.10527344 -11.13835937 19.22226562 -11.1875 18.3125 C-11.23970703 17.00732422 -11.23970703 17.00732422 -11.29296875 15.67578125 C-12.30265003 11.85461178 -13.86210868 10.3701094 -17 8 C-19.7957186 7.47562169 -22.02456675 7.21151091 -24.8125 7.1875 C-25.85180664 7.14979492 -25.85180664 7.14979492 -26.91210938 7.11132812 C-28.60747122 7.05286737 -30.30379287 7.02346953 -32 7 C-31.67 6.34 -31.34 5.68 -31 5 C-17.44322208 4.06861831 -17.44322208 4.06861831 -13.984375 6.30078125 C-13.09303437 7.37397586 -12.23182024 8.4730814 -11.40625 9.59765625 C-8.67367475 12.32264101 -4.67485196 11.98366732 -1 12 C-1.01160156 11.30132812 -1.02320312 10.60265625 -1.03515625 9.8828125 C-1.04417969 8.97273437 -1.05320312 8.06265625 -1.0625 7.125 C-1.07410156 6.22007812 -1.08570312 5.31515625 -1.09765625 4.3828125 C-1 2 -1 2 0 0 Z " fill="#E6A343" transform="translate(82,244)"/>
<path d="M0 0 C1.67542976 0.28604898 3.34385343 0.61781233 5 1 C5.05383848 3.45862401 5.09359038 5.9160755 5.125 8.375 C5.14175781 9.07367188 5.15851563 9.77234375 5.17578125 10.4921875 C5.19344267 12.32897486 5.10303261 14.16601963 5 16 C4.34 16.66 3.68 17.32 3 18 C0.875 17.625 0.875 17.625 -1 17 C-1.02684679 14.35409986 -1.04676357 11.70846904 -1.0625 9.0625 C-1.07087891 8.30775391 -1.07925781 7.55300781 -1.08789062 6.77539062 C-1.09652441 4.85005687 -1.05224333 2.92464419 -1 1 C-0.67 0.67 -0.34 0.34 0 0 Z " fill="#D1D6F6" transform="translate(63,179)"/>
<path d="M0 0 C1.65 0.33 3.3 0.66 5 1 C5 6.28 5 11.56 5 17 C3.68 17.33 2.36 17.66 1 18 C-1 16 -1 16 -1.23046875 12.55859375 C-1.22647911 11.18482696 -1.21173177 9.81105886 -1.1875 8.4375 C-1.18685547 7.73947266 -1.18621094 7.04144531 -1.18554688 6.32226562 C-1.14031158 1.14031158 -1.14031158 1.14031158 0 0 Z " fill="#DBDFF6" transform="translate(46,179)"/>
<path d="M0 0 C1.65 0.33 3.3 0.66 5 1 C5 6.28 5 11.56 5 17 C3.35 17 1.7 17 0 17 C-1.75559942 15.24440058 -1.13221919 12.96417558 -1.13671875 10.62890625 C-1.13285156 9.92636719 -1.12898438 9.22382813 -1.125 8.5 C-1.12886719 7.79746094 -1.13273437 7.09492188 -1.13671875 6.37109375 C-1.12661378 1.12661378 -1.12661378 1.12661378 0 0 Z " fill="#C1C8F7" transform="translate(95,179)"/>
<path d="M0 0 C1.65 0.33 3.3 0.66 5 1 C5 5.95 5 10.9 5 16 C3.35 16.33 1.7 16.66 0 17 C-1.75559942 15.24440058 -1.13221919 12.96417558 -1.13671875 10.62890625 C-1.13285156 9.92636719 -1.12898438 9.22382813 -1.125 8.5 C-1.12886719 7.79746094 -1.13273437 7.09492188 -1.13671875 6.37109375 C-1.12661378 1.12661378 -1.12661378 1.12661378 0 0 Z " fill="#CFD5FC" transform="translate(79,179)"/>
<path d="M0 0 C2.29109597 -0.08075665 4.58299267 -0.13907731 6.875 -0.1875 C8.78925781 -0.23970703 8.78925781 -0.23970703 10.7421875 -0.29296875 C11.81726563 -0.19628906 12.89234375 -0.09960938 14 0 C14.66 0.99 15.32 1.98 16 3 C12.65060119 5.02558881 10.13037449 5.21738987 6.25 5.125 C5.26515625 5.10695313 4.2803125 5.08890625 3.265625 5.0703125 C2.14414062 5.03550781 2.14414062 5.03550781 1 5 C0.67 6.98 0.34 8.96 0 11 C-0.66 10.34 -1.32 9.68 -2 9 C-1.505 7.88625 -1.505 7.88625 -1 6.75 C0.22782871 3.86116688 0.22782871 3.86116688 0 0 Z " fill="#F4B64B" transform="translate(51,284)"/>
<path d="M0 0 C0.33 0 0.66 0 1 0 C1 3.96 1 7.92 1 12 C-3.62 12 -8.24 12 -13 12 C-9.00919563 10.00459782 -5.50023174 9 -1 9 C-0.67 6.03 -0.34 3.06 0 0 Z M-29 12 C-23.72 12 -18.44 12 -13 12 C-13 12.33 -13 12.66 -13 13 C-14.14339844 13.04898437 -15.28679687 13.09796875 -16.46484375 13.1484375 C-17.95575473 13.22345189 -19.44663892 13.29900028 -20.9375 13.375 C-22.06961914 13.42140625 -22.06961914 13.42140625 -23.22460938 13.46875 C-25.15507395 13.5726315 -27.07942081 13.77895614 -29 14 C-29.33 14.66 -29.66 15.32 -30 16 C-29.67 14.68 -29.34 13.36 -29 12 Z " fill="#FAA62E" transform="translate(81,279)"/>
<path d="M0 0 C0.33 0 0.66 0 1 0 C1.04241723 2.33294775 1.04092937 4.66702567 1 7 C0 8 0 8 -1.84765625 8.09765625 C-3.8984375 8.06510417 -5.94921875 8.03255208 -8 8 C-7.97679688 8.84304688 -7.95359375 9.68609375 -7.9296875 10.5546875 C-7.90261719 12.19824219 -7.90261719 12.19824219 -7.875 13.875 C-7.85179688 14.96554687 -7.82859375 16.05609375 -7.8046875 17.1796875 C-8 20 -8 20 -10 22 C-10 17.38 -10 12.76 -10 8 C-12.64 8 -15.28 8 -18 8 C-18 7.67 -18 7.34 -18 7 C-11.97403427 5.9287172 -6.11090483 5.90054585 0 6 C0 4.02 0 2.04 0 0 Z " fill="#C7782C" transform="translate(92,271)"/>
<path d="M0 0 C0 1.32 0 2.64 0 4 C-6.6 4 -13.2 4 -20 4 C-20 3.34 -20 2.68 -20 2 C-17.04287371 1.47130166 -14.0846444 0.9517326 -11.125 0.4375 C-10.28324219 0.28603516 -9.44148438 0.13457031 -8.57421875 -0.02148438 C-7.76855469 -0.16005859 -6.96289062 -0.29863281 -6.1328125 -0.44140625 C-5.38918457 -0.57232666 -4.64555664 -0.70324707 -3.87939453 -0.83813477 C-2 -1 -2 -1 0 0 Z " fill="#FDB643" transform="translate(119,245)"/>
<path d="M0 0 C0.99 0.33 1.98 0.66 3 1 C3 1.66 3 2.32 3 3 C-0.14504693 3.34103465 -3.29113417 3.67137463 -6.4375 4 C-7.75524414 4.14308594 -7.75524414 4.14308594 -9.09960938 4.2890625 C-14.76758855 4.87468396 -20.30188968 5.09274645 -26 5 C-26 4.01 -26 3.02 -26 2 C-17.42 2 -8.84 2 0 2 C0 1.34 0 0.68 0 0 Z " fill="#FDE08A" transform="translate(110,239)"/>
<path d="M0 0 C0 0.99 0 1.98 0 3 C-8.91 3 -17.82 3 -27 3 C-27 2.34 -27 1.68 -27 1 C-23.25006257 0.83190552 -19.50004074 0.66577241 -15.75 0.5 C-14.15478516 0.42845703 -14.15478516 0.42845703 -12.52734375 0.35546875 C-11.50253906 0.31035156 -10.47773437 0.26523437 -9.421875 0.21875 C-8.47924805 0.17685547 -7.53662109 0.13496094 -6.56542969 0.09179688 C-4.37813904 0.01353067 -2.18869047 0 0 0 Z " fill="#FD8C0B" transform="translate(84,294)"/>
<path d="M0 0 C1.67542976 0.28604898 3.34385343 0.61781233 5 1 C5 3.31 5 5.62 5 8 C3.02 8.99 1.04 9.98 -1 11 C-1.02688151 9.35425434 -1.04634123 7.70838587 -1.0625 6.0625 C-1.07410156 5.14597656 -1.08570313 4.22945313 -1.09765625 3.28515625 C-1 1 -1 1 0 0 Z " fill="#56597B" transform="translate(346,349)"/>
<path d="M0 0 C0.33 0 0.66 0 1 0 C1 2.64 1 5.28 1 8 C3.97 8 6.94 8 10 8 C10 8.33 10 8.66 10 9 C9.37351562 9.02578125 8.74703125 9.0515625 8.1015625 9.078125 C7.28429687 9.13484375 6.46703125 9.1915625 5.625 9.25 C4.81289062 9.29640625 4.00078125 9.3428125 3.1640625 9.390625 C0.84427407 9.7752541 0.84427407 9.7752541 -0.1015625 11.859375 C-0.39804688 12.56578125 -0.69453125 13.2721875 -1 14 C-2.14453125 15.73828125 -2.14453125 15.73828125 -4 17 C-6.64996326 17.2172101 -9.05076558 17.28351554 -11.6875 17.1875 C-12.38939453 17.17396484 -13.09128906 17.16042969 -13.81445312 17.14648438 C-15.54329829 17.11120182 -17.27174765 17.05739583 -19 17 C-19 16.67 -19 16.34 -19 16 C-17.67935547 15.97873047 -17.67935547 15.97873047 -16.33203125 15.95703125 C-9.20950138 15.73188622 -9.20950138 15.73188622 -2.75 13.0625 C-0.31701204 8.80477108 -0.10340355 4.8411662 0 0 Z " fill="#D38835" transform="translate(71,269)"/>
<path d="M0 0 C6.27 0 12.54 0 19 0 C19.33 1.32 19.66 2.64 20 4 C19.34 3.67 18.68 3.34 18 3 C16.62451844 2.91691362 15.24514204 2.89263984 13.8671875 2.90234375 C13.06152344 2.90556641 12.25585938 2.90878906 11.42578125 2.91210938 C10.16314453 2.92467773 10.16314453 2.92467773 8.875 2.9375 C7.60076172 2.94426758 7.60076172 2.94426758 6.30078125 2.95117188 C4.20049091 2.96297126 2.1002367 2.98090694 0 3 C0 2.01 0 1.02 0 0 Z " fill="#DA7A18" transform="translate(100,284)"/>
<path d="M0 0 C1.875 0.3125 1.875 0.3125 4 1 C6.55694972 4.83542457 6.04045639 6.65902533 5.625 11.1875 C5.45871094 13.09595703 5.45871094 13.09595703 5.2890625 15.04296875 C5.19367187 16.01878906 5.09828125 16.99460937 5 18 C4.34 18 3.68 18 3 18 C3 13.05 3 8.1 3 3 C2.01 3 1.02 3 0 3 C0 2.01 0 1.02 0 0 Z " fill="#FDE07D" transform="translate(47,249)"/>
<path d="M0 0 C2.5625 0.25 2.5625 0.25 5 1 C6.40742022 3.81484045 5.66652164 5.56936113 5.0625 8.625 C4.86785156 9.62789062 4.67320312 10.63078125 4.47265625 11.6640625 C4.23869141 12.82035156 4.23869141 12.82035156 4 14 C3.67 14 3.34 14 3 14 C2.34 10.04 1.68 6.08 1 2 C0.01 2 -0.98 2 -2 2 C-1.34 1.34 -0.68 0.68 0 0 Z M-4 3 C-2 4 -2 4 -2 4 Z " fill="#95C15C" transform="translate(254,35)"/>
<path d="M0 0 C1.9375 0.8125 1.9375 0.8125 4 2 C4.33 2.99 4.66 3.98 5 5 C9.29 5 13.58 5 18 5 C18 5.33 18 5.66 18 6 C15.75106046 6.10823773 13.50062425 6.18569645 11.25 6.25 C9.37054688 6.31960938 9.37054688 6.31960938 7.453125 6.390625 C4 6 4 6 1.546875 4.109375 C0 2 0 2 0 0 Z " fill="#B46627" transform="translate(95,280)"/>
<path d="M0 0 C0.66 0.99 1.32 1.98 2 3 C1 4 1 4 -1.9375 4.1875 C-5 4 -5 4 -7 2 C-4.69 1.34 -2.38 0.68 0 0 Z " fill="#508951" transform="translate(258,217)"/>
<path d="M0 0 C1.32 0 2.64 0 4 0 C2.75023244 3.65316671 2.32901247 4.78065836 -1 7 C-0.67 4.69 -0.34 2.38 0 0 Z " fill="#FC981A" transform="translate(114,251)"/>
<path d="M0 0 C0 0.99 0 1.98 0 3 C-2.31 3 -4.62 3 -7 3 C-4.49955934 -0.00052879 -4.2621484 0 0 0 Z " fill="#FE9E22" transform="translate(119,246)"/>
</svg>
