<?xml version="1.0" encoding="UTF-8"?>
<svg version="1.1" xmlns="http://www.w3.org/2000/svg" width="512" height="512">
<path d="M0 0 C1.14866043 -0.00101212 1.14866043 -0.00101212 2.32052612 -0.00204468 C13.38773651 0.01348102 23.87303862 0.39275519 34.625 3.25 C35.31223145 3.42160645 35.99946289 3.59321289 36.70751953 3.77001953 C47.29187282 6.43336366 56.91477742 10.30428839 66.625 15.25 C67.74777344 15.806875 68.87054688 16.36375 70.02734375 16.9375 C83.95911588 24.09389187 95.73805047 34.06880859 106.625 45.25 C107.39360352 45.98790771 107.39360352 45.98790771 108.17773438 46.74072266 C132.72128075 70.50081685 145.36108757 105.69094576 146.625 139.25 C147.24246094 139.25257813 147.85992187 139.25515625 148.49609375 139.2578125 C155.62879525 139.58350663 160.27816339 141.50634381 165.625 146.25 C171.79882839 153.01873691 173.93514014 158.87159477 173.99609375 167.91796875 C174.00512222 168.75282303 174.0141507 169.58767731 174.02345276 170.4478302 C174.03792767 172.21201002 174.04683513 173.97624319 174.05053711 175.74047852 C174.06238652 178.41191597 174.11155594 181.08100579 174.16210938 183.75195312 C174.26641991 194.58116227 173.5046955 202.17527703 166.51953125 210.87109375 C159.30047159 217.16914767 152.21746517 219.87559555 142.625 219.25 C142.81002075 220.07443604 142.81002075 220.07443604 142.9987793 220.91552734 C143.86352545 224.78527666 144.71534813 228.65623897 145.51953125 232.5390625 C150.30860036 255.41842867 158.64857506 276.05988387 173.625 294.25 C176.625 297.99330357 176.625 297.99330357 176.625 300.25 C166.92015314 305.66253173 157.21335675 310.67591422 146.8125 314.625 C146.00337158 314.93373047 145.19424316 315.24246094 144.3605957 315.56054688 C137.23119797 318.18855476 129.94399345 320.22682062 122.625 322.25 C123.5543335 322.52561768 124.48366699 322.80123535 125.44116211 323.08520508 C162.16422673 334.03577542 204.19740857 346.74291861 224.28515625 382.578125 C240.74368795 415.39922028 233.625 455.69849143 233.625 490.25 C79.845 490.25 -73.935 490.25 -232.375 490.25 C-232.375 388.36087432 -232.375 388.36087432 -208.25 363.5625 C-185.04208421 340.67862184 -151.76889279 331.31373479 -121.375 322.25 C-122.51453125 321.9096875 -123.6540625 321.569375 -124.828125 321.21875 C-142.49008662 315.85075098 -159.31381353 309.40000926 -175.375 300.25 C-174.05577147 296.46467592 -172.44962773 293.93689983 -169.8125 290.9375 C-155.69784824 273.67773562 -148.68016218 252.55312763 -143.375 231.25 C-144.5815625 230.816875 -144.5815625 230.816875 -145.8125 230.375 C-148.375 229.25 -148.375 229.25 -149.375 227.25 C-149.61884581 222.94233051 -149.56020176 218.62629384 -149.5625 214.3125 C-149.57474609 213.10658203 -149.58699219 211.90066406 -149.59960938 210.65820312 C-149.60154297 209.50384766 -149.60347656 208.34949219 -149.60546875 207.16015625 C-149.60957764 206.09933838 -149.61368652 205.03852051 -149.61791992 203.94555664 C-149.375 201.25 -149.375 201.25 -147.375 198.25 C-147.0610642 195.92947251 -147.0610642 195.92947251 -147.08789062 193.31738281 C-147.07447632 192.31072571 -147.06106201 191.3040686 -147.04724121 190.26690674 C-147.04196411 189.17335876 -147.03668701 188.07981079 -147.03125 186.953125 C-147.0166272 185.81333191 -147.00200439 184.67353882 -146.98693848 183.49920654 C-146.94037472 179.83284092 -146.90631724 176.16652553 -146.875 172.5 C-146.75491509 158.84726968 -146.63505366 145.23238597 -145.4765625 131.62109375 C-145.40103149 130.71848816 -145.32550049 129.81588257 -145.24768066 128.88592529 C-141.79179951 92.2052475 -121.95846589 57.19641051 -93.96826172 33.55419922 C-66.9067762 11.40242851 -34.91639817 0.02748846 0 0 Z " fill="#6FC0F8" transform="translate(255.375,10.75)"/>
<path d="M0 0 C1.14866043 -0.00101212 1.14866043 -0.00101212 2.32052612 -0.00204468 C13.38773651 0.01348102 23.87303862 0.39275519 34.625 3.25 C35.31223145 3.42160645 35.99946289 3.59321289 36.70751953 3.77001953 C47.29187282 6.43336366 56.91477742 10.30428839 66.625 15.25 C67.74777344 15.806875 68.87054688 16.36375 70.02734375 16.9375 C83.95911588 24.09389187 95.73805047 34.06880859 106.625 45.25 C107.39360352 45.98790771 107.39360352 45.98790771 108.17773438 46.74072266 C132.72128075 70.50081685 145.36108757 105.69094576 146.625 139.25 C147.24246094 139.25257813 147.85992187 139.25515625 148.49609375 139.2578125 C155.62879525 139.58350663 160.27816339 141.50634381 165.625 146.25 C171.79882839 153.01873691 173.93514014 158.87159477 173.99609375 167.91796875 C174.00512222 168.75282303 174.0141507 169.58767731 174.02345276 170.4478302 C174.03792767 172.21201002 174.04683513 173.97624319 174.05053711 175.74047852 C174.06238652 178.41191597 174.11155594 181.08100579 174.16210938 183.75195312 C174.26641991 194.58116227 173.5046955 202.17527703 166.51953125 210.87109375 C165.83246094 211.47050781 165.14539063 212.06992188 164.4375 212.6875 C163.76332031 213.30496094 163.08914063 213.92242187 162.39453125 214.55859375 C154.29945438 219.50241362 145.85397017 219.62389816 136.6171875 219.32421875 C135.4105545 219.29777786 134.20392151 219.27133698 132.96072388 219.24409485 C129.13994435 219.15694014 125.32018086 219.04757709 121.5 218.9375 C118.89586873 218.87417815 116.29170158 218.81231433 113.6875 218.75195312 C107.33282095 218.60149717 100.97882517 218.432847 94.625 218.25 C94.43100616 218.92229645 94.23701233 219.5945929 94.03713989 220.28726196 C93.7762558 221.17682587 93.5153717 222.06638977 93.24658203 222.98291016 C92.9907132 223.8614566 92.73484436 224.74000305 92.47122192 225.64517212 C91.20946175 229.52910374 89.44456257 233.04427298 87.5 236.625 C87.10748047 237.35468994 86.71496094 238.08437988 86.31054688 238.83618164 C80.82893615 248.78416857 72.79978124 262.57135162 62.80053711 268.29418945 C60.44556008 269.77424874 59.14122243 270.8950385 57.625 273.25 C56.9868373 277.98889888 57.16553889 282.60877374 57.35852051 287.3767395 C58.08348836 308.5876518 58.08348836 308.5876518 51.375 315.8125 C49.74007224 317.46438403 48.07022224 319.04695603 46.34082031 320.59960938 C43.23366872 323.58827539 40.799332 327.09965411 38.25 330.5625 C37.16026945 331.99946063 36.06779639 333.43434537 34.97265625 334.8671875 C34.14918701 335.94758301 34.14918701 335.94758301 33.30908203 337.04980469 C29.88310906 341.52572067 26.41876141 345.97190339 22.94824219 350.41333008 C19.86341089 354.36237919 16.80045494 358.32577906 13.76953125 362.31640625 C13.13845459 363.14213135 12.50737793 363.96785645 11.85717773 364.81860352 C10.64604466 366.40420551 9.44082625 367.99434811 8.24243164 369.58959961 C7.69578857 370.30253174 7.14914551 371.01546387 6.5859375 371.75 C6.10946777 372.3790625 5.63299805 373.008125 5.14208984 373.65625 C3.45298941 375.43070247 1.86183658 376.28714325 -0.375 377.25 C-6.87255838 369.36909048 -13.29795505 361.46156107 -19.375 353.25 C-23.91811506 347.11244073 -28.65171046 341.16883131 -33.50195312 335.27197266 C-37.94016675 329.84971467 -42.17095244 324.29088998 -46.33007812 318.65234375 C-46.78833984 318.03230469 -47.24660156 317.41226562 -47.71875 316.7734375 C-48.11255859 316.23638184 -48.50636719 315.69932617 -48.91210938 315.14599609 C-50.4859544 313.03403763 -50.4859544 313.03403763 -53.02319336 310.50708008 C-55.87919917 307.08266302 -55.9248403 303.9309619 -55.66015625 299.61328125 C-55.63274503 298.13349959 -55.60742166 296.65367806 -55.58398438 295.17382812 C-55.52018537 292.87241948 -55.43819771 290.57575086 -55.31713867 288.27661133 C-54.64942616 278.40104224 -54.64942616 278.40104224 -58.97045898 269.93603516 C-61.00055469 268.00194456 -63.14272885 266.31874452 -65.3984375 264.65795898 C-68.61737064 262.05392868 -70.27559483 259.5752246 -72.3125 256 C-77.00312606 249.41622036 -82.42843583 247.99595848 -89.89941406 245.91455078 C-96.8381413 243.94525791 -102.4028663 241.07659176 -108.5625 237.375 C-117.86585202 231.94841642 -126.17457004 231.13252623 -136.84643555 231.39697266 C-137.89871338 231.42194824 -138.95099121 231.44692383 -140.03515625 231.47265625 C-141.43713257 231.54625366 -141.43713257 231.54625366 -142.86743164 231.62133789 C-145.375 231.25 -145.375 231.25 -147.67993164 229.609375 C-149.82303354 226.62637965 -149.86452913 224.92782274 -149.8359375 221.27734375 C-149.83207031 220.13072266 -149.82820313 218.98410156 -149.82421875 217.80273438 C-149.79972656 216.60970703 -149.77523437 215.41667969 -149.75 214.1875 C-149.74871094 212.99060547 -149.74742187 211.79371094 -149.74609375 210.56054688 C-149.65605357 201.67158036 -149.65605357 201.67158036 -147.375 198.25 C-147.0610642 195.92947251 -147.0610642 195.92947251 -147.08789062 193.31738281 C-147.07447632 192.31072571 -147.06106201 191.3040686 -147.04724121 190.26690674 C-147.04196411 189.17335876 -147.03668701 188.07981079 -147.03125 186.953125 C-147.0166272 185.81333191 -147.00200439 184.67353882 -146.98693848 183.49920654 C-146.94037472 179.83284092 -146.90631724 176.16652553 -146.875 172.5 C-146.75491509 158.84726968 -146.63505366 145.23238597 -145.4765625 131.62109375 C-145.40103149 130.71848816 -145.32550049 129.81588257 -145.24768066 128.88592529 C-141.79179951 92.2052475 -121.95846589 57.19641051 -93.96826172 33.55419922 C-66.9067762 11.40242851 -34.91639817 0.02748846 0 0 Z " fill="#FCD6AC" transform="translate(255.375,10.75)"/>
<path d="M0 0 C1.14866043 -0.00101212 1.14866043 -0.00101212 2.32052612 -0.00204468 C13.38773651 0.01348102 23.87303862 0.39275519 34.625 3.25 C35.31223145 3.42160645 35.99946289 3.59321289 36.70751953 3.77001953 C47.29187282 6.43336366 56.91477742 10.30428839 66.625 15.25 C67.74777344 15.806875 68.87054688 16.36375 70.02734375 16.9375 C83.95911588 24.09389187 95.73805047 34.06880859 106.625 45.25 C107.13740234 45.74193848 107.64980469 46.23387695 108.17773438 46.74072266 C133.10375662 70.87108374 144.5147407 105.48585117 146.625 139.25 C132.105 139.25 117.585 139.25 102.625 139.25 C99.625 130.25 99.625 130.25 98.625 126.25 C95.97404821 125.09662462 93.50052061 124.20701425 90.75 123.375 C68.92380068 116.17847457 55.38692705 101.63719018 43.0625 82.625 C42.33998047 81.52542969 41.61746094 80.42585938 40.87304688 79.29296875 C39.11609675 76.61681956 37.36696508 73.93591706 35.625 71.25 C35.22410156 72.1471875 34.82320312 73.044375 34.41015625 73.96875 C18.99875564 108.0076429 -3.54747299 135.15607559 -39.125 148.98803711 C-60.00076239 156.78425882 -81.25981944 161.63143817 -103.375 164.25 C-102.59282984 186.8156091 -97.48176116 208.16364112 -88.61010742 228.84521484 C-86.375 234.06232653 -86.375 234.06232653 -86.375 236.25 C-97.09274353 233.95898357 -107.30211612 228.29858926 -116.375 222.25 C-116.74389648 220.14282227 -116.74389648 220.14282227 -116.74609375 217.56640625 C-116.76349609 216.63892578 -116.78089844 215.71144531 -116.79882812 214.75585938 C-116.8079245 212.79754024 -116.81314843 210.8391992 -116.81445312 208.88085938 C-116.84249023 207.48770508 -116.84249023 207.48770508 -116.87109375 206.06640625 C-116.87387329 204.78938843 -116.87387329 204.78938843 -116.87670898 203.48657227 C-117.18563941 201.13837954 -117.18563941 201.13837954 -119.03993225 199.62852478 C-121.97575529 197.89533961 -123.83991072 197.90507516 -127.234375 197.95703125 C-128.90693359 197.9715332 -128.90693359 197.9715332 -130.61328125 197.98632812 C-131.77214844 198.01146484 -132.93101562 198.03660156 -134.125 198.0625 C-135.88650391 198.08280273 -135.88650391 198.08280273 -137.68359375 198.10351562 C-140.58119298 198.1388522 -143.47786427 198.18819021 -146.375 198.25 C-146.42661851 190.98074455 -146.46110863 183.71153794 -146.48486328 176.44213867 C-146.49478849 173.98020665 -146.508333 171.51828598 -146.52587891 169.05639648 C-146.61272275 156.5381119 -146.56945538 144.08979738 -145.5 131.609375 C-145.42306915 130.70750961 -145.34613831 129.80564423 -145.26687622 128.87644958 C-141.72136239 92.1855707 -121.98751047 57.22094331 -93.96826172 33.55419922 C-66.9067762 11.40242851 -34.91639817 0.02748846 0 0 Z " fill="#323E66" transform="translate(255.375,10.75)"/>
<path d="M0 0 C15.84 0 31.68 0 48 0 C48.70125 3.75375 49.4025 7.5075 50.125 11.375 C54.85250131 35.3009958 63.35224101 56.99449273 79 76 C82 79.74330357 82 79.74330357 82 82 C69.04588479 89.22469511 56.02701028 95.16757667 42 100 C40.9486084 100.36810791 40.9486084 100.36810791 39.87597656 100.74365234 C27.29049758 105.06932344 18.0325901 103.25185075 5.375 99.9375 C4.27542969 99.65583984 3.17585938 99.37417969 2.04296875 99.08398438 C-0.6397659 98.39580462 -3.32060429 97.70104562 -6 97 C-6.40375854 98.28620239 -6.40375854 98.28620239 -6.81567383 99.59838867 C-8.00123472 103.00354634 -9.40170303 106.1701518 -10.94921875 109.42578125 C-11.23831619 110.03733566 -11.52741364 110.64889008 -11.82527161 111.27897644 C-12.44971528 112.59970684 -13.07554901 113.91978076 -13.70263672 115.23925781 C-15.40776955 118.82874418 -17.10084973 122.42389545 -18.79296875 126.01953125 C-19.14314056 126.76345123 -19.49331238 127.50737122 -19.85409546 128.27383423 C-23.47511442 135.98321796 -26.9925766 143.73844747 -30.5 151.5 C-37.84326602 167.74064693 -45.39443464 183.8807664 -53 200 C-56.18259851 198.59490901 -58.31348466 196.93078658 -60.75878906 194.46826172 C-61.83945648 193.38736771 -61.83945648 193.38736771 -62.94195557 192.28463745 C-63.70876648 191.50750397 -64.47557739 190.73037048 -65.265625 189.9296875 C-66.05902283 189.13345978 -66.85242065 188.33723206 -67.66986084 187.51687622 C-70.20130703 184.97424052 -72.72570803 182.42473652 -75.25 179.875 C-76.96568617 178.14928247 -78.68182662 176.42401645 -80.3984375 174.69921875 C-84.60424248 170.47136968 -88.80428507 166.23786131 -93 162 C-96.18172388 163.40312798 -98.29487221 165.05877701 -100.72705078 167.53173828 C-101.44104034 168.25233429 -102.15502991 168.9729303 -102.89065552 169.71536255 C-103.65119232 170.49249603 -104.41172913 171.26962952 -105.1953125 172.0703125 C-105.98396698 172.86654022 -106.77262146 173.66276794 -107.58517456 174.48312378 C-110.10329563 177.02568022 -112.61488217 179.57454357 -115.125 182.125 C-118.43445355 185.48741489 -121.75029276 188.84333395 -125.0703125 192.1953125 C-126.2171904 193.36708542 -126.2171904 193.36708542 -127.38723755 194.56253052 C-128.09492279 195.2768222 -128.80260803 195.99111389 -129.53173828 196.72705078 C-130.15476837 197.3605545 -130.77779846 197.99405823 -131.41970825 198.64675903 C-133 200 -133 200 -135 200 C-143.41761736 182.1648115 -151.80749737 164.31892619 -160.05078125 146.40234375 C-163.83284533 138.18286302 -167.64796684 129.97875676 -171.46166992 121.77392578 C-172.46875782 119.60681528 -173.47472947 117.43918563 -174.47949219 115.27099609 C-175.55211682 112.96350976 -176.63062882 110.65945419 -177.71582031 108.35791016 C-178.26592773 107.18405762 -178.81603516 106.01020508 -179.3828125 104.80078125 C-179.88441895 103.73641846 -180.38602539 102.67205566 -180.90283203 101.57543945 C-182 99 -182 99 -182 97 C-185.95928316 97.97535298 -189.91725511 98.95592536 -193.875 99.9375 C-195.00292969 100.21529297 -196.13085938 100.49308594 -197.29296875 100.77929688 C-198.36933594 101.04677734 -199.44570312 101.31425781 -200.5546875 101.58984375 C-201.54968262 101.83597412 -202.54467773 102.08210449 -203.56982422 102.33569336 C-205.98392813 102.91048863 -205.98392813 102.91048863 -208 104 C-214.13044483 104.37478702 -218.95954175 103.44199668 -224.75 101.5 C-225.5656543 101.23300293 -226.38130859 100.96600586 -227.22167969 100.69091797 C-242.12685696 95.71209969 -256.3407234 89.78164849 -270 82 C-268.68077147 78.21467592 -267.07462773 75.68689983 -264.4375 72.6875 C-250.32284824 55.42773562 -243.30516218 34.30312763 -238 13 C-220.84074182 11.39811077 -209.97186871 13.83779417 -195.30664062 22.69238281 C-189.19883533 26.15485161 -182.30607487 28.33515198 -175.4453125 29.71484375 C-171.11994585 31.32827417 -169.27516749 33.82560768 -166.75 37.5 C-164.17525126 41.19240495 -161.83975877 44.36646811 -158.21142578 47.10375977 C-150.43370097 53.02066798 -150.43370097 53.02066798 -149.16601562 58.80615234 C-148.89258614 63.19180381 -149.10818812 67.55639208 -149.375 71.9375 C-150.26896788 84.33955914 -150.26896788 84.33955914 -144.78125 95.171875 C-143.21118586 96.8043656 -141.61983262 98.41687991 -140 100 C-139.08167757 101.12184657 -138.18292676 102.2605549 -137.3203125 103.42578125 C-133.17230556 108.88018895 -128.99158318 114.30552389 -124.75 119.6875 C-114.74556679 132.39006045 -104.8387844 145.16877426 -95 158 C-91.83597859 156.63803222 -90.11198825 155.23679477 -88.0390625 152.5 C-87.49217773 151.78674561 -86.94529297 151.07349121 -86.38183594 150.33862305 C-85.80208008 149.56687744 -85.22232422 148.79513184 -84.625 148 C-83.37262006 146.36050578 -82.12000928 144.72118786 -80.8671875 143.08203125 C-80.22749023 142.23979004 -79.58779297 141.39754883 -78.92871094 140.52978516 C-75.90051741 136.55786854 -72.82354813 132.62434734 -69.75 128.6875 C-62.6238276 119.56761715 -62.6238276 119.56761715 -55.66015625 110.32421875 C-53.72487148 107.78354109 -51.60816295 105.60877971 -49.30859375 103.39453125 C-40.0909552 93.96676769 -38.07908985 86.55590264 -38.18777466 73.73397827 C-38.24903454 71.473131 -38.37666417 69.2249155 -38.52124023 66.96801758 C-39.05268951 56.44487755 -39.05268951 56.44487755 -35.90039062 52.11816406 C-33.3725803 49.85424602 -30.77915563 47.9401802 -28 46 C-14.89293847 33.199002 -6.7221939 16.80548475 0 0 Z " fill="#3D4B76" transform="translate(350,229)"/>
<path d="M0 0 C1.14866043 -0.00101212 1.14866043 -0.00101212 2.32052612 -0.00204468 C13.38773651 0.01348102 23.87303862 0.39275519 34.625 3.25 C35.31223145 3.42160645 35.99946289 3.59321289 36.70751953 3.77001953 C47.29187282 6.43336366 56.91477742 10.30428839 66.625 15.25 C67.74777344 15.806875 68.87054688 16.36375 70.02734375 16.9375 C83.95911588 24.09389187 95.73805047 34.06880859 106.625 45.25 C107.13740234 45.74193848 107.64980469 46.23387695 108.17773438 46.74072266 C132.82699512 70.60315672 145.15020893 105.62476356 146.625 139.25 C138.045 139.25 129.465 139.25 120.625 139.25 C120.2125 136.424375 119.8 133.59875 119.375 130.6875 C117.25583225 117.03311697 113.95104419 104.63255767 107.625 92.25 C107.16222656 91.31542969 106.69945312 90.38085938 106.22265625 89.41796875 C92.2026899 62.2712749 67.38897032 42.00480083 38.625 32.25 C33.68116189 30.68308005 28.67773171 29.41515321 23.625 28.25 C22.68914062 28.023125 21.75328125 27.79625 20.7890625 27.5625 C5.29893326 24.36682864 -11.11465579 25.54712236 -26.375 29.25 C-27.6021875 29.51683594 -28.829375 29.78367187 -30.09375 30.05859375 C-60.50910113 37.24709586 -86.13384046 57.96423169 -102.375 84.25 C-108.93723092 95.25571463 -113.53672179 106.36319451 -116.5625 118.8125 C-116.72975586 119.49683105 -116.89701172 120.18116211 -117.06933594 120.88623047 C-119.40339141 131.01410621 -119.55650159 141.21634901 -119.69140625 151.5703125 C-119.71202912 152.92366085 -119.73302676 154.27700354 -119.75437927 155.63034058 C-119.80905034 159.15815586 -119.8586972 162.68602382 -119.90722656 166.21392822 C-119.95784825 169.82756114 -120.01327388 173.44112033 -120.06835938 177.0546875 C-120.17571242 184.11973346 -120.27516143 191.18482793 -120.375 198.25 C-128.955 198.25 -137.535 198.25 -146.375 198.25 C-146.42145019 190.98054488 -146.46110834 183.71162518 -146.48486328 176.44213867 C-146.49478849 173.98020665 -146.508333 171.51828598 -146.52587891 169.05639648 C-146.61272275 156.5381119 -146.56945538 144.08979738 -145.5 131.609375 C-145.42306915 130.70750961 -145.34613831 129.80564423 -145.26687622 128.87644958 C-141.72136239 92.1855707 -121.98751047 57.22094331 -93.96826172 33.55419922 C-66.9067762 11.40242851 -34.91639817 0.02748846 0 0 Z " fill="#2991F9" transform="translate(255.375,10.75)"/>
<path d="M0 0 C1.65 3.63 3.3 7.26 5 11 C0.31945175 12.79132094 -4.36367489 14.46728708 -9.13769531 15.98974609 C-29.96933301 22.67326883 -48.82092488 31.2567399 -66 45 C-66.72832031 45.56203125 -67.45664063 46.1240625 -68.20703125 46.703125 C-84.57144975 60.00123234 -92.08462518 79.7401769 -95 100 C-95.11173944 102.52042546 -95.17559317 105.04319198 -95.20532227 107.56591797 C-95.21522186 108.29831192 -95.22512146 109.03070587 -95.23532104 109.78529358 C-95.26671427 112.18755954 -95.29160498 114.58984522 -95.31640625 116.9921875 C-95.33699497 118.66513561 -95.35799193 120.33807875 -95.37937927 122.01101685 C-95.43440192 126.40034945 -95.48389801 130.78972745 -95.53222656 135.17913818 C-95.59145118 140.45311414 -95.6575695 145.72700766 -95.72252655 151.00091553 C-95.82028663 159.00055973 -95.90931311 167.0002584 -96 175 C-112.17 175 -128.34 175 -145 175 C-145.12032643 156.9644054 -145.12032643 156.9644054 -145.14648438 149.16992188 C-145.16429378 143.88849644 -145.18516825 138.60722964 -145.22631836 133.32592773 C-145.2593464 129.05945558 -145.27694265 124.79315395 -145.28463173 120.52656364 C-145.2900985 118.91338358 -145.30076866 117.30021092 -145.31719017 115.68710518 C-145.57163373 89.61287304 -139.48873052 67.4457749 -120.875 48.3125 C-101.07714828 28.79107332 -73.41180173 18.93856446 -47.3125 11.125 C-46.66738464 10.93173126 -46.02226929 10.73846252 -45.35760498 10.53933716 C-38.99432111 8.64390169 -32.64725986 6.82849496 -26.14770508 5.46533203 C-23.71103943 4.93739242 -21.3016241 4.33072189 -18.88671875 3.7109375 C-18.03142578 3.49179687 -17.17613281 3.27265625 -16.29492188 3.046875 C-14.53643577 2.59375199 -12.77863484 2.13796264 -11.02148438 1.6796875 C-10.17263672 1.463125 -9.32378906 1.2465625 -8.44921875 1.0234375 C-7.68955811 0.82669434 -6.92989746 0.62995117 -6.1472168 0.42724609 C-4 0 -4 0 0 0 Z " fill="#4EB0FB" transform="translate(168,326)"/>
<path d="M0 0 C15.84 0 31.68 0 48 0 C48.70125 3.75375 49.4025 7.5075 50.125 11.375 C54.85250131 35.3009958 63.35224101 56.99449273 79 76 C82 79.74330357 82 79.74330357 82 82 C69.04588479 89.22469511 56.02701028 95.16757667 42 100 C40.9486084 100.36810791 40.9486084 100.36810791 39.87597656 100.74365234 C26.05922797 105.49251491 15.2961463 102.54974438 1.625 98.8125 C0.50230713 98.50762665 0.50230713 98.50762665 -0.64306641 98.19659424 C-3.66313673 97.37641097 -6.68262774 96.55430916 -9.699646 95.72296143 C-13.98944924 94.54095098 -18.28764532 93.40811634 -22.6015625 92.31640625 C-24.4014331 91.83740592 -26.20095099 91.35707692 -28 90.875 C-28.8048584 90.68268799 -29.6097168 90.49037598 -30.43896484 90.29223633 C-32.625 89.6796875 -32.625 89.6796875 -36 88 C-37.37427266 85.28100893 -37.71811995 83.94005968 -38 81 C-38.09732422 80.05656738 -38.19464844 79.11313477 -38.29492188 78.14111328 C-39.86445637 58.23296735 -39.86445637 58.23296735 -36.046875 51.61328125 C-33.48486585 49.42457098 -30.88676224 47.72956875 -28 46 C-14.76636557 33.53174368 -6.65013422 16.62533556 0 0 Z " fill="#323E65" transform="translate(350,229)"/>
<path d="M0 0 C17.15925818 -1.60188923 28.02813129 0.83779417 42.69335938 9.69238281 C48.80116467 13.15485161 55.69392513 15.33515198 62.5546875 16.71484375 C66.88388427 18.32970286 68.71896554 20.82867299 71.25 24.5 C74.82585214 29.50076834 78.09253155 32.93286636 83.1875 36.5 C87.05312175 39.80474917 88.29765713 42.1657282 88.72265625 47.12109375 C88.87071459 52.77893492 88.520743 58.36873222 88 64 C87.90912109 65.03656738 87.81824219 66.07313477 87.72460938 67.14111328 C87.49137804 69.76160998 87.24975729 72.38103496 87 75 C85.77071777 75.34256836 84.54143555 75.68513672 83.27490234 76.03808594 C78.64896134 77.32734347 74.02318786 78.61720119 69.39746094 79.90722656 C67.40759668 80.46207401 65.41768895 81.0167656 63.42773438 81.57128906 C61.49488828 82.10991921 59.56212786 82.6488569 57.62945557 83.18811035 C55.72920405 83.71790501 53.82861053 84.24647456 51.92767334 84.77380371 C47.85894314 85.90548452 43.79747119 87.04812767 39.75878906 88.28320312 C29.86273423 91.27976552 23.09356555 91.80132277 13.25 88.5 C12.4343457 88.23300293 11.61869141 87.96600586 10.77832031 87.69091797 C-4.12685696 82.71209969 -18.3407234 76.78164849 -32 69 C-30.68077147 65.21467592 -29.07462773 62.68689983 -26.4375 59.6875 C-12.32284824 42.42773562 -5.30516218 21.30312763 0 0 Z " fill="#323E66" transform="translate(112,242)"/>
<path d="M0 0 C8.28510825 4.58923347 8.28510825 4.58923347 11.828125 6.625 C31.66748131 17.88863455 55.31882155 22.13167411 77.75 16.375 C89.11509762 12.96069546 99.0948382 8.3637469 108.76953125 1.5390625 C111 0 111 0 112 0 C114.18769607 32.06657585 114.18769607 32.06657585 108.36865234 39.82128906 C106.25091559 42.10581337 104.04845382 44.25115076 101.73193359 46.33349609 C98.61899805 49.3288299 96.17894923 52.84211988 93.625 56.3125 C92.53529453 57.74947964 91.44282051 59.1843638 90.34765625 60.6171875 C89.79867676 61.33745117 89.24969727 62.05771484 88.68408203 62.79980469 C85.25810906 67.27572067 81.79376141 71.72190339 78.32324219 76.16333008 C75.23841089 80.11237919 72.17545494 84.07577906 69.14453125 88.06640625 C68.51345459 88.89213135 67.88237793 89.71785645 67.23217773 90.56860352 C66.02104466 92.15420551 64.81582625 93.74434811 63.61743164 95.33959961 C62.79746704 96.4089978 62.79746704 96.4089978 61.9609375 97.5 C61.48446777 98.1290625 61.00799805 98.758125 60.51708984 99.40625 C58.82798941 101.18070247 57.23683658 102.03714325 55 103 C48.50244162 95.11909048 42.07704495 87.21156107 36 79 C31.45688494 72.86244073 26.72328954 66.91883131 21.87304688 61.02197266 C17.43483325 55.59971467 13.20404756 50.04088998 9.04492188 44.40234375 C8.58666016 43.78230469 8.12839844 43.16226563 7.65625 42.5234375 C7.26244141 41.98638184 6.86863281 41.44932617 6.46289062 40.89599609 C4.89057293 38.78633216 4.89057293 38.78633216 2.36450195 36.26757812 C-0.50767132 32.82344304 -0.65102498 29.55214487 -0.48828125 25.1953125 C-0.48120651 24.4713327 -0.47413177 23.74735291 -0.46684265 23.00143433 C-0.43904109 20.70820024 -0.37634075 18.41748513 -0.3125 16.125 C-0.28739822 14.56253548 -0.26458834 13.00003236 -0.24414062 11.4375 C-0.18926274 7.62404195 -0.10309912 3.81244674 0 0 Z " fill="#E5B07C" transform="translate(200,285)"/>
<path d="M0 0 C7.11703364 0.06721258 14.23352712 0.15710245 21.35009766 0.26245117 C23.76897756 0.29561976 26.18793335 0.32367658 28.60693359 0.34643555 C32.0924501 0.38012935 35.57727615 0.4324544 39.0625 0.48828125 C40.67390869 0.49786613 40.67390869 0.49786613 42.31787109 0.50764465 C51.35461609 0.68293403 58.41193921 2.37884956 65.03955078 8.87890625 C72.90930944 17.39353429 72.7850779 26.89629613 72.65185547 37.86767578 C72.62504814 40.49528175 72.65168904 43.11861777 72.68359375 45.74609375 C72.70685262 56.43433777 71.78015658 64.04919283 64.89453125 72.62109375 C64.20746094 73.22050781 63.52039063 73.81992188 62.8125 74.4375 C61.80123047 75.36369141 61.80123047 75.36369141 60.76953125 76.30859375 C52.67445438 81.25241362 44.22897017 81.37389816 34.9921875 81.07421875 C33.7855545 81.04777786 32.57892151 81.02133698 31.33572388 80.99409485 C27.51494435 80.90694014 23.69518086 80.79757709 19.875 80.6875 C17.27086873 80.62417815 14.66670158 80.56231433 12.0625 80.50195312 C5.70782095 80.35149717 -0.64617483 80.182847 -7 80 C-6.79318604 79.19369141 -6.58637207 78.38738281 -6.37329102 77.55664062 C-5.59970009 74.53092472 -4.83052397 71.50412864 -4.06420898 68.4765625 C-3.57153812 66.5356071 -3.07390082 64.59591449 -2.57617188 62.65625 C-2.26357422 61.41875 -1.95097656 60.18125 -1.62890625 58.90625 C-1.34088135 57.77509766 -1.05285645 56.64394531 -0.75610352 55.47851562 C0.66998114 48.91769734 1.15229595 42.57854814 1.1328125 35.87890625 C1.13376923 35.13470932 1.13472595 34.39051239 1.13571167 33.62376404 C1.13638721 32.06159378 1.13457698 30.4994206 1.13037109 28.93725586 C1.12502157 26.57203741 1.13033358 24.20700947 1.13671875 21.84179688 C1.13605771 20.31249959 1.13477601 18.78320242 1.1328125 17.25390625 C1.13584885 16.21285484 1.13584885 16.21285484 1.13894653 15.15077209 C1.11509235 10.04853076 0.64528986 5.05961523 0 0 Z " fill="#FCDA1E" transform="translate(357,149)"/>
<path d="M0 0 C1.0415625 -0.02900391 2.083125 -0.05800781 3.15625 -0.08789062 C7.48846685 -0.1239001 10.81134969 -0.02941152 14.83203125 1.66015625 C17.69866021 5.90076859 17.15317402 10.07877102 16.9375 15.0625 C16.91494141 16.04605469 16.89238281 17.02960938 16.86914062 18.04296875 C16.81028805 20.4676947 16.72813431 22.88931983 16.625 25.3125 C17.27984375 25.5496875 17.9346875 25.786875 18.609375 26.03125 C21.02221637 27.05639504 23.22635708 28.14594081 25.515625 29.40625 C26.22589844 29.79683594 26.93617188 30.18742187 27.66796875 30.58984375 C29.12738214 31.39833294 30.58320274 32.21334531 32.03515625 33.03515625 C37.12380188 35.8132817 41.9098073 37.35156813 47.625 38.3125 C47.625 38.9725 47.625 39.6325 47.625 40.3125 C48.65947266 40.49425781 48.65947266 40.49425781 49.71484375 40.6796875 C54.9929718 41.62091747 60.23635381 42.62579557 65.45703125 43.84765625 C73.15390906 45.4979778 80.65884231 45.50827017 88.5 45.5 C89.53980515 45.50108765 89.53980515 45.50108765 90.60061646 45.50219727 C100.72945416 45.50102235 110.63420197 45.12606463 120.625 43.3125 C121.02138672 41.91644531 121.02138672 41.91644531 121.42578125 40.4921875 C123.09575159 36.06431825 125.42118032 34.31229276 129.625 32.3125 C133.91813602 31.63463642 135.94219356 31.9644026 139.8125 33.9375 C143.74597688 37.25910269 146.26417406 40.14754435 147.125 45.3125 C146.26417406 50.47745565 143.74597688 53.36589731 139.8125 56.6875 C135.98490051 58.63882523 133.87056929 58.9190099 129.625 58.3125 C128.738125 57.631875 127.85125 56.95125 126.9375 56.25 C121.27368158 52.93720055 115.09343728 54.66415399 108.85351562 55.83056641 C102.97703941 56.70777179 97.05570548 56.49709848 91.125 56.5 C89.83851563 56.51224609 88.55203125 56.52449219 87.2265625 56.53710938 C75.30545278 56.55509898 63.77149638 55.2142635 52.25 52.125 C51.45255371 51.91214355 50.65510742 51.69928711 49.83349609 51.47998047 C40.74301219 48.93970026 31.55689737 45.58312667 23.65625 40.34375 C14.8571584 34.57230282 6.92707706 34.55129028 -3.43896484 34.66259766 C-5.07986084 34.66912354 -5.07986084 34.66912354 -6.75390625 34.67578125 C-7.7394751 34.69938721 -8.72504395 34.72299316 -9.74047852 34.74731445 C-12.375 34.3125 -12.375 34.3125 -14.69750977 32.66308594 C-16.82198175 29.68616609 -16.86441278 27.97546717 -16.8359375 24.33984375 C-16.83207031 23.19322266 -16.82820313 22.04660156 -16.82421875 20.86523438 C-16.79972656 19.67220703 -16.77523437 18.47917969 -16.75 17.25 C-16.74871094 16.05310547 -16.74742188 14.85621094 -16.74609375 13.62304688 C-16.65605357 4.73408036 -16.65605357 4.73408036 -14.375 1.3125 C-9.67077569 -0.25557477 -4.92755019 0.04540126 0 0 Z " fill="#7A86BD" transform="translate(122.375,207.6875)"/>
<path d="M0 0 C0.029729 0.95700806 0.029729 0.95700806 0.06005859 1.93334961 C0.9466481 29.20944716 3.29152505 55.60744298 15.71484375 80.42578125 C17 83 17 83 17 85 C8.47770135 84.49561906 0.28089754 83.0727037 -8 81 C-9.06605469 80.74347656 -10.13210937 80.48695313 -11.23046875 80.22265625 C-16.55625761 77.87149699 -17.85297971 72.10612598 -20 67 C-20.51820313 65.79601562 -21.03640625 64.59203125 -21.5703125 63.3515625 C-25.61098489 53.54120342 -27.77829489 43.58941546 -29.609375 33.16455078 C-29.93461407 31.36231979 -30.3054114 29.56838404 -30.6875 27.77734375 C-32.2279827 20.5135399 -32.19458248 13.40494426 -32 6 C-28.14660485 5.18381232 -24.29215519 4.37271415 -20.4375 3.5625 C-19.35146484 3.33240234 -18.26542969 3.10230469 -17.14648438 2.86523438 C-3.48471467 0 -3.48471467 0 0 0 Z " fill="#F7C594" transform="translate(184,169)"/>
<path d="M0 0 C8.33665925 4.62460743 8.33665925 4.62460743 11.93359375 6.66015625 C17.20194051 9.61075919 22.41621067 12.09605053 28.1015625 14.140625 C30 15 30 15 31 17 C31.09061856 18.72606453 31.11754501 20.45564507 31.11352539 22.18408203 C31.11344986 23.26505157 31.11337433 24.34602112 31.11329651 25.45974731 C31.10813522 26.63060883 31.10297394 27.80147034 31.09765625 29.0078125 C31.0962413 30.20356903 31.09482635 31.39932556 31.09336853 32.63131714 C31.08775663 36.46256987 31.07520208 40.29376484 31.0625 44.125 C31.05748653 46.71744707 31.05292336 49.30989506 31.04882812 51.90234375 C31.03778333 58.26824898 31.02103359 64.63412037 31 71 C25.65951435 65.73325328 25.65951435 65.73325328 23.34375 62.828125 C22.88460205 62.25400879 22.4254541 61.67989258 21.95239258 61.08837891 C21.47310303 60.48171387 20.99381348 59.87504883 20.5 59.25 C19.99170654 58.6111084 19.48341309 57.9722168 18.9597168 57.31396484 C14.26650651 51.39013497 9.67228248 45.39070673 5.1015625 39.37207031 C4.57949219 38.68467773 4.05742187 37.99728516 3.51953125 37.2890625 C3.05651611 36.67756348 2.59350098 36.06606445 2.11645508 35.43603516 C1.06969827 34.02828717 1.06969827 34.02828717 0 33 C-0.08843793 30.55169574 -0.11528752 28.13179401 -0.09765625 25.68359375 C-0.0962413 24.95253922 -0.09482635 24.22148468 -0.09336853 23.46827698 C-0.08775408 21.12464368 -0.07519922 18.78110461 -0.0625 16.4375 C-0.05748686 14.85221492 -0.05292363 13.26692834 -0.04882812 11.68164062 C-0.03777997 7.7877239 -0.02050572 3.89387795 0 0 Z " fill="#DDA268" transform="translate(200,285)"/>
<path d="M0 0 C1.0415625 -0.02900391 2.083125 -0.05800781 3.15625 -0.08789062 C4.16429688 -0.09626953 5.17234375 -0.10464844 6.2109375 -0.11328125 C7.1292334 -0.12786377 8.0475293 -0.14244629 8.99365234 -0.1574707 C12.54997929 0.47770552 14.1613155 1.69074 16.625 4.3125 C17.27197266 7.08984375 17.27197266 7.08984375 17.2890625 10.25 C17.29873047 11.96316406 17.29873047 11.96316406 17.30859375 13.7109375 C17.28925781 14.89945313 17.26992187 16.08796875 17.25 17.3125 C17.26933594 18.50101563 17.28867188 19.68953125 17.30859375 20.9140625 C17.30214844 22.05617187 17.29570312 23.19828125 17.2890625 24.375 C17.28060303 25.93927734 17.28060303 25.93927734 17.27197266 27.53515625 C16.625 30.3125 16.625 30.3125 14.43334961 32.65039062 C11.31882212 34.49371003 9.61390286 34.82678511 6.02734375 34.84375 C4.97869141 34.84890625 3.93003906 34.8540625 2.84960938 34.859375 C1.76486328 34.84390625 0.68011719 34.8284375 -0.4375 34.8125 C-2.07041992 34.83570313 -2.07041992 34.83570313 -3.73632812 34.859375 C-4.78369141 34.85421875 -5.83105469 34.8490625 -6.91015625 34.84375 C-8.33920288 34.83698242 -8.33920288 34.83698242 -9.79711914 34.83007812 C-13.19546451 34.14776994 -14.35707169 33.11120392 -16.375 30.3125 C-16.86083984 27.51928711 -16.86083984 27.51928711 -16.8359375 24.33984375 C-16.83207031 23.19322266 -16.82820313 22.04660156 -16.82421875 20.86523438 C-16.79972656 19.67220703 -16.77523437 18.47917969 -16.75 17.25 C-16.74871094 16.05310547 -16.74742188 14.85621094 -16.74609375 13.62304688 C-16.65605357 4.73408036 -16.65605357 4.73408036 -14.375 1.3125 C-9.67077569 -0.25557477 -4.92755019 0.04540126 0 0 Z " fill="#FCDA1E" transform="translate(122.375,207.6875)"/>
<path d="M0 0 C4.29 0.33 8.58 0.66 13 1 C17.49438609 26.00002265 16.60304873 56.79390254 5 80 C1.04 80 -2.92 80 -7 80 C-6.79318604 79.19369141 -6.58637207 78.38738281 -6.37329102 77.55664062 C-5.59970009 74.53092472 -4.83052397 71.50412864 -4.06420898 68.4765625 C-3.57153812 66.5356071 -3.07390082 64.59591449 -2.57617188 62.65625 C-2.26357422 61.41875 -1.95097656 60.18125 -1.62890625 58.90625 C-1.34088135 57.77509766 -1.05285645 56.64394531 -0.75610352 55.47851562 C0.66998114 48.91769734 1.15229595 42.57854814 1.1328125 35.87890625 C1.13376923 35.13470932 1.13472595 34.39051239 1.13571167 33.62376404 C1.13638721 32.06159378 1.13457698 30.4994206 1.13037109 28.93725586 C1.12502157 26.57203741 1.13033358 24.20700947 1.13671875 21.84179688 C1.13961959 14.50179683 1.05313958 7.2800363 0 0 Z " fill="#FBC630" transform="translate(357,149)"/>
<path d="M0 0 C28.40829025 2.76600004 28.40829025 2.76600004 33.76171875 7.76953125 C35.71386678 10.51049292 37.37446716 13.23952355 38.93017578 16.21972656 C40.93643508 19.55830319 43.72521096 22.17150079 46.5 24.875 C47.05405518 25.42027344 47.60811035 25.96554687 48.17895508 26.52734375 C55.29210938 33.38461404 63.27548877 38.4270074 72 43 C72 43.33 72 43.66 72 44 C66.83992263 44.18046903 62.22465113 43.60341349 57.25 42.3125 C56.5497168 42.13243408 55.84943359 41.95236816 55.12792969 41.7668457 C49.07690862 40.14162309 43.54318628 37.93607938 38 35 C37.04867187 34.50886719 36.09734375 34.01773438 35.1171875 33.51171875 C20.85526408 25.71048388 7.84520796 14.32755128 0 0 Z " fill="#F7C594" transform="translate(178,260)"/>
<path d="M0 0 C4.77884478 2.43627381 7.5270844 5.24439308 10 10 C10.651794 13.91076402 10.21019695 15.59577511 8.375 19.125 C4.86621846 23.37247239 2.03193569 25.70972347 -3.5 26.5 C-8.63999354 25.76571521 -11.57875265 23.70549682 -14.875 19.75 C-16.36751074 16.10164042 -16.67896674 12.84747819 -16 9 C-12.38395042 1.90182859 -8.00364446 -0.98290371 0 0 Z " fill="#616B9E" transform="translate(259,240)"/>
<path d="M0 0 C1.02802734 0.00322266 2.05605469 0.00644531 3.11523438 0.00976562 C4.72301758 0.02233398 4.72301758 0.02233398 6.36328125 0.03515625 C7.44673828 0.03966797 8.53019531 0.04417969 9.64648438 0.04882812 C12.3229721 0.06061882 14.99934902 0.07707562 17.67578125 0.09765625 C17.67578125 0.42765625 17.67578125 0.75765625 17.67578125 1.09765625 C11.73578125 1.42765625 5.79578125 1.75765625 -0.32421875 2.09765625 C-1.35050121 5.17650364 -1.4532839 7.31029255 -1.45703125 10.53515625 C-1.45832031 11.59476563 -1.45960937 12.654375 -1.4609375 13.74609375 C-1.45707031 14.85210937 -1.45320313 15.958125 -1.44921875 17.09765625 C-1.45308594 18.20367187 -1.45695312 19.3096875 -1.4609375 20.44921875 C-1.45964844 21.50882813 -1.45835938 22.5684375 -1.45703125 23.66015625 C-1.45590332 24.63082031 -1.45477539 25.60148437 -1.45361328 26.6015625 C-1.42866627 29.22879879 -1.42866627 29.22879879 -0.32421875 32.09765625 C5.61578125 32.42765625 11.55578125 32.75765625 17.67578125 33.09765625 C17.67578125 33.42765625 17.67578125 33.75765625 17.67578125 34.09765625 C13.75936414 34.21384389 9.84339024 34.28490279 5.92578125 34.34765625 C4.25902344 34.39792969 4.25902344 34.39792969 2.55859375 34.44921875 C0.95371094 34.46855469 0.95371094 34.46855469 -0.68359375 34.48828125 C-1.66811523 34.50922852 -2.65263672 34.53017578 -3.66699219 34.55175781 C-7.15461663 33.95574702 -8.27996815 32.96216762 -10.32421875 30.09765625 C-10.81005859 27.30444336 -10.81005859 27.30444336 -10.78515625 24.125 C-10.78128906 22.97837891 -10.77742188 21.83175781 -10.7734375 20.65039062 C-10.74894531 19.45736328 -10.72445312 18.26433594 -10.69921875 17.03515625 C-10.69792969 15.83826172 -10.69664063 14.64136719 -10.6953125 13.40820312 C-10.60527232 4.51923661 -10.60527232 4.51923661 -8.32421875 1.09765625 C-5.26502487 0.07792496 -3.2000385 -0.01767977 0 0 Z " fill="#EFC236" transform="translate(116.32421875,207.90234375)"/>
<path d="M0 0 C2.4375 0.8125 2.4375 0.8125 4.4375 2.8125 C4.66305081 5.34042663 4.76188591 7.72305576 4.75 10.25 C4.76611328 10.93126953 4.78222656 11.61253906 4.79882812 12.31445312 C4.80172541 15.27258512 4.77702097 17.31687744 3.078125 19.796875 C1.4375 20.8125 1.4375 20.8125 -1.125 20.625 C-3.5625 19.8125 -3.5625 19.8125 -5.5625 17.8125 C-5.78805081 15.28457337 -5.88688591 12.90194424 -5.875 10.375 C-5.89111328 9.69373047 -5.90722656 9.01246094 -5.92382812 8.31054688 C-5.92672541 5.35241488 -5.90202097 3.30812256 -4.203125 0.828125 C-2.5625 -0.1875 -2.5625 -0.1875 0 0 Z " fill="#3F4F7A" transform="translate(256.5625,423.1875)"/>
<path d="M0 0 C2.4375 0.8125 2.4375 0.8125 4.4375 2.8125 C4.703125 5.96484375 4.703125 5.96484375 4.6875 9.75 C4.69265625 10.99652344 4.6978125 12.24304688 4.703125 13.52734375 C4.4375 16.8125 4.4375 16.8125 2.4375 19.8125 C-0.5625 20.125 -0.5625 20.125 -3.5625 19.8125 C-6.03635671 17.33864329 -5.84821102 15.83745772 -5.88476562 12.45117188 C-5.88154297 11.76603516 -5.87832031 11.08089844 -5.875 10.375 C-5.89111328 9.69373047 -5.90722656 9.01246094 -5.92382812 8.31054688 C-5.92672541 5.35241488 -5.90202097 3.30812256 -4.203125 0.828125 C-2.5625 -0.1875 -2.5625 -0.1875 0 0 Z " fill="#3E4D78" transform="translate(256.5625,461.1875)"/>
</svg>
