<svg xmlns="http://www.w3.org/2000/svg" xmlns:xlink="http://www.w3.org/1999/xlink" width="153.635" height="206.88" viewBox="0 0 153.635 206.88">
  <defs>
    <radialGradient id="radial-gradient" cx="0.817" cy="0.695" r="0.555" gradientTransform="translate(-0.461) scale(1.923 1)" gradientUnits="objectBoundingBox">
      <stop offset="0"/>
      <stop offset="1" stop-color="#fff" stop-opacity="0"/>
    </radialGradient>
  </defs>
  <g id="Group_195" data-name="Group 195" transform="translate(-57.406 -292.143)">
    <path id="Path_2642" data-name="Path 2642" d="M143.309,385.346a16.915,16.915,0,0,0,5.234,27.5,17.7,17.7,0,0,0-3.91,2.917,16.891,16.891,0,0,0,.8,24.678c-.267.237-.551.488-.8.74a16.912,16.912,0,0,0,6.653,28.035,14.217,14.217,0,0,0-4.888,3.169,13.961,13.961,0,0,0,.946,20.625,133.738,133.738,0,0,1-21.853-3.343c-25.134-5.55-33.6-16.367-33.6-16.367s-34.484,4.682-34.484-40.034S83.99,390.313,83.99,390.313a200.764,200.764,0,0,1,18.7-22.5c10.233-10.375,15.342-45.585,7.9-62.535s36.518-21.633,40.32,21.035-6.276,44.134,10.516,54.067h-6.133A16.991,16.991,0,0,0,143.309,385.346Z" transform="translate(0 0.534)" fill="#ecb851"/>
    <path id="Path_2643" data-name="Path 2643" d="M143.309,385.346a16.915,16.915,0,0,0,5.234,27.5,17.7,17.7,0,0,0-3.91,2.917,16.891,16.891,0,0,0,.8,24.678c-.267.237-.551.488-.8.74a16.912,16.912,0,0,0,6.653,28.035,14.217,14.217,0,0,0-4.888,3.169,13.961,13.961,0,0,0,.946,20.625,133.738,133.738,0,0,1-21.853-3.343c-25.134-5.55-33.6-16.367-33.6-16.367s-34.484,4.682-34.484-40.034S83.99,390.313,83.99,390.313a200.764,200.764,0,0,1,18.7-22.5c10.233-10.375,15.342-45.585,7.9-62.535s36.518-21.633,40.32,21.035-6.276,44.134,10.516,54.067h-6.133A16.991,16.991,0,0,0,143.309,385.346Z" transform="translate(0 0.534)" fill="url(#radial-gradient)" style="mix-blend-mode: overlay;isolation: isolate"/>
    <path id="Path_2644" data-name="Path 2644" d="M178.681,363.9a16.872,16.872,0,0,1-4.982,11.969,17.633,17.633,0,0,1-3.879,2.917H169.8a16.757,16.757,0,0,1-8.057,2.049H124.33a16.631,16.631,0,0,1-6.749-1.419,16.934,16.934,0,0,1,6.749-32.466h37.417A16.991,16.991,0,0,1,178.681,363.9Z" transform="translate(30.962 33.96)" fill="#ecb851"/>
    <path id="Path_2645" data-name="Path 2645" d="M179.5,382.126a16.928,16.928,0,0,1-4.983,11.967c-.251.253-.52.505-.787.742a16.951,16.951,0,0,1-11.164,4.225H125.131a16.925,16.925,0,0,1-11.967-28.9,17.7,17.7,0,0,1,3.91-2.917,16.631,16.631,0,0,0,6.749,1.419H161.24a16.757,16.757,0,0,0,8.057-2.049h.016A16.982,16.982,0,0,1,179.5,382.126Z" transform="translate(31.469 46.139)" fill="#ecb851"/>
    <path id="Path_2646" data-name="Path 2646" d="M179.5,396.746a16.987,16.987,0,0,1-16.934,16.934H125.131a16.443,16.443,0,0,1-5.314-.868,16.912,16.912,0,0,1-6.653-28.035c.253-.253.536-.5.8-.74a16.869,16.869,0,0,0,11.164,4.225h37.433a16.951,16.951,0,0,0,11.164-4.225A16.915,16.915,0,0,1,179.5,396.746Z" transform="translate(31.469 56.936)" fill="#ecb851"/>
    <path id="Path_2647" data-name="Path 2647" d="M168.7,414.861a14,14,0,0,1-13.987,13.985h-30.9a13.982,13.982,0,0,1-9.888-23.873,14.217,14.217,0,0,1,4.888-3.169,16.443,16.443,0,0,0,5.314.868h37.433A14.017,14.017,0,0,1,168.7,414.861Z" transform="translate(32.477 67.944)" fill="#ecb851"/>
    <path id="Path_2648" data-name="Path 2648" d="M73.856,418.052c-5.055-15.038-3.49-34.666,9.293-45.846,17.2-16.05,20.8-33.307,20.909-55.994a65.041,65.041,0,0,0-2-15.631,50.7,50.7,0,0,1,4.366,15.478c2.5,23.831-1.725,43.1-20.186,59.5-12.286,10.263-14.249,27.075-12.382,42.5Z" transform="translate(8.532 5.229)" fill="#d28920"/>
    <path id="Path_2649" data-name="Path 2649" d="M75.889,389.712c.96,8.27,2.509,17.317,7.764,23.865,3.547,3.463,8.036,5.688,12.628,7.729a177.706,177.706,0,0,0,40.036,11.786,70.828,70.828,0,0,1-21.372-1.113c-11.434-2.332-23.29-5.826-32.443-13.511-7.494-7.155-8.176-19.173-6.613-28.756Z" transform="translate(11.027 60.452)" fill="#d28920"/>
    <path id="Path_2650" data-name="Path 2650" d="M179.351,363.937a17.071,17.071,0,0,1-8.2,16.084c-.306.215-.343.144-.682.173l.658-.167a17.743,17.743,0,0,1-6.29,2.373c-10.373.847-20.763.7-31.158.858-4.213-.084-8.705.363-12.859-.5C106.03,379.471,101,360,113.011,350.55A16.661,16.661,0,0,1,125,346.987c-19.568,2.251-20.517,29.786-.515,31.507,11.316-.065,22.648.053,33.956.453,4.08.193,7.722.487,11.376-1.33l.382-.183.275.015c.071,0-.664.173-.651.173a16.848,16.848,0,0,0,6.446-5.447,17.342,17.342,0,0,0,3.082-8.239Z" transform="translate(30.293 33.926)" fill="#d28920"/>
    <path id="Path_2651" data-name="Path 2651" d="M180.4,382.8c.967,9.62-7.891,18.637-17.553,18.389-11.245.445-22.731.664-34,.834-21.466,2.167-30.838-25.343-11.912-36l.983-.513.926.432c3.093,1.694,8.674,1.375,12.121,1.527q13.2.335,26.383,1.02c4.378.262,8.832.776,12.847-1.21-3.665,2.59-8.516,2.724-12.848,2.888q-13.184.687-26.381,1.022l-6.637.177a18.782,18.782,0,0,1-7.228-1.487l1.908-.083c-12.819,7.324-8.2,26.872,6.519,27.6,2.086.021,7.949.123,10.119.159q13.6.2,27.2.721c8.84.773,17.027-6.5,17.551-15.48Z" transform="translate(30.563 45.462)" fill="#d28920"/>
    <path id="Path_2652" data-name="Path 2652" d="M175.413,409.892a16.8,16.8,0,0,1-10.049,5.641c-3.409.432-8.111.439-11.54.662-7.641.338-15.281.549-22.922.735-1.8-.019-3.987.128-5.839.076-18.374-.956-24.99-24.02-10.184-34.873l1.522,1.335c3.508,3.289,8.2,4.075,12.885,3.887,5.152.086,10.3.285,15.457.423,5.152.215,10.3.379,15.457.672,5.186.549,10.2.034,14.424-3.234a16.914,16.914,0,0,1-10.532,5l-3.892.215c-5.154.295-10.305.457-15.457.674-5.154.138-10.305.335-15.457.423-5.612.457-11.666-.62-15.958-4.564l3.076,0a14.729,14.729,0,0,0-3.116,17.982,15.486,15.486,0,0,0,14.748,7.8l2.865.05c7.641.186,15.281.4,22.922.735,3.241.065,8.226.512,11.373.461a17,17,0,0,0,10.216-4.093Z" transform="translate(30.572 55.757)" fill="#d28920"/>
    <path id="Path_2653" data-name="Path 2653" d="M165.51,425.646c-4.375,5.824-12.568,5.1-19.077,5.523q-10.082.517-20.172.724c-15.626,1.511-24.231-17.832-12.357-28.315a16.982,16.982,0,0,1,5.819-3.225l.708.261c3.137,1.213,6.6.8,9.905,1.028,3.57.143,7.141.23,10.71.436,7.141.332,14.28.8,21.421,1.493-10.705,1.043-21.4,1.561-32.131,1.929-3.785.1-7.651.539-11.326-.706l1.5-.029a12.184,12.184,0,0,0-6.09,5.592c-3.48,6.392.363,14.976,7.4,16.759a15.184,15.184,0,0,0,4.443.481q10.089.2,20.172.724l10.033.559a14.089,14.089,0,0,0,9.044-3.234Z" transform="translate(31.567 67.045)" fill="#d28920"/>
    <path id="Path_2654" data-name="Path 2654" d="M90.7,305.811c-3.362-5.813.816-11.253,6.671-12.877,18.253-4.566,32.678,11.391,35.287,28.252a158.215,158.215,0,0,1,1.079,32.267c-.222,5.2-1.171,10.584-.941,15.7.031,5.362,4.81,8.84,8.739,11.765a32.487,32.487,0,0,1-6.922-4.158c-4.7-3.571-4.671-10.192-4.658-15.465l.016-7.947c-.183-10.409-.431-21.019-2.057-31.284-1.652-9.8-6.671-19.393-15.619-24.187-7.241-4.593-25.157-4.739-21.6,7.939Z" transform="translate(19.887)" fill="#f0c982"/>
  </g>
</svg>
