<svg xmlns="http://www.w3.org/2000/svg" width="60" height="60" viewBox="0 0 60 60">
  <g id="Group_132" data-name="Group 132" transform="translate(-8995 -2519)">
    <rect id="Rectangle_22" data-name="Rectangle 22" width="60" height="60" rx="30" transform="translate(8995 2519)" fill="#fff"/>
    <g id="Gravity-Payments" transform="translate(9004.559 2542.478)">
      <path id="Path_1413" data-name="Path 1413" d="M-47.411-4.356c.17.145.331.292.487.452l.1-.607h1.72q.01,1.277.016,2.554,0,.593.007,1.186,0,.574.006,1.147,0,.218,0,.435a5.061,5.061,0,0,1-1.1,3.659,4.387,4.387,0,0,1-3.21,1.062,3.9,3.9,0,0,1-2.739-1.406,1.514,1.514,0,0,1-.468-1.049c2.055-.116,2.055-.116,2.738.464a1.711,1.711,0,0,0,1.207.244,2.567,2.567,0,0,0,1.416-.809,5.4,5.4,0,0,0,.3-.91l-.24.234a3.083,3.083,0,0,1-2.137.6,4,4,0,0,1-2.724-1.516,4.579,4.579,0,0,1-.6-3.6A4.017,4.017,0,0,1-50.607-4.5,3.266,3.266,0,0,1-47.411-4.356Zm-3.233,2.187A2.249,2.249,0,0,0-50.93-.516,2.413,2.413,0,0,0-49.857.951a2.279,2.279,0,0,0,1.517.2A2.382,2.382,0,0,0-47.025-.061a2.7,2.7,0,0,0-.006-1.8A2.365,2.365,0,0,0-48.34-3.1,2.189,2.189,0,0,0-50.644-2.169Z" transform="translate(52.188 6.712)" fill="#233751"/>
      <path id="Path_1414" data-name="Path 1414" d="M-48.6-5.65c.115.093.229.188.341.285l.1-.607h1.618V1.21h-1.618l-.1-.708L-48.4.624a3.438,3.438,0,0,1-2.436.818A3.652,3.652,0,0,1-53.347.04a3.7,3.7,0,0,1-.72-2.466l0-.269a3.25,3.25,0,0,1,.447-1.76l.134-.218a3.9,3.9,0,0,1,2.231-1.571A3.475,3.475,0,0,1-48.6-5.65Zm-3.117,1.713a2.409,2.409,0,0,0-.575,1.777,2.56,2.56,0,0,0,1.2,1.751,2.826,2.826,0,0,0,1.751-.006,3,3,0,0,0,1.081-1.309,2.673,2.673,0,0,0-.354-2.062,1.962,1.962,0,0,0-1.314-.791A2.045,2.045,0,0,0-51.716-3.937Z" transform="translate(65.66 8.173)" fill="#233751"/>
      <path id="Path_1415" data-name="Path 1415" d="M0,0H2.023C2.544,1.377,3.044,2.761,3.54,4.147c.388-.91.745-1.831,1.094-2.756L4.788.984,5.159,0H7.283q-.834,2.022-1.7,4.028Q4.786,5.847,4.015,7.675L3.9,7.953l-.66,1.556H1.214a18.528,18.528,0,0,1,.7-1.745l.1-.217q.1-.21.2-.418A1.434,1.434,0,0,0,2.24,5.821l-.105-.262-.12-.3-.13-.321-.133-.333q-.211-.526-.424-1.052l-.283-.706C.6,1.72.6,1.72.122.6A1.072,1.072,0,0,1,0,0Z" transform="translate(34.599 2.201)" fill="#233751"/>
      <path id="Path_1416" data-name="Path 1416" d="M0-.09H1.922C2.491,1.35,3.021,2.8,3.54,4.26c.4-.954.725-1.934,1.057-2.913L4.819.694l.068-.2c.159-.468.159-.468.272-.58C5.3-.1,5.446-.1,5.589-.1h.262l.275,0H6.4l.678,0a5.914,5.914,0,0,1-.452,1.4l-.107.264Q6.35,2,6.177,2.42L5.941,3Q5.106,5.05,4.249,7.092H2.832c-.377-.816-.727-1.639-1.064-2.472L1.614,4.24l-.32-.791q-.2-.507-.411-1.013Q.725,2.045.567,1.653L.342,1.1.206.76.085.462A1.137,1.137,0,0,1,0-.09Z" transform="translate(19.83 2.29)" fill="#233751"/>
      <path id="Path_1417" data-name="Path 1417" d="M-7.191,0H-5.37V2.428h1.012V4.046H-5.37V9.61H-7.191V4.046H-8V2.428h.809Z" transform="translate(38.35 -0.227)" fill="#233751"/>
      <path id="Path_1418" data-name="Path 1418" d="M-29.662,0V1.818l-.424.063a1.266,1.266,0,0,0-.79.417,3.586,3.586,0,0,0-.335,1.924l-.006.283q-.01.445-.019.89-.007.3-.013.606-.016.74-.031,1.481H-33V.3h1.618l.1.3L-31,.358A1.632,1.632,0,0,1-29.662,0Z" transform="translate(41.197 1.9)" fill="#233751"/>
      <path id="Path_1419" data-name="Path 1419" d="M0,0H1.821V7.182H0Z" transform="translate(27.518 2.201)" fill="#233751"/>
      <path id="Path_1420" data-name="Path 1420" d="M-10.439-.04a1.327,1.327,0,0,1,.7.448,1.518,1.518,0,0,1,.1.91,1.445,1.445,0,0,1-.607.607c-.7.069-.7.069-1.113-.2a1.366,1.366,0,0,1-.251-1C-11.469.1-11.02-.076-10.439-.04Z" transform="translate(39.076 -0.434)" fill="#91c73e"/>
      <path id="Path_1421" data-name="Path 1421" d="M-2.7,0h.3l.506,1.012A5.631,5.631,0,0,0-1.28,0l.3.1.3,1.922-.4.1-.3-.708-.3.708h-.3l-.3-.607h-.1l-.2.607H-3A19.208,19.208,0,0,1-2.7,0Z" transform="translate(20.807 10.698)" fill="#91c73e"/>
      <path id="Path_1422" data-name="Path 1422" d="M0,0A2.4,2.4,0,0,1,.784.569L.972.763,1.113.91l.1-.91H1.72V2.124a1.088,1.088,0,0,1-.778-.506L.757,1.4.607,1.214l-.1-.1L.4,2.124H0Z" transform="translate(25.191 10.698)" fill="#91c73e"/>
      <path id="Path_1423" data-name="Path 1423" d="M0,0H1.315V.506H.506v.3h.708v.4H.506v.4h.809v.506H0Z" transform="translate(21.954 10.698)" fill="#91c73e"/>
      <path id="Path_1424" data-name="Path 1424" d="M-4.821,0a1.091,1.091,0,0,1,.8.253.807.807,0,0,1,.2.607.778.778,0,0,1-.348.48,1.177,1.177,0,0,1-.676.114v.708l-.506-.1q0-.477-.006-.955l0-.275V.569l0-.242C-5.342-.03-5.134.013-4.821,0Zm-.025.544v.4l.506-.1-.1-.3Z" transform="translate(13.448 10.66)" fill="#91c73e"/>
      <path id="Path_1425" data-name="Path 1425" d="M-7.191,0h.3q.2.445.4.891l.117.255.111.246.1.226a.983.983,0,0,1,.074.505,3.975,3.975,0,0,1-.506-.1l-.1-.2A1.664,1.664,0,0,0-7.1,1.758l-.4-.038-.1.4H-8a4.063,4.063,0,0,1,.462-1.4l.1-.211Q-7.315.254-7.191,0Zm.1.91-.1.4.3-.1Z" transform="translate(19.131 10.698)" fill="#91c73e"/>
      <path id="Path_1426" data-name="Path 1426" d="M-11.854-.826l-.1.506-.607-.1a3.27,3.27,0,0,0,.575.487A.655.655,0,0,1-11.7.6a.693.693,0,0,1-.221.487,1.37,1.37,0,0,1-.847.114,1.992,1.992,0,0,1-.4-.2l.1-.4.708.1v-.2l-.348-.164a.8.8,0,0,1-.48-.544.856.856,0,0,1,.158-.55A1.485,1.485,0,0,1-11.854-.826Z" transform="translate(44.834 11.625)" fill="#91c73e"/>
      <path id="Path_1427" data-name="Path 1427" d="M0,0H1.416V.506h-.4V2.023l-.506.1V.506H0Z" transform="translate(28.63 10.698)" fill="#91c73e"/>
      <path id="Path_1428" data-name="Path 1428" d="M0-.211a1.353,1.353,0,0,1,.506,0A2.836,2.836,0,0,1,.91.3l.4-.506.506.1C1.626.235,1.434.572,1.214.9a3.021,3.021,0,0,0-.063.525L1.128,1.7l-.015.211h-.4V1.724A2.434,2.434,0,0,0,.129.175.452.452,0,0,1,0-.211Z" transform="translate(14.469 10.909)" fill="#91c73e"/>
    </g>
  </g>
</svg>
