<svg xmlns="http://www.w3.org/2000/svg" width="60" height="60" viewBox="0 0 60 60">
  <g id="Group_131" data-name="Group 131" transform="translate(-8808 -2528)">
    <rect id="Rectangle_22" data-name="Rectangle 22" width="60" height="60" rx="30" transform="translate(8808 2528)" fill="#fff"/>
    <g id="Helcim" transform="translate(8817 2551)">
      <path id="Path_1429" data-name="Path 1429" d="M-72.464-.052q-.03.186-.062.373l-.035.21a1.709,1.709,0,0,1-.187.482,4.811,4.811,0,0,0-.157,1.008A6.088,6.088,0,0,1-73.081,3a.849.849,0,0,0,.049.429h.142l.071-.213a3.37,3.37,0,0,1,2.129.071l.14.047a1,1,0,0,1,.64.592,7.743,7.743,0,0,1-.249,3.406,3.325,3.325,0,0,0-.035,2.13l.213.071c.1.069.191.139.284.213l.071-.142a4.246,4.246,0,0,1,.432-.1c.163-.041.163-.041.278-.26a1.772,1.772,0,0,0-.035-.364,5.067,5.067,0,0,1,.022-1.14l.018-.162c.017-.132.041-.262.067-.392l.142-.071a1.453,1.453,0,0,0,.035-.319,4.054,4.054,0,0,1,.745-2.023l.142-.071.1-.164a3.273,3.273,0,0,1,1.251-1.113h.142l.071-.142c.175-.058.345-.107.523-.151l.156-.038A4.012,4.012,0,0,1-64.3,3l.211,0c.522.022.522.022.738.226l.115.2.191.186c.308.317.256.7.258,1.117a1.8,1.8,0,0,1-.449,1.322l-.058.169a1.494,1.494,0,0,1-.656.612,2.177,2.177,0,0,0-.634.639c-.141.027-.283.05-.426.071q-.139.05-.275.106a2.923,2.923,0,0,1-.861.177v.142h-.284c-.006.126-.01.251-.013.377l-.007.212a.483.483,0,0,0,.234.4l.044.213c.074.221.074.221.246.283q.173.054.349.1l.142.045.071.142a2.946,2.946,0,0,0,2.271-.71,1.043,1.043,0,0,0,.142-.284l.142-.071c.045-.166.082-.333.115-.5l.056-.278.042-.215h.142l-.009-.275a1.483,1.483,0,0,1,.009-.293l.142-.142a2.142,2.142,0,0,0,.04-.39A13.052,13.052,0,0,1-62,4.572l.051-.235q.053-.243.107-.487.083-.374.163-.747l.1-.474.049-.226.047-.208.04-.184a.488.488,0,0,1,.188-.289c.018-.188.03-.371.035-.559.02-.648.02-.648.177-.861A5.385,5.385,0,0,1-59.951.121l.243-.03.236-.028.214-.026a6.1,6.1,0,0,1,.634-.018,3.183,3.183,0,0,1-.058,1.388l-.038.174c-.034.143-.075.284-.117.425l-.142.071c-.012.148-.016.3-.018.446a13.65,13.65,0,0,1-.414,2.439q-.091.407-.178.816L-59.7,6.3l-.054.247-.051.226-.044.2-.049.149-.142.071a5.751,5.751,0,0,0-.084,1.175c0,.058,0,.117,0,.177a2.226,2.226,0,0,0,.158.918l.381.009.215,0c.2.005.2.005.327-.156l.093-.111a.413.413,0,0,1,.293-.133.6.6,0,0,0,.466-.324,4.775,4.775,0,0,0,.018-.8c0-.073,0-.146,0-.222q-.005-.271-.014-.541l.142-.071A2.508,2.508,0,0,0-58,6.4a2.426,2.426,0,0,1,.324-.971l.087-.184c.217-.448.217-.448.459-.609a.908.908,0,0,0,.213-.213V4.206a3.567,3.567,0,0,1,.994-.781h.142l.04-.138c.1-.146.1-.146.324-.191l.275-.027L-54.9,3a3.526,3.526,0,0,1,2.2.106c.106.111.106.111.106.253a1.163,1.163,0,0,0,.355.284,1.966,1.966,0,0,1,.017,1.433.855.855,0,0,1-.43.443,1.7,1.7,0,0,1-1.078-.1c0-.124,0-.124,0-.251q0-.165,0-.33c0-.055,0-.109,0-.165a3.138,3.138,0,0,0-.077-.815,1.8,1.8,0,0,0-.426.142,1.591,1.591,0,0,0-.142.284,1.407,1.407,0,0,1-.284.142v.142h-.142l.017.179a1.778,1.778,0,0,1-.283.783,6.084,6.084,0,0,0-.53,1.353l-.056.169-.142.071a3.063,3.063,0,0,0-.08.9c0,.14,0,.14,0,.282a.693.693,0,0,0,.222.592c.142.146.142.146.177.3s.022.142.149.207a2.736,2.736,0,0,0,.653.152l.254.038a2.851,2.851,0,0,0,.753-.052l.071-.213.426-.142a2.136,2.136,0,0,0,.284-.284l.213-.142a.985.985,0,0,1-.071.781l-.213.142-.1.138a2.147,2.147,0,0,1-.548.461,1,1,0,0,0-.273.395,2.251,2.251,0,0,1-.355.071l-.251.106a2.7,2.7,0,0,1-1.049.138l-.2,0a2.348,2.348,0,0,1-1.79-.7c-.12-.122-.12-.122-.33-.177l-.071-.213a1.8,1.8,0,0,0-.213-.213l-.142.115q-.249.2-.5.39l-.14.107a2.79,2.79,0,0,1-.423.239v.142a3.668,3.668,0,0,1-2.4.267.813.813,0,0,1-.367-.267l-.213-.071-.071-.355-.213-.071a1.613,1.613,0,0,1-.12-.324l-.054-.178-.039-.137a1.541,1.541,0,0,0-.568.639.534.534,0,0,1-.337.241,2.542,2.542,0,0,0-.559.251,4.352,4.352,0,0,1-2.94.276,3.276,3.276,0,0,1-.629-.382,1.327,1.327,0,0,0-.4-.218c-.177-.1-.177-.1-.24-.253l-.009-.129h-.142V9.813h-.142l-.071.142c-.157.151-.328.287-.5.426l-.155.133a1.969,1.969,0,0,1-1.052.505v.142a2.46,2.46,0,0,1-.852.071V11.09l-.226.018a.824.824,0,0,1-.625-.3l-.2-.075-.16-.067-.071-.213-.11-.1c-.146-.166-.122-.281-.111-.5a3,3,0,0,0-.062-.754l.071-.071c-.006-.138-.014-.275-.022-.412a6.216,6.216,0,0,1,.235-1.632A7.4,7.4,0,0,0-72.464,4.7h-.142V4.561l-.124.067a.829.829,0,0,1-.306.1c-.193.062-.246.157-.35.328-.073.165-.134.331-.193.5l-.055.155-.051.147c-.055.119-.055.119-.2.19a3.394,3.394,0,0,0-.056.832A5.981,5.981,0,0,1-74.182,8.3c-.039.162-.077.324-.114.486-.311,1.321-.311,1.321-.653,1.663l-.071.213c-.093.05-.188.1-.284.142l-.1.111a1.2,1.2,0,0,1-.866.188A5.683,5.683,0,0,1-78,10.594c.071-.142.071-.142.284-.24s.223-.089.262-.262l.022-.138.213-.142a.868.868,0,0,0,.064-.283c.061-.352.142-.694.232-1.039l.043-.165.132-.509.09-.349.22-.848h.142l-.009-.275a1.48,1.48,0,0,1,.009-.293l.142-.142a2.207,2.207,0,0,0,.04-.395,13.526,13.526,0,0,1,.275-1.96l.051-.244.107-.508q.082-.39.163-.78l.1-.494.049-.236.047-.218.04-.192A.484.484,0,0,1-75.09.587l.031-.146.04-.138a3.561,3.561,0,0,1,.745-.138c.349-.041.693-.088,1.038-.155A3.077,3.077,0,0,1-72.464-.052ZM-72.677.3l.071.142Zm11.639.071.071.142ZM-58.7.516l.071.142ZM-72.748.587l.071.142Zm11.639,0,.071.142Zm2.342.284.071.142Zm-16.465.142.071.284Zm-.071.355.071.213Zm16.394,0,.071.284Zm-16.465.426.071.142Zm2.342.284.071.142Zm-2.413.071.071.213Zm14.052,0,.071.284ZM-73.1,2.29l.071.213Zm-2.413.142.071.142Zm14.052.071.071.142Zm-11.71.142.071.142Zm-2.413.142.071.142Zm14.052.071.071.142Zm2.342.213.071.142Zm-16.465.071.071.284Zm14.052.071.071.213Zm-11.71.071.071.142Zm14.052,0,.071.284Zm-16.465.142.071.142Zm14.052.071.071.142Zm2.342.213.071.142ZM-75.8,3.78l.071.142Zm14.052.071.071.142Zm-3.336.213a1.087,1.087,0,0,0-.388.593,1.979,1.979,0,0,1-.238.578,3.62,3.62,0,0,0-.51,1.526.718.718,0,0,0,.576.007,1.179,1.179,0,0,0,.56-.574l.146-.067.137-.075.035-.177.035-.177.138-.067c.17-.068.17-.068.24-.288s.071-.206-.022-.355c-.005-.14-.006-.281,0-.421l0-.228c0-.067,0-.133,0-.2V3.922C-64.664,3.8-64.828,3.9-65.083,4.064Zm2.129,0V5.129h.071V4.064Zm9.3,0,.071.142Zm-22.214.071.071.142Zm11.5.071v.71h.071v-.71Zm12.136,0v.355h.071V4.206Zm-1.348.071v.355h.071V4.277Zm-5.891.071.071.142Zm-16.465.071.071.284Zm14.052,0,.071.142Zm-3.619.142.071.142Zm5.961,0,.071.213Zm7.239,0,.071.284Zm-1.348.142.071.142Zm-22.356.071.071.142Zm14.052,0,.071.142Zm2.342.213.071.142Zm-12.7.071v.781h.071V5.058Zm10.291.071.071.142Zm2.342.213.071.142Zm-2.413.071.071.284Zm-7.878.071v.355h.071V5.484Zm10.22.071.071.142Zm-3.407.071.071.142Zm5.465,0,.071.142Zm-4.471.142.071.142Zm2.342.142.071.142Zm-12.562.142.071.142Zm2.342,0,.071.142Zm1.49.213.071.142Zm8.658,0,.071.142Zm-12.562.142.071.213Zm2.271.142.071.213Zm10.22.071.071.142Zm-12.562.071.071.142Zm6.174,0,.071.142Zm.142.142.284.071Zm-7.878.284.071.142Zm-2.413.142.071.142Zm3.832.071.071.142Zm-1.49.142.071.142Zm3.761.071.071.142Zm-6.174.071.071.142Zm3.832,0,.071.284Zm3.9,0v.639h.071V7.613Zm-5.394.071.071.142Zm3.761.071.071.284Zm-2.342.213.071.142Zm-1.49.071.071.142Zm11.71,0,.071.142Zm2.342.142.071.213Zm-10.291.071v.568h.071V8.252Zm7.878.142.071.142Zm-6.245.071.071.284Zm8.587.142v.355h.071V8.606Zm-16.536.071.071.142Zm2.342.142.071.213Zm5.678,0,.071.284Zm8.587.213.071.142Zm-2.413.426.071.284Zm4.613,0V9.6l.142-.071ZM-68.7,9.6l-.071.142.213-.071Zm13.91.071v.071h.639V9.671Zm-18.026.355.071.142Z" transform="translate(78.213 1.826)" fill="#25264d"/>
      <path id="Path_1430" data-name="Path 1430" d="M-133.084-.168l.152,0a1.772,1.772,0,0,1,.4.06,1.213,1.213,0,0,1,.213.355q.138.111.284.213a1.006,1.006,0,0,1,.407.722,7.6,7.6,0,0,1-.261,2.356l-.057.26c-.142.618-.142.618-.3.778a6.9,6.9,0,0,0,0,2.484.846.846,0,0,0,.71.142,4.531,4.531,0,0,0,.435-.216,1.392,1.392,0,0,1,.487-.139c-.071.213-.071.213-.213.284l-.071.213-.355.142-.191.173a2.291,2.291,0,0,1-1.632.415c-1-.085-1-.085-1.314-.441a1.3,1.3,0,0,1-.2-.5l-.142-.213a3.3,3.3,0,0,1,.071-1.845l.142-.142a2.6,2.6,0,0,0,.04-.43l.016-.252.015-.24a7.119,7.119,0,0,1,.146-.98,3.125,3.125,0,0,0,0-1.5.967.967,0,0,0-.71.142q-.073.176-.142.355l-.186.2a.722.722,0,0,0-.163.619,5.853,5.853,0,0,1-.187,1.081l-.056.26q-.059.27-.118.54t-.121.555q-.086.4-.174.8l-.054.252-.052.231-.045.2-.049.153-.142.071a1.314,1.314,0,0,0,0,.781,2.764,2.764,0,0,1-1.111.114l-.483.018-.306.01-.282.01a.588.588,0,0,1-.443-.153q.048-.282.1-.563l.027-.162c.025-.138.056-.274.088-.41l.142-.071a1.073,1.073,0,0,0,.028-.6,2.849,2.849,0,0,1,.121-1.067l.048-.213q.076-.335.154-.67t.153-.67q.047-.208.1-.415a3.029,3.029,0,0,0,.039-1.47,2.284,2.284,0,0,0-.639.142.889.889,0,0,0-.17.358,1.319,1.319,0,0,1-.18.378,4.246,4.246,0,0,0-.331,1.128c-.029.136-.064.272-.1.406l-.142.071a.787.787,0,0,0-.029.534,2.783,2.783,0,0,1-.1,1.025l-.043.2q-.068.31-.139.62l-.093.423q-.114.516-.23,1.032a3.1,3.1,0,0,1-1.073.156h-.16l-.5,0-.342,0-.833-.007c0-.142,0-.142.142-.284a9.476,9.476,0,0,0,.612-2.3q.063-.307.127-.613.039-.19.078-.379l.036-.173.031-.151a1.075,1.075,0,0,1,.252-.5,1.218,1.218,0,0,0,.031-.617,2.329,2.329,0,0,1,.063-.855l.032-.15q.034-.155.069-.31c.036-.158.069-.317.1-.476l.067-.3.061-.276.071-.208a3.867,3.867,0,0,1,.758-.146l.151-.02.368-.047V-.035a7.621,7.621,0,0,1,1.277-.071l.142.284-.071.213h.142l.071-.142.142-.213a4.183,4.183,0,0,1,.5-.071l.13-.036A2.06,2.06,0,0,1-136.335.1l.111.076.155.1c.17.147.327.3.483.466l.111-.129a1.542,1.542,0,0,1,.529-.307,4.769,4.769,0,0,0,.609-.338A2.67,2.67,0,0,1-133.084-.168ZM-141.4.391l.071.142Zm-.071.213.071.142Zm-.071.355.071.142Zm9.723.071.071.213Zm-9.794.284.071.213Zm9.865.142V1.81h.071V1.455Zm-9.936.142.071.142Zm-.071.355.071.142Zm3.832,0,.071.284Zm3.832,0v.639h.071V1.952Zm2.271.071v.5h.071v-.5Zm-10.007.213.071.284Zm-.071.355.071.284Zm10.007,0,.071.213Zm-2.271.071.071.213Zm-3.9.071.071.142Zm-1.49.284.071.142Zm7.594,0,.071.142Zm-6.174.071.071.142Zm3.9,0,.071.142Zm-1.49.071.071.142Zm-3.9.213.071.142Zm7.594,0,.071.142Zm-6.174.071.071.213Zm3.9,0,.071.142Zm-1.49.071.071.142Zm3.69.071.071.142Zm-3.761.071.071.213Zm1.49,0,.071.284Zm-3.9.071.071.142Zm-3.832.213.071.142Zm9.936,0,.071.142Zm-6.174.142.071.142Zm2.413,0,.071.142Zm-6.245.213.071.142Zm3.761.142.071.213Zm2.413,0,.071.142Zm-3.832.071.071.284Zm3.761.142.071.213Zm-2.413.071.071.142Zm-1.419.071.071.284Zm-2.413.071.071.142Zm3.761.213.071.142Zm2.413,0,.071.142Zm-6.245.142.071.142Zm2.413.071.071.142Zm1.348.142.071.213Zm2.413,0,.071.142Zm1.561,0,.071.284Zm2.2,0v.426h.071V5.43Zm-10.007.142.071.213Zm2.413.071.071.142Zm1.348,0,.071.284Zm-1.419.142.071.284Zm-2.413.071.071.142Zm7.807.071v.71h.071v-.71Zm2.2.071.071.284Zm-3.832.071.071.142Zm-6.245.142.071.142Zm2.413.071.071.142Zm3.761.142.071.142Zm3.974.071.071.213Zm-10.22.071.071.213Zm2.413.071.071.142Zm-2.484.213.071.142Zm2.413,0,.071.213Zm1.419.142.071.142Zm-.071.355.071.142Zm-1.49.213.071.142Z" transform="translate(172.774 4.861)" fill="#24254c"/>
      <path id="Path_1431" data-name="Path 1431" d="M-49.44-.043q-.234,1.217-.506,2.426L-50,2.631l-.052.23-.046.206-.051.155-.142.071a1.916,1.916,0,0,0-.035.373,8.062,8.062,0,0,1-.217,1.547,2.653,2.653,0,0,0,.11,1.558,2,2,0,0,0,.852.5v.142l-.466.169-.262.095a2.489,2.489,0,0,1-1.9.091,4.413,4.413,0,0,1-.385-.386c-.114-.129-.114-.129-.325-.182a1.577,1.577,0,0,1-.155-.337l-.074-.185A5.056,5.056,0,0,1-53,4.459l.058-.267c.189-.854.189-.854.377-1.041a1.119,1.119,0,0,0,.031-.585,1.9,1.9,0,0,1,.071-.766l.034-.136c.035-.142.072-.283.109-.425l.073-.291q.089-.354.18-.707L-51.112.1l.271-.041A7.678,7.678,0,0,1-49.44-.043Zm-.213.284.071.142Zm-2.413.213.071.142Zm2.342,0,.071.213Zm-2.484.639.071.142Zm2.342.071.071.142Zm-2.413.213.071.284Zm-.142.639.071.142Zm2.342.071.071.142Zm-2.413.213.071.284Zm2.342.142.071.142Zm-.071.142.071.213Zm-2.484.923.071.142Zm-.071.355L-52.7,4Zm2.2.568.071.284Zm-2.342.071.071.213Zm2.271.213.071.284Zm-2.342.071.071.142Zm-.071.355.071.213Zm2.271.355v.5h.071v-.5Zm-2.342.071v.781h.071V5.564Zm.071.994.071.142Z" transform="translate(79.105 4.869)" fill="#25264d"/>
      <path id="Path_1432" data-name="Path 1432" d="M-20.729-.028l.27,0,.2,0,.06.137c.11.2.23.215.437.289l.071.142.105.095a1.323,1.323,0,0,1,.25.828,1.756,1.756,0,0,1-.426.994.946.946,0,0,1-.284.142l-.222.108a2.036,2.036,0,0,1-.851.145l-.148.008a1.506,1.506,0,0,1-.411-.048,2.968,2.968,0,0,1-.355-.426l-.284-.142V.62L-22.1.549l.062-.177.08-.177A1.4,1.4,0,0,1-21.6.123l.157-.072A1.867,1.867,0,0,1-20.729-.028Zm1.184,1,.071.213Zm0,.568.071.284Z" transform="translate(49.92 0.587)" fill="#6070fd"/>
      <path id="Path_1433" data-name="Path 1433" d="M-10.219,0h.213c-.032.232-.064.462-.111.692a.984.984,0,0,0-.031.373h-.142l0,.191a2.925,2.925,0,0,1-.075.59v.213H-10.5l.044.151a1,1,0,0,1-.115.63,1.308,1.308,0,0,1-.284.213L-11,2.981l.1-.175a3.819,3.819,0,0,0,.261-.851l.037-.17q.058-.267.115-.534l.079-.363Q-10.314.444-10.219,0Zm0,.284.071.142Zm-.071.355.071.142Zm-.142.639.071.142Zm-.071.355.071.142Zm-.142.639.071.142Z" transform="translate(40.665 9.439)" fill="#5e5f7b"/>
      <path id="Path_1434" data-name="Path 1434" d="M-9.29,0h.213c-.032.232-.064.462-.111.692a.984.984,0,0,0-.031.373l-.142.071c-.029.165-.052.331-.071.5l-.071.355v.142l-.142.071.071.213-.142.071a2.093,2.093,0,0,0-.071.355L-10,2.91c.13-.608.283-1.211.435-1.814l.08-.32Zm-.071.639.071.142Z" transform="translate(11.065 8.445)" fill="#585876"/>
      <path id="Path_1435" data-name="Path 1435" d="M-8.543-.163l.152.005.482.017.326.011.8.029V.041H-9.2V-.1A1.258,1.258,0,0,1-8.543-.163Z" transform="translate(38.719 12.734)" fill="#b7b7c4"/>
      <path id="Path_1436" data-name="Path 1436" d="M-6.2,0h.284c-.106.329-.227.65-.355.971l-.056.143a3.042,3.042,0,0,1-.3.589.68.68,0,0,1,.071-.639V.781L-6.409.71V.5l.142-.071L-6.338.284A2.117,2.117,0,0,1-6.2,0Z" transform="translate(29.19 6.884)" fill="#5b5b78"/>
      <path id="Path_1437" data-name="Path 1437" d="M-12.077,0h.284c-.071.213-.071.213-.213.284L-12.077.5c-.117.051-.235.1-.355.142-.1.068-.192.138-.284.213l.071-.284H-13V.426l.166-.057.216-.076L-12.4.218A.51.51,0,0,0-12.077,0Z" transform="translate(53.95 11.71)" fill="#404163"/>
      <path id="Path_1438" data-name="Path 1438" d="M-3.766,0h.071L-3.73.271a4.889,4.889,0,0,0,.035,1.575l-.213-.071A1.883,1.883,0,0,1-4.05.852V.5l.142-.071L-3.979.142h.142Z" transform="translate(32.296 9.581)" fill="#565674"/>
      <path id="Path_1439" data-name="Path 1439" d="M-4.645,0l.213.071a9.225,9.225,0,0,1-.355,1.277l.284.071L-5,1.49l.142-.071L-4.9,1.273A1.517,1.517,0,0,1-4.787.568V.355l.142-.071Z" transform="translate(16.781 7.239)" fill="#64647f"/>
      <path id="Path_1440" data-name="Path 1440" d="M-3.8,0h.284c-.124.346-.124.346-.284.426L-3.795.7a.634.634,0,0,1-.151.51h-.142A2.028,2.028,0,0,1-3.8,0Zm-.213.71.071.142Z" transform="translate(13.669 7.381)" fill="#71718a"/>
      <path id="Path_1441" data-name="Path 1441" d="M-6.5,0l.142.071L-6.5.781h-.213V.568L-7,.5Z" transform="translate(31.981 10.575)" fill="#65657f"/>
      <path id="Path_1442" data-name="Path 1442" d="M-3.716,0h.284a1.175,1.175,0,0,1-.355.639V.781L-4,.852A2.19,2.19,0,0,1-3.716,0Zm0,.142.071.142Z" transform="translate(24.226 7.31)" fill="#6c6c86"/>
      <path id="Path_1443" data-name="Path 1443" d="M0,0A.634.634,0,0,1,.483.275L.639.5.568.71H.284Z" transform="translate(36.692 5.252)" fill="#696983"/>
      <path id="Path_1444" data-name="Path 1444" d="M-5.574,0l.142.071c-.026.454-.026.454-.253.67l-.173.111L-6,.781l.213-.426.08-.164A.513.513,0,0,1-5.574,0Z" transform="translate(35.665 11.639)" fill="#676782"/>
      <path id="Path_1445" data-name="Path 1445" d="M-4.239,0l.244,0,.071.142A2.115,2.115,0,0,0-3.64.288V.43h-.284V.288h-.142L-4.137.43-4.19.293c-.076-.16-.076-.16-.24-.2L-4.563.075C-4.492,0-4.492,0-4.239,0Z" transform="translate(13.505 11.351)" fill="#666680"/>
      <path id="Path_1446" data-name="Path 1446" d="M-9.29,0c-.071.213-.071.213-.213.284L-9.574.5-10,.426V.284A.946.946,0,0,1-9.29,0Z" transform="translate(51.447 11.71)" fill="#666681"/>
      <path id="Path_1447" data-name="Path 1447" d="M-.929,0c.142.071.142.071.222.3a2.391,2.391,0,0,1,.062.7H-.858L-.849.772A1.929,1.929,0,0,0-1,.071Z" transform="translate(26.762 5.394)" fill="#72728b"/>
      <path id="Path_1448" data-name="Path 1448" d="M-1,0l.213.071-.071.5-.213.071C-1.075.2-1.075.2-1.068.071Zm0,.142.071.142Z" transform="translate(10.649 7.949)" fill="#4d4d6b"/>
      <path id="Path_1449" data-name="Path 1449" d="M-8.361,0l.142.071-.231.2L-8.58.39A1.972,1.972,0,0,1-9,.639,1.343,1.343,0,0,1-8.361,0Z" transform="translate(30.22 5.536)" fill="#818195"/>
      <path id="Path_1450" data-name="Path 1450" d="M-3.716,0l.142.071V.213l-.142.071a2.093,2.093,0,0,0-.071.355L-4,.71q.03-.158.062-.315L-3.9.218l.045-.147Z" transform="translate(5.065 10.646)" fill="#71718a"/>
      <path id="Path_1451" data-name="Path 1451" d="M-.929,0A.585.585,0,0,1-.667.439l.022.2H-.929V.355L-.969.2-1,.071Z" transform="translate(41.737 5.394)" fill="#6a6a85"/>
      <path id="Path_1452" data-name="Path 1452" d="M-7.534-.013h.162l.167,0,.17,0L-6.619,0V.072l-1.49.071A.851.851,0,0,1-7.534-.013Z" transform="translate(31.388 4.612)" fill="#4a4a68"/>
      <path id="Path_1453" data-name="Path 1453" d="M-3.716,0a1.217,1.217,0,0,1,0,.71A1.2,1.2,0,0,1-4,.355l.142-.071A2.115,2.115,0,0,0-3.716,0Z" transform="translate(19.259 10.858)" fill="#6f6f86"/>
      <path id="Path_1454" data-name="Path 1454" d="M-1.858,0l.213.071L-1.858.71-2,.568A1.531,1.531,0,0,1-1.858,0Z" transform="translate(24.497 7.878)" fill="#6f6f89"/>
      <path id="Path_1455" data-name="Path 1455" d="M-9.29-.877c-.446.4-.446.4-.71.426a1.139,1.139,0,0,1,.142-.355C-9.488-.975-9.488-.975-9.29-.877Z" transform="translate(47.259 6.128)" fill="#67677f"/>
      <path id="Path_1456" data-name="Path 1456" d="M-5.574,0l.142.142A.883.883,0,0,1-6,.568.6.6,0,0,1-5.707.2l.133-.053Z" transform="translate(39.64 5.11)" fill="#6c6d84"/>
      <path id="Path_1457" data-name="Path 1457" d="M-1.858,0l.213.071A3.874,3.874,0,0,1-1.716.5l-.142.071L-2,.5V.355l.142-.071Z" transform="translate(13.994 7.239)" fill="#5a5a77"/>
      <path id="Path_1458" data-name="Path 1458" d="M-.929,0A.731.731,0,0,1-.645.568H-.858V.426L-1,.355Z" transform="translate(9.02 5.536)" fill="#6b6b85"/>
      <path id="Path_1459" data-name="Path 1459" d="M-6.5-.695l-.355.355L-7-.411V-.624C-6.743-.775-6.743-.775-6.5-.695Z" transform="translate(21.478 12.547)" fill="#54546f"/>
      <path id="Path_1460" data-name="Path 1460" d="M0,0H1.277V.071H0Z" transform="translate(11.497 12.917)" fill="#3f3f61"/>
      <path id="Path_1461" data-name="Path 1461" d="M-3.716,0a.831.831,0,0,1,.071.284.993.993,0,0,1-.213.284H-4V.355h.142Z" transform="translate(28.91 11.213)" fill="#474760"/>
      <path id="Path_1462" data-name="Path 1462" d="M-2.787,0h.071l-.071.568H-3V.213h.142Z" transform="translate(28.762 6.387)" fill="#535371"/>
      <path id="Path_1463" data-name="Path 1463" d="M0,0H.071V.994H0Z" transform="translate(19.943 9.581)" fill="#38385c"/>
      <path id="Path_1464" data-name="Path 1464" d="M0,0H.071V.994H0Z" transform="translate(8.374 6.245)" fill="#5a5b78"/>
      <path id="Path_1465" data-name="Path 1465" d="M0,0H.923V.071H0Z" transform="translate(39.459 12.988)" fill="#494a6a"/>
      <path id="Path_1466" data-name="Path 1466" d="M0,0H.923V.071H0Z" transform="translate(35.059 4.613)" fill="#5f5f7b"/>
      <path id="Path_1467" data-name="Path 1467" d="M0,0H.071V.923H0Z" transform="translate(27.465 1.561)" fill="#6371f3"/>
      <path id="Path_1468" data-name="Path 1468" d="M0,0H.781V.071H0Z" transform="translate(22.214 12.846)" fill="#7f7f95"/>
      <path id="Path_1469" data-name="Path 1469" d="M0,0H.781V.071H0Z" transform="translate(18.239 11.213)" fill="#62627e"/>
      <path id="Path_1470" data-name="Path 1470" d="M0,0H.781V.071H0Z" transform="translate(13.129 4.684)" fill="#828298"/>
      <path id="Path_1471" data-name="Path 1471" d="M0,0H.781V.071H0Z" transform="translate(28.601 3.478)" fill="#6874e3"/>
      <path id="Path_1472" data-name="Path 1472" d="M0,0H.71V.071H0Z" transform="translate(6.174 4.755)" fill="#74748d"/>
      <path id="Path_1473" data-name="Path 1473" d="M0,0H.639V.071H0Z" transform="translate(31.937 4.897)" fill="#4c4c6c"/>
      <path id="Path_1474" data-name="Path 1474" d="M0,0H.639V.071H0Z" transform="translate(28.672 0.426)" fill="#6070ff"/>
      <path id="Path_1475" data-name="Path 1475" d="M0,0H.568V.071H0Z" transform="translate(1.774 12.988)" fill="#71718a"/>
      <path id="Path_1476" data-name="Path 1476" d="M0,0H.5V.071H0Z" transform="translate(17.459 12.846)" fill="#363658"/>
      <path id="Path_1477" data-name="Path 1477" d="M0,0H.5V.071H0Z" transform="translate(40.737 11.994)" fill="#39395d"/>
      <path id="Path_1478" data-name="Path 1478" d="M0,0H.5V.071H0Z" transform="translate(27.536 4.897)" fill="#4e4f6e"/>
      <path id="Path_1479" data-name="Path 1479" d="M0,0H.5V.071H0Z" transform="translate(28.033 4.826)" fill="#515170"/>
      <path id="Path_1480" data-name="Path 1480" d="M0,0H.5V.071H0Z" transform="translate(28.53 4.755)" fill="#595977"/>
      <path id="Path_1481" data-name="Path 1481" d="M0,0H.5V.071H0Z" transform="translate(29.027 4.684)" fill="#7b7b93"/>
      <path id="Path_1482" data-name="Path 1482" d="M0,0H.5V.071H0Z" transform="translate(39.388 4.613)" fill="#414263"/>
      <path id="Path_1483" data-name="Path 1483" d="M0,0H.5V.071H0Z" transform="translate(38.608 4.613)" fill="#474868"/>
      <path id="Path_1484" data-name="Path 1484" d="M0,0H.5V.071H0Z" transform="translate(18.665 1.774)" fill="#535472"/>
      <path id="Path_1485" data-name="Path 1485" d="M0,0H.426V.071H0Z" transform="translate(16.678 12.846)" fill="#444465"/>
      <path id="Path_1486" data-name="Path 1486" d="M0,0H.426V.071H0Z" transform="translate(31.511 4.968)" fill="#3d3e60"/>
      <path id="Path_1487" data-name="Path 1487" d="M0,0H.426V.071H0Z" transform="translate(13.91 4.755)" fill="#484868"/>
      <path id="Path_1488" data-name="Path 1488" d="M0,0H.426V.071H0Z" transform="translate(3.761 1.916)" fill="#545473"/>
      <path id="Path_1489" data-name="Path 1489" d="M0,0H.426V.071H0Z" transform="translate(18.239 1.845)" fill="#515170"/>
      <path id="Path_1490" data-name="Path 1490" d="M0,0H.426V.071H0Z" transform="translate(4.542 1.774)" fill="#4f4f6e"/>
      <path id="Path_1491" data-name="Path 1491" d="M0,0H.426V.071H0Z" transform="translate(19.162 1.703)" fill="#515270"/>
      <path id="Path_1492" data-name="Path 1492" d="M0,0H.355V.071H0Z" transform="translate(6.458 12.917)" fill="#454566"/>
      <path id="Path_1493" data-name="Path 1493" d="M0,0H.355V.071H0Z" transform="translate(12.775 12.846)" fill="#4a4b6b"/>
      <path id="Path_1494" data-name="Path 1494" d="M0,0H.071V.355H0Z" transform="translate(5.252 10.078)" fill="#404163"/>
      <path id="Path_1495" data-name="Path 1495" d="M0,0H.071V.355H0Z" transform="translate(18.097 9.51)" fill="#3c3d5f"/>
      <path id="Path_1496" data-name="Path 1496" d="M0,0H.071V.355H0Z" transform="translate(28.743 8.658)" fill="#515170"/>
      <path id="Path_1497" data-name="Path 1497" d="M0,0H.071V.355H0Z" transform="translate(4.258 8.445)" fill="#3c3d5f"/>
      <path id="Path_1498" data-name="Path 1498" d="M0,0H.071V.355H0Z" transform="translate(2.058 6.884)" fill="#4b4b6b"/>
      <path id="Path_1499" data-name="Path 1499" d="M0,0H.355V.071H0Z" transform="translate(27.182 4.968)" fill="#393a5d"/>
      <path id="Path_1500" data-name="Path 1500" d="M0,0H.355V.071H0Z" transform="translate(6.884 4.826)" fill="#454666"/>
      <path id="Path_1501" data-name="Path 1501" d="M0,0H.355V.071H0Z" transform="translate(5.82 4.826)" fill="#484969"/>
      <path id="Path_1502" data-name="Path 1502" d="M0,0H.355V.071H0Z" transform="translate(12.775 4.755)" fill="#474868"/>
      <path id="Path_1503" data-name="Path 1503" d="M-.929,0l.213.071L-1,.142Z" transform="translate(39.324 4.684)" fill="#4d4d64"/>
      <path id="Path_1504" data-name="Path 1504" d="M0,0,.213.071.142.213Z" transform="translate(27.749 2.981)" fill="#6a75e0"/>
      <path id="Path_1505" data-name="Path 1505" d="M0,0H.071V.355H0Z" transform="translate(19.659 1.845)" fill="#4a4b6a"/>
      <path id="Path_1506" data-name="Path 1506" d="M0,0H.355V.071H0Z" transform="translate(17.813 1.916)" fill="#5d5d7a"/>
      <path id="Path_1507" data-name="Path 1507" d="M0,0H.355V.071H0Z" transform="translate(4.187 1.845)" fill="#4e4f6e"/>
      <path id="Path_1508" data-name="Path 1508" d="M0,0H.355V.071H0Z" transform="translate(4.968 1.703)" fill="#4d4e6d"/>
      <path id="Path_1509" data-name="Path 1509" d="M0,0,.284.071Z" transform="translate(40.382 12.917)" fill="#3a3a5b"/>
      <path id="Path_1510" data-name="Path 1510" d="M0,0,.284.071Z" transform="translate(39.175 12.917)" fill="#4a4a66"/>
      <path id="Path_1511" data-name="Path 1511" d="M0,0,.284.071Z" transform="translate(17.175 12.917)" fill="#828298"/>
      <path id="Path_1512" data-name="Path 1512" d="M0,0,.284.071Z" transform="translate(1.49 12.917)" fill="#474868"/>
      <path id="Path_1513" data-name="Path 1513" d="M0,0,.284.071Z" transform="translate(11.213 12.846)" fill="#3f3f60"/>
      <path id="Path_1514" data-name="Path 1514" d="M-.929,0l.142.071H-1Z" transform="translate(20.091 12.207)" fill="#4d4e6d"/>
      <path id="Path_1515" data-name="Path 1515" d="M0,0,.284.071Z" transform="translate(24.059 11.355)" fill="#5b5b78"/>
      <path id="Path_1516" data-name="Path 1516" d="M-.929,0l.142.071H-1Z" transform="translate(15.833 10.858)" fill="#4c4c60"/>
      <path id="Path_1517" data-name="Path 1517" d="M0,0,.071.284Z" transform="translate(15.684 9.226)" fill="#444465"/>
      <path id="Path_1518" data-name="Path 1518" d="M0,0,.071.284Z" transform="translate(38.253 8.871)" fill="#323357"/>
      <path id="Path_1519" data-name="Path 1519" d="M0,0,.071.284Z" transform="translate(20.155 8.162)" fill="#525271"/>
      <path id="Path_1520" data-name="Path 1520" d="M0,0,.071.284Z" transform="translate(1.845 8.162)" fill="#444465"/>
      <path id="Path_1521" data-name="Path 1521" d="M0,0,.071.284Z" transform="translate(15.897 7.949)" fill="#474868"/>
      <path id="Path_1522" data-name="Path 1522" d="M0,0,.284.071Z" transform="translate(12.491 4.826)" fill="#424364"/>
      <path id="Path_1523" data-name="Path 1523" d="M0,0,.284.071Z" transform="translate(34.775 4.684)" fill="#4d4d6c"/>
      <path id="Path_1524" data-name="Path 1524" d="M0,0,.284.071Z" transform="translate(24.769 4.684)" fill="#474768"/>
      <path id="Path_1525" data-name="Path 1525" d="M0,0,.071.284Z" transform="translate(19.162 4.471)" fill="#494a6a"/>
      <path id="Path_1526" data-name="Path 1526" d="M0,0,.284.071Z" transform="translate(39.104 4.542)" fill="#828298"/>
      <path id="Path_1527" data-name="Path 1527" d="M0,0,.071.284Z" transform="translate(16.962 2.697)" fill="#484969"/>
      <path id="Path_1528" data-name="Path 1528" d="M0,0,.284.071Z" transform="translate(5.323 1.632)" fill="#828298"/>
      <path id="Path_1529" data-name="Path 1529" d="M0,0,.213.071Z" transform="translate(2.342 12.917)" fill="#484969"/>
      <path id="Path_1530" data-name="Path 1530" d="M0,0,.213.071Z" transform="translate(7.665 12.846)" fill="#414263"/>
      <path id="Path_1531" data-name="Path 1531" d="M0,0,.213.071Z" transform="translate(28.601 12.633)" fill="#5e5e7b"/>
      <path id="Path_1532" data-name="Path 1532" d="M0,0,.213.071Z" transform="translate(28.814 12.562)" fill="#4f4f6f"/>
      <path id="Path_1533" data-name="Path 1533" d="M0,0H.142L.071.142Z" transform="translate(16.11 12.562)" fill="#6c6c86"/>
      <path id="Path_1534" data-name="Path 1534" d="M0,0,.213.071Z" transform="translate(0.426 12.562)" fill="#5b5b78"/>
      <path id="Path_1535" data-name="Path 1535" d="M0,0,.213.071Z" transform="translate(29.169 12.42)" fill="#565674"/>
      <path id="Path_1536" data-name="Path 1536" d="M0,0,.213.071Z" transform="translate(41.234 11.923)" fill="#595977"/>
      <path id="Path_1537" data-name="Path 1537" d="M0,0,.213.071Z" transform="translate(29.169 11.923)" fill="#5f5f7b"/>
      <path id="Path_1538" data-name="Path 1538" fill="#434465"/>
      <path id="Path_1539" data-name="Path 1539" d="M0,0,.213.071Z" transform="translate(13.768 11.426)" fill="#686883"/>
      <path id="Path_1540" data-name="Path 1540" d="M0,0,.213.071Z" transform="translate(13.981 11.355)" fill="#686983"/>
      <path id="Path_1541" data-name="Path 1541" d="M0,0,.213.071Z" transform="translate(24.343 11.284)" fill="#424262"/>
      <path id="Path_1542" data-name="Path 1542" fill="#3a3a5d"/>
      <path id="Path_1543" data-name="Path 1543" d="M0,0,.213.071Z" transform="translate(12.846 9.51)" fill="#4f506f"/>
      <path id="Path_1544" data-name="Path 1544" fill="#4f4f6e"/>
      <path id="Path_1545" data-name="Path 1545" fill="#61617d"/>
      <path id="Path_1546" data-name="Path 1546" fill="#515170"/>
      <path id="Path_1547" data-name="Path 1547" d="M0,0,.213.071Z" transform="translate(13.342 5.82)" fill="#74748c"/>
      <path id="Path_1548" data-name="Path 1548" d="M0,0,.213.071Z" transform="translate(24.059 5.749)" fill="#72728b"/>
      <path id="Path_1549" data-name="Path 1549" d="M0,0H.142L.071.142Z" transform="translate(40.382 4.968)" fill="#424264"/>
      <path id="Path_1550" data-name="Path 1550" d="M0,0,.213.071Z" transform="translate(12.065 4.968)" fill="#5e5e7b"/>
      <path id="Path_1551" data-name="Path 1551" d="M0,0,.213.071Z" transform="translate(12.278 4.897)" fill="#4c4c6c"/>
      <path id="Path_1552" data-name="Path 1552" d="M0,0,.213.071Z" transform="translate(5.607 4.897)" fill="#62627e"/>
      <path id="Path_1553" data-name="Path 1553" d="M0,0,.213.071Z" transform="translate(22.852 4.826)" fill="#585976"/>
      <path id="Path_1554" data-name="Path 1554" d="M0,0,.213.071Z" transform="translate(14.336 4.826)" fill="#5e5e7b"/>
      <path id="Path_1555" data-name="Path 1555" d="M0,0,.213.071Z" transform="translate(34.562 4.755)" fill="#585976"/>
      <path id="Path_1556" data-name="Path 1556" d="M0,0,.213.071Z" transform="translate(23.065 4.755)" fill="#515171"/>
      <path id="Path_1557" data-name="Path 1557" d="M0,0,.213.071Z" transform="translate(39.885 4.684)" fill="#5e5e7b"/>
      <path id="Path_1558" data-name="Path 1558" d="M0,0,.213.071Z" transform="translate(35.982 4.684)" fill="#454567"/>
      <path id="Path_1559" data-name="Path 1559" fill="#353559"/>
      <path id="Path_1560" data-name="Path 1560" d="M0,0,.213.071Z" transform="translate(29.382 3.407)" fill="#757bb8"/>
      <path id="Path_1561" data-name="Path 1561" d="M0,0,.213.071Z" transform="translate(28.388 3.407)" fill="#5f6fff"/>
      <path id="Path_1562" data-name="Path 1562" d="M0,0,.213.071Z" transform="translate(29.311 0.497)" fill="#6070ff"/>
      <path id="Path_1563" data-name="Path 1563" d="M0,0,.213.071Z" transform="translate(28.459 0.497)" fill="#6070ff"/>
      <path id="Path_1564" data-name="Path 1564" d="M0,0,.142.071Z" transform="translate(40.666 12.846)" fill="#1d1d46"/>
      <path id="Path_1565" data-name="Path 1565" d="M0,0,.142.071Z" transform="translate(39.034 12.846)" fill="#63647f"/>
      <path id="Path_1566" data-name="Path 1566" d="M0,0,.142.071Z" transform="translate(1.348 12.846)" fill="#36375a"/>
      <path id="Path_1567" data-name="Path 1567" d="M0,0,.142.071Z" transform="translate(28.388 12.704)" fill="#4f506f"/>
      <path id="Path_1568" data-name="Path 1568" d="M0,0,.142.071Z" transform="translate(23.633 12.704)" fill="#353659"/>
      <path id="Path_1569" data-name="Path 1569" d="M0,0,.142.071Z" transform="translate(21.433 12.704)" fill="#545472"/>
      <path id="Path_1570" data-name="Path 1570" d="M0,0,.142.071Z" transform="translate(18.381 12.704)" fill="#38385c"/>
      <path id="Path_1571" data-name="Path 1571" d="M0,0,.142.071Z" transform="translate(13.697 12.633)" fill="#5d5c7a"/>
      <path id="Path_1572" data-name="Path 1572" d="M0,0,.142.071Z" transform="translate(10.575 12.633)" fill="#474768"/>
      <path id="Path_1573" data-name="Path 1573" d="M0,0,.142.071Z" transform="translate(0.639 12.633)" fill="#6c6c86"/>
      <path id="Path_1574" data-name="Path 1574" d="M0,0,.142.071Z" transform="translate(21.149 12.562)" fill="#60607d"/>
      <path id="Path_1575" data-name="Path 1575" d="M0,0,.142.071Z" transform="translate(13.839 12.562)" fill="#4f506f"/>
      <path id="Path_1576" data-name="Path 1576" d="M0,0,.142.071Z" transform="translate(5.749 12.562)" fill="#9e9dae"/>
      <path id="Path_1577" data-name="Path 1577" d="M0,0,.142.071Z" transform="translate(2.981 12.562)" fill="#76768f"/>
      <path id="Path_1578" data-name="Path 1578" d="M0,0,.142.071Z" transform="translate(29.524 12.491)" fill="#828298"/>
      <path id="Path_1579" data-name="Path 1579" d="M0,0,.142.071Z" transform="translate(29.027 12.491)" fill="#2a2b51"/>
      <path id="Path_1580" data-name="Path 1580" d="M0,0,.142.071Z" transform="translate(10.362 12.491)" fill="#62627e"/>
      <path id="Path_1581" data-name="Path 1581" d="M0,0,.142.071Z" transform="translate(8.516 12.491)" fill="#525372"/>
      <path id="Path_1582" data-name="Path 1582" d="M0,0,.142.071Z" transform="translate(14.052 12.42)" fill="#3e3e60"/>
      <path id="Path_1583" data-name="Path 1583" d="M0,0,.142.071Z" transform="translate(29.382 12.349)" fill="#8a899e"/>
      <path id="Path_1584" data-name="Path 1584" d="M0,0,.142.071Z" transform="translate(20.865 12.349)" fill="#7e7e95"/>
      <path id="Path_1585" data-name="Path 1585" d="M0,0,.142.071Z" transform="translate(14.194 12.349)" fill="#7c7c93"/>
      <path id="Path_1586" data-name="Path 1586" d="M0,0,.142.071Z" transform="translate(41.588 12.278)" fill="#5c5d7a"/>
      <path id="Path_1587" data-name="Path 1587" fill="#828298"/>
      <path id="Path_1588" data-name="Path 1588" d="M0,0,.142.071Z" transform="translate(10.007 12.207)" fill="#8f8fa2"/>
      <path id="Path_1589" data-name="Path 1589" d="M0,0,.142.071Z" transform="translate(24.556 12.136)" fill="#5c5c79"/>
      <path id="Path_1590" data-name="Path 1590" d="M0,0,.142.071Z" transform="translate(0.355 12.136)" fill="#2d2d53"/>
      <path id="Path_1591" data-name="Path 1591" d="M0,0,.142.071Z" transform="translate(0.497 12.065)" fill="#808096"/>
      <path id="Path_1592" data-name="Path 1592" d="M0,0,.142.071Z" transform="translate(29.382 11.994)" fill="#89889e"/>
      <path id="Path_1593" data-name="Path 1593" d="M0,0,.142.071Z" transform="translate(40.595 11.923)" fill="#333358"/>
      <path id="Path_1594" data-name="Path 1594" d="M0,0,.142.071Z" transform="translate(41.446 11.852)" fill="#4d4d6d"/>
      <path id="Path_1595" data-name="Path 1595" d="M0,0,.142.071Z" transform="translate(29.027 11.852)" fill="#434364"/>
      <path id="Path_1596" data-name="Path 1596" d="M0,0,.142.071Z" transform="translate(28.814 11.71)" fill="#5c5d7a"/>
      <path id="Path_1597" data-name="Path 1597" fill="#565674"/>
      <path id="Path_1598" data-name="Path 1598" fill="#60607d"/>
      <path id="Path_1599" data-name="Path 1599" d="M0,0,.142.071Z" transform="translate(14.194 11.284)" fill="#838398"/>
      <path id="Path_1600" data-name="Path 1600" d="M0,0,.142.071Z" transform="translate(22.923 11.213)" fill="#8c8da0"/>
      <path id="Path_1601" data-name="Path 1601" d="M0,0,.142.071Z" transform="translate(14.336 11.213)" fill="#7a7a92"/>
      <path id="Path_1602" data-name="Path 1602" d="M0,0,.142.071Z" transform="translate(12.207 11.213)" fill="#87879c"/>
      <path id="Path_1603" data-name="Path 1603" d="M0,0,.142.071Z" transform="translate(9.013 11.213)" fill="#7f7f96"/>
      <path id="Path_1604" data-name="Path 1604" d="M0,0,.142.071Z" transform="translate(19.02 11.142)" fill="#515170"/>
      <path id="Path_1605" data-name="Path 1605" d="M0,0,.142.071Z" transform="translate(14.478 11.142)" fill="#73738b"/>
      <path id="Path_1606" data-name="Path 1606" d="M0,0,.142.071Z" transform="translate(14.62 11.071)" fill="#666681"/>
      <path id="Path_1607" data-name="Path 1607" d="M0,0,.142.071Z" transform="translate(25.052 10.858)" fill="#808096"/>
      <path id="Path_1608" data-name="Path 1608" d="M0,0,.142.071Z" transform="translate(19.517 10.858)" fill="#9899aa"/>
      <path id="Path_1609" data-name="Path 1609" d="M0,0,.142.071Z" transform="translate(12.207 9.652)" fill="#6b6c86"/>
      <path id="Path_1610" data-name="Path 1610" d="M0,0,.142.071Z" transform="translate(13.058 9.439)" fill="#6b6c86"/>
      <path id="Path_1611" data-name="Path 1611" d="M0,0,.142.071Z" transform="translate(13.2 9.368)" fill="#787890"/>
      <path id="Path_1612" data-name="Path 1612" d="M0,0,.142.071Z" transform="translate(13.342 9.297)" fill="#848499"/>
      <path id="Path_1613" data-name="Path 1613" d="M0,0,.142.071Z" transform="translate(13.839 8.942)" fill="#535372"/>
      <path id="Path_1614" data-name="Path 1614" d="M0,0,.142.071Z" transform="translate(14.194 8.658)" fill="#88889d"/>
      <path id="Path_1615" data-name="Path 1615" d="M0,0,.142.071Z" transform="translate(12.278 8.516)" fill="#72728b"/>
      <path id="Path_1616" data-name="Path 1616" d="M0,0,.142.071Z" transform="translate(12.42 8.445)" fill="#6f6f89"/>
      <path id="Path_1617" data-name="Path 1617" d="M0,0,.142.071Z" transform="translate(25.478 7.31)" fill="#494969"/>
      <path id="Path_1618" data-name="Path 1618" fill="#434264"/>
      <path id="Path_1619" data-name="Path 1619" fill="#6c6c86"/>
      <path id="Path_1620" data-name="Path 1620" d="M0,0,.142.071Z" transform="translate(13.2 5.891)" fill="#808097"/>
      <path id="Path_1621" data-name="Path 1621" d="M0,0,.142.071Z" transform="translate(13.697 5.82)" fill="#61617e"/>
      <path id="Path_1622" data-name="Path 1622" d="M0,0,.142.071Z" transform="translate(13.555 5.749)" fill="#1d1e46"/>
      <path id="Path_1623" data-name="Path 1623" d="M0,0,.142.071Z" transform="translate(24.272 5.678)" fill="#1d1e46"/>
      <path id="Path_1624" data-name="Path 1624" d="M0,0,.142.071Z" transform="translate(21.859 5.394)" fill="#808096"/>
      <path id="Path_1625" data-name="Path 1625" d="M0,0,.142.071Z" transform="translate(11.426 5.323)" fill="#676782"/>
      <path id="Path_1626" data-name="Path 1626" d="M0,0,.142.071Z" transform="translate(37.827 5.039)" fill="#9f9faf"/>
      <path id="Path_1627" data-name="Path 1627" d="M0,0,.142.071Z" transform="translate(7.381 4.968)" fill="#4a4a6b"/>
      <path id="Path_1628" data-name="Path 1628" d="M0,0,.142.071Z" transform="translate(38.04 4.897)" fill="#63637f"/>
      <path id="Path_1629" data-name="Path 1629" d="M0,0,.142.071Z" transform="translate(22.71 4.897)" fill="#828398"/>
      <path id="Path_1630" data-name="Path 1630" d="M0,0,.142.071Z" transform="translate(7.239 4.897)" fill="#585876"/>
      <path id="Path_1631" data-name="Path 1631" d="M0,0,.142.071Z" transform="translate(38.182 4.826)" fill="#313156"/>
      <path id="Path_1632" data-name="Path 1632" d="M0,0,.142.071Z" transform="translate(36.337 4.826)" fill="#5f5f7c"/>
      <path id="Path_1633" data-name="Path 1633" d="M0,0,.142.071Z" transform="translate(34.42 4.826)" fill="#828298"/>
      <path id="Path_1634" data-name="Path 1634" d="M0,0,.142.071Z" transform="translate(36.195 4.755)" fill="#515170"/>
      <path id="Path_1635" data-name="Path 1635" d="M0,0,.142.071Z" transform="translate(25.052 4.755)" fill="#828298"/>
      <path id="Path_1636" data-name="Path 1636" fill="#6070ff"/>
      <path id="Path_1637" data-name="Path 1637" d="M0,0,.142.071Z" transform="translate(29.807 0.781)" fill="#6070ff"/>
      <path id="Path_1638" data-name="Path 1638" d="M0,0,.142.071Z" transform="translate(28.175 0.639)" fill="#6070ff"/>
      <path id="Path_1639" data-name="Path 1639" d="M0,0,.142.071Z" transform="translate(28.317 0.568)" fill="#6070ff"/>
      <path id="Path_1640" data-name="Path 1640" fill="#2c2d52"/>
      <path id="Path_1641" data-name="Path 1641" fill="#424264"/>
      <path id="Path_1642" data-name="Path 1642" fill="#8f8fa3"/>
      <path id="Path_1643" data-name="Path 1643" fill="#62627e"/>
      <path id="Path_1644" data-name="Path 1644" fill="#37375b"/>
      <path id="Path_1645" data-name="Path 1645" fill="#7d7d94"/>
      <path id="Path_1646" data-name="Path 1646" fill="#37375b"/>
      <path id="Path_1647" data-name="Path 1647" fill="#4d4d6d"/>
      <path id="Path_1648" data-name="Path 1648" fill="#6e6e87"/>
      <path id="Path_1649" data-name="Path 1649" fill="#828298"/>
      <path id="Path_1650" data-name="Path 1650" fill="#6e6e87"/>
      <path id="Path_1651" data-name="Path 1651" fill="#4e4e6d"/>
      <path id="Path_1652" data-name="Path 1652" fill="#807f96"/>
      <path id="Path_1653" data-name="Path 1653" fill="#545573"/>
      <path id="Path_1654" data-name="Path 1654" fill="#787890"/>
      <path id="Path_1655" data-name="Path 1655" fill="#484969"/>
      <path id="Path_1656" data-name="Path 1656" fill="#60607c"/>
      <path id="Path_1657" data-name="Path 1657"/>
      <path id="Path_1658" data-name="Path 1658"/>
      <path id="Path_1659" data-name="Path 1659" fill="#5b5c78"/>
      <path id="Path_1660" data-name="Path 1660" fill="#6f6f88"/>
      <path id="Path_1661" data-name="Path 1661" fill="#85859b"/>
      <path id="Path_1662" data-name="Path 1662" fill="#010230"/>
      <path id="Path_1663" data-name="Path 1663"/>
      <path id="Path_1664" data-name="Path 1664" fill="#000010"/>
      <path id="Path_1665" data-name="Path 1665" fill="#686883"/>
      <path id="Path_1666" data-name="Path 1666" fill="#89899e"/>
      <path id="Path_1667" data-name="Path 1667" fill="#484769"/>
      <path id="Path_1668" data-name="Path 1668" fill="#2e2e53"/>
      <path id="Path_1669" data-name="Path 1669" fill="#3f3f62"/>
      <path id="Path_1670" data-name="Path 1670" fill="#464567"/>
      <path id="Path_1671" data-name="Path 1671" fill="#446"/>
      <path id="Path_1672" data-name="Path 1672" fill="#333357"/>
      <path id="Path_1673" data-name="Path 1673" fill="#515171"/>
      <path id="Path_1674" data-name="Path 1674" fill="#76768e"/>
      <path id="Path_1675" data-name="Path 1675" fill="#8f8fa3"/>
      <path id="Path_1676" data-name="Path 1676" fill="#89899e"/>
      <path id="Path_1677" data-name="Path 1677" fill="#27284e"/>
      <path id="Path_1678" data-name="Path 1678" fill="#21224a"/>
      <path id="Path_1679" data-name="Path 1679" fill="#00000c"/>
      <path id="Path_1680" data-name="Path 1680" fill="#5d5d7a"/>
      <path id="Path_1681" data-name="Path 1681" fill="#515171"/>
      <path id="Path_1682" data-name="Path 1682" fill="#1d1e46"/>
      <path id="Path_1683" data-name="Path 1683" fill="#12123e"/>
      <path id="Path_1684" data-name="Path 1684" fill="#9595a7"/>
      <path id="Path_1685" data-name="Path 1685" fill="#446"/>
      <path id="Path_1686" data-name="Path 1686" fill="#4c4d6c"/>
      <path id="Path_1687" data-name="Path 1687" fill="#5a5a77"/>
      <path id="Path_1688" data-name="Path 1688" fill="#6a6a84"/>
      <path id="Path_1689" data-name="Path 1689" fill="#8c8ca0"/>
      <path id="Path_1690" data-name="Path 1690" fill="#3c3c60"/>
      <path id="Path_1691" data-name="Path 1691" fill="#3a3a5d"/>
      <path id="Path_1692" data-name="Path 1692" fill="#8d8da1"/>
      <path id="Path_1693" data-name="Path 1693" fill="#555674"/>
      <path id="Path_1694" data-name="Path 1694" fill="#404062"/>
      <path id="Path_1695" data-name="Path 1695" fill="#6b6b85"/>
      <path id="Path_1696" data-name="Path 1696" fill="#8d8ca0"/>
      <path id="Path_1697" data-name="Path 1697" fill="#89899e"/>
      <path id="Path_1698" data-name="Path 1698" fill="#9d9dae"/>
      <path id="Path_1699" data-name="Path 1699" fill="#404062"/>
      <path id="Path_1700" data-name="Path 1700" fill="#8c8ca0"/>
      <path id="Path_1701" data-name="Path 1701" fill="#8c8ca0"/>
      <path id="Path_1702" data-name="Path 1702" fill="#89899d"/>
      <path id="Path_1703" data-name="Path 1703" fill="#797a91"/>
      <path id="Path_1704" data-name="Path 1704" fill="#404063"/>
      <path id="Path_1705" data-name="Path 1705" fill="#89899e"/>
      <path id="Path_1706" data-name="Path 1706" fill="#8c8ca0"/>
      <path id="Path_1707" data-name="Path 1707" fill="#89899e"/>
      <path id="Path_1708" data-name="Path 1708" fill="#404062"/>
      <path id="Path_1709" data-name="Path 1709" fill="#404062"/>
      <path id="Path_1710" data-name="Path 1710" fill="#585876"/>
      <path id="Path_1711" data-name="Path 1711" fill="#88889d"/>
      <path id="Path_1712" data-name="Path 1712" fill="#88889d"/>
      <path id="Path_1713" data-name="Path 1713" fill="#585876"/>
      <path id="Path_1714" data-name="Path 1714" fill="#404062"/>
      <path id="Path_1715" data-name="Path 1715" fill="#3e3e61"/>
      <path id="Path_1716" data-name="Path 1716" fill="#87879c"/>
      <path id="Path_1717" data-name="Path 1717" fill="#87879c"/>
      <path id="Path_1718" data-name="Path 1718" fill="#505070"/>
      <path id="Path_1719" data-name="Path 1719" fill="#505070"/>
      <path id="Path_1720" data-name="Path 1720" fill="#7e7e94"/>
      <path id="Path_1721" data-name="Path 1721" fill="#404063"/>
      <path id="Path_1722" data-name="Path 1722" fill="#828298"/>
      <path id="Path_1723" data-name="Path 1723" fill="#838399"/>
      <path id="Path_1724" data-name="Path 1724" fill="#3d3d60"/>
      <path id="Path_1725" data-name="Path 1725" fill="#828298"/>
      <path id="Path_1726" data-name="Path 1726" fill="#3f3f62"/>
      <path id="Path_1727" data-name="Path 1727" fill="#6c6c86"/>
      <path id="Path_1728" data-name="Path 1728" fill="#3a3a5e"/>
      <path id="Path_1729" data-name="Path 1729" fill="#3d3d61"/>
      <path id="Path_1730" data-name="Path 1730" fill="#85859b"/>
      <path id="Path_1731" data-name="Path 1731" fill="#38385c"/>
      <path id="Path_1732" data-name="Path 1732" fill="#404062"/>
      <path id="Path_1733" data-name="Path 1733" fill="#3d3d60"/>
      <path id="Path_1734" data-name="Path 1734" fill="#75758e"/>
      <path id="Path_1735" data-name="Path 1735" fill="#6e6e88"/>
      <path id="Path_1736" data-name="Path 1736" fill="#6d6d87"/>
      <path id="Path_1737" data-name="Path 1737" fill="#454566"/>
      <path id="Path_1738" data-name="Path 1738" fill="#3f3f62"/>
      <path id="Path_1739" data-name="Path 1739" fill="#676782"/>
      <path id="Path_1740" data-name="Path 1740" fill="#3e3e61"/>
      <path id="Path_1741" data-name="Path 1741" fill="#404062"/>
      <path id="Path_1742" data-name="Path 1742" fill="#404062"/>
      <path id="Path_1743" data-name="Path 1743" fill="#404063"/>
      <path id="Path_1744" data-name="Path 1744" fill="#313156"/>
      <path id="Path_1745" data-name="Path 1745" fill="#3f3f62"/>
      <path id="Path_1746" data-name="Path 1746" fill="#5a5a78"/>
      <path id="Path_1747" data-name="Path 1747" fill="#555573"/>
      <path id="Path_1748" data-name="Path 1748" fill="#6c6c86"/>
      <path id="Path_1749" data-name="Path 1749" fill="#3e3e61"/>
      <path id="Path_1750" data-name="Path 1750" fill="#9898aa"/>
      <path id="Path_1751" data-name="Path 1751" fill="#292a50"/>
      <path id="Path_1752" data-name="Path 1752" fill="#4e4f6e"/>
      <path id="Path_1753" data-name="Path 1753"/>
      <path id="Path_1754" data-name="Path 1754" fill="#64647f"/>
      <path id="Path_1755" data-name="Path 1755" fill="#5f5f7c"/>
      <path id="Path_1756" data-name="Path 1756" fill="#8b8ba0"/>
      <path id="Path_1757" data-name="Path 1757" fill="#8b8b9f"/>
      <path id="Path_1758" data-name="Path 1758" fill="#848499"/>
      <path id="Path_1759" data-name="Path 1759" fill="#1c1d45"/>
      <path id="Path_1760" data-name="Path 1760" fill="#14143f"/>
      <path id="Path_1761" data-name="Path 1761" fill="#3f3f62"/>
      <path id="Path_1762" data-name="Path 1762" fill="#595977"/>
      <path id="Path_1763" data-name="Path 1763" fill="#2f3055"/>
      <path id="Path_1764" data-name="Path 1764" fill="#7a7a91"/>
      <path id="Path_1765" data-name="Path 1765" fill="#76768e"/>
      <path id="Path_1766" data-name="Path 1766" fill="#88889d"/>
      <path id="Path_1767" data-name="Path 1767" fill="#8d8ca1"/>
      <path id="Path_1768" data-name="Path 1768" fill="#6a6a84"/>
      <path id="Path_1769" data-name="Path 1769" fill="#3a3a5d"/>
      <path id="Path_1770" data-name="Path 1770" fill="#37375b"/>
      <path id="Path_1771" data-name="Path 1771" fill="#7f7f96"/>
      <path id="Path_1772" data-name="Path 1772" fill="#787890"/>
      <path id="Path_1773" data-name="Path 1773" fill="#85859b"/>
      <path id="Path_1774" data-name="Path 1774" fill="#64637f"/>
      <path id="Path_1775" data-name="Path 1775" fill="#8c8ca0"/>
      <path id="Path_1776" data-name="Path 1776" fill="#6f6f89"/>
      <path id="Path_1777" data-name="Path 1777" fill="#76768e"/>
      <path id="Path_1778" data-name="Path 1778" fill="#9898aa"/>
      <path id="Path_1779" data-name="Path 1779" fill="#39395c"/>
      <path id="Path_1780" data-name="Path 1780" fill="#787890"/>
      <path id="Path_1781" data-name="Path 1781" fill="#49496a"/>
      <path id="Path_1782" data-name="Path 1782" fill="#818197"/>
      <path id="Path_1783" data-name="Path 1783" fill="#303056"/>
      <path id="Path_1784" data-name="Path 1784" fill="#7a7a92"/>
      <path id="Path_1785" data-name="Path 1785" fill="#85859b"/>
      <path id="Path_1786" data-name="Path 1786" fill="#7d7e95"/>
      <path id="Path_1787" data-name="Path 1787" fill="#3e3e61"/>
      <path id="Path_1788" data-name="Path 1788" fill="#787890"/>
      <path id="Path_1789" data-name="Path 1789" fill="#838399"/>
      <path id="Path_1790" data-name="Path 1790" fill="#828298"/>
      <path id="Path_1791" data-name="Path 1791" fill="#8a8a9f"/>
      <path id="Path_1792" data-name="Path 1792" fill="#78788f"/>
      <path id="Path_1793" data-name="Path 1793" fill="#595976"/>
      <path id="Path_1794" data-name="Path 1794" fill="#5e5e7b"/>
      <path id="Path_1795" data-name="Path 1795" fill="#9898aa"/>
      <path id="Path_1796" data-name="Path 1796" fill="#676782"/>
      <path id="Path_1797" data-name="Path 1797" fill="#2e2e54"/>
      <path id="Path_1798" data-name="Path 1798" fill="#1d1e46"/>
      <path id="Path_1799" data-name="Path 1799" fill="#2e2f54"/>
      <path id="Path_1800" data-name="Path 1800" fill="#8e8ea2"/>
      <path id="Path_1801" data-name="Path 1801" fill="#2d2d53"/>
      <path id="Path_1802" data-name="Path 1802" fill="#8e8da1"/>
      <path id="Path_1803" data-name="Path 1803" fill="#404063"/>
      <path id="Path_1804" data-name="Path 1804" fill="#9898aa"/>
      <path id="Path_1805" data-name="Path 1805" fill="#5d5d7a"/>
      <path id="Path_1806" data-name="Path 1806" fill="#414163"/>
      <path id="Path_1807" data-name="Path 1807" fill="#7b7c93"/>
      <path id="Path_1808" data-name="Path 1808" fill="#7d7d94"/>
      <path id="Path_1809" data-name="Path 1809" fill="#585875"/>
      <path id="Path_1810" data-name="Path 1810" fill="#404063"/>
      <path id="Path_1811" data-name="Path 1811" fill="#3e3e61"/>
      <path id="Path_1812" data-name="Path 1812" fill="#8a8a9e"/>
      <path id="Path_1813" data-name="Path 1813" fill="#181942"/>
      <path id="Path_1814" data-name="Path 1814" fill="#1e1f47"/>
      <path id="Path_1815" data-name="Path 1815" fill="#828298"/>
      <path id="Path_1816" data-name="Path 1816" fill="#666681"/>
      <path id="Path_1817" data-name="Path 1817" fill="#36365a"/>
      <path id="Path_1818" data-name="Path 1818" fill="#7c7c93"/>
      <path id="Path_1819" data-name="Path 1819" fill="#9595a7"/>
      <path id="Path_1820" data-name="Path 1820" fill="#73728b"/>
      <path id="Path_1821" data-name="Path 1821" fill="#3e3e61"/>
      <path id="Path_1822" data-name="Path 1822" fill="#1d1e46"/>
      <path id="Path_1823" data-name="Path 1823" fill="#5d5e7a"/>
      <path id="Path_1824" data-name="Path 1824" fill="#6e6e87"/>
      <path id="Path_1825" data-name="Path 1825" fill="#60607d"/>
      <path id="Path_1826" data-name="Path 1826" fill="#414163"/>
      <path id="Path_1827" data-name="Path 1827" fill="#6070ff"/>
      <path id="Path_1828" data-name="Path 1828" fill="#6070ff"/>
      <path id="Path_1829" data-name="Path 1829" fill="#6070ff"/>
      <path id="Path_1830" data-name="Path 1830" fill="#6070ff"/>
      <path id="Path_1831" data-name="Path 1831" fill="#6070ff"/>
      <path id="Path_1832" data-name="Path 1832" fill="#6070ff"/>
      <path id="Path_1833" data-name="Path 1833" fill="#6070ff"/>
      <path id="Path_1834" data-name="Path 1834" fill="#6070ff"/>
      <path id="Path_1835" data-name="Path 1835" fill="#6070ff"/>
    </g>
  </g>
</svg>
