<?xml version="1.0" encoding="UTF-8"?>
<svg version="1.1" xmlns="http://www.w3.org/2000/svg" width="512" height="512">
<path d="M0 0 C9.53521134 6.72331537 14.8755093 15.43330221 17.69140625 26.64453125 C17.91845703 30.19311523 17.91845703 30.19311523 17.88671875 33.890625 C17.88388885 34.54660172 17.88105896 35.20257843 17.87814331 35.87843323 C17.86706609 37.94649534 17.84198688 40.01410298 17.81640625 42.08203125 C17.80636027 43.4954364 17.79723727 44.90884842 17.7890625 46.32226562 C17.76716809 49.76316519 17.73272676 53.20380377 17.69140625 56.64453125 C18.39011097 56.64301237 19.0888157 56.64149349 19.80869329 56.63992858 C61.22752906 56.55039952 102.6463536 56.48177654 144.06526669 56.44026993 C149.03944228 56.43526716 154.01361767 56.43008986 158.98779297 56.42480469 C159.97805397 56.42375545 160.96831497 56.4227062 161.98858388 56.42162517 C178.01884433 56.40422403 194.04904735 56.37268793 210.07927375 56.33592007 C226.53003898 56.29850256 242.98077415 56.27629368 259.43158019 56.26817727 C269.58110021 56.26269119 279.7304579 56.24536919 289.87992795 56.21286538 C296.84155769 56.19170752 303.80310361 56.18533409 310.76476316 56.19052574 C314.78019169 56.19308554 318.79533671 56.18918537 322.81071472 56.16770935 C326.49126253 56.14816841 330.17133759 56.14730959 333.85190769 56.16093567 C335.80500704 56.16341194 337.75810127 56.14622766 339.71111906 56.12820601 C350.14874265 56.19886855 358.26739211 58.47091788 365.9375 65.72265625 C372.58410743 73.00579847 375.23872507 80.90604582 374.99609375 90.74609375 C374.00998127 100.12680481 369.85493386 107.55675522 362.69140625 113.64453125 C355.90738923 117.90236776 350.15956635 119.77847743 342.17578125 119.7421875 C341.04881836 119.73968994 339.92185547 119.73719238 338.76074219 119.73461914 C337.33536133 119.72551514 335.90998047 119.71641113 334.44140625 119.70703125 C329.90390625 119.68640625 325.36640625 119.66578125 320.69140625 119.64453125 C320.69140625 132.51453125 320.69140625 145.38453125 320.69140625 158.64453125 C310.13140625 158.64453125 299.57140625 158.64453125 288.69140625 158.64453125 C288.69140625 150.72453125 288.69140625 142.80453125 288.69140625 134.64453125 C278.79140625 134.64453125 268.89140625 134.64453125 258.69140625 134.64453125 C258.69140625 142.56453125 258.69140625 150.48453125 258.69140625 158.64453125 C248.13140625 158.64453125 237.57140625 158.64453125 226.69140625 158.64453125 C226.69140625 145.77453125 226.69140625 132.90453125 226.69140625 119.64453125 C157.72140625 119.64453125 88.75140625 119.64453125 17.69140625 119.64453125 C17.69140625 129.54453125 17.69140625 139.44453125 17.69140625 149.64453125 C12.91861609 162.76970418 8.61982047 171.33323324 -3.7109375 177.9296875 C-13.70408551 182.56876952 -24.5245421 183.22916409 -35.00390625 179.61328125 C-47.12077499 174.52008897 -54.35483976 165.64324334 -59.30859375 153.64453125 C-60.64929899 149.81394485 -60.42035213 145.90340532 -60.37109375 141.89453125 C-60.36658203 141.19714844 -60.36207031 140.49976563 -60.35742188 139.78125 C-60.34569395 138.06897322 -60.32776028 136.35674092 -60.30859375 134.64453125 C-61.54609375 134.72703125 -62.78359375 134.80953125 -64.05859375 134.89453125 C-75.26763493 134.85928269 -84.94922836 129.51668161 -93.05859375 122.14453125 C-94.17234375 120.90703125 -94.17234375 120.90703125 -95.30859375 119.64453125 C-96.13359375 118.75765625 -96.95859375 117.87078125 -97.80859375 116.95703125 C-106.22625972 106.60091224 -108.26764603 94.6450177 -107.30859375 81.64453125 C-105.44222054 69.00338158 -99.1033704 58.1451944 -89.28515625 49.95703125 C-80.66317672 43.73177527 -70.83549174 41.1103232 -60.30859375 40.64453125 C-60.355 39.76152344 -60.40140625 38.87851562 -60.44921875 37.96875 C-60.83716318 25.06959764 -57.79314808 15.48997449 -49.30859375 5.64453125 C-36.01700092 -7.47118039 -16.10505296 -9.45592788 0 0 Z M-70.30859375 76.64453125 C-73.72221512 80.23321013 -75.10223371 82.89047093 -75.68359375 87.83203125 C-75.10564834 93.70780959 -72.43968272 97.69610705 -68.12109375 101.64453125 C-63.82048022 103.17363828 -59.81536833 103.30176921 -55.30859375 102.64453125 C-50.17550584 100.03132286 -47.12880295 97.10515884 -45.30859375 91.64453125 C-44.91244721 86.39558958 -45.44302058 83.09111031 -48.30859375 78.64453125 C-55.57690031 71.75876714 -62.07304708 71.40219148 -70.30859375 76.64453125 Z " fill="#FFAB03" transform="translate(122.30859375,315.35546875)"/>
<path d="M0 0 C0 33.33 0 66.66 0 101 C33.33 101 66.66 101 101 101 C99.07702859 131.76754251 89.66743365 157.26116628 66.40478516 178.36865234 C46.01580384 196.05660946 19.78772397 204.13229534 -7 203 C-35.65456896 200.82684742 -61.29199436 187.23547925 -80.05859375 165.51171875 C-83.83623058 160.62435359 -86.94496823 155.35947383 -90 150 C-90.7115625 148.76636719 -90.7115625 148.76636719 -91.4375 147.5078125 C-103.96066206 124.26169293 -105.24422138 96.06025227 -98 71 C-92.963474 55.17764263 -84.55430341 41.89792582 -73 30 C-72.45085937 29.38898438 -71.90171875 28.77796875 -71.3359375 28.1484375 C-53.26449291 8.65264259 -25.85810979 0 0 0 Z " fill="#4E6575" transform="translate(117,46)"/>
<path d="M0 0 C1.25554687 -0.01369629 2.51109375 -0.02739258 3.8046875 -0.04150391 C4.51093262 -0.04920807 5.21717773 -0.05691223 5.94482422 -0.06484985 C15.24177346 0.22850987 23.2766138 5.33153689 29.6796875 11.66015625 C36.81852767 19.45605385 40.28621109 28.65640844 40.1953125 39.24609375 C40.1924826 39.90207047 40.18965271 40.55804718 40.18673706 41.23390198 C40.17565984 43.30196409 40.15058063 45.36957173 40.125 47.4375 C40.11495402 48.85090515 40.10583102 50.26431717 40.09765625 51.67773438 C40.07576184 55.11863394 40.04132051 58.55927252 40 62 C40.69870472 61.99848112 41.39740945 61.99696224 42.11728704 61.99539733 C83.53612281 61.90586827 124.95494735 61.83724529 166.37386044 61.79573868 C171.34803603 61.79073591 176.32221142 61.78555861 181.29638672 61.78027344 C182.28664772 61.7792242 183.27690872 61.77817495 184.29717763 61.77709392 C200.32743808 61.75969278 216.3576411 61.72815668 232.3878675 61.69138882 C248.83863273 61.65397131 265.2893679 61.63176243 281.74017394 61.62364602 C291.88969396 61.61815994 302.03905165 61.60083794 312.1885217 61.56833413 C319.15015144 61.54717627 326.11169736 61.54080284 333.07335691 61.54599449 C337.08878544 61.54855429 341.10393046 61.54465412 345.11930847 61.5231781 C348.79985628 61.50363716 352.47993134 61.50277834 356.16050144 61.51640442 C358.11360079 61.51888069 360.06669502 61.50169641 362.01971281 61.48367476 C372.4573364 61.5543373 380.57598586 63.82638663 388.24609375 71.078125 C395.06702352 78.55228412 397.11303895 86.05257273 397 96 C349.63522094 96.09154733 302.27045124 96.16203457 254.90560115 96.20426132 C249.31426455 96.20926417 243.72292813 96.21444146 238.1315918 96.21972656 C237.01845328 96.2207758 235.90531476 96.22182505 234.75844478 96.22290608 C216.73258876 96.24031324 198.70678374 96.27185266 180.68095798 96.30861118 C162.18600475 96.34601193 143.69107823 96.36823403 125.19608873 96.37635398 C113.78287923 96.38184354 102.36981389 96.39918445 90.95664876 96.43166587 C83.13114323 96.45280302 75.30571228 96.45920184 67.48018027 96.45400551 C62.96464724 96.4514425 58.44936622 96.45538274 53.93387794 96.4768219 C49.79757798 96.49631716 45.661699 96.49725083 41.52537947 96.48359558 C40.03127727 96.48190841 38.53714857 96.48695754 37.04309834 96.49953273 C25.18244167 96.59353435 17.43693334 94.88339789 8.71875 86.71875 C1.33615262 79.33615262 -0.31247979 72.48433376 -0.34810352 62.33861542 C-0.33963968 60.04848669 -0.31655886 57.75876874 -0.29296875 55.46875 C-0.28736562 53.86593017 -0.28309891 52.26310515 -0.28010559 50.66027832 C-0.26871315 46.46477796 -0.23929505 42.26959477 -0.20599365 38.07421875 C-0.17517121 33.7838978 -0.16157437 29.49352503 -0.14648438 25.203125 C-0.11441924 16.80193864 -0.06329173 8.4010089 0 0 Z " fill="#FFC34D" transform="translate(100,310)"/>
<path d="M0 0 C0.89146729 0.00334854 1.78293457 0.00669708 2.70141602 0.01014709 C3.71353149 0.016605 3.71353149 0.016605 4.74609375 0.02319336 C6.95693798 15.30915642 8.41667931 30.59976084 9.24609375 46.02319336 C9.30772705 47.16116238 9.36936035 48.29913139 9.43286133 49.47158432 C10.81311899 78.3379161 8.48752455 101.55748426 -11.28515625 123.76147461 C-17.59468511 130.66854333 -24.29932316 137.08422628 -31.25390625 143.33569336 C-32.11486908 144.11019836 -32.97583191 144.88470337 -33.86288452 145.68267822 C-44.61846534 155.28218725 -55.72971604 164.36441801 -67.25390625 173.02319336 C-73.06914004 168.27504308 -77.03641925 163.26473537 -81.25390625 157.02319336 C-82.06214844 155.83016602 -82.06214844 155.83016602 -82.88671875 154.61303711 C-97.25741095 132.07888888 -100.66937649 104.13153698 -95.15893555 78.2746582 C-90.71330356 59.55288607 -81.63628884 43.80356502 -68.25390625 30.02319336 C-67.70476562 29.41217773 -67.155625 28.80116211 -66.58984375 28.17163086 C-50.29168837 10.5888918 -23.77995485 -0.11620863 0 0 Z " fill="#7BB5E8" transform="translate(112.25390625,45.976806640625)"/>
<path d="M0 0 C15.84 0 31.68 0 48 0 C48 56.76 48 113.52 48 172 C32.16 172 16.32 172 0 172 C0 115.24 0 58.48 0 0 Z " fill="#EF4A51" transform="translate(449,170)"/>
<path d="M0 0 C28.73129682 0 52.68829563 10.47353002 73.5 30.125 C85.91332331 42.95429005 94.1824281 58.36019944 98.9375 75.5 C99.13706299 76.19762451 99.33662598 76.89524902 99.54223633 77.61401367 C101.61577312 85.82033829 101.48336467 93.21719939 102 102 C68.34 102 34.68 102 0 102 C0 68.34 0 34.68 0 0 Z " fill="#A3C57E" transform="translate(147,15)"/>
<path d="M0 0 C15.84 0 31.68 0 48 0 C48 49.17 48 98.34 48 149 C32.16 149 16.32 149 0 149 C0 99.83 0 50.66 0 0 Z " fill="#EF4A50" transform="translate(294,193)"/>
<path d="M0 0 C15.51 0 31.02 0 47 0 C47 36.3 47 72.6 47 110 C31.49 110 15.98 110 0 110 C0 73.7 0 37.4 0 0 Z " fill="#EE4A51" transform="translate(372,232)"/>
<path d="M0 0 C0.78532608 -0.00287018 1.57065216 -0.00574036 2.379776 -0.00869751 C4.03989381 -0.01073794 5.70003567 -0.00520948 7.36010742 0.00732422 C9.89752198 0.02335767 12.4333386 0.00748692 14.97070312 -0.01171875 C16.58463893 -0.00973589 18.19857373 -0.00589134 19.8125 0 C20.94859962 -0.00910904 20.94859962 -0.00910904 22.10765076 -0.0184021 C25.12857472 0.02179042 27.64374654 0.26490592 30.45385742 1.40576172 C32.85349284 4.5541019 32.50310501 7.88545407 32.43359375 11.6796875 C32.43267731 12.4895813 32.43176086 13.2994751 32.43081665 14.13391113 C32.42477766 15.84535588 32.40902256 17.55678991 32.38427734 19.26806641 C32.34779123 21.88874219 32.34325781 24.50800312 32.34375 27.12890625 C32.33391786 28.79167889 32.32226043 30.45444195 32.30859375 32.1171875 C32.3063681 32.90162231 32.30414246 33.68605713 32.30184937 34.4942627 C32.23523023 38.31011432 32.13843897 40.14976342 29.97265625 43.3984375 C27.16015625 44.3984375 27.16015625 44.3984375 23.97265625 44.3984375 C20.36673819 41.65942894 19.1091047 40.1259113 18.265625 35.62890625 C18.20649643 34.28208884 18.17176638 32.93400224 18.16015625 31.5859375 C18.13501953 30.89306641 18.10988281 30.20019531 18.08398438 29.48632812 C18.02552362 27.79096628 17.99612578 26.09464463 17.97265625 24.3984375 C17.35477391 25.02323328 17.35477391 25.02323328 16.7244091 25.66065121 C6.69743759 35.79807715 -3.34337665 45.92161497 -13.3997364 56.02989101 C-18.26260637 60.91853511 -23.12069467 65.81175884 -27.96777344 70.71606445 C-32.64423112 75.44770804 -37.33369051 80.16619499 -42.03133774 84.8768177 C-43.82269291 86.67742148 -45.60963657 88.48242508 -47.39209366 90.29183769 C-49.88679036 92.82275444 -52.39662279 95.33766431 -54.91064453 97.84936523 C-55.6464827 98.60317978 -56.38232086 99.35699432 -57.14045715 100.13365173 C-59.99101767 102.9558084 -62.38688949 105.09829951 -66.03463745 106.80775452 C-70.95102194 106.13533309 -73.62895378 102.82365241 -77.02734375 99.3984375 C-77.61635468 98.83084276 -78.2053656 98.26324802 -78.81222534 97.67845345 C-80.59114665 95.95676105 -82.34066691 94.2091372 -84.0859375 92.45336914 C-84.74059494 91.79885773 -85.39525238 91.14434631 -86.06974792 90.47000122 C-88.20382942 88.33523061 -90.3343604 86.19695475 -92.46484375 84.05859375 C-93.95534703 82.56622272 -95.44607323 81.0740743 -96.93701172 79.58213806 C-100.83866929 75.67668337 -104.73731295 71.76823371 -108.63531494 67.85913086 C-112.62223151 63.86193952 -116.61202111 59.86761811 -120.6015625 55.87304688 C-128.41295452 48.05096708 -136.22116228 40.22571702 -144.02734375 32.3984375 C-148.34901244 36.02559904 -152.49083865 39.74070374 -156.47192383 43.74536133 C-156.96716553 44.24206329 -157.46240723 44.73876526 -157.97265625 45.2505188 C-159.03333922 46.31496945 -160.09286712 47.38057216 -161.15131569 48.44724464 C-162.8260539 50.13487222 -164.50400659 51.81924538 -166.18278503 53.50285339 C-169.73797489 57.06939597 -173.28918345 60.63988627 -176.83984375 64.2109375 C-180.97370363 68.36840991 -185.10918544 72.52424224 -189.24887657 76.67590904 C-190.90281975 78.33633877 -192.55372782 79.99974655 -194.20454407 81.6632843 C-195.21279433 82.67516496 -196.22118405 83.68690669 -197.22973633 84.69848633 C-198.11019119 85.58417801 -198.99064606 86.46986969 -199.89778137 87.38240051 C-202.49144695 89.8377997 -203.39658157 90.34475561 -206.96484375 90.6484375 C-210.02734375 90.3984375 -210.02734375 90.3984375 -211.90234375 89.2734375 C-213.68686624 86.29923335 -213.67580375 84.83527548 -213.02734375 81.3984375 C-204.97809097 70.04497922 -193.34286103 60.3071831 -183.57129002 50.445755 C-180.23545444 47.07923591 -176.90810285 43.7051859 -173.59936523 40.31201172 C-170.37993461 37.01068967 -167.14133765 33.72937134 -163.88816643 30.46130371 C-162.65689721 29.21780096 -161.43252449 27.96742891 -160.21539497 26.71008301 C-158.5141624 24.95541529 -156.78940043 23.22761615 -155.05688477 21.50390625 C-154.56365219 20.98348251 -154.07041962 20.46305878 -153.5622406 19.92686462 C-150.79369309 17.23001002 -148.94687504 16.38321702 -145.12608337 15.66052246 C-139.80410296 16.04710949 -136.94797287 19.41432194 -133.41796875 23.09960938 C-132.70478989 23.81162003 -131.99161102 24.52363068 -131.25682068 25.25721741 C-128.91085956 27.60873951 -126.59448462 29.98729018 -124.27734375 32.3671875 C-122.65385228 34.00560412 -121.02858211 35.64226001 -119.40161133 37.27722168 C-115.12913806 41.58020534 -110.88123401 45.90667015 -106.63800049 50.23846436 C-102.30189456 54.65648116 -97.94298529 59.05187085 -93.5859375 63.44921875 C-85.04393204 72.07696156 -76.5277109 80.72968197 -68.02734375 89.3984375 C-63.08929191 85.25724987 -58.44107077 80.95202902 -53.89868164 76.38330078 C-52.88765381 75.37249199 -52.88765381 75.37249199 -51.85620117 74.34126282 C-49.65175249 72.1361232 -47.45085691 69.92747391 -45.25 67.71875 C-43.71322665 66.18010956 -42.17623087 64.64169125 -40.63902283 63.10348511 C-36.61076579 59.07142584 -32.58552205 55.03637155 -28.56091309 51.00067139 C-24.44673259 46.87622728 -20.3296891 42.75464319 -16.21289062 38.6328125 C-8.14824807 30.55747311 -0.08678818 22.47896456 7.97265625 14.3984375 C6.43544922 14.37716797 6.43544922 14.37716797 4.8671875 14.35546875 C3.50646654 14.30854734 2.14579084 14.26030006 0.78515625 14.2109375 C0.11162109 14.20513672 -0.56191406 14.19933594 -1.25585938 14.19335938 C-5.16695753 14.02165263 -6.92606168 13.47933076 -10.015625 11.01171875 C-12.02734375 8.3984375 -12.02734375 8.3984375 -12.02734375 5.7734375 C-9.53149714 -0.1541982 -5.98119321 -0.04782829 0 0 Z " fill="#4E6574" transform="translate(463.02734375,78.6015625)"/>
<path d="M0 0 C15.51 0 31.02 0 47 0 C47 26.07 47 52.14 47 79 C31.49 79 15.98 79 0 79 C0 52.93 0 26.86 0 0 Z " fill="#EF4A51" transform="translate(217,263)"/>
<path d="M0 0 C3.3 0 6.6 0 10 0 C9.96519531 1.32451172 9.96519531 1.32451172 9.9296875 2.67578125 C9.60549031 24.23489438 16.14624549 44.38845496 30.30078125 60.87890625 C32 63 32 63 32.98046875 65.15234375 C34.28712158 67.5203391 35.57195814 67.89965144 38 69 C39.15283272 70.0107775 40.27605045 71.05588619 41.375 72.125 C57.85704663 86.75205614 77.57785731 90.84577091 98.84545898 92.70629883 C101 93 101 93 102 94 C102 96.64 102 99.28 102 102 C68.34 102 34.68 102 0 102 C0 68.34 0 34.68 0 0 Z " fill="#8ABA55" transform="translate(147,15)"/>
<path d="M0 0 C7.92 0 15.84 0 24 0 C24 48.51 24 97.02 24 147 C15.47319361 145.29463872 8.84356298 140.19050297 4 133 C0.06328818 125.56930261 -0.56120454 118.87162364 -0.45410156 110.57373047 C-0.45468567 109.37258102 -0.45526978 108.17143158 -0.45587158 106.93388367 C-0.45357842 103.67190169 -0.43365518 100.41062514 -0.40557575 97.14878225 C-0.3804034 93.72821774 -0.37820773 90.30763626 -0.37347412 86.88699341 C-0.36109045 80.42378112 -0.32833217 73.96084265 -0.28807616 67.4977504 C-0.24321393 60.13373129 -0.22133528 52.76969843 -0.20129442 45.40557647 C-0.15959465 30.27020716 -0.08630094 15.13519305 0 0 Z " fill="#EB757A" transform="translate(473,170)"/>
<path d="M0 0 C7.92 0 15.84 0 24 0 C24 40.92 24 81.84 24 124 C15.48516086 122.29703217 8.82672274 117.19432226 4 110 C0.52453739 103.2099026 -0.57504996 97.24687449 -0.45410156 89.68505859 C-0.45468567 88.70824127 -0.45526978 87.73142395 -0.45587158 86.7250061 C-0.4531099 83.53244071 -0.42210887 80.3408375 -0.390625 77.1484375 C-0.3831558 74.92071035 -0.37746608 72.69297658 -0.37347412 70.46524048 C-0.3582714 64.6290238 -0.31903583 58.79321135 -0.2746582 52.95715332 C-0.23358959 46.9910224 -0.21543841 41.02482557 -0.1953125 35.05859375 C-0.15253625 23.37219053 -0.08223031 11.68619227 0 0 Z " fill="#EA767B" transform="translate(318,193)"/>
<path d="M0 0 C7.59 0 15.18 0 23 0 C23 28.05 23 56.1 23 85 C13.77307558 82.36373588 7.8090232 78.3474881 2.97265625 69.9921875 C0.70973872 65.35729617 -0.24792538 61.85738138 -0.22705078 56.64916992 C-0.22689972 55.3882402 -0.22674866 54.12731049 -0.22659302 52.82817078 C-0.21638136 51.46226848 -0.2059494 50.09636781 -0.1953125 48.73046875 C-0.19157941 47.32514141 -0.18873383 45.91981147 -0.18673706 44.51448059 C-0.17912389 40.82700332 -0.15949553 37.13968518 -0.1373291 33.45227051 C-0.11682059 29.68499911 -0.10772467 25.91770184 -0.09765625 22.15039062 C-0.07624723 14.76684636 -0.04108422 7.38346581 0 0 Z " fill="#EB767B" transform="translate(396,232)"/>
<path d="M0 0 C7.92 0 15.84 0 24 0 C24 17.82 24 35.64 24 54 C13.93684684 51.12481338 8.46005884 46.71388959 3.19140625 37.72265625 C-0.39407351 29.52895333 -0.24610368 21.82193743 -0.125 13 C-0.11146484 11.12248047 -0.11146484 11.12248047 -0.09765625 9.20703125 C-0.07422805 6.13793762 -0.03836179 3.0689433 0 0 Z " fill="#EB767B" transform="translate(240,263)"/>
</svg>
