<?xml version="1.0" encoding="UTF-8"?>
<svg version="1.1" xmlns="http://www.w3.org/2000/svg" width="512" height="512">
<path d="M0 0 C2.44399886 1.17185698 4.80023306 2.44043665 7.16064453 3.77246094 C7.99450684 4.22814453 8.82836914 4.68382812 9.6875 5.15332031 C24.93835829 13.57788846 24.93835829 13.57788846 26.72314453 17.14746094 C26.85729925 19.81982303 26.76632994 22.46996582 26.72314453 25.14746094 C27.55716797 25.39753906 28.39119141 25.64761719 29.25048828 25.90527344 C33.14364676 27.29787681 36.63644455 29.09923392 40.28564453 31.02246094 C51.10229633 36.57868544 62.05613572 40.26800567 74.31689453 40.28027344 C76.21773804 40.28293213 76.21773804 40.28293213 78.15698242 40.28564453 C79.51237055 40.28149024 80.86775794 40.27709061 82.22314453 40.27246094 C83.25542679 40.2721286 83.25542679 40.2721286 84.30856323 40.27178955 C93.15261526 40.26845396 101.95533547 40.04564513 110.78564453 39.52246094 C124.72850693 38.76131842 139.62184444 39.85439072 151.22314453 48.58496094 C152.04814453 49.10058594 152.87314453 49.61621094 153.72314453 50.14746094 C157.32276884 49.07388877 160.47369494 47.21891752 163.73510742 45.38012695 C183.96302524 34.0322412 204.54533226 31.0092428 226.95996094 37.28076172 C228.13437744 37.61503174 228.13437744 37.61503174 229.33251953 37.95605469 C246.75951843 42.88691334 264.8112003 39.73913468 280.57177734 31.13867188 C283.12547111 29.7005323 285.66529699 28.24363209 288.18017578 26.73852539 C292.52992912 24.14746094 292.52992912 24.14746094 294.72314453 24.14746094 C294.62001953 23.09558594 294.51689453 22.04371094 294.41064453 20.95996094 C294.73093586 17.05240675 295.11653367 16.12261878 297.8840332 13.55493164 C302.11963348 10.31342951 306.8579967 7.8702178 311.53564453 5.33496094 C312.59074219 4.73748047 313.64583984 4.14 314.73291016 3.52441406 C320.66904832 0.28820167 324.93086243 -1.8709985 331.72314453 -0.85253906 C334.91786759 0.43269435 337.20784711 2.82153124 339.72314453 5.14746094 C340.23151855 5.61490723 340.73989258 6.08235352 341.26367188 6.56396484 C365.93870045 29.51366637 383.23023252 61.28069799 384.83129883 95.45605469 C385.44531707 120.35762728 385.44531707 120.35762728 381.29345703 127.66308594 C377.50815996 131.32182292 373.17345595 132.97365124 368.34814453 134.95996094 C367.41486328 135.36666016 366.48158203 135.77335938 365.52001953 136.19238281 C356.2379018 140.10375679 356.2379018 140.10375679 351.72314453 139.14746094 C349.60602386 137.60405568 347.70215623 135.87026282 345.72314453 134.14746094 C344.31959717 134.81165039 344.31959717 134.81165039 342.88769531 135.48925781 C311.58527602 150.29491414 311.58527602 150.29491414 300.72314453 155.14746094 C300.01432129 155.46650391 299.30549805 155.78554688 298.57519531 156.11425781 C293.97231457 158.14746094 293.97231457 158.14746094 291.72314453 158.14746094 C291.76955078 158.8603125 291.81595703 159.57316406 291.86376953 160.30761719 C292.11431804 166.9561008 291.78140102 170.80764977 287.72314453 176.14746094 C283.95705313 180.01673292 280.0412057 182.97715337 274.51611328 183.26074219 C272.24755737 183.2717368 269.99022643 183.22387943 267.72314453 183.14746094 C266.73314453 183.14746094 265.74314453 183.14746094 264.72314453 183.14746094 C265.20460938 184.22060547 265.20460938 184.22060547 265.69580078 185.31542969 C267.58937137 190.53534862 267.87133661 196.29121452 265.77783203 201.49902344 C262.764357 206.55938718 259.30615429 210.02441322 253.84814453 212.39746094 C249.04110946 213.55114935 244.46039519 213.66338115 239.72314453 212.14746094 C240.07376953 213.09621094 240.42439453 214.04496094 240.78564453 215.02246094 C242.50186292 221.1094801 241.86827473 226.93899555 238.97314453 232.52246094 C235.90201876 236.105441 233.23275591 238.64425715 228.72314453 240.14746094 C222.07429793 240.64636429 216.38789544 240.92396155 210.72314453 237.14746094 C211.07376953 237.95183594 211.42439453 238.75621094 211.78564453 239.58496094 C213.32089875 245.41892697 212.7926469 250.12304573 209.97314453 255.45996094 C206.81323462 259.23429778 203.78699909 262.55171334 198.72314453 263.14746094 C188.5805128 263.94296147 181.0049872 259.4900275 172.72314453 254.14746094 C172.27583984 254.75074219 171.82853516 255.35402344 171.36767578 255.97558594 C166.03970564 263.01895798 162.26182678 267.49686262 153.27392578 268.94824219 C147.04923691 269.43439706 143.13898764 267.78137487 138.34814453 263.83496094 C133.32076697 259.06337949 132.52454423 254.9593584 131.72314453 248.14746094 C131.02189453 249.07558594 130.32064453 250.00371094 129.59814453 250.95996094 C125.63273107 255.66958365 121.02869738 257.63590042 114.87158203 258.21386719 C109.7426196 258.05533562 105.3331453 256.04190581 100.91064453 253.58496094 C96.99446475 249.22121775 95.55178905 243.6333945 93.72314453 238.14746094 C92.36189453 239.32308594 92.36189453 239.32308594 90.97314453 240.52246094 C85.72758137 245.05272003 81.55984893 245.59349168 74.69970703 245.45996094 C69.04221842 244.86599888 65.57876154 242.32285731 61.84814453 238.08496094 C57.85202494 232.56091327 57.97232557 226.75307027 58.72314453 220.14746094 C60.04632376 216.58042883 61.72188053 213.37807283 63.72314453 210.14746094 C62.71251953 210.47746094 61.70189453 210.80746094 60.66064453 211.14746094 C54.13798461 212.9513228 48.95455869 212.46335147 42.87548828 209.55371094 C38.73832309 206.8506629 35.55594284 202.83489598 34.08642578 198.09277344 C32.89008831 191.68657924 34.25681008 187.1763477 36.84814453 181.38183594 C37.90546696 179.08182012 37.90546696 179.08182012 37.72314453 176.14746094 C36.19612429 174.29214709 36.19612429 174.29214709 34.16064453 172.45996094 C30.03415142 168.57478321 30.03415142 168.57478321 28.44628906 166.39306641 C22.80707339 158.93711675 14.92233612 155.65137824 6.72314453 151.64746094 C5.29131332 150.93430447 3.86031696 150.21946927 2.43017578 149.50292969 C0.30440132 148.43822307 -1.8219163 147.37485898 -3.9519043 146.31860352 C-11.14208107 142.74726846 -18.21555379 138.96590864 -25.27685547 135.14746094 C-26.04723145 135.79690674 -26.81760742 136.44635254 -27.61132812 137.11547852 C-30.27685547 139.14746094 -30.27685547 139.14746094 -32.92529297 139.65917969 C-37.93057182 138.89497045 -42.2792266 136.97438001 -46.90185547 134.95996094 C-48.31337891 134.37891602 -48.31337891 134.37891602 -49.75341797 133.78613281 C-54.70407118 131.65889901 -58.51292781 130.01076535 -61.27685547 125.14746094 C-69.89290597 100.07150263 -60.25756474 67.95095499 -49.26123047 45.11328125 C-42.11573671 30.84356009 -32.54984808 19.33224854 -21.40185547 8.02246094 C-20.86657227 7.4776709 -20.33128906 6.93288086 -19.77978516 6.37158203 C-13.82362097 0.46583052 -8.4146164 -3.15074421 0 0 Z " fill="#DDA268" transform="translate(95.27685546875,235.8525390625)"/>
<path d="M0 0 C2.04230651 1.68012407 4.01794807 3.38297878 5.9609375 5.1796875 C6.46931152 5.64713379 6.97768555 6.11458008 7.50146484 6.59619141 C32.17649342 29.54589293 49.46802549 61.31292455 51.0690918 95.48828125 C51.68311004 120.38985385 51.68311004 120.38985385 47.53125 127.6953125 C43.74595293 131.35404949 39.41124892 133.0058778 34.5859375 134.9921875 C33.65265625 135.39888672 32.719375 135.80558594 31.7578125 136.22460938 C22.47569477 140.13598335 22.47569477 140.13598335 17.9609375 139.1796875 C15.84381683 137.63628224 13.9399492 135.90248938 11.9609375 134.1796875 C10.57310059 134.83602173 10.57310059 134.83602173 9.15722656 135.50561523 C-7.84358945 143.54217536 -24.84005324 151.57324606 -42.0390625 159.1796875 C-42.47275146 158.59880371 -42.90644043 158.01791992 -43.35327148 157.41943359 C-43.90958252 156.68031738 -44.46589355 155.94120117 -45.0390625 155.1796875 C-45.50836182 154.5501416 -45.97766113 153.9205957 -46.46118164 153.27197266 C-51.26366368 147.29968433 -56.75333129 144.08495647 -63.4765625 140.5546875 C-65.72117349 139.33800407 -67.96463491 138.11919781 -70.20703125 136.8984375 C-71.34446777 136.28355469 -72.4819043 135.66867187 -73.65380859 135.03515625 C-78.92659855 132.14512281 -84.10748263 129.10434477 -89.2890625 126.0546875 C-91.26800512 124.89675244 -93.24716993 123.739197 -95.2265625 122.58203125 C-98.12977571 120.88314628 -101.0325348 119.18351845 -103.93359375 117.48095703 C-131.7058397 101.08945824 -131.7058397 101.08945824 -163.265625 101.171875 C-172.79674305 104.01892942 -181.63598691 108.2666113 -190.55078125 112.62402344 C-200.29475904 117.35463766 -210.96853985 122.38782409 -222.0390625 120.1796875 C-230.19445365 117.15917226 -237.07354884 113.55702208 -242.0390625 106.1796875 C-242.92558173 103.52012981 -243.29008569 101.62805567 -243.4140625 98.8671875 C-243.46304688 98.12855469 -243.51203125 97.38992188 -243.5625 96.62890625 C-242.3282427 90.85368738 -237.83349858 87.87945852 -233.14453125 84.83984375 C-231.17823353 83.63022747 -229.20515498 82.43158654 -227.2265625 81.2421875 C-225.07013935 79.92085546 -222.91389462 78.5992322 -220.7578125 77.27734375 C-219.65050781 76.6033252 -218.54320312 75.92930664 -217.40234375 75.23486328 C-211.98465575 71.92431613 -206.6069185 68.5504361 -201.2265625 65.1796875 C-200.26838623 64.58164307 -199.31020996 63.98359863 -198.32299805 63.36743164 C-186.39773164 56.0133574 -186.39773164 56.0133574 -174.7890625 48.1796875 C-157.98192088 37.01473019 -137.48887457 30.97461998 -117.359375 34.671875 C-113.00555831 35.6324592 -108.71641994 36.76558223 -104.4296875 37.98828125 C-87.0026886 42.9191399 -68.95100673 39.77136124 -53.19042969 31.17089844 C-50.63673592 29.73275887 -48.09691004 28.27585865 -45.58203125 26.77075195 C-41.23227791 24.1796875 -41.23227791 24.1796875 -39.0390625 24.1796875 C-39.1421875 23.1278125 -39.2453125 22.0759375 -39.3515625 20.9921875 C-39.03127117 17.08463332 -38.64567336 16.15484535 -35.87817383 13.5871582 C-31.64257356 10.34565607 -26.90421033 7.90244436 -22.2265625 5.3671875 C-21.17146484 4.76970703 -20.11636719 4.17222656 -19.02929688 3.55664062 C-7.19556849 -2.89476893 -7.19556849 -2.89476893 0 0 Z " fill="#FCD6AC" transform="translate(429.0390625,235.8203125)"/>
<path d="M0 0 C4.45371754 3.08259489 6.34333006 5.28032564 7.53515625 10.515625 C8.04492216 13.75351742 8.46487054 16.97700693 8.7890625 20.23828125 C10.18125 19.24828125 10.18125 19.24828125 11.6015625 18.23828125 C16.50933249 15.45654927 21.29269928 15.45647096 26.7890625 16.23828125 C32.98682642 18.16991767 36.59057285 21.45558581 39.8515625 27.06640625 C40.94392347 29.59704249 41.19757951 31.74616333 41.4140625 34.48828125 C41.52621094 35.82632813 41.52621094 35.82632813 41.640625 37.19140625 C41.68960938 37.866875 41.73859375 38.54234375 41.7890625 39.23828125 C42.7171875 38.57828125 43.6453125 37.91828125 44.6015625 37.23828125 C49.50933249 34.45654927 54.29269928 34.45647096 59.7890625 35.23828125 C66.17310083 37.2279732 69.73471807 40.64317849 73.0390625 46.42578125 C74.1722592 50.67526889 73.94185697 54.86666181 73.7890625 59.23828125 C74.93375 58.27921875 74.93375 58.27921875 76.1015625 57.30078125 C81.19994598 53.38806835 86.60061596 53.64568035 92.7890625 54.23828125 C98.42050455 55.80940626 101.70821382 58.72878614 104.87890625 63.5546875 C107.26041543 67.95996842 107.62333724 72.38185265 106.7890625 77.23828125 C103.90398828 84.35750666 100.12437691 91.04005557 95.890625 97.4453125 C94.72604817 99.34084712 93.86863405 101.26453097 92.9765625 103.30078125 C90.24295212 108.82245639 86.12085981 112.95315943 80.328125 115.1875 C74.8813875 116.5030966 69.89367866 116.7497524 64.7890625 114.23828125 C60.2473926 111.09776483 56.0458326 107.82392613 54.7890625 102.23828125 C54.4077551 99.91230614 54.06445996 97.57915967 53.7890625 95.23828125 C53.0878125 96.16640625 52.3865625 97.09453125 51.6640625 98.05078125 C47.69864904 102.76040396 43.09461535 104.72672073 36.9375 105.3046875 C31.80853757 105.14615593 27.39906327 103.13272612 22.9765625 100.67578125 C19.06038272 96.31203806 17.61770702 90.72421481 15.7890625 85.23828125 C14.4278125 86.41390625 14.4278125 86.41390625 13.0390625 87.61328125 C7.79349934 92.14354034 3.62576689 92.68431199 -3.234375 92.55078125 C-8.89186361 91.95681919 -12.35532049 89.41367763 -16.0859375 85.17578125 C-20.08205709 79.65173358 -19.96175646 73.84389059 -19.2109375 67.23828125 C-17.88775828 63.67124915 -16.2122015 60.46889314 -14.2109375 57.23828125 C-15.726875 57.73328125 -15.726875 57.73328125 -17.2734375 58.23828125 C-23.79609742 60.04214311 -28.97952334 59.55417179 -35.05859375 56.64453125 C-39.19575894 53.94148321 -42.37813919 49.9257163 -43.84765625 45.18359375 C-45.49034582 36.38725603 -42.29999218 29.13147743 -37.4609375 21.92578125 C-36.94917969 21.20132812 -36.43742188 20.476875 -35.91015625 19.73046875 C-33.8797391 16.7525236 -32.09594077 13.65996477 -30.2734375 10.55078125 C-27.00425092 5.20631752 -23.5750266 -0.36274664 -17.2734375 -2.3828125 C-10.96670728 -3.54143529 -5.61709249 -3.25612334 0 0 Z " fill="#FCD6AC" transform="translate(173.2109375,388.76171875)"/>
<path d="M0 0 C2 2 2 2 2.046875 4.80078125 C0.00924424 28.9038083 0.00924424 28.9038083 -4 33 C-7.0625 33.375 -7.0625 33.375 -10 33 C-13.00617269 29.99382731 -12.59585316 27.17618402 -13 23 C-18.56767551 28.33889536 -24.0992881 33.71323172 -29.60766602 39.11328125 C-31.48437409 40.94481621 -33.36909209 42.76818174 -35.26196289 44.58300781 C-37.9866622 47.19814628 -40.68089393 49.84162804 -43.37109375 52.4921875 C-44.21900986 53.29365204 -45.06692596 54.09511658 -45.9405365 54.92086792 C-49.93946424 58.91631383 -52.4156656 61.61325832 -52.89868164 67.37548828 C-52.88195152 68.57807785 -52.88195152 68.57807785 -52.86488342 69.80496216 C-53.10859082 73.76411336 -55.13275244 75.39341131 -58 78 C-61.62024278 80.25042119 -64.80486086 80.28823649 -69.00390625 79.59765625 C-72.55729756 78.533725 -74.53222713 76.70279886 -77 74 C-77.27976685 72.35644531 -77.27976685 72.35644531 -77.56518555 70.6796875 C-79.70593404 65.18958008 -83.47977759 63.82024676 -88.58203125 61.25 C-90.0297718 60.49553589 -90.0297718 60.49553589 -91.50675964 59.72583008 C-93.55268669 58.66877241 -95.60493215 57.62386784 -97.6628418 56.59033203 C-100.7835312 55.01462699 -103.87055602 53.38394526 -106.95898438 51.74609375 C-119.93904848 44.76984121 -119.93904848 44.76984121 -134.2878418 43.80859375 C-138.20475551 45.52922917 -140.90941831 48.07681282 -144 51 C-145.1603904 52.09654404 -145.1603904 52.09654404 -146.34422302 53.21524048 C-151.65784339 58.29792732 -156.8953359 63.45933366 -162.1249218 68.62829304 C-164.76626692 71.23899525 -167.41498192 73.84110658 -170.08300781 76.42456055 C-172.68306919 78.94247487 -175.26277387 81.47967487 -177.82950211 84.03154564 C-178.80422767 84.99408055 -179.78579153 85.94974485 -180.77441025 86.89800453 C-187.27558104 92.87551399 -187.27558104 92.87551399 -190.00048828 100.94604492 C-189.9862381 101.64735031 -189.97198792 102.3486557 -189.95730591 103.07121277 C-190.03397844 106.53504097 -191.7888744 108.49007364 -194 111 C-198.30947489 114.10683074 -201.78287013 114.43051506 -206.8828125 113.640625 C-210.27996559 112.61270414 -211.90604965 110.7919338 -214 108 C-214.27992294 107.16126343 -214.55984589 106.32252686 -214.84825134 105.45837402 C-215.78048563 102.8821225 -215.78048563 102.8821225 -218.00221252 101.77111816 C-219.23390419 101.34784241 -219.23390419 101.34784241 -220.49047852 100.91601562 C-221.88817223 100.42155945 -221.88817223 100.42155945 -223.31410217 99.91711426 C-224.32548752 99.58352905 -225.33687286 99.24994385 -226.37890625 98.90625 C-227.94075905 98.3734845 -227.94075905 98.3734845 -229.53416443 97.82995605 C-231.74089979 97.08412194 -233.95107934 96.34841346 -236.16430664 95.62207031 C-239.53678971 94.50848944 -242.88977849 93.34655081 -246.24414062 92.1796875 C-248.39222351 91.46053081 -250.54128503 90.74428939 -252.69140625 90.03125 C-254.18722984 89.50658142 -254.18722984 89.50658142 -255.71327209 88.97131348 C-261.50933697 87.12152702 -265.15017813 86.61332884 -270.745224 89.23718262 C-273 90 -273 90 -276.44509888 89.84288025 C-280.8866075 90.03918634 -281.99608639 91.11148271 -285.10913086 94.20336914 C-286.04957748 95.12175064 -286.99002411 96.04013214 -287.95896912 96.98634338 C-288.96182461 98.00172892 -289.96376126 99.01802265 -290.96484375 100.03515625 C-292.00757057 101.07316424 -293.05133435 102.11013151 -294.09608459 103.14610291 C-296.27850739 105.31822161 -298.44780912 107.50245424 -300.60864258 109.69604492 C-303.37491537 112.50220219 -306.17143665 115.27575106 -308.97856808 118.04096317 C-311.13862432 120.17568307 -313.28167889 122.32684821 -315.42001534 124.48330498 C-316.44470585 125.51265378 -317.47459086 126.53685918 -318.50974846 127.55568123 C-319.95567655 128.9837663 -321.37675486 130.43687906 -322.79663086 131.89086914 C-324.01738564 133.11997765 -324.01738564 133.11997765 -325.26280212 134.37391663 C-327.50409485 137.76202896 -327.2677889 140.01297978 -327 144 C-328.27193115 148.70851533 -330.12119085 151.44229419 -334.25 154.0625 C-338.90574256 155.22643564 -341.33283759 155.1291522 -346 154 C-348.94708647 152.20612128 -350.54822332 150.71873562 -352.375 147.8125 C-353.56283213 142.46725544 -353.07203437 137.73743501 -350.1875 133.0625 C-346.77957659 129.84931507 -346.77957659 129.84931507 -344 129 C-342.86103271 129.19134521 -341.72206543 129.38269043 -340.54858398 129.57983398 C-334.85452753 129.59837826 -331.82713461 125.8344694 -327.9533844 122.06495667 C-326.95878312 121.05603284 -325.96523191 120.04607293 -324.97265625 119.03515625 C-323.93389842 118.00179365 -322.89395601 116.96962057 -321.85289001 115.93858337 C-319.67895766 113.77642198 -317.52009002 111.60051754 -315.37084961 109.41381836 C-312.62480666 106.62224853 -309.84447164 103.86807736 -307.05175114 101.1232996 C-304.89834424 98.99891259 -302.76449215 96.8556975 -300.63592339 94.70644951 C-299.61837979 93.68359674 -298.59493552 92.66657709 -297.56541634 91.65577888 C-290.86170953 85.38313499 -290.86170953 85.38313499 -287.97436523 77.01342773 C-287.99224594 76.31797348 -288.01012665 75.62251923 -288.02854919 74.9059906 C-287.97680964 71.45177358 -286.20076058 69.49816066 -284 67 C-279.69052511 63.89316926 -276.21712987 63.56948494 -271.1171875 64.359375 C-267.72003441 65.38729586 -266.09395035 67.2080662 -264 70 C-263.72138626 70.83906387 -263.44277252 71.67812775 -263.15571594 72.5426178 C-262.21968604 75.1237394 -262.21968604 75.1237394 -259.97087097 76.22215271 C-259.13767838 76.50132034 -258.30448578 76.78048798 -257.44604492 77.06811523 C-256.50133835 77.39452499 -255.55663177 77.72093475 -254.58329773 78.05723572 C-253.04739738 78.55290794 -253.04739738 78.55290794 -251.48046875 79.05859375 C-249.90438591 79.58780174 -249.90438591 79.58780174 -248.29646301 80.12770081 C-246.07277255 80.86895846 -243.845818 81.6004845 -241.6159668 82.32299805 C-238.20251281 83.43261974 -234.80350185 84.57998626 -231.40429688 85.73242188 C-229.24294692 86.44761161 -227.08085954 87.16057745 -224.91796875 87.87109375 C-223.90010788 88.21571152 -222.88224701 88.56032928 -221.83354187 88.91539001 C-220.87937881 89.21973465 -219.92521576 89.52407928 -218.94213867 89.83764648 C-218.1065593 90.11124496 -217.27097992 90.38484344 -216.41007996 90.66673279 C-213.3785993 91.08592764 -211.73646629 90.28176056 -209 89 C-206.7236122 88.66218866 -204.47834071 88.50283125 -202.18359375 88.34375 C-197.31102907 87.57669152 -194.49771993 84.77289067 -191.04785156 81.40185547 C-190.5693425 80.9364888 -190.09083344 80.47112213 -189.5978241 79.99165344 C-188.02290066 78.45601821 -186.45598818 76.91256399 -184.890625 75.3671875 C-184.35369774 74.83841129 -183.81677048 74.30963509 -183.26357269 73.76483536 C-180.4241391 70.96704067 -177.59125181 68.16279595 -174.76318359 65.35351562 C-171.84548214 62.45796801 -168.90519663 59.58653038 -165.9591713 56.71984673 C-163.69302227 54.50603572 -161.4448734 52.27458893 -159.20116425 50.03805923 C-158.12498651 48.97160699 -157.0420739 47.91190558 -155.95233917 46.85931015 C-149.97392664 41.49242013 -149.97392664 41.49242013 -146.37306213 34.58985901 C-146.3150209 32.19888764 -146.3150209 32.19888764 -147 29 C-145.74899514 24.60982768 -143.6123984 22.37686055 -139.75 20 C-135.44792167 18.85277911 -132.23164158 18.53314945 -128 20 C-124.80868256 22.56692924 -122.38162059 25.10634199 -121 29 C-121 30.32 -121 31.64 -121 33 C-119.73881348 33.3861145 -119.73881348 33.3861145 -118.45214844 33.7800293 C-114.73426877 35.09390799 -111.27310794 36.73739819 -107.765625 38.51953125 C-107.08755798 38.85997971 -106.40949097 39.20042816 -105.71087646 39.55119324 C-103.55532822 40.63452418 -101.40262743 41.72337878 -99.25 42.8125 C-97.82050031 43.53227416 -96.39081431 44.25167842 -94.9609375 44.97070312 C-93.91528625 45.49722977 -93.91528625 45.49722977 -92.84851074 46.03439331 C-91.46944939 46.72802569 -90.08965665 47.42020602 -88.70910645 48.11087036 C-85.74430415 49.59748674 -82.80721141 51.10540282 -79.89648438 52.69677734 C-79.01798828 53.17195801 -78.13949219 53.64713867 -77.234375 54.13671875 C-76.49928711 54.55010498 -75.76419922 54.96349121 -75.00683594 55.3894043 C-72.99794439 56.25226523 -72.99794439 56.25226523 -71.23535156 55.11645508 C-69 54 -69 54 -65.34570312 54.421875 C-61.21505959 54.50960886 -59.42804324 53.07660463 -56.41992188 50.328125 C-54.74886951 48.65581083 -53.0995594 46.96158155 -51.46875 45.25 C-50.59222778 44.3621582 -49.71570557 43.47431641 -48.81262207 42.55957031 C-46.49627265 40.20609891 -44.19835852 37.83643445 -41.90820312 35.45751953 C-39.5629341 33.0301173 -37.19458613 30.62546455 -34.828125 28.21875 C-30.19726857 23.49977564 -25.59000432 18.75870104 -21 14 C-22.10472656 14.0309375 -23.20945312 14.061875 -24.34765625 14.09375 C-28.18143436 13.99534286 -29.30554658 13.58667528 -32 11 C-31.67 8.69 -31.34 6.38 -31 4 C-25.7268677 2.01063048 -20.48263139 1.13595404 -14.9375 0.3125 C-14.05255859 0.17005859 -13.16761719 0.02761719 -12.25585938 -0.11914062 C-3.90611187 -1.37817982 -3.90611187 -1.37817982 0 0 Z " fill="#7886BE" transform="translate(459,8)"/>
<path d="M0 0 C2.04230651 1.68012407 4.01794807 3.38297878 5.9609375 5.1796875 C6.46931152 5.64713379 6.97768555 6.11458008 7.50146484 6.59619141 C32.17649342 29.54589293 49.46802549 61.31292455 51.0690918 95.48828125 C51.68311004 120.38985385 51.68311004 120.38985385 47.53125 127.6953125 C43.74595293 131.35404949 39.41124892 133.0058778 34.5859375 134.9921875 C33.65265625 135.39888672 32.719375 135.80558594 31.7578125 136.22460938 C22.44033379 140.15088404 22.44033379 140.15088404 17.9609375 139.1796875 C15.01045687 137.20323074 13.26965271 135.69876804 12.54248047 132.12060547 C12.38237601 129.61018873 12.37225069 127.1324999 12.3984375 124.6171875 C11.75551411 93.56776982 -0.09262605 65.72756387 -20.0390625 42.1796875 C-20.68875 41.38949219 -21.3384375 40.59929687 -22.0078125 39.78515625 C-26.64886091 34.26863735 -31.99050149 29.69475034 -37.5390625 25.1171875 C-39.0390625 23.1796875 -39.0390625 23.1796875 -39.6015625 20.2421875 C-38.86974468 16.25784605 -37.1224847 14.59517884 -34.0390625 12.1796875 C-30.19909358 9.72327764 -26.23298061 7.53864191 -22.2265625 5.3671875 C-21.17146484 4.76970703 -20.11636719 4.17222656 -19.02929688 3.55664062 C-7.19556849 -2.89476893 -7.19556849 -2.89476893 0 0 Z " fill="#5AADFE" transform="translate(429.0390625,235.8203125)"/>
<path d="M0 0 C2.44399886 1.17185698 4.80023306 2.44043665 7.16064453 3.77246094 C7.99450684 4.22814453 8.82836914 4.68382812 9.6875 5.15332031 C24.93835829 13.57788846 24.93835829 13.57788846 26.72314453 17.14746094 C27.28564453 20.33496094 27.28564453 20.33496094 26.72314453 24.14746094 C24.38089157 26.8939606 21.59640406 28.97982521 18.72314453 31.14746094 C-5.61091721 50.17519644 -20.24226661 83.06759425 -24.27685547 113.14746094 C-24.77220704 118.33060983 -25.17393276 123.52072404 -25.41845703 128.72192383 C-25.47485352 129.64739014 -25.53125 130.57285645 -25.58935547 131.52636719 C-25.62673828 132.34693604 -25.66412109 133.16750488 -25.70263672 134.01293945 C-26.47854044 136.89717681 -27.74311301 137.66540554 -30.27685547 139.14746094 C-36.27889144 140.19011069 -41.51835317 137.30594847 -46.90185547 134.95996094 C-48.31337891 134.37891602 -48.31337891 134.37891602 -49.75341797 133.78613281 C-54.70407118 131.65889901 -58.51292781 130.01076535 -61.27685547 125.14746094 C-69.89290597 100.07150263 -60.25756474 67.95095499 -49.26123047 45.11328125 C-42.11573671 30.84356009 -32.54984808 19.33224854 -21.40185547 8.02246094 C-20.86657227 7.4776709 -20.33128906 6.93288086 -19.77978516 6.37158203 C-13.82362097 0.46583052 -8.4146164 -3.15074421 0 0 Z " fill="#7885BE" transform="translate(95.27685546875,235.8525390625)"/>
<path d="M0 0 C13.2 0 26.4 0 40 0 C40 45.54 40 91.08 40 138 C26.8 138 13.6 138 0 138 C0 92.46 0 46.92 0 0 Z " fill="#2CD62C" transform="translate(305,79)"/>
<path d="M0 0 C4.36176832 1.85607163 8.11293566 4.47081658 11.9375 7.25 C8.25660513 11.50258698 3.67510248 13.95873287 -1.125 16.75 C-2.93595775 17.81981904 -4.74582787 18.891481 -6.5546875 19.96484375 C-7.93285645 20.78251221 -7.93285645 20.78251221 -9.33886719 21.61669922 C-15.8802347 25.53940885 -22.30240457 29.65366573 -28.72802734 33.76220703 C-31.1212354 35.28743292 -33.52296037 36.79856633 -35.92578125 38.30859375 C-37.47163023 39.28862718 -39.01721391 40.26907926 -40.5625 41.25 C-41.6311731 41.91721069 -41.6311731 41.91721069 -42.72143555 42.59790039 C-47.60665245 45.69174073 -47.60665245 45.69174073 -51.0625 50.25 C-52.10514289 55.33170993 -51.39503554 60.23223292 -48.5234375 64.62109375 C-43.66654667 70.03639717 -35.82798124 74.62741294 -28.640625 75.56640625 C-16.22160489 76.12274964 -4.98006727 70.55131872 5.9375 65.25 C23.98176202 56.48812277 40.20723218 51.46555703 59.9375 58.25 C79.90675365 66.79885722 98.61595266 78.97012404 117.30078125 89.95703125 C120.83993243 92.03559942 124.39490672 94.07684433 127.98046875 96.07421875 C144.91138356 105.5763899 144.91138356 105.5763899 148.9375 115.25 C149.91524547 122.03737263 148.93686885 126.7214607 144.9375 132.25 C144.2775 132.58 143.6175 132.91 142.9375 133.25 C142.8859375 132.60933594 142.834375 131.96867188 142.78125 131.30859375 C142.6678125 130.44363281 142.554375 129.57867187 142.4375 128.6875 C142.3446875 127.84058594 142.251875 126.99367188 142.15625 126.12109375 C138.79243704 118.19672669 129.64132119 114.0866797 122.4375 110.1875 C120.38452032 109.05240091 118.33246561 107.91562757 116.28125 106.77734375 C115.23195313 106.19710449 114.18265625 105.61686523 113.1015625 105.01904297 C108.00404366 102.16899501 102.97249188 99.20865556 97.9375 96.25 C89.87112658 91.53297667 81.79774062 86.82877436 73.6875 82.1875 C72.78386719 81.66349609 71.88023437 81.13949219 70.94921875 80.59960938 C56.95355801 72.6330072 44.54413378 67.73026702 28.57421875 72.00390625 C21.23449771 74.5188053 14.25580439 77.92388158 7.22705078 81.19140625 C-7.63047701 88.06091366 -23.207155 94.09328828 -39.55859375 88.35546875 C-51.03710259 83.28773396 -60.26480022 77.11527901 -65.0625 65.25 C-67.4140367 58.1953899 -67.19782053 49.66477183 -64.125 42.875 C-57.97861088 32.53025765 -47.49858612 27.30828513 -37.421875 21.4140625 C-32.18662 18.34715493 -27.05511139 15.13342529 -21.9375 11.875 C-20.368494 10.88410758 -18.79948378 9.89322187 -17.23046875 8.90234375 C-14.75612562 7.33542617 -12.30468256 5.74756426 -9.86328125 4.12890625 C-3.98681638 0.3254544 -3.98681638 0.3254544 0 0 Z " fill="#D19458" transform="translate(238.0625,279.75)"/>
<path d="M0 0 C13.53 0 27.06 0 41 0 C41 35.97 41 71.94 41 109 C27.47 109 13.94 109 0 109 C0 73.03 0 37.06 0 0 Z " fill="#F79A00" transform="translate(373,108)"/>
<path d="M0 0 C13.53 0 27.06 0 41 0 C41 31.68 41 63.36 41 96 C27.47 96 13.94 96 0 96 C0 64.32 0 32.64 0 0 Z " fill="#FDC62D" transform="translate(167,121)"/>
<path d="M0 0 C13.2 0 26.4 0 40 0 C40 25.08 40 50.16 40 76 C26.8 76 13.6 76 0 76 C0 50.92 0 25.84 0 0 Z " fill="#5BADFE" transform="translate(236,141)"/>
<path d="M0 0 C3.04222214 2.3302127 4.63672958 3.90040462 5.84130859 7.54658508 C6.77822766 10.12970475 6.77822766 10.12970475 9.04931641 11.19523621 C9.89155762 11.46233902 10.73379883 11.72944183 11.6015625 12.00463867 C12.55595215 12.31813766 13.5103418 12.63163666 14.49365234 12.95463562 C15.52699707 13.27253555 16.5603418 13.59043549 17.625 13.91796875 C18.68283691 14.26128738 19.74067383 14.60460602 20.83056641 14.95832825 C24.21473996 16.05327675 27.60662974 17.12143058 31 18.1875 C34.39168867 19.26887669 37.78149682 20.35573299 41.16943359 21.44880676 C43.27922155 22.1278094 45.39149092 22.7991574 47.50634766 23.46220398 C48.4607373 23.76624649 49.41512695 24.070289 50.3984375 24.38354492 C51.24067871 24.64826096 52.08291992 24.91297699 52.95068359 25.18571472 C55 26 55 26 57 28 C56.690625 28.53625 56.38125 29.0725 56.0625 29.625 C54.82218999 32.39745767 54.45497113 35.0078475 54 38 C48.95014603 36.36491174 43.90051427 34.72913953 38.85107422 33.09277344 C37.13856784 32.53790465 35.42600421 31.98321253 33.71337891 31.42871094 C32.04971102 30.89003647 30.38616111 30.3509975 28.72273254 29.81158447 C27.08950712 29.28251473 25.45579076 28.75495801 23.82157898 28.22894287 C18.30927833 26.44895156 12.84715606 24.55539171 7.41821289 22.53320312 C3.88564802 21.75429129 1.41702405 22.65118988 -1.76953125 24.203125 C-4 25 -4 25 -7.32008362 24.78709412 C-11.83318285 25.04820477 -12.94619887 26.06193426 -16.10913086 29.20336914 C-17.04957748 30.12175064 -17.99002411 31.04013214 -18.95896912 31.98634338 C-19.96182461 33.00172892 -20.96376126 34.01802265 -21.96484375 35.03515625 C-23.00757057 36.07316424 -24.05133435 37.11013151 -25.09608459 38.14610291 C-27.27850739 40.31822161 -29.44780912 42.50245424 -31.60864258 44.69604492 C-34.37491537 47.50220219 -37.17143665 50.27575106 -39.97856808 53.04096317 C-42.13862432 55.17568307 -44.28167889 57.32684821 -46.42001534 59.48330498 C-47.44470585 60.51265378 -48.47459086 61.53685918 -49.50974846 62.55568123 C-50.95567655 63.9837663 -52.37675486 65.43687906 -53.79663086 66.89086914 C-54.61046738 67.71027481 -55.42430389 68.52968048 -56.26280212 69.37391663 C-58.50409485 72.76202896 -58.2677889 75.01297978 -58 79 C-59.27193115 83.70851533 -61.12119085 86.44229419 -65.25 89.0625 C-69.90574256 90.22643564 -72.33283759 90.1291522 -77 89 C-79.94708647 87.20612128 -81.54822332 85.71873562 -83.375 82.8125 C-84.56283213 77.46725544 -84.07203437 72.73743501 -81.1875 68.0625 C-77.77957659 64.84931507 -77.77957659 64.84931507 -75 64 C-73.86103271 64.19134521 -72.72206543 64.38269043 -71.54858398 64.57983398 C-65.85452753 64.59837826 -62.82713461 60.8344694 -58.9533844 57.06495667 C-57.95878312 56.05603284 -56.96523191 55.04607293 -55.97265625 54.03515625 C-54.93389842 53.00179365 -53.89395601 51.96962057 -52.85289001 50.93858337 C-50.67895766 48.77642198 -48.52009002 46.60051754 -46.37084961 44.41381836 C-43.62480666 41.62224853 -40.84447164 38.86807736 -38.05175114 36.1232996 C-35.89834424 33.99891259 -33.76449215 31.8556975 -31.63592339 29.70644951 C-30.61837979 28.68359674 -29.59493552 27.66657709 -28.56541634 26.65577888 C-21.86170953 20.38313499 -21.86170953 20.38313499 -18.97436523 12.01342773 C-18.99224594 11.31797348 -19.01012665 10.62251923 -19.02854919 9.9059906 C-18.97680964 6.45177358 -17.20076058 4.49816066 -15 2 C-10.14171342 -1.50248567 -5.61092328 -1.69777014 0 0 Z " fill="#7886BF" transform="translate(190,73)"/>
<path d="M0 0 C0.88478963 1.37512871 1.76773159 2.7514674 2.64355469 4.13232422 C5.4778621 8.03485332 9.16393134 11.22388737 12.625 14.5625 C29.7185984 31.40900721 41.50250241 50.39302345 49.1875 73.125 C49.56297974 74.23560791 49.56297974 74.23560791 49.94604492 75.36865234 C52.45961924 83.03433149 54.0826421 90.67572073 55.0625 98.6875 C55.14556396 99.36377441 55.22862793 100.04004883 55.31420898 100.73681641 C56.00693298 106.58239887 56.42588232 112.42703423 56.75390625 118.3046875 C56.83215379 120.96766947 56.83215379 120.96766947 58 123 C59.485 123.99 59.485 123.99 61 125 C52.95478723 128.86170213 52.95478723 128.86170213 48 128 C45.24542952 125.98594921 43.29107621 124.39036744 42.56933594 120.94287109 C42.42259511 118.4329695 42.41132666 115.95151801 42.4375 113.4375 C41.79457661 82.38808232 29.94643645 54.54787637 10 31 C9.3503125 30.20980469 8.700625 29.41960937 8.03125 28.60546875 C3.39020159 23.08894985 -1.95143899 18.51506284 -7.5 13.9375 C-9 12 -9 12 -9.5625 9.0625 C-8.81993888 5.01966725 -7.10854016 3.59045013 -4 1 C-2 0 -2 0 0 0 Z " fill="#2C93F9" transform="translate(399,247)"/>
<path d="M0 0 C3.11594739 0.8309193 5.45562935 1.51006642 7.875 3.6875 C9.5839382 7.20031741 9.72113691 9.13208385 9 13 C6.64452902 15.73615316 3.87418597 17.83166536 1 20 C-23.33406174 39.0277355 -37.96541114 71.92013332 -42 102 C-42.49535157 107.18314889 -42.8970773 112.3732631 -43.14160156 117.57446289 C-43.19799805 118.4999292 -43.25439453 119.42539551 -43.3125 120.37890625 C-43.34988281 121.1994751 -43.38726562 122.02004395 -43.42578125 122.86547852 C-44 125 -44 125 -45.859375 126.76928711 C-48.76562426 128.44018156 -50.68944368 128.33781187 -54 128 C-56.875 127 -56.875 127 -59 126 C-58.6803125 125.31679688 -58.360625 124.63359375 -58.03125 123.9296875 C-56.84286585 120.55359616 -56.65370803 117.69871166 -56.5 114.125 C-54.15502175 71.81163141 -36.93661225 38.05986713 -6.6965332 8.82080078 C-6.11734131 8.25345215 -5.53814941 7.68610352 -4.94140625 7.1015625 C-4.42263916 6.59963379 -3.90387207 6.09770508 -3.36938477 5.58056641 C-1.85887899 3.83711581 -0.94680424 2.09526106 0 0 Z " fill="#5E689E" transform="translate(113,247)"/>
<path d="M0 0 C2.375 1.6875 2.375 1.6875 3.375 4.6875 C2.36206055 7.05322266 2.36206055 7.05322266 0.76171875 9.8515625 C0.17825684 10.8825708 -0.40520508 11.9135791 -1.00634766 12.97583008 C-1.64362793 14.07693115 -2.2809082 15.17803223 -2.9375 16.3125 C-3.58251465 17.44389404 -4.2275293 18.57528809 -4.89208984 19.7409668 C-6.79125672 23.06344613 -8.70498218 26.3770352 -10.625 29.6875 C-11.10533691 30.51813965 -11.58567383 31.3487793 -12.08056641 32.20458984 C-14.89135558 37.05472587 -17.74651263 41.87728439 -20.625 46.6875 C-21.41197266 48.00331055 -21.41197266 48.00331055 -22.21484375 49.34570312 C-25.6771914 55.13094222 -29.14758003 60.91130915 -32.625 66.6875 C-37.1086882 65.90154464 -39.41541447 65.06167966 -42.625 61.6875 C-46.28671824 55.26505412 -47.39566455 49.89081802 -45.625 42.6875 C-44.25570843 39.50445486 -42.5206122 36.62308012 -40.6875 33.6875 C-39.68748388 32.02865555 -38.68748425 30.36980116 -37.6875 28.7109375 C-37.17832031 27.87916992 -36.66914063 27.04740234 -36.14453125 26.19042969 C-34.6695379 23.76086159 -33.23388397 21.31281165 -31.8125 18.8515625 C-31.370271 18.08714844 -30.92804199 17.32273437 -30.47241211 16.53515625 C-29.6387631 15.09310028 -28.80617904 13.65042793 -27.97485352 12.20703125 C-21.37155681 0.91810757 -13.32301458 -4.82385011 0 0 Z " fill="#FCD6AC" transform="translate(236.625,425.3125)"/>
<path d="M0 0 C13.2 0 26.4 0 40 0 C40 12.21 40 24.42 40 37 C26.8 37 13.6 37 0 37 C0 24.79 0 12.58 0 0 Z " fill="#FB535C" transform="translate(99,180)"/>
<path d="M0 0 C3.3 0 6.6 0 10 0 C10 45.54 10 91.08 10 138 C6.7 138 3.4 138 0 138 C0 92.46 0 46.92 0 0 Z " fill="#29B932" transform="translate(305,79)"/>
<path d="M0 0 C3.74633486 1.24877829 5.41041797 3.06047445 8 6 C8 9 8 9 6.10853577 11.19839478 C4.78069313 12.4800502 4.78069313 12.4800502 3.42602539 13.78759766 C2.93995316 14.26125763 2.45388092 14.7349176 1.95307922 15.22293091 C0.89539423 16.25243262 -0.16552094 17.27862358 -1.22923088 18.30189896 C-2.91437354 19.92565406 -4.5878236 21.56061482 -6.25819397 23.19955444 C-11.00900404 27.85869973 -15.77273559 32.50417463 -20.56225586 37.12353516 C-23.49080132 39.94964273 -26.39921281 42.79520805 -29.29602242 45.65382004 C-30.40140592 46.73696178 -31.51418025 47.81261611 -32.6344738 48.88032913 C-39.84199817 55.29905635 -39.84199817 55.29905635 -43.08422852 64.02099609 C-43.05643311 65.33406738 -43.0286377 66.64713867 -43 68 C-44.83030823 71.66061645 -46.37842807 73.55189 -49.6875 75.9375 C-54.06506405 77.34162432 -57.59671985 77.35423165 -62 76 C-65.1511899 73.43965821 -67.76839019 71.22701742 -68.203125 67.046875 C-68.3069609 61.95891613 -68.06107012 58.28549817 -65 54 C-61.40908903 51.49471328 -59.54252282 50.96873824 -55.14233398 51.22229004 C-51.77397119 51.25984063 -51.06987174 51.04667828 -48.10180664 49.06384277 C-47.21356201 48.15783325 -46.32531738 47.25182373 -45.41015625 46.31835938 C-44.66225578 45.57221123 -44.66225578 45.57221123 -43.89924622 44.81098938 C-42.26729342 43.1734937 -40.66546461 41.50959082 -39.0625 39.84375 C-37.93226047 38.69857848 -36.80023328 37.5551688 -35.66650391 36.41345215 C-32.69593495 33.41242524 -29.75017821 30.38815767 -26.809021 27.3583374 C-23.80011411 24.26740356 -20.76826043 21.19916107 -17.73828125 18.12890625 C-11.80287924 12.10786012 -5.89350788 6.06205762 0 0 Z " fill="#7985BE" transform="translate(312,45)"/>
<path d="M0 0 C4.95716122 4.696258 7.14719718 7.89172753 8 14.6875 C8.144375 15.66074219 8.28875 16.63398438 8.4375 17.63671875 C7.88577114 21.87813435 6.1945771 24.11587675 3.73779297 27.5480957 C0.73911036 31.77902706 -1.8110705 36.28206443 -4.4375 40.75 C-5.00734619 41.71284912 -5.57719238 42.67569824 -6.16430664 43.66772461 C-9.24309711 48.89863663 -12.17166099 54.16047068 -14.9375 59.5625 C-18.1021176 65.5627403 -21.59521903 69.41323661 -28 72 C-31.015625 72.1953125 -31.015625 72.1953125 -34.25 72.125 C-35.32765625 72.10695313 -36.4053125 72.08890625 -37.515625 72.0703125 C-38.33546875 72.04710937 -39.1553125 72.02390625 -40 72 C-38.62551133 68.36367377 -36.99565142 65.02935879 -35.09375 61.640625 C-34.52003662 60.61622314 -33.94632324 59.59182129 -33.35522461 58.53637695 C-32.74300049 57.45187256 -32.13077637 56.36736816 -31.5 55.25 C-30.86779541 54.1261792 -30.23559082 53.0023584 -29.58422852 51.84448242 C-24.49902405 42.82971379 -19.29787175 33.89096405 -14 25 C-12.24053872 22.04683879 -10.48213063 19.09307383 -8.72680664 16.13745117 C-7.55424048 14.16333549 -6.37904125 12.19078086 -5.20092773 10.2199707 C-4.66927002 9.3249585 -4.1376123 8.42994629 -3.58984375 7.5078125 C-3.11409912 6.71004395 -2.63835449 5.91227539 -2.14819336 5.09033203 C-0.87195547 2.91514348 -0.87195547 2.91514348 0 0 Z " fill="#F2C496" transform="translate(207,409)"/>
<path d="M0 0 C3.19131744 2.56692924 5.61837941 5.10634199 7 9 C7 10.32 7 11.64 7 13 C7.84079102 13.25813477 8.68158203 13.51626953 9.54785156 13.78222656 C13.25929492 15.09146839 16.72622679 16.71916374 20.234375 18.484375 C20.91244202 18.82245178 21.59050903 19.16052856 22.28912354 19.5088501 C23.71879784 20.22300968 25.14747327 20.93917205 26.57519531 21.65722656 C28.72689249 22.73838918 30.88268044 23.81103047 33.0390625 24.8828125 C40.54871207 28.6343841 47.89775817 32.50692012 55 37 C54.38125 37.9075 53.7625 38.815 53.125 39.75 C51.54959616 42.15944116 50.2424551 44.42554349 49 47 C48.46510452 46.70963364 47.93020905 46.41926727 47.37910461 46.12010193 C41.76818669 43.08211988 36.13523546 40.08838381 30.48803711 37.1184082 C28.38842385 36.00701916 26.2945168 34.88477538 24.20678711 33.7512207 C9.66725425 25.12228574 9.66725425 25.12228574 -6.57299805 24.58666992 C-9.54492947 25.0928041 -10.65611121 24.52081603 -13.125 22.875 C-16.34752624 19.9410582 -18.85921034 17.41102288 -19.125 12.859375 C-18.90179478 8.64637641 -18.35973751 6.46965731 -15.75 3.0625 C-10.55341523 -0.83493858 -6.26919291 -1.97974513 0 0 Z " fill="#7886BE" transform="translate(331,28)"/>
<path d="M0 0 C3.04222214 2.3302127 4.63672958 3.90040462 5.84130859 7.54658508 C6.77822766 10.12970475 6.77822766 10.12970475 9.04931641 11.19523621 C9.89155762 11.46233902 10.73379883 11.72944183 11.6015625 12.00463867 C12.55595215 12.31813766 13.5103418 12.63163666 14.49365234 12.95463562 C15.52699707 13.27253555 16.5603418 13.59043549 17.625 13.91796875 C19.21175537 14.4329467 19.21175537 14.4329467 20.83056641 14.95832825 C24.21473996 16.05327675 27.60662974 17.12143058 31 18.1875 C34.39168867 19.26887669 37.78149682 20.35573299 41.16943359 21.44880676 C43.27922155 22.1278094 45.39149092 22.7991574 47.50634766 23.46220398 C48.93793213 23.91826775 48.93793213 23.91826775 50.3984375 24.38354492 C51.24067871 24.64826096 52.08291992 24.91297699 52.95068359 25.18571472 C55 26 55 26 57 28 C56.690625 28.53625 56.38125 29.0725 56.0625 29.625 C54.82218999 32.39745767 54.45497113 35.0078475 54 38 C48.95014603 36.36491174 43.90051427 34.72913953 38.85107422 33.09277344 C37.13856784 32.53790465 35.42600421 31.98321253 33.71337891 31.42871094 C32.04970953 30.89003599 30.3861596 30.35099197 28.72273254 29.81156921 C27.08951901 29.28251347 25.45580267 28.75500734 23.82157898 28.2290802 C18.30840881 26.44905539 12.84650813 24.5534983 7.41821289 22.52709961 C3.81347883 21.74137312 1.32956127 22.82392866 -1.9765625 24.23828125 C-5.30513845 25.4913166 -7.6560359 25.0094986 -11 24 C-14.37691003 21.83691016 -16.76596947 19.35104579 -19 16 C-19.46349323 11.28781883 -19.46924884 8.95654571 -17.375 4.6875 C-12.36176628 -0.98536974 -7.1259835 -2.15620165 0 0 Z " fill="#7986BE" transform="translate(190,73)"/>
<path d="M0 0 C3.63 0 7.26 0 11 0 C11 31.68 11 63.36 11 96 C7.37 96 3.74 96 0 96 C0 64.32 0 32.64 0 0 Z " fill="#F9AD04" transform="translate(167,121)"/>
<path d="M0 0 C4.07336864 3.75178691 6.62616555 6.46192396 7.21875 12.0703125 C7.58180683 20.99545961 3.22370885 27.59737733 -1.1875 35.0625 C-2.17520938 36.74306063 -3.16218263 38.42405411 -4.1484375 40.10546875 C-4.63280273 40.93095215 -5.11716797 41.75643555 -5.61621094 42.60693359 C-6.8731392 44.78061228 -8.09126651 46.96911778 -9.2890625 49.17578125 C-9.63428955 49.80540771 -9.9795166 50.43503418 -10.33520508 51.08374023 C-11.24827429 52.75728228 -12.14996706 54.43701722 -13.05078125 56.1171875 C-16.03152366 60.52558008 -19.33775621 63.31001201 -24.3125 65.375 C-28.76304351 66.12932941 -32.57872102 65.74189262 -37 65 C-36.57332031 64.25621094 -36.14664063 63.51242187 -35.70703125 62.74609375 C-32.47658092 57.10446193 -29.25467185 51.45858191 -26.06640625 45.79296875 C-19.63951246 34.37603958 -13.13146932 23.01315679 -6.49365234 11.71728516 C-5.93500488 10.76515137 -5.37635742 9.81301758 -4.80078125 8.83203125 C-4.30747314 7.99389893 -3.81416504 7.1557666 -3.3059082 6.29223633 C-2.12805988 4.22478113 -1.03954 2.13968651 0 0 Z " fill="#F2C496" transform="translate(240,428)"/>
<path d="M0 0 C2.97 0 5.94 0 9 0 C9 35.64 9 71.28 9 108 C6.03 108 3.06 108 0 108 C0 72.36 0 36.72 0 0 Z " fill="#EE8700" transform="translate(374,109)"/>
<path d="M0 0 C4.82066046 4.70384316 6.60573085 7.24011598 7.5625 13.9375 C7.383208 22.87221819 0.88059998 31.97681003 -3.8984375 39.20703125 C-5.06301433 41.10256587 -5.92042845 43.02624972 -6.8125 45.0625 C-9.55208687 50.59624718 -13.68957155 54.82094329 -19.56640625 56.9140625 C-24.07579195 57.9221219 -27.47946639 58.09199391 -32 57 C-30.63527177 53.36739655 -29.0019884 50.09038593 -27.05078125 46.73828125 C-26.456604 45.71331543 -25.86242676 44.68834961 -25.25024414 43.63232422 C-24.29106079 41.98901123 -24.29106079 41.98901123 -23.3125 40.3125 C-22.30876065 38.58325642 -21.30502692 36.85400954 -20.30162048 35.12457275 C-19.252186 33.31669213 -18.20134582 31.50963367 -17.15039062 29.70263672 C-13.94204748 24.18270024 -10.75552406 18.65017199 -7.56747437 13.11849976 C-5.96379546 10.33632552 -4.35879477 7.55491409 -2.75390625 4.7734375 C-2.22095947 3.84966309 -1.6880127 2.92588867 -1.13891602 1.97412109 C-0.76307373 1.32266113 -0.38723145 0.67120117 0 0 Z " fill="#F2C496" transform="translate(273,447)"/>
<path d="M0 0 C6.15322862 5.82937448 7.53408493 9.79278161 8.08984375 18.1796875 C7.96614903 22.06262601 6.72484762 23.27515238 4 26 C3.08637119 27.58248479 2.21704149 29.19079046 1.375 30.8125 C-1.28656247 35.77084227 -4.08122226 40.62736741 -7 45.4375 C-7.40299316 46.12368408 -7.80598633 46.80986816 -8.22119141 47.5168457 C-11.28337886 52.49981514 -14.36365303 55.59238182 -19.9375 57.75 C-27.63414634 58.68292683 -27.63414634 58.68292683 -31 57 C-29.57343605 53.21025669 -27.84224358 49.74073221 -25.875 46.203125 C-25.25536377 45.08719971 -24.63572754 43.97127441 -23.99731445 42.8215332 C-23.33171197 41.63092764 -22.66593719 40.44041838 -22 39.25 C-21.32051808 38.03021354 -20.64107494 36.81040547 -19.96166992 35.59057617 C-15.79444882 28.12463917 -11.56050185 20.701354 -7.14648438 13.37792969 C-4.53250725 9.01897139 -2.23104135 4.56784312 0 0 Z " fill="#F2C496" transform="translate(174,390)"/>
<path d="M0 0 C3.3 0 6.6 0 10 0 C10 25.08 10 50.16 10 76 C6.7 76 3.4 76 0 76 C0 50.92 0 25.84 0 0 Z " fill="#2B93FA" transform="translate(236,141)"/>
<path d="M0 0 C6.0094077 0.20153264 11.06994246 4.08915195 16.0546875 7.109375 C17.10076172 7.71845703 18.14683594 8.32753906 19.22460938 8.95507812 C33.63600942 17.51496061 33.63600942 17.51496061 37.6171875 23.984375 C38.31611584 27.56638276 38.24085432 30.89870385 38.1171875 34.546875 C34.44493289 32.55706303 30.78008694 30.55383865 27.1171875 28.546875 C26.43140625 28.17175781 25.745625 27.79664063 25.0390625 27.41015625 C19.71149682 24.49133037 14.4053024 21.53657624 9.1171875 18.546875 C8.10350098 17.97670654 8.10350098 17.97670654 7.06933594 17.39501953 C5.24164624 16.35809482 3.42767554 15.30098297 1.6171875 14.234375 C0.59625 13.64011719 -0.4246875 13.04585938 -1.4765625 12.43359375 C-4.20931162 10.29087001 -5.06396077 8.89720955 -5.8828125 5.546875 C-4.64513968 1.83385653 -3.89532221 0.73895001 0 0 Z " fill="#D19458" transform="translate(323.8828125,397.453125)"/>
<path d="M0 0 C4.0822232 2.68408333 6.57495955 5.33141656 8.09765625 10.08984375 C7.93135627 14.82939308 7.15875891 18.41652056 4.09765625 22.08984375 C-1.38041753 25.31224009 -4.91250186 25.53899905 -10.90234375 24.08984375 C-13.84943022 22.29596503 -15.45056707 20.80857937 -17.27734375 17.90234375 C-18.46517588 12.55709919 -17.97437812 7.82727876 -15.08984375 3.15234375 C-10.73493221 -0.95371571 -5.82938391 -2.78900709 0 0 Z " fill="#FA545C" transform="translate(123.90234375,137.91015625)"/>
<path d="M0 0 C4.2670344 2.30419857 7.52069849 4.80425898 10 9 C10.61142615 13.8149809 10.51030438 15.95976415 8.375 20.3125 C5.6422424 23.40483097 3.93682468 24.73724492 0 26 C-4.99160167 26.29102978 -8.07467347 25.75182781 -12 22.5625 C-15.50163045 18.07603599 -15.50508583 14.55594409 -15 9 C-13.66520458 4.99561375 -12.70278688 3.46852458 -9.1875 1.125 C-5.72788251 -0.09604147 -3.63006892 -0.52938505 0 0 Z " fill="#5BADFE" transform="translate(259,96)"/>
<path d="M0 0 C3.12875553 2.51660771 5.8499239 5.08974125 7 9 C6.78403415 14.72309507 5.17509913 18.37342697 2 23 C-0.47072523 24.9595407 -2.14957907 25.01975573 -5.3125 25.4375 C-11.0402734 24.75793366 -14.24493995 21.97444256 -18 17.75 C-19.48902725 13.65517505 -19.23758322 10.15797778 -18 6 C-13.20005739 -0.26659174 -7.52432569 -2.37610285 0 0 Z " fill="#2CD62D" transform="translate(331,28)"/>
<path d="M0 0 C2.70552388 2.19823815 4.44778333 3.89556667 6 7 C6.39162534 12.77647374 6.0968556 16.90517304 3 22 C-0.74306928 24.30342725 -3.17415883 25 -7.5625 25 C-12.9057051 23.44561306 -15.88930877 20.66603684 -19 16 C-19.46349323 11.28781883 -19.46924884 8.95654571 -17.375 4.6875 C-12.3792141 -0.96562615 -7.10881898 -2.18632186 0 0 Z " fill="#FCC62E" transform="translate(190,73)"/>
<path d="M0 0 C4.26630636 2.30380543 7.56169055 4.77984903 10 9 C10.75925171 12.8317376 10.87095576 16.31520034 9.046875 19.84375 C6.51867952 23.10800239 4.02706035 25.1571269 0 26 C-6.52995315 25.89634995 -9.40222493 24.59777507 -14 20 C-15.76602624 16.46794753 -15.6592646 12.84571018 -15 9 C-11.44891234 2.27990373 -7.84629607 -0.76924471 0 0 Z " fill="#F79A01" transform="translate(396,62)"/>
<path d="M0 0 C3.67554513 1.71510837 7.13847664 3.74451311 10.625 5.8125 C11.553125 6.34681641 12.48125 6.88113281 13.4375 7.43164062 C26.12833565 14.82250694 26.12833565 14.82250694 28.5078125 21.9609375 C29.16499564 24.68355335 29.20878267 27.2162311 29 30 C24.62012441 28.67738854 20.88989056 26.96067123 16.9375 24.6640625 C15.81085938 24.01179688 14.68421875 23.35953125 13.5234375 22.6875 C12.94432617 22.34847656 12.36521484 22.00945312 11.76855469 21.66015625 C10.00786752 20.62960495 8.24270915 19.60709853 6.4765625 18.5859375 C3.30523908 16.74265112 0.13804246 14.89942288 -3 13 C-4.093125 12.33919434 -5.18625 11.67838867 -6.3125 10.99755859 C-9 9 -9 9 -10.0625 5.4375 C-10 2 -10 2 -9 0 C-5.89044854 -1.55477573 -3.22021603 -0.92663359 0 0 Z " fill="#D19458" transform="translate(308,431)"/>
<path d="M0 0 C3.3 0 6.6 0 10 0 C10 12.21 10 24.42 10 37 C6.7 37 3.4 37 0 37 C0 24.79 0 12.58 0 0 Z " fill="#F0414A" transform="translate(99,180)"/>
<path d="M0 0 C5.73229421 2.60937364 12.87314278 5.96116078 15.3125 12.125 C15.91815861 15.53871214 16.25895167 18.54731105 16 22 C15.34 22.33 14.68 22.66 14 23 C10.14814855 21.29982304 6.56887966 19.06168635 2.9375 16.9375 C1.90560547 16.36322266 0.87371094 15.78894531 -0.18945312 15.19726562 C-1.65995117 14.3397168 -1.65995117 14.3397168 -3.16015625 13.46484375 C-4.06386963 12.945271 -4.96758301 12.42569824 -5.89868164 11.89038086 C-8 10 -8 10 -8.90405273 6.93188477 C-9 4 -9 4 -7.375 1.625 C-4.47640924 -0.35824631 -3.460174 -0.40075462 0 0 Z " fill="#D19458" transform="translate(292,463)"/>
</svg>
