<?xml version="1.0" encoding="UTF-8"?>
<svg version="1.1" xmlns="http://www.w3.org/2000/svg" width="512" height="512">
<path d="M0 0 C1.17781056 -0.00445784 2.35562112 -0.00891569 3.56912291 -0.01350862 C4.86938583 -0.01332426 6.16964875 -0.01313989 7.50931358 -0.01294994 C8.89967208 -0.01624872 10.29002963 -0.01997432 11.68038595 -0.02409142 C15.50996578 -0.03411809 19.33952993 -0.03782929 23.16912103 -0.04048073 C27.29607514 -0.04438185 31.42301682 -0.05396036 35.549963 -0.0626936 C45.52140206 -0.08246413 55.49284215 -0.09252526 65.46429592 -0.10142139 C70.15920742 -0.10580358 74.85411779 -0.11117059 79.5490284 -0.11641026 C95.15488069 -0.13342362 110.76073227 -0.14791777 126.36659241 -0.155159 C130.41720773 -0.15706892 134.46782304 -0.15898924 138.51843834 -0.16094494 C139.52520883 -0.16142868 140.53197933 -0.16191242 141.56925802 -0.16241082 C157.87806858 -0.170711 174.18680579 -0.19604724 190.49558432 -0.22852562 C207.23685795 -0.26159363 223.9780943 -0.27960755 240.71940076 -0.28280324 C250.12005623 -0.28496864 259.52060476 -0.29372169 268.92122841 -0.31926441 C276.92743511 -0.34096793 284.9335089 -0.34902357 292.93974169 -0.33929763 C297.02391884 -0.33475182 301.10782173 -0.33665529 305.19196129 -0.35605907 C308.93402416 -0.37368389 312.67561256 -0.3726989 316.41768043 -0.35716178 C318.40616395 -0.35366211 320.39465241 -0.36981718 322.38306677 -0.38676625 C332.78618747 -0.31196837 339.93953891 2.10513813 347.58435631 9.20062733 C353.91440835 16.02715404 355.52673985 21.91343051 355.52449608 31.06479359 C355.52817277 31.869699 355.53184945 32.6746044 355.53563756 33.50390089 C355.54666156 36.20441121 355.55051608 38.90488304 355.55432701 41.60541248 C355.56059268 43.54049266 355.56723957 45.47557164 355.57423973 47.4106493 C355.59527188 53.76901888 355.60564197 60.12738868 355.61560631 66.48578358 C355.61965431 68.67598324 355.62377124 70.86618277 355.62795639 73.05638218 C355.64700693 83.34746876 355.66123773 93.63854817 355.66956836 103.929649 C355.67933784 115.80171949 355.70565051 127.6736034 355.74606925 139.54560816 C355.77625041 148.72623782 355.79103918 157.90681405 355.79434937 167.08749235 C355.79669774 172.56854207 355.80563058 178.04939241 355.83081055 183.53038883 C355.85413087 188.68996688 355.85830848 193.84921484 355.84804916 199.00883198 C355.84755464 200.89778842 355.85385025 202.78676133 355.86760521 204.67566776 C356.00519515 224.69798158 356.00519515 224.69798158 349.51795006 233.72015858 C342.82016004 240.05814995 336.17482388 244.25193595 326.75465012 244.26844215 C325.57683956 244.2729 324.399029 244.27735784 323.18552721 244.28195077 C321.88526428 244.28176641 320.58500136 244.28158205 319.24533653 244.2813921 C317.85497803 244.28469088 316.46462049 244.28841647 315.07426417 244.29253358 C311.24468434 244.30256024 307.41512019 244.30627144 303.58552909 244.30892289 C299.45857498 244.312824 295.3316333 244.32240252 291.20468712 244.33113575 C281.23324805 244.35090629 271.26180796 244.36096741 261.29035419 244.36986354 C256.59544269 244.37424574 251.90053232 244.37961275 247.20562172 244.38485241 C231.59976943 244.40186577 215.99391785 244.41635992 200.38805771 244.42360115 C196.33744239 244.42551107 192.28682707 244.4274314 188.23621178 244.42938709 C187.22944128 244.42987083 186.22267079 244.43035457 185.1853921 244.43085297 C168.87658153 244.43915316 152.56784432 244.4644894 136.25906579 244.49696777 C119.51779216 244.53003578 102.77655581 244.5480497 86.03524935 244.55124539 C76.63459388 244.5534108 67.23404536 244.56216385 57.83342171 244.58770657 C49.827215 244.60941009 41.82114121 244.61746573 33.81490843 244.60773978 C29.73073128 244.60319398 25.64682839 244.60509744 21.56268883 244.62450123 C17.82062596 244.64212604 14.07903755 244.64114105 10.33696969 244.62560394 C8.34848617 244.62210426 6.35999771 244.63825933 4.37158334 244.65520841 C-6.03153735 244.58041052 -13.18488879 242.16330403 -20.82970619 235.06781483 C-27.15975823 228.24128812 -28.77208973 222.35501165 -28.76984596 213.20364857 C-28.77352265 212.39874316 -28.77719934 211.59383775 -28.78098744 210.76454127 C-28.79201144 208.06403094 -28.79586596 205.36355912 -28.7996769 202.66302967 C-28.80594256 200.72794949 -28.81258946 198.79287052 -28.81958961 196.85779285 C-28.84062177 190.49942327 -28.85099185 184.14105347 -28.86095619 177.78265858 C-28.86500419 175.59245891 -28.86912113 173.40225938 -28.87330627 171.21205997 C-28.89235681 160.9209734 -28.90658762 150.62989398 -28.91491824 140.33879316 C-28.92468773 128.46672266 -28.95100039 116.59483875 -28.99141914 104.72283399 C-29.0216003 95.54220434 -29.03638906 86.3616281 -29.03969926 77.18094981 C-29.04204763 71.69990009 -29.05098046 66.21904974 -29.07616043 60.73805332 C-29.09948075 55.57847528 -29.10365837 50.41922731 -29.09339905 45.25961018 C-29.09290453 43.37065373 -29.09920014 41.48168082 -29.11295509 39.59277439 C-29.25054503 19.57046057 -29.25054503 19.57046057 -22.76329994 10.54828358 C-16.06550993 4.2102922 -9.42017376 0.01650621 0 0 Z " fill="#FCFDFD" transform="translate(92.6226749420166,133.86577892303467)"/>
<path d="M0 0 C1.17781056 -0.00445784 2.35562112 -0.00891569 3.56912291 -0.01350862 C4.86938583 -0.01332426 6.16964875 -0.01313989 7.50931358 -0.01294994 C8.89967208 -0.01624872 10.29002963 -0.01997432 11.68038595 -0.02409142 C15.50996578 -0.03411809 19.33952993 -0.03782929 23.16912103 -0.04048073 C27.29607514 -0.04438185 31.42301682 -0.05396036 35.549963 -0.0626936 C45.52140206 -0.08246413 55.49284215 -0.09252526 65.46429592 -0.10142139 C70.15920742 -0.10580358 74.85411779 -0.11117059 79.5490284 -0.11641026 C95.15488069 -0.13342362 110.76073227 -0.14791777 126.36659241 -0.155159 C130.41720773 -0.15706892 134.46782304 -0.15898924 138.51843834 -0.16094494 C139.52520883 -0.16142868 140.53197933 -0.16191242 141.56925802 -0.16241082 C157.87806858 -0.170711 174.18680579 -0.19604724 190.49558432 -0.22852562 C207.23685795 -0.26159363 223.9780943 -0.27960755 240.71940076 -0.28280324 C250.12005623 -0.28496864 259.52060476 -0.29372169 268.92122841 -0.31926441 C276.92743511 -0.34096793 284.9335089 -0.34902357 292.93974169 -0.33929763 C297.02391884 -0.33475182 301.10782173 -0.33665529 305.19196129 -0.35605907 C308.93402416 -0.37368389 312.67561256 -0.3726989 316.41768043 -0.35716178 C318.40616395 -0.35366211 320.39465241 -0.36981718 322.38306677 -0.38676625 C332.78618747 -0.31196837 339.93953891 2.10513813 347.58435631 9.20062733 C353.91440835 16.02715404 355.52673985 21.91343051 355.52449608 31.06479359 C355.52817277 31.869699 355.53184945 32.6746044 355.53563756 33.50390089 C355.54666156 36.20441121 355.55051608 38.90488304 355.55432701 41.60541248 C355.56059268 43.54049266 355.56723957 45.47557164 355.57423973 47.4106493 C355.59527188 53.76901888 355.60564197 60.12738868 355.61560631 66.48578358 C355.61965431 68.67598324 355.62377124 70.86618277 355.62795639 73.05638218 C355.64700693 83.34746876 355.66123773 93.63854817 355.66956836 103.929649 C355.67933784 115.80171949 355.70565051 127.6736034 355.74606925 139.54560816 C355.77625041 148.72623782 355.79103918 157.90681405 355.79434937 167.08749235 C355.79669774 172.56854207 355.80563058 178.04939241 355.83081055 183.53038883 C355.85413087 188.68996688 355.85830848 193.84921484 355.84804916 199.00883198 C355.84755464 200.89778842 355.85385025 202.78676133 355.86760521 204.67566776 C356.00519515 224.69798158 356.00519515 224.69798158 349.51795006 233.72015858 C342.82016004 240.05814995 336.17482388 244.25193595 326.75465012 244.26844215 C325.57683956 244.2729 324.399029 244.27735784 323.18552721 244.28195077 C321.88526428 244.28176641 320.58500136 244.28158205 319.24533653 244.2813921 C317.85497803 244.28469088 316.46462049 244.28841647 315.07426417 244.29253358 C311.24468434 244.30256024 307.41512019 244.30627144 303.58552909 244.30892289 C299.45857498 244.312824 295.3316333 244.32240252 291.20468712 244.33113575 C281.23324805 244.35090629 271.26180796 244.36096741 261.29035419 244.36986354 C256.59544269 244.37424574 251.90053232 244.37961275 247.20562172 244.38485241 C231.59976943 244.40186577 215.99391785 244.41635992 200.38805771 244.42360115 C196.33744239 244.42551107 192.28682707 244.4274314 188.23621178 244.42938709 C187.22944128 244.42987083 186.22267079 244.43035457 185.1853921 244.43085297 C168.87658153 244.43915316 152.56784432 244.4644894 136.25906579 244.49696777 C119.51779216 244.53003578 102.77655581 244.5480497 86.03524935 244.55124539 C76.63459388 244.5534108 67.23404536 244.56216385 57.83342171 244.58770657 C49.827215 244.60941009 41.82114121 244.61746573 33.81490843 244.60773978 C29.73073128 244.60319398 25.64682839 244.60509744 21.56268883 244.62450123 C17.82062596 244.64212604 14.07903755 244.64114105 10.33696969 244.62560394 C8.34848617 244.62210426 6.35999771 244.63825933 4.37158334 244.65520841 C-6.03153735 244.58041052 -13.18488879 242.16330403 -20.82970619 235.06781483 C-27.15975823 228.24128812 -28.77208973 222.35501165 -28.76984596 213.20364857 C-28.77352265 212.39874316 -28.77719934 211.59383775 -28.78098744 210.76454127 C-28.79201144 208.06403094 -28.79586596 205.36355912 -28.7996769 202.66302967 C-28.80594256 200.72794949 -28.81258946 198.79287052 -28.81958961 196.85779285 C-28.84062177 190.49942327 -28.85099185 184.14105347 -28.86095619 177.78265858 C-28.86500419 175.59245891 -28.86912113 173.40225938 -28.87330627 171.21205997 C-28.89235681 160.9209734 -28.90658762 150.62989398 -28.91491824 140.33879316 C-28.92468773 128.46672266 -28.95100039 116.59483875 -28.99141914 104.72283399 C-29.0216003 95.54220434 -29.03638906 86.3616281 -29.03969926 77.18094981 C-29.04204763 71.69990009 -29.05098046 66.21904974 -29.07616043 60.73805332 C-29.09948075 55.57847528 -29.10365837 50.41922731 -29.09339905 45.25961018 C-29.09290453 43.37065373 -29.09920014 41.48168082 -29.11295509 39.59277439 C-29.25054503 19.57046057 -29.25054503 19.57046057 -22.76329994 10.54828358 C-16.06550993 4.2102922 -9.42017376 0.01650621 0 0 Z M-18.36876869 16.09515858 C-22.64696568 23.05222658 -23.04437988 28.62029792 -22.96325111 36.66913319 C-22.96361272 37.82970265 -22.96397432 38.99027212 -22.96434689 40.18601036 C-22.96211477 43.92803973 -22.93930066 47.66961606 -22.91564369 51.41156483 C-22.91123068 53.72768405 -22.90817148 56.04380627 -22.90648842 58.35992908 C-22.89078479 66.93057216 -22.84890101 75.50115111 -22.81017494 84.07172108 C-22.74829994 103.23234608 -22.68642494 122.39297108 -22.62267494 142.13422108 C44.36732506 142.13422108 111.35732506 142.13422108 180.37732506 142.13422108 C175.75732506 150.05422108 171.13732506 157.97422108 166.37732506 166.13422108 C164.07411676 171.73132219 164.07411676 171.73132219 161.83022976 177.35224056 C159.15370368 183.48358821 156.0321096 190.06871741 149.58982897 192.92740059 C138.51166542 196.39449915 126.15883121 195.35816865 114.72075391 194.97239256 C109.88455302 194.83701709 105.04869515 194.85067565 100.21092796 194.84781361 C91.07080745 194.82011885 81.9380607 194.66047375 72.80046791 194.45209873 C62.38975523 194.22121196 51.97948818 194.13937695 41.56664479 194.06939244 C20.16662872 193.92225768 -1.22715355 193.59010648 -22.62267494 193.13422108 C-22.769563 197.25883788 -22.85727539 201.38277032 -22.93517494 205.50922108 C-22.97706947 206.66551014 -23.018964 207.8217992 -23.06212807 209.01312733 C-23.18368664 217.61947455 -21.83973811 224.54966679 -15.86608315 231.04388905 C-8.13716652 238.34024751 -0.36318628 238.5713207 9.83174706 238.52863026 C11.20834989 238.53352263 12.58494862 238.53971404 13.9615404 238.54708815 C17.73460648 238.56346715 21.50746333 238.56117394 25.28055251 238.55571318 C29.35362275 238.55304044 33.42663754 238.56757939 37.49968529 238.57980824 C45.47579506 238.60085449 53.45183213 238.60540354 61.42796639 238.60362035 C67.91227684 238.60231226 74.39656463 238.60611927 80.88087082 238.61354542 C82.74932994 238.61564464 84.61778907 238.61774224 86.4862482 238.61983824 C87.41626451 238.62088177 88.34628082 238.62192529 89.30447944 238.62300044 C106.89073172 238.64189975 124.47694227 238.64085363 142.0632005 238.63403112 C158.14478317 238.62845652 174.22620649 238.64927808 190.30775193 238.68239158 C206.82655683 238.71614101 223.34528542 238.73129531 239.86412543 238.72667456 C249.1356569 238.72443105 258.4070411 238.72965557 267.67854309 238.75456715 C275.57230623 238.7755965 283.46584138 238.77915613 291.35961393 238.76026756 C295.38525885 238.75111953 299.41047884 238.74993761 303.43609047 238.77062321 C307.12572785 238.7893723 310.81459349 238.78478675 314.50420185 238.76207739 C316.46192858 238.75593223 318.41968568 238.77425232 320.37732631 238.79361391 C328.8683994 238.70859615 335.87547046 237.27415005 342.28617126 231.37883615 C352.89530458 220.13841515 349.37732506 207.98433904 349.37732506 192.13422108 C287.33732506 192.13422108 225.29732506 192.13422108 161.37732506 192.13422108 C177.15931211 163.20057815 177.15931211 163.20057815 182.20698166 155.17892742 C183.45771738 153.10599597 183.45771738 153.10599597 184.37916565 150.60686398 C185.7427249 147.56678202 186.99975885 145.48516745 189.37732506 143.13422108 C194.46383692 141.61984235 199.49499149 141.80928252 204.7459774 141.9071703 C206.32322198 141.90012441 207.90045213 141.88868419 209.47763634 141.87318897 C213.7507408 141.84362701 218.02143479 141.875438 222.29434347 141.9183526 C226.76272563 141.95276801 231.2308208 141.93063527 235.69925499 141.91452503 C244.15675539 141.89261256 252.61328799 141.9214857 261.07065451 141.96864808 C270.7006624 142.01987384 280.33037793 142.01442007 289.96048617 142.0042274 C309.76642217 141.98453314 329.57164616 142.03594554 349.37732506 142.13422108 C349.4943956 127.0521303 349.5824289 111.97007489 349.63638592 96.88762569 C349.66211091 89.88373166 349.697151 82.88012079 349.75452232 75.87640858 C349.809893 69.11367465 349.83877231 62.35123471 349.85171127 55.58828831 C349.86092869 53.01196007 349.87892816 50.43564737 349.90597534 47.85944462 C349.94242857 44.24251662 349.94726331 40.62679238 349.94495201 37.00970936 C349.96292839 35.95162571 349.98090477 34.89354206 349.99942589 33.80339527 C349.94486109 25.87902733 348.08035263 19.17664481 342.62172985 13.21771908 C334.87218104 5.93908911 327.12892788 5.69707501 316.92290306 5.7398119 C315.54630022 5.73491952 314.1697015 5.72872811 312.79310971 5.72135401 C309.02004363 5.704975 305.24718678 5.70726822 301.47409761 5.71272898 C297.40102736 5.71540172 293.32801257 5.70086276 289.25496483 5.68863392 C281.27885505 5.66758766 273.30281798 5.66303862 265.32668372 5.6648218 C258.84237327 5.6661299 252.35808548 5.66232288 245.8737793 5.65489674 C244.00532017 5.65279752 242.13686105 5.65069992 240.26840192 5.64860392 C239.33838561 5.64756039 238.4083693 5.64651686 237.45017067 5.64544171 C219.8639184 5.62654241 202.27770784 5.62758852 184.69144962 5.63441104 C168.60986695 5.63998563 152.52844362 5.61916408 136.44689818 5.58605057 C119.92809329 5.55230114 103.4093647 5.53714684 86.89052469 5.5417676 C77.61899322 5.5440111 68.34760901 5.53878658 59.07610703 5.51387501 C51.18234388 5.49284565 43.28880874 5.48928602 35.39503618 5.5081746 C31.36939127 5.51732262 27.34417127 5.51850454 23.31855965 5.49781895 C19.62892226 5.47906985 15.94005662 5.4836554 12.25044826 5.50636476 C10.29272153 5.51250993 8.33496444 5.49418983 6.37732381 5.47482824 C-3.82797369 5.57700985 -11.73456555 8.05490044 -18.36876869 16.09515858 Z " fill="#029CDD" transform="translate(92.6226749420166,133.86577892303467)"/>
<path d="M0 0 C67.32 0 134.64 0 204 0 C202.4744628 3.81384301 200.95360043 6.99420623 198.91015625 10.5078125 C198.28947266 11.57902344 197.66878906 12.65023438 197.02929688 13.75390625 C196.38025391 14.86636719 195.73121094 15.97882813 195.0625 17.125 C194.44826172 18.18332031 193.83402344 19.24164063 193.20117188 20.33203125 C191.91562228 22.54668855 190.59057516 24.73884926 189.22872925 26.90742493 C187.50516799 29.82206267 186.48274952 32.55626539 185.56655884 35.81047058 C183.59688953 41.71546687 181.22969584 46.40093451 176 50 C164.31616489 53.44651565 151.38483357 52.26883489 139.34514642 51.92648482 C134.44227372 51.80721822 129.53915496 51.79651245 124.63505554 51.77400208 C115.36146535 51.71508324 106.09216124 51.55938012 96.82045382 51.36836177 C86.25994352 51.15554296 75.69922175 51.05141711 65.13709891 50.95614851 C43.42181297 50.7578584 21.71239845 50.40963035 0 50 C0 33.5 0 17 0 0 Z " fill="#023187" transform="translate(69,276)"/>
<path d="M0 0 C5.218125 -0.0825 10.43625 -0.165 15.8125 -0.25 C18.24653198 -0.30462402 18.24653198 -0.30462402 20.72973633 -0.36035156 C30.07718543 -0.43150028 39.52203711 -0.37134472 46.625 6.5625 C49.8926579 12.35516627 49.57478617 18.5176893 49 25 C46.87824602 29.47925841 44.1449675 32.3009514 40 35 C32.58202525 37.5761932 25.7890847 37.13785991 18 37 C18 43.93 18 50.86 18 58 C12.06 58 6.12 58 0 58 C0 38.86 0 19.72 0 0 Z " fill="#059EDE" transform="translate(272,185)"/>
<path d="M0 0 C8.6934375 -0.0928125 8.6934375 -0.0928125 17.5625 -0.1875 C19.3782251 -0.21481201 21.1939502 -0.24212402 23.06469727 -0.27026367 C24.52359352 -0.27903554 25.98249719 -0.28667782 27.44140625 -0.29296875 C28.18289917 -0.30831665 28.92439209 -0.32366455 29.68835449 -0.33947754 C34.8601108 -0.34204587 38.40663084 0.57779286 43 3 C48.10461023 8.50760577 48.35467438 12.30821845 48.2734375 19.66015625 C47.90364112 24.17695492 46.94383802 27.51545704 44 31 C38.01894494 35.74598801 32.09578741 36.14621057 24.75 36.0625 C22.1925 36.041875 19.635 36.02125 17 36 C17 42.93 17 49.86 17 57 C11.39 57 5.78 57 0 57 C0 38.19 0 19.38 0 0 Z " fill="#013086" transform="translate(113,186)"/>
<path d="M0 0 C1.01191406 -0.02449219 2.02382813 -0.04898438 3.06640625 -0.07421875 C9.13784503 -0.09784303 15.0111775 0.16571039 19.75 4.375 C22.38472033 8.65098399 23.13802463 11.95911866 23.2265625 16.9453125 C23.2575 18.17121094 23.2884375 19.39710938 23.3203125 20.66015625 C23.33835937 21.92730469 23.35640625 23.19445312 23.375 24.5 C23.42603163 27.02351408 23.4805654 29.54696044 23.5390625 32.0703125 C23.55662598 33.18422363 23.57418945 34.29813477 23.59228516 35.44580078 C23.66836871 38.5868809 23.66836871 38.5868809 24.75 42.375 C19.8 42.375 14.85 42.375 9.75 42.375 C9.255 40.395 9.255 40.395 8.75 38.375 C7.14125 39.3340625 7.14125 39.3340625 5.5 40.3125 C-0.6808506 43.99723786 -7.18789034 44.05568527 -14.25 43.375 C-18.71403531 41.26045696 -21.3331264 38.95419805 -23.25 34.375 C-23.88723852 29.99398519 -23.69898998 28.06711895 -21.2734375 24.328125 C-17.96238433 20.55877218 -14.12926465 19.67495109 -9.375 18.5625 C-8.59769531 18.35947266 -7.82039063 18.15644531 -7.01953125 17.94726562 C-2.45232092 16.78435409 2.07438073 15.95477679 6.75 15.375 C6.75 13.725 6.75 12.075 6.75 10.375 C5.1473218 10.26675157 3.54254252 10.18929355 1.9375 10.125 C0.59751953 10.05539063 0.59751953 10.05539063 -0.76953125 9.984375 C-1.99736328 10.17773438 -1.99736328 10.17773438 -3.25 10.375 C-3.71664063 11.04402344 -4.18328125 11.71304688 -4.6640625 12.40234375 C-5.18742187 13.05332031 -5.71078125 13.70429688 -6.25 14.375 C-9.31640625 14.58203125 -9.31640625 14.58203125 -12.8125 14.1875 C-13.96878906 14.07019531 -15.12507813 13.95289063 -16.31640625 13.83203125 C-19.25 13.375 -19.25 13.375 -21.25 12.375 C-20.83443583 7.52675132 -18.87551755 5.49463138 -15.25 2.375 C-10.45636169 -0.54148909 -5.45379247 0.0068429 0 0 Z " fill="#059DDE" transform="translate(349.25,200.625)"/>
<path d="M0 0 C0.97195312 -0.01611328 1.94390625 -0.03222656 2.9453125 -0.04882812 C9.82841047 -0.05351688 14.26435142 0.60434538 19.33203125 5.62109375 C22.43081282 10.81351667 21.64282306 17.54019193 21.6875 23.375 C21.72968253 25.88677798 21.77512676 28.39850382 21.82421875 30.91015625 C21.84101685 32.57316772 21.84101685 32.57316772 21.8581543 34.26977539 C21.94001212 37.66360176 21.94001212 37.66360176 23 42.3125 C18.05 42.3125 13.1 42.3125 8 42.3125 C7.67 40.9925 7.34 39.6725 7 38.3125 C6.26910156 38.85390625 6.26910156 38.85390625 5.5234375 39.40625 C-1.38879584 43.93062092 -7.88664753 44.40487304 -16 43.3125 C-19.8599809 41.87460476 -21.7076202 39.75106971 -24 36.3125 C-24.78512663 31.43645039 -24.81404918 27.54670359 -22.0625 23.375 C-18.14910394 20.73944755 -14.53276402 19.52876033 -10 18.3125 C-9.3807666 18.14331055 -8.7615332 17.97412109 -8.12353516 17.79980469 C-3.75672135 16.60705143 0.6184235 15.44974713 5 14.3125 C5 13.3225 5 12.3325 5 11.3125 C1.90826248 9.76663124 -0.59429552 10.01890479 -4 10.3125 C-4.57492188 10.98410156 -5.14984375 11.65570313 -5.7421875 12.34765625 C-8 14.3125 -8 14.3125 -11.671875 14.484375 C-13.03331691 14.36541406 -14.39296025 14.22411343 -15.75 14.0625 C-16.44738281 13.99675781 -17.14476562 13.93101562 -17.86328125 13.86328125 C-19.57747263 13.69890673 -21.28911023 13.50827346 -23 13.3125 C-22.3106742 7.94613575 -21.30539437 5.75681549 -17 2.3125 C-11.44939941 -0.18832005 -5.97108867 -0.01979804 0 0 Z " fill="#043288" transform="translate(191,200.6875)"/>
<path d="M0 0 C5.28 0 10.56 0 16 0 C24 19.14285714 24 19.14285714 24 26 C24.66 26 25.32 26 26 26 C26.1134375 25.03835937 26.226875 24.07671875 26.34375 23.0859375 C27.00155787 18.4882311 28.23443538 14.08701926 29.5 9.625 C29.72558594 8.80644531 29.95117188 7.98789063 30.18359375 7.14453125 C31.86896961 1.13103039 31.86896961 1.13103039 33 0 C35.69654854 -0.07319621 38.36691458 -0.09242537 41.0625 -0.0625 C41.82111328 -0.05798828 42.57972656 -0.05347656 43.36132812 -0.04882812 C45.24091871 -0.0370068 47.12046899 -0.01907078 49 0 C46.08967246 8.89964678 42.8550187 17.6667441 39.5847168 26.43920898 C38.90170043 28.27553936 38.22202568 30.11311601 37.5456543 31.9519043 C36.56007199 34.63094176 35.56437658 37.30602503 34.56640625 39.98046875 C34.26835587 40.79621872 33.97030548 41.61196869 33.66322327 42.45243835 C31.33793848 48.63016958 28.85045034 54.41424011 23 58 C19.6546121 59.1151293 17.08241188 59.13299072 13.5625 59.125 C12.42941406 59.12757813 11.29632813 59.13015625 10.12890625 59.1328125 C5.25050403 58.92573925 5.25050403 58.92573925 3 58 C1.71682108 54.15046324 1.93356363 51.05261865 2 47 C3.13888672 47.05220703 3.13888672 47.05220703 4.30078125 47.10546875 C5.29464844 47.13253906 6.28851563 47.15960938 7.3125 47.1875 C8.29863281 47.22230469 9.28476563 47.25710937 10.30078125 47.29296875 C12.99111652 47.19922068 12.99111652 47.19922068 14.91796875 45.80078125 C16.23277984 44.03079806 16.23277984 44.03079806 15.73120117 41.79907227 C14.87641336 38.52690457 13.68768272 35.53493938 12.3828125 32.4140625 C12.12498993 31.79405365 11.86716736 31.1740448 11.60153198 30.5352478 C10.78030615 28.56334494 9.95273117 26.59417969 9.125 24.625 C8.57640966 23.31006817 8.02822871 21.99496546 7.48046875 20.6796875 C4.87632288 14.37526221 4.87632288 14.37526221 2.15325928 8.12225342 C0.85914034 5.22951138 0 3.20808862 0 0 Z " fill="#063489" transform="translate(218,201)"/>
<path d="M0 0 C5.28 0 10.56 0 16 0 C16 19.14 16 38.28 16 58 C10.72 58 5.44 58 0 58 C0 38.86 0 19.72 0 0 Z " fill="#089FDF" transform="translate(382,185)"/>
<path d="M0 0 C9.16988417 -0.48262548 9.16988417 -0.48262548 12.6875 1.5625 C14.57481508 5.06751372 14.04621254 7.23363485 13 11 C8.61501596 13.92332269 5.2225328 13.1356502 0 13 C0 8.71 0 4.42 0 0 Z " fill="#EEF1F6" transform="translate(130,197)"/>
<path d="M0 0 C8.04 -0.48 8.04 -0.48 12.125 1.5625 C14 4 14 4 14.0625 7.625 C13 11 13 11 11.23046875 12.203125 C7.4757867 13.54455256 3.96083599 13.11649518 0 13 C0 8.71 0 4.42 0 0 Z " fill="#F2FAFC" transform="translate(290,197)"/>
<path d="M0 0 C0.41668469 4.25018379 0.44022082 6.35342568 -2 9.9375 C-6.05570068 12.72579422 -8.16186344 12.48381366 -13 12 C-14 11 -14 11 -14.0625 7.9375 C-14.041875 6.968125 -14.02125 5.99875 -14 5 C-4.68181818 0 -4.68181818 0 0 0 Z " fill="#EFF2F6" transform="translate(197,223)"/>
<path d="M0 0 C0.3125 3.25 0.3125 3.25 0 7 C-2.79586484 10.3042039 -4.37281678 10.93621866 -8.6875 11.375 C-12 11 -12 11 -14 9 C-14 6.5625 -14 6.5625 -13 4 C-8.92180329 1.40478391 -4.84626787 0 0 0 Z " fill="#F5FBFC" transform="translate(356,224)"/>
</svg>
