<?xml version="1.0" encoding="UTF-8"?>
<svg version="1.1" xmlns="http://www.w3.org/2000/svg" width="512" height="512">
<path d="M0 0 C1.01891486 -0.00525911 1.01891486 -0.00525911 2.05841386 -0.01062447 C4.33318488 -0.01992382 6.60769906 -0.01501901 8.88248062 -0.01015663 C10.53045429 -0.01389364 12.17842619 -0.01849536 13.82639527 -0.02388728 C18.35418289 -0.03612655 22.88189667 -0.03585571 27.40969706 -0.03349853 C32.29327567 -0.03309059 37.17683054 -0.04412729 42.0603981 -0.05361366 C51.62816372 -0.07022988 61.19590469 -0.0757235 70.76368353 -0.07683842 C78.54091888 -0.07778863 86.3181461 -0.08189756 94.09537888 -0.08823967 C116.14428884 -0.10585402 138.19317934 -0.11507827 160.24209639 -0.11357872 C162.02526426 -0.11345885 162.02526426 -0.11345885 163.84445572 -0.11333656 C165.03468551 -0.1132548 166.22491531 -0.11317304 167.45121267 -0.1130888 C186.74022408 -0.11227592 206.02915739 -0.13141374 225.3181462 -0.1596133 C245.12298734 -0.18833856 264.9277904 -0.20215378 284.7326529 -0.20042574 C295.85194206 -0.1997617 306.97114937 -0.2052601 318.09041977 -0.22678185 C327.55787613 -0.24498894 337.02521352 -0.24934484 346.4926798 -0.235763 C351.32227914 -0.22923092 356.15165022 -0.22912488 360.98122787 -0.2464695 C365.40539591 -0.2621946 369.8291546 -0.25934233 374.25331262 -0.24190123 C375.85087984 -0.2388301 377.44847756 -0.24246804 379.0460088 -0.25362138 C390.28156539 -0.32684709 399.97485024 0.58128382 408.51144791 8.55414391 C416.11800492 17.01449814 417.33966762 25.40113181 417.31012344 36.45252037 C417.31465456 37.69199118 417.31918567 38.93146199 417.32385409 40.20849252 C417.33431661 43.64177824 417.33582526 47.0748543 417.33346534 50.50814104 C417.33305682 54.21379817 417.34409968 57.91942417 417.35358047 61.62506676 C417.37018429 68.88274067 417.37568975 76.14038209 417.37680523 83.39807341 C417.37775606 89.29887937 417.3818681 95.19967464 417.38820648 101.10047722 C417.40581771 117.83698577 417.41504561 134.57346868 417.41354553 151.30998656 C417.41346562 152.21201356 417.41338571 153.11404056 417.41330338 154.04340172 C417.41322161 154.9465325 417.41313985 155.84966327 417.41305561 156.78016165 C417.41224289 171.4132847 417.43137738 186.04630476 417.45958011 200.67939803 C417.48832197 215.71106856 417.50211967 230.74268889 417.50039256 245.7743876 C417.49972907 254.21090242 417.50520299 262.64730931 417.52674866 271.08379936 C417.54497767 278.26756443 417.54929376 285.45117264 417.53572981 292.63495085 C417.52920859 296.29802322 417.5290519 299.96079483 417.54643631 303.62383842 C417.5651155 307.60072508 417.55259018 311.57717472 417.53717422 315.55408287 C417.54746135 316.70371002 417.55774848 317.85333717 417.56834733 319.0378015 C417.48714447 328.53009992 415.34721586 336.65786079 408.74582291 343.72601891 C402.11490263 349.68776375 395.02939448 352.43461324 386.11301041 352.67133141 C384.82394791 352.71000328 383.53488541 352.74867516 382.20676041 352.78851891 C380.86041084 352.81996649 379.51405659 352.85121402 378.16769791 352.88226891 C376.79788276 352.92049932 375.42809036 352.95955392 374.05832291 352.99945641 C370.71991528 353.09349606 367.38150977 353.17914947 364.04269791 353.25726891 C365.15644791 353.73164391 366.27019791 354.20601891 367.41769791 354.69476891 C373.15312398 357.59160691 377.44994511 361.82547154 382.04269791 366.25726891 C382.57816238 366.77347801 383.11362686 367.28968712 383.66531754 367.82153893 C387.30203711 371.33768568 390.90275376 374.88840823 394.48532486 378.45966148 C396.3626505 380.32718258 398.25040282 382.18374906 400.13840103 384.04047203 C401.35324996 385.248797 402.56746525 386.45775944 403.78097916 387.66742516 C404.33626801 388.2103672 404.89155685 388.75330925 405.46367264 389.31270409 C413.08614171 396.97850454 417.44661182 405.02129446 417.41769791 416.00726891 C417.37721011 425.31413496 415.22603981 432.78760485 408.74582291 439.72601891 C400.52094444 447.12086376 391.79458066 448.86181059 381.01144791 448.55023766 C372.57474056 447.92744922 367.78210746 445.16962697 361.61691666 439.44476891 C361.10116577 438.96585701 360.58541489 438.48694511 360.05403519 437.99352074 C354.22374037 432.54678432 348.52729957 426.96327136 342.87643814 421.33124352 C341.0892538 419.5539127 339.29164628 417.787549 337.49386978 416.02094078 C321.09518419 399.77780328 321.09518419 399.77780328 321.01535416 388.33930016 C321.03332047 387.64699303 321.05128677 386.9546859 321.06979752 386.24139977 C321.17779268 379.61645514 320.75046259 375.06754905 316.04245377 370.14081383 C313.78764127 368.05372922 311.48646683 366.12129693 309.04269791 364.25726891 C305.36730036 365.57592299 302.1268191 367.32973614 298.77878189 369.32904625 C289.88898682 374.60282019 280.94487277 378.34057528 271.04269791 381.25726891 C269.93668228 381.59758141 268.83066666 381.93789391 267.69113541 382.28851891 C239.87427812 389.32416431 208.84305583 384.2843601 184.15988541 370.08930016 C179.64467031 367.33879015 175.38977676 364.61631367 171.6571331 360.85051346 C164.8059544 354.25812162 159.48586983 351.99415058 149.93577957 351.99403954 C148.39897132 352.02635227 146.86218253 352.05960141 145.32541275 352.09369469 C143.67485744 352.09320031 142.02429842 352.08823561 140.37376785 352.07918358 C136.84220138 352.06931212 133.3127503 352.0906316 129.78147888 352.13703346 C124.19065985 352.21035301 118.60110685 352.21301448 113.00989151 352.20694542 C104.16425318 352.20566402 95.31959649 352.2516728 86.47422945 352.31786335 C70.6370636 352.43529108 54.79967885 352.48129555 38.96210825 352.49595249 C33.411583 352.50308408 27.86184664 352.53388035 22.31155372 352.58457303 C18.85307938 352.61279862 15.39467176 352.62483097 11.9360981 352.63316727 C10.34058215 352.64057748 8.74507991 352.65489652 7.14969826 352.6768837 C-4.15011194 352.82835054 -13.83677288 351.98245657 -22.42605209 343.96039391 C-30.03260911 335.50003968 -31.25427181 327.113406 -31.22472763 316.06201744 C-31.22925874 314.82254663 -31.23378986 313.58307582 -31.23845828 312.30604529 C-31.24892079 308.87275957 -31.25042945 305.43968351 -31.24806952 302.00639677 C-31.24766101 298.30073964 -31.25870387 294.59511364 -31.26818466 290.88947105 C-31.28478847 283.63179714 -31.29029394 276.37415572 -31.29140942 269.11646441 C-31.29236025 263.21565844 -31.29647229 257.31486317 -31.30281067 251.41406059 C-31.32042189 234.67755204 -31.3296498 217.94106913 -31.32814972 201.20455125 C-31.32806981 200.30252425 -31.3279899 199.40049725 -31.32790756 198.47113609 C-31.3278258 197.56800532 -31.32774404 196.66487454 -31.3276598 195.73437616 C-31.32684708 181.10125312 -31.34598157 166.46823305 -31.3741843 151.83513978 C-31.40292616 136.80346925 -31.41672385 121.77184892 -31.41499674 106.74015021 C-31.41433326 98.30363539 -31.41980717 89.8672285 -31.44135284 81.43073845 C-31.45958186 74.24697338 -31.46389795 67.06336517 -31.450334 59.87958696 C-31.44381278 56.21651459 -31.44365609 52.55374298 -31.4610405 48.89069939 C-31.47971969 44.91381274 -31.46719436 40.9373631 -31.45177841 36.96045494 C-31.46206554 35.81082779 -31.47235266 34.66120064 -31.48295152 33.47673631 C-31.40174865 23.98443789 -29.26182005 15.85667702 -22.66042709 8.78851891 C-16.01636215 2.81495593 -8.955298 0.0104494 0 0 Z " fill="#EFEFEF" transform="translate(62.95730209350586,31.74273109436035)"/>
<path d="M0 0 C1.14681747 -0.00571014 2.29363495 -0.01142029 3.47520447 -0.01730347 C5.371856 -0.01898026 5.371856 -0.01898026 7.30682373 -0.02069092 C8.64712155 -0.02531847 9.98741805 -0.03034305 11.32771301 -0.03573608 C14.97457485 -0.04887034 18.62141826 -0.05530733 22.26830006 -0.05974674 C24.5468273 -0.06267653 26.8253495 -0.06678121 29.10387421 -0.07125092 C36.23299265 -0.08493012 43.36209958 -0.09459403 50.49123025 -0.09845281 C58.72009632 -0.10293121 66.94879609 -0.12046713 75.17761159 -0.1494534 C81.53778144 -0.1710791 87.89790454 -0.1811576 94.25811076 -0.18249393 C98.05671372 -0.18354156 101.85516044 -0.18943999 105.65372467 -0.20731354 C109.22915235 -0.22380912 112.80430663 -0.22594267 116.37975883 -0.21717453 C118.31329716 -0.21603863 120.24682646 -0.22974557 122.18031311 -0.243927 C128.8813934 -0.21170229 134.09968252 -0.12597004 139.24334717 4.67559814 C143.19979525 9.84941487 143.75740013 12.77422837 143.80413818 19.17022705 C143.81403778 19.9995726 143.82393738 20.82891815 143.83413696 21.68339539 C143.86579256 24.43206908 143.89052541 27.18076008 143.91522217 29.92950439 C143.93578819 31.83237158 143.95678457 33.73523417 143.97819519 35.63809204 C144.03345218 40.65220414 144.08284545 45.66635772 144.13104248 50.68054199 C144.18123104 55.79481711 144.2369309 60.90903183 144.29217529 66.02325439 C144.39980123 76.06226532 144.50123634 86.10132864 144.59881592 96.14044189 C145.61868088 95.21179573 145.61868088 95.21179573 146.65914917 94.26438904 C147.5546347 93.4528688 148.45012024 92.64134857 149.3727417 91.80523682 C150.25890167 91.00051437 151.14506165 90.19579193 152.05807495 89.36668396 C173.53680544 70.54664132 202.53172308 62.54233724 230.59881592 64.14044189 C231.30570557 64.17379639 232.01259521 64.20715088 232.74090576 64.24151611 C255.45885221 65.47913162 278.64610956 74.97996272 295.59881592 90.14044189 C296.41479248 90.82622314 297.23076904 91.51200439 298.07147217 92.21856689 C318.90926305 110.12554021 333.30970611 136.54446633 335.59881592 164.14044189 C336.98079356 191.0659277 332.06073811 220.52091918 314.59881592 242.14044189 C317.12944029 247.66985615 320.38928974 251.91330179 325.59881592 255.14044189 C330.09966325 256.12469671 334.70448272 255.95681889 339.29022217 256.01153564 C355.40103504 256.25800574 367.10753183 272.44444365 377.76507568 283.06646729 C379.55226003 284.8437981 381.34986754 286.6101618 383.14764404 288.37677002 C391.79211725 296.93924694 399.6875145 304.88626967 399.97918701 317.84967041 C399.95266407 327.92718093 398.42459536 335.98291542 391.30194092 343.60919189 C383.07706245 351.00403675 374.35069867 352.74498358 363.56756592 352.43341064 C355.13085857 351.81062221 350.33822547 349.05279996 344.17303467 343.32794189 C343.65728378 342.84903 343.1415329 342.3701181 342.6101532 341.87669373 C336.77985838 336.42995731 331.08341758 330.84644435 325.43255615 325.2144165 C323.64537181 323.43708569 321.84776429 321.67072199 320.04998779 319.90411377 C303.6513022 303.66097626 303.6513022 303.66097626 303.57147217 292.22247314 C303.58943848 291.53016602 303.60740479 290.83785889 303.62591553 290.12457275 C303.73391069 283.49962813 303.3065806 278.95072204 298.59857178 274.02398682 C296.34375928 271.93690221 294.04258485 270.00446992 291.59881592 268.14044189 C287.92341837 269.45909598 284.68293711 271.21290913 281.3348999 273.21221924 C272.44510484 278.48599318 263.50099078 282.22374827 253.59881592 285.14044189 C252.49280029 285.48075439 251.38678467 285.82106689 250.24725342 286.17169189 C222.43039613 293.2073373 191.39917384 288.16753309 166.71600342 273.97247314 C154.52396462 266.58918752 144.1083201 257.6050648 135.59881592 246.14044189 C134.84858154 245.15430908 134.09834717 244.16817627 133.32537842 243.15216064 C123.82237795 230.130131 117.68628034 215.67942607 113.59881592 200.14044189 C113.22949951 198.74245361 113.22949951 198.74245361 112.85272217 197.31622314 C110.48938222 186.15147926 109.64728517 171.23796998 112.59881592 160.14044189 C111.69490144 160.14597265 111.69490144 160.14597265 110.77272606 160.15161514 C96.09982014 160.24000982 81.42692998 160.3061727 66.75382042 160.34769058 C59.65794682 160.36830281 52.56225111 160.39639748 45.4664917 160.44219971 C38.61949603 160.48637507 31.77268538 160.50957574 24.92555618 160.51995087 C22.31244624 160.52734526 19.69934648 160.54178458 17.08631516 160.56336212 C13.42798702 160.59237166 9.77042404 160.59639874 6.11199951 160.59454346 C5.03018402 160.60892456 3.94836853 160.62330566 2.83377075 160.63812256 C-3.24894705 160.60471314 -6.77546463 160.20690225 -11.40118408 156.14044189 C-15.44295293 151.66172506 -16.52287238 148.58036387 -16.5483551 142.6190033 C-16.55551041 141.47081116 -16.56266571 140.32261902 -16.57003784 139.13963318 C-16.57272675 137.8787941 -16.57541565 136.61795502 -16.57818604 135.31890869 C-16.58445211 133.97846297 -16.59109904 132.63801899 -16.59809875 131.2975769 C-16.61912286 126.89495042 -16.62949897 122.49232365 -16.63946533 118.08966064 C-16.64351338 116.5732757 -16.64763031 115.05689094 -16.65181541 113.54050636 C-16.67086275 106.41673387 -16.68509525 99.29297172 -16.69342738 92.16917866 C-16.70320125 83.94876365 -16.72952635 75.72861779 -16.76992828 67.50829762 C-16.80009407 61.152355 -16.81489665 54.79648953 -16.8182084 48.44047672 C-16.8205582 44.64518558 -16.82950928 40.85018216 -16.85466957 37.05496788 C-16.87796402 33.4835736 -16.88217838 29.91265618 -16.87190819 26.3412056 C-16.87117744 24.41004095 -16.89025868 22.47890045 -16.90997314 20.5478363 C-16.87146082 14.13272801 -16.83588249 9.95787748 -12.40118408 5.14044189 C-8.04872102 1.3061292 -5.7514728 0.0170976 0 0 Z " fill="#0B5077" transform="translate(80.40118408203125,127.85955810546875)"/>
<path d="M0 0 C1.01891486 -0.00525911 1.01891486 -0.00525911 2.05841386 -0.01062447 C4.33318488 -0.01992382 6.60769906 -0.01501901 8.88248062 -0.01015663 C10.53045429 -0.01389364 12.17842619 -0.01849536 13.82639527 -0.02388728 C18.35418289 -0.03612655 22.88189667 -0.03585571 27.40969706 -0.03349853 C32.29327567 -0.03309059 37.17683054 -0.04412729 42.0603981 -0.05361366 C51.62816372 -0.07022988 61.19590469 -0.0757235 70.76368353 -0.07683842 C78.54091888 -0.07778863 86.3181461 -0.08189756 94.09537888 -0.08823967 C116.14428884 -0.10585402 138.19317934 -0.11507827 160.24209639 -0.11357872 C162.02526426 -0.11345885 162.02526426 -0.11345885 163.84445572 -0.11333656 C165.03468551 -0.1132548 166.22491531 -0.11317304 167.45121267 -0.1130888 C186.74022408 -0.11227592 206.02915739 -0.13141374 225.3181462 -0.1596133 C245.12298734 -0.18833856 264.9277904 -0.20215378 284.7326529 -0.20042574 C295.85194206 -0.1997617 306.97114937 -0.2052601 318.09041977 -0.22678185 C327.55787613 -0.24498894 337.02521352 -0.24934484 346.4926798 -0.235763 C351.32227914 -0.22923092 356.15165022 -0.22912488 360.98122787 -0.2464695 C365.40539591 -0.2621946 369.8291546 -0.25934233 374.25331262 -0.24190123 C375.85087984 -0.2388301 377.44847756 -0.24246804 379.0460088 -0.25362138 C390.28156539 -0.32684709 399.97485024 0.58128382 408.51144791 8.55414391 C422.63102734 24.25857409 417.04269791 42.69020243 417.04269791 64.25726891 C269.20269791 64.25726891 121.36269791 64.25726891 -30.95730209 64.25726891 C-30.95730209 17.67204163 -30.95730209 17.67204163 -22.66042709 8.78851891 C-16.01636215 2.81495593 -8.955298 0.0104494 0 0 Z " fill="#0A5077" transform="translate(62.95730209350586,31.74273109436035)"/>
<path d="M0 0 C0.80953125 0.65613281 1.6190625 1.31226563 2.453125 1.98828125 C3.15953125 2.53097656 3.8659375 3.07367188 4.59375 3.6328125 C19.36720206 15.5853495 29.21035915 35.29212114 31.453125 53.98828125 C33.0085324 76.50579453 27.84504747 97.23164606 13.453125 114.98828125 C12.91042969 115.6946875 12.36773437 116.40109375 11.80859375 117.12890625 C0.1410708 131.55007817 -16.87004838 139.06946152 -34.546875 142.98828125 C-35.330625 143.18164062 -36.114375 143.375 -36.921875 143.57421875 C-57.05235084 146.74956166 -77.98960129 141.78218991 -94.546875 129.98828125 C-96.22812931 128.67338982 -97.89616642 127.34132107 -99.546875 125.98828125 C-100.25070313 125.446875 -100.95453125 124.90546875 -101.6796875 124.34765625 C-116.1094963 112.69063424 -123.62852108 95.66300672 -127.546875 77.98828125 C-127.74023438 77.20453125 -127.93359375 76.42078125 -128.1328125 75.61328125 C-131.30815541 55.48280541 -126.34078366 34.54555496 -114.546875 17.98828125 C-113.23198357 16.30702694 -111.89991482 14.63898983 -110.546875 12.98828125 C-109.73476562 11.93253906 -109.73476562 11.93253906 -108.90625 10.85546875 C-82.87355507 -21.36946915 -31.9667963 -24.81632871 0 0 Z " fill="#F9B300" transform="translate(352.546875,240.01171875)"/>
<path d="M0 0 C1.14681747 -0.00571014 2.29363495 -0.01142029 3.47520447 -0.01730347 C5.371856 -0.01898026 5.371856 -0.01898026 7.30682373 -0.02069092 C8.64712155 -0.02531847 9.98741805 -0.03034305 11.32771301 -0.03573608 C14.97457485 -0.04887034 18.62141826 -0.05530733 22.26830006 -0.05974674 C24.5468273 -0.06267653 26.8253495 -0.06678121 29.10387421 -0.07125092 C36.23299265 -0.08493012 43.36209958 -0.09459403 50.49123025 -0.09845281 C58.72009632 -0.10293121 66.94879609 -0.12046713 75.17761159 -0.1494534 C81.53778144 -0.1710791 87.89790454 -0.1811576 94.25811076 -0.18249393 C98.05671372 -0.18354156 101.85516044 -0.18943999 105.65372467 -0.20731354 C109.22915235 -0.22380912 112.80430663 -0.22594267 116.37975883 -0.21717453 C118.31329716 -0.21603863 120.24682646 -0.22974557 122.18031311 -0.243927 C128.8813934 -0.21170229 134.09968252 -0.12597004 139.24334717 4.67559814 C143.20177913 9.85200917 143.76679051 12.81002526 143.83929443 19.21099854 C143.8522908 20.04539459 143.86528717 20.87979065 143.87867737 21.73947144 C144.00559259 30.48153457 144.06217962 39.22456861 144.1137085 47.96734619 C144.14042315 52.11242168 144.18910838 56.25634257 144.25726318 60.40093994 C144.33940504 65.40897634 144.38192297 70.41591567 144.39677238 75.42458916 C144.40899049 77.32918531 144.43495476 79.23374698 144.47522163 81.13795662 C144.81200949 97.90935439 144.81200949 97.90935439 139.71307373 103.64727783 C138.35592065 104.82826293 136.98572172 105.99454374 135.59881592 107.14044189 C133.83637873 109.44516744 132.30881544 111.85986041 130.78631592 114.32794189 C130.41828857 114.90479736 130.05026123 115.48165283 129.67108154 116.07598877 C127.41174554 119.66101746 125.43505933 123.32314092 123.59881592 127.14044189 C122.63975342 126.08856689 122.63975342 126.08856689 121.66131592 125.01544189 C109.46317816 112.95436186 95.8353987 112.5975884 79.59881592 112.14044189 C79.59881592 106.20044189 79.59881592 100.26044189 79.59881592 94.14044189 C81.90881592 92.82044189 84.21881592 91.50044189 86.59881592 90.14044189 C88.51963186 88.51955038 88.51963186 88.51955038 89.91131592 86.76544189 C90.38182373 86.22145752 90.85233154 85.67747314 91.33709717 85.11700439 C94.32489952 80.43642238 94.86814992 75.66219437 95.01287842 70.21075439 C95.05155029 68.92169189 95.09022217 67.63262939 95.13006592 66.30450439 C95.1615135 64.95815483 95.19276103 63.61180058 95.22381592 62.26544189 C95.26204633 60.89562675 95.30110093 59.52583435 95.34100342 58.15606689 C95.43504307 54.81765926 95.52069649 51.47925375 95.59881592 48.14044189 C94.75174072 48.16138916 93.90466553 48.18233643 93.03192139 48.20391846 C89.86741199 48.27238244 86.70328201 48.32238177 83.53826904 48.36016846 C82.17258224 48.38019508 80.80698023 48.40742522 79.44158936 48.44219971 C77.4709449 48.49110621 75.49965609 48.51135537 73.52850342 48.53106689 C72.34498291 48.55201416 71.1614624 48.57296143 69.94207764 48.59454346 C64.86894671 47.90548084 61.83639188 45.37801786 58.28631592 41.82794189 C56.2474911 38.58092459 55.89602387 35.92984323 55.59881592 32.14044189 C45.25924237 32.16889258 45.25924237 32.16889258 36.59881592 37.14044189 C32.98567854 41.68059044 32.00032784 45.16322099 32.06756592 50.84747314 C32.06373901 51.57230392 32.05991211 52.2971347 32.05596924 53.04393005 C32.05325974 54.57098791 32.06055345 56.09809295 32.07733154 57.62506104 C32.09866515 59.93660622 32.07754979 62.24501091 32.05194092 64.55645752 C32.03314787 73.67854345 32.47761473 81.33105548 38.63397217 88.51544189 C39.30299561 89.05169189 39.97201904 89.58794189 40.66131592 90.14044189 C41.33291748 90.69731689 42.00451904 91.25419189 42.69647217 91.82794189 C44.66719956 93.31793664 44.66719956 93.31793664 47.59881592 94.14044189 C47.59881592 100.08044189 47.59881592 106.02044189 47.59881592 112.14044189 C46.04291748 112.16622314 44.48701904 112.19200439 42.88397217 112.21856689 C40.80972665 112.27488125 38.73550898 112.33222781 36.66131592 112.39044189 C35.63973389 112.40462158 34.61815186 112.41880127 33.56561279 112.43341064 C23.36233498 112.75939396 15.05112535 116.04610366 7.59881592 123.14044189 C1.2739797 131.16688379 0.26842007 139.04800152 -0.02618408 149.01544189 C-0.06485596 150.08536377 -0.10352783 151.15528564 -0.14337158 152.25762939 C-0.2372086 154.88506597 -0.32289965 157.5125036 -0.40118408 160.14044189 C-7.91905908 159.38415267 -7.91905908 159.38415267 -11.21368408 156.39044189 C-12.05866455 155.65567627 -12.05866455 155.65567627 -12.92071533 154.90606689 C-16.10847065 151.10431121 -16.65235001 147.21939551 -16.66860962 142.37849426 C-16.67713959 141.2275528 -16.68566956 140.07661133 -16.69445801 138.89079285 C-16.69355164 137.63714432 -16.69264526 136.38349579 -16.69171143 135.09185791 C-16.69769928 133.75111518 -16.70450542 132.41037589 -16.71206665 131.06964111 C-16.72970568 127.4353342 -16.73442108 123.80112152 -16.73569822 120.16677594 C-16.73712133 117.89475799 -16.74139388 115.62276389 -16.74669266 113.35075188 C-16.76518448 105.42052569 -16.77336415 97.49036666 -16.77178955 89.56011963 C-16.77058768 82.1738246 -16.79170096 74.78782156 -16.82327688 67.40160042 C-16.84944312 61.05409834 -16.86015674 54.70669163 -16.85887873 48.35913604 C-16.85836929 44.57059863 -16.86404263 40.78232093 -16.88523483 36.99383736 C-16.90462393 33.43060143 -16.90473766 29.86787283 -16.89020157 26.30461884 C-16.88711966 24.37826069 -16.9037844 22.45190246 -16.92108154 20.52561951 C-16.87449585 14.11854864 -16.82605171 9.9535463 -12.40118408 5.14044189 C-8.04872102 1.3061292 -5.7514728 0.0170976 0 0 Z " fill="#009FC7" transform="translate(80.40118408203125,127.85955810546875)"/>
<path d="M0 0 C1.18851563 0.00902344 2.37703125 0.01804688 3.6015625 0.02734375 C4.51679688 0.03894531 5.43203125 0.05054688 6.375 0.0625 C6.52195313 0.65417969 6.66890625 1.24585938 6.8203125 1.85546875 C8.51100229 7.81174943 10.24855729 10.57215602 15.375 14.0625 C18.22035725 15.48517862 20.73718552 15.28221869 23.9140625 15.37890625 C25.21601563 15.42080078 26.51796875 15.46269531 27.859375 15.50585938 C29.23958045 15.54567299 30.61978883 15.58538522 32 15.625 C33.38803415 15.66819407 34.77605528 15.71180865 36.1640625 15.75585938 C39.56760256 15.86222 42.97121778 15.96424714 46.375 16.0625 C46.47490539 20.02759139 46.54694834 23.99218163 46.59472656 27.95825195 C46.62440781 29.96006051 46.67527058 31.96151919 46.7265625 33.96289062 C46.81802153 43.04019907 46.13372797 49.67840307 40.12109375 56.69140625 C39.35925781 57.32949219 38.59742188 57.96757812 37.8125 58.625 C37.04808594 59.28628906 36.28367187 59.94757813 35.49609375 60.62890625 C33.375 62.0625 33.375 62.0625 30.375 62.0625 C30.375 68.0025 30.375 73.9425 30.375 80.0625 C31.70273438 80.02769531 33.03046875 79.99289063 34.3984375 79.95703125 C48.04876181 79.701354 58.34883215 80.21019044 69.375 89.0625 C72 91.625 72 91.625 73.375 94.0625 C72.91793346 97.94425354 71.55208219 101.28247825 70.0625 104.875 C66.72249132 113.396408 66.72249132 113.396408 63.375 128.0625 C26.085 128.0625 -11.205 128.0625 -49.625 128.0625 C-49.625 98.54815121 -49.625 98.54815121 -39.625 88.0625 C-30.98529404 81.06697506 -23.65506981 79.76291144 -12.75 79.9375 C-11.68007812 79.94652344 -10.61015625 79.95554687 -9.5078125 79.96484375 C-6.88011144 79.98830537 -4.25252628 80.02417304 -1.625 80.0625 C-1.625 74.1225 -1.625 68.1825 -1.625 62.0625 C-2.945 61.7325 -4.265 61.4025 -5.625 61.0625 C-7.625 59.75 -7.625 59.75 -9.625 58.0625 C-10.285 57.52625 -10.945 56.99 -11.625 56.4375 C-18.23438569 48.5888545 -18.25523303 40.00237919 -18.14648438 30.18676758 C-18.12494333 27.86890225 -18.14640765 25.55410213 -18.171875 23.23632812 C-18.16923314 21.74738907 -18.16411109 20.2584519 -18.15625 18.76953125 C-18.16434692 18.08502396 -18.17244385 17.40051666 -18.18078613 16.69526672 C-18.08438025 11.71615708 -16.70788083 8.91504139 -13.625 5.0625 C-8.78998655 0.80308339 -6.41623973 -0.06290431 0 0 Z " fill="#EFC79F" transform="translate(129.625,159.9375)"/>
<path d="M0 0 C2.99787028 1.8643202 5.4019494 4.00401239 7.98974609 6.40698242 C8.50549698 6.88589432 9.02124786 7.36480621 9.55262756 7.85823059 C15.38292238 13.30496701 21.07936318 18.88847997 26.73022461 24.52050781 C28.51740895 26.29783862 30.31501647 28.06420233 32.11279297 29.83081055 C40.75726617 38.39328747 48.65266343 46.3403102 48.94433594 59.30371094 C48.917813 69.38122146 47.38974429 77.43695595 40.26708984 85.06323242 C32.04221138 92.45807728 23.3158476 94.1990241 12.53271484 93.88745117 C4.09600749 93.26466274 -0.6966256 90.50684048 -6.86181641 84.78198242 C-7.37756729 84.30307053 -7.89331818 83.82415863 -8.42469788 83.33073425 C-14.25499269 77.88399783 -19.95143349 72.30048487 -25.60229492 66.66845703 C-27.38947927 64.89112622 -29.18708678 63.12476252 -30.98486328 61.3581543 C-39.64199198 52.78314192 -47.47297511 44.84779043 -47.8671875 31.88525391 C-47.89172195 23.99742917 -47.10020264 18.2399981 -42.43603516 11.59448242 C-41.97841797 10.93963867 -41.52080078 10.28479492 -41.04931641 9.61010742 C-31.72640355 -2.34365481 -13.80732507 -6.90366253 0 0 Z " fill="#C70950" transform="translate(431.43603515625,386.405517578125)"/>
<path d="M0 0 C1.01452265 -0.00445668 1.01452265 -0.00445668 2.0495407 -0.0090034 C4.31483393 -0.01767178 6.5800742 -0.01919707 8.84538269 -0.02069092 C10.4700634 -0.02532039 12.09474302 -0.03034523 13.71942139 -0.03573608 C18.13273651 -0.04884918 22.54603643 -0.05530285 26.95936799 -0.05974674 C29.71732618 -0.06267908 32.47528022 -0.06678418 35.23323631 -0.07125092 C43.86431191 -0.08492265 52.49537803 -0.09459103 61.12646371 -0.09845281 C71.08607263 -0.10293365 81.04554432 -0.1204841 91.00511152 -0.1494534 C98.70630226 -0.17107546 106.40745441 -0.18115736 114.10867518 -0.18249393 C118.70707424 -0.18354153 123.30534424 -0.18943989 127.90371132 -0.20731354 C132.23016412 -0.2238034 136.55639096 -0.22594531 140.882864 -0.21717453 C142.46830221 -0.21640466 144.05375262 -0.2207403 145.63916016 -0.23063278 C147.80877989 -0.2433737 149.97760186 -0.23746463 152.1472168 -0.22705078 C153.35971005 -0.22851734 154.57220331 -0.2299839 155.82143879 -0.2314949 C160.42029883 0.26535715 164.39973595 1.57288479 168.00627136 4.60528564 C172.09992762 9.92703878 172.72578035 13.44584282 172.26408386 20.14044189 C170.37080891 25.39953899 167.66625171 27.93052784 163.26408386 31.14044189 C159.84375893 32.28055021 157.218804 32.27208328 153.61045837 32.28088379 C152.59109204 32.28534047 152.59109204 32.28534047 151.55113244 32.28988719 C149.26891373 32.2985741 146.98674749 32.30008243 144.70451355 32.30157471 C143.07012825 32.30620293 141.43574404 32.3112276 139.80136108 32.31661987 C135.356996 32.32974649 130.91264602 32.33618948 126.46826458 32.34063053 C123.6913832 32.34356117 120.91450595 32.34766599 118.13762665 32.3521347 C109.44888253 32.36581107 100.76014786 32.37547673 92.07139373 32.3793366 C82.04272454 32.38381617 72.01419172 32.40135879 61.98556399 32.43033719 C54.23343843 32.4519595 46.48135123 32.46204119 38.72919583 32.46337771 C34.09948311 32.46442546 29.46989856 32.47032662 24.84021759 32.48819733 C20.48340982 32.50468723 16.12682643 32.50682907 11.76999855 32.49805832 C10.17327333 32.4972884 8.576536 32.50162468 6.97984123 32.51151657 C4.7948431 32.52425627 2.61063726 32.51834899 0.42564392 32.50793457 C-1.40610571 32.51013441 -1.40610571 32.51013441 -3.27486038 32.51237869 C-8.68606024 31.93087279 -12.4937742 30.24756841 -16.61091614 26.57794189 C-19.64132251 22.5440897 -19.993924 18.06604659 -19.73591614 13.14044189 C-18.09514823 7.25298059 -15.6099335 4.52241312 -10.73591614 1.14044189 C-7.20017887 -0.10583525 -3.72177285 0.00913931 0 0 Z " fill="#D2D2D2" transform="translate(275.7359161376953,127.85955810546875)"/>
<path d="M0 0 C16.04667514 -0.07014609 32.09330039 -0.12301555 48.1400919 -0.15543652 C55.59124954 -0.17089166 63.04231179 -0.19195519 70.4934082 -0.22631836 C76.98937083 -0.25626228 83.48526436 -0.27558484 89.9812941 -0.28226548 C93.41948149 -0.28616933 96.85747125 -0.29531537 100.29559517 -0.31719017 C104.13793713 -0.34143746 107.98008744 -0.34196678 111.82250977 -0.34057617 C112.95683441 -0.351362 114.09115906 -0.36214783 115.25985718 -0.3732605 C121.96167406 -0.3470128 127.41203074 -0.0167903 132.7421875 4.46484375 C136.83584376 9.78659689 137.46169649 13.30540092 137 20 C135.10672504 25.2590971 132.40216785 27.79008594 128 31 C125.23829856 31.92056715 123.47821145 32.14800149 120.62036133 32.20532227 C119.73967484 32.22526749 118.85898834 32.24521271 117.95161438 32.26576233 C117.00465195 32.28247482 116.05768951 32.29918732 115.08203125 32.31640625 C114.10965012 32.33718735 113.13726898 32.35796844 112.13542175 32.37937927 C109.02785335 32.44478748 105.92020015 32.50371929 102.8125 32.5625 C100.70637142 32.60569351 98.60025144 32.64930807 96.49414062 32.69335938 C91.32951409 32.80045999 86.16480222 32.90175219 81 33 C81.59312988 33.63776367 82.18625977 34.27552734 82.79736328 34.93261719 C87.2748753 39.81402614 91.41985606 44.5961281 94.875 50.25 C95.23851562 50.82234375 95.60203125 51.3946875 95.9765625 51.984375 C98.21532053 55.55340954 100.17200844 59.20605526 102 63 C102.99012085 63.01401855 102.99012085 63.01401855 104.00024414 63.02832031 C107.02172465 63.08235573 110.04171176 63.16593693 113.0625 63.25 C114.10083984 63.26417969 115.13917969 63.27835938 116.20898438 63.29296875 C124.02262456 63.54102082 128.83494839 64.66836673 134.375 70.5 C137.24658531 74.91782355 137.44523126 78.74627111 137 84 C135.13178119 88.85330757 132.34461873 92.10358752 128 95 C124.57767028 96.14077657 121.91326783 96.09815117 118.3125 96.0625 C117.13300781 96.05347656 115.95351563 96.04445313 114.73828125 96.03515625 C113.38283203 96.01775391 113.38283203 96.01775391 112 96 C112.165 97.11375 112.33 98.2275 112.5 99.375 C115.4328755 126.32345021 109.16587257 154.22419117 93.234375 176.46484375 C92.82703125 176.97144531 92.4196875 177.47804688 92 178 C93.53205686 181.67862004 95.76903549 183.94486742 98.625 186.6875 C100.09945191 188.10846233 101.5624357 189.54173005 103 191 C103 191.33 103 191.66 103 192 C96.13646254 192.71619521 96.13646254 192.71619521 93.21484375 190.875 C91.53793858 189.32335763 90.01195344 187.71251869 88.5 186 C87.96375 185.42765625 87.4275 184.8553125 86.875 184.265625 C85.56428612 182.8612887 84.27939727 181.43292495 83 180 C84.51307932 175.8487311 86.55574344 172.23040443 88.8125 168.4375 C102.35064312 145.1554404 108.96755601 115.56380728 102 89 C101.731875 87.83597656 101.46375 86.67195313 101.1875 85.47265625 C99.06605517 76.7658931 96.07171763 68.97038726 92 61 C91.525625 60.04222656 91.05125 59.08445313 90.5625 58.09765625 C87.10025788 51.38956214 82.90872319 45.71625805 78 40 C77.33355469 39.18789062 76.66710937 38.37578125 75.98046875 37.5390625 C57.72604424 16.06725334 30.87376817 3.66635225 3.05078125 1.2265625 C2.04402344 1.15179688 1.03726562 1.07703125 0 1 C0 0.67 0 0.34 0 0 Z " fill="#D0D1D1" transform="translate(311,192)"/>
<path d="M0 0 C0.98009537 -0.00281982 1.96019073 -0.00563965 2.96998596 -0.00854492 C4.03871948 -0.00652069 5.107453 -0.00449646 6.20857239 -0.00241089 C7.33896439 -0.00416321 8.46935638 -0.00591553 9.63400269 -0.00772095 C13.37347444 -0.01212543 17.11289898 -0.00920696 20.85237122 -0.00582886 C23.44500742 -0.00650216 26.03764356 -0.0074724 28.63027954 -0.00872803 C34.0632849 -0.01020298 39.49627246 -0.00815151 44.92927551 -0.00338745 C51.21752229 0.00206273 57.50573668 0.00028567 63.79398268 -0.00521386 C69.8392152 -0.01028982 75.88443182 -0.00976412 81.92966652 -0.00683212 C84.50501319 -0.00616279 87.08036069 -0.00699149 89.65570641 -0.00931168 C93.24496566 -0.01183615 96.83416163 -0.0080009 100.42341614 -0.00241089 C101.49822235 -0.00443512 102.57302856 -0.00645935 103.68040466 -0.00854492 C105.13785851 -0.00431519 105.13785851 -0.00431519 106.62475586 0 C107.47406268 0.00037703 108.3233695 0.00075405 109.1984129 0.0011425 C111.12190247 0.12698364 111.12190247 0.12698364 112.12190247 1.12698364 C112.54452011 3.1214957 112.93367597 5.12310899 113.30940247 7.12698364 C114.51795723 12.99710677 116.18499857 18.49971763 118.23518372 24.12698364 C118.5131781 24.90171021 118.79117249 25.67643677 119.07759094 26.47463989 C119.75486954 28.36025334 120.43779111 30.24383839 121.12190247 32.12698364 C104.81445935 32.19712677 88.50706532 32.24999774 72.19950771 32.28242016 C64.6272826 32.29787593 57.05515133 32.31894067 49.48298645 32.353302 C42.88154841 32.38324399 36.28017834 32.40256803 29.67867428 32.40924913 C26.18459694 32.41315329 22.69071404 32.42230143 19.19669914 32.44417381 C15.29209173 32.46841725 11.38767294 32.46895055 7.48298645 32.46755981 C6.32996033 32.47834564 5.1769342 32.48913147 3.9889679 32.50024414 C-3.71509182 32.47054578 -8.82920877 31.84447145 -14.75309753 26.56448364 C-17.78350391 22.53063145 -18.1361054 18.05258834 -17.87809753 13.12698364 C-16.23732963 7.23952233 -13.75211489 4.50895487 -8.87809753 1.12698364 C-5.88494573 0.13555833 -3.14057968 0.00139232 0 0 Z " fill="#D1D1D1" transform="translate(81.87809753417969,319.8730163574219)"/>
<path d="M0 0 C0.92222351 -0.00428513 1.84444702 -0.00857025 2.7946167 -0.01298523 C4.74116193 -0.01871181 6.68772855 -0.01924115 8.63427734 -0.01489258 C11.5859915 -0.0117437 14.53669159 -0.03517434 17.48828125 -0.06054688 C19.38801958 -0.0628214 21.28776058 -0.06352265 23.1875 -0.0625 C24.49270599 -0.07631462 24.49270599 -0.07631462 25.82427979 -0.09040833 C35.72914584 -0.01702884 44.86369711 2.65183734 52.359375 9.30078125 C59.74775676 17.97225984 61.67009881 25.24617939 61.66015625 36.4296875 C61.66444138 37.49694565 61.6687265 38.5642038 61.67314148 39.6638031 C61.67887012 41.91380098 61.67939588 44.16381738 61.67504883 46.41381836 C61.67188264 49.85497519 61.69538863 53.29527707 61.72070312 56.73632812 C61.72297564 58.92578017 61.72367984 61.11523452 61.72265625 63.3046875 C61.731866 64.33187393 61.74107574 65.35906036 61.75056458 66.41737366 C61.69140352 75.54754602 61.69140352 75.54754602 58.359375 79.30078125 C55.12185822 80.37995351 52.78185729 80.41503726 49.37890625 80.3984375 C48.21552734 80.39521484 47.05214844 80.39199219 45.85351562 80.38867188 C44.63857422 80.38029297 43.42363281 80.37191406 42.171875 80.36328125 C40.94533203 80.35876953 39.71878906 80.35425781 38.45507812 80.34960938 C35.42312832 80.3378119 32.39127594 80.32135046 29.359375 80.30078125 C29.359375 79.64078125 29.359375 78.98078125 29.359375 78.30078125 C30.390625 77.78515625 31.421875 77.26953125 32.484375 76.73828125 C38.87516309 73.06973555 42.34579036 68.33768596 44.359375 61.30078125 C44.57906638 58.99721788 44.71202509 56.68429435 44.7734375 54.37109375 C44.81210938 53.08203125 44.85078125 51.79296875 44.890625 50.46484375 C44.92207258 49.11849418 44.95332011 47.77213993 44.984375 46.42578125 C45.02260541 45.05596611 45.06166001 43.6861737 45.1015625 42.31640625 C45.19560215 38.97799862 45.28125557 35.63959311 45.359375 32.30078125 C44.5122998 32.32172852 43.66522461 32.34267578 42.79248047 32.36425781 C39.62797107 32.4327218 36.46384109 32.48272112 33.29882812 32.52050781 C31.93314132 32.54053444 30.56753931 32.56776457 29.20214844 32.60253906 C27.23150398 32.65144557 25.26021517 32.67169472 23.2890625 32.69140625 C22.10554199 32.71235352 20.92202148 32.73330078 19.70263672 32.75488281 C14.6295058 32.06582019 11.59695096 29.53835721 8.046875 25.98828125 C6.00805018 22.74126395 5.65658295 20.09018259 5.359375 16.30078125 C-4.98019855 16.32923193 -4.98019855 16.32923193 -13.640625 21.30078125 C-17.25376238 25.8409298 -18.23911308 29.32356034 -18.171875 35.0078125 C-18.17761536 36.09505867 -18.17761536 36.09505867 -18.18347168 37.20426941 C-18.18618118 38.73132727 -18.17888747 40.2584323 -18.16210938 41.78540039 C-18.14077576 44.09694558 -18.16189113 46.40535026 -18.1875 48.71679688 C-18.20629305 57.8388828 -17.76182619 65.49139483 -11.60546875 72.67578125 C-10.93644531 73.21203125 -10.26742187 73.74828125 -9.578125 74.30078125 C-8.90652344 74.85765625 -8.23492187 75.41453125 -7.54296875 75.98828125 C-5.57224136 77.478276 -5.57224136 77.478276 -2.640625 78.30078125 C-2.640625 78.96078125 -2.640625 79.62078125 -2.640625 80.30078125 C-7.05716755 80.38784411 -11.47348957 80.44119503 -15.890625 80.48828125 C-17.14488281 80.51341797 -18.39914063 80.53855469 -19.69140625 80.56445312 C-20.89667969 80.57412109 -22.10195312 80.58378906 -23.34375 80.59375 C-24.45395508 80.60946045 -25.56416016 80.6251709 -26.70800781 80.64135742 C-29.99063416 80.26013333 -31.32260498 79.61914036 -33.640625 77.30078125 C-34.59521688 74.4370056 -34.78260159 72.58183183 -34.81762695 69.60498047 C-34.83046219 68.65323944 -34.84329742 67.70149841 -34.85652161 66.72091675 C-34.86390854 65.69281891 -34.87129547 64.66472107 -34.87890625 63.60546875 C-34.886978 62.54345245 -34.89504974 61.48143616 -34.90336609 60.38723755 C-34.91720439 58.13610464 -34.92792768 55.88495077 -34.93579102 53.63378906 C-34.9529541 50.20987465 -34.99683781 46.78693837 -35.04101562 43.36328125 C-35.05114726 41.17318416 -35.05966189 38.98307889 -35.06640625 36.79296875 C-35.08391434 35.7770163 -35.10142242 34.76106384 -35.11946106 33.71432495 C-35.0894467 23.75606594 -31.53235141 15.52720519 -24.640625 8.30078125 C-16.84202119 1.98629235 -9.89464511 -0.01026839 0 0 Z " fill="#0A5078" transform="translate(130.640625,143.69921875)"/>
<path d="M0 0 C0.14695313 0.75023437 0.29390625 1.50046875 0.4453125 2.2734375 C2.61474471 12.17303045 5.61965377 19.88801816 14 26 C22.01369397 31.06065369 29.26263252 32.19663691 38.6171875 30.53515625 C46.86459598 28.36410947 53.65262835 24.62139788 58.375 17.375 C61.39047117 11.88014143 62.80176221 6.11731923 64 0 C73.3918005 0.31306002 82.25530119 3.5935701 88.8125 10.5625 C90.20703125 12.19140625 90.20703125 12.19140625 91 14 C90.63871683 17.88379404 89.17237736 21.23132519 87.6875 24.8125 C84.34749132 33.333908 84.34749132 33.333908 81 48 C43.71 48 6.42 48 -32 48 C-32 18.48565121 -32 18.48565121 -22 8 C-15.0996338 2.41280941 -8.99215174 -0.35968607 0 0 Z " fill="#C70B50" transform="translate(112,240)"/>
<path d="M0 0 C4.98669007 2.49334503 8.49675474 5.99350949 11 11 C11.10608518 12.78574414 11.14879592 14.57540791 11.16113281 16.36425781 C11.17074036 17.48592346 11.1803479 18.60758911 11.19024658 19.76324463 C11.19449646 20.98090515 11.19874634 22.19856567 11.203125 23.453125 C11.20882507 24.70123962 11.21452515 25.94935425 11.22039795 27.23529053 C11.22985978 29.88166959 11.23675019 32.52793493 11.24023438 35.17431641 C11.24570587 38.5547899 11.26970403 41.93485791 11.29820633 45.31520462 C11.32139185 48.54864716 11.32328698 51.78211099 11.328125 55.015625 C11.3404718 56.2251886 11.3528186 57.4347522 11.36553955 58.68096924 C11.34789703 65.34901296 11.24264379 70.52632816 6.46484375 75.64453125 C0.772356 79.99761012 -2.87222635 80.789538 -10 80 C-15.31565158 77.34217421 -19.10236008 73.69291975 -21 68 C-21.10803454 66.17631645 -21.15879728 64.34900681 -21.17700195 62.5222168 C-21.18983719 61.40062668 -21.20267242 60.27903656 -21.21589661 59.12345886 C-21.22328354 57.91095963 -21.23067047 56.69846039 -21.23828125 55.44921875 C-21.246353 54.20251907 -21.25442474 52.9558194 -21.26274109 51.67134094 C-21.27658108 49.03093754 -21.28759777 46.39065896 -21.29516602 43.75024414 C-21.30402761 41.04688998 -21.32490559 38.34404957 -21.35668945 35.64086914 C-21.39928762 31.74349417 -21.41552517 27.8467974 -21.42578125 23.94921875 C-21.44328934 22.74279221 -21.46079742 21.53636566 -21.47883606 20.29338074 C-21.46229927 13.90013128 -21.40089556 9.80806008 -17 5 C-11.37343316 0.04326255 -7.41017624 -0.82081952 0 0 Z " fill="#F0EFED" transform="translate(309,240)"/>
<path d="M0 0 C10.56 0 21.12 0 32 0 C32 5.61 32 11.22 32 17 C37.28 17 42.56 17 48 17 C47.71200042 25.6399874 44.97082245 33.25207149 39.36328125 39.95703125 C31.67260423 47.03819075 22.05187437 49.40071056 11.83984375 49.27734375 C4.36692777 48.54752665 -2.71122123 44.21083887 -8 39 C-13.12598244 32.22597442 -16 25.5604509 -16 17 C-10.72 17 -5.44 17 0 17 C0 11.39 0 5.78 0 0 Z " fill="#D1A981" transform="translate(128,223)"/>
<path d="M0 0 C4.98669007 2.49334503 8.49675474 5.99350949 11 11 C11.54360446 15.95482094 11.56437074 19.87125852 9.3125 24.375 C6.14745126 27.96775803 2.78798338 31.69412413 -2.171875 32.23828125 C-8.01846537 32.40659218 -11.43192863 32.02425335 -16 28 C-20.39893104 23.00661882 -21.35676337 20.08984773 -21.28125 13.5390625 C-20.73016315 8.56397287 -17.99302299 5.87480597 -14.375 2.6875 C-9.71860985 -0.62098774 -5.60468123 -0.62082623 0 0 Z " fill="#F0EEE9" transform="translate(309,336)"/>
<path d="M0 0 C5.67476113 1.96434039 9.31400331 5.62800662 12 11 C12.54360446 15.95482094 12.56437074 19.87125852 10.3125 24.375 C7.14745126 27.96775803 3.78798338 31.69412413 -1.171875 32.23828125 C-7.01846537 32.40659218 -10.43192863 32.02425335 -15 28 C-19.39893104 23.00661882 -20.35676337 20.08984773 -20.28125 13.5390625 C-19.73016315 8.56397287 -16.99302299 5.87480597 -13.375 2.6875 C-8.92314854 -0.47565762 -5.3540278 -0.48837416 0 0 Z " fill="#C30B50" transform="translate(148,48)"/>
<path d="M0 0 C5.67476113 1.96434039 9.31400331 5.62800662 12 11 C12.54360446 15.95482094 12.56437074 19.87125852 10.3125 24.375 C6.72054254 28.45235712 3.52833982 31.59004052 -2.05078125 32.23828125 C-7.58896758 32.42001793 -10.64755155 31.74513006 -15 28 C-19.3022759 23.23261319 -20.36282503 19.56252705 -20.28125 13.28125 C-19.69180611 8.50020514 -16.85179203 5.75038822 -13.375 2.6875 C-8.92314854 -0.47565762 -5.3540278 -0.48837416 0 0 Z " fill="#F4B102" transform="translate(84,48)"/>
<path d="M0 0 C5.27011062 1.82426906 7.83751204 4.57251686 11 9 C12.89917882 13.52881104 12.50964051 18.58433192 10.875 23.125 C8.07984174 27.41090933 4.95224283 30.34925239 0 32 C-4.66694522 32.54225459 -8.07771048 32.4698456 -12.3125 30.3125 C-16.44673697 26.7551333 -19.58789927 23.54676857 -20.23828125 17.94921875 C-20.42001793 12.41103242 -19.74513006 9.35244845 -16 5 C-10.58420856 0.22894564 -7.09115125 -0.64682799 0 0 Z " fill="#009EC6" transform="translate(212,48)"/>
<path d="M0 0 C1.02480469 0.00322266 2.04960937 0.00644531 3.10546875 0.00976562 C4.16894531 0.01814453 5.23242188 0.02652344 6.328125 0.03515625 C7.40707031 0.03966797 8.48601562 0.04417969 9.59765625 0.04882812 C12.25786883 0.06059898 14.91796865 0.07704226 17.578125 0.09765625 C17.578125 0.42765625 17.578125 0.75765625 17.578125 1.09765625 C16.9389917 1.22817383 16.2998584 1.35869141 15.64135742 1.49316406 C12.68095365 2.10280812 9.72335359 2.72516814 6.765625 3.34765625 C5.76080078 3.55261719 4.75597656 3.75757813 3.72070312 3.96875 C-3.24782223 5.44760104 -9.79399853 7.489377 -16.421875 10.09765625 C-15.60009623 5.45411114 -13.19539194 3.83530579 -9.421875 1.09765625 C-6.26560333 0.01450003 -3.32003906 -0.01844466 0 0 Z " fill="#CACDCE" transform="translate(274.421875,191.90234375)"/>
</svg>
