<?xml version="1.0" encoding="UTF-8"?>
<svg version="1.1" xmlns="http://www.w3.org/2000/svg" width="160" height="160">
<path d="M0 0 C52.8 0 105.6 0 160 0 C160 52.8 160 105.6 160 160 C107.2 160 54.4 160 0 160 C0 107.2 0 54.4 0 0 Z " fill="#286BD5" transform="translate(0,0)"/>
<path d="M0 0 C20.08736981 -0.74847199 39.38904945 4.96800059 54.75390625 18.10546875 C62.38000336 25.48190196 67.8286417 34.14852939 68.07202148 44.99023438 C68.0523873 52.16780989 67.76294683 58.10470679 63.69140625 64.23046875 C63.27503906 64.91367188 62.85867187 65.596875 62.4296875 66.30078125 C56.65525804 74.27282822 46.54453617 77.20861161 37.5703125 80.30859375 C33.39341936 81.77329922 31.10076207 82.78212666 28.06640625 86.10546875 C25.47247844 91.62059564 26.39555652 98.30525603 26.69140625 104.23046875 C21.57383644 102.52461215 19.34433897 97.74045438 16.69140625 93.23046875 C15.13315302 89.62474326 13.84068149 85.98524376 12.69140625 82.23046875 C12.36140625 82.89046875 12.03140625 83.55046875 11.69140625 84.23046875 C11.03140625 84.23046875 10.37140625 84.23046875 9.69140625 84.23046875 C9.44390625 82.97234375 9.19640625 81.71421875 8.94140625 80.41796875 C8.27163516 77.83456599 7.8534272 76.42489389 6.12890625 74.35546875 C-1.88680249 70.65591087 -11.11916268 70.64809093 -19.78125 70.10742188 C-30.43479397 69.32010937 -37.85483126 67.0908001 -45.30859375 59.23046875 C-50.56715834 52.83491722 -52.93768004 44.69193125 -52.58984375 36.4453125 C-51.3187588 26.43551855 -46.16979493 18.37016441 -38.55859375 11.91796875 C-27.53723642 3.62727607 -13.51313076 0.94129246 0 0 Z " fill="#F8FBFD" transform="translate(71.30859375,28.76953125)"/>
<path d="M0 0 C4.46483957 3.28256118 7.91494633 6.42092999 9.75 11.75 C10.44046489 16.56294646 10.41980526 20.90803553 8.75 25.5 C3.95172251 30.89806217 -1.12310227 34.7898126 -7.4375 38.3125 C-12.20473166 40.9816688 -15.13987471 43.29215375 -18.25 47.75 C-18.91 48.41 -19.57 49.07 -20.25 49.75 C-20.27578125 49.15832031 -20.3015625 48.56664062 -20.328125 47.95703125 C-20.59784184 44.19938528 -20.95880156 41.31973607 -22.6875 37.9375 C-25.30617851 35.70204274 -27.10683452 34.99184264 -30.3125 33.875 C-35.02775505 32.17916266 -35.02775505 32.17916266 -37.0625 28.25 C-37.454375 27.095 -37.84625 25.94 -38.25 24.75 C-42.06597972 20.94836607 -46.10748183 19.70080955 -51.1875 18.375 C-57.29128548 16.61540601 -61.63317136 15.28826886 -65.25 9.75 C-66.06003518 5.86183113 -65.48776284 4.21601516 -63.6875 0.6875 C-48.2587873 -17.90607684 -17.77085958 -11.53271123 0 0 Z " fill="#2A6CD4" transform="translate(106.25,55.25)"/>
<path d="M0 0 C6.4345446 2.793947 11.47247978 9.28486839 14.3359375 15.609375 C16.3754254 22.95153144 16.04373561 30.69274993 12.875 37.625 C9.06958565 44.06897512 4.26597134 45.92782508 -2.5625 48.4375 C-8.32334631 50.56579442 -12.17368596 52.34737192 -15 58 C-15.22858114 60.0374763 -15.41024278 62.08040303 -15.5625 64.125 C-15.64628906 65.22070312 -15.73007813 66.31640625 -15.81640625 67.4453125 C-15.87699219 68.28835937 -15.93757813 69.13140625 -16 70 C-18 69 -18 69 -19.125 66.4375 C-20.36986552 61.54695687 -20.53299251 57.29186777 -19.375 52.3125 C-16.31780872 47.17086012 -11.63646206 44.73245805 -6.5 42 C0.82662803 38.08318664 6.44697985 34.2792857 9 26 C10.46886562 15.47037905 5.84398333 8.34044223 0 0 Z " fill="#306ED0" transform="translate(112,59)"/>
<path d="M0 0 C2.99616261 2.99616261 2.79539822 5.99730815 3.0859375 10.11328125 C2.91177125 15.96368391 0.30370924 20.04401384 -3.875 24 C-7.88700672 27.21659798 -12.4523269 29.61024423 -17.02490234 31.93359375 C-21.39680781 34.26141307 -23.71860816 36.61313087 -26 41 C-26.68057427 43.95522154 -26.68057427 43.95522154 -26.75 46.875 C-26.80671875 47.84179688 -26.8634375 48.80859375 -26.921875 49.8046875 C-26.94765625 50.52914062 -26.9734375 51.25359375 -27 52 C-29.98301706 48.10910818 -31.21053725 45.81315914 -31.4375 40.875 C-31.49808594 39.96492188 -31.55867188 39.05484375 -31.62109375 38.1171875 C-30.54693263 32.7261147 -27.30482503 28.80134246 -23.00952148 25.44433594 C-20.87469226 24.03780191 -18.71057339 22.72149737 -16.5 21.4375 C-9.96780947 17.60887866 -3.8097923 13.69026326 -0.9765625 6.34765625 C-0.86054687 5.59355469 -0.74453125 4.83945313 -0.625 4.0625 C-0.49351563 3.29035156 -0.36203125 2.51820312 -0.2265625 1.72265625 C-0.15179688 1.15417969 -0.07703125 0.58570312 0 0 Z " fill="#2F6DCF" transform="translate(118,71)"/>
<path d="M0 0 C4.71589574 2.35794787 7.4326278 8.95981764 9.875 13.4375 C11.79927167 19.53102694 12.06674527 25.32286518 9.4375 31.25 C5.15983869 38.59993352 -1.8532767 42.26209403 -9.11279297 46.19726562 C-14.39291997 48.963286 -14.39291997 48.963286 -17.6875 53.6875 C-18.49607177 59.67093109 -18.24761102 64.38097246 -16 70 C-15.97421875 69.27554688 -15.9484375 68.55109375 -15.921875 67.8046875 C-15.31250432 57.41768736 -15.31250432 57.41768736 -11 53 C-4.81691018 49.05503044 1.9469166 46.84580693 9 45 C9 45.66 9 46.32 9 47 C8.47567383 47.17539307 7.95134766 47.35078613 7.41113281 47.53149414 C5.01445659 48.34955468 2.63298952 49.20542785 0.25 50.0625 C-0.575 50.33771484 -1.4 50.61292969 -2.25 50.89648438 C-6.26003558 52.36790872 -9.22168405 53.59192051 -11.5625 57.28125 C-13.11944037 61.30898704 -13.41366258 64.14135722 -13.25 68.4375 C-13.21390625 69.67371094 -13.1778125 70.90992188 -13.140625 72.18359375 C-13.09421875 73.11300781 -13.0478125 74.04242188 -13 75 C-18.09342808 73.30219064 -20.28546756 68.44488606 -23 64 C-25.15564178 59.57240483 -26.6639394 54.92888875 -27 50 C-23.21192368 41.05942175 -15.85741086 36.29679184 -7.77490234 31.58935547 C-2.73558422 28.62725807 2.06760362 25.79718915 4 20 C4.67498592 12.95137652 4.44261497 8.55326871 0 3 C0 2.01 0 1.02 0 0 Z M7 13 C6.83177734 14.051875 6.83177734 14.051875 6.66015625 15.125 C4.95338421 23.3353544 1.83280013 27.27259906 -5 32 C-7.21933647 33.34963233 -9.44896215 34.68246058 -11.6875 36 C-17.00276945 39.20534399 -21.60839527 42.07343565 -24 48 C-25.04368049 54.30706919 -24.54006124 59.54240559 -21 65 C-20.67 65 -20.34 65 -20 65 C-19.97421875 64.27554688 -19.9484375 63.55109375 -19.921875 62.8046875 C-19.86515625 61.83789062 -19.8084375 60.87109375 -19.75 59.875 C-19.68039063 58.44800781 -19.68039063 58.44800781 -19.609375 56.9921875 C-18.69950152 52.5244754 -16.95266649 49.38819117 -13.17578125 46.703125 C-11.02151298 45.42516925 -8.84121782 44.22963189 -6.625 43.0625 C0.41745136 39.35176391 5.55432879 35.54097942 9.390625 28.41796875 C10.11514142 25.54312473 10.05537725 23.25778317 9.75 20.3125 C9.66234375 19.35988281 9.5746875 18.40726563 9.484375 17.42578125 C9.19921771 14.82924581 9.19921771 14.82924581 7 13 Z " fill="#B6DEFC" transform="translate(111,58)"/>
<path d="M0 0 C6.4345446 2.793947 11.47247978 9.28486839 14.3359375 15.609375 C16.75184582 24.30664494 15.63395718 32.41925219 11.2890625 40.20703125 C10 42 10 42 8 43 C8.33 41.35 8.66 39.7 9 38 C9.66 38 10.32 38 11 38 C11 36.68 11 35.36 11 34 C11.66 34 12.32 34 13 34 C13.02725341 32.2709226 13.04650987 30.54171824 13.0625 28.8125 C13.07410156 27.84957031 13.08570312 26.88664062 13.09765625 25.89453125 C13.0660089 22.62396939 13.0660089 22.62396939 12 18 C11.67 21.63 11.34 25.26 11 29 C10.34 29 9.68 29 9 29 C9.03480469 28.14277344 9.06960937 27.28554687 9.10546875 26.40234375 C9.36946032 15.25184286 6.28328347 8.96740457 0 0 Z " fill="#346BC0" transform="translate(112,59)"/>
<path d="M0 0 C0.99 0.33 1.98 0.66 3 1 C1.56240921 9.33802656 0.02837898 15.00644123 -7 20 C-10.36436469 22.13509507 -13.75543147 24.22662281 -17.2253418 26.18603516 C-22.23089647 29.11420948 -25.01039119 32.00023517 -28 37 C-28.7136724 40.73771834 -28.7136724 40.73771834 -29 44 C-29.99 44.495 -29.99 44.495 -31 45 C-31.95997121 40.77612666 -32.18635537 38.72543448 -30 35 C-25.64211777 28.30231524 -19.53476122 24.52645068 -12.77490234 20.58935547 C-5.25122811 16.23394342 -5.25122811 16.23394342 -1.07421875 8.88671875 C-0.94660156 7.83097656 -0.81898437 6.77523437 -0.6875 5.6875 C-0.54699219 4.61886719 -0.40648438 3.55023438 -0.26171875 2.44921875 C-0.17535156 1.64097656 -0.08898437 0.83273438 0 0 Z " fill="#B3DCFD" transform="translate(116,69)"/>
<path d="M0 0 C0.66 0 1.32 0 2 0 C4.14715846 4.36302598 4.38340533 8.47209715 4.375 13.25 C4.37693359 14.3790979 4.37693359 14.3790979 4.37890625 15.53100586 C4.26509671 21.5221729 3.04257082 25.77058141 0 31 C-0.66 31 -1.32 31 -2 31 C-2.33 32.32 -2.66 33.64 -3 35 C-4.98 35.495 -4.98 35.495 -7 36 C-6.38511719 35.12988281 -6.38511719 35.12988281 -5.7578125 34.2421875 C-4.94957031 33.07042969 -4.94957031 33.07042969 -4.125 31.875 C-3.59132812 31.10929687 -3.05765625 30.34359375 -2.5078125 29.5546875 C0.70510686 24.11103656 1.29795441 19.16364059 1.1875 12.9375 C1.1865332 11.89625977 1.1865332 11.89625977 1.18554688 10.83398438 C1.15367563 7.10504911 0.88337649 3.62537712 0 0 Z " fill="#3A70C3" transform="translate(137,63)"/>
<path d="M0 0 C0.33 1.32 0.66 2.64 1 4 C2.32 4.33 3.64 4.66 5 5 C4.68289062 5.54140625 4.36578125 6.0828125 4.0390625 6.640625 C2.81692026 9.4157149 2.59056564 11.73208098 2.375 14.75 C2.30023438 15.73484375 2.22546875 16.7196875 2.1484375 17.734375 C2.09945312 18.48203125 2.05046875 19.2296875 2 20 C-1.1389292 15.90574452 -2.1529775 13.76158809 -2.1875 8.5625 C-2.20167969 7.59441406 -2.21585937 6.62632813 -2.23046875 5.62890625 C-2 3 -2 3 0 0 Z " fill="#396FC4" transform="translate(89,103)"/>
<path d="M0 0 C4.87510744 2.11398464 8.06256686 5.63026475 11 10 C11.4375 13.5 11.4375 13.5 11 16 C10.34 16 9.68 16 9 16 C8.62875 15.030625 8.2575 14.06125 7.875 13.0625 C5.86234561 8.31769158 2.9468185 4.20565359 0 0 Z " fill="#4875BE" transform="translate(112,59)"/>
<path d="M0 0 C7.37161536 1.42083289 14.1139909 3.05575236 20 8 C19.67 8.66 19.34 9.32 19 10 C18.113125 9.4225 17.22625 8.845 16.3125 8.25 C10.9397986 5.14182564 4.93651779 3.67829375 -1 2 C-0.67 1.34 -0.34 0.68 0 0 Z " fill="#4477C4" transform="translate(48,69)"/>
<path d="M0 0 C0.66 0 1.32 0 2 0 C2 1.32 2 2.64 2 4 C2.66 4 3.32 4 4 4 C4 4.66 4 5.32 4 6 C5.32 6 6.64 6 8 6 C8 6.66 8 7.32 8 8 C5.36 8 2.72 8 0 8 C0 5.36 0 2.72 0 0 Z " fill="#5B6471" transform="translate(0,152)"/>
<path d="M0 0 C0.66 0 1.32 0 2 0 C2 2.64 2 5.28 2 8 C-0.64 8 -3.28 8 -6 8 C-6 7.34 -6 6.68 -6 6 C-4.68 6 -3.36 6 -2 6 C-2 5.34 -2 4.68 -2 4 C-1.34 4 -0.68 4 0 4 C0 2.68 0 1.36 0 0 Z " fill="#5A646F" transform="translate(158,152)"/>
<path d="M0 0 C2.64 0 5.28 0 8 0 C8 2.64 8 5.28 8 8 C7.34 8 6.68 8 6 8 C6 6.68 6 5.36 6 4 C5.34 4 4.68 4 4 4 C4 3.34 4 2.68 4 2 C2.68 2 1.36 2 0 2 C0 1.34 0 0.68 0 0 Z " fill="#5B6472" transform="translate(152,0)"/>
<path d="M0 0 C0.33 0.66 0.66 1.32 1 2 C0.67 2.66 0.34 3.32 0 4 C-0.66 4 -1.32 4 -2 4 C-2.06058594 4.61488281 -2.12117188 5.22976562 -2.18359375 5.86328125 C-2.30927734 7.07564453 -2.30927734 7.07564453 -2.4375 8.3125 C-2.51871094 9.11300781 -2.59992187 9.91351563 -2.68359375 10.73828125 C-3 13 -3 13 -4 16 C-6 14 -6 14 -6.375 11.25 C-5.81571169 6.40283463 -3.38992165 3.38992165 0 0 Z " fill="#4273C3" transform="translate(47,51)"/>
<path d="M0 0 C2.64 0 5.28 0 8 0 C8 0.66 8 1.32 8 2 C6.7934375 2.37125 6.7934375 2.37125 5.5625 2.75 C2.828919 3.72238859 2.828919 3.72238859 2.1875 6.125 C2.0946875 7.053125 2.0946875 7.053125 2 8 C1.34 8 0.68 8 0 8 C0 5.36 0 2.72 0 0 Z " fill="#5D6370" transform="translate(0,0)"/>
<path d="M0 0 C2.55337724 2.55337724 2.43261395 3.95274418 2.75 7.5 C2.84796875 8.4796875 2.9459375 9.459375 3.046875 10.46875 C3 13 3 13 1 15 C0.7834375 13.63875 0.7834375 13.63875 0.5625 12.25 C0.09816667 9.1721709 0.09816667 9.1721709 -0.625 6.9375 C-1.1118389 4.42216567 -0.61560812 2.46243248 0 0 Z " fill="#4378C6" transform="translate(118,71)"/>
<path d="M0 0 C2.31 0 4.62 0 7 0 C3.98112756 3.48331435 1.43090471 4.79157144 -3 6 C-2 4 -1 2 0 0 Z " fill="#DDF0FE" transform="translate(123,98)"/>
<path d="M0 0 C10.43480075 3.98977676 10.43480075 3.98977676 12.17578125 7.1015625 C12.44777344 7.72804688 12.71976563 8.35453125 13 9 C12.31292969 8.65066406 11.62585938 8.30132812 10.91796875 7.94140625 C10.01691406 7.48636719 9.11585937 7.03132813 8.1875 6.5625 C7.29417969 6.11003906 6.40085937 5.65757813 5.48046875 5.19140625 C2.96000522 3.9168395 2.96000522 3.9168395 0 3 C0 2.01 0 1.02 0 0 Z " fill="#4478C1" transform="translate(71,84)"/>
<path d="M0 0 C0.66 0.66 1.32 1.32 2 2 C1.21572648 3.64936913 0.42234741 5.29441127 -0.375 6.9375 C-0.81585938 7.85402344 -1.25671875 8.77054688 -1.7109375 9.71484375 C-3 12 -3 12 -5 13 C-4.67 11.35 -4.34 9.7 -4 8 C-3.34 8 -2.68 8 -2 8 C-2 6.68 -2 5.36 -2 4 C-1.34 4 -0.68 4 0 4 C0 2.68 0 1.36 0 0 Z " fill="#3B73C3" transform="translate(125,89)"/>
<path d="M0 0 C0.33 0 0.66 0 1 0 C1.66 3.63 2.32 7.26 3 11 C2.34 11 1.68 11 1 11 C1 9.68 1 8.36 1 7 C0.01 7 -0.98 7 -2 7 C-1.125 2.25 -1.125 2.25 0 0 Z " fill="#4076C5" transform="translate(84,109)"/>
<path d="M0 0 C0 0.66 0 1.32 0 2 C-6.5 6 -6.5 6 -11 6 C-11 5.34 -11 4.68 -11 4 C-9.5437455 3.32880451 -8.08492133 2.66318193 -6.625 2 C-5.81289062 1.62875 -5.00078125 1.2575 -4.1640625 0.875 C-2 0 -2 0 0 0 Z " fill="#3D70C7" transform="translate(128,101)"/>
<path d="M0 0 C0.99 0.33 1.98 0.66 3 1 C2.34 4.3 1.68 7.6 1 11 C0.34 10.34 -0.32 9.68 -1 9 C-0.9765625 6.8359375 -0.9765625 6.8359375 -0.625 4.375 C-0.51414062 3.55773437 -0.40328125 2.74046875 -0.2890625 1.8984375 C-0.19367188 1.27195312 -0.09828125 0.64546875 0 0 Z " fill="#A3C8F6" transform="translate(116,69)"/>
<path d="M0 0 C0.66 0.33 1.32 0.66 2 1 C-0.25 3.0625 -0.25 3.0625 -3 5 C-5.3125 4.75 -5.3125 4.75 -7 4 C-4.61426621 2.10786631 -2.92824652 0.97608217 0 0 Z " fill="#3771CF" transform="translate(107,109)"/>
<path d="M0 0 C0.66 0.33 1.32 0.66 2 1 C2 3.64 2 6.28 2 9 C1.01 9.495 1.01 9.495 0 10 C-0.74926071 6.33694766 -1.2380014 3.57644848 0 0 Z " fill="#9BC2ED" transform="translate(85,104)"/>
<path d="M0 0 C3.02419525 0.58803797 6.01758453 1.22678118 9 2 C9.33 3.32 9.66 4.64 10 6 C6.7 4.35 3.4 2.7 0 1 C0 0.67 0 0.34 0 0 Z " fill="#4273C6" transform="translate(111,37)"/>
<path d="M0 0 C0 1.65 0 3.3 0 5 C-1.65 5.33 -3.3 5.66 -5 6 C-5 5.01 -5 4.02 -5 3 C-4.34 3 -3.68 3 -3 3 C-3 2.34 -3 1.68 -3 1 C-1 0 -1 0 0 0 Z " fill="#2B65DA" transform="translate(94,102)"/>
<path d="M0 0 C0.66 0.33 1.32 0.66 2 1 C-4.28571429 6.57142857 -4.28571429 6.57142857 -8 7 C-5.42215154 4.35247996 -3.08351902 2.05567935 0 0 Z " fill="#D4EBFB" transform="translate(38,37)"/>
<path d="M0 0 C0.33 1.32 0.66 2.64 1 4 C-1.4375 6.75 -1.4375 6.75 -4 9 C-4.66 8.67 -5.32 8.34 -6 8 C-4.02 5.36 -2.04 2.72 0 0 Z " fill="#336DC2" transform="translate(120,88)"/>
<path d="M0 0 C1.32 0.66 2.64 1.32 4 2 C-0.75 5 -0.75 5 -3 5 C-3 4.01 -3 3.02 -3 2 C-2.01 1.34 -1.02 0.68 0 0 Z " fill="#3270C8" transform="translate(97,90)"/>
</svg>
