<?xml version="1.0" encoding="UTF-8"?>
<svg version="1.1" xmlns="http://www.w3.org/2000/svg" width="512" height="512">
<path d="M0 0 C5.78307907 -0.05621462 11.27334636 0.1670322 17 1 C17.67601376 22.22683199 4.31859817 46.26740592 -9 62 C-7.46607212 65.65464986 -5.2737222 67.94394 -2.45703125 70.703125 C-1.54759766 71.60160156 -0.63816406 72.50007813 0.29882812 73.42578125 C1.26134531 74.36756931 2.22423819 75.30897355 3.1875 76.25 C8.72894853 81.68819172 14.18110537 87.10054012 19.2277832 93.00292969 C22.79232071 97.01972495 26.67405954 100.73450094 30.5 104.5 C36.2421276 110.15141468 41.7714253 115.8694096 47 122 C47.721875 122.80566406 48.44375 123.61132812 49.1875 124.44140625 C60.41400043 137.57931516 65.48795781 153.66434411 65.38768005 170.80909729 C65.39575836 172.49730045 65.39575836 172.49730045 65.40399987 174.21960872 C65.41820506 177.95714822 65.41119404 181.69432983 65.40405273 185.43188477 C65.4097601 188.12514347 65.41662605 190.81837727 65.42485046 193.5116272 C65.44197775 200.04693178 65.44289138 206.58213997 65.43763756 213.11746115 C65.43358426 218.43173568 65.43505313 223.74598187 65.44038582 229.06025505 C65.44113424 229.81867756 65.44188266 230.57710007 65.44265376 231.35850508 C65.44418534 232.89955864 65.44572369 234.44061218 65.44726873 235.98166572 C65.46097109 250.40665328 65.45557141 264.83158648 65.44408352 279.25657278 C65.43414735 292.43691335 65.44710244 305.61711361 65.47101771 318.79743255 C65.49543027 332.35463892 65.50501167 345.91178 65.49836498 359.46900791 C65.49487835 367.07100472 65.49706837 374.67289361 65.51461601 382.27487373 C65.52936477 388.74409026 65.52993836 395.21312278 65.5125451 401.6823358 C65.50405567 404.97902408 65.50401868 408.27531787 65.51719666 411.5720005 C65.53042057 415.15427013 65.51884522 418.73565433 65.50120544 422.31788635 C65.51081045 423.34767044 65.52041546 424.37745453 65.53031152 425.4384442 C65.41688261 436.67738625 61.77515017 445.85533775 54 454 C43.20076554 464.30928809 31.58977144 465.59655671 17.3203125 465.51757812 C15.66167591 465.52300841 14.00304414 465.53013612 12.34442139 465.53881836 C7.8691484 465.55694704 3.39424711 465.55002774 -1.0810318 465.53730202 C-5.78173263 465.52711982 -10.48240328 465.53658211 -15.18310547 465.54284668 C-23.07460192 465.55010796 -30.96594825 465.54057538 -38.85742188 465.52148438 C-47.95921549 465.49971856 -57.0606506 465.50677101 -66.16243553 465.52879 C-74.00058735 465.54698742 -81.83863173 465.54948115 -89.67679787 465.53903532 C-94.34788508 465.5328242 -99.0188042 465.53189879 -103.68988037 465.54518127 C-108.08302197 465.5568026 -112.47570485 465.54860035 -116.8687973 465.52560425 C-118.47351065 465.52035051 -120.07826314 465.52177323 -121.68296051 465.53065491 C-133.53724999 465.5901778 -142.37535198 463.35906 -153 458 C-154.86545428 457.46548588 -156.74152481 456.96706123 -158.625 456.5 C-168.49365679 453.53382745 -177.13476645 448.15144064 -186 443 C-186.92216309 442.46552246 -187.84432617 441.93104492 -188.79443359 441.38037109 C-193.7350553 438.51241701 -198.66621713 435.62865278 -203.59375 432.73828125 C-210.36652419 428.77385844 -217.18091982 424.88390784 -224 421 C-233.71496961 415.46437547 -243.39652435 409.87485847 -253.04711914 404.22753906 C-259.37413828 400.52664097 -265.71449493 396.84991489 -272.06640625 393.19189453 C-275.36531318 391.2915827 -278.66123279 389.38616509 -281.95703125 387.48046875 C-285.67106763 385.33490524 -289.39525238 383.21060195 -293.13671875 381.11328125 C-302.67747953 375.72912064 -310.62963681 371.12526478 -315.55073643 360.90447903 C-319.55621428 352.6825424 -324.46192031 346.64480305 -331.07687569 340.39697075 C-332.74816541 338.81745123 -334.39441953 337.21495996 -336.03709412 335.60572815 C-339.52592558 332.195736 -343.04178211 328.81452005 -346.5625 325.4375 C-350.65514064 321.51171706 -354.73491448 317.57408717 -358.78608513 313.60548592 C-360.38880371 312.04723676 -362.01137917 310.51211268 -363.6363678 308.97715759 C-372.5960319 300.32838362 -379.98256753 289.78040988 -380.29272461 276.89428711 C-380.42015404 261.46588737 -375.97589748 252.14932231 -365.28017807 241.02290916 C-363.92810673 239.65745598 -362.57074653 238.29722525 -361.20892334 236.9414978 C-360.4552464 236.18328975 -359.70156947 235.4250817 -358.92505383 234.64389765 C-356.42056403 232.12683662 -353.9090719 229.61688738 -351.39746094 227.10693359 C-349.59124079 225.29472379 -347.78542973 223.48210617 -345.97999573 221.66911316 C-341.59705488 217.2703796 -337.20939421 212.87640539 -332.81910983 208.4850025 C-329.24815178 204.91309091 -325.6787841 201.33959774 -322.11051178 197.7650032 C-311.9747182 187.61161912 -301.83476561 177.46241511 -291.6894215 167.31857388 C-291.1436751 166.77290739 -290.5979287 166.2272409 -290.03564453 165.66503906 C-289.48922472 165.11870102 -288.94280492 164.57236297 -288.37982693 164.00946923 C-279.52361634 155.15407164 -270.67742834 146.28873648 -261.83573171 137.41884951 C-252.73852897 128.29287279 -243.63384191 119.17442179 -234.5213778 110.06368315 C-229.41294964 104.95591717 -224.30760578 99.84515609 -219.21031952 94.72626877 C-214.41624502 89.91200695 -209.61183885 85.10829597 -204.80039787 80.31138039 C-203.04060174 78.55367061 -201.28418718 76.79256743 -199.53150368 75.02776527 C-179.72475216 55.09300571 -160.81188036 44.1173103 -132.125 43.71875 C-130.56265625 43.69113586 -130.56265625 43.69113586 -128.96875 43.66296387 C-125.64588725 43.60460064 -122.32297128 43.55178531 -119 43.5 C-110.33261174 43.36137361 -101.6662057 43.19975987 -93 43 C-91.89897949 42.97647461 -90.79795898 42.95294922 -89.66357422 42.92871094 C-86.42090094 42.85344395 -83.17944318 42.75787555 -79.9375 42.65625 C-78.96876953 42.63566528 -78.00003906 42.61508057 -77.00195312 42.59387207 C-71.59707429 42.40046869 -67.06629403 41.64663754 -62.01681519 39.67552185 C-58.44366525 38.4787137 -54.8612424 38.51123499 -51.125 38.5625 C-49.95046265 38.57385986 -49.95046265 38.57385986 -48.75219727 38.58544922 C-38.18672547 38.8842354 -30.40081112 42.77717695 -22 49 C-10.14061217 34.62008832 -4.01168309 18.00217589 0 0 Z " fill="#F5A330" transform="translate(407,23)"/>
<path d="M0 0 C-0.6297876 0.62455078 -1.2595752 1.24910156 -1.90844727 1.89257812 C-4.27935645 4.24628314 -6.647874 6.60234573 -9.01489258 8.95996094 C-10.03317292 9.97326152 -11.05235474 10.98565712 -12.07250977 11.99707031 C-17.33424352 17.21489171 -22.49246977 22.45631022 -27.31225586 28.09179688 C-31.20503195 32.49306086 -35.49355953 36.52945292 -39.68359375 40.64453125 C-43.72319512 44.64030331 -47.5448838 48.72811553 -51.24902344 53.03515625 C-53.66311682 55.74411101 -56.24546162 58.25588559 -58.84814453 60.78222656 C-76.82071347 78.23090226 -88.12336367 96.51306511 -88.5146637 122.04251099 C-88.55620233 126.85040994 -88.54692085 131.65731888 -88.53344727 136.46533203 C-88.54051457 139.12624058 -88.54912799 141.78710461 -88.55955505 144.44799805 C-88.58107043 150.89334908 -88.58110087 157.33852271 -88.57292951 163.78389777 C-88.56660228 169.02610369 -88.56779133 174.26825829 -88.57420158 179.51046371 C-88.57510324 180.25957623 -88.57600489 181.00868874 -88.57693387 181.78050163 C-88.57878526 183.30278812 -88.58064782 184.8250746 -88.58252143 186.34736107 C-88.59905546 200.58406637 -88.59041721 214.82067221 -88.57353585 229.05737148 C-88.55883241 242.05837364 -88.57348409 255.05914482 -88.60230602 268.06011726 C-88.63175241 281.44341692 -88.64265771 294.82661017 -88.63312382 308.20994079 C-88.63210136 309.72568311 -88.63110675 311.24142546 -88.6301403 312.75716782 C-88.62966391 313.50275174 -88.62918752 314.24833566 -88.6286967 315.01651303 C-88.62654005 320.24794914 -88.63629614 325.47928358 -88.65091133 330.71069717 C-88.66849319 337.09235449 -88.6682335 343.47371722 -88.64555968 349.85536326 C-88.63447182 353.10581429 -88.63386929 356.35564464 -88.64986038 359.60609055 C-88.72716508 376.67482912 -88.56104413 390.99247326 -76 404 C-75.01 404.66 -74.02 405.32 -73 406 C-73 406.66 -73 407.32 -73 408 C-91.65386101 406.20635952 -109.33031431 392.22001053 -125.21508789 383.03173828 C-128.0321712 381.40337088 -130.8521261 379.77999595 -133.671875 378.15625 C-139.04155579 375.06289969 -144.4078972 371.96380636 -149.7734375 368.86328125 C-153.03524007 366.9796495 -156.29861844 365.09877679 -159.5625 363.21875 C-171.08266137 356.58198641 -182.59847161 349.93807893 -194.06689453 343.2121582 C-199.20763616 340.19881131 -204.3646374 337.22070898 -209.5546875 334.29296875 C-210.63347168 333.67881104 -211.71225586 333.06465332 -212.82373047 332.43188477 C-214.87152195 331.26695742 -216.92487508 330.11172686 -218.98486328 328.96850586 C-227.17211481 324.28674391 -234.04348543 318.83912883 -238.4375 310.3125 C-238.91058594 309.42175781 -239.38367188 308.53101563 -239.87109375 307.61328125 C-243.57975065 299.02818967 -244.09998183 285.94769499 -240.77734375 277.1796875 C-239.23662976 273.81941167 -237.38460964 270.65088161 -235.48144531 267.48486328 C-233.73630441 264.55769715 -232.06740592 261.59234357 -230.3984375 258.62109375 C-222.91220157 245.32345658 -215.19642723 232.15645612 -207.4921875 218.984375 C-203.82618398 212.71102211 -200.19129829 206.41993092 -196.5625 200.125 C-195.62954102 198.50658203 -195.62954102 198.50658203 -194.67773438 196.85546875 C-192.78470874 193.57057008 -190.89224402 190.28534897 -189 187 C-181.12337411 173.32445686 -173.22879908 159.66039042 -165.26708984 146.03417969 C-158.46412377 134.38340815 -151.73357814 122.69096256 -145 111 C-135.88544921 95.17514882 -126.76312618 79.35525975 -117.5234375 63.60302734 C-116.14391678 61.24590396 -114.77398746 58.88350201 -113.40625 56.51953125 C-97.20353184 28.70238553 -75.98111802 19.55648716 -46.0625 11.3125 C-43.7736669 10.67012022 -41.48525227 10.02624752 -39.19726562 9.38085938 C-35.86484286 8.44148105 -32.53185638 7.50471443 -29.19570923 6.5786438 C-24.34516293 5.23217543 -19.50542776 3.86667365 -14.69091797 2.39599609 C-13.89882431 2.15495651 -13.10673065 1.91391693 -12.29063416 1.66557312 C-10.85169364 1.2239035 -9.4149255 0.77506162 -7.98097229 0.31745911 C-4.724324 -0.68162869 -3.32113447 -1.10704482 0 0 Z " fill="#BB5F13" transform="translate(329,73)"/>
<path d="M0 0 C5.28 0 10.56 0 16 0 C16 6.27 16 12.54 16 19 C18.64 19 21.28 19 24 19 C32.17593749 20.69080612 38.65106949 24.61445505 44 31 C48.63136655 38.11929072 50 42.27750751 50 51 C44.72 51 39.44 51 34 51 C33.62875 49.618125 33.2575 48.23625 32.875 46.8125 C31.25050695 42.02927046 29.40385712 39.69124602 25 37 C22.03 36.34 19.06 35.68 16 35 C16 45.56 16 56.12 16 67 C18.64 67 21.28 67 24 67 C33.43157647 68.95047568 40.35372258 73.86959726 45.890625 81.66015625 C50.89767574 90.35230274 51.52272947 99.11951869 49.3671875 108.859375 C46.73647809 116.4908023 41.34675385 123.22036533 34.4375 127.4375 C27.76816605 130.46901543 23.53596815 131 16 131 C16 137.27 16 143.54 16 150 C10.72 150 5.44 150 0 150 C0 143.73 0 137.46 0 131 C-2.97 131 -5.94 131 -9 131 C-16.7021573 129.33703422 -22.90159368 124.90288858 -28 119 C-32.19426206 112.24313392 -34 107.05150727 -34 99 C-28.72 99 -23.44 99 -18 99 C-17.62875 100.381875 -17.2575 101.76375 -16.875 103.1875 C-15.25050695 107.97072954 -13.40385712 110.30875398 -9 113 C-4.545 113.99 -4.545 113.99 0 115 C0 104.44 0 93.88 0 83 C-2.97 83 -5.94 83 -9 83 C-16.7021573 81.33703422 -22.90159368 76.90288858 -28 71 C-33.50448239 62.1323971 -35.37987011 53.35677791 -34 43 C-31.10483294 33.45257884 -25.20712781 26.43539149 -16.515625 21.625 C-10.39168664 18.88634434 -7.34921732 19 0 19 C0 12.73 0 6.46 0 0 Z " fill="#022B44" transform="translate(352,245)"/>
<path d="M0 0 C5.78307907 -0.05621462 11.27334636 0.1670322 17 1 C17.67914581 22.32517832 4.03778352 47.6910786 -10 63 C-16.63388594 69.60601247 -24.64762297 75.93934497 -32.7734375 80.5859375 C-35.2556332 81.89401021 -35.2556332 81.89401021 -36.4375 84.875 C-38.42351603 88.84703206 -40.42704811 90.39472258 -44 93 C-48.07047347 94.35682449 -51.74391717 94.52472254 -56 94 C-60.9710149 91.46759618 -64.49430567 88.01138866 -67 83 C-67.80980094 76.48176623 -66.92286213 72.26489392 -63 67 C-58.32063599 62.43762009 -53.91587563 62.58596383 -47.70703125 62.6640625 C-45 63 -45 63 -42 65 C-34.0624969 64.21107981 -27.06865024 55.40883063 -22.19140625 49.78515625 C-10.40278833 34.8024743 -4.27412788 18.29799448 0 0 Z " fill="#012B45" transform="translate(407,23)"/>
<path d="M0 0 C0 10.56 0 21.12 0 32 C-8.20913918 32 -9.99476197 30.61325046 -15.875 25.5 C-18.8175575 21.71121681 -18.81012807 17.63571768 -18.625 12.984375 C-17.45155352 7.38116805 -13.8345682 3.91025248 -9.203125 0.7890625 C-7 0 -7 0 0 0 Z " fill="#F2A230" transform="translate(352,280)"/>
<path d="M0 0 C8.13513514 0 8.13513514 0 13 4 C17.18934695 8.75547491 18.31063352 11.46646863 18.2109375 17.6875 C17.76168438 22.61264529 15.58107495 25.68561783 11.9375 28.8125 C6.98056338 32.50383578 7.16147454 32 0 32 C0 21.44 0 10.88 0 0 Z " fill="#F29D30" transform="translate(368,328)"/>
</svg>
