<?xml version="1.0" encoding="UTF-8"?>
<svg version="1.1" xmlns="http://www.w3.org/2000/svg" width="512" height="512">
<path d="M0 0 C2.04052582 -0.00231833 4.08104741 -0.00582284 6.12157136 -0.00940675 C12.52548283 -0.02043497 18.92933562 -0.0209781 25.33325195 -0.01489258 C31.87988021 -0.00886579 38.42629284 -0.02114627 44.97288436 -0.04246265 C50.6465022 -0.06023862 56.32005242 -0.06605495 61.99369699 -0.0628249 C65.3588641 -0.06103626 68.72375678 -0.06477173 72.08891869 -0.07753944 C113.64047674 -0.21584614 150.13295989 8.83129528 180.89453125 38.30078125 C181.76464844 39.09613281 182.63476562 39.89148437 183.53125 40.7109375 C208.31522575 64.15141671 221.74501972 97.98009027 223.1796875 131.7578125 C224.05595642 167.21540832 212.98599171 200.27885944 189.89453125 227.30078125 C188.84845703 228.54794922 188.84845703 228.54794922 187.78125 229.8203125 C182.37071692 236.07654169 176.40959269 241.22693037 169.89453125 246.30078125 C169.0025 247.04585937 168.11046875 247.7909375 167.19140625 248.55859375 C164.89453125 250.30078125 164.89453125 250.30078125 162.89453125 250.30078125 C162.904524 251.5244062 162.904524 251.5244062 162.91471863 252.77275085 C162.9748782 260.46771892 163.02053017 268.16257263 163.04996777 275.85771465 C163.06561082 279.81369259 163.08682395 283.76947588 163.12084961 287.7253418 C163.15349203 291.5443748 163.1713945 295.36322081 163.17916298 299.18238258 C163.18469776 300.63801834 163.19550597 302.0936441 163.21172142 303.54920006 C163.23356146 305.59121028 163.23649556 307.63245196 163.23510742 309.67456055 C163.24510017 311.41663033 163.24510017 311.41663033 163.2552948 313.19389343 C162.72993144 317.71831124 160.80857781 320.27594117 157.83203125 323.61328125 C153.38803086 326.16621764 149.88373987 326.25523484 144.89453125 325.30078125 C142.37646484 323.98803711 142.37646484 323.98803711 139.79296875 322.265625 C138.35655029 321.31441772 138.35655029 321.31441772 136.89111328 320.34399414 C135.90224121 319.66973389 134.91336914 318.99547363 133.89453125 318.30078125 C132.92757324 317.64263428 131.96061523 316.9844873 130.96435547 316.30639648 C128.01350166 314.27808415 125.07705574 312.23049046 122.14453125 310.17578125 C120.66146484 309.14130859 120.66146484 309.14130859 119.1484375 308.0859375 C114.04227783 304.52048823 108.95367539 300.93262494 103.89453125 297.30078125 C103.8805127 298.36268677 103.8805127 298.36268677 103.86621094 299.44604492 C103.30446273 333.5392047 96.74016198 365.14242 74.89453125 392.30078125 C74.48477051 392.81592285 74.07500977 393.33106445 73.65283203 393.86181641 C49.96546335 423.46883154 17.0332222 440.56159878 -20.34695435 444.89118958 C-28.2422526 445.67234233 -36.16780693 445.38989817 -44.08871841 445.23895836 C-49.36475806 445.14919453 -54.64131393 445.13040421 -59.91796875 445.09960938 C-66.57385957 445.05811058 -73.22729781 444.99616998 -79.88183594 444.85180664 C-112.35233106 443.13109939 -112.35233106 443.13109939 -140.18017578 457.48950195 C-140.85340881 458.15068024 -141.52664185 458.81185852 -142.22027588 459.49307251 C-144.85121923 462.01588032 -147.67313305 463.88543145 -150.72265625 465.87890625 C-152.47595957 467.10186284 -154.22859306 468.32578047 -155.98046875 469.55078125 C-163.25402315 474.62401584 -170.53830334 479.68013877 -177.85571289 484.68994141 C-182.33726033 487.76073023 -186.7773928 490.88574554 -191.1875 494.05859375 C-195.09872902 496.59173189 -198.55453408 496.60931919 -203.10546875 496.30078125 C-208.32698886 494.4578918 -210.42678278 492.08225221 -213.10546875 487.30078125 C-213.53697205 484.14093018 -213.53697205 484.14093018 -213.44506836 480.71972656 C-213.422827 479.43108704 -213.40058563 478.14244751 -213.37767029 476.8147583 C-213.35739714 476.13309853 -213.33712399 475.45143875 -213.3162365 474.74912262 C-213.25687199 472.59477513 -213.23069937 470.44237437 -213.2144928 468.28729248 C-213.16637887 462.16473442 -213.09002554 456.04425509 -212.91723633 449.92382812 C-212.81359926 446.1683788 -212.7746159 442.41674935 -212.77563667 438.659935 C-212.76388763 437.23875969 -212.72856042 435.817556 -212.66804314 434.39762115 C-212.23121965 426.60259691 -212.23121965 426.60259691 -215.38285828 419.73515892 C-218.94312158 416.38473351 -222.97856263 413.88972395 -227.10546875 411.30078125 C-229.61453533 409.19102354 -231.93677018 406.9535342 -234.23046875 404.61328125 C-234.80901611 404.02426025 -235.38756348 403.43523926 -235.98364258 402.82836914 C-262.29640817 375.42210483 -273.73196836 339.7288878 -273.3203125 302.30078125 C-272.52317226 271.24697007 -260.23030986 241.74207558 -240.10546875 218.30078125 C-239.33460938 217.39585937 -238.56375 216.4909375 -237.76953125 215.55859375 C-216.47219802 191.3051638 -186.13778222 176.06121355 -154.26171875 171.78515625 C-151.24881635 171.64135006 -151.24881635 171.64135006 -150.10546875 170.30078125 C-150.39305873 168.71045161 -150.69087078 167.12142209 -151.03442383 165.54223633 C-158.74519111 130.03556687 -151.59499896 92.4923968 -132.05249023 61.92285156 C-127.33739994 54.87783476 -121.84415647 48.52310154 -116.10546875 42.30078125 C-115.41839844 41.5428125 -114.73132813 40.78484375 -114.0234375 40.00390625 C-97.75471017 22.87893012 -75.97057396 11.58475537 -53.54296875 4.98828125 C-52.72940918 4.7456958 -51.91584961 4.50311035 -51.07763672 4.25317383 C-34.28535439 -0.43084971 -17.28717515 -0.01031086 0 0 Z " fill="#31C6A0" transform="translate(281.10546875,7.69921875)"/>
<path d="M0 0 C0.82446289 1.64794922 0.82446289 1.64794922 1.47265625 3.8046875 C1.72789062 4.60672607 1.983125 5.40876465 2.24609375 6.23510742 C2.51550781 7.10627197 2.78492188 7.97743652 3.0625 8.875 C5.79447779 17.31867131 9.27129691 24.88267433 13.88696289 32.46630859 C17.10314892 38.04499019 17.40283634 41.75444677 16 48 C15.75121094 49.17820313 15.50242188 50.35640625 15.24609375 51.5703125 C14.97925781 52.74335938 14.71242187 53.91640625 14.4375 55.125 C8.82562016 82.88460492 14.99370849 112.17619125 30 136 C45.28058949 159.01900445 68.95367152 176.64838877 96 183.125 C96.67289063 183.29386719 97.34578125 183.46273437 98.0390625 183.63671875 C127.09182247 190.75969272 156.36641849 184.52493672 181.875 169.75 C189.46922338 165.12694575 195.77863091 159.30412758 202 153 C202.89589844 152.11441406 203.79179687 151.22882813 204.71484375 150.31640625 C214.3376 140.33780077 220.64429997 128.68202829 225.80859375 115.92578125 C226.77748045 113.54644964 227.81034525 111.27417722 229 109 C230.6809007 109.6299167 232.34271248 110.3103477 234 111 C234.66209473 111.27150879 235.32418945 111.54301758 236.00634766 111.82275391 C241.91182198 114.44726357 247.36998125 117.5130191 251 123 C253.59122282 132.37676368 252.15529753 142.48248685 251 152 C250.88301758 153.01497559 250.76603516 154.02995117 250.64550781 155.07568359 C247.67146061 178.52991611 237.81128116 201.58670129 223 220 C222.59023926 220.5151416 222.18047852 221.0302832 221.75830078 221.56103516 C198.0709321 251.16805029 165.13869095 268.26081753 127.7585144 272.59040833 C119.86321615 273.37156108 111.93766182 273.08911692 104.01675034 272.93817711 C98.74071069 272.84841328 93.46415482 272.82962296 88.1875 272.79882812 C81.53160918 272.75732933 74.87817094 272.69538873 68.22363281 272.55102539 C35.75313769 270.83031814 35.75313769 270.83031814 7.92529297 285.1887207 C7.25205994 285.84989899 6.5788269 286.51107727 5.88519287 287.19229126 C3.25424952 289.71509907 0.4323357 291.5846502 -2.6171875 293.578125 C-4.37049082 294.80108159 -6.12312431 296.02499922 -7.875 297.25 C-15.1485544 302.32323459 -22.43283459 307.37935752 -29.75024414 312.38916016 C-34.23179158 315.45994898 -38.67192405 318.58496429 -43.08203125 321.7578125 C-46.99326027 324.29095064 -50.44906533 324.30853794 -55 324 C-60.22152011 322.15711055 -62.32131403 319.78147096 -65 315 C-65.4315033 311.84014893 -65.4315033 311.84014893 -65.33959961 308.41894531 C-65.31735825 307.13030579 -65.29511688 305.84166626 -65.27220154 304.51397705 C-65.25192839 303.83231728 -65.23165524 303.1506575 -65.21076775 302.44834137 C-65.15140324 300.29399388 -65.12523062 298.14159312 -65.10902405 295.98651123 C-65.06091012 289.86395317 -64.98455679 283.74347384 -64.81176758 277.62304688 C-64.70813051 273.86759755 -64.66914715 270.1159681 -64.67016792 266.35915375 C-64.65841888 264.93797844 -64.62309167 263.51677475 -64.56257439 262.0968399 C-64.1257509 254.30181566 -64.1257509 254.30181566 -67.27738953 247.43437767 C-70.83765283 244.08395226 -74.87309388 241.5889427 -79 239 C-81.50906658 236.89024229 -83.83130143 234.65275295 -86.125 232.3125 C-86.70354736 231.723479 -87.28209473 231.13445801 -87.87817383 230.52758789 C-114.19093942 203.12132358 -125.62649961 167.42810655 -125.21484375 130 C-124.41770351 98.94618882 -112.12484111 69.44129433 -92 46 C-90.84371094 44.64261719 -90.84371094 44.64261719 -89.6640625 43.2578125 C-72.95252247 24.22668962 -27.49221273 -9.16407091 0 0 Z " fill="#28486D" transform="translate(133,180)"/>
<path d="M0 0 C1.77314074 1.5361895 3.52251147 3.10014697 5.25 4.6875 C5.73952148 5.13464355 6.22904297 5.58178711 6.73339844 6.04248047 C22.56051263 20.66023052 33.4919241 38.96715113 39.25 59.6875 C39.5696875 60.80898437 39.889375 61.93046875 40.21875 63.0859375 C45.61300594 85.31226984 43.68283139 112.1835087 33.25 132.6875 C32.67378906 133.87472656 32.09757813 135.06195313 31.50390625 136.28515625 C19.23657725 160.91449393 -0.2025562 178.36235913 -25.00341797 189.87548828 C-26.43937973 190.54308806 -27.8639886 191.23505372 -29.28515625 191.93359375 C-52.42139426 202.42038946 -82.08494023 201.36632063 -105.62109375 192.9765625 C-121.67796556 186.36137187 -135.26779234 177.72070738 -147.75 165.6875 C-148.40871094 165.09195313 -149.06742188 164.49640625 -149.74609375 163.8828125 C-168.43219562 146.53451469 -178.86776019 118.12015561 -180.0703125 93.1953125 C-180.97354144 62.16257175 -170.67324366 34.13174201 -149.6796875 11.3046875 C-135.1460742 -4.02516698 -117.06602555 -14.66678343 -96.75 -20.3125 C-95.62851563 -20.6321875 -94.50703125 -20.951875 -93.3515625 -21.28125 C-61.32877324 -29.05307301 -25.7032722 -20.30558504 0 0 Z " fill="#3C5C88" transform="translate(324.75,168.3125)"/>
<path d="M0 0 C7.46734078 4.71253528 12.2544875 12.47065605 14.5901947 20.90437317 C15.38660179 24.97697072 15.19366633 29.07789899 15.1328125 33.2109375 C15.13361906 35.19791821 15.13628072 37.18489888 15.140625 39.171875 C15.13866214 42.27514897 15.12497728 45.37653701 15.07910156 48.47949219 C14.28641122 61.93921036 14.28641122 61.93921036 19.84375 73.53515625 C21.21377065 74.70832608 22.59729062 75.8661171 24 77 C32.06332222 89.84216378 34.18599615 103.27822148 30.875 118.1875 C26.81697003 132.07415301 18.91470196 143.76148551 6.1015625 151.01171875 C-8.09077096 157.68580865 -22.01482122 159.02899342 -37 154 C-45.07474678 150.93592198 -50.93033734 146.05914332 -57 140 C-57.58910156 139.4225 -58.17820313 138.845 -58.78515625 138.25 C-68.41478232 128.00466894 -70.54026781 114.34108443 -70.30859375 100.80859375 C-69.45521965 90.27644499 -65.41708469 81.32486663 -59 73 C-58.14792969 72.34032227 -57.29585937 71.68064453 -56.41796875 71.00097656 C-52.90398005 66.63971352 -53.34148884 62.99032311 -53.43359375 57.546875 C-53.42795914 56.53208069 -53.42232452 55.51728638 -53.41651917 54.47174072 C-53.40007464 51.23069036 -53.41559157 47.99100272 -53.4375 44.75 C-53.45414687 41.52340297 -53.46309877 38.29771798 -53.44776917 35.07110596 C-53.43856329 33.06650478 -53.44740285 31.06170985 -53.47740173 29.05731201 C-53.43950354 19.27456703 -49.77057886 11.08749958 -43 4 C-30.00364336 -6.75268595 -14.92731872 -8.50090507 0 0 Z " fill="#14E3B2" transform="translate(275,176)"/>
<path d="M0 0 C7.46543423 4.71133209 12.25208356 12.46562799 14.58580017 20.89775085 C15.39470751 25.00331692 15.2417675 29.13985815 15.1953125 33.30859375 C15.1924826 34.27531509 15.18965271 35.24203644 15.18673706 36.23805237 C15.17560407 39.30466452 15.15051224 42.37097715 15.125 45.4375 C15.11496131 47.52538639 15.10583701 49.61327738 15.09765625 51.70117188 C15.07568727 56.80089544 15.04120507 61.90039705 15 67 C14.02417969 66.43410156 13.04835938 65.86820312 12.04296875 65.28515625 C10.75789475 64.54412818 9.47273396 63.80325061 8.1875 63.0625 C7.54490234 62.68931641 6.90230469 62.31613281 6.24023438 61.93164062 C3.51683576 60.36533365 0.98891878 58.99630626 -2 58 C-2.0093457 57.00669678 -2.01869141 56.01339355 -2.02832031 54.98999023 C-2.06841313 51.27893428 -2.13422312 47.56869064 -2.20751953 43.8581543 C-2.23561803 42.25702406 -2.25688759 40.65575798 -2.27099609 39.05444336 C-2.2925817 36.74262504 -2.33930558 34.43242086 -2.390625 32.12109375 C-2.39185364 31.41351425 -2.39308228 30.70593475 -2.39434814 29.97691345 C-2.55281397 24.51077329 -4.02177495 21.42815041 -7 17 C-10.46950134 14.09174152 -14.56393563 12.77214183 -19.0625 12.5625 C-23.94113095 13.10457011 -27.73606646 13.83159108 -31.38867188 17.33007812 C-36.65952115 24.40389896 -35.7839 33.08640005 -35.8125 41.5 C-35.83567162 43.10159614 -35.86104245 44.70316206 -35.88867188 46.3046875 C-35.95118034 50.20323783 -35.98378593 54.1009935 -36 58 C-36.80824219 58.39832031 -37.61648437 58.79664063 -38.44921875 59.20703125 C-39.51785156 59.73683594 -40.58648437 60.26664062 -41.6875 60.8125 C-42.74324219 61.33457031 -43.79898438 61.85664063 -44.88671875 62.39453125 C-47.66776696 63.8286728 -50.33904567 65.35603378 -53 67 C-53.10196696 60.61382792 -53.17170187 54.22786813 -53.21972656 47.84106445 C-53.23976081 45.67138829 -53.26699612 43.50176557 -53.30175781 41.33227539 C-53.350637 38.201851 -53.37305125 35.07214452 -53.390625 31.94140625 C-53.41127014 30.98166397 -53.43191528 30.02192169 -53.45318604 29.03309631 C-53.45639454 19.25992391 -49.75927558 11.07566721 -43 4 C-30.00364336 -6.75268595 -14.92731872 -8.50090507 0 0 Z " fill="#DEEDFD" transform="translate(275,176)"/>
<path d="M0 0 C4.12637776 3.96021489 5.27257424 8.18006375 5.47090149 13.82897949 C5.50073691 17.55591836 5.41740787 21.27478099 5.3125 25 C5.28738325 26.55334949 5.26457603 28.10673813 5.24414062 29.66015625 C5.18941589 33.44108146 5.10333666 37.22010379 5 41 C4.122229 40.83773926 3.24445801 40.67547852 2.34008789 40.50830078 C-0.65415199 40.05263179 -3.41933381 39.87097354 -6.44140625 39.8671875 C-7.43720703 39.86589844 -8.43300781 39.86460937 -9.45898438 39.86328125 C-10.48314453 39.86714844 -11.50730469 39.87101562 -12.5625 39.875 C-13.59052734 39.87113281 -14.61855469 39.86726563 -15.67773438 39.86328125 C-16.67224609 39.86457031 -17.66675781 39.86585938 -18.69140625 39.8671875 C-20.04020874 39.86887939 -20.04020874 39.86887939 -21.41625977 39.87060547 C-24.03331752 40.00166855 -26.44772724 40.42120512 -29 41 C-29.12447553 36.44687658 -29.21474409 31.89476346 -29.2746582 27.34033203 C-29.29965732 25.79425788 -29.33366902 24.24830018 -29.37719727 22.70263672 C-29.80265135 7.19608685 -29.80265135 7.19608685 -25.28417969 1.34155273 C-18.16326289 -6.09750389 -8.1299176 -5.79543343 0 0 Z " fill="#3C5D88" transform="translate(268,192)"/>
<path d="M0 0 C0.639375 -0.01546875 1.27875 -0.0309375 1.9375 -0.046875 C5.38686015 1.28583233 7.35835912 3.54068752 9 6.75 C9.66307291 10.29438642 9.60976227 13.71778571 9.5 17.3125 C9.50386719 18.71145508 9.50386719 18.71145508 9.5078125 20.13867188 C9.43690318 25.11296083 9.27598836 28.74601423 6 32.75 C3.45770394 34.67863839 2.21654982 34.75902291 -1 34.625 C-4.41867312 33.62788701 -5.76834454 32.47757889 -8 29.75 C-9.86452781 26.02094439 -9.31422991 21.6047436 -9.375 17.5 C-9.41238281 16.55769531 -9.44976562 15.61539062 -9.48828125 14.64453125 C-9.54501425 10.15001696 -9.55675718 6.77063775 -6.7265625 3.125 C-3.05415172 -0.07389077 -3.05415172 -0.07389077 0 0 Z " fill="#27B18B" transform="translate(256,264.25)"/>
</svg>
