<svg xmlns="http://www.w3.org/2000/svg" xmlns:xlink="http://www.w3.org/1999/xlink" width="661.5" height="395.4" viewBox="0 0 661.5 395.4">
  <defs>
    <linearGradient id="linear-gradient" x1="0.53" y1="0.472" x2="0.177" y2="0.307" gradientUnits="objectBoundingBox">
      <stop offset="0" stop-color="#e0e8f5"/>
      <stop offset="1" stop-color="#fff"/>
    </linearGradient>
  </defs>
  <g id="request_404" transform="translate(-11821 -4195.664)">
    <g id="error404-01" transform="translate(11821 4195.664)">
      <path id="Path_2367" data-name="Path 2367" d="M512.9,275.9h56.7a55.7,55.7,0,0,1,55.5,55.5h0a55.7,55.7,0,0,1-55.5,55.5H89.9C40.5,386.9,0,346.4,0,297H0c0-49.4,40.5-89.9,89.9-89.9h0a38.112,38.112,0,0,0,38-38h0a38.112,38.112,0,0,0-38-38H44.2A39.649,39.649,0,0,1,4.7,91.6h0A39.541,39.541,0,0,1,44.2,52H102a15.407,15.407,0,0,0,15.4-15.4h0A15.407,15.407,0,0,0,102,21.2H91.8A10.67,10.67,0,0,1,81.2,10.6h0A10.67,10.67,0,0,1,91.8,0h66.9c14.1,0,15.7,16.6,51.3,16.6h82.5a13.934,13.934,0,0,1,13.9,13.9h0a13.934,13.934,0,0,1-13.9,13.9H279.2a20.166,20.166,0,0,0-20.1,20.1h0a20.166,20.166,0,0,0,20.1,20.1h40c54.1,0,61.7,14.1,71.2,42.2s58.7,30.4,58.7,30.4h67.3a30.408,30.408,0,0,1,30.3,30.3h0a30.408,30.408,0,0,1-30.3,30.3h-3.5a29.192,29.192,0,0,0-29.1,29.1h0a29.171,29.171,0,0,0,29.1,29ZM62,21.2A10.6,10.6,0,1,0,51.4,10.6,10.605,10.605,0,0,0,62,21.2Z" fill="#e0e8f5" fill-rule="evenodd"/>
      <path id="Path_2373" data-name="Path 2373" d="M613.3,395.4H46.6a3.9,3.9,0,0,1-3.9-3.9h0a3.971,3.971,0,0,1,3.9-3.9H613.2a3.9,3.9,0,0,1,3.9,3.9h0A3.82,3.82,0,0,1,613.3,395.4Z" fill="#684935" fill-rule="evenodd"/>
      <path id="Path_2374" data-name="Path 2374" d="M33.2,395.4h-8a3.971,3.971,0,0,1-3.9-3.9h0a3.971,3.971,0,0,1,3.9-3.9h8a3.971,3.971,0,0,1,3.9,3.9h0A3.9,3.9,0,0,1,33.2,395.4Z" fill="#684935" fill-rule="evenodd"/>
      <path id="Path_2375" data-name="Path 2375" d="M657.6,395.4H634a3.9,3.9,0,0,1-3.9-3.9h0a3.971,3.971,0,0,1,3.9-3.9h23.6a3.9,3.9,0,0,1,3.9,3.9h0A3.971,3.971,0,0,1,657.6,395.4Z" fill="#684935" fill-rule="evenodd"/>
      <g id="Group_155" data-name="Group 155">
        <path id="Path_2376" data-name="Path 2376" d="M141.9,127.2l15.4,40.9L192,144.4l9.8-37.4L197,98.6l-39.1,3.7-12.4,9.9Z" fill-rule="evenodd" fill="url(#linear-gradient)"/>
        <path id="Path_2377" data-name="Path 2377" d="M149.9,120.2a5.2,5.2,0,0,0,0-10.4,5.2,5.2,0,0,0,0,10.4Z" fill="#fff" fill-rule="evenodd"/>
        <g id="Group_153" data-name="Group 153">
          <path id="Path_2378" data-name="Path 2378" d="M101.4,134.7,131,101a.755.755,0,0,1,.8-.1l1.8,1.5a.755.755,0,0,1,.1.8L103.9,137a.755.755,0,0,1-.8.1l-1.8-1.5a.972.972,0,0,1,.1-.9Zm30-32.6L102.5,135l1,.8,28.9-32.9Z" fill="#101537" fill-rule="evenodd"/>
          <path id="Path_2379" data-name="Path 2379" d="M131.1,100.1a2.971,2.971,0,1,1-2.6,3.3A2.936,2.936,0,0,1,131.1,100.1Z" fill="#0b0c14" fill-rule="evenodd"/>
          <path id="Path_2380" data-name="Path 2380" d="M101.3,134.9l20.8,39.7a.443.443,0,0,0,.7.2l2.1-1.1a.443.443,0,0,0,.2-.7l-20.8-39.7a.443.443,0,0,0-.7-.2l-2.1,1.1a.574.574,0,0,0-.2.7Zm21.5,38.8-20.3-38.8,1.1-.6,20.3,38.8Z" fill="#101537" fill-rule="evenodd"/>
          <path id="Path_2381" data-name="Path 2381" d="M122,175.6a2.944,2.944,0,1,0-1.7-3.8A2.957,2.957,0,0,0,122,175.6Z" fill="#0b0c14" fill-rule="evenodd"/>
          <path id="Path_2382" data-name="Path 2382" d="M103,132a2.971,2.971,0,1,1-2.6,3.3A3.008,3.008,0,0,1,103,132Z" fill="#0b0c14" fill-rule="evenodd"/>
        </g>
        <path id="Path_2383" data-name="Path 2383" d="M121.3,183.9h38.3a5.549,5.549,0,0,0,5.5-5.5h0a5.549,5.549,0,0,0-5.5-5.5H121.3a5.549,5.549,0,0,0-5.5,5.5h0A5.549,5.549,0,0,0,121.3,183.9Z" fill="#b22b25" fill-rule="evenodd"/>
        <path id="Path_2384" data-name="Path 2384" d="M95.9,183.9h38.3a5.484,5.484,0,0,0,5.5-5.5h0a5.549,5.549,0,0,0-5.5-5.5H95.9a5.549,5.549,0,0,0-5.5,5.5h0A5.421,5.421,0,0,0,95.9,183.9Z" fill="#d64e47" fill-rule="evenodd"/>
        <g id="Group_154" data-name="Group 154">
          <path id="Path_2385" data-name="Path 2385" d="M157.8,102.8,142,127.2a.755.755,0,0,1-.7.4.634.634,0,0,1-.6-.5l-9.2-23.3a.616.616,0,0,1,.1-.7c.1-.2.4-.3.6-.4l25-1.1a.67.67,0,0,1,.7.4A1.063,1.063,0,0,1,157.8,102.8Z" fill="#d64e47" fill-rule="evenodd"/>
          <path id="Path_2386" data-name="Path 2386" d="M140.1,126l-1.3-3.4,13.5-20.8,3.6-.1Z" fill="#fff" fill-rule="evenodd"/>
          <path id="Path_2387" data-name="Path 2387" d="M134,100.1l6.5,4.2a3.883,3.883,0,0,1,1.1,5.4h0a3.883,3.883,0,0,1-5.4,1.1l-6.5-4.2a3.883,3.883,0,0,1-1.1-5.4h0A3.883,3.883,0,0,1,134,100.1Z" fill="#d64e47" fill-rule="evenodd"/>
          <path id="Path_2388" data-name="Path 2388" d="M130.9,102.7a1.235,1.235,0,1,1-1.7.4A1.2,1.2,0,0,1,130.9,102.7Z" fill="#0b0c14" fill-rule="evenodd"/>
        </g>
        <path id="Path_2389" data-name="Path 2389" d="M169.3,128.6a1.1,1.1,0,0,0-2.2,0v2.5h-2.5a1.1,1.1,0,1,0,0,2.2h2.5v2.5a1.1,1.1,0,0,0,2.2,0v-2.5h2.5a1.1,1.1,0,1,0,0-2.2h-2.5Z" fill="#fff" fill-rule="evenodd"/>
        <path id="Path_2390" data-name="Path 2390" d="M154.2,124a1.1,1.1,0,0,0-2.2,0v2.5h-2.5a1.1,1.1,0,1,0,0,2.2H152v2.5a1.1,1.1,0,0,0,2.2,0v-2.5h2.5a1.1,1.1,0,1,0,0-2.2h-2.5Z" fill="#fff" fill-rule="evenodd"/>
        <path id="Path_2391" data-name="Path 2391" d="M190.3,107a1.1,1.1,0,0,0-2.2,0v2.5h-2.5a1.1,1.1,0,1,0,0,2.2h2.5v2.5a1.1,1.1,0,0,0,2.2,0v-2.5h2.5a1.1,1.1,0,1,0,0-2.2h-2.5Z" fill="#fff" fill-rule="evenodd"/>
        <path id="Path_2392" data-name="Path 2392" d="M169.8,111.6a.5.5,0,0,0-1,0v1.1h-1.1a.5.5,0,0,0,0,1h1.1v1.1a.5.5,0,0,0,1,0v-1.1h1.1a.5.5,0,0,0,0-1h-1.1Z" fill="#fff" fill-rule="evenodd"/>
        <path id="Path_2393" data-name="Path 2393" d="M158.9,136.8a.5.5,0,0,0-1,0v1.1h-1.1a.5.5,0,0,0,0,1h1.1V140a.5.5,0,0,0,1,0v-1.1H160a.5.5,0,0,0,0-1h-1.1Z" fill="#fff" fill-rule="evenodd"/>
        <path id="Path_2394" data-name="Path 2394" d="M181.5,124.6a.5.5,0,0,0-1,0v1.1h-1.1a.5.5,0,0,0,0,1h1.1v1.1a.5.5,0,0,0,1,0v-1.1h1.1a.5.5,0,0,0,0-1h-1.1Z" fill="#fff" fill-rule="evenodd"/>
        <path id="Path_2395" data-name="Path 2395" d="M158.1,114.3a.5.5,0,1,0-1,0v1.1H156a.5.5,0,0,0,0,1h1.1v1.1a.5.5,0,1,0,1,0v-1.1h1.1a.5.5,0,0,0,0-1h-1.1Z" fill="#fff" fill-rule="evenodd"/>
        <path id="Path_2396" data-name="Path 2396" d="M179.3,103a.5.5,0,0,0-1,0v1.1h-1.1a.5.5,0,0,0,0,1h1.1v1.1a.5.5,0,0,0,1,0v-1.1h1.1a.5.5,0,1,0,0-1h-1.1Z" fill="#fff" fill-rule="evenodd"/>
        <path id="Path_2397" data-name="Path 2397" d="M198.9,127.5a.5.5,0,1,0-1,0v1.1h-1.1a.5.5,0,0,0,0,1h1.1v1.1a.5.5,0,0,0,1,0v-1.1H200a.5.5,0,0,0,0-1h-1.1Z" fill="#fff" fill-rule="evenodd"/>
        <path id="Path_2398" data-name="Path 2398" d="M172.5,155a.5.5,0,0,0-1,0v1.1h-1.1a.5.5,0,0,0,0,1h1.1v1.1a.5.5,0,0,0,1,0V157h1.1a.5.5,0,1,0,0-1h-1.1Z" fill="#fff" fill-rule="evenodd"/>
        <path id="Path_2399" data-name="Path 2399" d="M192,143.3a.5.5,0,0,0-1,0v1.1h-1.1a.5.5,0,0,0,0,1H191v1.1a.5.5,0,0,0,1,0v-1.1h1.1a.5.5,0,0,0,0-1H192Z" fill="#fff" fill-rule="evenodd"/>
      </g>
      <g id="Group_157" data-name="Group 157">
        <path id="Path_2400" data-name="Path 2400" d="M446.1,195.9a5.714,5.714,0,1,0-11.4.8c.8,12.1,2.1,25.5,4.1,40.5H335c2.1-14.8,3.7-28.2,5-40.3a5.731,5.731,0,1,0-11.4-1.2c-2.6,23.8-6.5,52.8-12.3,88-4.9,30-11.3,64.4-19.3,104h11.6c7.9-38.8,14.1-72.7,18.9-102.1q3.3-19.65,5.7-36.9h107c1.7,11.5,3.7,23.8,6.1,37,5.4,29.5,12.8,63.3,22.9,102H481c-10.3-39.6-17.9-74.1-23.4-104.1-2.7-14.8-4.9-28.4-6.7-41,0-.3-.1-.6-.1-.8C448.5,224.6,447,209.4,446.1,195.9Z" fill="#3c405f" fill-rule="evenodd"/>
        <g id="Group_156" data-name="Group 156">
          <path id="Path_2401" data-name="Path 2401" d="M209.7,251.7a3,3,0,0,0-6,0V387.6h6.1V347.4h46.4v40.2h6.1V251.7a3,3,0,0,0-6,0v78.6H209.9V251.7Zm46.4,89.6H209.7V334h46.4Z" fill="#0b0c14" fill-rule="evenodd"/>
          <path id="Path_2402" data-name="Path 2402" d="M157.2,251.7a3,3,0,0,0-6,0V387.6h6.1V347.4h46.4v40.2h6.1V251.7a3,3,0,0,0-6,0v78.6H157.4V251.7Zm46.4,89.6H157.2V334h46.4Z" fill="#684935" fill-rule="evenodd"/>
          <path id="Path_2403" data-name="Path 2403" d="M267.8,251.7H149.3a3.8,3.8,0,0,0-3.8,3.8h0a3.8,3.8,0,0,0,3.8,3.8H267.8a3.8,3.8,0,0,0,3.8-3.8h0A3.8,3.8,0,0,0,267.8,251.7Z" fill="#0b0c14" fill-rule="evenodd"/>
          <path id="Path_2404" data-name="Path 2404" d="M272.1,247.9H144.3a3.8,3.8,0,0,0-3.8,3.8h0a3.8,3.8,0,0,0,3.8,3.8H272.1a3.8,3.8,0,0,0,3.8-3.8h0A3.8,3.8,0,0,0,272.1,247.9Z" fill="#b66b41" fill-rule="evenodd"/>
          <path id="Path_2405" data-name="Path 2405" d="M194.6,247.9H144.2a3.8,3.8,0,0,0-3.8,3.8h0a3.8,3.8,0,0,0,3.8,3.8h50.4a3.8,3.8,0,0,0,3.8-3.8h0A3.8,3.8,0,0,0,194.6,247.9Z" fill="#d48750" fill-rule="evenodd"/>
        </g>
        <path id="Path_2406" data-name="Path 2406" d="M268.6,149.1c11,2.7,33.1,7.1,40.2,16.2,4.6,5.9,5.2,13-2.4,13H267.7Z" fill="#d64e47" fill-rule="evenodd"/>
        <path id="Path_2407" data-name="Path 2407" d="M190.7,197.7l-14.9,13s-8.6-23.6-.1-44.3,40.6-22.2,53.9-23.5,30.2,35.5,30.2,35.5Z" fill="#d64e47" fill-rule="evenodd"/>
        <path id="Path_2408" data-name="Path 2408" d="M245.1,214.3s28.2,6.4,31.8,7.2,13.2,10.4,14.9,19.7c1.7,9.2,17.3,126.5,17.3,126.5s-4,7-4.6,7.1c-.5.1-8.2-3.5-8.2-3.5S269.1,271.9,266,263.1s-2.3-15.3-11.9-15.3H225.2l-7.5-25.4,3-2.9c-3.3.2-5.8.2-6.3-.1-1.4-.8-22.8-8.7-22.8-8.7s15.4-4.6,16.7-5.1c1.4-.5,23.5-2.4,23.5-2.4s.1,6.1,1.2,7.4a7.183,7.183,0,0,0,3.4,1.8h0Z" fill="#0b0c14" fill-rule="evenodd"/>
        <path id="Path_2409" data-name="Path 2409" d="M177.5,184.6c-.2,8-.5,16.4-1.8,20.7a16.627,16.627,0,0,1,0,5.4l-.2.6c.2.6.3,1,.3,1,3.5,2.7,7.3,2.8,11.6,4.4v-.6l-.2-.8,12.6,6.1c4.3-.4,31.4-2.2,38.1-8.7-.6-6.4,26.5-24.3,33.9-26Z" fill="#d64e47" fill-rule="evenodd"/>
        <path id="Path_2410" data-name="Path 2410" d="M305.9,369.7a3.465,3.465,0,0,1,4.1-1.9c2.9.8,20.3,10.4,23,11.5,2.7,1.2,5.6,5.7,3.4,8.3H295.1c-2.4-1.5-4.8-6.5-2.3-15.3C295.4,363.5,294.8,372.7,305.9,369.7Z" fill="#ea5857" fill-rule="evenodd"/>
        <path id="Path_2411" data-name="Path 2411" d="M305.9,369.7a3.465,3.465,0,0,1,4.1-1.9c1.8.5,9.2,4.4,15.2,7.6-1.8,1.3-5.5,2.5-6.3,2.3C317.8,377.4,305.9,369.7,305.9,369.7Z" fill="#db4242" fill-rule="evenodd"/>
        <path id="Path_2412" data-name="Path 2412" d="M292.5,387.6h44.6a1.155,1.155,0,0,0,1.2-1.2v-2.2a1.155,1.155,0,0,0-1.2-1.2H292.5a1.155,1.155,0,0,0-1.2,1.2v2.2A1.216,1.216,0,0,0,292.5,387.6Z" fill="#fffaf9" fill-rule="evenodd"/>
        <path id="Path_2413" data-name="Path 2413" d="M184.4,247.8c-16.2,0-16.9-28.3-8.5-37.1a18.816,18.816,0,0,0,10.9,3.3c11-.1,36.8-6.3,44.7,4.2s10.8,28.2,6.2,53.9-15.9,99.6-15.9,99.6l-13-1.1s1.9-104.2,2.1-109.7-2.7-12.9-8.7-12.9C196.2,247.9,184.4,247.8,184.4,247.8Z" fill="#131936" fill-rule="evenodd"/>
        <path id="Path_2414" data-name="Path 2414" d="M219.1,370.5s-4.9-6.1-10.9-1.3a8.672,8.672,0,0,0-4.5,4.4c-1.2,3.1-3.6,4.5-4,7.9s.5,6,4.9,6h7c3.1,0,7.7.5,9.2-3.6,1.6-4.1,0-7.9.5-10S219.1,370.5,219.1,370.5Z" fill="#ea5857" fill-rule="evenodd"/>
        <path id="Path_2415" data-name="Path 2415" d="M219.1,370.5s-4.9-6.1-10.9-1.3c0,0-.6.3-1.4.8a26.4,26.4,0,0,0-.4,6.3c.5,1.5,8.3,1.1,9.4.6.8-.4,2.7-4.4,3.6-6.3A.774.774,0,0,0,219.1,370.5Z" fill="#db4242" fill-rule="evenodd"/>
        <path id="Path_2416" data-name="Path 2416" d="M200.1,387.6h20.4a1.155,1.155,0,0,0,1.2-1.2v-2.2a1.155,1.155,0,0,0-1.2-1.2H200.1a1.155,1.155,0,0,0-1.2,1.2v2.2A1.29,1.29,0,0,0,200.1,387.6Z" fill="#fffaf9" fill-rule="evenodd"/>
        <path id="Path_2417" data-name="Path 2417" d="M254.2,216.4a17.382,17.382,0,0,1-1.3,1.5,22.7,22.7,0,0,0-4.6,7.8c-.1.2,0,.4.3.5.2.1.4,0,.5-.3.1-.4.3-.8.4-1.2a.349.349,0,0,0,.2.1c.2.1.4,0,.5-.3a19.459,19.459,0,0,1,3.4-6.2l1.7-1.7-1.1-.2Zm2.3.5,1.4.3a14.164,14.164,0,0,0-2,2.2,21.457,21.457,0,0,0-3.3,6.2c-.1.2-.2.3-.4.3,0,.1-.1.3-.1.4a.55.55,0,0,1-.5.3.215.215,0,0,1-.2-.2v.1a.412.412,0,1,1-.8-.2,21.136,21.136,0,0,1,5.9-9.4Zm1.7.4,1.4.3a23.056,23.056,0,0,0-5.9,7.6c-.2.4-.3.8-.5,1.3a.215.215,0,0,1-.2.2,6.89,6.89,0,0,0-.3.8.412.412,0,1,1-.8-.2c.3-.8.6-1.6.9-2.3a24.87,24.87,0,0,1,5.4-7.7Zm1.8.4,1.1.2a28.461,28.461,0,0,0-3.3,3.5,18.669,18.669,0,0,0-3,5.8q0,.15-.3.3c0,.1,0,.1-.1.2a.412.412,0,1,1-.8-.2,19.621,19.621,0,0,1,3.5-6.4,16.647,16.647,0,0,1,2.9-3.4Zm2.7.6a23.245,23.245,0,0,0-7.2,10.4c-.1.2,0,.4.3.5.2.1.4,0,.5-.3a22.312,22.312,0,0,1,7-10,23.133,23.133,0,0,0-2.9,3.2,20.332,20.332,0,0,0-3.6,6.7c-.1.2,0,.4.3.5h.1c0,.1-.1.2-.1.3h0c-.1.2,0,.4.3.5a.365.365,0,0,0,.5-.2c0-.1.1-.2.1-.4h0c0-.1.1-.2.1-.3h0c.1-.2.2-.5.3-.7h0c0-.1.1-.2.1-.3h0c0-.1.1-.2.1-.3h0c.1-.1.1-.2.2-.3h0c.1-.1.1-.2.2-.3h0c0-.1.1-.2.1-.3v-.1a.349.349,0,0,1,.1-.2v-.1a.349.349,0,0,1,.1-.2v-.1c0-.1.1-.1.1-.2l.1-.1c0-.1.1-.1.1-.2l.1-.1.1-.2.1-.1.1-.2.1-.1.1-.2.1-.1.1-.1h0a21.728,21.728,0,0,0-2.2,4.6c-.1.2,0,.4.3.5h0a1.854,1.854,0,0,0-.2.7.365.365,0,0,0,.2.5c.2.1.4,0,.5-.3,0-.1,0-.1.1-.2q.15,0,.3-.3l.3-.9a.55.55,0,0,0,.3.5c.2.1.4,0,.5-.3a22.449,22.449,0,0,1,6.7-9.7l.2-.1-1.2-.3c-.1.1-.3.2-.4.4.1-.1.3-.2.4-.4l-3.5-1.1Zm4.6,1.1a23.841,23.841,0,0,0-6.9,10.1c-.1.2,0,.4.3.5.2.1.4,0,.5-.3,0-.1.1-.2.1-.3a.215.215,0,0,0,.2.2c.2.1.4,0,.5-.3a23.23,23.23,0,0,1,6.6-9.7l-1.3-.2Zm1.7.3,3.3.8a22.632,22.632,0,0,0-7.6,10.5.55.55,0,0,1-.5.3.215.215,0,0,1-.2-.2.6.6,0,0,1-.4.1.55.55,0,0,1-.3-.5,21.55,21.55,0,0,1,5.2-8.4,21.2,21.2,0,0,0-5.4,8.6.412.412,0,1,1-.8-.2v-.1a.187.187,0,0,1-.3,0,.365.365,0,0,1-.2-.5,23.835,23.835,0,0,1,7.2-10.4Zm3.5.8,1,.2a22.594,22.594,0,0,0-8,10.8.412.412,0,1,1-.8-.2A25.125,25.125,0,0,1,272.5,220.5Z" fill="#3c405f" fill-rule="evenodd"/>
        <path id="Path_2418" data-name="Path 2418" d="M233,299.7a16.958,16.958,0,0,0-3.5-.6,22.516,22.516,0,0,0-9.5.5.664.664,0,0,0-.4.5c0,.2.2.4.4.3.5-.1.9-.2,1.3-.3,0,.1-.1.1,0,.2,0,.2.2.4.4.3a22.562,22.562,0,0,1,7.5-.7,23.568,23.568,0,0,1,3.6.9l.2-1.1Zm-.4,2.4-.2,1.4a16.658,16.658,0,0,0-3.5-.7,22.561,22.561,0,0,0-7.5.7c-.2.1-.4,0-.4-.2-.1,0-.3.1-.4.1-.2.1-.4-.1-.4-.3a.367.367,0,0,1,.1-.3h-.1c-.2.1-.4-.1-.4-.3s.2-.5.4-.5a22.18,22.18,0,0,1,12.4.1Zm-.2,1.7a21.718,21.718,0,0,0-10-.3,13.777,13.777,0,0,0-2.6.6.664.664,0,0,0-.4.5c0,.2.2.4.4.3.3-.1.6-.1.9-.2h.3c.5-.1,1-.2,1.4-.3a22.255,22.255,0,0,1,9.8.8l.2-1.4Zm-.3,1.8-.2,1a17.333,17.333,0,0,0-4.3-.8,24.849,24.849,0,0,0-6.9.7.6.6,0,0,1-.4-.1c-.1,0-.1,0-.2.1-.2.1-.4-.1-.4-.3s.2-.5.4-.5a21.422,21.422,0,0,1,7.7-.7,26.215,26.215,0,0,1,4.3.6Zm-.5,2.6-.1.9a20.928,20.928,0,0,0-12.1-.2c-.2.1-.4-.1-.4-.3s.2-.5.4-.5a23.416,23.416,0,0,1,12.2.1Zm-.1,1a19.076,19.076,0,0,0-3.7-.6,23.04,23.04,0,0,0-8,.7.664.664,0,0,0-.4.5v.1h0c-.1,0-.2.1-.3.1h0a.664.664,0,0,0-.4.5c0,.2.2.4.4.3.1,0,.3-.1.4-.1h0c.1,0,.3-.1.4-.1h0c.3-.1.5-.1.8-.2h0a.6.6,0,0,0,.4-.1h0a.6.6,0,0,0,.4-.1h0a.6.6,0,0,0,.4-.1h3.6a21.406,21.406,0,0,0-5.4.8.664.664,0,0,0-.4.5h0c-.3.1-.5.1-.8.2a.664.664,0,0,0-.4.5c0,.2.2.4.4.3.1,0,.1,0,.2-.1.1.1.2.1.4.1.4-.1.7-.2,1.1-.3a.664.664,0,0,0-.4.5c0,.2.2.4.4.3a21.415,21.415,0,0,1,10.3-.3l.6-3.4Zm-.6,3.7-.2,1.4a21.749,21.749,0,0,0-9.7.4c-.2.1-.4-.1-.4-.3,0-.1.1-.3.1-.4-.1,0-.2.1-.3.1-.2.1-.4-.1-.4-.3s.2-.5.4-.5a21.173,21.173,0,0,1,10.5-.4Zm-.3,1.7a21.59,21.59,0,0,0-10.3.4.664.664,0,0,0-.4.5c0,.1.1.2.1.3h-.1a.664.664,0,0,0-.4.5c0,.2.2.4.4.3a20.467,20.467,0,0,1,10.4-.2l.3-1.8Zm-.2,1.8-.2,1.5a20.794,20.794,0,0,0-9.8.4c-.2.1-.4-.1-.4-.3a.367.367,0,0,1,.1-.3c-.1,0-.2-.2-.2-.3,0-.2.2-.5.4-.5a19.7,19.7,0,0,1,10.1-.5Zm-.3,1.7a22.057,22.057,0,0,0-10.1.4.664.664,0,0,0-.4.5c0,.2.2.4.4.3a22.663,22.663,0,0,1,9.9-.4Z" fill="#3c405f" fill-rule="evenodd"/>
        <path id="Path_2419" data-name="Path 2419" d="M292.9,248.7a23.622,23.622,0,0,0-5.5-.2,21.927,21.927,0,0,0-9.3,2.2c-.2.1-.4.4-.3.6,0,.2.3.3.5.2.4-.2.8-.4,1.3-.6v.2c0,.2.3.3.5.2a22.464,22.464,0,0,1,7.2-2,23.088,23.088,0,0,1,5.8.7l-.2-1.3Zm.4,2.7.2,1.4a19.194,19.194,0,0,0-5.9-.5,21.8,21.8,0,0,0-7.2,2c-.2.1-.4,0-.4-.1-.1.1-.3.1-.4.2a.365.365,0,0,1-.5-.2v-.3H279a.365.365,0,0,1-.5-.2.713.713,0,0,1,.3-.6,20.931,20.931,0,0,1,14.5-1.7Zm.2,1.6a22.444,22.444,0,0,0-12.3,1.2c-.8.3-1.6.6-2.5,1-.2.1-.4.4-.3.6,0,.2.3.3.5.2a2.994,2.994,0,0,0,.8-.4h.3c.5-.2.9-.4,1.4-.6a21.209,21.209,0,0,1,12.5-.4l-.4-1.6Zm.3,1.8a22.057,22.057,0,0,0-7-.2,21.341,21.341,0,0,0-7.5,2.1c-.2.1-.4.4-.3.6,0,.2.3.3.5.2.1,0,.1-.1.2-.1.1.1.2.1.4,0a24.418,24.418,0,0,1,6.6-2,23.354,23.354,0,0,1,7.2.5l-.1-1.1Zm.4,2.9.3,2a10.371,10.371,0,0,0-1.2-.3h1l.2,1.4c-.6-.1-1.3-.3-2.1-.4.8.1,1.5.3,2.1.4l.4,2.5a21.369,21.369,0,0,0-13.1,1.8.365.365,0,0,1-.5-.2.6.6,0,0,1,.1-.4c-.1,0-.2.1-.3.1a.365.365,0,0,1-.5-.2.713.713,0,0,1,.3-.6,22.131,22.131,0,0,1,13.1-1.9c-.2-.1-.5-.1-.8-.2a21.572,21.572,0,0,0-12,1.9.365.365,0,0,1-.5-.2.713.713,0,0,1,.3-.6c-.3.1-.7.3-1,.4-.1.1-.3,0-.4,0s-.1.1-.2.1a.365.365,0,0,1-.5-.2.713.713,0,0,1,.3-.6c.2-.1.5-.2.7-.3h0a.713.713,0,0,1,.3-.6,24.814,24.814,0,0,1,5.2-1.8h-1.3c-.1,0-.2,0-.2.1h-.1a.367.367,0,0,0-.3.1h-.1a.367.367,0,0,0-.3.1H283c-.1,0-.2.1-.3.1h-.1c-.1,0-.2.1-.3.1h0c-.1,0-.2.1-.4.1h0c-.1,0-.2.1-.4.1h0c-.1,0-.2.1-.4.1h0c-.1,0-.3.1-.4.1h0c-.3.1-.5.2-.8.3h0c-.1.1-.2.1-.4.2h0c-.1.1-.3.1-.4.2a.365.365,0,0,1-.5-.2c-.1-.2.1-.5.3-.6h0c.1,0,.2-.1.3-.1h0v-.1a.713.713,0,0,1,.3-.6,22.792,22.792,0,0,1,7.8-2.1,20.5,20.5,0,0,1,4.3,0,21.73,21.73,0,0,0-12.5,1.9.365.365,0,0,1-.5-.2.713.713,0,0,1,.3-.6,24.087,24.087,0,0,1,15.3-1.1Zm.9,6.2a22.1,22.1,0,0,0-13.8,1.8c-.2.1-.4.4-.3.6a.215.215,0,0,0,.2.2l-.1.1c-.2.1-.4.4-.3.6,0,.2.3.3.5.2a21.632,21.632,0,0,1,10.4-2.1,21.766,21.766,0,0,0-10.1,2.2c-.2.1-.4.4-.3.6a.265.265,0,0,0,.3.3c0,.1-.1.2,0,.3,0,.2.3.3.5.2a21.548,21.548,0,0,1,13.7-1.6l-.7-3.4Zm.5,3.6.1,1a21.84,21.84,0,0,0-14,1.6.365.365,0,0,1-.5-.2.713.713,0,0,1,.3-.6A22.375,22.375,0,0,1,295.6,267.5Z" fill="#3c405f" fill-rule="evenodd"/>
        <path id="Path_2420" data-name="Path 2420" d="M208.1,195.9a5.651,5.651,0,0,0-6.1-5.3,5.718,5.718,0,0,0-5.3,6.1c.8,12.1,2.1,25.5,4.1,40.5H97c2.1-14.8,3.7-28.2,5-40.3a5.731,5.731,0,1,0-11.4-1.2c-2.6,23.8-6.5,52.8-12.3,88-4.9,30-11.3,64.4-19.3,104H70.6c7.9-38.8,14.1-72.7,18.9-102.1q3.3-19.65,5.7-36.9h107c1.7,11.5,3.7,23.8,6.1,37,5.4,29.5,12.8,63.3,22.9,102H243c-10.3-39.6-17.9-74.1-23.4-104.1-2.7-14.8-4.9-28.4-6.7-41,0-.3-.1-.6-.1-.8C210.6,224.6,209,209.4,208.1,195.9Z" fill="#3c405f" fill-rule="evenodd"/>
        <path id="Path_2421" data-name="Path 2421" d="M453.1,182.6H192.8a5.549,5.549,0,0,0-5.5,5.5v12.4a5.549,5.549,0,0,0,5.5,5.5H453.1a5.549,5.549,0,0,0,5.5-5.5V188.1A5.549,5.549,0,0,0,453.1,182.6Z" fill="#b66b41" fill-rule="evenodd"/>
        <path id="Path_2422" data-name="Path 2422" d="M453.1,182.6H135.4a5.549,5.549,0,0,0-5.5,5.5v7.3H458.7v-7.3A5.7,5.7,0,0,0,453.1,182.6Z" fill="#0b0c14" fill-rule="evenodd"/>
        <path id="Path_2423" data-name="Path 2423" d="M458.6,178.4H187.3a6.018,6.018,0,0,0-6,6h0a6.018,6.018,0,0,0,6,6H458.5a6.018,6.018,0,0,0,6-6h0A5.811,5.811,0,0,0,458.6,178.4Z" fill="#b66b41" fill-rule="evenodd"/>
        <path id="Path_2424" data-name="Path 2424" d="M209.7,182.6H90.3a5.549,5.549,0,0,0-5.5,5.5v12.4a5.549,5.549,0,0,0,5.5,5.5H209.7a5.549,5.549,0,0,0,5.5-5.5V188.1A5.549,5.549,0,0,0,209.7,182.6Z" fill="#d48750" fill-rule="evenodd"/>
        <path id="Path_2425" data-name="Path 2425" d="M207.1,182.6H93c-4.5,0-8.1,2.5-8.1,5.5v7.3H215.3v-7.3C215.2,185.1,211.5,182.6,207.1,182.6Z" fill="#3c405f" fill-rule="evenodd"/>
        <path id="Path_2426" data-name="Path 2426" d="M215.2,178.4H81.5a6.018,6.018,0,0,0-6,6h0a6.018,6.018,0,0,0,6,6H215.2a6.018,6.018,0,0,0,6-6h0A5.954,5.954,0,0,0,215.2,178.4Z" fill="#d48750" fill-rule="evenodd"/>
        <path id="Path_2427" data-name="Path 2427" d="M279.3,178.4s-5.8-6.6-4.4-14.3c1.4-7.8,1.6-22.7-6.6-26.9s-18.2-3.7-22.6,2.4c0,0-2.3-3.3-4.9-3.2s-.4,4.3.2,4.8c-26.8-8.3-2.9,31.8-21.9,37.3h60.2Z" fill="#101326" fill-rule="evenodd"/>
        <path id="Path_2428" data-name="Path 2428" d="M279.3,178.4s-5.8-6.6-4.4-14.3a29.382,29.382,0,0,0,.5-3.5c-8.9,3.2-29.6,9.2-39.1-.4a30.078,30.078,0,0,1-8.4-15.1c-2.5,8.2,2.5,24.3-4.4,30.9q3.3.9,7.5,2.4h48.3Z" fill="#0b0c14" fill-rule="evenodd"/>
        <path id="Path_2429" data-name="Path 2429" d="M307.8,178.4c5.4-4.2,2.2-18.3-10.8-14.4-9.3,2.7-25.1,8.2-27,8.7-2.7.6-8.6,0-10.1,0a5.8,5.8,0,0,0-5.4,5.8h53.3Z" fill="#f4ac83" fill-rule="evenodd"/>
        <path id="Path_2430" data-name="Path 2430" d="M181.2,178.4a6.914,6.914,0,0,1-3.5-6.8c.4-4.9,6.3-9.7,10.7-10.2s52.2,10.2,56.7,10.8,14.5,0,17.1,0c2.5,0,9,1.6,9,6.1h-90Z" fill="#f4ac83" fill-rule="evenodd"/>
      </g>
      <g id="Group_158" data-name="Group 158" transform="translate(-16)">
        <path id="Path_2431" data-name="Path 2431" d="M314.4,140s-.7-2.6-2.9-2.7-3,2.6-2.4,2.9C309.8,140.6,314.4,140,314.4,140Z" fill="#f2d8cc" fill-rule="evenodd"/>
        <path id="Path_2432" data-name="Path 2432" d="M312.5,144.6l.6-.1h0l2-.4c-2.4,6.6-9.1,5.6-6.5.6l3.3-.7v.3c0,.2.2.4.4.3Z" fill="#f2d8cc" fill-rule="evenodd"/>
        <path id="Path_2433" data-name="Path 2433" d="M415.8,81.6H321.6a6.164,6.164,0,0,0-5.7,4.7l-13.3,63.8a3.707,3.707,0,0,0,3.7,4.7h94.2a6.164,6.164,0,0,0,5.7-4.7l13.3-63.8A3.7,3.7,0,0,0,415.8,81.6Z" fill="#1c7255" fill-rule="evenodd"/>
        <path id="Path_2434" data-name="Path 2434" d="M415.8,81.6H324.7a6.164,6.164,0,0,0-5.7,4.7l-13.3,63.8a3.707,3.707,0,0,0,3.7,4.7h91.1a6.164,6.164,0,0,0,5.7-4.7l13.3-63.8A3.7,3.7,0,0,0,415.8,81.6Z" fill="#dcdcef" fill-rule="evenodd"/>
        <path id="Path_2435" data-name="Path 2435" d="M340.8,154.8h23.1a9.767,9.767,0,0,0,.7-1.7c0-.9-5.3-16.8-13-19.3l-4.5-.1Z" fill="#b6b7d3" fill-rule="evenodd"/>
        <path id="Path_2436" data-name="Path 2436" d="M407.1,126.1H315.6a2.343,2.343,0,0,0-2.2,1.8h0a1.4,1.4,0,0,0,1.4,1.8h91.5a2.343,2.343,0,0,0,2.2-1.8h0A1.364,1.364,0,0,0,407.1,126.1Z" fill="#d1d0e6" fill-rule="evenodd"/>
        <path id="Path_2437" data-name="Path 2437" d="M405,131.6H315.6a3.616,3.616,0,0,0-3.4,2.9l-3.1,14.9a2.3,2.3,0,0,0,2.3,2.9h89.4a3.616,3.616,0,0,0,3.4-2.9l3.1-14.9A2.4,2.4,0,0,0,405,131.6Z" fill="#d1d0e6" fill-rule="evenodd"/>
        <path id="Path_2438" data-name="Path 2438" d="M341.6,152.2h22.7c-1.1-3.6-6-16.2-12.8-18.4l-4.5-.1Z" fill="#b6b7d3" fill-rule="evenodd"/>
        <path id="Path_2439" data-name="Path 2439" d="M404.2,96.5H388.7a2.248,2.248,0,0,0-2.1,1.7l-4.7,22.5a1.328,1.328,0,0,0,1.4,1.7h15.5a2.248,2.248,0,0,0,2.1-1.7l4.7-22.5A1.36,1.36,0,0,0,404.2,96.5Z" fill="#b6b7d3" fill-rule="evenodd"/>
        <path id="Path_2440" data-name="Path 2440" d="M406.3,96.5H390.8a2.248,2.248,0,0,0-2.1,1.7L384,120.7a1.328,1.328,0,0,0,1.4,1.7h15.5a2.248,2.248,0,0,0,2.1-1.7l4.7-22.5A1.36,1.36,0,0,0,406.3,96.5Z" fill="#d1d0e6" fill-rule="evenodd"/>
        <path id="Path_2441" data-name="Path 2441" d="M402.3,109.5h0a1.172,1.172,0,0,0-1.1.9l-1.6,7.8a.7.7,0,0,0,.7.9h0a1.172,1.172,0,0,0,1.1-.9l1.6-7.8C403.2,109.9,402.9,109.5,402.3,109.5Z" fill="#b6b7d3" fill-rule="evenodd"/>
        <path id="Path_2442" data-name="Path 2442" d="M398,109.5h0a1.172,1.172,0,0,0-1.1.9l-1.6,7.8a.7.7,0,0,0,.7.9h0a1.172,1.172,0,0,0,1.1-.9l1.6-7.8A.7.7,0,0,0,398,109.5Z" fill="#b6b7d3" fill-rule="evenodd"/>
        <path id="Path_2443" data-name="Path 2443" d="M393.6,109.5h0a1.172,1.172,0,0,0-1.1.9l-1.6,7.8a.7.7,0,0,0,.7.9h0a1.172,1.172,0,0,0,1.1-.9l1.6-7.8A.7.7,0,0,0,393.6,109.5Z" fill="#b6b7d3" fill-rule="evenodd"/>
        <path id="Path_2444" data-name="Path 2444" d="M389.2,109.5h0a1.172,1.172,0,0,0-1.1.9l-1.6,7.8a.7.7,0,0,0,.7.9h0a1.172,1.172,0,0,0,1.1-.9l1.6-7.8A.7.7,0,0,0,389.2,109.5Z" fill="#b6b7d3" fill-rule="evenodd"/>
        <path id="Path_2445" data-name="Path 2445" d="M415.2,87.3H323.7a2.343,2.343,0,0,0-2.2,1.8h0a1.4,1.4,0,0,0,1.4,1.8h91.5a2.343,2.343,0,0,0,2.2-1.8h0A1.364,1.364,0,0,0,415.2,87.3Z" fill="#d1d0e6" fill-rule="evenodd"/>
        <path id="Path_2446" data-name="Path 2446" d="M404.1,133.3H315.7a.961.961,0,0,0-.9.7h0a.563.563,0,0,0,.6.7h88.4a.961.961,0,0,0,.9-.7h0c0-.4-.2-.7-.6-.7Zm-3.2,15.2H312.5a.961.961,0,0,0-.9.7h0a.563.563,0,0,0,.6.7h88.4a.961.961,0,0,0,.9-.7h0a.563.563,0,0,0-.6-.7Zm.7-3H313.2a.961.961,0,0,0-.9.7h0a.563.563,0,0,0,.6.7h88.4a.961.961,0,0,0,.9-.7h0c0-.4-.2-.7-.6-.7Zm.6-3.1H313.8a.961.961,0,0,0-.9.7h0a.563.563,0,0,0,.6.7h88.4a.961.961,0,0,0,.9-.7h0c0-.4-.2-.7-.6-.7Zm.6-3H314.4a.961.961,0,0,0-.9.7h0a.563.563,0,0,0,.6.7h88.4a.961.961,0,0,0,.9-.7h0a.563.563,0,0,0-.6-.7Zm.7-3.1H315.1a.961.961,0,0,0-.9.7h0a.563.563,0,0,0,.6.7h88.4a.961.961,0,0,0,.9-.7h0C404.1,136.6,403.9,136.3,403.5,136.3Z" fill="#b6b7d3" fill-rule="evenodd"/>
        <path id="Path_2447" data-name="Path 2447" d="M346.8,134.7h6.6a7.573,7.573,0,0,0-1.8-.9l-4.5-.1-.3,1Zm-.5,1.6-.4,1.4h10.9a17.877,17.877,0,0,0-1.3-1.4Zm-.9,3.1-.4,1.4h14.1a7.1,7.1,0,0,0-1-1.4Zm-.9,3-.4,1.4h16.8a6.377,6.377,0,0,0-.8-1.4Zm-.9,3.1-.4,1.4h19.1a9.143,9.143,0,0,0-.7-1.4Zm-.9,3-.4,1.4h21.3c-.2-.4-.4-.9-.6-1.4Z" fill="#9395bc" fill-rule="evenodd"/>
        <path id="Path_2448" data-name="Path 2448" d="M326.8,107.9h-1.6a1.384,1.384,0,0,0-1.3,1.1l-1,4.7a.89.89,0,0,0,.8,1.1h1.6a1.384,1.384,0,0,0,1.3-1.1l1-4.7C327.7,108.3,327.4,107.9,326.8,107.9Z" fill="#b6b7d3" fill-rule="evenodd"/>
        <path id="Path_2449" data-name="Path 2449" d="M329.6,97.9h-3a2.556,2.556,0,0,0-2.4,2l-1.8,8.7a1.6,1.6,0,0,0,1.6,2h3a2.556,2.556,0,0,0,2.4-2l1.8-8.7A1.6,1.6,0,0,0,329.6,97.9Z" fill="#d1d0e6" fill-rule="evenodd"/>
        <path id="Path_2450" data-name="Path 2450" d="M380.4,94.8H340.3a2.019,2.019,0,0,0-1.8,1.5l-5,24.1a1.2,1.2,0,0,0,1.2,1.5h40.1a2.019,2.019,0,0,0,1.8-1.5l5-24.1A1.248,1.248,0,0,0,380.4,94.8Z" fill="#d1d0e6" fill-rule="evenodd"/>
        <path id="Path_2451" data-name="Path 2451" d="M377.5,98.3H356a1.188,1.188,0,0,0-1,.8h0a.641.641,0,0,0,.6.8h21.5a1.188,1.188,0,0,0,1-.8h0A.606.606,0,0,0,377.5,98.3Z" fill="#fff" fill-rule="evenodd"/>
        <path id="Path_2452" data-name="Path 2452" d="M376.7,102.2h-34a1.188,1.188,0,0,0-1,.8h0a.641.641,0,0,0,.6.8h34a1.188,1.188,0,0,0,1-.8h0A.641.641,0,0,0,376.7,102.2Z" fill="#b6b7d3" fill-rule="evenodd"/>
        <path id="Path_2453" data-name="Path 2453" d="M375.8,106.3h-34a1.188,1.188,0,0,0-1,.8h0a.641.641,0,0,0,.6.8h34a1.188,1.188,0,0,0,1-.8h0C376.5,106.6,376.3,106.3,375.8,106.3Z" fill="#b6b7d3" fill-rule="evenodd"/>
        <path id="Path_2454" data-name="Path 2454" d="M375,110.3H341a1.188,1.188,0,0,0-1,.8h0a.641.641,0,0,0,.6.8h34a1.188,1.188,0,0,0,1-.8h0A.641.641,0,0,0,375,110.3Z" fill="#b6b7d3" fill-rule="evenodd"/>
        <path id="Path_2455" data-name="Path 2455" d="M374.1,114.3h-34a1.188,1.188,0,0,0-1,.8h0a.641.641,0,0,0,.6.8h34a1.188,1.188,0,0,0,1-.8h0C374.9,114.7,374.6,114.3,374.1,114.3Z" fill="#b6b7d3" fill-rule="evenodd"/>
        <path id="Path_2456" data-name="Path 2456" d="M373.3,118.4h-34a1.188,1.188,0,0,0-1,.8h0a.641.641,0,0,0,.6.8h34a1.188,1.188,0,0,0,1-.8h0A.606.606,0,0,0,373.3,118.4Z" fill="#b6b7d3" fill-rule="evenodd"/>
        <path id="Path_2457" data-name="Path 2457" d="M343.5,98.3H352a.641.641,0,0,1,.6.8h0a1.077,1.077,0,0,1-1,.8h-8.5a.641.641,0,0,1-.6-.8h0A1.053,1.053,0,0,1,343.5,98.3Z" fill="#b6b7d3" fill-rule="evenodd"/>
        <path id="Path_2458" data-name="Path 2458" d="M350.5,134.3c-.7,0-1.9.2-1.9-.6a1.324,1.324,0,0,1,1.3-1.3h26.7a5.257,5.257,0,0,1,5.5,5.3c.1,1.7.8,7.1,1.7,13,.8,5.7,1.7,12.1,2.3,15.6.1,1,.2,2,.2,3a11.566,11.566,0,0,1-1.3,5.6,6.783,6.783,0,0,1-5.1,3.3,8.083,8.083,0,0,1-1.6.1H349.7a1.324,1.324,0,0,1-1.3-1.3c0-.7,1.2-.4,2-.4l4.8-.9a4.869,4.869,0,0,0,1.2-.1,4.13,4.13,0,0,0,3.2-2,7.914,7.914,0,0,0,.9-4.2,22.751,22.751,0,0,0-.2-2.6c-.5-3.4-1.7-9.6-2.6-15.7-.8-5.9-1.6-11.4-1.7-13.2a2.654,2.654,0,0,0-2.8-2.8h-.1Z" fill="#a6c86b" fill-rule="evenodd"/>
        <path id="Path_2459" data-name="Path 2459" d="M348.4,135.1a1.3,1.3,0,0,1,0-2.6h2.7a5.257,5.257,0,0,1,5.5,5.3c.1,1.7.8,7.1,1.7,13,.8,5.7,1.7,12.1,2.3,15.6.1,1,.2,2,.2,3a11.566,11.566,0,0,1-1.3,5.6,6.783,6.783,0,0,1-5.1,3.3,8.083,8.083,0,0,1-1.6.1h-7.3a1.3,1.3,0,0,1,0-2.6h7.3a4.869,4.869,0,0,0,1.2-.1,4.13,4.13,0,0,0,3.2-2,7.914,7.914,0,0,0,.9-4.2,22.751,22.751,0,0,0-.2-2.6c-.5-3.4-1.4-9.6-2.3-15.7-.8-5.9-1.6-11.4-1.7-13.2a2.654,2.654,0,0,0-2.8-2.8h-2.7Z" fill="#fff" fill-rule="evenodd"/>
      </g>
      <path id="Path_2476" data-name="Path 2476" d="M131.8,33Zm3.3-12.4a6.28,6.28,0,0,1,4.4-1.8,6.713,6.713,0,0,1,4.5,1.8,6.28,6.28,0,0,1,1.8,4.4,6.713,6.713,0,0,1-1.8,4.5,6.294,6.294,0,0,1-8.9-8.9Zm1.4-6.3a18.612,18.612,0,0,0-2.5,1,17.683,17.683,0,0,0-2.2,1.6.749.749,0,0,1-.5.1l-2.9-1.7h0a1.087,1.087,0,0,0-.5-.1c-.2,0-.3.2-.4.3h0l-2.1,3.6a1.087,1.087,0,0,0-.1.5c0,.2.2.3.3.4h0l2.9,1.7a.4.4,0,0,1,.2.4h0a5.852,5.852,0,0,0-.2,1.3,6.149,6.149,0,0,0-.1,1.4,6.6,6.6,0,0,0,.1,1.4c.1.5.1.9.2,1.3,0,.2,0,.4-.2.4l-2.9,1.7h0a.536.536,0,0,0-.3.4,1.268,1.268,0,0,0,.1.6l2.1,3.6h0a.536.536,0,0,0,.4.3.749.749,0,0,0,.5-.1h0l2.9-1.7c.2-.1.3-.1.5.1a8.88,8.88,0,0,0,2.2,1.6,18.887,18.887,0,0,0,2.5,1.1c.2,0,.3.2.3.4v3.4a.684.684,0,0,0,.7.7h4.1a.684.684,0,0,0,.7-.7V35.9c0-.2.1-.3.3-.4a11.176,11.176,0,0,0,2.5-1.1,17.683,17.683,0,0,0,2.2-1.6.446.446,0,0,1,.5,0l2.9,1.7a1.268,1.268,0,0,0,.6.1c.2,0,.3-.2.4-.3h0l2.1-3.6h0a1.087,1.087,0,0,0,.1-.5c0-.2-.2-.3-.3-.4l-2.9-1.7a.4.4,0,0,1-.2-.4h0a5.852,5.852,0,0,0,.2-1.3,6.149,6.149,0,0,0,.1-1.4,6.6,6.6,0,0,0-.1-1.4c-.1-.5-.1-.9-.2-1.3,0-.2,0-.4.2-.4l2.9-1.7a.536.536,0,0,0,.3-.4.749.749,0,0,0-.1-.5h0l-2.1-3.6h0a.536.536,0,0,0-.4-.3,1.268,1.268,0,0,0-.6.1h0l-2.9,1.7c-.2.1-.3.1-.5-.1a8.88,8.88,0,0,0-2.2-1.6,18.888,18.888,0,0,0-2.5-1.1c-.2,0-.3-.2-.3-.4V10.6a.684.684,0,0,0-.7-.7h-4.1a.684.684,0,0,0-.7.7V14A.451.451,0,0,1,136.5,14.3Z" fill="#c0cde9" fill-rule="evenodd"/>
      <path id="Path_2479" data-name="Path 2479" d="M623.377,251.969A30.371,30.371,0,0,1,633.833,245a33.173,33.173,0,0,1,12.417-2.4,34.034,34.034,0,0,1,12.417,2.4,35.123,35.123,0,0,1,10.456,6.971,30.372,30.372,0,0,1,6.971,10.456,33.369,33.369,0,0,1,0,24.833,35.125,35.125,0,0,1-6.971,10.456,30.371,30.371,0,0,1-10.456,6.971,33.173,33.173,0,0,1-12.417,2.4,34.036,34.036,0,0,1-12.417-2.4,35.122,35.122,0,0,1-10.456-6.971,30.371,30.371,0,0,1-6.971-10.456,33.174,33.174,0,0,1-2.4-12.417,34.039,34.039,0,0,1,2.4-12.417,38.142,38.142,0,0,1,6.971-10.456Zm11.763-4.357a34.85,34.85,0,0,0-9.585,6.317,29.38,29.38,0,0,0-6.317,9.585,27.33,27.33,0,0,0-2.178,11.11,30.58,30.58,0,0,0,2.178,11.11,34.846,34.846,0,0,0,6.317,9.585,29.382,29.382,0,0,0,9.585,6.317,27.33,27.33,0,0,0,11.109,2.178,30.579,30.579,0,0,0,11.109-2.178,34.851,34.851,0,0,0,9.585-6.317,29.385,29.385,0,0,0,6.317-9.585,27.33,27.33,0,0,0,2.178-11.11,30.582,30.582,0,0,0-2.178-11.11,34.851,34.851,0,0,0-6.317-9.585,29.384,29.384,0,0,0-9.585-6.317,27.331,27.331,0,0,0-11.109-2.178,30.579,30.579,0,0,0-11.109,2.178Zm-3.7-23.744c-1.961.654-3.921,1.307-5.881,2.178a45.777,45.777,0,0,0-5.664,2.832,46.349,46.349,0,0,0-5.446,3.485c-1.743,1.307-3.268,2.614-5.01,4.139a3.6,3.6,0,0,1-4.139.436c-4.792-2.832-9.8-5.446-14.377-8.278a.8.8,0,0,0-.653-.218h-.871c-.218,0-.436.218-.653.436s-.436.436-.436.654c-3.485,5.228-6.971,11.981-10.238,17.645a.8.8,0,0,0-.218.654v.871c0,.218.218.436.436.654s.436.436.653.436c4.357,2.832,9.8,5.664,14.377,8.278a5.09,5.09,0,0,1,1.525,1.525c0,.218.218.436.218.654h.218l-.436,1.307c-.218,1.089-.436,2.178-.653,3.05a16.811,16.811,0,0,0-.436,3.268,16.491,16.491,0,0,0-.218,3.267v6.535c0,1.089.218,2.178.218,3.268.218,1.089.218,2.178.436,3.268s.436,2.178.653,3.05a3.584,3.584,0,0,1-.218,2.178,2.631,2.631,0,0,1-1.525,1.525l-12.634,7.406h0l-1.525.871c-.218.218-.436.218-.654.436s-.218.436-.436.654v.871c0,.218.218.436.218.654l9.367,16.338h0l.654,1.307c.218.218.218.436.436.654s.436.218.653.436h.871c.218,0,.436-.218.653-.218,4.574-2.832,9.585-5.664,14.377-8.278a3.582,3.582,0,0,1,2.178-.436,3.914,3.914,0,0,1,1.961.871h0a58.009,58.009,0,0,0,16.12,10.456,50.256,50.256,0,0,0,6.1,2.178,3.388,3.388,0,0,1,1.743,1.307,3.514,3.514,0,0,1,.653,1.961v16.555a1.647,1.647,0,0,0,.218.871c0,.218.218.436.436.653s.436.436.654.436.436.218.871.218H656.27a1.647,1.647,0,0,0,.871-.218c.218,0,.436-.218.654-.436s.436-.436.436-.653.218-.436.218-.871V328.429a3.68,3.68,0,0,1,.653-2.178,3.173,3.173,0,0,1,1.961-1.307c1.961-.654,3.921-1.307,5.882-2.178a45.767,45.767,0,0,0,5.664-2.832,53.54,53.54,0,0,0,10.456-7.624,2.661,2.661,0,0,1,1.961-.871,4.2,4.2,0,0,1,2.178.654l14.159,8.06a.8.8,0,0,0,.653.218h.871c.218,0,.436-.218.653-.436s.436-.436.436-.654c3.268-5.881,6.753-11.763,10.02-17.645a.8.8,0,0,0,.218-.654v-.871c0-.218-.218-.436-.436-.654s-.436-.436-.654-.436l-14.377-8.278a5.09,5.09,0,0,1-1.525-1.525c0-.218-.218-.436-.218-.654h-.436l.436-1.525c.218-1.089.436-2.178.653-3.05a16.811,16.811,0,0,0,.436-3.268,16.492,16.492,0,0,0,.218-3.268v-6.535c0-1.089-.218-2.178-.218-3.268-.218-1.089-.218-2.178-.436-3.268s-.436-2.178-.653-3.05a3.584,3.584,0,0,1,.218-2.178,2.631,2.631,0,0,1,1.525-1.525l14.159-8.278c.218-.218.436-.218.654-.436s.218-.436.436-.654v-.871c0-.218-.218-.436-.218-.654-3.485-5.228-6.971-11.981-10.02-17.645-.218-.218-.218-.436-.436-.654s-.436-.218-.653-.436H701.8c-.218,0-.436.218-.653.218L686.766,236.5a3.6,3.6,0,0,1-4.139-.436c-1.525-1.525-3.268-2.832-4.792-4.139a46.361,46.361,0,0,0-5.446-3.485,45.788,45.788,0,0,0-5.664-2.832,50.272,50.272,0,0,0-6.1-2.178,3.388,3.388,0,0,1-1.743-1.307,3.514,3.514,0,0,1-.653-1.961V203.61a1.647,1.647,0,0,0-.218-.871c0-.218-.218-.436-.436-.654s-.436-.436-.654-.436-.436-.218-.871-.218H636.229a1.647,1.647,0,0,0-.871.218c-.218,0-.436.218-.653.436a1.977,1.977,0,0,0-.654,1.525v16.555a3.68,3.68,0,0,1-.653,2.178,2.325,2.325,0,0,1-1.961,1.525Zm-7.188-.654a53.078,53.078,0,0,0-6.1,3.05,50.672,50.672,0,0,0-5.664,3.7c-1.743,1.307-3.485,2.832-5.228,4.357h-.436c-4.792-2.832-9.585-5.446-14.377-8.278-.653-.218-1.089-.436-1.743-.654a6.032,6.032,0,0,0-1.961.218,4.379,4.379,0,0,0-1.743.871,9.461,9.461,0,0,0-1.307,1.525c-3.485,5.664-6.753,11.763-10.238,17.645a6.921,6.921,0,0,0-.653,1.96,6.032,6.032,0,0,0,.218,1.961,4.376,4.376,0,0,0,.871,1.743,9.478,9.478,0,0,0,1.525,1.307c4.574,2.832,9.585,5.446,14.377,8.278a.213.213,0,0,1,.218.218v.218l-.436,1.307h0c-.218.654-.218,1.307-.436,1.961a16.82,16.82,0,0,0-.436,3.268,17.612,17.612,0,0,0-.218,3.485v6.971c0,1.089.218,2.4.218,3.485.218,1.089.218,2.178.436,3.268l.654,3.268v.218a.213.213,0,0,1-.218.218c-5.228,2.832-10.674,6.1-15.684,9.149l.218.218-.218.218a4.378,4.378,0,0,0-.871,1.743,6.032,6.032,0,0,0-.218,1.961,3.513,3.513,0,0,0,.653,1.961l10.892,18.952.218-.218a.76.76,0,0,0,.436.218,4.38,4.38,0,0,0,1.743.871,6.029,6.029,0,0,0,1.961.218,2.474,2.474,0,0,0,1.743-.654c4.792-2.614,9.585-5.664,14.377-8.278h.436a58.718,58.718,0,0,0,10.892,8.06,53.073,53.073,0,0,0,6.1,3.05,36.206,36.206,0,0,0,6.317,2.178.213.213,0,0,1,.218.218V345.42a6.358,6.358,0,0,0,.436,1.96,7.636,7.636,0,0,0,1.089,1.743,6.619,6.619,0,0,0,1.525,1.089,6.36,6.36,0,0,0,1.961.436h20.259a6.362,6.362,0,0,0,1.961-.436,7.642,7.642,0,0,0,1.743-1.089,4.743,4.743,0,0,0,1.089-1.743,6.362,6.362,0,0,0,.436-1.96V328.647l.218-.218h0a53.775,53.775,0,0,0,6.317-2.178,53.073,53.073,0,0,0,6.1-3.05,50.669,50.669,0,0,0,5.664-3.7c1.743-1.307,3.485-2.832,5.228-4.357a.213.213,0,0,0,.218-.218h.218l14.377,8.278a6.921,6.921,0,0,0,1.961.653,6.031,6.031,0,0,0,1.961-.218,4.378,4.378,0,0,0,1.743-.871,9.472,9.472,0,0,0,1.307-1.525c3.7-6.1,7.406-12.634,10.892-18.952l-.218-.218v-.436a6.032,6.032,0,0,0-.218-1.961,4.378,4.378,0,0,0-.871-1.743,9.478,9.478,0,0,0-1.525-1.307l-14.377-8.278-.218-.218v-.218l.436-1.525h0c.218-.654.218-1.089.436-1.743a16.82,16.82,0,0,0,.436-3.268,17.612,17.612,0,0,0,.218-3.485v-6.971c0-1.089-.218-2.4-.218-3.485-.218-1.089-.218-2.178-.436-3.268l-.653-3.268v-.218a.213.213,0,0,1,.218-.218l14.377-8.278a9.471,9.471,0,0,0,1.525-1.307,4.379,4.379,0,0,0,.871-1.743,6.029,6.029,0,0,0,.218-1.96,2.474,2.474,0,0,0-.654-1.743c-3.485-6.317-7.406-12.634-10.892-18.952l-.218.218a.76.76,0,0,0-.436-.218,4.378,4.378,0,0,0-1.743-.871,6.031,6.031,0,0,0-1.961-.218,3.514,3.514,0,0,0-1.96.654l-1.089.654h0l-13.288,7.624h-.218a.213.213,0,0,1-.218-.218h0a34.663,34.663,0,0,0-5.228-4.357,50.676,50.676,0,0,0-5.664-3.7,53.088,53.088,0,0,0-6.1-3.05,36.2,36.2,0,0,0-6.317-2.178.213.213,0,0,1-.218-.218V203.828a6.355,6.355,0,0,0-.436-1.96,7.64,7.64,0,0,0-1.089-1.743,6.62,6.62,0,0,0-1.525-1.089,6.358,6.358,0,0,0-1.961-.436H636.229a6.362,6.362,0,0,0-1.961.436,7.641,7.641,0,0,0-1.743,1.089A5.14,5.14,0,0,0,631,203.61v16.773l-.218.218h0C628.6,221.69,626.427,222.344,624.248,223.215Z" transform="translate(203.134 -345.271) rotate(42)" fill="#c0cde9" fill-rule="evenodd"/>
      <path id="Path_2477" data-name="Path 2477" d="M176.8,50.3a13.942,13.942,0,0,1,4.8-3.2,15.318,15.318,0,0,1,11.4,0,16.124,16.124,0,0,1,4.8,3.2,13.942,13.942,0,0,1,3.2,4.8,15.228,15.228,0,0,1,1.1,5.7,15.624,15.624,0,0,1-1.1,5.7,16.124,16.124,0,0,1-3.2,4.8,13.942,13.942,0,0,1-4.8,3.2,15.228,15.228,0,0,1-5.7,1.1,15.625,15.625,0,0,1-5.7-1.1,16.124,16.124,0,0,1-4.8-3.2,13.942,13.942,0,0,1-3.2-4.8,15.228,15.228,0,0,1-1.1-5.7,15.624,15.624,0,0,1,1.1-5.7,17.509,17.509,0,0,1,3.2-4.8Zm5.4-1.9a16,16,0,0,0-4.4,2.9,13.489,13.489,0,0,0-2.9,4.4,12.547,12.547,0,0,0-1,5.1,14.038,14.038,0,0,0,1,5.1,16,16,0,0,0,2.9,4.4,13.489,13.489,0,0,0,4.4,2.9,12.547,12.547,0,0,0,5.1,1,14.038,14.038,0,0,0,5.1-1,16,16,0,0,0,4.4-2.9,13.489,13.489,0,0,0,2.9-4.4,12.547,12.547,0,0,0,1-5.1,14.038,14.038,0,0,0-1-5.1,16,16,0,0,0-2.9-4.4,13.489,13.489,0,0,0-4.4-2.9,12.547,12.547,0,0,0-5.1-1,12.224,12.224,0,0,0-5.1,1Zm-1.7-10.9c-.9.3-1.8.6-2.7,1a21.017,21.017,0,0,0-2.6,1.3,21.285,21.285,0,0,0-2.5,1.6c-.8.6-1.5,1.2-2.3,1.9a1.654,1.654,0,0,1-1.9.2c-2.2-1.3-4.5-2.5-6.6-3.8a.367.367,0,0,0-.3-.1h-.4c-.1,0-.2.1-.3.2s-.2.2-.2.3c-1.6,2.4-3.2,5.5-4.6,8.1a.367.367,0,0,0-.1.3v.4c0,.1.1.2.2.3s.2.2.3.2c2,1.3,4.5,2.6,6.6,3.8a2.336,2.336,0,0,1,.7.7c0,.1.1.2.1.3h.1l-.2.6c-.1.5-.2,1-.3,1.4a7.719,7.719,0,0,0-.2,1.5,7.568,7.568,0,0,0-.1,1.5v3c0,.5.1,1,.1,1.5.1.5.1,1,.2,1.5s.2,1,.3,1.4a1.645,1.645,0,0,1-.1,1,1.208,1.208,0,0,1-.7.7l-5.8,3.4h0l-.7.4c-.1.1-.2.1-.3.2s-.1.2-.2.3V73c0,.1.1.2.1.3l4.3,7.5h0l.3.6c.1.1.1.2.2.3s.2.1.3.2h.4c.1,0,.2-.1.3-.1,2.1-1.3,4.4-2.6,6.6-3.8a1.645,1.645,0,0,1,1-.2,1.8,1.8,0,0,1,.9.4h0a24.581,24.581,0,0,0,4.8,3.5,21.016,21.016,0,0,0,2.6,1.3,23.074,23.074,0,0,0,2.8,1,1.555,1.555,0,0,1,.8.6,1.613,1.613,0,0,1,.3.9v7.6a.756.756,0,0,0,.1.4c0,.1.1.2.2.3s.2.2.3.2.2.1.4.1H192a.756.756,0,0,0,.4-.1c.1,0,.2-.1.3-.2s.2-.2.2-.3.1-.2.1-.4V85.5a1.689,1.689,0,0,1,.3-1,1.456,1.456,0,0,1,.9-.6c.9-.3,1.8-.6,2.7-1a21.018,21.018,0,0,0,2.6-1.3A21.285,21.285,0,0,0,202,80c.8-.6,1.5-1.2,2.3-1.9a1.222,1.222,0,0,1,.9-.4,3.553,3.553,0,0,1,1,.2l6.5,3.7a.367.367,0,0,0,.3.1h.4c.1,0,.2-.1.3-.2s.2-.2.2-.3c1.5-2.7,3.1-5.4,4.7-8.1a.367.367,0,0,0,.1-.3v-.4c0-.1-.1-.2-.2-.3s-.2-.2-.3-.2l-6.6-3.8a2.336,2.336,0,0,1-.7-.7c0-.1-.1-.2-.1-.3h-.2l.2-.7c.1-.5.2-1,.3-1.4a7.719,7.719,0,0,0,.2-1.5,7.568,7.568,0,0,0,.1-1.5V59c0-.5-.1-1-.1-1.5-.1-.5-.1-1-.2-1.5s-.2-1-.3-1.4a1.645,1.645,0,0,1,.1-1,1.208,1.208,0,0,1,.7-.7l6.5-3.8c.1-.1.2-.1.3-.2s.1-.2.2-.3v-.4c0-.1-.1-.2-.1-.3-1.6-2.4-3.2-5.5-4.7-8.1-.1-.1-.1-.2-.2-.3s-.2-.1-.3-.2h-.4c-.1,0-.2.1-.3.1L206,43.2a1.654,1.654,0,0,1-1.9-.2c-.7-.7-1.5-1.3-2.2-1.9a21.285,21.285,0,0,0-2.5-1.6,21.016,21.016,0,0,0-2.6-1.3,23.073,23.073,0,0,0-2.8-1,1.555,1.555,0,0,1-.8-.6,1.613,1.613,0,0,1-.3-.9V28.1a.756.756,0,0,0-.1-.4c0-.1-.1-.2-.2-.3s-.2-.2-.3-.2-.2-.1-.4-.1h-9.3a.756.756,0,0,0-.4.1c-.1,0-.2.1-.3.2a.908.908,0,0,0-.3.7V36a1.689,1.689,0,0,1-.3,1,1.234,1.234,0,0,1-.8.5Zm-3.2-.3a24.372,24.372,0,0,0-2.8,1.4,23.264,23.264,0,0,0-2.6,1.7c-.8.6-1.6,1.3-2.4,2h-.2c-2.2-1.3-4.4-2.5-6.6-3.8-.3-.1-.5-.2-.8-.3a2.769,2.769,0,0,0-.9.1,2.01,2.01,0,0,0-.8.4,4.35,4.35,0,0,0-.6.7c-1.6,2.6-3.1,5.4-4.6,8.1a1.613,1.613,0,0,0-.3.9,2.768,2.768,0,0,0,.1.9,2.01,2.01,0,0,0,.4.8,4.349,4.349,0,0,0,.7.6c2.1,1.3,4.4,2.5,6.6,3.8l.1.1v.1l-.2.6h0c-.1.3-.1.6-.2.9a7.719,7.719,0,0,0-.2,1.5,8.082,8.082,0,0,0-.1,1.6v3.2c0,.5.1,1.1.1,1.6.1.5.1,1,.2,1.5l.3,1.5v.1a.1.1,0,0,1-.1.1c-2.4,1.3-4.9,2.8-7.2,4.2l.1.1-.1.1a2.01,2.01,0,0,0-.4.8,2.768,2.768,0,0,0-.1.9,1.613,1.613,0,0,0,.3.9l5,8.7.1-.1a.349.349,0,0,0,.2.1,2.01,2.01,0,0,0,.8.4,2.769,2.769,0,0,0,.9.1,1.135,1.135,0,0,0,.8-.3c2.2-1.2,4.4-2.6,6.6-3.8h.2a26.948,26.948,0,0,0,5,3.7,24.37,24.37,0,0,0,2.8,1.4,16.62,16.62,0,0,0,2.9,1,.1.1,0,0,1,.1.1v7.7a2.92,2.92,0,0,0,.2.9,3.509,3.509,0,0,0,.5.8,3.039,3.039,0,0,0,.7.5,2.92,2.92,0,0,0,.9.2H192a2.92,2.92,0,0,0,.9-.2,3.508,3.508,0,0,0,.8-.5,2.177,2.177,0,0,0,.5-.8,2.92,2.92,0,0,0,.2-.9V85.6l.1-.1h0a24.69,24.69,0,0,0,2.9-1,24.372,24.372,0,0,0,2.8-1.4,23.264,23.264,0,0,0,2.6-1.7c.8-.6,1.6-1.3,2.4-2a.1.1,0,0,0,.1-.1h.1l6.6,3.8a1.613,1.613,0,0,0,.9.3,2.769,2.769,0,0,0,.9-.1,2.01,2.01,0,0,0,.8-.4,4.35,4.35,0,0,0,.6-.7c1.7-2.8,3.4-5.8,5-8.7l-.1-.1v-.2a2.768,2.768,0,0,0-.1-.9,2.01,2.01,0,0,0-.4-.8,4.349,4.349,0,0,0-.7-.6l-6.6-3.8a.1.1,0,0,1-.1-.1v-.1l.2-.7h0c.1-.3.1-.5.2-.8a7.719,7.719,0,0,0,.2-1.5,8.082,8.082,0,0,0,.1-1.6V59.1c0-.5-.1-1.1-.1-1.6-.1-.5-.1-1-.2-1.5l-.3-1.5v-.1a.1.1,0,0,1,.1-.1l6.6-3.8a4.349,4.349,0,0,0,.7-.6,2.01,2.01,0,0,0,.4-.8,2.768,2.768,0,0,0,.1-.9,1.136,1.136,0,0,0-.3-.8c-1.6-2.9-3.4-5.8-5-8.7l-.1.1a.349.349,0,0,0-.2-.1,2.01,2.01,0,0,0-.8-.4,2.769,2.769,0,0,0-.9-.1,1.613,1.613,0,0,0-.9.3l-.5.3h0l-6.1,3.5h-.1a.1.1,0,0,1-.1-.1h0a15.912,15.912,0,0,0-2.4-2,23.263,23.263,0,0,0-2.6-1.7,24.37,24.37,0,0,0-2.8-1.4,16.621,16.621,0,0,0-2.9-1,.1.1,0,0,1-.1-.1V28.3a2.92,2.92,0,0,0-.2-.9,3.508,3.508,0,0,0-.5-.8,3.039,3.039,0,0,0-.7-.5,2.92,2.92,0,0,0-.9-.2h-9.3a2.92,2.92,0,0,0-.9.2,3.508,3.508,0,0,0-.8.5,2.36,2.36,0,0,0-.7,1.6v7.9l-.1.1h0A13.212,13.212,0,0,0,177.3,37.2Z" fill="#c0cde9" fill-rule="evenodd"/>
      <path id="Path_2480" data-name="Path 2480" d="M69,94.6a1.1,1.1,0,0,0-2.2,0v2.5H64.3a1.1,1.1,0,0,0,0,2.2h2.5v2.5a1.1,1.1,0,0,0,2.2,0V99.3h2.5a1.1,1.1,0,0,0,0-2.2H69Z" fill="#a0b3d8" fill-rule="evenodd"/>
      <path id="Path_2481" data-name="Path 2481" d="M255.9,32.3a1.1,1.1,0,0,0-2.2,0v2.5h-2.5a1.1,1.1,0,1,0,0,2.2h2.5v2.5a1.1,1.1,0,0,0,2.2,0V37h2.5a1.1,1.1,0,1,0,0-2.2h-2.5Z" fill="#a0b3d8" fill-rule="evenodd"/>
      <path id="Path_2482" data-name="Path 2482" d="M354.8,25a1.1,1.1,0,0,0-2.2,0v2.5h-2.5a1.1,1.1,0,1,0,0,2.2h2.5v2.5a1.1,1.1,0,0,0,2.2,0V29.7h2.5a1.1,1.1,0,1,0,0-2.2h-2.5Z" fill="#a0b3d8" fill-rule="evenodd"/>
      <path id="Path_2483" data-name="Path 2483" d="M538.2,247.4a1.1,1.1,0,1,0-2.2,0v2.5h-2.5a1.1,1.1,0,0,0,0,2.2H536v2.5a1.1,1.1,0,1,0,2.2,0v-2.5h2.5a1.1,1.1,0,0,0,0-2.2h-2.5Z" fill="#a0b3d8" fill-rule="evenodd"/>
      <path id="Path_2484" data-name="Path 2484" d="M120.2,343.9a1.1,1.1,0,1,0-2.2,0v2.5h-2.5a1.1,1.1,0,0,0,0,2.2H118v2.5a1.1,1.1,0,1,0,2.2,0v-2.5h2.5a1.1,1.1,0,0,0,0-2.2h-2.5Z" fill="#a0b3d8" fill-rule="evenodd"/>
      <path id="Path_2485" data-name="Path 2485" d="M70.1,164.3a1.1,1.1,0,1,0-2.2,0v2.5H65.4a1.1,1.1,0,0,0,0,2.2h2.5v2.5a1.1,1.1,0,1,0,2.2,0V169h2.5a1.1,1.1,0,0,0,0-2.2H70.1Z" fill="#a0b3d8" fill-rule="evenodd"/>
      <g id="Group_169" data-name="Group 169">
        <path id="Path_2486" data-name="Path 2486" d="M458.3,387.6H352.6a3.9,3.9,0,0,1-3.9-3.9V275.3a3.9,3.9,0,0,1,3.9-3.9H458.4a3.9,3.9,0,0,1,3.9,3.9V383.7A4.06,4.06,0,0,1,458.3,387.6Z" fill="#1c7255" fill-rule="evenodd"/>
        <path id="Path_2487" data-name="Path 2487" d="M480.2,387.6H441.9a3.9,3.9,0,0,1-3.9-3.9V275.3a3.9,3.9,0,0,1,3.9-3.9h38.3a3.9,3.9,0,0,1,3.9,3.9V383.7A3.971,3.971,0,0,1,480.2,387.6Z" fill="#a6c86b" fill-rule="evenodd"/>
        <path id="Path_2488" data-name="Path 2488" d="M474.8,280.9H447.3a2.051,2.051,0,0,0-2.1,2.1v1.9a2.112,2.112,0,0,0,2.1,2.1h27.5a2.112,2.112,0,0,0,2.1-2.1V283A2.051,2.051,0,0,0,474.8,280.9Z" fill="#151d3d" fill-rule="evenodd"/>
        <path id="Path_2489" data-name="Path 2489" d="M474.2,283a2.112,2.112,0,0,0-2.1-2.1h2.7a2.051,2.051,0,0,1,2.1,2.1v1.9a2.051,2.051,0,0,1-2.1,2.1h-2.7c.1,0,2.1-1,2.1-2.1Z" fill="#34395c" fill-rule="evenodd"/>
        <path id="Path_2490" data-name="Path 2490" d="M474.8,290.3H447.3a2.112,2.112,0,0,0-2.1,2.1v1.9a2.112,2.112,0,0,0,2.1,2.1h27.5a2.051,2.051,0,0,0,2.1-2.1v-1.9A2.051,2.051,0,0,0,474.8,290.3Z" fill="#151d3d" fill-rule="evenodd"/>
        <path id="Path_2491" data-name="Path 2491" d="M474.2,292.4a2.112,2.112,0,0,0-2.1-2.1h2.7a2.112,2.112,0,0,1,2.1,2.1v1.9a2.051,2.051,0,0,1-2.1,2.1h-2.7c.1,0,2.1-.9,2.1-2.1Z" fill="#34395c" fill-rule="evenodd"/>
        <path id="Path_2492" data-name="Path 2492" d="M474.8,299.7H447.3a2.051,2.051,0,0,0-2.1,2.1v1.9a2.112,2.112,0,0,0,2.1,2.1h27.5a2.112,2.112,0,0,0,2.1-2.1v-1.9A2.112,2.112,0,0,0,474.8,299.7Z" fill="#151d3d" fill-rule="evenodd"/>
        <path id="Path_2493" data-name="Path 2493" d="M474.2,301.8a2.112,2.112,0,0,0-2.1-2.1h2.7a2.051,2.051,0,0,1,2.1,2.1v1.9a2.051,2.051,0,0,1-2.1,2.1h-2.7c.1,0,2.1-1,2.1-2.1Z" fill="#34395c" fill-rule="evenodd"/>
        <path id="Path_2494" data-name="Path 2494" d="M474.8,309.1H447.3a2.112,2.112,0,0,0-2.1,2.1v1.9a2.112,2.112,0,0,0,2.1,2.1h27.5a2.051,2.051,0,0,0,2.1-2.1v-1.9A2.112,2.112,0,0,0,474.8,309.1Z" fill="#151d3d" fill-rule="evenodd"/>
        <path id="Path_2495" data-name="Path 2495" d="M474.2,311.3a2.112,2.112,0,0,0-2.1-2.1h2.7a2.112,2.112,0,0,1,2.1,2.1v1.9a2.051,2.051,0,0,1-2.1,2.1h-2.7c.1,0,2.1-.9,2.1-2.1Z" fill="#34395c" fill-rule="evenodd"/>
        <path id="Path_2496" data-name="Path 2496" d="M469.1,337.4h-16a8.664,8.664,0,0,0-8.6,8.6v16.2a8.664,8.664,0,0,0,8.6,8.6h16a8.664,8.664,0,0,0,8.6-8.6V346A8.664,8.664,0,0,0,469.1,337.4Z" fill="#151d3d" fill-rule="evenodd"/>
        <path id="Path_2497" data-name="Path 2497" d="M474.5,346a8.664,8.664,0,0,0-8.6-8.6h3.2a8.664,8.664,0,0,1,8.6,8.6v16.2a8.664,8.664,0,0,1-8.6,8.6h-3.2a8.664,8.664,0,0,0,8.6-8.6Z" fill="#34395c" fill-rule="evenodd"/>
        <path id="Path_2498" data-name="Path 2498" d="M462,337.4h-1.9v9.7a7,7,0,0,0-6,6h-9.7V355h9.7a7,7,0,0,0,6,6v9.7H462V361a7,7,0,0,0,6-6h9.7v-1.9H468a7,7,0,0,0-6-6v-9.7Zm-.9,21.8a5.228,5.228,0,0,1-5.2-5.2,5.164,5.164,0,0,1,5.2-5.2,5.228,5.228,0,0,1,5.2,5.2A5.294,5.294,0,0,1,461.1,359.2Z" fill="#494f79" fill-rule="evenodd"/>
        <g id="Group_166" data-name="Group 166">
          <path id="Path_2499" data-name="Path 2499" d="M456.9,328.4H446.6a2.112,2.112,0,0,0-2.1,2.1v1.9a2.112,2.112,0,0,0,2.1,2.1h10.3a2.051,2.051,0,0,0,2.1-2.1v-1.9A2.112,2.112,0,0,0,456.9,328.4Z" fill="#151d3d" fill-rule="evenodd"/>
          <path id="Path_2500" data-name="Path 2500" d="M456.3,330.5a2.112,2.112,0,0,0-2.1-2.1h2.7a2.112,2.112,0,0,1,2.1,2.1v1.9a2.112,2.112,0,0,1-2.1,2.1h-2.7c.1,0,2.1-.9,2.1-2.1Z" fill="#34395c" fill-rule="evenodd"/>
        </g>
        <g id="Group_167" data-name="Group 167">
          <path id="Path_2501" data-name="Path 2501" d="M456.9,319.2H446.6a2.112,2.112,0,0,0-2.1,2.1v1.9a2.112,2.112,0,0,0,2.1,2.1h10.3a2.051,2.051,0,0,0,2.1-2.1v-1.9A2.182,2.182,0,0,0,456.9,319.2Z" fill="#151d3d" fill-rule="evenodd"/>
          <path id="Path_2502" data-name="Path 2502" d="M456.3,321.3a2.112,2.112,0,0,0-2.1-2.1h2.7a2.112,2.112,0,0,1,2.1,2.1v1.9a2.112,2.112,0,0,1-2.1,2.1h-2.7c.1,0,2.1-.9,2.1-2.1Z" fill="#34395c" fill-rule="evenodd"/>
        </g>
        <path id="Path_2503" data-name="Path 2503" d="M397.9,283.2H372.2A13.828,13.828,0,0,0,358.4,297v26a13.828,13.828,0,0,0,13.8,13.8h25.7A13.828,13.828,0,0,0,411.7,323V297A13.893,13.893,0,0,0,397.9,283.2Z" fill="#b6b7d3" fill-rule="evenodd"/>
        <path id="Path_2504" data-name="Path 2504" d="M397,285H373.1a12.931,12.931,0,0,0-12.9,12.9v24.2A12.931,12.931,0,0,0,373.1,335H397a12.931,12.931,0,0,0,12.9-12.9V297.9A12.931,12.931,0,0,0,397,285Z" fill="#dcdcef" fill-rule="evenodd"/>
        <path id="Path_2505" data-name="Path 2505" d="M364.3,331.6a13.117,13.117,0,0,0,8.8,3.5H397a12.931,12.931,0,0,0,12.9-12.9V303H398.8V289.4H372.4v28.8h-8.1Z" fill="#cecee2" fill-rule="evenodd"/>
        <path id="Path_2506" data-name="Path 2506" d="M422.5,346.4h-1.6a1.34,1.34,0,0,0,1.3.8,1.56,1.56,0,0,0,1.3-.8,3.333,3.333,0,0,1-1,0Zm-2.8,0h-2.6a1.456,1.456,0,0,0,2.6,0Zm-3.7,0h-2.6a1.456,1.456,0,0,0,2.6,0Zm-3.7,0h-2.6a1.34,1.34,0,0,0,1.3.8,1.56,1.56,0,0,0,1.3-.8Zm-3.8,0h-1.6a3.4,3.4,0,0,0-1,.1,1.34,1.34,0,0,0,1.3.8,1.6,1.6,0,0,0,1.3-.9Zm-4,.4a6.118,6.118,0,0,0-1.2.5h.1a1.88,1.88,0,0,0,1.1-.5Zm-3.5,2.1a8.008,8.008,0,0,0-1.5,2.1h.2a1.367,1.367,0,0,0,1.4-1.4,1.483,1.483,0,0,0-.1-.7Zm-2,3.2a7.789,7.789,0,0,0-.4,2.1,1.738,1.738,0,0,0,1.1.6,1.4,1.4,0,1,0,0-2.8.616.616,0,0,0-.7.1Zm-.5,4.1v1.7a1.426,1.426,0,0,0,1.2.6,1.4,1.4,0,1,0,0-2.8,1.346,1.346,0,0,0-1.2.5Zm0,3.8v1.7a1.426,1.426,0,0,0,1.2.6,1.4,1.4,0,1,0,0-2.8,1.147,1.147,0,0,0-1.2.5Zm0,3.7v1.7a1.426,1.426,0,0,0,1.2.6,1.4,1.4,0,1,0,0-2.8,1.346,1.346,0,0,0-1.2.5Zm0,3.8v1.7a1.426,1.426,0,0,0,1.2.6,1.4,1.4,0,1,0,0-2.8,1.147,1.147,0,0,0-1.2.5Zm.1,3.7a13.041,13.041,0,0,0,.4,2.1,1.445,1.445,0,0,0,.7.2,1.4,1.4,0,0,0,0-2.8.948.948,0,0,0-1.1.5Zm.9,3.2a8.008,8.008,0,0,0,1.5,2.1,1.421,1.421,0,0,0,.2-.6,1.367,1.367,0,0,0-1.4-1.4c-.2-.1-.2-.1-.3-.1Zm3.8,3.7a5.637,5.637,0,0,0,1.2.4,1.389,1.389,0,0,0-1-.5c-.1.1-.1.1-.2.1Zm2.6.8c.3,0,.6.1,1,.1h1.6a1.34,1.34,0,0,0-1.3-.8,1.28,1.28,0,0,0-1.3.7Zm3.8,0h2.6a1.456,1.456,0,0,0-2.6,0Zm3.7,0H416a1.456,1.456,0,0,0-2.6,0Zm3.8,0h2.6a1.456,1.456,0,0,0-2.6,0Zm3.7,0h1.6a3.4,3.4,0,0,0,1-.1,1.51,1.51,0,0,0-1.3-.8,1.6,1.6,0,0,0-1.3.9Zm4-.3c.4-.1.8-.3,1.2-.4H426a1.11,1.11,0,0,0-1.1.4Zm3.5-2.2a8.008,8.008,0,0,0,1.5-2.1h-.2a1.367,1.367,0,0,0-1.4,1.4c0,.3,0,.6.1.7Zm2-3.1a7.789,7.789,0,0,0,.4-2.1,1.738,1.738,0,0,0-1.1-.6,1.4,1.4,0,0,0,0,2.8.821.821,0,0,0,.7-.1Zm.5-4.1v-1.7a1.426,1.426,0,0,0-1.2-.6,1.4,1.4,0,1,0,0,2.8,1.656,1.656,0,0,0,1.2-.5Zm0-3.8v-1.7a1.426,1.426,0,0,0-1.2-.6,1.4,1.4,0,0,0,0,2.8,1.147,1.147,0,0,0,1.2-.5Zm0-3.7V360a1.426,1.426,0,0,0-1.2-.6,1.4,1.4,0,0,0,0,2.8,1.656,1.656,0,0,0,1.2-.5Zm0-3.8v-1.7a1.426,1.426,0,0,0-1.2-.6,1.4,1.4,0,0,0,0,2.8,1.147,1.147,0,0,0,1.2-.5Zm-.1-3.7a13.041,13.041,0,0,0-.4-2.1,1.445,1.445,0,0,0-.7-.2,1.4,1.4,0,0,0,0,2.8,1.29,1.29,0,0,0,1.1-.5Zm-.9-3.2a8.008,8.008,0,0,0-1.5-2.1,1.421,1.421,0,0,0-.2.6,1.367,1.367,0,0,0,1.4,1.4.774.774,0,0,0,.3.1Zm-3.8-3.8c-.4-.2-.8-.3-1.2-.5a1.389,1.389,0,0,0,1,.5Zm-22.6,30a1.4,1.4,0,1,1,1.4-1.4,1.367,1.367,0,0,1-1.4,1.4Zm3.7,0a1.4,1.4,0,1,1,1.4-1.4,1.367,1.367,0,0,1-1.4,1.4Zm3.8,0a1.4,1.4,0,1,1,1.4-1.4,1.43,1.43,0,0,1-1.4,1.4Zm3.7,0a1.4,1.4,0,1,1,1.4-1.4,1.367,1.367,0,0,1-1.4,1.4Zm3.8,0a1.4,1.4,0,1,1,1.4-1.4,1.43,1.43,0,0,1-1.4,1.4Zm3.7,0a1.4,1.4,0,1,1,1.4-1.4,1.367,1.367,0,0,1-1.4,1.4Zm3.8,0a1.4,1.4,0,1,1,1.4-1.4,1.43,1.43,0,0,1-1.4,1.4Zm-22.5-6.6a1.4,1.4,0,1,0,1.4,1.4,1.43,1.43,0,0,0-1.4-1.4Zm3.7,0a1.4,1.4,0,1,0,1.4,1.4,1.43,1.43,0,0,0-1.4-1.4Zm3.8,0a1.4,1.4,0,1,0,1.4,1.4,1.506,1.506,0,0,0-1.4-1.4Zm3.7,0a1.4,1.4,0,1,0,1.4,1.4,1.43,1.43,0,0,0-1.4-1.4Zm3.8,0a1.4,1.4,0,1,0,1.4,1.4,1.506,1.506,0,0,0-1.4-1.4Zm3.7,0a1.4,1.4,0,1,0,1.4,1.4,1.43,1.43,0,0,0-1.4-1.4Zm3.8,0a1.4,1.4,0,1,0,1.4,1.4,1.506,1.506,0,0,0-1.4-1.4Zm-22.5-.9a1.4,1.4,0,1,1,1.4-1.4,1.367,1.367,0,0,1-1.4,1.4Zm3.7,0a1.4,1.4,0,1,1,1.4-1.4,1.367,1.367,0,0,1-1.4,1.4Zm3.8,0a1.4,1.4,0,1,1,1.4-1.4,1.43,1.43,0,0,1-1.4,1.4Zm3.7,0a1.4,1.4,0,1,1,1.4-1.4,1.367,1.367,0,0,1-1.4,1.4Zm3.8,0a1.4,1.4,0,1,1,1.4-1.4,1.43,1.43,0,0,1-1.4,1.4Zm3.7,0a1.4,1.4,0,1,1,1.4-1.4,1.367,1.367,0,0,1-1.4,1.4Zm3.8,0a1.4,1.4,0,1,1,1.4-1.4,1.43,1.43,0,0,1-1.4,1.4Zm-22.5-6.6a1.4,1.4,0,1,0,1.4,1.4,1.367,1.367,0,0,0-1.4-1.4Zm3.7,0a1.4,1.4,0,1,0,1.4,1.4,1.367,1.367,0,0,0-1.4-1.4Zm3.8,0a1.4,1.4,0,1,0,1.4,1.4,1.43,1.43,0,0,0-1.4-1.4Zm3.7,0a1.4,1.4,0,1,0,1.4,1.4,1.367,1.367,0,0,0-1.4-1.4Zm3.8,0a1.4,1.4,0,1,0,1.4,1.4,1.43,1.43,0,0,0-1.4-1.4Zm3.7,0a1.4,1.4,0,1,0,1.4,1.4,1.367,1.367,0,0,0-1.4-1.4Zm3.8,0a1.4,1.4,0,1,0,1.4,1.4,1.43,1.43,0,0,0-1.4-1.4Zm-22.5-.9a1.4,1.4,0,1,1,1.4-1.4,1.367,1.367,0,0,1-1.4,1.4Zm3.7,0a1.4,1.4,0,1,1,1.4-1.4,1.367,1.367,0,0,1-1.4,1.4Zm3.8,0a1.4,1.4,0,1,1,1.4-1.4,1.43,1.43,0,0,1-1.4,1.4Zm3.7,0a1.4,1.4,0,1,1,1.4-1.4,1.367,1.367,0,0,1-1.4,1.4Zm3.8,0a1.4,1.4,0,1,1,1.4-1.4,1.43,1.43,0,0,1-1.4,1.4Zm3.7,0a1.4,1.4,0,1,1,1.4-1.4,1.367,1.367,0,0,1-1.4,1.4Zm3.8,0a1.4,1.4,0,1,1,1.4-1.4,1.43,1.43,0,0,1-1.4,1.4Zm-22.5-6.6a1.4,1.4,0,1,0,1.4,1.4,1.43,1.43,0,0,0-1.4-1.4Zm3.7,0a1.4,1.4,0,1,0,1.4,1.4,1.43,1.43,0,0,0-1.4-1.4Zm3.8,0a1.4,1.4,0,1,0,1.4,1.4,1.506,1.506,0,0,0-1.4-1.4Zm3.7,0a1.4,1.4,0,1,0,1.4,1.4,1.43,1.43,0,0,0-1.4-1.4Zm3.8,0a1.4,1.4,0,1,0,1.4,1.4,1.506,1.506,0,0,0-1.4-1.4Zm3.7,0a1.4,1.4,0,1,0,1.4,1.4,1.43,1.43,0,0,0-1.4-1.4Zm3.8,0a1.4,1.4,0,1,0,1.4,1.4,1.506,1.506,0,0,0-1.4-1.4Zm-22.5-.9a1.4,1.4,0,1,1,1.4-1.4,1.367,1.367,0,0,1-1.4,1.4Zm3.7,0a1.4,1.4,0,1,1,1.4-1.4,1.367,1.367,0,0,1-1.4,1.4Zm3.8,0a1.4,1.4,0,1,1,1.4-1.4,1.43,1.43,0,0,1-1.4,1.4Zm3.7,0a1.4,1.4,0,1,1,1.4-1.4,1.367,1.367,0,0,1-1.4,1.4Zm3.8,0a1.4,1.4,0,1,1,1.4-1.4,1.43,1.43,0,0,1-1.4,1.4Zm3.7,0a1.4,1.4,0,1,1,1.4-1.4,1.367,1.367,0,0,1-1.4,1.4Zm3.8,0a1.4,1.4,0,1,1,1.4-1.4,1.43,1.43,0,0,1-1.4,1.4Zm-22.5-6.6a1.4,1.4,0,1,0,1.4,1.4,1.43,1.43,0,0,0-1.4-1.4Zm3.7,0a1.4,1.4,0,1,0,1.4,1.4,1.43,1.43,0,0,0-1.4-1.4Zm3.8,0a1.4,1.4,0,1,0,1.4,1.4,1.506,1.506,0,0,0-1.4-1.4Zm3.7,0a1.4,1.4,0,1,0,1.4,1.4,1.43,1.43,0,0,0-1.4-1.4Zm3.8,0a1.4,1.4,0,1,0,1.4,1.4,1.506,1.506,0,0,0-1.4-1.4Zm3.7,0a1.4,1.4,0,1,0,1.4,1.4,1.43,1.43,0,0,0-1.4-1.4Zm3.8,0a1.4,1.4,0,1,0,1.4,1.4A1.506,1.506,0,0,0,426,348.1Z" fill="#b6b7d3" fill-rule="evenodd"/>
        <g id="Group_168" data-name="Group 168">
          <path id="Path_2507" data-name="Path 2507" d="M390.1,376.9H355.6a1,1,0,0,0-1,1h0a1,1,0,0,0,1,1h34.5a1,1,0,0,0,1-1h0A1,1,0,0,0,390.1,376.9Z" fill="#b6b7d3" fill-rule="evenodd"/>
          <path id="Path_2508" data-name="Path 2508" d="M390.1,372.5H355.6a1,1,0,0,0-1,1h0a1,1,0,0,0,1,1h34.5a1,1,0,0,0,1-1h0A1.075,1.075,0,0,0,390.1,372.5Z" fill="#b6b7d3" fill-rule="evenodd"/>
          <path id="Path_2509" data-name="Path 2509" d="M390.1,368.2H355.6a1,1,0,0,0-1,1h0a1,1,0,0,0,1,1h34.5a1,1,0,0,0,1-1h0A1,1,0,0,0,390.1,368.2Z" fill="#b6b7d3" fill-rule="evenodd"/>
          <path id="Path_2510" data-name="Path 2510" d="M390.1,363.8H361.4a1,1,0,0,0-1,1h0a1,1,0,0,0,1,1h28.7a1,1,0,0,0,1-1h0A1.075,1.075,0,0,0,390.1,363.8Z" fill="#b6b7d3" fill-rule="evenodd"/>
          <path id="Path_2511" data-name="Path 2511" d="M390.1,359.5H355.6a1,1,0,0,0-1,1h0a1,1,0,0,0,1,1h34.5a1,1,0,0,0,1-1h0A1,1,0,0,0,390.1,359.5Z" fill="#b6b7d3" fill-rule="evenodd"/>
          <path id="Path_2512" data-name="Path 2512" d="M390.1,355.1H355.6a1,1,0,0,0-1,1h0a1,1,0,0,0,1,1h34.5a1,1,0,0,0,1-1h0A1.075,1.075,0,0,0,390.1,355.1Z" fill="#b6b7d3" fill-rule="evenodd"/>
          <path id="Path_2513" data-name="Path 2513" d="M383.7,350.8H355.6a1,1,0,0,0-1,1h0a1,1,0,0,0,1,1h28.1a1,1,0,0,0,1-1h0A1,1,0,0,0,383.7,350.8Z" fill="#b6b7d3" fill-rule="evenodd"/>
          <path id="Path_2514" data-name="Path 2514" d="M390.1,346.4H355.6a1,1,0,0,0-1,1h0a1,1,0,0,0,1,1h34.5a1,1,0,0,0,1-1h0A1.075,1.075,0,0,0,390.1,346.4Z" fill="#b6b7d3" fill-rule="evenodd"/>
          <path id="Path_2515" data-name="Path 2515" d="M357.1,363.8h-1.5a1,1,0,0,0-1,1h0a1,1,0,0,0,1,1h1.5a1,1,0,0,0,1-1h0A1.075,1.075,0,0,0,357.1,363.8Z" fill="#b6b7d3" fill-rule="evenodd"/>
          <path id="Path_2516" data-name="Path 2516" d="M390.1,350.8h-2.5a1,1,0,0,0-1,1h0a1,1,0,0,0,1,1h2.5a1,1,0,0,0,1-1h0A1,1,0,0,0,390.1,350.8Z" fill="#b6b7d3" fill-rule="evenodd"/>
        </g>
        <path id="Path_2517" data-name="Path 2517" d="M377.6,285h-4.5a12.907,12.907,0,0,0-9.6,4.3l42.3,42.3a12.765,12.765,0,0,0,4.2-9.5v-4.8L377.6,285Zm-16.5,8.1L402,334a11.763,11.763,0,0,1-5,1h-1.4l-35.5-35.5v-1.6A15.208,15.208,0,0,1,361.1,293.1Z" fill="#ededf7" fill-rule="evenodd"/>
      </g>
    </g>
    <g id="Group_170" data-name="Group 170" transform="translate(-68.616 156.802)">
      <path id="Path" d="M0,.346.059,5.9h0c.157.826,7.419,1.416,16.349,1.321S32.59,6.387,32.729,5.558h0L32.674,0Z" transform="translate(12303.788 4209.955)" fill="#a8542a"/>
      <path id="Path-2" data-name="Path" d="M0,.553.051,5.424l.007.686a.21.21,0,0,0,.207.207h0l-.2-.152c.078.369.657.5.955.584a15.721,15.721,0,0,0,2.267.391c2.552.306,5.132.405,7.7.466q5.037.119,10.077-.071c2.725-.1,5.458-.249,8.166-.584a23.518,23.518,0,0,0,2.542-.421,5.487,5.487,0,0,0,.769-.23,1.3,1.3,0,0,0,.479-.28.423.423,0,0,0,.112-.2l-.2.152h0a.21.21,0,0,0,.207-.207L33.1.893,33.088.207A.21.21,0,0,0,32.881,0L32,.009,29.62.034,26.107.072,21.824.117l-4.691.05-4.752.05L7.951.264,4.22.3,1.537.332c-.425,0-.851,0-1.276.013H.207a.207.207,0,0,0,0,.414L1.083.751,3.468.725,6.981.688,11.264.643l4.691-.05,4.752-.05L25.137.5l3.73-.039L31.551.428c.423,0,.853.014,1.276-.013h.054L32.674.207l.051,4.871.007.686.207-.207h0a.21.21,0,0,0-.2.152c-.013.067.019-.04-.006.017-.015.035,0,0,.008-.009-.011.011-.021.023-.032.033-.049.045.028-.01-.039.03-.036.021-.07.043-.107.062l-.06.029-.041.019-.047.019-.093.035c-.118.042-.238.078-.358.111a17.356,17.356,0,0,1-2.262.421c-2.508.342-5.045.491-7.571.6q-4.946.217-9.9.138c-2.669-.041-5.345-.13-8-.389A25.193,25.193,0,0,1,1.7,6.48a6.684,6.684,0,0,1-.818-.208C.832,6.257.787,6.24.742,6.223L.7,6.206s.043.019.01,0L.639,6.177C.607,6.161.576,6.144.546,6.126.531,6.117.517,6.106.5,6.1s.039.03-.005-.005c-.01-.008-.017-.018-.027-.026-.032-.028.016.044,0,.006-.021-.067,0,.04-.007-.016a.209.209,0,0,0-.2-.152h0l.207.207L.421,1.239.414.553A.207.207,0,0,0,0,.553Z" transform="translate(12303.58 4209.748)"/>
      <ellipse id="Oval" cx="16.337" cy="1.52" rx="16.337" ry="1.52" transform="translate(12303.774 4208.803) rotate(-0.607)"/>
      <path id="Path-3" data-name="Path" d="M32.683,1.567c0-.011,0-.021.011-.032,0,0-.016.031-.018.03s.037-.035,0-.006c-.011.009-.021.02-.031.03-.04.04.014-.008,0,0-.033.022-.065.043-.1.062s-.074.038-.112.055l-.033.015c-.029.013.048-.019,0,0l-.082.032c-.116.043-.234.08-.353.114a16.509,16.509,0,0,1-2.245.426c-2.518.349-5.068.5-7.606.61q-4.985.22-9.979.139C9.454,3,6.765,2.911,4.095,2.646a23.954,23.954,0,0,1-2.527-.355A6.061,6.061,0,0,1,.78,2.084a.994.994,0,0,1-.224-.1C.525,1.971.5,1.952.466,1.934c-.047-.029,0,.006,0,0S.437,1.907.424,1.9c-.042-.035.036.039-.01-.017-.013-.016.02.057.007.014s.006.065,0,.013c0,.021,0,.028-.011.038a.252.252,0,0,1,.018-.03c.023.011-.048.032,0,0a.188.188,0,0,0,.029-.027c.038-.038-.025.016,0,0s.069-.045.1-.065.075-.038.113-.055c.053-.025,0,0,.025-.011l.09-.035a10.2,10.2,0,0,1,1.917-.437A67.392,67.392,0,0,1,9.886.629C13.174.457,16.469.4,19.761.422c2.821.023,5.648.1,8.46.338.941.079,1.883.173,2.814.332.319.054.638.116.951.2.118.031.235.066.349.107l.073.027.043.017.038.017.067.034c.032.017.062.037.093.057s-.029-.029,0,0a.155.155,0,0,0,.028.026c.056.03-.025-.026.016.023.009.011-.02-.058-.007-.014s0-.061,0-.019c.008.266.422.267.414,0-.013-.4-.581-.554-.888-.643a14.38,14.38,0,0,0-2.225-.4C27.406.207,24.8.108,22.2.047Q17.095-.075,11.987.121c-2.73.1-5.469.252-8.18.595a21.88,21.88,0,0,0-2.523.429A4.913,4.913,0,0,0,.5,1.4a.94.94,0,0,0-.427.3c-.55.833,2.02,1.112,2.354,1.16a64.715,64.715,0,0,0,7.29.539c3.386.11,6.777.1,10.164,0,2.879-.086,5.765-.227,8.629-.543.94-.1,1.882-.222,2.809-.41a4.255,4.255,0,0,0,1.515-.486.5.5,0,0,0,.26-.394A.207.207,0,0,0,32.683,1.567Z" transform="translate(12303.572 4208.414)"/>
      <path id="Path-4" data-name="Path" d="M23.318,7.481,23.239,0,0,.246.079,7.726A16.07,16.07,0,0,0,4.056,18.142l6.427,7.342a1.878,1.878,0,0,1,.026,2.444L4.239,35.4A16.07,16.07,0,0,0,.482,45.9l.063,6a1.482,1.482,0,0,0,1.5,1.466l20.277-.214a1.482,1.482,0,0,0,1.466-1.5l-.063-6A16.07,16.07,0,0,0,19.744,35.24L13.317,27.9a1.878,1.878,0,0,1-.026-2.444l6.271-7.476a16.07,16.07,0,0,0,3.756-10.5Z" transform="translate(12307.866 4157.102)" fill="#fff"/>
      <path id="Path-5" data-name="Path" d="M23.732,7.688l-.069-6.551-.01-.93A.21.21,0,0,0,23.446,0L21.124.025,15.577.083,8.871.154l-5.8.061L1.154.236c-.3,0-.607-.013-.906.01H.207A.21.21,0,0,0,0,.453L.059,6.01C.066,6.666.07,7.322.08,7.978A16.3,16.3,0,0,0,1.3,13.957a16.5,16.5,0,0,0,2.829,4.556q.627.718,1.256,1.435l4.464,5.1c.5.568,1.119,1.114,1.095,1.937a3.249,3.249,0,0,1-1.074,1.834L5.5,34.034,4.311,35.45A16.282,16.282,0,0,0,.482,46.11c.007.787.017,1.575.025,2.362l.034,3.252a2.647,2.647,0,0,0,.127,1A1.712,1.712,0,0,0,2.254,53.78c1.1.011,2.2-.023,3.294-.035l6.919-.073,6.86-.073c1.065-.011,2.133,0,3.2-.034a1.712,1.712,0,0,0,1.617-1.255,3.437,3.437,0,0,0,.052-.919L24.159,48.1c-.008-.76-.013-1.519-.024-2.279a16.3,16.3,0,0,0-1.224-5.98A16.511,16.511,0,0,0,20.08,35.28q-.633-.725-1.268-1.449l-4.461-5.1c-.494-.565-1.108-1.105-1.083-1.924a3.249,3.249,0,0,1,1.074-1.834l4.375-5.215L19.9,18.344A16.282,16.282,0,0,0,23.732,7.688a.207.207,0,0,0-.414,0,16.039,16.039,0,0,1-3.743,10.407q-1.815,2.167-3.633,4.331l-2,2.388a3.436,3.436,0,0,0-1.083,1.921,2.882,2.882,0,0,0,1.04,2.11l2.015,2.3L19.726,35.5a16.034,16.034,0,0,1,3.985,9.917c.074,1.928.047,3.864.067,5.793,0,.228.011.457.006.685a1.289,1.289,0,0,1-1.27,1.254c-.34.01-.68.007-1.02.011l-5.578.059L8.659,53.3l-5.476.058c-.31,0-.621.013-.93.01A1.292,1.292,0,0,1,.96,52.1c-.008-.261-.006-.522-.008-.782L.915,47.864c-.009-.851-.041-1.706-.007-2.557a16.1,16.1,0,0,1,3.808-9.7l3.857-4.6,1.878-2.239c.132-.158.266-.314.4-.473a2.131,2.131,0,0,0,.447-1.9,4.556,4.556,0,0,0-1.171-1.668L8.008,22.313,4.43,18.225A16.007,16.007,0,0,1,.493,7.926C.469,6.037.453,4.148.433,2.26L.414.453.207.66,2.529.635,8.076.577,14.782.506l5.8-.061L22.5.424l.59-.006a1.667,1.667,0,0,0,.316,0,.216.216,0,0,1,.041,0L23.239.207l.069,6.551.01.93A.207.207,0,0,0,23.732,7.688Z" transform="translate(12307.658 4156.895)"/>
      <path id="Path-6" data-name="Path" d="M23.248,3.585S7.42-.813,4.317.133a11.053,11.053,0,0,0-4.3,2.174C0,2.576,0,2.846,0,3.116l.06,5.7a1.78,1.78,0,0,0,1.8,1.762l19.679-.208A1.781,1.781,0,0,0,23.3,8.57Z" transform="translate(12308.347 4199.887)" fill="#1c7255"/>
      <path id="Path-7" data-name="Path" d="M23.51,3.6c-.36-.1-.721-.2-1.082-.293q-1.393-.372-2.79-.725-1.895-.478-3.8-.919c-1.378-.317-2.761-.618-4.15-.886C10.421.531,9.147.31,7.864.156A12.739,12.739,0,0,0,5.077.037a7.075,7.075,0,0,0-1.8.522A12.8,12.8,0,0,0,1,1.68a5,5,0,0,0-.909.681.349.349,0,0,0-.078.26Q0,2.861,0,3.1c0,.086,0,.173,0,.259q0,.173,0,.345L.041,7.119.057,8.646A2.865,2.865,0,0,0,.24,9.834,2.005,2.005,0,0,0,2.072,11l.316,0,1.881-.02,3.078-.033,3.736-.04,3.864-.041,3.431-.036,2.449-.026c.325,0,.651,0,.975-.011A2,2,0,0,0,23.68,9.167a5.606,5.606,0,0,0,.027-1.023L23.67,4.592,23.662,3.8a.207.207,0,0,0-.414,0l.038,3.589c0,.463.013.926.015,1.389a1.591,1.591,0,0,1-1.561,1.6c-.536.01-1.073.011-1.61.017l-3.688.039-4.708.05-4.671.049-3.575.038c-.486.005-.973.02-1.458.015A1.578,1.578,0,0,1,.749,9.9a1.655,1.655,0,0,1-.275-.927L.458,7.464.416,3.451c0-.311,0-.621.011-.931l-.061.146c.051-.049.1-.095.158-.14s.09-.073.135-.109l.014-.011.04-.03.1-.075a9.665,9.665,0,0,1,1.191-.725A14.311,14.311,0,0,1,3.988.738,7.153,7.153,0,0,1,4.734.506c.053-.012.107-.022.161-.031L4.971.463h0L5.022.457A9.654,9.654,0,0,1,6.891.471C7.745.54,8.555.653,9.4.787c.974.156,1.944.337,2.911.532q1.519.306,3.03.653,1.445.329,2.885.683,1.24.3,2.475.624.9.233,1.8.474c.288.077.575.162.865.235L23.4,4A.207.207,0,0,0,23.51,3.6Z" transform="translate(12308.14 4199.673)"/>
      <path id="Path-8" data-name="Path" d="M0,3.684a8.243,8.243,0,0,1,9.081.871c4.761,3.548,14.226,5.274,14.176.495C23.222,1.783,12.7-1.161,5.387.458A10.849,10.849,0,0,0,0,3.684Z" transform="translate(12308.339 4198.423)" fill="#a6c86b"/>
      <path id="Path-9" data-name="Path" d="M.308,4.069c.063-.039.13-.074.2-.109s.157-.079.236-.116L.883,3.78l.078-.034.068-.028a8.068,8.068,0,0,1,2-.526,7.925,7.925,0,0,1,2.913.17A9.606,9.606,0,0,1,9.276,5.011a17.969,17.969,0,0,0,4.859,2.437,16.286,16.286,0,0,0,5.135.944A5,5,0,0,0,22.954,7.22a2.7,2.7,0,0,0,.7-1.606,2.208,2.208,0,0,0-.363-1.488,4.845,4.845,0,0,0-1.351-1.272,11.679,11.679,0,0,0-2.11-1.091,23.78,23.78,0,0,0-5.7-1.474A26.414,26.414,0,0,0,7.638.128,13.47,13.47,0,0,0,4.376.808,11.073,11.073,0,0,0,1.233,2.643a12.131,12.131,0,0,0-1.176,1.1c-.182.194.11.488.293.293A11.622,11.622,0,0,1,2.988,1.922a9.678,9.678,0,0,1,1.648-.768A10.737,10.737,0,0,1,6.29.735,23.625,23.625,0,0,1,12.58.524a26.312,26.312,0,0,1,5.926,1.192,15.4,15.4,0,0,1,2.339.971,7.074,7.074,0,0,1,1.633,1.121,3,3,0,0,1,.493.588,1.606,1.606,0,0,1,.257.616c0,.023.009.047.013.071.008.044,0-.025,0,.039s.008.121.007.182a3.1,3.1,0,0,1-.032.442,2.3,2.3,0,0,1-.252.757,2.028,2.028,0,0,1-.476.588,2.111,2.111,0,0,1-.308.23,3.343,3.343,0,0,1-.383.209,5.447,5.447,0,0,1-1.829.425,14.019,14.019,0,0,1-4.906-.646,18.8,18.8,0,0,1-4.9-2.188c-.411-.264-.8-.565-1.2-.838a9.788,9.788,0,0,0-1.734-.93A8.37,8.37,0,0,0,4.1,2.715a8.2,8.2,0,0,0-3.822.9c-.06.032-.12.064-.178.1C-.127,3.851.081,4.21.308,4.069Z" transform="translate(12308.135 4198.216)"/>
      <path id="Path-10" data-name="Path" d="M0,4.09A7.464,7.464,0,0,1,1.16,2.068a5.25,5.25,0,0,1,3.253-2C8.824-.64,9.664,4.31,12.035,5.145" transform="translate(12314.169 4196.075)" fill="#a6c86b"/>
      <path id="Path-11" data-name="Path" d="M.411,4.35A6.189,6.189,0,0,1,.979,3.2,6.636,6.636,0,0,1,2.368,1.544,4.755,4.755,0,0,1,6.016.446,4.326,4.326,0,0,1,8.429,1.7a19.678,19.678,0,0,1,1.747,2.11,5.263,5.263,0,0,0,1.742,1.622,2.884,2.884,0,0,0,.273.114c.251.09.36-.31.11-.4a1.446,1.446,0,0,1-.22-.094,2.636,2.636,0,0,1-.24-.137,2.921,2.921,0,0,1-.428-.334,7.862,7.862,0,0,1-.845-.937A24.258,24.258,0,0,0,8.806,1.494,4.847,4.847,0,0,0,6.3.075,5.1,5.1,0,0,0,2.437.968,7.122,7.122,0,0,0,.047,4.145c-.012.031-.024.063-.035.095-.087.253.313.361.4.11Z" transform="translate(12313.957 4195.87)"/>
      <path id="Path-12" data-name="Path" d="M4.495,27.148l-.381-.373a3.607,3.607,0,0,1-1.083-2.539L2.776,0,1.422.014,1.677,24.2A3.607,3.607,0,0,1,.649,26.761l-.422.431a.794.794,0,0,0,.012,1.122l.431.422a3.607,3.607,0,0,1,1.083,2.539l.22,20.8a.69.69,0,0,0,.652.689.677.677,0,0,0,.7-.684L3.106,31.212a3.607,3.607,0,0,1,1.029-2.561l.373-.381a.794.794,0,0,0-.012-1.122Z" transform="translate(12331.437 4156.666)" fill="#a8542a"/>
      <path id="Path-13" data-name="Path" d="M4.847,27.208a4.275,4.275,0,0,1-1.261-1.832,3.751,3.751,0,0,1-.142-1.026q-.007-.606-.013-1.212l-.058-5.492-.078-7.4L3.224,3.559,3.2,1.328C3.2.973,3.214.61,3.189.256c0-.016,0-.033,0-.049A.21.21,0,0,0,2.982,0L1.628.014a.21.21,0,0,0-.207.207l.015,1.464.04,3.743.053,5.021.057,5.379.05,4.741L1.669,23.7c0,.219.005.437.007.656A3.487,3.487,0,0,1,.7,26.831a1.943,1.943,0,0,0-.687.97c-.083.528.266.848.6,1.18a3.556,3.556,0,0,1,1.134,2.536c.01.694.015,1.388.022,2.082l.046,4.367L1.876,43.3,1.928,48.3l.035,3.333c0,.21,0,.421.007.631a.944.944,0,0,0,.424.79.89.89,0,0,0,1.315-.531,2.425,2.425,0,0,0,.025-.616l-.012-1.174-.043-4.063-.056-5.261-.054-5.153L3.53,32.528a5.374,5.374,0,0,1,.4-2.762,5.64,5.64,0,0,1,.917-1.126,1.024,1.024,0,0,0,0-1.432c-.182-.2-.474.1-.293.293.434.467-.03.867-.351,1.2a3.9,3.9,0,0,0-.953,1.632,4.585,4.585,0,0,0-.144,1.325l.028,2.655.049,4.6.056,5.3.05,4.722.031,2.95a2.242,2.242,0,0,1-.01.53.472.472,0,0,1-.926-.134c0-.058,0-.118,0-.177l-.027-2.547-.048-4.549-.056-5.293L2.2,34.934,2.17,31.928c0-.148,0-.3,0-.445A3.886,3.886,0,0,0,1.643,29.6,5.492,5.492,0,0,0,.687,28.47a.666.666,0,0,1-.254-.665,1.161,1.161,0,0,1,.357-.475,4.541,4.541,0,0,0,.964-1.321,4.114,4.114,0,0,0,.335-1.736l-.023-2.179-.044-4.13-.054-5.149L1.912,7.579,1.866,3.187,1.838.572l0-.351L1.627.428,2.982.414,2.775.207,2.8,2.975l.069,6.5.079,7.492.062,5.821.015,1.454a4.014,4.014,0,0,0,1.028,2.767c.159.171.331.33.5.493C4.745,27.688,5.038,27.4,4.847,27.208Z" transform="translate(12331.231 4156.459)"/>
      <path id="Path-14" data-name="Path" d="M4.495,27.148l-.381-.373a3.607,3.607,0,0,1-1.083-2.539L2.776,0,1.422.014,1.677,24.2A3.607,3.607,0,0,1,.649,26.761l-.422.431a.794.794,0,0,0,.012,1.122l.431.422a3.607,3.607,0,0,1,1.083,2.539l.22,20.8a.69.69,0,0,0,.652.689.677.677,0,0,0,.7-.684L3.106,31.212a3.607,3.607,0,0,1,1.029-2.561l.373-.381a.794.794,0,0,0-.012-1.122Z" transform="translate(12303.528 4156.961)" fill="#a8542a"/>
      <path id="Path-15" data-name="Path" d="M4.847,27.208a4.275,4.275,0,0,1-1.261-1.832,3.75,3.75,0,0,1-.142-1.026q-.007-.606-.013-1.212l-.058-5.492-.078-7.4L3.224,3.559,3.2,1.328C3.2.973,3.214.61,3.189.256c0-.016,0-.033,0-.049A.21.21,0,0,0,2.982,0L1.628.014a.21.21,0,0,0-.207.207l.015,1.464.04,3.743.053,5.021.057,5.379.05,4.741L1.669,23.7c0,.219.005.437.007.656A3.487,3.487,0,0,1,.7,26.831a1.943,1.943,0,0,0-.687.97c-.083.528.266.848.6,1.18a3.556,3.556,0,0,1,1.134,2.536c.01.694.015,1.388.022,2.082l.046,4.367L1.876,43.3,1.928,48.3l.035,3.333c0,.21,0,.421.007.631a.944.944,0,0,0,.424.79.89.89,0,0,0,1.315-.531,2.426,2.426,0,0,0,.025-.616l-.012-1.174-.043-4.063-.056-5.261-.054-5.153L3.53,32.528a5.374,5.374,0,0,1,.4-2.762,5.64,5.64,0,0,1,.917-1.126,1.024,1.024,0,0,0,0-1.432c-.182-.2-.474.1-.293.293.434.467-.03.867-.351,1.2a3.9,3.9,0,0,0-.953,1.632,4.584,4.584,0,0,0-.144,1.325l.028,2.655.049,4.6.056,5.3.05,4.722.031,2.95a2.243,2.243,0,0,1-.01.53.472.472,0,0,1-.926-.134c0-.058,0-.118,0-.177l-.027-2.547-.048-4.549-.056-5.293L2.2,34.934l-.032-3.006c0-.148,0-.3,0-.445A3.886,3.886,0,0,0,1.643,29.6,5.493,5.493,0,0,0,.687,28.47a.666.666,0,0,1-.254-.665,1.161,1.161,0,0,1,.357-.475,4.54,4.54,0,0,0,.964-1.321,4.114,4.114,0,0,0,.335-1.736l-.023-2.179-.044-4.13-.054-5.149L1.912,7.579,1.866,3.187,1.838.572l0-.351L1.628.429,2.982.414,2.775.207,2.8,2.976l.069,6.5.079,7.492.062,5.821.015,1.454a4.014,4.014,0,0,0,1.028,2.767c.159.171.331.33.5.493C4.745,27.688,5.038,27.4,4.847,27.208Z" transform="translate(12303.322 4156.754)"/>
      <path id="Path-16" data-name="Path" d="M9.107,31.9,8.726,21.158c-.079-2.416.257-3.247.852-3.957l6.271-7.476A16.07,16.07,0,0,0,19.594,0c-.364.188-5.952,3.063-7.3,3.129C10.894,3.2,1.939,2.537,0,9.482H0c.112.137.226.273.343.406L6.77,17.231a6.1,6.1,0,0,1,1.148,3.721l.118,11.17a.882.882,0,0,0-.883.941.923.923,0,0,0-.762.8" transform="translate(12311.579 4165.354)" fill="#a6c86b"/>
      <path id="Path-17" data-name="Path" d="M9.512,32.1l-.059-1.652L9.323,26.8l-.131-3.682c-.021-.584-.043-1.168-.062-1.752-.043-1.292-.072-2.775.795-3.816.41-.493.824-.983,1.236-1.474l2.437-2.9,2.114-2.52a21.255,21.255,0,0,0,1.933-2.6,16.273,16.273,0,0,0,2.209-6.213q.112-.814.145-1.635a.209.209,0,0,0-.311-.179C18.193.8,16.678,1.538,15.137,2.21c-.461.2-.925.394-1.4.568a6.8,6.8,0,0,1-1.072.326l-.091.015c-.056.008.03,0,0,0l-.04,0-.127.006c-.084,0-.168,0-.252,0-.242,0-.485,0-.727,0a20,20,0,0,0-4.858.575,9.565,9.565,0,0,0-5.1,3.031,7.6,7.6,0,0,0-.9,1.393,8.381,8.381,0,0,0-.354.819q-.08.214-.148.433c-.049.159-.12.3-.019.448a6.1,6.1,0,0,0,.469.55l.451.515,3.485,3.98c.788.9,1.584,1.795,2.365,2.7a4.669,4.669,0,0,1,.869,1.839,6.764,6.764,0,0,1,.219,1.762c0,.393.008.786.012,1.179l.057,5.373.046,4.353,0,.238.207-.207a1.173,1.173,0,0,0-.565.155,1.121,1.121,0,0,0-.525.992l.152-.2a1.163,1.163,0,0,0-.914,1c-.015.266.4.266.414,0,0-.008,0-.016,0-.023-.009.059,0,.012.005-.016a.732.732,0,0,1,.063-.172.823.823,0,0,1,.54-.385.212.212,0,0,0,.152-.2.694.694,0,0,1,.365-.659,1,1,0,0,1,.238-.07c.045-.008-.038,0,0,0l.034,0h.035a.21.21,0,0,0,.207-.207l-.034-3.2-.06-5.655-.02-1.9a9.1,9.1,0,0,0-.209-2.145,5.418,5.418,0,0,0-.906-2.013c-.08-.1-.166-.2-.252-.3l-1.18-1.348L2.1,11.558l-1.223-1.4L.687,9.949Q.577,9.823.471,9.7L.428,9.645Q.344,9.519.409,9.7a.6.6,0,0,0,.036-.123q.066-.22.144-.437a7.429,7.429,0,0,1,.341-.8A8.06,8.06,0,0,1,5.478,4.488a16.623,16.623,0,0,1,5.139-.918c.541-.021,1.082-.018,1.623-.023A5.106,5.106,0,0,0,14,3.123,56.052,56.052,0,0,0,19.4.638l.5-.253L19.584.206a15.922,15.922,0,0,1-1.619,6.4,17.32,17.32,0,0,1-2.307,3.461l-1.88,2.241-2.493,2.972-1.58,1.884a4.042,4.042,0,0,0-.527.754,5.116,5.116,0,0,0-.457,2.058c-.044.82,0,1.644.032,2.464l.121,3.4.136,3.822.083,2.325,0,.115c.009.266.423.267.414,0Z" transform="translate(12311.382 4165.149)"/>
      <path id="Path-18" data-name="Path" d="M20.833,1.392s.269,3.432-8.9,4.334c-6.578.648-8.078,7.658-10.681,5.108a4.421,4.421,0,0,1,1.321-7.1c3.363-1.754,10.906.624,13.246-1.161C18.96.174,21.11-1.186,20.833,1.392Z" transform="translate(12310.341 4163.956)" fill="#1c7255"/>
      <path id="Path-19" data-name="Path" d="M20.83,1.6a.631.631,0,0,1,0,.08c0,.032-.007.063-.009.1,0-.072,0-.029,0,.007s-.008.043-.012.065a2.26,2.26,0,0,1-.1.338c-.02.053,0,0,0,.006l-.022.049q-.025.055-.053.109c-.038.073-.079.145-.123.215q-.036.057-.075.113l-.041.058c-.01.014-.068.089-.026.036q-.1.13-.215.252c-.085.091-.174.177-.266.26q-.066.06-.135.117l-.078.064-.04.032q-.028.022,0,0l-.028.021a7.949,7.949,0,0,1-1.912,1.032,17.308,17.308,0,0,1-3.256.869c-.743.132-1.492.23-2.243.305a9.815,9.815,0,0,0-1.705.314A11.666,11.666,0,0,0,5.648,9.057c-.534.515-1.042,1.06-1.6,1.553a4.28,4.28,0,0,1-.661.508c-.053.033-.108.064-.163.093l-.081.041c-.016.008-.112.048-.058.027a1.8,1.8,0,0,1-.334.1c-.071.013.016,0-.038.005l-.08.005c-.054,0-.107,0-.16-.005s.032.009-.039-.005l-.081-.017a1.494,1.494,0,0,1-.176-.057c-.047-.018.041.02-.005,0l-.041-.019q-.042-.02-.082-.043a1.9,1.9,0,0,1-.18-.114,2.887,2.887,0,0,1-.341-.3,4.233,4.233,0,0,1-.515-5.044A4.7,4.7,0,0,1,3.46,3.869a9.649,9.649,0,0,1,2.956-.411c1.147-.019,2.293.053,3.437.12,1.089.064,2.182.135,3.273.1a6.512,6.512,0,0,0,2.56-.466,2.475,2.475,0,0,0,.441-.262c.331-.248.658-.5.992-.744.551-.4,1.11-.8,1.695-1.156A4.745,4.745,0,0,1,20.1.449c.035-.008.069-.016.1-.022l.06-.01c-.045.006.018,0,.022,0,.037,0,.073,0,.109,0l.052,0c.059,0-.005,0,.027,0s.061.015.091.024c.049.015-.038-.021.007,0l.04.021.038.024c.042.028-.032-.03.005.005.015.014.077.089.05.051a.814.814,0,0,1,.131.367,2.921,2.921,0,0,1-.009.684.208.208,0,0,0,.207.207.212.212,0,0,0,.207-.207,1.934,1.934,0,0,0-.165-1.24A.861.861,0,0,0,20.2.011,3.682,3.682,0,0,0,18.932.5a17.267,17.267,0,0,0-1.668,1.089c-.33.237-.657.48-.982.725a5.587,5.587,0,0,1-.637.454,3.616,3.616,0,0,1-1.079.358,13.321,13.321,0,0,1-2.969.123c-1.173-.044-2.344-.136-3.517-.183a19.209,19.209,0,0,0-3.384.1A5.916,5.916,0,0,0,1.834,4.288,4.589,4.589,0,0,0,.09,7,4.8,4.8,0,0,0,.408,9.86a3.54,3.54,0,0,0,1.5,1.772,1.622,1.622,0,0,0,1.511-.056A6.532,6.532,0,0,0,4.909,10.37c.592-.581,1.17-1.178,1.8-1.724A11.356,11.356,0,0,1,9.053,7.031a9.147,9.147,0,0,1,3.208-.906A25.473,25.473,0,0,0,16.385,5.4a11.867,11.867,0,0,0,2.625-1.02,5.675,5.675,0,0,0,1.45-1.1,3.268,3.268,0,0,0,.642-1,1.933,1.933,0,0,0,.141-.615.619.619,0,0,0,0-.077C21.223,1.333,20.809,1.33,20.83,1.6Z" transform="translate(12310.137 4163.751)"/>
      <path id="Path-20" data-name="Path" d="M.313.555.34.543.367.53C.4.515.324.546.376.527A2.292,2.292,0,0,1,.638.445.8.8,0,0,1,1.247.5.655.655,0,0,1,1.481.8c.051.118.064.212.2.251.116.033.232.056.346.1a1.249,1.249,0,0,1,.687.525,1.3,1.3,0,0,1,.151.664.207.207,0,0,0,.414,0,1.715,1.715,0,0,0-.252-.945A1.945,1.945,0,0,0,1.772.644l.145.145A1.051,1.051,0,0,0,.872,0,1.813,1.813,0,0,0,.1.2C-.133.319.076.676.313.555Z" transform="translate(12320.293 4199.722)"/>
      <path id="Path-21" data-name="Path" d="M0,.346.059,5.9h0c.157.826,7.419,1.416,16.349,1.321S32.59,6.387,32.729,5.558h0L32.674,0Z" transform="translate(12303.126 4151.521)" fill="#a8542a"/>
      <path id="Path-22" data-name="Path" d="M0,.553.051,5.424l.007.686a.21.21,0,0,0,.207.207h0l-.2-.152c.078.369.657.5.955.584a15.722,15.722,0,0,0,2.267.391c2.552.306,5.132.405,7.7.466q5.037.119,10.077-.071c2.725-.1,5.458-.249,8.166-.584a23.522,23.522,0,0,0,2.542-.421,5.487,5.487,0,0,0,.769-.23,1.3,1.3,0,0,0,.479-.28.423.423,0,0,0,.112-.2l-.2.152h0a.21.21,0,0,0,.207-.207L33.1.893,33.088.207A.21.21,0,0,0,32.881,0L32,.009,29.62.034,26.107.072,21.824.117l-4.691.05-4.752.05L7.951.264,4.221.3,1.537.332c-.425,0-.851,0-1.276.013H.207a.207.207,0,0,0,0,.414L1.083.751,3.468.725,6.981.688,11.264.643l4.691-.05,4.752-.05L25.137.5l3.73-.039L31.551.428c.423,0,.853.014,1.276-.013h.054L32.674.207l.051,4.871.007.686.207-.207h0a.21.21,0,0,0-.2.152c-.013.067.019-.04-.006.017-.015.035,0,0,.008-.009-.011.011-.021.023-.032.033-.049.045.028-.01-.039.03-.036.021-.07.043-.107.062l-.06.029-.041.019-.047.019-.093.035c-.118.042-.238.078-.358.111a17.356,17.356,0,0,1-2.262.421c-2.508.342-5.045.491-7.571.6q-4.946.217-9.9.138c-2.669-.041-5.345-.13-8-.389A25.189,25.189,0,0,1,1.7,6.48a6.684,6.684,0,0,1-.818-.208C.832,6.257.787,6.24.742,6.223L.7,6.206s.043.019.01,0L.639,6.177C.607,6.161.576,6.144.546,6.126.531,6.117.517,6.106.5,6.1s.039.03-.005-.005c-.01-.008-.017-.018-.027-.026-.032-.028.016.044,0,.006-.021-.067,0,.04-.007-.016a.209.209,0,0,0-.2-.152h0l.207.207L.421,1.239.414.553A.207.207,0,0,0,0,.553Z" transform="translate(12303.126 4151.313)"/>
      <ellipse id="Oval-2" data-name="Oval" cx="16.338" cy="1.52" rx="16.338" ry="1.52" transform="matrix(1, -0.011, 0.011, 1, 12303.152, 4150.174)"/>
      <path id="Path-23" data-name="Path" d="M32.683,1.567c0-.011,0-.021.011-.032,0,0-.016.031-.018.03s.037-.035,0-.006c-.011.009-.021.02-.031.03-.04.04.014-.008,0,0-.033.022-.065.043-.1.062s-.074.038-.112.055l-.033.015c-.029.013.048-.019,0,0l-.082.032c-.116.043-.234.08-.353.114a16.509,16.509,0,0,1-2.245.426c-2.518.349-5.068.5-7.606.61q-4.985.22-9.979.139C9.454,3,6.765,2.911,4.095,2.647a23.954,23.954,0,0,1-2.527-.355A6.062,6.062,0,0,1,.78,2.084a.994.994,0,0,1-.224-.1C.525,1.971.5,1.952.466,1.934c-.047-.029,0,.006,0,0S.437,1.908.424,1.9c-.042-.035.036.039-.01-.017-.013-.016.02.057.007.014s.006.065,0,.013c0,.021,0,.028-.011.038a.255.255,0,0,1,.018-.03c.023.011-.048.032,0,0a.188.188,0,0,0,.029-.027c.038-.038-.025.016,0,0s.069-.045.1-.065.075-.038.113-.055c.053-.025,0,0,.025-.011l.09-.035a10.2,10.2,0,0,1,1.917-.437A67.392,67.392,0,0,1,9.886.629C13.174.457,16.469.4,19.761.422c2.821.023,5.648.1,8.46.338.941.079,1.883.173,2.814.332.319.054.638.116.951.2.118.031.235.066.349.107l.073.027.043.017.038.017.067.034c.032.017.062.037.093.057s-.029-.029,0,0a.154.154,0,0,0,.028.026c.056.03-.025-.026.016.023.009.011-.02-.058-.007-.014s0-.061,0-.019c.008.266.422.267.414,0-.013-.4-.581-.554-.888-.643a14.382,14.382,0,0,0-2.225-.4C27.406.207,24.8.108,22.2.047Q17.095-.075,11.987.121c-2.73.1-5.469.252-8.18.595a21.88,21.88,0,0,0-2.523.429A4.912,4.912,0,0,0,.5,1.4a.94.94,0,0,0-.427.3c-.55.833,2.02,1.112,2.354,1.161a64.716,64.716,0,0,0,7.29.539c3.386.11,6.777.1,10.164,0,2.879-.086,5.765-.227,8.629-.543.94-.1,1.882-.222,2.809-.41a4.255,4.255,0,0,0,1.515-.486.5.5,0,0,0,.26-.394A.207.207,0,0,0,32.683,1.567Z" transform="translate(12302.952 4149.781)"/>
    </g>
  </g>
</svg>
