<svg id="search___people_find_magnifier_employee_man_woman_people" data-name="search _ people, find, magnifier, employee, man, woman, people" xmlns="http://www.w3.org/2000/svg" width="425.226" height="410.129" viewBox="0 0 425.226 410.129">
  <g id="Group">
    <ellipse id="Oval" cx="63.154" cy="63.046" rx="63.154" ry="63.046" transform="translate(11.253 237.765)" fill="#fff"/>
    <path id="Path" d="M.493,71.766A64.751,64.751,0,0,0,6.017,91.031,64.06,64.06,0,1,0,63.625,0,64.666,64.666,0,0,0,43.651,3.328a63.681,63.681,0,0,0-17.317,8.939,64.847,64.847,0,0,0-13.7,13.57A63.557,63.557,0,0,0,.493,71.766a.933.933,0,0,0,.9.9.908.908,0,0,0,.9-.9,62.251,62.251,0,1,1,123.622-.684,61.339,61.339,0,0,1-4.958,18.11,62.183,62.183,0,0,1-42.037,35.115,63.083,63.083,0,0,1-19.614,1.625A62.2,62.2,0,0,1,2.3,71.766a.934.934,0,0,0-.9-.9A.908.908,0,0,0,.493,71.766Z" transform="translate(10.342 236.856)"/>
    <ellipse id="Oval-2" data-name="Oval" cx="52.213" cy="52.124" rx="52.213" ry="52.124" transform="translate(22.194 248.687)" fill="#ea2f2f"/>
    <path id="Path-2" data-name="Path" d="M.407,59.49A53.788,53.788,0,0,0,5,75.515,53.118,53.118,0,1,0,52.761,0,53.619,53.619,0,0,0,36.175,2.767,52.78,52.78,0,0,0,21.8,10.2a53.868,53.868,0,0,0-11.294,11.19,52.68,52.68,0,0,0-10.1,38.1.932.932,0,0,0,.9.9.909.909,0,0,0,.9-.9,51.311,51.311,0,1,1,101.9-.616,50.469,50.469,0,0,1-4.078,14.932,51.257,51.257,0,0,1-34.665,28.972,52,52,0,0,1-16.2,1.337A51.283,51.283,0,0,1,2.215,59.49a.932.932,0,0,0-.9-.9A.909.909,0,0,0,.407,59.49Z" transform="translate(21.285 247.779)"/>
    <path id="Path-3" data-name="Path" d="M52.7,2.223A13.276,13.276,0,0,0,40.1,1.08L27.122,6.661,13.6,13.794l-.526.23C8.243,16.13,0,23.6,0,28.858v11a52.042,52.042,0,0,0,28.713,4.561h0c.532-.066,1.061-.143,1.587-.225.157-.024.314-.051.471-.077q.577-.095,1.149-.2c.159-.03.318-.059.476-.09q.707-.139,1.407-.3l.141-.031c.513-.117,1.022-.243,1.528-.375.141-.037.281-.076.421-.113q.566-.152,1.126-.316l.45-.133q.645-.2,1.282-.406l.2-.066q.741-.249,1.469-.52c.119-.044.237-.09.355-.135q.561-.212,1.115-.436l.412-.168q.6-.249,1.194-.513c.075-.033.151-.065.226-.1q.711-.32,1.41-.66l.27-.135q.564-.278,1.119-.57l.361-.191q.57-.3,1.132-.623c.072-.041.145-.08.217-.122q.681-.39,1.348-.8l.165-.1q.574-.356,1.138-.726l.3-.2q.545-.363,1.081-.739l.192-.134q.648-.46,1.281-.937l.042-.032q.592-.448,1.168-.914l.237-.192q.522-.425,1.033-.862l.16-.136q1.191-1.029,2.316-2.127l.173-.17q.495-.487.977-.987l.13-.134q1.1-1.146,2.122-2.357l.114-.136q.463-.55.911-1.113l.1-.129q.992-1.255,1.906-2.568l.065-.1q.423-.611.829-1.234l.083-.127q.876-1.353,1.669-2.76l.027-.049q.375-.668.731-1.349l.069-.131q.748-1.439,1.409-2.927h0Z" transform="translate(52.162 308.114)" fill="#ffc41f"/>
    <path id="Path-4" data-name="Path" d="M54.08,2.318A14.356,14.356,0,0,0,40.569,1.175c-1.557.664-3.111,1.338-4.667,2.007-3.213,1.382-6.518,2.628-9.613,4.261C22.274,9.56,18.268,11.7,14.243,13.8c-.778.406-1.59.727-2.352,1.172a30.477,30.477,0,0,0-4.418,3.2C4.67,20.566,1.91,23.51.57,27c-.731,1.905-.55,3.952-.55,5.952v7.779a.889.889,0,0,0,.448.779A53.147,53.147,0,0,0,67.025,23.479c.887-1.295,1.719-2.626,2.487-3.995.807-1.439,1.472-2.935,2.209-4.407a.927.927,0,0,0-.324-1.235l-5.83-3.88L56.219,3.742,54.08,2.318c-.971-.646-1.877.917-.913,1.559L59,7.756l9.348,6.221L70.484,15.4l-.324-1.235c-.622,1.242-1.176,2.512-1.839,3.736s-1.383,2.433-2.149,3.606A51.325,51.325,0,0,1,1.381,39.954l.448.779V35.121c0-1.862-.071-3.739,0-5.6a8.766,8.766,0,0,1,1.482-3.986,23.7,23.7,0,0,1,3.46-4.261,27.276,27.276,0,0,1,8.036-5.753c1.356-.609,2.655-1.385,3.968-2.078L25.81,9.735c.965-.509,1.919-1.087,2.923-1.519l5.748-2.472L40.867,3A12.95,12.95,0,0,1,50.16,2.4a12.683,12.683,0,0,1,3.008,1.473C54.143,4.516,55.05,2.954,54.08,2.318Z" transform="translate(51.237 307.239)"/>
    <path id="Path-5" data-name="Path" d="M34.8,57.385l.006-12.844c2.379-1.069,4.165-2.488,4.975-4.245C43.776,31.637,39.8.016,39.8.016L2.513,0S-3.129,31.162,2.5,40.279C4.4,43.368,8.839,45.358,14.029,46.3l0,11.071" transform="translate(332.374 172.158)" fill="#fc7f3a"/>
    <path id="Path-6" data-name="Path" d="M36.605,58.287l0-11.257V45.443l-.448.779c2.269-1.035,4.454-2.562,5.454-4.925a16.974,16.974,0,0,0,1.026-3.736,61.952,61.952,0,0,0,.72-10.4,208.344,208.344,0,0,0-1.23-21.441c-.162-1.6-.33-3.2-.53-4.8a.927.927,0,0,0-.9-.9L28.043.011,8.013,0l-4.6,0a.913.913,0,0,0-.872.663c-.271,1.5-.5,3-.72,4.5C1.293,8.746.854,12.338.53,15.94A111.2,111.2,0,0,0,.016,28.683,34.068,34.068,0,0,0,1.582,39.436a10.253,10.253,0,0,0,3.16,4.588,19.878,19.878,0,0,0,7.629,3.548c.765.2,1.538.362,2.315.506l-.664-.87,0,9.682v1.389a.9.9,0,0,0,1.808,0l0-9.682V47.207a.912.912,0,0,0-.664-.87A23.125,23.125,0,0,1,7.131,43.52a9.566,9.566,0,0,1-2.582-2.241,7.464,7.464,0,0,1-.645-1.02q-.094-.175-.181-.355-.053-.11-.1-.221c-.013-.029-.146-.334-.075-.166A28.332,28.332,0,0,1,1.851,29.54a103.77,103.77,0,0,1,.385-12.419q.242-2.93.586-5.85c.2-1.689.394-3.21.622-4.811.253-1.776.518-3.552.837-5.317l-.872.663,12.656.006L36.1,1.82l4.6,0-.9-.9c.538,4.287.924,8.6,1.234,12.906.271,3.766.465,7.54.515,11.316A77.805,77.805,0,0,1,41.1,35.77c-.074.6-.219,1.492-.369,2.211a16.918,16.918,0,0,1-.553,2.057c-.048.138-.1.275-.151.411-.025.066-.052.131-.079.2.085-.205,0-.01-.017.035a6.147,6.147,0,0,1-.972,1.484,11.175,11.175,0,0,1-3.706,2.5.887.887,0,0,0-.448.779l0,11.257v1.587a.9.9,0,0,0,1.808,0Z" transform="translate(331.478 171.255)"/>
    <path id="Path-7" data-name="Path" d="M33.059,44.717a6.307,6.307,0,0,1,6.2,6.216l.118,8.758c0-4.858,3.861-11.434,7.349-11.433s6.168,1.176,6.166,6.161c0,3.3-2.774,9.05-4.7,10.554l6.459,8.213C75.943,64.08,74.135,34,74.135,34,73.982,16.659,54.109,0,36.742,0H35.56C18.085,0,0,14.745,0,32.191H0A12.188,12.188,0,0,0,11.429,44.345Z" transform="translate(317.962 138.178)" fill="#a8542a"/>
    <path id="Path-8" data-name="Path" d="M33.97,46.535a5.477,5.477,0,0,1,5.3,5.491c.033,2.114.057,4.228.085,6.342l.03,2.238a.9.9,0,0,0,1.808,0,13.954,13.954,0,0,1,2.285-7.149c1.04-1.652,2.568-3.429,4.539-3.377,1.782.048,3.486.492,4.313,2.137,1.031,2.052.545,4.583-.156,6.647a21.524,21.524,0,0,1-1.754,3.854,8.77,8.77,0,0,1-1.96,2.531.921.921,0,0,0,0,1.276l5.659,7.2.8,1.016a.921.921,0,0,0,1.1.141A29.9,29.9,0,0,0,70.489,61.067a49.73,49.73,0,0,0,5-16.8,56.392,56.392,0,0,0,.471-9.225,28.6,28.6,0,0,0-1.7-9.025A36.4,36.4,0,0,0,67.871,15.3,44.334,44.334,0,0,0,46.508,1.309,36.3,36.3,0,0,0,23.375,2.592,39.086,39.086,0,0,0,4.156,18.582,29.417,29.417,0,0,0,.174,30.192,17.086,17.086,0,0,0,.4,36.3a13.184,13.184,0,0,0,2.784,5.339,13,13,0,0,0,9.261,4.521c1.669.053,3.342.058,5.012.086l15.45.266,1.061.018a.9.9,0,0,0,0-1.805l-11.984-.206L14.5,44.4a15.826,15.826,0,0,1-5.215-.673,11.363,11.363,0,0,1-7.162-7.971A15.99,15.99,0,0,1,2,30.04a26.044,26.044,0,0,1,1.387-5.662C6.131,16.8,12.125,10.606,19.058,6.652a36.026,36.026,0,0,1,22-4.629c8.056.957,15.724,5.1,21.652,10.512,5.76,5.262,10.558,12.4,11.327,20.328A47.876,47.876,0,0,1,74,41.11a55.732,55.732,0,0,1-.954,6.962,49.58,49.58,0,0,1-2.359,8.211A30.7,30.7,0,0,1,59.6,70.883a27.73,27.73,0,0,1-4.5,2.439l1.1.141-5.659-7.2-.8-1.016v1.276a9.738,9.738,0,0,0,2.1-2.648A23.937,23.937,0,0,0,53.71,59.93c.94-2.523,1.473-5.429.449-8.018-.914-2.309-2.963-3.364-5.343-3.589a5.6,5.6,0,0,0-3.269.516,9.052,9.052,0,0,0-2.853,2.6,15.785,15.785,0,0,0-3.307,9.172h1.808l-.081-6.013c-.012-.881-.021-1.762-.036-2.643a7.227,7.227,0,0,0-7.108-7.22A.9.9,0,0,0,33.97,46.535Z" transform="translate(317.052 137.263)"/>
    <path id="Path-9" data-name="Path" d="M1.353,2.675a4.46,4.46,0,0,1,.534-.291c.069-.033.393-.166.156-.074.106-.041.211-.083.318-.122a7.5,7.5,0,0,1,.881-.255c.161-.036.324-.067.487-.092.079-.012.174-.022.384-.036a6.773,6.773,0,0,1,1.158.021,6.567,6.567,0,0,1,2.453.852.9.9,0,0,0,.913-1.559,8.131,8.131,0,0,0-5.7-.963,7.161,7.161,0,0,0-2.495.96A.923.923,0,0,0,.116,2.351a.914.914,0,0,0,1.237.324Z" transform="translate(345.022 188.344)"/>
    <path id="Path-10" data-name="Path" d="M1.358,2.316c.064-.029.146-.035-.117.049.073-.023.144-.056.215-.082a7.8,7.8,0,0,1,.761-.227,9.034,9.034,0,0,1,2.488-.245A3.483,3.483,0,0,1,7.987,4.174a5.613,5.613,0,0,1-.68,4.054A12.1,12.1,0,0,1,5.74,10.6a3.324,3.324,0,0,0-.889,1.223,2.712,2.712,0,0,0-.02,1.087c.322,1.795,2.41,1.87,3.85,1.7a.931.931,0,0,0,.9-.9.909.909,0,0,0-.9-.9,4.364,4.364,0,0,1-1.947-.06c-.027-.011-.145-.161-.1-.064a.775.775,0,0,1-.017-.495l-.232.4a14.315,14.315,0,0,0,2.748-4.01,7.834,7.834,0,0,0,.8-3.845A5.245,5.245,0,0,0,8.015,1.175,6.025,6.025,0,0,0,3.737.018,9.278,9.278,0,0,0,.446.757.909.909,0,0,0,.121,1.992a.926.926,0,0,0,1.237.324Z" transform="translate(332.064 188.404)"/>
    <path id="Path-11" data-name="Path" d="M.9,3.877a5.823,5.823,0,0,0,3.355-1.3A3.753,3.753,0,0,0,5.21,1.358.9.9,0,0,0,3.649.447c-.043.089-.089.176-.141.26a.913.913,0,0,1-.16.238c-.015.012.139-.168.075-.1C3.409.864,3.4.882,3.382.9q-.048.057-.1.112-.093.1-.194.192-.046.042-.093.082c-.027.023-.174.138-.036.033s.008-.008-.023.014-.077.054-.116.08a4.221,4.221,0,0,1-.443.253c-.074.036-.149.069-.223.1-.054.025.229-.092.08-.035l-.118.045q-.207.077-.42.136a5.833,5.833,0,0,1-.7.151l-.069.01a1.348,1.348,0,0,0,.163-.022l-.1.012L.9,2.072a.9.9,0,1,0,0,1.805Z" transform="translate(342.755 202.552)"/>
    <path id="Path-12" data-name="Path" d="M1.776,7.322a19.369,19.369,0,0,1,.711-2.135c.056-.143.114-.284.173-.426-.077.186-.013.031.025-.056s.073-.164.111-.246c.139-.3.287-.6.449-.893a8.76,8.76,0,0,1,.515-.826c.017-.024.173-.234.08-.113s.065-.079.085-.1A4.4,4.4,0,0,1,4.231,2.2c.06-.058.127-.11.187-.168.093-.09-.067.045-.068.05.006-.022.08-.059.1-.07.059-.037.116-.076.178-.111l.08-.043c.146-.083.022.044-.053.018.028.01.154-.053.187-.061s.057-.012.084-.02c.152-.046-.056.027-.091.009a.8.8,0,0,0,.217-.007c.223,0-.2-.044.025,0a.926.926,0,0,0,1.112-.63A.911.911,0,0,0,5.553.056c-1.6-.332-2.794.868-3.581,2.111A16.64,16.64,0,0,0,.3,5.952c-.1.295-.188.591-.267.891a.9.9,0,0,0,1.744.48Z" transform="translate(360.109 191.228)"/>
    <ellipse id="Oval-3" data-name="Oval" cx="1.31" cy="1.308" rx="1.31" ry="1.308" transform="translate(334.747 193.338)"/>
    <path id="Path-13" data-name="Path" d="M2.618,1.758c0,.037,0,.073,0,.109,0,.085,0,0,0-.013a1.725,1.725,0,0,1-.041.171c-.01.033-.022.066-.035.1.006-.015.042-.084,0-.013s-.067.118-.105.176c-.057.086.046-.033,0,0a.563.563,0,0,0-.057.063c-.022.022-.155.133-.062.064a1.367,1.367,0,0,1-.143.093l-.061.032c-.075.043.074-.019-.035.015-.056.017-.111.035-.169.047-.028.006-.108.013,0,0l-.09.007c-.061,0-.121,0-.182-.005s.107.024,0,0c-.035-.008-.069-.015-.1-.024s-.066-.021-.1-.032-.066-.039.012.006c-.05-.028-.1-.051-.151-.082-.024-.015-.046-.034-.071-.048-.056-.033.073.071,0,0-.048-.048-.095-.1-.143-.146.062.062.023.033.008.01s-.038-.056-.056-.086S.937,2.013.979,2.122a1.415,1.415,0,0,1-.054-.166C.92,1.933.915,1.91.91,1.887c-.021-.09,0,.081,0-.04a1.32,1.32,0,0,1,0-.164c0-.025.024-.136,0-.023,0-.023.008-.046.013-.069.013-.057.032-.112.049-.168C1,1.317.92,1.5.976,1.405c.017-.03.032-.061.049-.09s.031-.048.046-.072.068-.077,0,0c.038-.042.075-.084.117-.123,0,0,.086-.078.032-.031s.032-.022.037-.025a1.7,1.7,0,0,1,.18-.1c-.014.007-.09.032-.012.006.033-.011.066-.023.1-.032L1.595.916s.119-.022.045-.01.043,0,.047,0c.03,0,.061,0,.091,0s.061,0,.091,0c.1,0-.071-.02.022,0,.068.017.135.035.2.057.1.032-.045-.036,0,0a1.057,1.057,0,0,0,.106.057l.058.037.056.039q-.07-.054-.012-.006l.12.12c.079.078-.047-.077.014.016.019.029.038.056.056.086s.032.061.049.09c.046.08-.022-.077.009.019.022.067.039.134.056.2.006.024.006.084,0-.014,0,.048.007.1.008.145a.452.452,0,0,0,.9,0A1.788,1.788,0,0,0,2.35.1,1.756,1.756,0,1,0,3.521,1.758a.452.452,0,0,0-.9,0Z" transform="translate(334.297 192.888)"/>
    <ellipse id="Oval-4" data-name="Oval" cx="1.31" cy="1.308" rx="1.31" ry="1.308" transform="translate(347.084 193.344)"/>
    <path id="Path-14" data-name="Path" d="M2.618,1.758c0,.037,0,.073,0,.109,0,.085,0,0,0-.013a1.724,1.724,0,0,1-.041.171c-.01.033-.022.066-.035.1.006-.015.042-.084,0-.013s-.067.118-.105.176c-.057.086.046-.033,0,0a.563.563,0,0,0-.057.063c-.022.022-.155.133-.062.064a1.368,1.368,0,0,1-.143.093l-.061.032c-.075.043.074-.019-.035.015-.056.017-.111.035-.169.047-.028.006-.108.013,0,0-.03,0-.06.005-.09.007-.061,0-.121,0-.182,0s.107.024,0,0c-.035-.008-.069-.015-.1-.024s-.066-.022-.1-.032-.066-.039.012.006c-.05-.028-.1-.051-.151-.082-.024-.015-.046-.034-.071-.048-.056-.033.073.071,0,0-.048-.048-.095-.1-.143-.146.062.062.023.033.008.01s-.038-.056-.056-.086S.937,2.013.979,2.122a1.42,1.42,0,0,1-.054-.166C.92,1.933.915,1.91.91,1.887c-.021-.09,0,.081,0-.04a1.32,1.32,0,0,1,0-.164c0-.025.024-.136,0-.023,0-.023.008-.046.013-.069.013-.057.032-.112.049-.168C1,1.317.92,1.5.976,1.405c.017-.03.032-.061.049-.09s.031-.048.046-.072.068-.077,0,0c.038-.042.075-.084.117-.123,0,0,.086-.078.032-.031s.032-.022.037-.025a1.711,1.711,0,0,1,.18-.1c-.014.007-.09.032-.012.006.033-.011.066-.023.1-.032L1.595.916s.119-.022.045-.01.043,0,.047,0c.03,0,.061,0,.091,0s.061,0,.091,0c.1,0-.071-.02.022,0,.068.017.135.035.2.057.1.032-.045-.036,0,0a1.071,1.071,0,0,0,.106.057l.058.037.056.039q-.07-.054-.012-.006l.12.12c.079.078-.047-.077.014.016.019.029.038.056.056.086s.032.061.049.09c.046.08-.022-.077.009.019.022.067.039.134.056.2.006.024.006.084,0-.014,0,.048.007.1.008.145a.452.452,0,0,0,.9,0A1.788,1.788,0,0,0,2.35.1,1.756,1.756,0,1,0,3.521,1.758a.452.452,0,0,0-.9,0Z" transform="translate(346.634 192.894)"/>
    <path id="Path-15" data-name="Path" d="M.005,9.1S-.586,1.409,10.715,0c9.523,2.139-.366,11.872-.366,11.872Z" transform="translate(161.556 181.302)" fill="#fc7f3a"/>
    <path id="Path-16" data-name="Path" d="M1.817,9.976a4.458,4.458,0,0,1,.022-.738c.005-.055.013-.11.017-.165.02-.225-.03.168,0,.015s.05-.3.082-.452a7.838,7.838,0,0,1,.291-1.02c.035-.1.072-.191.109-.286.053-.134-.059.114.049-.11.1-.2.2-.406.307-.6s.218-.37.338-.548q.106-.158.22-.31c.087-.117-.074.093.018-.024.046-.058.093-.115.14-.172a8.871,8.871,0,0,1,2.75-2.18,15.581,15.581,0,0,1,4.81-1.5,2.168,2.168,0,0,1,1.137.059,6.325,6.325,0,0,1,.993.374,3.688,3.688,0,0,1,1.258.931A2.747,2.747,0,0,1,14.789,5.5a8.423,8.423,0,0,1-1.228,2.893,18.455,18.455,0,0,1-2.944,3.722l.88-.232L2.458,9.456l-1.305-.35a.9.9,0,0,0-.481,1.741L9.065,13.1c.794.213,2.19.89,2.889.233A19.383,19.383,0,0,0,14.1,10.81c1.827-2.438,4.026-6.514,1.27-9.122A6.889,6.889,0,0,0,12.516.177,2.921,2.921,0,0,0,11.439,0c-.4.036-.811.111-1.211.181A19.438,19.438,0,0,0,8.175.653,12.689,12.689,0,0,0,2.561,3.807,8.642,8.642,0,0,0,0,9.866c0,.037,0,.074,0,.11C.095,11.127,1.9,11.137,1.817,9.976Z" transform="translate(160.648 180.423)"/>
    <path id="Path-17" data-name="Path" d="M123.628,0,85.643,55.529l-64.42-6.578L3.479,56.539a5.78,5.78,0,0,0-3.45,4.494h0a2.846,2.846,0,0,0,.309,1.748l1.531,2.856a2.846,2.846,0,0,1,.309,1.748l-.337,2.351A2.846,2.846,0,0,0,2.1,71.385l1.837,3.778a2.846,2.846,0,0,1,.182,2.01l-.258.924a2.846,2.846,0,0,0,.271,2.179l1.778,3.107h0a3.846,3.846,0,0,0,4.45,2.923l2.521-.466,10.254-9.779L85.146,89.4c26.838,4.416,29.778-9.071,40.306-25.536l40.5-58.452" transform="translate(219.974 242.397)" fill="#fc7f3a"/>
    <path id="Path-18" data-name="Path" d="M123.736.406l-3.784,5.532L110.866,19.22,99.925,35.213,90.426,49.1,87.3,53.674a19.727,19.727,0,0,0-1.478,2.161.9.9,0,0,1-.068.1l.781-.447-6.211-.634-14.987-1.53L47.12,51.464,30.969,49.814c-2.844-.29-5.692-.65-8.542-.872a4.837,4.837,0,0,0-2.157.684l-7.258,3.1-7.491,3.2c-.524.224-1.053.441-1.574.673a6.76,6.76,0,0,0-3.649,4,4.382,4.382,0,0,0-.009,3.148c.207.488.484.95.734,1.416.588,1.1,1.287,2.042,1.1,3.33-.215,1.5-.536,2.87.137,4.31.525,1.123,1.085,2.231,1.626,3.346.721,1.483-.422,2.875-.046,4.433a14.883,14.883,0,0,0,1.85,3.542c.1.178.206.355.306.534-.043-.078-.107-.287-.013.046a4.883,4.883,0,0,0,.345.86A4.725,4.725,0,0,0,8.56,87.7c1.545.7,3.07.317,4.65.025a2.507,2.507,0,0,0,1.213-.4c.168-.131.317-.3.471-.449l2.44-2.327,6.127-5.843,1.2-1.144-.88.232,10.18,2.189L56,84.724l21.461,4.615A122.35,122.35,0,0,0,89.82,91.686c5.032.552,10.315.551,15.167-1.065a23.085,23.085,0,0,0,9.652-6.342c5.243-5.677,8.285-12.924,12.591-19.257,2.176-3.2,4.409-6.363,6.613-9.543l12.774-18.436,13.053-18.837,7.587-10.95.366-.528c.664-.958-.9-1.861-1.561-.911L161.9,11.827,151.9,26.248l-11.916,17.2L129.906,58c-1.447,2.088-2.933,4.155-4.343,6.268-4.093,6.135-7.08,13.134-12.1,18.623a21.353,21.353,0,0,1-7.939,5.625,29.833,29.833,0,0,1-12.245,1.642A72.955,72.955,0,0,1,81.19,88.3L64.461,84.7,44.073,80.314,28.187,76.9c-1.2-.259-2.4-.527-3.61-.776a1.274,1.274,0,0,0-1.225.192c-.684.543-1.29,1.23-1.921,1.832L14.45,84.8l-1.03.982a1.3,1.3,0,0,0-.237.226c-.108.193.6-.169.157-.145-1.713.093-3.275,1.071-4.79-.315a6.777,6.777,0,0,1-1.128-2.032c-.379-.681-.775-1.354-1.162-2.03A3.035,3.035,0,0,1,5.619,79.2a6.181,6.181,0,0,0,.317-2.68,18.378,18.378,0,0,0-1.812-4,3.309,3.309,0,0,1-.515-1.739c.05-.7.2-1.4.3-2.092.25-1.769-.566-3.014-1.363-4.5a3.983,3.983,0,0,1-.75-2.04,4.72,4.72,0,0,1,1.612-3.092,8.419,8.419,0,0,1,2.4-1.3l3.438-1.47,9.361-4,3.223-1.379a4.391,4.391,0,0,0,.686-.293c.14-.093-.563,0-.331.109a3.523,3.523,0,0,0,.939.1l1.92.2,6.281.641,18.884,1.928,20.4,2.083L84.52,57.088l2.011.205a.9.9,0,0,0,.781-.447L91.1,51.314l9.086-13.282,10.941-15.994,9.5-13.886c1.525-2.229,3.228-4.413,4.608-6.736.02-.034.045-.066.068-.1.658-.962-.908-1.866-1.561-.911Z" transform="translate(219.086 241.535)"/>
    <path id="Path-19" data-name="Path" d="M0,78.213,64.13,0" transform="translate(327.994 249.992)" fill="#fc7f3a"/>
    <path id="Path-20" data-name="Path" d="M1.533,79.751l1.72-2.1,4.658-5.681,6.914-8.432,8.4-10.249,9.239-11.268,9.291-11.331,8.7-10.606,7.322-8.929,5.285-6.446c.831-1.014,1.668-2.025,2.495-3.042l.108-.132a.928.928,0,0,0,0-1.276.912.912,0,0,0-1.278,0l-1.72,2.1L58.007,8.04l-6.914,8.432L42.69,26.72,33.451,37.988,24.16,49.319l-8.7,10.606L8.142,68.854,2.857,75.3c-.831,1.014-1.668,2.025-2.495,3.042l-.108.132a.928.928,0,0,0,0,1.276.912.912,0,0,0,1.278,0Z" transform="translate(327.101 249.093)"/>
    <path id="Path-21" data-name="Path" d="M37.985,0,0,55.528,28.393,77.667" transform="translate(305.617 242.397)"/>
    <path id="Path-22" data-name="Path" d="M38.109.406l-3.79,5.541L25.25,19.2,14.285,35.233l-9.5,13.89L1.671,53.673C1.179,54.391.646,55.1.19,55.838c-.02.033-.044.065-.066.1a.9.9,0,0,0,.141,1.094l9.608,7.491,15.3,11.927,3.489,2.72a.935.935,0,0,0,1.278,0,.907.907,0,0,0,0-1.276L20.329,70.4,5.032,58.472l-3.489-2.72.141,1.094L5.475,51.3l9.069-13.257L25.509,22.018l9.5-13.89,3.112-4.549c.492-.719,1.024-1.423,1.481-2.165.02-.033.044-.065.066-.1.658-.962-.908-1.866-1.561-.911Z" transform="translate(304.712 241.536)"/>
    <path id="Path-23" data-name="Path" d="M8.654,0,.154,1.273s-1.778,9.783,6.755,12.859C15.2,17.119,8.654,0,8.654,0Z" transform="translate(327.991 326.778)"/>
    <path id="Path-24" data-name="Path" d="M9.328.028.828,1.3a.871.871,0,0,0-.631.63A14.967,14.967,0,0,0,.324,7.445a11.006,11.006,0,0,0,6.2,8.024,5.789,5.789,0,0,0,4.107.644,3.321,3.321,0,0,0,2.05-2.394c.665-2.434.022-5.239-.563-7.623A46.016,46.016,0,0,0,10.441.658.93.93,0,0,0,9.329.028.909.909,0,0,0,8.7,1.138c.505,1.323.93,2.682,1.312,4.046a21.2,21.2,0,0,1,1.093,7c-.008.128-.019.255-.031.382,0,.049-.011.1-.017.148.03-.232,0,.009-.011.048a6.118,6.118,0,0,1-.16.664c-.02.061-.152.375-.044.141-.042.092-.086.182-.136.27s-.1.165-.159.244c.154-.219-.051.038-.1.093-.173.193.072-.021-.077.069-.073.044-.146.085-.219.127-.171.1.2-.058,0,0-.038.011-.074.028-.113.037-.074.017-.445.074-.191.052a3.587,3.587,0,0,1-.715-.009c.2.023-.148-.03-.206-.042-.163-.035-.325-.078-.485-.126a9.152,9.152,0,0,1-6.18-6.49,12.753,12.753,0,0,1-.439-3.826c.009-.43.034-.86.081-1.288.007-.067.018-.134.024-.2.013-.148-.094.231-.008.064a.544.544,0,0,0,.021-.133l-.631.63,8.5-1.273a.909.909,0,0,0,.631-1.11A.927.927,0,0,0,9.328.028Z" transform="translate(327.076 325.88)"/>
    <path id="Path-25" data-name="Path" d="M.672,0S15.662.986,18.406,9.207,0,22.062,0,22.062" transform="translate(396.836 308.844)"/>
    <path id="Path-26" data-name="Path" d="M1.561,1.807c.172.011.344.028.516.045q.308.03.617.067l.354.044.105.014L3.3,2a39.355,39.355,0,0,1,4.589.931c3.481.934,7.444,2.471,9.553,5.517a6.909,6.909,0,0,1,1.093,2.307c.02.084.089.491.067.312a4.312,4.312,0,0,1,.03.541,4.459,4.459,0,0,1-.028.454c.021-.194-.046.226-.068.316a4.718,4.718,0,0,1-.143.471c-.026.072-.053.143-.083.214.067-.16-.026.049-.052.1a6.736,6.736,0,0,1-.512.854,2.2,2.2,0,0,1-.241.312c-.121.142-.244.282-.372.417a11.151,11.151,0,0,1-.815.773c-2.486,2.143-5.922,3.555-9.068,4.658-2.139.75-4.315,1.293-6.494,1.9-.037.01-.075.017-.112.025-1.136.249-.655,1.99.481,1.741a56.591,56.591,0,0,0,5.819-1.651A33.636,33.636,0,0,0,16.981,17.3a9.315,9.315,0,0,0,3.063-3.722,5.8,5.8,0,0,0-.275-4.7c-1.734-3.824-5.9-5.939-9.7-7.183A36.206,36.206,0,0,0,4.819.419,25.365,25.365,0,0,0,1.71.014c-.05,0-.1-.008-.15-.011C.4-.075.4,1.731,1.561,1.807Z" transform="translate(395.946 307.939)"/>
    <path id="Path-27" data-name="Path" d="M63.141,115.1,85.762,56.817,75.22,0S48.578,14.724,39,35.237c-2.858,6.124-26.646,41.9-39,80.06" transform="translate(289.234 292.965)" fill="#fff"/>
    <path id="Path-28" data-name="Path" d="M64.933,116.238l2.1-5.4,5.09-13.113,6.3-16.232L84.082,66.9l3.241-8.35a2.074,2.074,0,0,0,.194-1.275c-.16-.894-.332-1.787-.5-2.68L84.73,42.256,81.59,25.337l-2.9-15.63-1.6-8.649-.074-.4A.913.913,0,0,0,75.683.119c-1.246.689-2.459,1.444-3.662,2.206q-4.577,2.9-8.889,6.19a109.681,109.681,0,0,0-11.048,9.562,71.392,71.392,0,0,0-10,12.255c-1.67,2.642-2.931,5.491-4.48,8.2-1.616,2.825-3.288,5.617-4.932,8.426q-3.57,6.1-7.017,12.273Q21.437,66.822,17.5,74.566c-2.926,5.785-5.713,11.642-8.314,17.58-2.738,6.25-5.279,12.588-7.531,19.029q-.833,2.381-1.61,4.78c-.359,1.108,1.386,1.582,1.744.48a279.9,279.9,0,0,1,15.3-37c4.828-9.821,10.088-19.424,15.581-28.889,1.827-3.148,3.685-6.277,5.519-9.421.585-1,1.169-2.008,1.729-3.025.6-1.09,1.107-2.224,1.684-3.326,4.728-9.034,12.184-16.491,20.063-22.837A111.325,111.325,0,0,1,76.362,1.81l.234-.132-1.328-.539L76.319,6.8l2.523,13.6,3.04,16.384L84.511,50.95l.87,4.687c.136.735.227,1.5.412,2.223.008.031.012.064.018.1v-.48l-2.252,5.8L78.151,77.21l-6.54,16.85-5.65,14.555-1.85,4.765c-.293.754-.637,1.507-.884,2.278-.011.033-.026.066-.038.1a.909.909,0,0,0,.631,1.11.925.925,0,0,0,1.112-.63Z" transform="translate(288.314 292.066)"/>
    <path id="Path-29" data-name="Path" d="M47.007,0A359.8,359.8,0,0,0,26.7,30.232C24.336,34.209,8.461,58.916,0,85.043" transform="translate(298.378 324.101)" fill="#fff"/>
    <path id="Path-30" data-name="Path" d="M47.147.44C44.895,3.4,42.739,6.428,40.609,9.472Q33.351,19.845,26.825,30.7c-1.934,3.233-3.924,6.43-5.815,9.689-3.509,6.048-6.829,12.207-9.9,18.487A212.3,212.3,0,0,0,1.069,82.655Q.543,84.171.049,85.7c-.36,1.108,1.386,1.582,1.744.48A197.077,197.077,0,0,1,11.454,62.3c3.13-6.568,6.535-13,10.149-19.318,2.087-3.646,4.267-7.233,6.452-10.821C32.112,25.5,36.271,18.919,40.7,12.5q2.582-3.743,5.254-7.424c.869-1.2,1.787-2.36,2.636-3.569.037-.052.077-.1.115-.152A.907.907,0,0,0,48.384.116a.927.927,0,0,0-1.237.324Z" transform="translate(297.458 323.206)" fill="#458dc9"/>
    <path id="Path-31" data-name="Path" d="M0,39.9,15.487,0" transform="translate(341.606 369.108)" fill="#fff"/>
    <path id="Path-32" data-name="Path" d="M1.775,41.04l1.542-3.972,3.7-9.537,4.457-11.484,3.873-9.98,1.282-3.3c.2-.513.443-1.028.6-1.555.007-.024.018-.047.027-.07A.909.909,0,0,0,16.63.028a.925.925,0,0,0-1.112.63L13.976,4.63l-3.7,9.537L5.817,25.652l-3.873,9.98-1.282,3.3c-.2.513-.443,1.028-.6,1.555-.007.024-.018.047-.027.07a.909.909,0,0,0,.631,1.11.925.925,0,0,0,1.112-.63Z" transform="translate(340.703 368.209)" fill="#458dc9"/>
    <path id="Path-33" data-name="Path" d="M0,55.958,22.9,0" transform="translate(328.208 350.576)" fill="#fff"/>
    <path id="Path-34" data-name="Path" d="M1.775,57.1,4.06,51.512,9.526,38.159l6.609-16.147,5.73-14,1.877-4.585c.3-.725.648-1.449.9-2.192.011-.032.026-.064.039-.1a.908.908,0,0,0-.631-1.11.927.927,0,0,0-1.112.63L20.649,6.242,15.184,19.6,8.575,35.742l-5.73,14L.968,54.329c-.3.725-.648,1.449-.9,2.192-.011.032-.026.064-.039.1a.908.908,0,0,0,.631,1.11.927.927,0,0,0,1.112-.63Z" transform="translate(327.304 349.678)" fill="#458dc9"/>
    <path id="Path-35" data-name="Path" d="M15.066,112.216C7.6,77.553,4.495,43.23,3.616,37.305L0,10.229,51.834,0,63.142,31.694a110.886,110.886,0,0,1,5.783,25.134l6.093,55.388" transform="translate(349.303 295.521)" fill="#fff"/>
    <path id="Path-36" data-name="Path" d="M16.842,112.873c-2.471-11.492-4.511-23.075-6.271-34.7C9.194,69.076,8,59.949,6.918,50.808c-.345-2.921-.675-5.843-1.015-8.764-.109-.937-.218-1.874-.338-2.81-.049-.386-.1-.772-.156-1.157-.038-.248.031.238.01.086-.007-.054-.014-.108-.022-.162q-.885-6.613-1.767-13.226L1.84,11.359l-.031-.234L1.145,12l5.167-1.02,12.4-2.448L33.659,5.579,46.58,3.029l4.278-.844c.667-.132,1.378-.21,2.031-.4.029-.008.059-.012.089-.017l-1.112-.63,2.239,6.277,4.612,12.928,3.816,10.7a126.26,126.26,0,0,1,4.406,14.816,121.718,121.718,0,0,1,2.144,13.323l.922,8.38,1.428,12.978L72.99,94.681l1.31,11.9.688,6.25.031.28a.93.93,0,0,0,.9.9.909.909,0,0,0,.9-.9l-.485-4.407-1.19-10.819L73.614,83.914,72.122,70.35l-1.078-9.795c-.311-2.83-.622-5.658-1.073-8.471a113.628,113.628,0,0,0-5.227-20.22l-3.15-8.83L56.882,9.828,53.769,1.1,53.61.657A.932.932,0,0,0,52.5.027l-5.167,1.02-12.4,2.448L19.983,6.443,7.062,8.992l-4.278.844c-.673.133-1.367.23-2.031.4-.029.007-.059.012-.089.017a.9.9,0,0,0-.664.87L1.535,22.617,3.51,37.407c.05.377.1.754.153,1.131l.057.408c-.044-.321,0-.026.007.052l.041.318q.081.64.157,1.282c.316,2.646.611,5.3.919,7.942C5.863,57.3,6.978,66.052,8.252,74.78c1.67,11.445,3.6,22.857,5.925,34.188q.45,2.194.922,4.384c.244,1.135,1.988.655,1.744-.48Z" transform="translate(348.399 294.624)"/>
    <path id="Path-37" data-name="Path" d="M13.827,94.759C8.833,71.563,3.008,28.929,2.42,24.964L0,6.845,34.686,0l7.567,21.209a74.2,74.2,0,0,1,3.87,16.819L52.1,95.36" transform="translate(363.201 312.978)" fill="#fff"/>
    <path id="Path-38" data-name="Path" d="M15.6,95.416c-1.612-7.5-2.951-15.051-4.229-22.61Q9.339,60.76,7.543,48.675,6.177,39.6,4.892,30.517c-.212-1.493-.421-2.987-.636-4.48-.024-.165-.089-.625-.031-.2l-.067-.5L3.8,22.691,1.853,8.082l-.045-.34-.664.87L12.935,6.286,31.57,2.608l4.26-.841-1.112-.63,2.39,6.7,3.974,11.137a108,108,0,0,1,3.435,10.85A78.73,78.73,0,0,1,46.256,40.2l.7,6.7,1.108,10.627,1.285,12.327,1.25,11.99.982,9.415c.166,1.593.327,3.187.5,4.78.008.07.015.141.022.211a.929.929,0,0,0,.9.9.909.909,0,0,0,.9-.9l-.346-3.321-.889-8.527-1.207-11.58-1.3-12.481L49,49.162l-.818-7.845c-.216-2.068-.433-4.131-.76-6.187a82.266,82.266,0,0,0-3.911-14.72L39.853,10.161,36.644,1.167l-.182-.51A.932.932,0,0,0,35.35.027L23.56,2.354,4.924,6.031l-4.26.841A.9.9,0,0,0,0,7.742L1.76,20.916q.576,4.309,1.181,8.613,1.2,8.45,2.45,16.892,1.776,11.912,3.727,23.8c1.286,7.755,2.634,15.506,4.222,23.206q.255,1.237.52,2.471c.244,1.135,1.988.655,1.744-.48Z" transform="translate(362.297 312.081)" fill="#458dc9"/>
    <path id="Path-39" data-name="Path" d="M18.322,103.491C16.084,93.095,1.348,22.584,1.085,20.807L0,12.686,11.692,0l5.136,18.823a33.257,33.257,0,0,1,1.734,7.538l13.321,74.122" transform="translate(374.377 305.75)" fill="#fff"/>
    <path id="Path-40" data-name="Path" d="M20.079,104.147q-.577-2.682-1.141-5.367-.908-4.3-1.811-8.6-1.147-5.458-2.29-10.917-1.278-6.1-2.554-12.2-1.3-6.217-2.6-12.435-1.229-5.895-2.455-11.79Q6.184,37.793,5.14,32.749q-.761-3.681-1.516-7.362c-.253-1.237-.5-2.474-.746-3.713-.01-.051-.016-.1-.028-.153-.046-.186.043.335.014.113q-.107-.806-.215-1.612L1.939,14.71l-.151-1.128-.265.638L11.769,3.1l1.447-1.57-1.511-.4,2.465,9.036c.886,3.246,1.678,6.535,2.661,9.753a46.609,46.609,0,0,1,1.393,5.188c.151.821.229,1.651.367,2.474.077.458.164.914.246,1.371l1.257,6.992,1.993,11.09L24.5,60.45,27,74.385,29.286,87.1l1.723,9.588c.283,1.575.529,3.162.85,4.73.014.068.024.136.037.2a.912.912,0,0,0,1.112.63.922.922,0,0,0,.631-1.11l-.584-3.251-1.545-8.6L29.339,77.209,26.851,63.365l-2.462-13.7L22.265,37.847,20.8,29.711c-.325-1.806-.54-3.538-.873-5.283-.4-2.08-1.1-4.059-1.658-6.095l-1.447-5.3L13.646,1.379l-.2-.723a.912.912,0,0,0-1.511-.4L5.15,7.622,1.126,11.989c-.282.306-.577.605-.849.921-.416.482-.26.94-.185,1.5.358,2.678.588,5.406,1.1,8.06.38,1.954.788,3.9,1.189,5.855Q3.492,33.709,4.611,39.09,6.051,46.026,7.5,52.961q1.575,7.558,3.155,15.115,1.54,7.367,3.084,14.734,1.293,6.166,2.59,12.331.873,4.144,1.753,8.287.128.6.257,1.2c.244,1.135,1.988.655,1.744-.48Z" transform="translate(373.492 304.854)" fill="#458dc9"/>
    <path id="Path-41" data-name="Path" d="M86.883,91.657C77.3,83.622,0,102.224,0,102.224L3.774,15.374C3.644,9.786,7.453,5.066,12.613,4.423L47.04.131c5.606-.7,8.824,1.25,12.257,9.163C59.3,9.295,80.939,64.709,86.883,91.657Z" transform="translate(328.268 225.669)" fill="#389b48"/>
    <path id="Path-42" data-name="Path" d="M4.379,7.38l6.847-.854L26.334,4.644,41.345,2.773c2.3-.287,4.607-.6,6.914-.861,2.757-.316,5.235.077,7.235,2.068a16.677,16.677,0,0,1,2.915,4.258c.4.784.812,1.617,1.1,2.338.888,2.224,1.724,4.471,2.575,6.71q2.726,7.174,5.368,14.38Q70.9,41.072,74.2,50.535c2.324,6.694,4.58,13.412,6.7,20.172,1.9,6.049,3.716,12.133,5.244,18.288q.471,1.9.894,3.8l1.511-.878a9.98,9.98,0,0,0-4.923-1.848,45.031,45.031,0,0,0-7.8-.4c-3.324.067-6.643.324-9.95.657-3.862.389-7.713.892-11.553,1.454-4.016.588-8.021,1.245-12.019,1.948q-5.97,1.05-11.916,2.226-5.475,1.077-10.933,2.236-4.55.965-9.089,1.98-3.259.729-6.511,1.486c-1.011.236-2.07.411-3.062.723-.042.013-.087.021-.13.031l1.144.87L2.1,97.221l.7-14.5L3.654,65.2,4.39,50.005c.118-2.438.352-4.9.356-7.344,0-.036,0-.071.005-.107.056-1.161-1.752-1.158-1.808,0l-.294,6.061-.7,14.5L1.1,80.637.361,95.831c-.118,2.438-.352,4.9-.356,7.344,0,.036,0,.071-.005.107a.913.913,0,0,0,1.144.87q1.029-.249,2.061-.49,2.822-.663,5.649-1.3,4.214-.954,8.437-1.864,5.205-1.121,10.425-2.174,5.825-1.173,11.669-2.244,5.987-1.092,12-2.04c3.847-.6,7.6-1.131,11.448-1.577,3.439-.4,6.89-.725,10.349-.894a61.6,61.6,0,0,1,8.323.054q.43.037.858.086l.381.046c.235.029-.127-.019.039.005l.213.031c.494.073.987.162,1.474.273a12.576,12.576,0,0,1,1.272.356q.143.049.285.1c.058.022.333.134.183.071s.115.053.168.077q.122.058.241.12c.145.076.287.158.424.247.063.041.122.085.184.126.214.14-.149-.125.043.035a.912.912,0,0,0,1.511-.878c-1.3-5.892-2.964-11.7-4.713-17.478-2.048-6.758-4.253-13.468-6.533-20.151q-3.361-9.852-6.928-19.633-2.862-7.88-5.825-15.724-1.632-4.322-3.3-8.631C59.9,6.6,57.477,1.684,52.9.371,50.128-.424,47.063.254,44.256.6L30.467,2.323,14.541,4.308l-9.7,1.209-.467.058a.932.932,0,0,0-.9.9.909.909,0,0,0,.9.9Z" transform="translate(327.24 224.768)"/>
    <path id="Path-43" data-name="Path" d="M0,.9,1.7,14.725a22.005,22.005,0,0,0,2.288,7.966l3.479,6.42,3.3,6.09c.554,1.022,2.116.112,1.561-.911L5.8,22.23a19.6,19.6,0,0,1-2.226-7.024L2.63,7.572,1.808.9A.932.932,0,0,0,.9,0,.909.909,0,0,0,0,.9Z" transform="translate(344.407 323.273)"/>
    <path id="Path-44" data-name="Path" d="M55.831,45.892,0,44.864C1,40.95,7.675,25.66,8.2,20.5A80.433,80.433,0,0,0,8.161,1.113l50.8.692L76.439,0" transform="translate(295.767 226.326)" fill="#389b48"/>
    <path id="Path-45" data-name="Path" d="M56.732,45.893l-5.559-.1-13.347-.246-16.087-.3L7.78,44.991l-4.613-.085c-.712-.013-1.46-.094-2.171-.04-.031,0-.064,0-.095,0l.872,1.142a55.438,55.438,0,0,1,2-5.722c1.04-2.746,2.1-5.484,3.11-8.241.933-2.551,1.858-5.12,2.553-7.748a45.368,45.368,0,0,0,1.06-9.907A65.337,65.337,0,0,0,9.933,1.776L9.062,2.918l8.7.119,18.7.255,17.553.239A59.27,59.27,0,0,0,60.9,3.5L76.913,1.849l.427-.044a.929.929,0,0,0,.9-.9.909.909,0,0,0-.9-.9L62.387,1.544a24.9,24.9,0,0,1-2.871.256L55.5,1.746,38.8,1.518l-19.1-.26c-3.489-.048-6.992-.188-10.481-.143-.052,0-.1,0-.155,0A.917.917,0,0,0,8.19,2.255a60.085,60.085,0,0,1,.54,10.73c-.051,2.225-.178,4.448-.369,6.665-.05.584-.1,1.168-.165,1.752,0,.037-.033.283-.018.165.011-.084-.031.2-.042.261-.079.47-.182.936-.3,1.4A73.6,73.6,0,0,1,5.45,30.709c-1,2.77-2.06,5.517-3.107,8.269A62.688,62.688,0,0,0,.029,45.526.914.914,0,0,0,.9,46.668l5.559.1,13.347.246,16.087.3,13.959.257c2.254.042,4.53.177,6.785.125.032,0,.063,0,.095,0a.9.9,0,0,0,0-1.805Z" transform="translate(294.867 225.423)"/>
    <path id="Path-46" data-name="Path" d="M3.422,11.47C5.307,11.661,7.411,7.489,9.066.986L0,0C.307,6.74,1.53,11.278,3.422,11.47Z" transform="translate(292.548 259.672)"/>
    <path id="Path-47" data-name="Path" d="M4.326,13.275c1.7.129,2.9-1.723,3.594-3a35.05,35.05,0,0,0,2.921-8.144A.918.918,0,0,0,9.97.986L.9,0A.908.908,0,0,0,0,.9,35.039,35.039,0,0,0,1.223,9.581c.482,1.555,1.275,3.464,3.1,3.694a.908.908,0,0,0,.9-.9.926.926,0,0,0-.9-.9c.317.04.018.007,0-.015-.067-.109.121.077-.012,0-.065-.038-.3-.211-.145-.08a2.711,2.711,0,0,1-.312-.318c.1.117-.117-.171-.153-.228A8,8,0,0,1,2.82,8.6,35.643,35.643,0,0,1,1.808.9l-.9.9,9.066.986L9.1,1.649A35.135,35.135,0,0,1,6.548,9a8.2,8.2,0,0,1-1.29,1.961,1.7,1.7,0,0,1-.579.454c-.148.085.094-.027,0,.005-.052.017-.1.034-.156.047-.209.053.2-.011-.008,0a1.289,1.289,0,0,1-.185,0C3.165,11.381,3.171,13.187,4.326,13.275Z" transform="translate(291.644 258.77)"/>
    <path id="Path-48" data-name="Path" d="M116.639,75.55A104.964,104.964,0,0,0,119.9,58.4a80.432,80.432,0,0,0-.038-19.386l-7.147-.193-26.2-.709L33.767,0,0,7.3,8.063,21.449l48.613,39.4S72.349,73.678,116.639,75.55Z" transform="translate(184.07 188.423)" fill="#fc7f3a"/>
    <path id="Path-49" data-name="Path" d="M118.411,76.663A101.3,101.3,0,0,0,121.38,62a97.37,97.37,0,0,0,.85-15.331,54.162,54.162,0,0,0-.6-7.018.91.91,0,0,0-.872-.663L110.295,38.7l-17.859-.483-5.028-.136.456.123L84.672,35.9l-8.2-5.926L65.46,22.018,53.734,13.544,43.418,6.089l-6.8-4.915C36.156.841,35.7.478,35.226.169a1.872,1.872,0,0,0-1.5-.015L24.111,2.234l-13.89,3L1.123,7.2.66,7.3A.911.911,0,0,0,.119,8.63L6.945,20.606c.385.676.752,1.367,1.157,2.031a1.775,1.775,0,0,0,.367.441c.675.586,1.394,1.13,2.088,1.693l9.849,7.983L34.118,43.866,47.375,54.611l8.468,6.863c.741.6,1.47,1.2,2.263,1.736A48.582,48.582,0,0,0,65.833,67.3a101.125,101.125,0,0,0,16.63,5.451,171.19,171.19,0,0,0,26.906,4.09q4.081.319,8.171.489c1.163.05,1.161-1.755,0-1.805a189.741,189.741,0,0,1-29.353-3.356A113.876,113.876,0,0,1,69.53,66.878a58.613,58.613,0,0,1-9.42-4.529c-.625-.382-1.237-.784-1.829-1.216-.173-.127-.144-.129,0,0-.02-.019-.044-.034-.065-.052-.1-.082-.2-.161-.3-.242L51.17,55.374l-12.5-10.13-13.949-11.3L13.645,24.961,10.48,22.4c-.245-.2-.483-.414-.738-.6-.012-.009-.119-.113-.132-.107.05-.022.211.327.018-.028C7.294,17.382,4.795,13.183,2.38,8.947l-.7-1.227L1.14,9.045,12.557,6.577,30.744,2.645l4.163-.9-.7-.091,3.118,2.253,7.99,5.774,10.864,7.851,11.549,8.346L78.1,33.372l7,5.062L86.721,39.6a1.94,1.94,0,0,0,1.19.3l10.628.288,12.763.345,7.656.207,1.8.049-.872-.663a65.081,65.081,0,0,1,.453,13.186,104.651,104.651,0,0,1-1.778,14.839c-.52,2.7-1.136,5.385-1.9,8.029A.9.9,0,0,0,118.411,76.663Z" transform="translate(183.17 187.549)"/>
    <path id="Path-50" data-name="Path" d="M22.243,34.319,17.487,31l-6.316.632L.417,9.627A4.115,4.115,0,0,1,3.039,3.85L15.777.384c9.573-1.193,14.08.093,26.2,8.191l9.243,6.689" transform="translate(169.89 175.553)" fill="#fc7f3a"/>
    <path id="Path-51" data-name="Path" d="M23.6,34.443l-4.4-3.071A1.406,1.406,0,0,0,18.382,31a5.809,5.809,0,0,0-.64.064l-3.226.323-2.448.245.781.447-5.914-12.1L3.23,12.4c-.742-1.518-1.919-3.2-1.174-4.939A3.584,3.584,0,0,1,4.668,5.49l3.365-.916,8.2-2.231c.222-.061.444-.128.668-.182-.2.047.127-.015.211-.025q.356-.042.712-.08.785-.084,1.571-.145a28.856,28.856,0,0,1,5.363.04,28.4,28.4,0,0,1,10.65,3.914A171.327,171.327,0,0,1,51.17,16.592l.49.355a.912.912,0,0,0,1.237-.324.922.922,0,0,0-.324-1.235c-4.511-3.265-8.949-6.637-13.693-9.562C35.254,3.591,31.4,1.451,27.2.539A24.648,24.648,0,0,0,21.764,0c-.993.008-1.985.067-2.975.154a19.8,19.8,0,0,0-2.4.272c-.839.181-1.668.454-2.5.679L9.316,2.354,5.155,3.486a12.452,12.452,0,0,0-2.5.81,5.064,5.064,0,0,0-2.475,5.78A10.893,10.893,0,0,0,.95,11.835l3.23,6.61,6.971,14.267.137.28a.876.876,0,0,0,.781.447l6.316-.632-.456-.123L22.685,36c.956.667,1.861-.9.913-1.559Z" transform="translate(168.993 174.65)"/>
    <path id="Path-52" data-name="Path" d="M91.643,176.2h0a6.509,6.509,0,0,0,2.959-8.726L11.7,0,0,5.772,82.9,173.249A6.531,6.531,0,0,0,91.643,176.2Z" transform="translate(158.791 159.773)" fill="#fff"/>
    <path id="Path-53" data-name="Path" d="M93,177.88a7.511,7.511,0,0,0,3.2-10.132c-.343-.7-.693-1.4-1.04-2.1l-5.228-10.562-8.541-17.255L70.535,115.906,58.3,91.2,45.866,66.071,34.158,42.418,24.165,22.23,16.946,7.646c-1.139-2.3-2.229-4.633-3.419-6.908-.051-.1-.1-.2-.147-.3A.922.922,0,0,0,12.142.118L.442,5.89A.919.919,0,0,0,.118,7.124l2.361,4.769,6.4,12.932,9.388,18.965L29.645,66.775,42,91.732l12.319,24.887,11.3,22.838,9.23,18.647,6.121,12.367c.994,2.009,1.921,4.654,3.6,6.207A7.564,7.564,0,0,0,93,177.88c1.052-.5.135-2.052-.913-1.559a5.7,5.7,0,0,1-7.5-2.631c-.058-.113-.113-.229-.17-.343l-1.2-2.415-5.434-10.977-8.653-17.481L58.249,120.5,46.137,96.026,33.784,71.071l-11.6-23.435L12.328,27.726,5.211,13.349C4.089,11.081,3.067,8.717,1.826,6.51c-.054-.1-.1-.2-.147-.3L1.355,7.448l11.7-5.772-1.237-.324,2.318,4.684L20.455,18.8l9.283,18.754L41.044,60.4,53.308,85.17l12.26,24.768,11.264,22.756,9.275,18.738L92.4,164.146c.772,1.56,1.583,3.106,2.318,4.684a5.676,5.676,0,0,1-2.635,7.491C91.042,176.836,91.957,178.393,93,177.88Z" transform="translate(157.893 158.876)"/>
    <path id="Path-54" data-name="Path" d="M22.62,0C13.733,8.869.117,8.617.39,10.7a12.137,12.137,0,0,0-.282,4.667c.675,5.185,4.39,18.913,11.844,20.7,3.816.915,15.812-6.776,15.812-6.776L38.791,37.53" transform="translate(161.179 178.757)" fill="#fc7f3a"/>
    <path id="Path-55" data-name="Path" d="M1.447.648l-.182.816a4.7,4.7,0,0,0-.227,1.021c-.03-.026.153-.321.041-.116-.059.108-.108.223-.158.336A10.55,10.55,0,0,0,.375,4.218a8.43,8.43,0,0,0-.2,4.2c.331,1.238,1.357,2.111,1.887,3.248.062.133.1.255.15.391.179.467-.012-.117.04.129.041.192.05-.162,0,.026-.018.067-.041.13-.065.2.075-.2-.072.131-.1.188a7.287,7.287,0,0,0-.3.676,4.488,4.488,0,0,0,.285,3.4A9.7,9.7,0,0,0,4.5,19.231a2.322,2.322,0,0,1,.759,1.246,14.839,14.839,0,0,1,.163,1.809,4.3,4.3,0,0,0,.486,1.825,4.2,4.2,0,0,0,1.43,1.334,21.361,21.361,0,0,1,2.995,1.67c.588.509.917,1.215,1.632,1.577a3.954,3.954,0,0,0,1.81.376,12.773,12.773,0,0,0,4.335-1,45.292,45.292,0,0,0,4.945-2.25A76.467,76.467,0,0,0,29.7,21.952h-.913l6.352,4.823,10.131,7.691,2.334,1.772a.91.91,0,0,0,1.237-.324.924.924,0,0,0-.324-1.235l-6.352-4.823L32.038,22.165,29.7,20.393a.879.879,0,0,0-.913,0c-1.658,1.087-3.375,2.093-5.111,3.049-2.8,1.539-5.736,3.147-8.9,3.725a3.9,3.9,0,0,1-.788.091c-.12.005-.24.008-.361,0-.09,0-.55-.063-.291-.014-.1-.019-.2-.037-.3-.065-.057-.016-.112-.036-.169-.053-.191-.055.176.1.006,0L12.641,27c-.166-.095.155.136.013.009-.054-.048-.1-.1-.15-.153.217.225-.046-.069-.064-.093-.1-.131-.2-.262-.305-.388a5.016,5.016,0,0,0-.643-.636,8.122,8.122,0,0,0-1.6-1.015c-.793-.394-2.079-.776-2.489-1.638A4.374,4.374,0,0,1,7.18,21.5a7,7,0,0,0-.3-1.941,7,7,0,0,0-2.263-2.638,3.041,3.041,0,0,1-1.239-2.625,2.023,2.023,0,0,1,.236-.712,4.422,4.422,0,0,0,.4-.952c.287-1.271-.764-2.534-1.435-3.5a3.34,3.34,0,0,1-.723-1.606,7.615,7.615,0,0,1,.125-2.241,12.385,12.385,0,0,1,.754-2.2A13.541,13.541,0,0,0,3.19,1.127C3.442,0,1.7-.488,1.447.647Z" transform="translate(159.696 186.879)"/>
    <path id="Path-56" data-name="Path" d="M17.613.121a34.721,34.721,0,0,1-6.041,3.462A71.2,71.2,0,0,1,4.123,6.7,28.96,28.96,0,0,1,.649,7.716C-.488,7.959-.007,9.7,1.13,9.456A40.162,40.162,0,0,0,7.915,7.173,72.627,72.627,0,0,0,15.478,3.6,24.684,24.684,0,0,0,18.526,1.68.931.931,0,0,0,18.85.445.911.911,0,0,0,17.613.121Z" transform="translate(165.183 179.403)"/>
    <path id="Path-57" data-name="Path" d="M.032,3.478A69.714,69.714,0,0,0,16.337.409C23.417-2.117,26.779,7.765,0,10.682" transform="translate(231.337 317.647)" fill="#fc7f3a"/>
    <path id="Path-58" data-name="Path" d="M.936,5.281A62.5,62.5,0,0,0,11.987,3.663q2.453-.554,4.861-1.286a16.151,16.151,0,0,1,1.757-.5c.076-.014.439-.06.115-.024.1-.011.2-.023.3-.03A5.309,5.309,0,0,1,19.58,1.8c.089,0,.178.011.267.015.043,0,.086.01.13.013.171.011-.238-.045-.072-.009s.318.059.474.1c.074.022.145.05.219.072.25.076-.144-.1.022.009.124.078.263.159.392.228.169.091-.15-.163-.026-.018a1.568,1.568,0,0,0,.141.133c.078.07.165.259,0-.014.036.061.08.123.121.182s.049.1.078.151c-.081-.137-.049-.188-.019-.027a.922.922,0,0,0,.047.182c.058.13.009-.251,0,.015-.006.145-.081.486.011.166-.044.154-.076.313-.121.468-.075.258.089-.135-.018.047-.044.074-.077.155-.12.23a5.1,5.1,0,0,1-.313.474c.176-.245-.04.045-.088.1q-.109.126-.225.246c-.168.175-.346.34-.531.5-.1.086-.2.17-.307.252.178-.141-.157.115-.211.154-.25.179-.507.347-.77.508A18.356,18.356,0,0,1,16.753,7C11.923,9.221,6.216,10.1.9,10.68a.93.93,0,0,0-.9.9.909.909,0,0,0,.9.9c5.243-.576,10.634-1.4,15.546-3.407,2.262-.925,5.027-2.209,6.251-4.472A2.9,2.9,0,0,0,21.723.549c-2.042-1.174-4.359-.189-6.4.4A65.091,65.091,0,0,1,1.166,3.464l-.23.012C-.223,3.524-.23,5.33.936,5.281Z" transform="translate(230.432 316.746)"/>
    <path id="Path-59" data-name="Path" d="M.689,3.434A65.9,65.9,0,0,0,16.337.409C23.416-2.117,26.779,7.765,0,10.682" transform="translate(229.625 311.827)" fill="#fc7f3a"/>
    <path id="Path-60" data-name="Path" d="M1.593,5.236A57.2,57.2,0,0,0,12.069,3.658Q14.481,3.1,16.85,2.377a16.031,16.031,0,0,1,1.756-.5c.076-.014.439-.06.115-.024.1-.011.2-.023.3-.03a5.3,5.3,0,0,1,.564-.014c.089,0,.178.011.267.015.043,0,.086.01.13.013.171.011-.238-.045-.072-.009s.318.059.475.1c.074.022.145.05.219.072.25.076-.144-.1.022.009.124.078.263.159.392.228.169.091-.15-.163-.026-.018a1.587,1.587,0,0,0,.141.133c.078.07.165.259,0-.014.036.061.08.123.121.182s.049.1.078.151c-.081-.137-.049-.188-.019-.027a.925.925,0,0,0,.047.182c.058.13.009-.252,0,.015-.005.145-.081.486.011.166-.044.154-.076.313-.121.468-.075.258.089-.135-.018.047-.044.074-.077.155-.12.23a5.1,5.1,0,0,1-.313.474c.176-.245-.04.045-.088.1-.073.084-.148.166-.225.246-.168.175-.346.34-.531.5-.1.086-.2.17-.307.252.178-.141-.157.115-.211.154q-.375.268-.77.508A18.364,18.364,0,0,1,16.753,7C11.923,9.221,6.216,10.1.9,10.68a.93.93,0,0,0-.9.9.909.909,0,0,0,.9.9c5.243-.576,10.634-1.4,15.546-3.407,2.262-.925,5.027-2.209,6.251-4.472A2.9,2.9,0,0,0,21.723.549c-2.039-1.172-4.355-.193-6.392.4A64.655,64.655,0,0,1,1.8,3.421c-.07,0-.14.008-.211.011-1.16.046-1.166,1.851,0,1.805Z" transform="translate(228.721 310.927)"/>
    <path id="Path-61" data-name="Path" d="M0,3.5A71.686,71.686,0,0,0,16.635.409C23.714-2.117,27.076,7.765.3,10.682" transform="translate(228.581 305.613)" fill="#fc7f3a"/>
    <path id="Path-62" data-name="Path" d="M.872,5.3a65.226,65.226,0,0,0,11.34-1.637q2.473-.553,4.9-1.289a16.214,16.214,0,0,1,1.758-.5c.076-.014.439-.06.115-.024.1-.011.2-.023.3-.03a5.321,5.321,0,0,1,.564-.014c.089,0,.178.011.267.015.043,0,.086.01.13.013.171.011-.238-.045-.072-.009s.318.059.474.1c.074.022.145.05.219.072.25.076-.144-.1.022.009.124.078.263.159.392.228.169.091-.15-.163-.026-.018a1.567,1.567,0,0,0,.141.133c.078.07.165.259,0-.014.036.061.08.123.121.182s.049.1.078.151c-.081-.137-.049-.188-.019-.027a.925.925,0,0,0,.047.182c.058.13.009-.252,0,.015-.005.145-.081.486.011.166-.044.154-.076.313-.121.468-.075.258.089-.135-.018.047-.044.074-.077.155-.12.23a5.108,5.108,0,0,1-.313.474c.176-.245-.04.045-.088.1q-.109.126-.225.246c-.168.175-.346.34-.531.5-.1.086-.2.17-.307.252.178-.141-.157.115-.211.154q-.375.268-.77.508A18.356,18.356,0,0,1,17.017,7C12.187,9.221,6.48,10.1,1.169,10.68a.93.93,0,0,0-.9.9.909.909,0,0,0,.9.9c5.243-.576,10.634-1.4,15.546-3.407,2.262-.925,5.027-2.209,6.251-4.472A2.9,2.9,0,0,0,21.987.549c-2.044-1.175-4.361-.187-6.4.4A66.936,66.936,0,0,1,1.111,3.485L.872,3.5c-1.159.05-1.165,1.855,0,1.805Z" transform="translate(227.709 304.713)"/>
    <path id="Path-63" data-name="Path" d="M0,3.7A81.693,81.693,0,0,0,17.341.409C24.42-2.117,27.782,7.765,1,10.682" transform="translate(226.207 300.45)" fill="#fc7f3a"/>
    <path id="Path-64" data-name="Path" d="M.87,5.5A76.441,76.441,0,0,0,12.829,3.691c1.677-.378,3.343-.811,4.987-1.313a16.234,16.234,0,0,1,1.759-.5c.076-.014.439-.06.115-.024.1-.011.2-.023.3-.03a5.309,5.309,0,0,1,.564-.014c.089,0,.178.011.267.015.043,0,.086.01.13.013.171.011-.238-.045-.072-.009s.318.059.475.1c.074.022.145.05.219.072.25.076-.144-.1.022.009.124.078.263.159.392.228.169.091-.15-.163-.026-.018a1.567,1.567,0,0,0,.141.133c.078.07.165.259,0-.014.036.061.08.123.121.182s.049.1.078.151c-.081-.137-.049-.188-.019-.027a.923.923,0,0,0,.047.182c.058.13.009-.252,0,.015-.005.145-.081.486.011.166-.044.154-.076.313-.121.468-.075.258.089-.135-.018.047-.044.074-.077.155-.12.23a5.1,5.1,0,0,1-.313.474c.176-.245-.04.045-.088.1q-.109.126-.225.246c-.168.175-.346.34-.531.5-.1.086-.2.17-.307.252.178-.141-.157.115-.211.154-.25.179-.507.347-.77.508A18.356,18.356,0,0,1,17.722,7C12.892,9.221,7.185,10.1,1.873,10.68a.93.93,0,0,0-.9.9.909.909,0,0,0,.9.9c5.243-.576,10.634-1.4,15.546-3.407,2.262-.925,5.027-2.209,6.251-4.472A2.9,2.9,0,0,0,22.692.549c-2.046-1.176-4.368-.186-6.413.4A76.077,76.077,0,0,1,1.13,3.68L.87,3.7C-.286,3.77-.294,5.576.87,5.5Z" transform="translate(225.337 299.55)"/>
    <path id="Path-65" data-name="Path" d="M0,5.64,3.737,0" transform="translate(239.464 295.533)" fill="#fc7f3a"/>
    <path id="Path-66" data-name="Path" d="M1.683,6.991,4.948,2.063l.472-.712A.908.908,0,0,0,5.1.116.926.926,0,0,0,3.859.44L.593,5.368.121,6.08A.908.908,0,0,0,.446,7.315.926.926,0,0,0,1.683,6.991Z" transform="translate(238.562 294.638)"/>
    <path id="Path-67" data-name="Path" d="M0,0A18.566,18.566,0,0,0,11.118,3.049" transform="translate(249.532 310.636)" fill="#fc7f3a"/>
    <path id="Path-68" data-name="Path" d="M.262,1.529A14.026,14.026,0,0,0,3.534,3.314a21.488,21.488,0,0,0,8.485,1.528.9.9,0,0,0,0-1.805,20.021,20.021,0,0,1-7.9-1.419A15.089,15.089,0,0,1,2.151.633c-.2-.117-.39-.238-.577-.367C1.478.2,1.161-.04,1.541.252a.935.935,0,0,0-1.278,0,.907.907,0,0,0,0,1.276Z" transform="translate(248.631 309.745)"/>
    <path id="Path-69" data-name="Path" d="M0,0A20.673,20.673,0,0,0,7.584.517" transform="translate(346.365 218.583)" fill="#458dc9"/>
    <path id="Path-70" data-name="Path" d="M.637,1.779A20.054,20.054,0,0,0,8.7,2.3a.908.908,0,0,0,.631-1.11A.929.929,0,0,0,8.222.556,18.182,18.182,0,0,1,3.361.488,17.381,17.381,0,0,1,1.118.039.9.9,0,0,0,.637,1.779Z" transform="translate(345.487 217.674)"/>
    <ellipse id="Oval-5" data-name="Oval" cx="84.865" cy="84.72" rx="84.865" ry="84.72" transform="translate(46.213 9.694)" fill="#fff"/>
    <path id="Path-71" data-name="Path" d="M.661,96.128a85.708,85.708,0,0,0,109.958,71.538A85.645,85.645,0,0,0,85.186,0,86.612,86.612,0,0,0,58.427,4.462,85.431,85.431,0,0,0,.661,96.128c.141,1.138,1.951,1.152,1.808,0a83.966,83.966,0,1,1,166.743-.919,82.91,82.91,0,0,1-6.705,24.492,83.865,83.865,0,0,1-56.674,47.329,85.052,85.052,0,0,1-26.439,2.195,83.821,83.821,0,0,1-76.924-73.1C2.325,94.991.515,94.977.661,96.128Z" transform="translate(45.302 8.783)"/>
    <ellipse id="Oval-6" data-name="Oval" cx="70.163" cy="70.043" rx="70.163" ry="70.043" transform="translate(60.915 24.371)" fill="#458dc9"/>
    <path id="Path-72" data-name="Path" d="M.548,79.631a71.783,71.783,0,0,0,6.124,21.353A71.07,71.07,0,1,0,70.586,0,71.75,71.75,0,0,0,48.422,3.694a70.661,70.661,0,0,0-19.215,9.921,71.886,71.886,0,0,0-15.181,15.04A70.525,70.525,0,0,0,.548,79.631a.933.933,0,0,0,.9.9.908.908,0,0,0,.9-.9,69.255,69.255,0,1,1,137.543-.76,68.3,68.3,0,0,1-5.522,20.171A69.183,69.183,0,0,1,87.615,138.1,70.176,70.176,0,0,1,65.8,139.909,69.155,69.155,0,0,1,2.356,79.631a.934.934,0,0,0-.9-.9A.908.908,0,0,0,.548,79.631Z" transform="translate(60.004 23.461)"/>
    <path id="Path-73" data-name="Path" d="M31.643,0S6.027,44.525,0,68.593" transform="translate(315.551 339.144)" fill="#fff"/>
    <path id="Path-74" data-name="Path" d="M31.765.439c-.88,1.53-1.739,3.071-2.6,4.614q-3.285,5.916-6.44,11.9-4.259,8.077-8.261,16.285c-2.853,5.877-5.586,11.814-8.1,17.846A141.2,141.2,0,0,0,.511,67.435q-.251.9-.48,1.813a.9.9,0,0,0,1.744.48A122.571,122.571,0,0,1,7.213,53.763c2.406-5.953,5.068-11.8,7.842-17.592q4-8.35,8.312-16.547Q26.676,13.3,30.128,7.05c1.038-1.88,2.153-3.726,3.155-5.625.013-.026.029-.05.043-.075A.9.9,0,0,0,31.765.439Z" transform="translate(314.648 338.249)" fill="#458dc9"/>
    <path id="Path-75" data-name="Path" d="M88.854,16.183C86.1,6.627,76.955,0,66.518,0H22.365C12.366,0,3.491,6.09.371,15.107L0,16.175A70.293,70.293,0,0,0,94.573,36.038Z" transform="translate(73.317 118.021)" fill="#fff"/>
    <path id="Path-76" data-name="Path" d="M90.63,16.879A23.734,23.734,0,0,0,73.7.823c-4.18-1.071-8.582-.79-12.86-.79H36.929c-4.538,0-9.075-.01-13.613,0A24.615,24.615,0,0,0,3,10.579,23.764,23.764,0,0,0,.281,16.156,3.235,3.235,0,0,0,0,17.111a1.391,1.391,0,0,0,.361.8q.5.713,1.017,1.413.954,1.291,1.962,2.54a70.415,70.415,0,0,0,9.006,9.269A71.779,71.779,0,0,0,34.664,44.119a70.776,70.776,0,0,0,26.12,4.128,71.749,71.749,0,0,0,28.832-7.04,70.8,70.8,0,0,0,6.317-3.455.922.922,0,0,0,.416-1.019l-1.933-6.712-3.08-10.694-.705-2.448a.9.9,0,0,0-1.744.48l1.933,6.712L93.9,34.765l.705,2.448.416-1.019A69.4,69.4,0,0,1,3.087,18.608q-.718-.964-1.4-1.953l.091.7A24.268,24.268,0,0,1,5.1,10.733a21.322,21.322,0,0,1,5.114-4.89,23.328,23.328,0,0,1,13.091-4c5.295-.012,10.59,0,15.885,0H67.058A23.769,23.769,0,0,1,77.808,4.272a21.833,21.833,0,0,1,9.839,9.846,20.382,20.382,0,0,1,1.239,3.241A.9.9,0,0,0,90.63,16.879Z" transform="translate(72.413 117.085)"/>
    <path id="Path-77" data-name="Path" d="M0,0A18.217,18.217,0,0,0,18.232,18.173,18.217,18.217,0,0,0,36.465,0Z" transform="translate(99.174 118.021)" fill="#fc7272"/>
    <path id="Path-78" data-name="Path" d="M0,.9A19.136,19.136,0,0,0,38.273.9a.916.916,0,0,0-.9-.9H.9a.9.9,0,0,0,0,1.805H37.369l-.9-.9a17.293,17.293,0,0,1-8.656,15,17.354,17.354,0,0,1-17.344,0A17.293,17.293,0,0,1,1.808.9.9.9,0,0,0,0,.9Z" transform="translate(98.27 117.118)"/>
    <ellipse id="Oval-7" data-name="Oval" cx="63.154" cy="63.046" rx="63.154" ry="63.046" transform="translate(259.875 1.901)" fill="#fff"/>
    <path id="Path-79" data-name="Path" d="M.493,71.766A64.752,64.752,0,0,0,6.017,91.031,64.06,64.06,0,1,0,63.625,0,64.664,64.664,0,0,0,43.651,3.328a63.679,63.679,0,0,0-17.317,8.939,64.847,64.847,0,0,0-13.7,13.57A63.557,63.557,0,0,0,.493,71.766a.933.933,0,0,0,.9.9.908.908,0,0,0,.9-.9,62.251,62.251,0,1,1,123.622-.684,61.34,61.34,0,0,1-4.958,18.11,62.183,62.183,0,0,1-42.037,35.115,63.084,63.084,0,0,1-19.614,1.625A62.2,62.2,0,0,1,2.3,71.766a.934.934,0,0,0-.9-.9A.908.908,0,0,0,.493,71.766Z" transform="translate(258.965 0.992)"/>
    <ellipse id="Oval-8" data-name="Oval" cx="52.213" cy="52.124" rx="52.213" ry="52.124" transform="translate(270.816 12.823)" fill="#ffc41f"/>
    <path id="Path-80" data-name="Path" d="M.407,59.49A53.787,53.787,0,0,0,5,75.515,53.118,53.118,0,1,0,52.76,0,53.62,53.62,0,0,0,36.175,2.767,52.781,52.781,0,0,0,21.8,10.2,53.868,53.868,0,0,0,10.506,21.388a52.68,52.68,0,0,0-10.1,38.1.932.932,0,0,0,.9.9.909.909,0,0,0,.9-.9,51.311,51.311,0,1,1,101.9-.616,50.469,50.469,0,0,1-4.078,14.932,51.257,51.257,0,0,1-34.665,28.972,52,52,0,0,1-16.2,1.336A51.283,51.283,0,0,1,2.215,59.49a.932.932,0,0,0-.9-.9A.909.909,0,0,0,.407,59.49Z" transform="translate(269.907 11.915)"/>
    <path id="Path-81" data-name="Path" d="M55.2,0H22.339A17.169,17.169,0,0,0,5.972,11.242C5.9,11.442,1.906,21.365,0,26.111A52.259,52.259,0,0,0,71.7,11.678,17.139,17.139,0,0,0,55.2,0Z" transform="translate(294.541 82.514)" fill="#458dc9"/>
    <path id="Path-82" data-name="Path" d="M56.1,0H23.6a19.607,19.607,0,0,0-8.84,2.006A17.665,17.665,0,0,0,6.951,9.675c-.97,1.9-1.66,4.018-2.457,6Q2.652,20.258.808,24.842L.031,26.775a.909.909,0,0,0,.415,1.019A53.116,53.116,0,0,0,21.1,35.719a53.785,53.785,0,0,0,22.218-1.2,52.739,52.739,0,0,0,17.979-8.781,53.564,53.564,0,0,0,7.315-6.639c1.125-1.233,2.187-2.521,3.2-3.851q.746-.984,1.445-2c.509-.741,0-1.614-.308-2.357A18.131,18.131,0,0,0,58.533.164,19.412,19.412,0,0,0,56.1,0a.9.9,0,0,0,0,1.805A16.68,16.68,0,0,1,69.78,8.825a15.4,15.4,0,0,1,1.956,4l.091-.7A51.309,51.309,0,0,1,1.359,26.236l.416,1.019C3.759,22.314,5.85,17.4,7.732,12.424a15.962,15.962,0,0,1,6.056-7.767,17.159,17.159,0,0,1,9.494-2.851c3.954-.012,7.909,0,11.863,0H56.1A.9.9,0,0,0,56.1,0Z" transform="translate(293.638 81.611)"/>
    <path id="Path-83" data-name="Path" d="M2.874,18.905C.015,26.261-.964,34.816,1.1,41.683c41.359-1.146,49.263-4.918,49.263-4.918l-.148-6.09L15.68,0A66.512,66.512,0,0,0,9.5,7.8l3.991,6.562L6.336,12.306Q5.211,14.146,4.274,16l2.118,3.162Z" transform="translate(42.058 38.434)" fill="#ea2f2f"/>
    <path id="Path-84" data-name="Path" d="M2.938,19.562c-2.8,7.25-4.016,15.693-1.773,23.257a.921.921,0,0,0,.872.663c6.9-.192,13.792-.475,20.677-.93,4.693-.31,9.382-.7,14.054-1.241,2.976-.347,5.95-.748,8.9-1.295,1.5-.279,3.006-.589,4.476-1.011a7.115,7.115,0,0,0,1.6-.559l.014-.007a.886.886,0,0,0,.448-.779l-.137-5.679a1.462,1.462,0,0,0-.365-1.129c-.2-.192-.415-.369-.621-.552L44,24.012,33.023,14.263,22.635,5.037c-1.767-1.569-3.509-3.175-5.3-4.711L17.255.258a.921.921,0,0,0-1.278,0,62.772,62.772,0,0,0-6.322,7.98.889.889,0,0,0,0,.911l3.991,6.562,1.021-1.326L7.512,12.332a.923.923,0,0,0-1.021.415q-1.1,1.81-2.062,3.7a.909.909,0,0,0,0,.911l2.118,3.162.78-1.358L3.81,18.9c-1.161-.086-1.155,1.719,0,1.805l3.518.261a.908.908,0,0,0,.781-1.358L5.99,16.446v.911q.958-1.89,2.062-3.7l-1.021.415,7.153,2.053A.913.913,0,0,0,15.205,14.8L11.215,8.238v.911a59.876,59.876,0,0,1,6.04-7.615H15.976L19.4,4.575l8.264,7.34,9.96,8.847,8.646,7.679,2.836,2.519a15.608,15.608,0,0,0,1.348,1.2.692.692,0,0,1,.059.053l-.265-.638.148,6.09.448-.779c-.019.009-.04.015-.058.026.343-.2.15-.06.015-.011q-.42.152-.846.282a41.4,41.4,0,0,1-4.036.958c-1.146.224-2.3.421-3.451.6q-1.093.171-2.188.323c-.74.1-1.442.195-2.312.3-4.43.545-8.879.935-13.332,1.252-6.543.466-13.1.764-19.654.974q-1.472.047-2.943.088l.872.663c-2.157-7.275-.915-15.334,1.773-22.3a.909.909,0,0,0-.631-1.11A.925.925,0,0,0,2.938,19.562Z" transform="translate(41.122 37.537)"/>
    <path id="Path-85" data-name="Path" d="M14.995.614S5.076-3.474.265,9.442c-2.11,10.282,9.06,12.143,9.06,12.143" transform="translate(84.098 63.38)" fill="#fff"/>
    <path id="Path-86" data-name="Path" d="M16.133.648A10.331,10.331,0,0,0,12.363,0,11.173,11.173,0,0,0,4.7,3.019a16.114,16.114,0,0,0-3.484,4.9C.942,8.491.691,9.078.458,9.671a6.987,6.987,0,0,0-.379,1.775A11.332,11.332,0,0,0,.11,14.361a10,10,0,0,0,4.9,7.057,14.336,14.336,0,0,0,4.976,1.941.931.931,0,0,0,1.112-.63.91.91,0,0,0-.631-1.11,10.232,10.232,0,0,1-1.1-.264q-.594-.17-1.173-.386c-.112-.042-.223-.085-.334-.129l-.207-.084c.031.013.164.071.005,0-.257-.113-.511-.23-.761-.357a8.726,8.726,0,0,1-4.764-5.221A8.194,8.194,0,0,1,2.2,10.15,16.487,16.487,0,0,1,5.285,4.993,9.995,9.995,0,0,1,8.74,2.5,10.8,10.8,0,0,1,10.36,2a6.91,6.91,0,0,1,1.473-.186,10.937,10.937,0,0,1,1.576.047c.068.007.477.062.2.021.107.016.215.032.321.05q.3.051.6.119a7.245,7.245,0,0,1,1.126.335.91.91,0,0,0,1.112-.63.925.925,0,0,0-.631-1.11Z" transform="translate(83.2 62.476)"/>
    <path id="Path-87" data-name="Path" d="M.873,1.805A.9.9,0,0,0,.873,0,.9.9,0,0,0,.873,1.805Z" transform="translate(123.317 68.654)"/>
    <path id="Path-88" data-name="Path" d="M1.418,2.19C-5.7,17.495,16.01,49.926,21.033,51.5c13.7.428,23.532-4.089,29.994-8.812.79-.577-.5-3.473.191-4.048.847-.705,3.648.914,4.348.241a33.972,33.972,0,0,0,5.274-6.26C48.469,27.571,46.3,19.031,46.255,13.817a28.431,28.431,0,0,0-2.2-10.872L42.8,0" transform="translate(103.15 64.83)" fill="#ea2f2f"/>
    <path id="Path-89" data-name="Path" d="M1.573,2.636C-1.205,8.673.164,15.881,2.092,21.957a84.539,84.539,0,0,0,9.69,20.038,69.047,69.047,0,0,0,5.314,7.28,14.687,14.687,0,0,0,4.046,3.746,5.288,5.288,0,0,0,2.493.307q2.1,0,4.192-.149a51.5,51.5,0,0,0,7.918-1.2,46.633,46.633,0,0,0,12.509-4.91q1.25-.716,2.452-1.511.559-.37,1.107-.756a3.4,3.4,0,0,0,1.067-.912,4.041,4.041,0,0,0,.078-2.628,8.71,8.71,0,0,1-.111-1c0-.012,0-.327-.005-.116,0-.075.071-.114-.024,0l.033-.058q-.319.275-.113.147-.141.063.015.016l-.063.011a12.424,12.424,0,0,1,2.4.482,3.4,3.4,0,0,0,1.263.064,2.634,2.634,0,0,0,1.339-.926,37.566,37.566,0,0,0,4.366-5.146c.173-.249.346-.5.5-.761a.917.917,0,0,0-.54-1.326c-5.168-2.124-9.952-5.573-12.353-10.747a16.843,16.843,0,0,1-.98-2.755,18.186,18.186,0,0,1-.478-2.528c-.113-1.047-.094-2.094-.147-3.144A30.377,30.377,0,0,0,47.2,7.623,48.9,48.9,0,0,0,44.52.445.91.91,0,0,0,43.283.122a.926.926,0,0,0-.324,1.235,50.169,50.169,0,0,1,2.26,5.849,27.686,27.686,0,0,1,1.015,5.959c.067,1.123.039,2.247.154,3.367a19.531,19.531,0,0,0,5.756,11.945,28.761,28.761,0,0,0,9.392,5.913L61,33.063a22.347,22.347,0,0,1-2,2.715c-.839,1.011-1.731,1.978-2.665,2.9-.08.079-.455.356-.471.46,0,.016.169-.2.122-.093-.016.034.11,0-.048,0,.029,0-.272-.016-.171-.006a9.733,9.733,0,0,1-1.2-.278,4.223,4.223,0,0,0-2.558-.16,1.787,1.787,0,0,0-.945,2.023,22.634,22.634,0,0,1,.264,2.308c0-.1-.022.116-.035.127.049-.041.025-.133.1-.166a5.455,5.455,0,0,0-.491.35q-.548.386-1.107.756a47.068,47.068,0,0,1-26.158,7.525q-.519,0-1.037-.012a2.292,2.292,0,0,0-.477-.014c-.014.007-.044-.024-.06-.023.171-.011.2.105.091.036-.062-.039-.133-.066-.2-.1-.122-.067-.24-.142-.356-.22-.064-.043-.126-.089-.19-.133-.221-.154.074.069-.1-.071a20.289,20.289,0,0,1-1.951-1.867A52.005,52.005,0,0,1,14.545,42.9,86.853,86.853,0,0,1,4.759,24.167,48.264,48.264,0,0,1,2.1,14.053a21.386,21.386,0,0,1,.382-8.711,13.179,13.179,0,0,1,.655-1.8A.928.928,0,0,0,2.81,2.312a.912.912,0,0,0-1.237.324Z" transform="translate(102.215 63.928)"/>
    <path id="Path-90" data-name="Path" d="M21.4,26.07,20.2,7.2.04,0,0,22.159" transform="translate(105.502 97.366)" fill="#fc7272"/>
    <path id="Path-91" data-name="Path" d="M23.2,26.97,22.16,10.428,22.012,8.1a.943.943,0,0,0-.664-.87L14.522,4.791,3.693.926,1.184.03A.911.911,0,0,0,.04.9L.027,8.359.005,20.318,0,23.059a.9.9,0,0,0,1.808,0L1.822,15.6,1.843,3.642,1.848.9.7,1.771,7.531,4.207,18.36,8.072l2.509.9L20.2,8.1,21.249,24.64,21.4,26.97c.073,1.154,1.882,1.162,1.808,0Z" transform="translate(104.599 96.466)"/>
    <path id="Path-92" data-name="Path" d="M19.761,36.552a33.8,33.8,0,0,0,12.509,2.6C52.668,36.12,42.739.445,42.739.445L4.356,0S-.427,8.313.031,12.078c.788,6.483,7.243,10.983,9.2,19.319" transform="translate(96.336 69.284)" fill="#fc7272"/>
    <path id="Path-93" data-name="Path" d="M20.186,38.25a34.283,34.283,0,0,0,11.007,2.613,10.593,10.593,0,0,0,2.745-.016,15.508,15.508,0,0,0,1.6-.378,14.543,14.543,0,0,0,2.889-1.195A15.643,15.643,0,0,0,45.422,30.2a36.356,36.356,0,0,0,1.5-12.227,72.663,72.663,0,0,0-1.2-11.208A46.375,46.375,0,0,0,44.514,1.2c-.008-.025-.014-.052-.021-.077a.923.923,0,0,0-.872-.663L39.82.418,30.633.311,19.568.183,9.992.072C8.436.054,6.86-.038,5.3.018c-.022,0-.044,0-.067,0a.906.906,0,0,0-.781.447C3.826,1.562,3.251,2.695,2.7,3.836A30.591,30.591,0,0,0,.239,10.383a8.429,8.429,0,0,0-.171,3.059,13.923,13.923,0,0,0,1.086,3.6,48.072,48.072,0,0,0,3.93,6.588,28.975,28.975,0,0,1,4.155,8.929c.27,1.129,2.014.651,1.744-.48a27.858,27.858,0,0,0-3.509-8.049c-1.344-2.189-2.882-4.265-4.092-6.534-.949-1.78-1.832-3.979-1.528-5.952a23.6,23.6,0,0,1,2.123-6.18c.627-1.353,1.3-2.693,2.043-3.986l-.781.447,3.8.044,9.187.106L29.291,2.1l9.575.111,3.178.037a13.669,13.669,0,0,0,1.51.017.6.6,0,0,1,.067,0L42.749,1.6c.4,1.429.705,2.887.991,4.342a70.8,70.8,0,0,1,1.3,10.041,40.548,40.548,0,0,1-.8,11.74A19.249,19.249,0,0,1,42.3,32.872a12.823,12.823,0,0,1-3.268,3.863,12.371,12.371,0,0,1-5.2,2.3,7.657,7.657,0,0,1-2.129.06c-.975-.064-1.951-.157-2.918-.3a32.724,32.724,0,0,1-5.347-1.231c-.791-.256-1.574-.544-2.338-.874a.935.935,0,0,0-1.237.324.908.908,0,0,0,.324,1.235Z" transform="translate(95.455 68.365)"/>
    <path id="Path-94" data-name="Path" d="M6.24,6.284A20.2,20.2,0,0,0,5.3,3.926,8.558,8.558,0,0,0,2.836.529,2.566,2.566,0,0,0,.664.074a.9.9,0,1,0,.481,1.741.838.838,0,0,0,.163-.035c-.163.089-.211.015-.119.019.033,0,.067,0,.1,0s.246.023.058,0,.032.011.076.022.1.035.155.05c.124.035-.095-.035-.1-.044.014.02.072.033.095.046.109.062.212.127.316.2.121.08-.079-.053-.074-.058s.063.052.072.059c.054.047.108.094.16.143.1.1.2.2.293.306.046.052.089.1.134.158.163.194-.084-.119.038.047.091.124.181.25.266.378a13.062,13.062,0,0,1,.912,1.646q.095.2.185.4l.08.184c.108.25-.05-.124.022.05.091.22.179.441.263.663.09.239.179.48.257.723a.9.9,0,1,0,1.744-.48Z" transform="translate(105.444 81.029)"/>
    <path id="Path-95" data-name="Path" d="M8.818,1.111A7.325,7.325,0,0,0,6.258.148,8.311,8.311,0,0,0,.435,1.175a.9.9,0,0,0,.913,1.559A6.836,6.836,0,0,1,3.81,1.839,6.505,6.505,0,0,1,5,1.8a4.461,4.461,0,0,1,.952.126,7.745,7.745,0,0,1,.87.242c.122.042.241.091.363.134.175.062-.158-.076.014.005l.129.058a4.637,4.637,0,0,1,.575.305.9.9,0,0,0,.913-1.559Z" transform="translate(118.675 77.394)"/>
    <path id="Path-96" data-name="Path" d="M9.665.751A9.175,9.175,0,0,0,6.957.075a6.791,6.791,0,0,0-4.5.77A5.367,5.367,0,0,0,.08,4.287a7.115,7.115,0,0,0,.508,3.9,14.576,14.576,0,0,0,3.1,4.7l-.232-.4a.818.818,0,0,1,0,.5c.088-.208-.157.193-.011.02q-.114.1-.01.021a1.4,1.4,0,0,1-.155.09,5.138,5.138,0,0,1-1.946.057.909.909,0,0,0-.9.9.924.924,0,0,0,.9.9c1.334.145,3.19.145,3.792-1.327a2.121,2.121,0,0,0-.232-2.122A15.987,15.987,0,0,1,3,9.041,7.075,7.075,0,0,1,1.8,4.914,3.583,3.583,0,0,1,4.682,1.88a7.785,7.785,0,0,1,2.925.113,8.5,8.5,0,0,1,.947.253c.162.054.495.2.2.065a.933.933,0,0,0,1.237-.324A.909.909,0,0,0,9.665.751Z" transform="translate(131.109 77.34)"/>
    <ellipse id="Oval-9" data-name="Oval" cx="1.343" cy="1.341" rx="1.343" ry="1.341" transform="translate(135.843 82.38)"/>
    <path id="Path-97" data-name="Path" d="M0,1.8a1.823,1.823,0,0,0,1.2,1.68A1.79,1.79,0,1,0,0,1.8a.452.452,0,0,0,.9,0c0-.037,0-.074,0-.112,0-.085,0-.007,0,.011a1.479,1.479,0,0,1,.04-.176c.01-.034.022-.067.035-.1-.006.015-.041.083,0,.011s.069-.122.107-.182c.057-.09-.045.035,0-.006a.811.811,0,0,0,.058-.065,1.65,1.65,0,0,1,.129-.118c-.072.061-.026.019-.007.008s.059-.038.089-.056L1.418.983l.064-.03q-.072.03-.025.012c.056-.007.116-.038.173-.05C1.656.91,1.739.9,1.635.911,1.666.907,1.7.9,1.728.9c.063,0,.124,0,.187,0s-.106-.023.007,0c.035.008.071.015.106.024s.068.022.1.032S2.2,1,2.12.958c.053.027.105.052.155.083.024.015.048.036.073.049.057.029-.072-.069,0,0,.051.049.1.1.148.149s0,0-.006-.009c.02.029.04.058.058.088a1.364,1.364,0,0,1,.082.156c-.007-.016-.03-.087-.006-.009.01.034.022.068.031.1s.011.047.016.07c.022.089,0-.077.007.043a1.361,1.361,0,0,1,0,.168c0,.021-.019.14,0,.026,0,.024-.008.048-.013.071-.013.059-.032.115-.049.172-.033.11.045-.077-.009.023-.017.031-.032.062-.05.093s-.032.049-.047.074-.067.081,0,.007a1.641,1.641,0,0,1-.119.127c-.021.02-.046.037-.066.058-.044.047.086-.052-.006,0-.061.036-.12.072-.183.1-.024.012-.074.02.01,0-.034.01-.067.024-.1.034l-.07.018s-.12.027-.047.012-.045,0-.05,0c-.031,0-.063,0-.094,0s-.062,0-.093,0c-.105,0,.068.019-.025,0-.071-.016-.139-.035-.208-.056-.1-.031.046.034-.007,0-.033-.022-.074-.037-.109-.057l-.06-.037-.057-.04q.067.053.009.005c-.042-.04-.086-.079-.125-.122-.014-.016-.078-.108-.017-.018-.02-.029-.04-.057-.058-.088S1,2.2.986,2.167.941,2.045.975,2.146c-.023-.069-.041-.137-.06-.207-.006-.021-.013-.088,0,.012C.908,1.9.905,1.852.9,1.8a.452.452,0,0,0-.9,0Z" transform="translate(135.39 81.93)"/>
    <ellipse id="Oval-10" data-name="Oval" cx="1.343" cy="1.341" rx="1.343" ry="1.341" transform="translate(123.192 82.488)"/>
    <path id="Path-98" data-name="Path" d="M0,1.8a1.823,1.823,0,0,0,1.2,1.68A1.79,1.79,0,1,0,0,1.8a.452.452,0,0,0,.9,0c0-.037,0-.074,0-.112,0-.085,0-.007,0,.011a1.488,1.488,0,0,1,.04-.176c.01-.034.023-.067.035-.1-.006.015-.041.083,0,.011s.069-.122.107-.182c.057-.09-.045.035,0-.006a.81.81,0,0,0,.058-.065,1.65,1.65,0,0,1,.129-.118c-.072.061-.026.019-.007.008s.059-.038.089-.056L1.418.983l.064-.03q-.072.03-.025.012c.056-.007.116-.038.173-.05C1.656.91,1.739.9,1.636.911,1.666.907,1.7.9,1.728.9c.063,0,.124,0,.187,0s-.106-.023.007,0c.035.008.071.015.106.024s.068.022.1.032S2.2,1,2.12.958c.053.027.105.052.155.083.024.015.048.036.073.049.057.029-.072-.069,0,0,.051.049.1.1.148.149s0,0-.006-.009c.02.029.04.058.058.088a1.367,1.367,0,0,1,.082.156c-.007-.016-.03-.087-.006-.009.01.034.022.068.031.1s.011.047.016.07c.022.089,0-.077.007.043a1.352,1.352,0,0,1,0,.168c0,.021-.019.14,0,.026,0,.024-.008.048-.013.071-.013.059-.032.115-.049.172-.033.11.045-.077-.009.023-.017.031-.032.062-.05.093s-.032.049-.047.074-.067.081,0,.007a1.649,1.649,0,0,1-.119.127c-.021.02-.046.037-.066.058-.044.047.086-.052-.006,0-.061.036-.12.072-.183.1-.024.012-.074.02.01,0-.034.01-.067.024-.1.034l-.07.018s-.12.027-.047.012-.045,0-.05,0c-.031,0-.063,0-.094,0s-.062,0-.093,0c-.105,0,.068.019-.025,0-.071-.016-.139-.035-.208-.056-.1-.031.046.034-.007,0-.033-.022-.074-.037-.109-.057l-.06-.037-.058-.04q.067.053.009.005c-.042-.04-.086-.079-.125-.122-.014-.016-.078-.108-.017-.018-.02-.029-.04-.057-.058-.088S1,2.2.986,2.167.941,2.045.975,2.146c-.023-.069-.041-.137-.06-.207-.006-.021-.013-.088,0,.012C.908,1.9.905,1.852.9,1.8a.452.452,0,0,0-.9,0Z" transform="translate(122.74 82.038)"/>
    <path id="Path-99" data-name="Path" d="M.115,1.357a3.947,3.947,0,0,0,.726.985A4.389,4.389,0,0,0,3.119,3.61a5.47,5.47,0,0,0,2.154-.031A.908.908,0,0,0,5.9,2.469a.927.927,0,0,0-1.112-.63c-.063.013-.126.025-.189.036-.04.007-.084.01-.124.019,0,0,.191-.02.089-.013-.126.009-.251.023-.377.026s-.236,0-.354-.007c-.052,0-.1-.008-.156-.013-.207-.018.2.038-.009,0a3.973,3.973,0,0,1-.588-.155C3.042,1.713,3,1.7,2.96,1.68s.209.1.058.022c-.087-.042-.173-.085-.258-.133s-.147-.088-.218-.135l-.094-.065c-.015-.011-.03-.023-.045-.033-.084-.054.169.139.1.074-.117-.1-.235-.2-.344-.31C2.063,1.008,1.98.911,1.9.812c-.106-.128.152.21.033.041C1.9.811,1.871.769,1.842.726a2.311,2.311,0,0,1-.165-.28A.909.909,0,0,0,.44.122.926.926,0,0,0,.115,1.357Z" transform="translate(125.174 92.797)"/>
    <path id="Path-100" data-name="Path" d="M59.077,16.142l-.913-2.264C53.823,3.631,44.6-4.2,22.411,2.482c0,0-9.047,3-16.333,13.795L3.912,19.7a19.911,19.911,0,0,0-1.648,5.483A27.438,27.438,0,0,0,3.657,39.566q.137.364.266.73a30.359,30.359,0,0,1-2.3,24.787L0,67.992l18.05-.385.787-25.163c-1.894-1.321-4.8-6.6-4.964-9.71-.253-4.7,2.214-5.938,5.5-6.114s7.253,5.827,7.5,10.405l0-9.94A5.207,5.207,0,0,1,32.577,21.9c3.946.378,11.587.781,18.314.959a7.093,7.093,0,0,0,4.384-1.356" transform="translate(87.377 49.927)" fill="#ea2f2f"/>
    <path id="Path-101" data-name="Path" d="M60.847,16.825a37.745,37.745,0,0,0-3.685-7.442,21.042,21.042,0,0,0-6.827-6.414c-7.755-4.437-17.451-3.177-25.67-.9a23.776,23.776,0,0,0-5.907,2.559,38.8,38.8,0,0,0-10.015,8.7,46.624,46.624,0,0,0-3.367,4.706,20.859,20.859,0,0,0-1.53,2.515A26.635,26.635,0,0,0,2.479,36.6c.611,2.916,1.886,5.624,2.495,8.543a29.044,29.044,0,0,1,.479,8.416,30.056,30.056,0,0,1-1.93,8.221A41.766,41.766,0,0,1,.9,67.054L.118,68.46A.911.911,0,0,0,.9,69.818l15.848-.338,2.2-.047a.921.921,0,0,0,.9-.9l.207-6.623.381-12.164.145-4.634.041-1.321a1.327,1.327,0,0,0-.181-.968c-.284-.355-.712-.621-1.085-1.054a12.783,12.783,0,0,1-1.1-1.515,20.162,20.162,0,0,1-1.9-3.8c-.756-2.052-1.333-5.151.4-6.836a4.62,4.62,0,0,1,2.593-1.085,3.473,3.473,0,0,1,2.754.538c2.257,1.5,3.75,4.379,4.429,6.923a9.96,9.96,0,0,1,.333,1.958.9.9,0,0,0,1.808,0c0-3.261-.01-6.521,0-9.782a4.367,4.367,0,0,1,4.648-4.449c3.367.214,6.725.5,10.1.658q3.493.167,6.989.274a13.8,13.8,0,0,0,3.283-.14,7.933,7.933,0,0,0,2.94-1.3.927.927,0,0,0,.324-1.235.912.912,0,0,0-1.237-.324,6.621,6.621,0,0,1-2.508,1.117,12.825,12.825,0,0,1-3,.07q-3.2-.1-6.4-.249-5.174-.242-10.333-.664a6.171,6.171,0,0,0-6.61,5.928c-.048,1.539,0,3.086,0,4.626l0,5.47h1.808A14.891,14.891,0,0,0,25.718,30.2c-1.382-1.867-3.324-3.733-5.821-3.529-2.111.172-4.3.89-5.322,2.9-1.182,2.327-.792,5.155.1,7.505a22.414,22.414,0,0,0,2.112,4.214,10.236,10.236,0,0,0,2.5,2.86l-.448-.779-.265,8.474-.425,13.577-.1,3.112.9-.9L3.1,67.966l-2.2.047.781,1.358,1.621-2.9a32.507,32.507,0,0,0,3.091-7.733,31.031,31.031,0,0,0-.34-16.658c-.429-1.4-1-2.751-1.392-4.163A26.279,26.279,0,0,1,4.4,24.59a21.983,21.983,0,0,1,.916-2.906,1.49,1.49,0,0,1,.093-.219c.036-.08.072-.161.111-.24s.068-.134.106-.2c.636-1.094,1.354-2.152,2.037-3.218a37.255,37.255,0,0,1,9.428-9.914,33.2,33.2,0,0,1,4.087-2.546c.471-.246.949-.48,1.435-.7l.254-.112c.229-.1-.175.068.071-.03.127-.05.252-.1.38-.15a38.826,38.826,0,0,1,5.256-1.4,46.66,46.66,0,0,1,7.373-1.07A26.177,26.177,0,0,1,47.172,3.432a18.331,18.331,0,0,1,7.167,5.211,22.637,22.637,0,0,1,2.431,3.528q.547.967,1.016,1.975c.158.336.311.675.455,1.018-.108-.255-.016-.035.005.018.059.149.12.3.18.447l.676,1.677a.933.933,0,0,0,1.112.63.909.909,0,0,0,.631-1.11Z" transform="translate(86.478 49.004)"/>
    <path id="Path-102" data-name="Path" d="M14.779,17.529h0a14.792,14.792,0,0,1-10.45-4.321A14.741,14.741,0,0,1,0,2.776V0H29.558V2.776a14.741,14.741,0,0,1-4.329,10.432A14.792,14.792,0,0,1,14.779,17.529Z" transform="translate(317.833 82.174)" fill="#fc7f3a"/>
    <path id="Path-103" data-name="Path" d="M15.687,17.529A13.865,13.865,0,0,1,1.823,4.228C1.782,3.121,1.812,2.01,1.812.9l-.9.9H30.466l-.9-.9c0,.92,0,1.841,0,2.761A14.218,14.218,0,0,1,28.587,8.8a13.859,13.859,0,0,1-12.9,8.727.9.9,0,0,0,0,1.805A15.67,15.67,0,0,0,31.34,4.617c.078-1.233.029-2.48.029-3.714a.916.916,0,0,0-.9-.9H.908A.916.916,0,0,0,0,.9c0,.978-.01,1.956,0,2.933A15.673,15.673,0,0,0,9.172,17.918a15.9,15.9,0,0,0,6.515,1.416A.9.9,0,0,0,15.687,17.529Z" transform="translate(316.925 81.271)"/>
    <path id="Path-104" data-name="Path" d="M29.852,45.9l-.788-10.207a7.546,7.546,0,0,0,3.691-3.679C35.393,24.884,30.286,0,30.286,0L.652,2.279s-2.562,25.11,2.47,32.009c1.7,2.338,5.355,3.647,9.537,4.08l.679,8.8" transform="translate(311.607 38.125)" fill="#fc7f3a"/>
    <path id="Path-105" data-name="Path" d="M31.668,46.8l-.689-8.932-.1-1.276-.448.779a8.43,8.43,0,0,0,4.153-4.345,13.493,13.493,0,0,0,.6-3.087,47.02,47.02,0,0,0-.059-8.242A168.041,168.041,0,0,0,32.789,4.45c-.228-1.264-.46-2.529-.719-3.787A.906.906,0,0,0,31.2,0L21.151.773,5.215,2l-3.65.281a.934.934,0,0,0-.9.9C.249,7.224.063,11.3.017,15.366A87.991,87.991,0,0,0,.4,25.475a27.769,27.769,0,0,0,1.979,8.64c1.947,4.287,6.876,5.6,11.19,6.057l-.9-.9.679,8.8c.089,1.151,1.9,1.16,1.808,0l-.679-8.8a.935.935,0,0,0-.9-.9c-3.544-.379-7.778-1.387-9.483-4.855-.12-.243-.234-.508-.279-.62q-.18-.453-.333-.917c-.205-.622-.376-1.256-.524-1.894a36.6,36.6,0,0,1-.709-4.305A106.277,106.277,0,0,1,2.132,7.451c.091-1.424.193-2.849.337-4.269l-.9.9,10.048-.773L27.548,2.086l3.65-.281-.872-.663c.683,3.331,1.249,6.69,1.757,10.051a88.784,88.784,0,0,1,1.4,17.284,15.431,15.431,0,0,1-.434,3.38,6.475,6.475,0,0,1-3.526,3.954.887.887,0,0,0-.448.779l.689,8.932.1,1.276c.089,1.151,1.9,1.16,1.808,0Z" transform="translate(310.695 37.223)"/>
    <path id="Path-106" data-name="Path" d="M8.082.039A17.9,17.9,0,0,1,.9.633a.908.908,0,0,0-.9.9.926.926,0,0,0,.9.9,18.708,18.708,0,0,0,5.225-.157,19.672,19.672,0,0,0,2.434-.5A.9.9,0,0,0,8.082.039Z" transform="translate(323.709 74.95)"/>
    <path id="Path-107" data-name="Path" d="M1.541,2.57c-.355.276-.143.11-.054.05s.208-.133.315-.194c.158-.089.322-.163.484-.245s-.175.067-.011,0l.165-.064Q2.618,2.055,2.8,2c.26-.078.523-.118.785-.178q.1-.015-.054.007l.114-.012c.065-.006.13-.012.194-.016q.243-.015.486-.009c.171,0,.342.016.511.038-.181-.023.1.021.113.022q.136.026.271.058a5.368,5.368,0,0,1,1.013.355A.9.9,0,1,0,7.147.707,6.676,6.676,0,0,0,2.382.24,6.275,6.275,0,0,0,.263,1.293a.906.906,0,0,0,0,1.276.928.928,0,0,0,1.278,0Z" transform="translate(321.239 52.163)"/>
    <path id="Path-108" data-name="Path" d="M1.357,2.425c.058-.032.118-.059.176-.088.153-.076.03-.016.074-.033.1-.04.207-.079.312-.115a7.02,7.02,0,0,1,1.943-.373A2.632,2.632,0,0,1,6.531,3.381a4.394,4.394,0,0,1-.351,3.263A10.1,10.1,0,0,1,5.019,8.634a1.963,1.963,0,0,0-.546,1.139,2.306,2.306,0,0,0,.082.758c.454,1.545,2.262,1.423,3.518,1.179,1.141-.222.658-1.962-.481-1.741a4.633,4.633,0,0,1-.883.1,1.518,1.518,0,0,1-.421-.05s0-.02.022.066c-.014-.054-.045-.234-.029-.081a1.915,1.915,0,0,1,.014-.386l-.265.638C7.793,8.052,9.662,4.431,7.676,1.78A4.506,4.506,0,0,0,3.6.026,7.835,7.835,0,0,0,.445.866c-1.018.564-.107,2.123.913,1.559Z" transform="translate(310.928 53.008)"/>
    <path id="Path-109" data-name="Path" d="M1.145,3.636a3.878,3.878,0,0,0,.77-.2A4.622,4.622,0,0,0,3.659,2.39,3.56,3.56,0,0,0,4.45,1.143.9.9,0,0,0,3.122.123a1.042,1.042,0,0,0-.415.539L2.681.727,2.772.511a2.513,2.513,0,0,1-.315.539L2.6.867a2.878,2.878,0,0,1-.5.5l.183-.141a3.827,3.827,0,0,1-.829.473l.216-.091a4.074,4.074,0,0,1-1,.29.9.9,0,0,0-.216,1.65l.216.091a.912.912,0,0,0,.481,0Z" transform="translate(320.384 63.616)"/>
    <path id="Path-110" data-name="Path" d="M1.772,6.32a15.455,15.455,0,0,1,.437-1.753q.113-.37.245-.733.064-.176.134-.35c.012-.031.026-.062.038-.093.041-.106-.08.181-.033.077.031-.068.06-.137.091-.205a6.879,6.879,0,0,1,.361-.688c.064-.105.132-.207.2-.308A.5.5,0,0,0,3.3,2.2c0,.007-.15.182-.06.079.042-.048.082-.1.125-.145.082-.09.181-.163.264-.25.054-.056-.111.084-.106.082A.579.579,0,0,0,3.616,1.9c.047-.03.1-.053.145-.081.138-.083-.225.066-.033.016a1.487,1.487,0,0,0,.155-.039c-.053.02-.238.016-.044.013a1.336,1.336,0,0,1,.184.012.9.9,0,0,0,.9-.9.931.931,0,0,0-.9-.9C2.763-.145,1.815,1.008,1.3,2A13.555,13.555,0,0,0,.184,5.121c-.057.239-.112.478-.156.72A.923.923,0,0,0,.66,6.951a.916.916,0,0,0,1.112-.63Z" transform="translate(333.733 53.5)"/>
    <ellipse id="Oval-11" data-name="Oval" cx="1.044" cy="1.042" rx="1.044" ry="1.042" transform="translate(313.532 57.16)"/>
    <path id="Path-111" data-name="Path" d="M2.085,1.414a1.157,1.157,0,0,1,0,.144l0,.028q-.008.074.005-.036a.268.268,0,0,0-.011.055c-.01.045-.025.088-.04.132-.03.092.05-.091,0-.007-.014.024-.025.048-.039.071s-.025.038-.037.057c-.041.066-.025-.009.013-.016-.022,0-.077.083-.094.1a.3.3,0,0,0-.041.036l.049-.037-.045.032c-.042.028-.091.046-.131.074s.107-.036.018-.008l-.067.022L1.6,2.077c-.011,0-.106.02-.025.006s-.014,0-.027,0H1.474l-.071,0c-.1,0,.1.024.009,0-.045-.012-.09-.021-.134-.036l-.026-.009q-.067-.026.032.014a.278.278,0,0,0-.049-.024c-.04-.021-.078-.046-.116-.071-.076-.05.054.057.017.012-.019-.024-.048-.043-.069-.065l-.037-.04c-.068-.068.055.087,0,.006-.025-.039-.05-.076-.072-.117A.316.316,0,0,0,.937,1.7l.024.057Q.95,1.731.941,1.7A1.543,1.543,0,0,1,.9,1.554c-.014-.063.008.119,0,.019,0-.019,0-.039,0-.058a.7.7,0,0,0,.007-.142L.9,1.437q0-.027.011-.055t.014-.054c.008-.027.017-.052.026-.079.027-.081-.047.087,0,.007.023-.04.043-.08.068-.117.008-.012.047-.086.013-.02s0,0,.017-.016.094-.074.1-.093c-.007.031-.077.053-.027.021.031-.02.061-.04.093-.058L1.263.948c.085-.048-.1.031-.006,0,.041-.012.08-.026.122-.036.015,0,.06,0,.07-.014-.034.031-.1.01-.019,0a1.532,1.532,0,0,1,.158,0c.1,0-.106-.023-.009,0,.027.006.054.012.081.02l.066.021c.106.032-.069-.04.006,0,.048.027.094.054.14.084s-.02.009-.027-.021c0,.015.047.042.06.055s.037.04.056.059c.066.067-.054-.084,0-.006.03.046.057.093.084.141.046.082-.026-.078-.007-.019.01.031.022.062.031.093s.01.037.013.055.008.037.011.056q-.013-.109-.006-.034a.461.461,0,0,0,.452.451.457.457,0,0,0,.452-.451,1.5,1.5,0,1,0-1.021,1.5,1.492,1.492,0,0,0,1.021-1.5.452.452,0,0,0-.9,0Z" transform="translate(313.08 56.708)"/>
    <ellipse id="Oval-12" data-name="Oval" cx="1.044" cy="1.042" rx="1.044" ry="1.042" transform="translate(323.336 56.406)"/>
    <path id="Path-112" data-name="Path" d="M2.085,1.414a1.165,1.165,0,0,1,0,.144l0,.028q-.008.074.005-.036a.268.268,0,0,0-.011.055c-.01.045-.025.088-.04.132-.03.092.05-.091,0-.007-.014.024-.025.048-.039.072s-.025.038-.037.057c-.041.066-.025-.009.013-.016-.022,0-.077.083-.094.1a.3.3,0,0,0-.041.036l.049-.037-.045.032c-.042.028-.091.046-.131.074s.107-.036.018-.008l-.067.022L1.6,2.077c-.011,0-.106.02-.025.006s-.014,0-.027,0H1.475l-.071,0c-.1,0,.1.024.009,0-.045-.012-.09-.021-.134-.036l-.026-.009q-.067-.026.032.014a.282.282,0,0,0-.049-.024c-.04-.021-.078-.046-.116-.071-.076-.05.054.057.017.012-.019-.024-.048-.043-.069-.065l-.037-.04c-.068-.068.055.087,0,.006-.025-.039-.05-.076-.072-.117A.316.316,0,0,0,.937,1.7l.024.057Q.95,1.731.941,1.7A1.536,1.536,0,0,1,.9,1.554c-.014-.063.008.119,0,.019,0-.019,0-.039,0-.058a.7.7,0,0,0,.007-.142L.9,1.437q0-.028.011-.055t.014-.054c.008-.027.017-.052.026-.079.027-.081-.047.087,0,.007.023-.04.043-.08.068-.118.008-.012.047-.086.013-.02s0,0,.017-.016.094-.074.1-.093c-.007.031-.077.053-.027.021.031-.02.061-.04.093-.058L1.263.948c.085-.048-.1.031-.006,0,.041-.012.08-.026.122-.036.015,0,.06,0,.07-.014-.034.031-.1.01-.019,0a1.533,1.533,0,0,1,.158,0c.1,0-.106-.023-.009,0,.027.006.054.012.081.02l.066.021c.106.032-.069-.04.006,0,.048.027.094.054.14.084s-.02.009-.027-.021c0,.015.047.042.06.055s.037.04.056.059c.066.067-.054-.084,0-.006.03.046.057.093.084.141.046.082-.026-.078-.007-.019.01.031.022.061.031.093s.01.037.013.055.008.037.011.056q-.013-.109-.006-.034a.461.461,0,0,0,.452.451.457.457,0,0,0,.452-.451,1.5,1.5,0,1,0-1.021,1.5,1.492,1.492,0,0,0,1.021-1.5.452.452,0,0,0-.9,0Z" transform="translate(322.884 55.954)"/>
    <path id="Path-113" data-name="Path" d="M53.138,18.608a9.363,9.363,0,0,0-3.905-6.059c.579-1.049,1.473-2.242,2.6-2.418-1.977-.837-4.463.793-5.136,1.279l-.128-.034c.239-.773,1.381-4.071,3.893-5.537-2.689-.233-5.034,1.872-6.371,3.412C43.241,6.106,39.5.012,23.293.04L16.713,0A16.9,16.9,0,0,0,.773,10.986h0c-.8,2.686-2.516,9.312,4.613,13.484l-.246-3.436,5.9,4.418.246-5.89,18.684.982L31.179,35.3c-.3-3.861,2.363-9.324,5.134-9.537s4.974.555,5.28,4.517c.2,2.622-1.646,7.362-3.088,8.676l5.639,6.13S54.916,26.441,53.138,18.608Z" transform="translate(300.51 24.157)" fill="#a8542a"/>
    <path id="Path-114" data-name="Path" d="M54.9,19.262a10.631,10.631,0,0,0-4.321-6.6L50.9,13.9c.463-.824,1.065-1.807,2.063-2a.911.911,0,0,0,.664-.87.943.943,0,0,0-.664-.87c-1.966-.767-4.225.221-5.833,1.37l.7-.091L47.7,11.4l.631,1.11a8.813,8.813,0,0,1,3.477-5,.91.91,0,0,0-.456-1.682C48.544,5.639,46.1,7.5,44.344,9.507l1.511.4a11.083,11.083,0,0,0-4.864-6.211C36.361.7,30.38.1,25.006.036,23.254.016,21.5.015,19.75,0a27.408,27.408,0,0,0-6.118.412,17.813,17.813,0,0,0-11.1,7.731,16.8,16.8,0,0,0-1.15,2.087q-.252.545-.471,1.1c-.072.184-.095.357-.148.542.109-.376-.029-.032-.053.051a15.229,15.229,0,0,0-.662,5.733A10.507,10.507,0,0,0,3.7,24.642a15.247,15.247,0,0,0,2.115,1.5.911.911,0,0,0,1.36-.779l-.246-3.436-1.36.779,5.9,4.418c.584.437,1.335-.166,1.36-.779l.246-5.89-.9.9,16.4.862,2.282.12-.9-.9,1.059,12.927.15,1.828c.094,1.146,1.887,1.166,1.808,0a10.938,10.938,0,0,1,1.293-5.68,8.139,8.139,0,0,1,1.54-2.159,2.619,2.619,0,0,1,1.651-.811c1.336-.073,2.732.077,3.463,1.272a6.781,6.781,0,0,1,.32,5.167,16.934,16.934,0,0,1-1.108,3.1,7.07,7.07,0,0,1-1.376,2.133.917.917,0,0,0,0,1.276l5.639,6.13a.913.913,0,0,0,1.42-.183c1.3-2.247,2.478-4.569,3.6-6.906a65.275,65.275,0,0,0,5.117-13.51,15.584,15.584,0,0,0,.366-6.756c-.25-1.134-1.994-.654-1.744.48a9.074,9.074,0,0,1,.148,2.4,17.773,17.773,0,0,1-.4,2.877,44.869,44.869,0,0,1-2.052,6.7,100.192,100.192,0,0,1-5.312,11.464c-.418.784-.841,1.568-1.286,2.338l1.42-.183-5.639-6.13v1.276a7.993,7.993,0,0,0,1.564-2.3,19.4,19.4,0,0,0,1.263-3.275,9.27,9.27,0,0,0-.2-6.683,4.879,4.879,0,0,0-4.581-2.5,4.613,4.613,0,0,0-2.614.615,7.534,7.534,0,0,0-2.2,2.3,12.738,12.738,0,0,0-2.1,7.559h1.808L31.914,23.266l-.15-1.828a.929.929,0,0,0-.9-.9l-16.4-.862-2.282-.12a.917.917,0,0,0-.9.9l-.246,5.89,1.36-.779-5.9-4.418a.909.909,0,0,0-1.36.779l.246,3.436,1.36-.779a9.5,9.5,0,0,1-4.711-5.949,11.546,11.546,0,0,1,.219-5.448c.084-.337.2-.668.277-1.006a2.64,2.64,0,0,1,.051-.3c-.016.043-.008.144.054.013.07-.147.121-.306.186-.455.149-.342.312-.679.484-1.01a15.99,15.99,0,0,1,9.6-7.956A20.049,20.049,0,0,1,18.868,1.8l5.145.031c5,.025,10.421.375,14.9,2.739a11.21,11.21,0,0,1,3.548,2.742q.145.168.282.343c-.139-.176.008.011.038.054.05.069.1.138.15.209q.243.349.453.718c.124.217.236.44.342.666.026.055.05.112.075.167.009.019-.068-.18,0,0,.04.106.083.212.121.319q.1.295.187.6a.912.912,0,0,0,1.511.4c1.453-1.66,3.385-3.307,5.732-3.147L50.9,5.954A10.679,10.679,0,0,0,46.59,12.03a.914.914,0,0,0,.631,1.11c.824.219,1.693-.66,2.42-.988a3.628,3.628,0,0,1,2.843-.256V10.155c-1.463.287-2.456,1.61-3.144,2.833a.923.923,0,0,0,.324,1.235,8.819,8.819,0,0,1,3.49,5.519C53.421,20.872,55.165,20.394,54.9,19.262Z" transform="translate(299.62 23.263)"/>
    <path id="Path-115" data-name="Path" d="M24.425,4.2c-1.709,4.8,5.362,10.031,5.362,10.031s-4.179.982-7.375-1.473c0,0,.246,2.7,1.475,3.927,0,0-23.847,1.473-23.847-10.553,0,0-.492-3.927,1.967-6.136" transform="translate(309.543 32.43)" fill="#a8542a"/>
    <path id="Path-116" data-name="Path" d="M24.481,4.851c-.927,2.724.486,5.452,2.156,7.55a19.527,19.527,0,0,0,3.622,3.5l.216-1.65a1.39,1.39,0,0,1-.175.035c-.069.007-.14.024-.208.035-.253.044.065,0-.12.017a11.557,11.557,0,0,1-1.681.067A7.881,7.881,0,0,1,23.8,12.87a.908.908,0,0,0-1.36.779,7.663,7.663,0,0,0,1.74,4.565l.639-1.541a50.1,50.1,0,0,1-9.945-.444A27.852,27.852,0,0,1,7.2,14.137a12.319,12.319,0,0,1-2.968-1.905c-.216-.2-.423-.4-.619-.618a5.3,5.3,0,0,1-.456-.555c-.164-.236-.321-.475-.461-.726q-.105-.189-.2-.383c-.025-.052-.05-.1-.074-.157-.086-.188.024.071-.046-.105a8.629,8.629,0,0,1-.538-3.22A6.342,6.342,0,0,1,3.574,1.525C4.428.733,3.148-.541,2.3.249,0,2.372-.333,5.956.252,8.882a9.478,9.478,0,0,0,4.621,6.055,23.422,23.422,0,0,0,7.928,2.77,51.218,51.218,0,0,0,7.888.8c1.372.04,2.754.052,4.126-.032a.914.914,0,0,0,.639-1.541,4.593,4.593,0,0,1-.982-2.087c-.08-.317-.142-.636-.2-.958-.009-.052-.016-.1-.024-.157-.018-.115.076.146,0,.032a.362.362,0,0,1-.013-.118l-1.36.779a10.1,10.1,0,0,0,8.072,1.564.914.914,0,0,0,.216-1.65c-.036-.027-.146-.113,0,0,.164.128-.1-.077-.141-.113q-.393-.316-.769-.652a20.326,20.326,0,0,1-2.11-2.165c-1.38-1.656-2.674-3.882-1.926-6.082.375-1.1-1.371-1.576-1.744-.48Z" transform="translate(308.615 31.543)"/>
    <path id="Path-117" data-name="Path" d="M.873,1.805A.9.9,0,0,0,.873,0,.9.9,0,0,0,.873,1.805Z" transform="translate(75.341 276.277)"/>
    <path id="Path-118" data-name="Path" d="M49.569,6.422s-16.1-14.338-34-.164C3.049,16.765,8.9,43.65,8.9,43.65S-1.953,46.171.311,58.816c2.775,15.5,28.712,12.917,26.345-4.244,8.707,9.22,14.875-1,11.8-12.382C36.493,34.927,30.9,18.3,49.6,13.474" transform="translate(0.92 275.684)"/>
    <path id="Path-119" data-name="Path" d="M51.128,6.686A27.737,27.737,0,0,0,42.37,1.691,26.723,26.723,0,0,0,33.114,0,25.9,25.9,0,0,0,21.775,2.721a23.806,23.806,0,0,0-8.916,7.048,24.971,24.971,0,0,0-3.7,7.878A51.181,51.181,0,0,0,7.677,34.755c.132,2.214.366,4.42.682,6.615a26.529,26.529,0,0,0,.559,3.28c.013.047.02.1.03.143l.631-1.11a12.949,12.949,0,0,0-6.5,4.049A12.546,12.546,0,0,0,.152,54.375a16.578,16.578,0,0,0,1.021,8.362,13.286,13.286,0,0,0,9.558,7.756,16.184,16.184,0,0,0,12.049-2.009,12.755,12.755,0,0,0,5.85-11.1,16.443,16.443,0,0,0-.15-1.906l-1.543.638c1.771,1.858,4.011,3.627,6.67,3.827a5.931,5.931,0,0,0,5.1-2.518A12.945,12.945,0,0,0,41,50.71a23.139,23.139,0,0,0-.853-8.221c-.371-1.353-.753-2.7-1.084-4.067-.191-.786-.366-1.576-.52-2.371s-.3-1.694-.382-2.377a25.039,25.039,0,0,1-.124-5.246A15.533,15.533,0,0,1,39.3,23.522c1.812-3.869,5.4-6.313,9.4-7.664.678-.229,1.365-.429,2.057-.61a.9.9,0,0,0-.481-1.741c-4.466,1.166-8.81,3.334-11.469,7.232a17.363,17.363,0,0,0-2.655,10.327,42.243,42.243,0,0,0,1.65,9.725,44.416,44.416,0,0,1,1.276,5.339,17.13,17.13,0,0,1-.539,7.715c-.556,1.675-1.653,3.49-3.243,4.066a3.908,3.908,0,0,1-2.4.1,8.036,8.036,0,0,1-2.962-1.569,17.209,17.209,0,0,1-1.723-1.6c-.494-.518-1.651-.162-1.543.638.56,4.174-.568,8.091-3.829,10.753a14.048,14.048,0,0,1-10.383,2.742A11.938,11.938,0,0,1,3.5,63.391a13.993,13.993,0,0,1-1.673-6.968,11.483,11.483,0,0,1,1.91-6.6A10.955,10.955,0,0,1,7.4,46.534q.435-.247.888-.462c.134-.063.269-.123.4-.183.187-.084-.134.053.011,0l.213-.086c.33-.129.666-.234,1-.34.045-.014.092-.025.139-.036a.919.919,0,0,0,.631-1.11c-.153-.7-.274-1.417-.39-2.129q-.091-.556-.172-1.114-.046-.315-.09-.63l-.021-.155c-.019-.14.019.145,0,0q-.024-.183-.048-.366-.2-1.585-.34-3.177a55.8,55.8,0,0,1,.641-16.04,27.736,27.736,0,0,1,2.806-7.924A18.294,18.294,0,0,1,15.383,9.5,20.242,20.242,0,0,1,19.54,6.072,25.466,25.466,0,0,1,30.556,1.946a24.275,24.275,0,0,1,9.345.834A28.459,28.459,0,0,1,46.6,5.7c.731.434,1.444.9,2.133,1.394q.182.131.362.266l.179.135c.154.116-.161-.129.011.009.141.113.282.226.422.341q.073.06.144.123c.867.77,2.15-.5,1.278-1.276Z" transform="translate(0 274.782)"/>
    <path id="Path-120" data-name="Path" d="M10.585.141S2.177-1.84.01,9.041c-.358,8.442,8.759,8.493,8.759,8.493" transform="translate(44.968 275.825)" fill="#fff"/>
    <path id="Path-121" data-name="Path" d="M11.729.205a9.167,9.167,0,0,0-8.87,3.129A13.093,13.093,0,0,0,.586,7.626,9.346,9.346,0,0,0,0,10.567a9.938,9.938,0,0,0,.319,2.451,8.166,8.166,0,0,0,4.825,5.346,11.994,11.994,0,0,0,4.528,1.007.9.9,0,0,0,0-1.805c-.309,0-.617-.039-.924-.07-.243-.025.129.021-.032,0l-.237-.036q-.3-.048-.587-.11a11.978,11.978,0,0,1-1.18-.311,6.816,6.816,0,0,1-4.355-3.628A6.638,6.638,0,0,1,2,9.278a12.83,12.83,0,0,1,1.8-4.2A7.52,7.52,0,0,1,6.068,2.9q.3-.185.626-.343a3.585,3.585,0,0,1,.522-.226,8.3,8.3,0,0,1,1.236-.35c.106-.022.213-.04.32-.059L8.912,1.9c.235-.036-.2.02.032,0,.193-.02.385-.038.579-.048a8.884,8.884,0,0,1,1.006.007c.133.008.265.024.4.035.258.021-.232-.048.073.01.083.016.167.027.25.047C12.381,2.21,12.864.47,11.73.205Z" transform="translate(44.065 274.891)"/>
    <path id="Path-122" data-name="Path" d="M33.055,0l1.371,2.181a22.9,22.9,0,0,1,3.145,8.36l3.837,2.41a11.111,11.111,0,0,1,5.083,11.063h0a11.124,11.124,0,0,1-8.07,9.07L21.448,37.726C17.254,37.121-3.248,20.1.442,7.031" transform="translate(59.851 270.64)"/>
    <path id="Path-123" data-name="Path" d="M33.186,1.334A37.683,37.683,0,0,1,36.1,6.453a22.94,22.94,0,0,1,1.439,4.82,1.379,1.379,0,0,0,.665,1.039c.288.186.58.365.871.547A27.159,27.159,0,0,1,43.4,15.8a10.2,10.2,0,0,1,.358,14.525,10.578,10.578,0,0,1-4.891,2.828l-8.426,2.3-5.2,1.421c-.988.27-2.011.49-2.982.816-.048.016-.1.027-.148.04H22.6a3.768,3.768,0,0,1-.7-.2c-.031-.011-.281-.113-.137-.053s-.1-.044-.126-.057c-.17-.08-.339-.162-.506-.248a21.889,21.889,0,0,1-2.339-1.441,46.986,46.986,0,0,1-5.724-4.752c-4.171-4-8.153-8.763-10.161-14.248a14.067,14.067,0,0,1-.677-8.59A.9.9,0,0,0,.482,7.67c-1.876,6.773,2.049,13.681,6.084,18.847a54.8,54.8,0,0,0,7.187,7.546,34.63,34.63,0,0,0,6.373,4.63,4.31,4.31,0,0,0,2.475.782c.453-.093.9-.247,1.348-.369l7.568-2.07,7.162-1.959a19.8,19.8,0,0,0,2.033-.623,12.011,12.011,0,0,0,2.065-21.4c-.953-.607-1.914-1.2-2.87-1.8l-.967-.607.415.539a24.178,24.178,0,0,0-2.638-7.564c-.605-1.092-1.3-2.136-1.969-3.193-.617-.982-2.182-.077-1.561.911Z" transform="translate(58.939 269.762)"/>
    <path id="Path-124" data-name="Path" d="M19.664,12.119,18.379,3.143,1.429,0,4.81,19.105,0,21.221l11.333,4.427a11.261,11.261,0,0,0,9.485-.6h0A11.215,11.215,0,0,0,25.361,9.93L25.133,9.5Z" transform="translate(63.531 301.667)" fill="#fc7272"/>
    <path id="Path-125" data-name="Path" d="M21.441,12.776,20.156,3.8a.87.87,0,0,0-.631-.63L4.672.416,2.575.027a.918.918,0,0,0-1.112,1.11L2.608,7.61,4.423,17.869l.42,2.373.416-1.019L.449,21.339c-.794.349-.418,1.4.216,1.65l10.483,4.1a19,19,0,0,0,2.117.742,12.142,12.142,0,0,0,14.288-7.1,11.99,11.99,0,0,0,.9-5.55,13.315,13.315,0,0,0-1.63-5.233.925.925,0,0,0-1.237-.324l-5.469,2.617c-1.049.5-.133,2.059.913,1.559L26.5,11.179l-1.237-.324a10.665,10.665,0,0,1,.864,8.571,10.345,10.345,0,0,1-12.559,6.61,19.181,19.181,0,0,1-1.849-.66L5.883,23.1l-4.737-1.85.216,1.65,4.81-2.116a.916.916,0,0,0,.415-1.019L5.441,13.289,3.626,3.03,3.206.657,2.094,1.767,16.947,4.521l2.1.389-.631-.63L19.7,13.256a.91.91,0,0,0,1.112.63A.926.926,0,0,0,21.441,12.776Z" transform="translate(62.626 300.77)"/>
    <path id="Path-126" data-name="Path" d="M18.984,31.636a27.221,27.221,0,0,0,10.276.465C45.083,27.086,32.616,0,32.616,0L2.051,4.553S-.684,11.772.163,14.706c1.458,5.052,7.166,7.8,9.788,14.179" transform="translate(55.452 275.414)" fill="#fc7272"/>
    <path id="Path-127" data-name="Path" d="M19.642,33.406a27.514,27.514,0,0,0,9.221.639,8.017,8.017,0,0,0,1.978-.323c.46-.163.914-.351,1.356-.559a11.592,11.592,0,0,0,2.217-1.381,12.584,12.584,0,0,0,4.377-8.023,29.836,29.836,0,0,0-.352-10.133,57.152,57.152,0,0,0-2.365-8.693C35.54,3.418,34.967,1.905,34.3.444A.924.924,0,0,0,33.274.029L22.938,1.569,6.474,4.021,2.71,4.582a.905.905,0,0,0-.631.63A29.43,29.43,0,0,0,.013,13.638C-.233,17.7,3.027,20.784,5.54,23.562a23.128,23.128,0,0,1,4.437,6.463.934.934,0,0,0,1.112.63.908.908,0,0,0,.631-1.11A22.958,22.958,0,0,0,7.89,23.5C6.553,21.931,5.056,20.49,3.8,18.85a8.339,8.339,0,0,1-2-4.523,18.47,18.47,0,0,1,.891-5.152c.328-1.174.7-2.342,1.127-3.482l-.631.63L13.527,4.783,29.991,2.331l3.764-.561-1.021-.415c.036.077.07.155.1.233s.078.179.117.268l.073.17c.094.218-.086-.209.022.053q.5,1.2.948,2.413a60.692,60.692,0,0,1,2.354,7.919,32.213,32.213,0,0,1,.862,9.392,12.448,12.448,0,0,1-2.992,7.722,9.174,9.174,0,0,1-4.283,2.6,14.314,14.314,0,0,1-2.544.215c-.867.04-1.736.043-2.6,0a23.229,23.229,0,0,1-4.67-.679.9.9,0,0,0-.481,1.741Z" transform="translate(54.553 274.514)"/>
    <path id="Path-128" data-name="Path" d="M5.948,4.4A14.762,14.762,0,0,0,4.98,2.782,7.231,7.231,0,0,0,2.555.3,2.338,2.338,0,0,0,.447.209.9.9,0,0,0,.123,1.444a.932.932,0,0,0,1.237.324c-.425.189.061-.042.088,0,.011.017-.268.016-.148.022.02,0,.042,0,.062,0s.151-.006.156.008-.263-.051-.146-.018c.02.006.042.008.063.013.042.01.084.021.126.034s.226.087.049.013.027.017.065.037a2.81,2.81,0,0,1,.266.162,1.459,1.459,0,0,0,.125.089c-.249-.133-.077-.06,0,.006a5.825,5.825,0,0,1,.525.507c.173.187.331.384.491.582-.2-.243-.037-.047,0,.007l.115.156q.111.154.218.311.354.52.667,1.067c.1.18.206.362.3.548a.911.911,0,0,0,1.237.324A.923.923,0,0,0,5.947,4.4Z" transform="translate(62.723 288.34)"/>
    <path id="Path-129" data-name="Path" d="M7.287.517A6.5,6.5,0,0,0,4.895,0,6.863,6.863,0,0,0,.262,1.664a.908.908,0,0,0,0,1.276.925.925,0,0,0,1.278,0,4.965,4.965,0,0,1,1.786-.949q.243-.07.492-.117c.066-.013.133-.023.2-.035-.2.035.027,0,.072-.008a5.974,5.974,0,0,1,.872-.022c.131.006.261.019.391.031.173.015-.14-.026-.029-.005.057.011.114.017.171.027q.281.049.556.123c.13.036.259.075.385.121.035.013.071.031.107.041.117.033-.235-.1-.171-.072A.934.934,0,0,0,7.61,1.752.908.908,0,0,0,7.286.517Z" transform="translate(72.895 283.251)"/>
    <path id="Path-130" data-name="Path" d="M7.329.237C4.684-.466,1.32.366.282,3.11-.9,6.223,1.858,9.293,4.129,11.029l-.416-.539a1.192,1.192,0,0,1,.1.457c-.006-.058.017-.069.031-.072-.173.038-.313.156-.522.206a4.941,4.941,0,0,1-.884.1c-1.157.062-1.165,1.867,0,1.805s2.737-.277,3.114-1.6A2.086,2.086,0,0,0,5.3,9.7a7.235,7.235,0,0,0-.946-.809,11.26,11.26,0,0,1-.912-.911,5.953,5.953,0,0,1-1.616-3.1A2.7,2.7,0,0,1,3.407,2.2a5.8,5.8,0,0,1,2.429-.345,3.7,3.7,0,0,1,1.012.123A.9.9,0,0,0,7.329.237Z" transform="translate(83.139 281.413)"/>
    <ellipse id="Oval-13" data-name="Oval" cx="1.081" cy="1.08" rx="1.081" ry="1.08" transform="translate(87.279 285.697)"/>
    <path id="Path-131" data-name="Path" d="M.027,1.83A1.532,1.532,0,1,0,1.013.09,1.568,1.568,0,0,0,.2.76,1.59,1.59,0,0,0,.027,1.83a.454.454,0,0,0,.556.315A.465.465,0,0,0,.9,1.591c.022.138,0-.02,0-.058s0-.058,0-.087c0-.059.023,0-.006.034.02-.022.022-.106.032-.139a.472.472,0,0,0,.028-.08c.011.018-.047.1,0,0,.022-.042.047-.08.072-.12.042-.068-.012.024-.02.024A.513.513,0,0,0,1.065,1.1c.014-.015.1-.085.1-.1,0,.022-.079.054-.023.02.029-.017.056-.036.085-.053L1.295.943C1.381.9,1.22.967,1.281.95s.094-.03.143-.041c.092-.02-.009.012-.016,0,0,0,.066-.005.074-.006.053,0,.108.008.161,0C1.53.913,1.591.9,1.636.909l.056.013c.028.007.054.017.081.026.058.017-.015.017-.029-.014A.69.69,0,0,0,1.868,1c.019.012.038.029.059.039s.016.01-.035-.028l.043.037c.035.032.066.066.1.1.056.06-.021-.02-.018-.025s.044.066.047.071.061.128.067.127-.036-.107-.013-.026c.009.033.021.066.029.1,0,.007.015.074.015.074s-.008-.1,0-.031c0,.049.005.1,0,.147s-.03.107,0-.005c-.005.017-.007.038-.011.056A.96.96,0,0,0,2.1,1.8c-.015-.03.046-.089.006-.018-.012.02-.022.042-.033.062s-.025.039-.037.059c-.042.071-.02-.012.012-.012a.926.926,0,0,0-.1.1l-.042.038q-.056.046.025-.018l-.047.032c-.04.026-.083.048-.125.07-.062.032.024-.02.028-.012l-.07.023-.072.019-.029.006q-.06.01,0,0l.03,0-.059.005q-.044,0-.088,0a.36.36,0,0,0-.087-.006q.1.015.049.006L1.422,2.15A1,1,0,0,0,1.259,2.1c.023-.012.086.042.03.012-.033-.018-.067-.034-.1-.054l-.047-.031c-.078-.048.065.061,0,0-.041-.039-.08-.078-.12-.119-.067-.071.053.086,0,0C1.013,1.888,1,1.865.982,1.84S.959,1.8.948,1.776c-.05-.1.019.074,0-.013C.928,1.705.91,1.649.9,1.59a.454.454,0,0,0-.556-.315.463.463,0,0,0-.316.555Z" transform="translate(86.832 285.247)"/>
    <ellipse id="Oval-14" data-name="Oval" cx="1.081" cy="1.08" rx="1.081" ry="1.08" transform="translate(77.239 287.4)"/>
    <path id="Path-132" data-name="Path" d="M.027,1.83A1.532,1.532,0,1,0,1.013.09,1.568,1.568,0,0,0,.2.76,1.59,1.59,0,0,0,.027,1.83a.454.454,0,0,0,.556.315A.465.465,0,0,0,.9,1.591c.022.138,0-.02,0-.058s0-.058,0-.087c0-.059.023,0-.006.034.02-.022.022-.106.032-.139a.472.472,0,0,0,.028-.08c.011.018-.047.1,0,0,.022-.042.047-.08.072-.12.042-.068-.012.024-.02.024A.512.512,0,0,0,1.065,1.1c.014-.015.1-.085.1-.1,0,.023-.079.054-.023.02.029-.017.056-.036.085-.053L1.295.943C1.381.9,1.22.967,1.281.95s.094-.03.143-.041c.092-.02-.009.012-.016,0,0,0,.066-.005.074-.006.053,0,.108.008.161,0C1.53.913,1.591.9,1.636.909l.055.013c.028.007.054.017.081.026.058.017-.015.017-.029-.014A.69.69,0,0,0,1.868,1c.019.012.038.029.059.039s.016.01-.035-.028l.043.037c.035.032.066.066.1.1.056.06-.021-.02-.018-.025s.044.066.047.071.061.128.067.127-.036-.107-.013-.026c.009.033.021.066.029.1,0,.007.015.074.015.074s-.008-.1,0-.031c0,.049.005.1,0,.147s-.03.107,0-.005c-.005.017-.007.038-.011.056A.96.96,0,0,0,2.1,1.8c-.015-.03.046-.089.006-.018-.012.02-.022.042-.033.062s-.025.039-.037.059c-.042.071-.02-.012.012-.012a.926.926,0,0,0-.1.1l-.042.038q-.056.046.025-.018l-.047.032c-.04.026-.083.048-.125.07-.062.032.024-.02.028-.012l-.07.023-.072.019-.029.006q-.06.01,0,0l.03,0-.059.005q-.044,0-.088,0a.36.36,0,0,0-.087-.006q.1.015.049.006L1.422,2.15A1,1,0,0,0,1.259,2.1c.023-.012.086.042.03.012-.033-.018-.067-.034-.1-.054l-.047-.031c-.078-.048.065.06,0,0-.041-.039-.081-.078-.12-.119-.067-.071.053.086,0,0C1.013,1.888,1,1.865.982,1.84S.959,1.8.948,1.776c-.05-.1.019.074,0-.013C.928,1.705.91,1.649.9,1.59a.454.454,0,0,0-.556-.315A.463.463,0,0,0,.027,1.83Z" transform="translate(76.791 286.95)"/>
    <path id="Path-133" data-name="Path" d="M.124,1.358A3.817,3.817,0,0,0,3.057,2.95a4.121,4.121,0,0,0,1.608-.269.975.975,0,0,0,.54-.415A.9.9,0,0,0,4.184.94a6.284,6.284,0,0,1-.786.208c.286-.067.08-.012,0-.007q-.092.006-.185.007c-.1,0-.2-.007-.307-.014-.159-.012.261.044.034,0l-.119-.024a2.769,2.769,0,0,1-.3-.084l-.1-.038c-.14-.051.242.109.051.021Q2.356.959,2.246.9T2.045.77L1.96.71c-.133-.094.185.15.082.063S1.856.616,1.771.529C1.712.47,1.659.407,1.6.344c-.1-.112.176.241.08.1a.9.9,0,1,0-1.561.911Z" transform="translate(79.901 295.225)"/>
    <path id="Path-134" data-name="Path" d="M44,10.338,42.982,8.655C38.216,1.065,29.882-3.981,13.1,4.167c0,0-6.807,3.538-11.213,13.052l-1.283,3A16.024,16.024,0,0,0,0,24.785,22.1,22.1,0,0,0,2.953,36.04q.156.272.3.546L12.5,53.822a5.208,5.208,0,0,0,5.488,2.665h0l-2.6-20.1c-1.675-.808-4.659-4.633-5.191-7.083-.8-3.7,1-5,3.588-5.563s6.512,3.7,7.295,7.312l-1.277-7.9A4.189,4.189,0,0,1,23.674,18.3c3.185-.2,9.31-.86,14.679-1.579a5.707,5.707,0,0,0,3.311-1.638" transform="translate(49.465 261.224)"/>
    <path id="Path-135" data-name="Path" d="M45.682,10.789a26.3,26.3,0,0,0-5.334-6.8,16.907,16.907,0,0,0-9.36-3.9c-4.683-.455-9.435.815-13.74,2.557a28.011,28.011,0,0,0-4.172,1.92A22.935,22.935,0,0,0,10.319,6.6,31.99,31.99,0,0,0,2.267,17.135c-.554,1.145-1.025,2.333-1.524,3.5A13.56,13.56,0,0,0,0,25.584,22.721,22.721,0,0,0,1.551,34.2a38.388,38.388,0,0,0,2.03,4.125l3.35,6.247,4.318,8.052c1.1,2.048,2.008,4.249,4.3,5.24a6.23,6.23,0,0,0,3.58.405.9.9,0,0,0,.664-.87L17.864,42.456l-.479-3.7c-.067-.521-.1-1.063-.2-1.578-.119-.574-.588-.7-1-1.013a8.9,8.9,0,0,1-1.023-.949A15.9,15.9,0,0,1,13.092,32.5c-.92-1.515-1.931-3.859-.874-5.529a3.547,3.547,0,0,1,2.092-1.3,2.751,2.751,0,0,1,2.5.413,10.174,10.174,0,0,1,4.3,6.114.9.9,0,0,0,1.744-.48c-.419-2.591-.891-5.178-1.258-7.776A3.352,3.352,0,0,1,24.813,20.1c2.774-.188,5.542-.49,8.3-.8q2.78-.317,5.555-.681a7.467,7.467,0,0,0,4.535-1.98c.833-.814-.446-2.09-1.278-1.276a6.431,6.431,0,0,1-4.044,1.554q-2.528.326-5.06.612c-2.8.316-5.6.519-8.4.8a5.135,5.135,0,0,0-4.626,5.7c.163,1.267.4,2.527.606,3.787l.71,4.388,1.744-.48a12.238,12.238,0,0,0-3.42-5.835c-1.389-1.359-3.226-2.535-5.239-2.049a5.071,5.071,0,0,0-3.981,3.21c-.626,2.03.107,4.27,1.122,6.039a18.349,18.349,0,0,0,2.2,3.035,8.2,8.2,0,0,0,2.3,1.954l-.448-.779.879,6.79,1.4,10.824.322,2.486.664-.87a4.355,4.355,0,0,1-4.486-2.287c-.28-.509-.549-1.024-.824-1.536L9.433,45.41l-3.8-7.086c-.229-.428-.457-.856-.688-1.283a29.318,29.318,0,0,1-1.72-3.506,22.075,22.075,0,0,1-1.1-3.951,19.283,19.283,0,0,1,.035-7.347c.053-.25.126-.493.184-.741.079-.339-.133.276.005-.045q.4-.935.8-1.871A31.941,31.941,0,0,1,9.813,9.516a18.9,18.9,0,0,1,4.641-3.657,40.521,40.521,0,0,1,7.193-2.848,27.453,27.453,0,0,1,6.413-1.174,15.932,15.932,0,0,1,9.479,2.31,18.468,18.468,0,0,1,5.7,6.084l.888,1.47a.9.9,0,0,0,1.561-.911Z" transform="translate(48.561 260.317)"/>
    <path id="Path-136" data-name="Path" d="M1.127,1.91c.055-.013.111-.023.167-.033a.608.608,0,0,1,.2-.031c-.045-.012-.279.03-.1.014l.162-.017a8.491,8.491,0,0,1,1.632.01l.124.014c-.024,0-.215-.032-.051-.007.076.012.151.024.226.037q.287.051.569.124.263.068.52.155c.095.032.188.068.282.1.036.013.071.028.106.042-.192-.077.047.021.069.031A6.09,6.09,0,0,1,7.159,3.9,9.45,9.45,0,0,1,9.052,7.4c.35,1.1,2.1.632,1.744-.48A9.824,9.824,0,0,0,6.3.967,8.559,8.559,0,0,0,1.759.021,6.889,6.889,0,0,0,.646.17c-1.131.27-.652,2.011.481,1.741Z" transform="translate(8.756 318.229)"/>
    <path id="Path-137" data-name="Path" d="M.649,13.265a37.755,37.755,0,0,1,3.743-2.376,72.212,72.212,0,0,1,10.47-4.921,78.851,78.851,0,0,1,16.212-4.23,77.551,77.551,0,0,1,20.907-.253A84.969,84.969,0,0,1,76.624,8.544q1.654.75,3.279,1.562c.519.258.978-.52.456-.779A88.637,88.637,0,0,0,55.17,1.035,78.536,78.536,0,0,0,16.419,4.443,75.548,75.548,0,0,0,4.963,9.531,35.2,35.2,0,0,0,.254,12.441l-.061.045c-.461.343-.011,1.127.456.779Z" transform="translate(186.298 0)"/>
    <path id="Path-138" data-name="Path" d="M10.025,77.52a40.987,40.987,0,0,1-1.984-3.925A77.585,77.585,0,0,1,4.088,62.8,81.658,81.658,0,0,1,1.132,46.461,76.487,76.487,0,0,1,2.237,26.314,78.156,78.156,0,0,1,10.491,3.53Q11.283,2.082,12.13.666A.452.452,0,0,0,11.35.21,80.539,80.539,0,0,0,1.967,23.227,76.954,76.954,0,0,0,.083,44.092a82.3,82.3,0,0,0,2.61,17.038,80.954,80.954,0,0,0,4.068,11.8c.505,1.161,1.041,2.311,1.616,3.439a14.73,14.73,0,0,0,.828,1.541c.014.021.026.045.039.066a.452.452,0,0,0,.781-.456Z" transform="translate(35.445 156.852)"/>
    <path id="Path-139" data-name="Path" d="M5.425.564,6.8,7.219l.316-.555-6.8,2.07C-.239,8.9,0,9.774.556,9.6l6.8-2.07a.463.463,0,0,0,.316-.555L6.3.325C6.179-.244,5.308,0,5.425.565Z" transform="translate(259.513 2.803)"/>
    <path id="Path-140" data-name="Path" d="M.555,2.787,7.089.884,6.533.569l2.614,6.6c.212.534,1.086.3.872-.24L7.405.329A.462.462,0,0,0,6.849.014L.315,1.917a.452.452,0,0,0,.24.87Z" transform="translate(40.21 156.725)"/>
  </g>
</svg>
