<?xml version="1.0" encoding="UTF-8"?>
<svg version="1.1" xmlns="http://www.w3.org/2000/svg" width="512" height="512">
<path d="M0 0 C1.01790619 0.00215515 2.03581238 0.0043103 3.08456421 0.00653076 C17.69363523 0.05620146 32.02575853 0.30709809 46.375 3.3125 C47.34985352 3.51117676 48.32470703 3.70985352 49.32910156 3.91455078 C97.7109774 14.03517194 141.69928269 35.9516877 177.375 70.3125 C178.3640332 71.26068604 178.3640332 71.26068604 179.37304688 72.22802734 C188.86130305 81.37247479 197.6012044 90.66984009 205.375 101.3125 C206.23306152 102.46355017 207.09113451 103.61459177 207.94921875 104.765625 C213.98736829 112.95680614 219.34595521 121.47054105 224.375 130.3125 C224.73948242 130.94430176 225.10396484 131.57610352 225.47949219 132.22705078 C247.08534998 169.97532572 256.85198095 212.74189997 256.6875 255.9375 C256.68534485 256.95540619 256.6831897 257.97331238 256.68096924 259.02206421 C256.63129854 273.63113523 256.38040191 287.96325853 253.375 302.3125 C253.07698486 303.77478027 253.07698486 303.77478027 252.77294922 305.26660156 C242.65232806 353.6484774 220.7358123 397.63678269 186.375 433.3125 C185.74287598 433.97185547 185.11075195 434.63121094 184.45947266 435.31054688 C175.31502521 444.79880305 166.01765991 453.5387044 155.375 461.3125 C154.22394983 462.17056152 153.07290823 463.02863451 151.921875 463.88671875 C143.73224019 469.92427396 135.22961724 475.30707302 126.375 480.3125 C125.66778809 480.7146875 124.96057617 481.116875 124.23193359 481.53125 C101.09654164 494.5566741 75.92537591 503.30551461 49.9375 508.625 C49.21860596 508.77235596 48.49971191 508.91971191 47.7590332 509.0715332 C33.08339502 511.86090125 18.55831162 512.66142619 3.64770508 512.62817383 C0.70811513 512.6250221 -2.2304558 512.64854926 -5.16992188 512.67382812 C-18.54306192 512.71848737 -31.43916711 511.51301542 -44.625 509.3125 C-46.33055054 509.03031616 -46.33055054 509.03031616 -48.07055664 508.74243164 C-91.33802759 500.97044532 -132.38793216 480.98345309 -165.625 452.3125 C-166.37007813 451.67828125 -167.11515625 451.0440625 -167.8828125 450.390625 C-181.38779833 438.57948485 -194.05918743 425.82889772 -204.625 411.3125 C-205.48149066 410.16255169 -206.33826433 409.01281411 -207.1953125 407.86328125 C-213.23534209 399.67315742 -218.61867614 391.16870382 -223.625 382.3125 C-224.0271875 381.60528809 -224.429375 380.89807617 -224.84375 380.16943359 C-237.8691741 357.03404164 -246.61801461 331.86287591 -251.9375 305.875 C-252.08485596 305.15610596 -252.23221191 304.43721191 -252.3840332 303.6965332 C-255.35789088 288.05024391 -255.99800362 272.57681954 -255.9375 256.6875 C-255.93534485 255.66959381 -255.9331897 254.65168762 -255.93096924 253.60293579 C-255.88129854 238.99386477 -255.63040191 224.66174147 -252.625 210.3125 C-252.42632324 209.33764648 -252.22764648 208.36279297 -252.02294922 207.35839844 C-241.90232806 158.9765226 -219.9858123 114.98821731 -185.625 79.3125 C-184.99287598 78.65314453 -184.36075195 77.99378906 -183.70947266 77.31445312 C-174.56502521 67.82619695 -165.26765991 59.0862956 -154.625 51.3125 C-153.47394983 50.45443848 -152.32290823 49.59636549 -151.171875 48.73828125 C-142.98224019 42.70072604 -134.47961724 37.31792698 -125.625 32.3125 C-124.91778809 31.9103125 -124.21057617 31.508125 -123.48193359 31.09375 C-100.34654164 18.0683259 -75.17537591 9.31948539 -49.1875 4 C-48.46860596 3.85264404 -47.74971191 3.70528809 -47.0090332 3.5534668 C-31.36274391 0.57960912 -15.88931954 -0.06050362 0 0 Z " fill="#000000" transform="translate(255.625,-0.3125)"/>
<path d="M0 0 C12.25331075 7.58927928 18.94258234 18.66406122 22.33984375 32.44921875 C22.82038962 37.03040052 22.81313336 41.53521324 22.71484375 46.13671875 C22.71355469 47.29494141 22.71226562 48.45316406 22.7109375 49.64648438 C22.56266365 64.15260962 19.0471351 78.94983597 8.33984375 89.44921875 C2.5291308 93.93011679 -3.36688214 96.64427545 -10.66015625 97.44921875 C-11.51351562 97.55492187 -12.366875 97.660625 -13.24609375 97.76953125 C-22.17059132 98.35767865 -24.67557443 95.94150966 -33.66015625 91.44921875 C-33.99015625 101.67921875 -34.32015625 111.90921875 -34.66015625 122.44921875 C-38.37265625 123.27421875 -42.08515625 124.09921875 -45.91015625 124.94921875 C-47.07450195 125.21025391 -48.23884766 125.47128906 -49.43847656 125.74023438 C-50.82437988 126.04477539 -50.82437988 126.04477539 -52.23828125 126.35546875 C-53.65222168 126.66967773 -53.65222168 126.66967773 -55.09472656 126.99023438 C-57.66015625 127.44921875 -57.66015625 127.44921875 -61.66015625 127.44921875 C-61.66015625 85.20921875 -61.66015625 42.96921875 -61.66015625 -0.55078125 C-53.74015625 -0.55078125 -45.82015625 -0.55078125 -37.66015625 -0.55078125 C-37.00015625 1.09921875 -36.34015625 2.74921875 -35.66015625 4.44921875 C-34.62955078 3.81693359 -34.62955078 3.81693359 -33.578125 3.171875 C-32.67707031 2.62402344 -31.77601563 2.07617188 -30.84765625 1.51171875 C-29.95433594 0.96644531 -29.06101562 0.42117187 -28.140625 -0.140625 C-20.20539545 -4.65183424 -8.10941919 -3.84556484 0 0 Z " fill="#FDFDFD" transform="translate(344.66015625,210.55078125)"/>
<path d="M0 0 C5.80386053 4.88700626 9.9148238 10.25847398 13.18359375 17.08203125 C13.59609375 17.88125 14.00859375 18.68046875 14.43359375 19.50390625 C19.27836179 30.87565345 17.18359375 41.1530066 17.18359375 54.08203125 C-0.30640625 54.08203125 -17.79640625 54.08203125 -35.81640625 54.08203125 C-32.91371601 63.66298099 -32.91371601 63.66298099 -25.87890625 68.83203125 C-13.90017942 73.47060206 0.52425795 68.41327005 12.18359375 65.08203125 C12.18359375 72.34203125 12.18359375 79.60203125 12.18359375 87.08203125 C-4.4672088 94.48238794 -20.14254689 97.20832088 -37.81640625 91.08203125 C-41.00780958 89.65517432 -43.91017717 88.0195173 -46.81640625 86.08203125 C-47.68265625 85.52515625 -48.54890625 84.96828125 -49.44140625 84.39453125 C-60.14364206 73.97393322 -63.84313663 61.19683568 -64.05810547 46.60888672 C-64.10556791 31.08866693 -61.52117058 19.76669084 -52.56640625 6.83203125 C-38.62877979 -7.10559521 -17.1716168 -11.69384722 0 0 Z " fill="#FCFCFC" transform="translate(436.81640625,213.91796875)"/>
<path d="M0 0 C0 8.25 0 16.5 0 25 C-4.00433186 24.19913363 -7.13604584 23.2398169 -10.83984375 21.71875 C-15.88108712 20.04137427 -20.90922592 19.84078657 -26.1875 19.8125 C-27.39792969 19.79832031 -28.60835937 19.78414062 -29.85546875 19.76953125 C-33.16208002 19.75243337 -33.16208002 19.75243337 -36 22 C-36.91890424 24.36612547 -36.91890424 24.36612547 -36 27 C-31.17109588 30.9234846 -25.90562406 32.85076342 -20.125 34.9375 C-9.4919062 38.79939253 -1.40531951 42.52844006 4 53 C6.44640375 60.33921124 6.27626441 70.4208832 3.0625 77.5 C-2.34854158 86.50324566 -9.9594196 91.40557266 -20 94 C-34.12721638 96.89838271 -48.68230816 95.18871111 -62 90 C-63 89 -63 89 -63.11352539 86.49975586 C-63.10828857 85.41573486 -63.10305176 84.33171387 -63.09765625 83.21484375 C-63.09443359 82.04501953 -63.09121094 80.87519531 -63.08789062 79.66992188 C-63.07951172 78.43822266 -63.07113281 77.20652344 -63.0625 75.9375 C-63.05798828 74.70193359 -63.05347656 73.46636719 -63.04882812 72.19335938 C-63.03699608 69.12885883 -63.02051173 66.06445279 -63 63 C-61.33710937 63.63228516 -61.33710937 63.63228516 -59.640625 64.27734375 C-58.17712752 64.830846 -56.7135834 65.38422496 -55.25 65.9375 C-54.52039063 66.21529297 -53.79078125 66.49308594 -53.0390625 66.77929688 C-52.33007812 67.04677734 -51.62109375 67.31425781 -50.890625 67.58984375 C-50.24125977 67.83597412 -49.59189453 68.08210449 -48.92285156 68.33569336 C-44.23821788 69.95414032 -39.87239454 70.18305815 -34.9375 70.1875 C-34.21755859 70.19974609 -33.49761719 70.21199219 -32.75585938 70.22460938 C-28.9573753 70.23519011 -27.23633482 70.15755655 -24 68 C-23.33278464 65.08559301 -23.33278464 65.08559301 -24 62 C-28.15977758 57.77272096 -33.24829286 56.18850913 -38.6875 54.1875 C-49.91038997 49.86866977 -58.95956381 45.68693781 -64.25 34.3125 C-66.41947394 24.73065676 -65.06284553 16.4616789 -60 8 C-46.0088252 -8.58914923 -18.34521021 -9.1726051 0 0 Z " fill="#FCFCFC" transform="translate(122,213)"/>
<path d="M0 0 C0 7.59 0 15.18 0 23 C6.93 23 13.86 23 21 23 C21 30.92 21 38.84 21 47 C14.07 47 7.14 47 0 47 C0.09693137 53.19340413 0.19966055 59.38613844 0.31738281 65.57910156 C0.35566306 67.68581254 0.3905176 69.79258867 0.421875 71.89941406 C0.46754598 74.92797121 0.52553745 77.95608022 0.5859375 80.984375 C0.59748871 81.92617615 0.60903992 82.86797729 0.62094116 83.83831787 C0.64081085 84.71892883 0.66068054 85.59953979 0.68115234 86.50683594 C0.69447601 87.27960876 0.70779968 88.05238159 0.7215271 88.84857178 C1.04128414 91.31895334 1.66906499 92.89779129 3 95 C6.11100727 97.07400485 6.78712691 97.254476 10.3125 97.1875 C11.05113281 97.18105469 11.78976563 97.17460937 12.55078125 97.16796875 C15.38730631 96.97343832 18.19549689 96.46741718 21 96 C21 103.59 21 111.18 21 119 C11.99355854 122.60257658 0.39337368 123.99327692 -9.01953125 121.05859375 C-16.94290105 117.26915602 -22.65321284 111.55963423 -26.09909058 103.39620972 C-27.25125018 99.05284784 -27.26415495 95.07067812 -27.22705078 90.59814453 C-27.22748886 89.20694649 -27.22748886 89.20694649 -27.22793579 87.78764343 C-27.22654751 84.73593645 -27.21100987 81.6844766 -27.1953125 78.6328125 C-27.19158059 76.51146579 -27.18873446 74.39011736 -27.18673706 72.26876831 C-27.17911465 66.69567067 -27.15947806 61.1226779 -27.1373291 55.54962158 C-27.11684071 49.85861632 -27.10772894 44.16759405 -27.09765625 38.4765625 C-27.0762309 27.31766236 -27.04211171 16.15883991 -27 5 C-23.43955555 4.15771542 -19.87634656 3.32776097 -16.3125 2.5 C-14.80139648 2.14228516 -14.80139648 2.14228516 -13.25976562 1.77734375 C-12.28330078 1.55175781 -11.30683594 1.32617188 -10.30078125 1.09375 C-9.40528564 0.88427734 -8.50979004 0.67480469 -7.5871582 0.45898438 C-5 0 -5 0 0 0 Z " fill="#FBFBFB" transform="translate(160,186)"/>
<path d="M0 0 C7.92 0 15.84 0 24 0 C24.99 1.98 25.98 3.96 27 6 C27.62261719 5.3503125 27.62261719 5.3503125 28.2578125 4.6875 C32.90282014 0.48950147 36.20962864 -0.41327812 42.5 -0.375 C44.645 -0.25125 46.79 -0.1275 49 0 C49 8.58 49 17.16 49 26 C45.04 26 41.08 26 37 26 C32.08437157 27.49669817 32.08437157 27.49669817 29 31 C27.83182865 35.97143432 27.92763869 40.8566342 28 45.92578125 C27.99247786 47.39839315 27.9814407 48.87099093 27.96704102 50.34355164 C27.93864881 54.2090806 27.95786725 58.07295028 27.98712158 61.93841553 C28.00853985 65.88678746 27.98477041 69.83486168 27.96484375 73.78320312 C27.93242371 81.52267484 27.95449411 89.26052229 28 97 C18.76 97 9.52 97 0 97 C0 64.99 0 32.98 0 0 Z " fill="#FAFAFA" transform="translate(189,209)"/>
<path d="M0 0 C8.91 0 17.82 0 27 0 C27 31.68 27 63.36 27 96 C18.09 96 9.18 96 0 96 C0 64.32 0 32.64 0 0 Z " fill="#FFFFFF" transform="translate(245,210)"/>
<path d="M0 0 C5.486641 3.65776066 8.89872581 8.5986682 10.8125 14.875 C11.24450929 17.99061898 11.28979711 21.04540871 11.25 24.1875 C11.24170166 25.02692139 11.23340332 25.86634277 11.22485352 26.73120117 C11.02665273 34.00820294 10.14532965 40.20888739 5.09375 45.765625 C0.72084187 49.73088915 -2.92335906 51.33084967 -8.99902344 51.20654297 C-13.08493022 50.58754906 -16.26340699 48.77432323 -19.1875 45.875 C-20.35524194 42.70979479 -20.31179866 39.72258118 -20.25 36.375 C-20.25765381 35.46169922 -20.26530762 34.54839844 -20.27319336 33.60742188 C-20.27862516 31.6809446 -20.26394538 29.75431905 -20.23046875 27.828125 C-20.18760283 24.88206712 -20.23005372 21.9457553 -20.28125 19 C-20.27596329 17.12497852 -20.26571291 15.2499631 -20.25 13.375 C-20.26619385 12.49779297 -20.2823877 11.62058594 -20.29907227 10.71679688 C-20.11781493 4.7914773 -20.11781493 4.7914773 -17.48046875 2.19335938 C-11.53954359 -1.7102039 -6.85240844 -2.4184971 0 0 Z " fill="#050505" transform="translate(329.1875,233.125)"/>
<path d="M0 0 C0 7.59 0 15.18 0 23 C-3.74892907 23.83841864 -7.49900359 24.67092672 -11.25 25.5 C-12.31347656 25.73847656 -13.37695312 25.97695312 -14.47265625 26.22265625 C-16.00986328 26.56103516 -16.00986328 26.56103516 -17.578125 26.90625 C-18.99206543 27.22045898 -18.99206543 27.22045898 -20.43457031 27.54101562 C-23 28 -23 28 -27 28 C-27 20.41 -27 12.82 -27 5 C-22.87545726 4.16434735 -18.75040557 3.33137258 -14.625 2.5 C-13.449375 2.26152344 -12.27375 2.02304688 -11.0625 1.77734375 C-9.38027344 1.43896484 -9.38027344 1.43896484 -7.6640625 1.09375 C-6.62717285 0.88427734 -5.5902832 0.67480469 -4.52197266 0.45898438 C-2 0 -2 0 0 0 Z " fill="#FAFAFA" transform="translate(272,173)"/>
<path d="M0 0 C4.79641809 2.44523275 7.52341362 5.23027808 10 10 C10.33 12.64 10.66 15.28 11 18 C1.43 18 -8.14 18 -18 18 C-16.8712651 7.84138589 -16.8712651 7.84138589 -14.1875 5.0625 C-13.68605469 4.51722656 -13.18460937 3.97195312 -12.66796875 3.41015625 C-8.63206799 -0.00192847 -5.25322589 -0.54343716 0 0 Z " fill="#090909" transform="translate(418,230)"/>
</svg>
