<?xml version="1.0" encoding="UTF-8"?>
<svg version="1.1" xmlns="http://www.w3.org/2000/svg" width="160" height="160">
<path d="M0 0 C52.8 0 105.6 0 160 0 C160 52.8 160 105.6 160 160 C107.2 160 54.4 160 0 160 C0 107.2 0 54.4 0 0 Z " fill="#24B643" transform="translate(0,0)"/>
<path d="M0 0 C3.02719578 3.02719578 4.87546111 5.7130375 5.11352539 10.0847168 C5.10828857 10.86500244 5.10305176 11.64528809 5.09765625 12.44921875 C5.09443359 13.29677734 5.09121094 14.14433594 5.08789062 15.01757812 C5.07532227 16.33918945 5.07532227 16.33918945 5.0625 17.6875 C5.05798828 18.58017578 5.05347656 19.47285156 5.04882812 20.39257812 C5.03704983 22.59511987 5.02060164 24.79752599 5 27 C4.23171875 26.35417969 3.4634375 25.70835938 2.671875 25.04296875 C0.16853248 22.84899559 0.16853248 22.84899559 -2.75 22.3125 C-11.83316594 24.23393895 -18.25038265 33.27802089 -24 40 C-37.63951759 55.79910788 -37.63951759 55.79910788 -42.9375 56.25 C-46 56 -46 56 -47.66796875 54.9140625 C-49.67553049 52.02929637 -49.39702174 49.59709447 -49.375 46.125 C-49.38273437 44.91070312 -49.39046875 43.69640625 -49.3984375 42.4453125 C-48.9710432 38.74960884 -48.33679179 36.87404527 -46 34 C-43.9140625 32.99609375 -43.9140625 32.99609375 -41.625 32.4375 C-34.5970727 30.68655591 -30.95006693 25.92156402 -26.8125 20.375 C-9.90786374 -1.68644489 -9.90786374 -1.68644489 0 0 Z " fill="#F7FDF8" transform="translate(103,47)"/>
<path d="M0 0 C0.33 0 0.66 0 1 0 C3.00675505 21.90029319 3.00675505 21.90029319 -2.47802734 28.65722656 C-4.43265785 30.70667856 -6.44150958 32.67430556 -8.52929688 34.58789062 C-15.66642147 41.44066762 -20.64386885 50.46436628 -25.37109375 59.06640625 C-27 62 -27 62 -29 65 C-30.0963647 50.54485312 -29.05508386 40.18622815 -21 28 C-20.60425781 27.39607422 -20.20851563 26.79214844 -19.80078125 26.16992188 C-17.01791819 21.99562728 -14.04774639 17.98334936 -11 14 C-10.53674316 13.38866211 -10.07348633 12.77732422 -9.59619141 12.14746094 C-1.60733988 1.60733988 -1.60733988 1.60733988 0 0 Z " fill="#F2FDF5" transform="translate(81,21)"/>
<path d="M0 0 C1.32 0.66 2.64 1.32 4 2 C5.18485971 15.80142149 0.26942728 22.84790173 -7.52539062 33.73120117 C-10.64294325 38.20841155 -13.11019841 42.88301869 -15.4375 47.8125 C-15.76733887 48.50553223 -16.09717773 49.19856445 -16.43701172 49.91259766 C-18.54771021 54.53230208 -19.89528566 59.04266378 -21 64 C-21.33 64 -21.66 64 -22 64 C-22.63421802 40.22856897 -17.26164011 23.69998328 -3.00390625 4.6953125 C-1.02798047 2.20159796 -1.02798047 2.20159796 0 0 Z " fill="#F3FDF5" transform="translate(102,73)"/>
<path d="M0 0 C3.25 0.375 3.25 0.375 5.94921875 2.4453125 C8.88795161 6.18733227 8.74098885 7.94532406 8.3125 12.625 C8.25328369 13.2837915 8.19406738 13.94258301 8.13305664 14.62133789 C7.53381199 20.07199244 5.99825036 24.65823543 3.25 29.375 C2.59 29.375 1.93 29.375 1.25 29.375 C1.1675 29.99375 1.085 30.6125 1 31.25 C0.25 33.375 0.25 33.375 -1.796875 34.5078125 C-2.44140625 34.79398438 -3.0859375 35.08015625 -3.75 35.375 C-3.18410156 34.38757813 -2.61820312 33.40015625 -2.03515625 32.3828125 C-1.29424241 31.08855794 -0.55335855 29.79428621 0.1875 28.5 C0.56068359 27.84902344 0.93386719 27.19804688 1.31835938 26.52734375 C4.22050077 21.45513267 5.4221044 18.74313531 5.5 12.875 C5.52578125 11.7096875 5.5515625 10.544375 5.578125 9.34375 C5.46984375 8.3640625 5.3615625 7.384375 5.25 6.375 C4.26 5.715 3.27 5.055 2.25 4.375 C1.59 6.025 0.93 7.675 0.25 9.375 C-0.79449911 6.24150268 -0.68423645 5.38531744 0.25 2.375 C-1.07 2.045 -2.39 1.715 -3.75 1.375 C-2.75 0.375 -2.75 0.375 0 0 Z " fill="#48B662" transform="translate(99.75,68.625)"/>
<path d="M0 0 C1.26823485 3.65393537 0.75715321 6.49070026 0.0625 10.25 C-0.13214844 11.32765625 -0.32679687 12.4053125 -0.52734375 13.515625 C-0.68332031 14.33546875 -0.83929688 15.1553125 -1 16 C0.32 15.67 1.64 15.34 3 15 C2.80664062 15.556875 2.61328125 16.11375 2.4140625 16.6875 C0.68625575 21.75117127 -0.7693067 26.79322065 -2 32 C-2.33 32 -2.66 32 -3 32 C-3.57446809 10.46808511 -3.57446809 10.46808511 0 0 Z " fill="#DEFBE5" transform="translate(83,105)"/>
<path d="M0 0 C-0.25208691 7.05843338 -2.40338061 10.71459055 -7 16 C-7.33 15.34 -7.66 14.68 -8 14 C-7.0625 11.375 -7.0625 11.375 -6 9 C-5.34 9 -4.68 9 -4 9 C-4 8.34 -4 7.68 -4 7 C-3.34 7 -2.68 7 -2 7 C-3.3089572 3.87802522 -3.3089572 3.87802522 -6 2 C-6 2.66 -6 3.32 -6 4 C-7.32 3.67 -8.64 3.34 -10 3 C-6.68152292 -0.06320961 -4.44849969 -0.3033068 0 0 Z " fill="#35B252" transform="translate(100,71)"/>
<path d="M0 0 C0.9237463 3.11042698 1.0781003 5.82621889 1 9.0625 C0.9254869 12.15945057 1.00691998 14.02075995 2 17 C4.97 16.67 7.94 16.34 11 16 C8 19 8 19 5 19.375 C2 19 2 19 0.328125 17.91796875 C-1.70147342 14.98698986 -1.32263812 12.44955297 -1.25 8.9375 C-1.23453125 7.68839844 -1.2190625 6.43929687 -1.203125 5.15234375 C-1 2 -1 2 0 0 Z " fill="#D7FAE0" transform="translate(55,84)"/>
<path d="M0 0 C1.18344996 3.55034989 0.41810509 5.43475569 -0.453125 8.97265625 C-1.64303914 15.55968098 -1.70868805 22.32282342 -2 29 C-2.33 29 -2.66 29 -3 29 C-3.02929977 25.64585201 -3.0468989 22.29173747 -3.0625 18.9375 C-3.07087891 17.99455078 -3.07925781 17.05160156 -3.08789062 16.08007812 C-3.10573446 10.95889863 -3.08283619 6.01918408 -2 1 C-1.34 0.67 -0.68 0.34 0 0 Z " fill="#35AB4D" transform="translate(82,105)"/>
<path d="M0 0 C0.93045933 2.55144824 1.08564091 3.74006478 0.22265625 6.359375 C-0.16019531 7.14828125 -0.54304688 7.9371875 -0.9375 8.75 C-1.31777344 9.54921875 -1.69804688 10.3484375 -2.08984375 11.171875 C-2.39019531 11.77515625 -2.69054687 12.3784375 -3 13 C-3.66 13 -4.32 13 -5 13 C-5.0825 13.61875 -5.165 14.2375 -5.25 14.875 C-6 17 -6 17 -8.046875 18.1328125 C-8.69140625 18.41898438 -9.3359375 18.70515625 -10 19 C-9.44570312 18.04738281 -8.89140625 17.09476563 -8.3203125 16.11328125 C-7.58836811 14.84645443 -6.85660695 13.57952173 -6.125 12.3125 C-5.76019531 11.68666016 -5.39539063 11.06082031 -5.01953125 10.41601562 C-3.06258803 7.01805058 -1.34392261 3.69932381 0 0 Z " fill="#4AB45F" transform="translate(106,85)"/>
<path d="M0 0 C0.33 0.99 0.66 1.98 1 3 C2.65 3 4.3 3 6 3 C6 3.33 6 3.66 6 4 C4.824375 4.12375 4.824375 4.12375 3.625 4.25 C0.93480073 4.71528498 0.93480073 4.71528498 -0.125 6.65625 C-1.2079573 9.55702847 -1.42371058 12.16356229 -1.625 15.25 C-1.69976562 16.32765625 -1.77453125 17.4053125 -1.8515625 18.515625 C-1.90054688 19.33546875 -1.94953125 20.1553125 -2 21 C-2.33 21 -2.66 21 -3 21 C-4.26867295 12.85015527 -4.23762288 7.20214017 0 0 Z " fill="#52B86D" transform="translate(56,77)"/>
<path d="M0 0 C0.66 0 1.32 0 2 0 C2 2.64 2 5.28 2 8 C-0.64 8 -3.28 8 -6 8 C-6 7.34 -6 6.68 -6 6 C-4.68 6 -3.36 6 -2 6 C-2 5.34 -2 4.68 -2 4 C-1.34 4 -0.68 4 0 4 C0 2.68 0 1.36 0 0 Z " fill="#728573" transform="translate(158,152)"/>
<path d="M0 0 C0.66 0 1.32 0 2 0 C2 1.32 2 2.64 2 4 C2.66 4 3.32 4 4 4 C4 4.66 4 5.32 4 6 C5.32 6 6.64 6 8 6 C8 6.66 8 7.32 8 8 C5.36 8 2.72 8 0 8 C0 5.36 0 2.72 0 0 Z " fill="#738573" transform="translate(0,152)"/>
<path d="M0 0 C2.64 0 5.28 0 8 0 C8 0.66 8 1.32 8 2 C6.68 2 5.36 2 4 2 C4 2.66 4 3.32 4 4 C3.34 4 2.68 4 2 4 C2 5.32 2 6.64 2 8 C1.34 8 0.68 8 0 8 C0 5.36 0 2.72 0 0 Z " fill="#768374" transform="translate(0,0)"/>
<path d="M0 0 C2.64 0 5.28 0 8 0 C8 2.64 8 5.28 8 8 C7.34 8 6.68 8 6 8 C6 6.68 6 5.36 6 4 C5.34 4 4.68 4 4 4 C4 3.34 4 2.68 4 2 C2.68 2 1.36 2 0 2 C0 1.34 0 0.68 0 0 Z " fill="#758374" transform="translate(152,0)"/>
<path d="M0 0 C0.33 0 0.66 0 1 0 C1 2.97 1 5.94 1 9 C1.66 9 2.32 9 3 9 C2.34 12.63 1.68 16.26 1 20 C0.67 20 0.34 20 0 20 C0 13.4 0 6.8 0 0 Z " fill="#C5FAD1" transform="translate(80,117)"/>
<path d="M0 0 C1.33332095 2.6666419 0.67102033 4.16680303 0 7 C-1.32 7.33 -2.64 7.66 -4 8 C-4.33 9.65 -4.66 11.3 -5 13 C-5.66 13 -6.32 13 -7 13 C-5.58832253 7.73829306 -3.25149768 4.27828642 0 0 Z " fill="#42B55B" transform="translate(95,105)"/>
<path d="M0 0 C0.66 0.33 1.32 0.66 2 1 C-0.97 4.63 -3.94 8.26 -7 12 C-8 9 -8 9 -6.75 6.3125 C-6.1725 5.549375 -5.595 4.78625 -5 4 C-4.01 4 -3.02 4 -2 4 C-1.34 2.68 -0.68 1.36 0 0 Z " fill="#E0FBEA" transform="translate(79,44)"/>
<path d="M0 0 C0.8125 1.6875 0.8125 1.6875 1 4 C-1.3125 6.5625 -1.3125 6.5625 -4 9 C-4.99 10.485 -4.99 10.485 -6 12 C-6.99 11.67 -7.98 11.34 -9 11 C-8.51789063 10.45730469 -8.03578125 9.91460937 -7.5390625 9.35546875 C-6.90742187 8.64003906 -6.27578125 7.92460938 -5.625 7.1875 C-4.68527344 6.12595703 -4.68527344 6.12595703 -3.7265625 5.04296875 C-1.859401 2.91196181 -1.859401 2.91196181 0 0 Z " fill="#46B65F" transform="translate(74,52)"/>
<path d="M0 0 C3 1 3 1 4.2109375 2.734375 C5.17175131 5.49314732 5.00453539 7.36553102 4.625 10.25 C4.51414062 11.14203125 4.40328125 12.0340625 4.2890625 12.953125 C4.19367188 13.62859375 4.09828125 14.3040625 4 15 C3.67 15 3.34 15 3 15 C2.92652344 13.95199219 2.92652344 13.95199219 2.8515625 12.8828125 C2.73941406 11.51769531 2.73941406 11.51769531 2.625 10.125 C2.55539063 9.22007813 2.48578125 8.31515625 2.4140625 7.3828125 C2.20431868 4.82058097 2.20431868 4.82058097 0 3 C0 2.01 0 1.02 0 0 Z " fill="#59BB6F" transform="translate(103,70)"/>
<path d="M0 0 C1.0625 1.8125 1.0625 1.8125 2 4 C1.67 4.99 1.34 5.98 1 7 C0.34 7 -0.32 7 -1 7 C-1.33 7.99 -1.66 8.98 -2 10 C-3 8 -3 8 -2.44140625 6.0546875 C-2.15136719 5.33539063 -1.86132812 4.61609375 -1.5625 3.875 C-1.27503906 3.15054688 -0.98757812 2.42609375 -0.69140625 1.6796875 C-0.46324219 1.12539062 -0.23507813 0.57109375 0 0 Z " fill="#41B85E" transform="translate(84,124)"/>
<path d="M0 0 C1.09898702 3.29696105 0.87124444 4.40494903 0.0625 7.6875 C-0.13214844 8.49574219 -0.32679687 9.30398437 -0.52734375 10.13671875 C-0.76130859 11.05904297 -0.76130859 11.05904297 -1 12 C-1.33 12 -1.66 12 -2 12 C-2 8.37 -2 4.74 -2 1 C-1.34 0.67 -0.68 0.34 0 0 Z " fill="#3BB159" transform="translate(82,105)"/>
<path d="M0 0 C0.66 1.32 1.32 2.64 2 4 C0.71034824 5.37562854 -0.62689293 6.70766393 -2 8 C-2.66 8 -3.32 8 -4 8 C-2.87548273 5.0280615 -1.77706209 2.66559313 0 0 Z " fill="#E1FAE3" transform="translate(66,40)"/>
<path d="M0 0 C0 3 0 3 -2.5 5.6875 C-3.325 6.450625 -4.15 7.21375 -5 8 C-5.66 7.67 -6.32 7.34 -7 7 C-4.69 4.69 -2.38 2.38 0 0 Z " fill="#49B366" transform="translate(75,91)"/>
<path d="M0 0 C1 2 1 2 0.375 4.0625 C-1 6 -1 6 -3.625 6.75 C-4.800625 6.87375 -4.800625 6.87375 -6 7 C-4.02 4.69 -2.04 2.38 0 0 Z " fill="#48B35B" transform="translate(89,75)"/>
</svg>
