<?xml version="1.0" encoding="UTF-8"?>
<svg version="1.1" xmlns="http://www.w3.org/2000/svg" width="512" height="512">
<path d="M0 0 C0.70055104 -0.00438225 1.40110209 -0.00876451 2.12288195 -0.01327956 C4.47633829 -0.02666094 6.82975718 -0.03284505 9.1832428 -0.03897095 C10.86862863 -0.04687277 12.55401278 -0.05514177 14.23939514 -0.06375122 C19.78194056 -0.08997368 25.3244935 -0.10528439 30.86708069 -0.11953735 C32.77708503 -0.12489794 34.68708933 -0.13027546 36.59709358 -0.13566971 C44.54674977 -0.15730348 52.49640393 -0.17603707 60.44608212 -0.1872921 C71.82473111 -0.20350889 83.2030374 -0.23662572 94.58155721 -0.29369295 C102.58853303 -0.33247463 110.59541753 -0.35193482 118.60248476 -0.35721266 C123.38057149 -0.36085638 128.15829272 -0.37277205 132.93627739 -0.4053154 C137.43847794 -0.43553914 141.94009463 -0.44165726 146.44237518 -0.42993164 C148.08700558 -0.42971206 149.73166418 -0.43792052 151.37619972 -0.45558548 C165.034225 -0.59420174 175.85848471 1.83207323 185.95692444 11.63827515 C196.56453501 23.79361537 196.45219809 37.89817793 196.34754944 53.1968689 C196.34381109 54.81782353 196.34096801 56.43878044 196.338974 58.05973816 C196.33140213 62.28963657 196.31181044 66.51939377 196.28956604 70.74923706 C196.26896731 75.08006888 196.25994253 79.4109239 196.24989319 83.74179077 C196.2285573 92.21255811 196.19450101 100.68321147 196.15223694 109.15390015 C197.07617249 108.83654907 198.00010803 108.519198 198.95204163 108.19223022 C205.83340774 105.95951356 212.74053464 105.96091365 219.90223694 105.96640015 C221.36451721 105.966521 221.36451721 105.966521 222.8563385 105.96664429 C238.01851539 106.08703937 238.01851539 106.08703937 244.15223694 109.15390015 C244.14779572 108.26377731 244.14335449 107.37365448 244.13877869 106.45655823 C244.09854105 98.02764595 244.06817121 89.59876639 244.04861259 81.16977978 C244.03821898 76.83737749 244.02414154 72.50505523 244.00135803 68.17269897 C243.97947069 63.9840702 243.96763514 59.79551792 243.96248245 55.60683632 C243.95881501 54.01662303 243.95165424 52.42641346 243.94077682 50.83623314 C243.84113611 35.65222656 244.62931437 22.18688858 255.27723694 10.34140015 C262.29350125 3.8128134 271.54119216 0.04191736 281 0 C281.70055104 -0.00438225 282.40110209 -0.00876451 283.12288195 -0.01327956 C285.47633829 -0.02666094 287.82975718 -0.03284505 290.1832428 -0.03897095 C291.86862863 -0.04687277 293.55401278 -0.05514177 295.23939514 -0.06375122 C300.78194056 -0.08997368 306.3244935 -0.10528439 311.86708069 -0.11953735 C313.77708503 -0.12489794 315.68708933 -0.13027546 317.59709358 -0.13566971 C325.54674977 -0.15730348 333.49640393 -0.17603707 341.44608212 -0.1872921 C352.82473111 -0.20350889 364.2030374 -0.23662572 375.58155721 -0.29369295 C383.58853303 -0.33247463 391.59541753 -0.35193482 399.60248476 -0.35721266 C404.38057149 -0.36085638 409.15829272 -0.37277205 413.93627739 -0.4053154 C418.43847794 -0.43553914 422.94009463 -0.44165726 427.44237518 -0.42993164 C429.08700558 -0.42971206 430.73166418 -0.43792052 432.37619972 -0.45558548 C445.99244832 -0.59377774 456.82559308 1.83720837 466.95301819 11.5406189 C472.19399172 17.76834765 476.25863532 25.74283342 476.29940796 33.96507263 C476.31014091 35.45150772 476.31014091 35.45150772 476.3210907 36.9679718 C476.32512405 38.59733421 476.32512405 38.59733421 476.32923889 40.25961304 C476.33909569 41.97718811 476.33909569 41.97718811 476.34915161 43.72946167 C476.36890177 47.52849389 476.38055262 51.3274865 476.39051819 55.1265564 C476.39459372 56.42419859 476.39866924 57.72184078 476.40286827 59.05880547 C476.42158608 65.22150395 476.436148 71.3841826 476.44448024 77.54690367 C476.45423462 84.64324841 476.48050641 91.73927972 476.52098113 98.83551413 C476.55123769 104.33038016 476.56595835 109.82515688 476.56926125 115.32010454 C476.57160213 118.59689037 476.58243639 121.87326681 476.60572243 125.14998055 C476.63013965 128.81438023 476.62914319 132.47796894 476.62220764 136.14242554 C476.6350177 137.21449753 476.64782776 138.28656952 476.661026 139.39112854 C476.58389857 150.61728039 472.60261733 159.44912318 465.02723694 167.71640015 C455.39592172 177.03835834 443.33874717 178.46716372 430.57411194 178.54452515 C424.75323043 178.70522433 419.87189391 179.5543067 415.15223694 183.15390015 C411.25077037 187.28379068 409.23641514 190.75909593 407.36317444 196.1968689 C407.1332077 196.84714554 406.90324097 197.49742218 406.66630554 198.16740417 C405.941142 200.2213965 405.23277765 202.28059306 404.52723694 204.34140015 C403.81308084 206.41230827 403.0951609 208.48159319 402.366745 210.54753113 C401.7095207 212.41328481 401.06599797 214.28384829 400.42323303 216.15463257 C399.24987179 218.92350366 398.58343528 220.43980442 396.15223694 222.15390015 C390.52041876 222.9584456 390.52041876 222.9584456 388.15223694 222.15390015 C382.85133957 216.09723127 381.04275439 207.7590114 378.50770569 200.2749939 C375.73655084 192.28530689 373.36911929 186.08250273 366.15223694 181.15390015 C362.64820031 179.52098079 359.84985269 178.89361077 355.99476624 178.83505249 C354.99410629 178.8151828 353.99344635 178.79531311 352.96246338 178.77484131 C351.89458084 178.7632901 350.8266983 178.75173889 349.72645569 178.73983765 C348.62372818 178.7204715 347.52100067 178.70110535 346.38485718 178.68115234 C342.86989528 178.62147092 339.35490043 178.5750164 335.83973694 178.52890015 C333.45365511 178.49070989 331.06758691 178.45165755 328.68153381 178.41171265 C322.83855604 178.31577871 316.99549587 178.23069767 311.15223694 178.15390015 C311.29507111 178.91043381 311.43790527 179.66696747 311.58506775 180.44642639 C312.74603875 186.92033113 313.40069956 193.04359519 313.28504944 199.6109314 C313.28585491 201.3173134 313.28851193 203.02369537 313.29286194 204.73007202 C313.29089049 207.36171494 313.27680957 209.99113088 313.2313385 212.62240601 C312.67499575 222.65323656 312.67499575 222.65323656 315.9032135 231.78182983 C317.9663636 233.6518607 317.9663636 233.6518607 320.18885803 234.94320679 C323.70920468 237.11398508 325.11955518 240.24907226 326.15223694 244.15390015 C327.11309176 252.0509257 326.8108168 259.48395573 322.15223694 266.15390015 C318.23786968 270.4850372 315.04690198 273.33377284 309.15223694 274.15390015 C311.0538772 285.43029326 313.71449157 297.69149683 323.15223694 305.15390015 C325.39635437 306.69725228 327.66240714 308.20146171 329.94129944 309.69296265 C337.61390248 314.76284522 341.84155609 320.51132475 343.83583069 329.63827515 C345.91204951 346.14549639 342.97516598 360.15831891 332.71473694 373.46640015 C330.65989973 375.62147331 328.89719954 377.14250521 326.49208069 378.8218689 C325.86551575 379.26168091 325.23895081 379.70149292 324.59339905 380.15463257 C323.8800238 380.64927002 323.8800238 380.64927002 323.15223694 381.15390015 C323.9073053 381.46093872 324.66237366 381.76797729 325.44032288 382.08432007 C328.30328101 383.24879089 331.16605026 384.41372463 334.02870178 385.57894897 C335.85229189 386.32107458 337.67608964 387.06268987 339.49989319 387.80429077 C341.88387966 388.77482078 344.26709979 389.74723535 346.64955139 390.7215271 C348.94850243 391.66165017 351.24907523 392.59781911 353.55140686 393.52963257 C355.13079041 394.17509033 355.13079041 394.17509033 356.74208069 394.83358765 C357.67141418 395.21112183 358.60074768 395.58865601 359.5582428 395.97763062 C363.77733461 397.89081503 367.45581899 400.38338106 371.15223694 403.15390015 C371.74391663 403.56897827 372.33559631 403.9840564 372.94520569 404.41171265 C383.884036 412.77228318 391.79773031 427.76708119 394.15223694 441.15390015 C395.10349243 448.37326078 395.32505682 455.54759819 395.35536194 462.8218689 C395.36106201 463.90091995 395.36676208 464.97997101 395.37263489 466.09172058 C395.38202044 468.35649655 395.38859297 470.62128578 395.39247131 472.88607788 C395.40223899 476.34212763 395.43334854 479.79759728 395.46473694 483.25350952 C395.47126259 485.46379248 395.47651477 487.67407965 395.48036194 489.8843689 C395.49888214 491.42365303 395.49888214 491.42365303 395.51777649 492.99403381 C395.49970312 498.8249708 395.13645238 503.08195361 392.15223694 508.15390015 C388.54685755 511.6151924 386.31631395 512.65418152 381.33755589 512.66005802 C380.16784671 512.67110571 378.99813754 512.6821534 377.79298264 512.69353586 C376.51206283 512.6852951 375.23114303 512.67705433 373.91140747 512.66856384 C372.53367746 512.67388927 371.15595326 512.68095494 369.77824014 512.6896109 C365.99287026 512.70826606 362.20789083 512.70192356 358.42250454 512.69145787 C354.33992342 512.68447393 350.25742316 512.70045766 346.17486572 512.7134552 C338.17707273 512.73511413 330.17942191 512.73496345 322.18160922 512.72682966 C315.68195602 512.72053352 309.18234433 512.72166314 302.68269157 512.72810173 C301.75813071 512.72900339 300.83356984 512.72990504 299.88099198 512.73083402 C298.00283602 512.73268519 296.12468008 512.73454775 294.24652415 512.73642158 C276.62795683 512.7530067 259.00946955 512.74427485 241.39090704 512.727436 C225.26769121 512.71273905 209.14466173 512.7273661 193.0214699 512.75620616 C176.47110065 512.78559015 159.92081745 512.79657532 143.37042326 512.78702396 C141.49881488 512.7860014 139.62720648 512.78500679 137.75559807 512.78404045 C136.83470445 512.78356406 135.91381083 512.78308767 134.96501135 512.78259685 C128.47305084 512.78043136 121.98117167 512.79024396 115.4892292 512.80481148 C107.57772678 512.82231651 99.66646196 512.82224388 91.75496895 512.79945982 C87.71768909 512.78830075 83.68082812 512.78519236 79.64356613 512.80376053 C75.9478784 512.82053913 72.25297575 512.81425099 68.55733912 512.78954374 C66.58662807 512.78233284 64.61587448 512.79971455 62.64523464 512.81795508 C53.08296582 512.71663191 53.08296582 512.71663191 49.40164852 509.77857876 C44.34623672 503.87977779 44.85721395 497.52070537 44.88661194 490.12265015 C44.88469849 489.05454102 44.88278503 487.98643188 44.8808136 486.88595581 C44.87945489 484.62663538 44.88312934 482.36730706 44.89149475 480.10800171 C44.902114 476.69342917 44.8916324 473.27939297 44.87879944 469.86483765 C44.86378123 448.69081446 46.42085784 430.9206112 59.15223694 413.15390015 C59.84252991 412.18516968 59.84252991 412.18516968 60.54676819 411.1968689 C73.46027167 394.7107535 97.25419079 388.87080569 116.15223694 382.15390015 C115.51157288 381.70401733 114.87090881 381.25413452 114.21083069 380.7906189 C103.97034327 373.17511484 98.00839468 363.78762026 95.59754944 351.2749939 C93.85115044 339.03488162 94.91098056 326.34318311 102.35145569 316.11483765 C105.96394297 312.18106624 110.50567334 309.7031081 115.07411194 307.02890015 C124.41664269 301.07613719 127.6102657 290.42607111 130.15223694 280.15390015 C130.50866784 278.15788709 130.84911577 276.15870155 131.15223694 274.15390015 C130.411026 274.05077515 129.66981506 273.94765015 128.90614319 273.84140015 C123.5966345 272.51590578 119.82856654 268.55399322 116.74989319 264.14608765 C113.18622357 257.27239038 112.80828056 249.23573521 114.77723694 241.7906189 C116.55146479 237.71147897 118.52362354 235.9161249 122.25379944 233.5953064 C125.43311942 230.86418523 126.10550455 229.41205014 126.864151 225.22128296 C127.19413869 220.30418706 127.11472912 215.39062789 127.02723694 210.46640015 C127.01365188 207.92623686 127.01158073 205.38651775 127.01823425 202.84632874 C127.01899709 201.27336632 127.0068841 199.70031353 126.9783783 198.12760925 C126.92618924 191.66265702 127.95871106 185.49672061 129.15223694 179.15390015 C122.1780805 179.05211965 115.20411705 178.98227518 108.22938538 178.93417358 C105.85886985 178.91411189 103.48840349 178.88685589 101.11805725 178.85214233 C97.70224343 178.80338597 94.28708639 178.78087616 90.87098694 178.76327515 C89.81858826 178.74263 88.76618958 178.72198486 87.68190002 178.70071411 C81.31335536 178.69879085 76.36741153 179.3011053 71.15223694 183.15390015 C67.2382708 187.06786629 65.22157701 190.76407965 63.36317444 195.94296265 C63.1332077 196.56867157 62.90324097 197.19438049 62.66630554 197.83905029 C61.94160734 199.81498691 61.23326332 201.79622333 60.52723694 203.77890015 C59.81212532 205.7678948 59.09340078 207.75536585 58.366745 209.74017334 C57.71066323 211.53475759 57.06660369 213.33372365 56.42323303 215.13290405 C55.2589693 217.9002109 54.15474047 219.93257115 52.15223694 222.15390015 C50.21473694 222.6499939 50.21473694 222.6499939 48.15223694 222.59140015 C47.13129944 222.58946655 47.13129944 222.58946655 46.08973694 222.5874939 C43.5064093 222.00937017 42.82935062 221.21526899 41.15223694 219.15390015 C40.23936141 216.98402289 39.42191915 214.77324685 38.66395569 212.54452515 C38.20014248 211.21887147 37.73593704 209.89335498 37.27137756 208.56796265 C36.55490151 206.49211324 35.84342428 204.4148014 35.13978577 202.33456421 C30.80576996 189.27660312 30.80576996 189.27660312 20.87879944 180.2437439 C16.32762417 178.91273981 12.23989715 178.75823648 7.52723694 178.71640015 C-5.70544777 178.303333 -16.17382189 175.76468131 -25.74620056 166.27108765 C-31.97931201 159.56457533 -35.94148924 152.50423093 -36.00166321 143.2359314 C-36.01026367 142.24649033 -36.01886414 141.25704926 -36.02772522 140.23762512 C-36.03198517 139.15812088 -36.03624512 138.07861664 -36.04063416 136.96640015 C-36.04881165 135.82441666 -36.05698914 134.68243317 -36.06541443 133.50584412 C-36.09024964 129.72186809 -36.10678244 125.93792962 -36.12120056 122.15390015 C-36.12652424 120.85967133 -36.13184792 119.5654425 -36.13733292 118.23199463 C-36.1585607 112.78803608 -36.17768857 107.34408967 -36.18895531 101.90010071 C-36.20515632 94.12538154 -36.23824392 86.35116509 -36.29535615 78.57663536 C-36.33892943 72.43318416 -36.35472108 66.289928 -36.3610878 60.14633179 C-36.36778492 57.54375639 -36.3829665 54.94118784 -36.40697861 52.3387146 C-36.43876499 48.6842793 -36.43864544 45.03109489 -36.43125916 41.3765564 C-36.44766449 40.313246 -36.46406982 39.24993561 -36.48097229 38.15440369 C-36.38800407 26.84418914 -32.25515892 17.48781666 -24.46104431 9.3531189 C-17.34423194 3.363933 -9.22799782 0.04089451 0 0 Z " fill="#5FB8FD" transform="translate(35.84776306152344,-0.153900146484375)"/>
<path d="M0 0 C0.66 0 1.32 0 2 0 C2.4846875 1.07378906 2.969375 2.14757812 3.46875 3.25390625 C8.75437328 14.61279863 13.72587071 21.10031879 25.01953125 26.95703125 C33.21209117 29.82389036 41.65051156 30.28950434 50.2578125 30.30859375 C52.36849256 30.33373541 54.47916958 30.35913368 56.58984375 30.38476562 C59.86571577 30.41352722 63.14153537 30.43759441 66.41748047 30.45629883 C69.61451333 30.47804573 72.81097859 30.51746396 76.0078125 30.55859375 C76.97679474 30.55870956 77.94577698 30.55882538 78.94412231 30.5589447 C87.54796905 30.68304 95.10146611 32.19558397 101.4921875 38.2890625 C106.75373769 44.25942256 107.66667665 49.93202191 107.375 57.81640625 C106.43444263 65.80134645 103.11482839 70.51967025 97.09765625 75.6875 C94.72757197 77.17045776 92.75146808 77.61718705 90 78 C91.90164026 89.27639312 94.56225463 101.53759668 104 109 C106.24411743 110.54335213 108.5101702 112.04756156 110.7890625 113.5390625 C118.46166554 118.60894507 122.68931915 124.3574246 124.68359375 133.484375 C126.75981257 149.99159624 123.82292904 164.00441877 113.5625 177.3125 C111.50766279 179.46757317 109.7449626 180.98860506 107.33984375 182.66796875 C106.71327881 183.10778076 106.08671387 183.54759277 105.44116211 184.00073242 C104.96557861 184.33049072 104.48999512 184.66024902 104 185 C105.13260254 185.46055786 105.13260254 185.46055786 106.28808594 185.93041992 C109.15104407 187.09489075 112.01381332 188.25982448 114.87646484 189.42504883 C116.70005495 190.16717443 118.5238527 190.90878972 120.34765625 191.65039062 C122.73164273 192.62092064 125.11486285 193.59333521 127.49731445 194.56762695 C129.79626549 195.50775003 132.09683829 196.44391897 134.39916992 197.37573242 C135.97855347 198.02119019 135.97855347 198.02119019 137.58984375 198.6796875 C138.51917725 199.05722168 139.44851074 199.43475586 140.40600586 199.82373047 C144.62509767 201.73691488 148.30358205 204.22948091 152 207 C152.59167969 207.41507813 153.18335938 207.83015625 153.79296875 208.2578125 C164.73179906 216.61838304 172.64549337 231.61318105 175 245 C175.95125549 252.21936063 176.17281988 259.39369805 176.203125 266.66796875 C176.20882507 267.74701981 176.21452515 268.82607086 176.22039795 269.93782043 C176.2297835 272.20259641 176.23635603 274.46738564 176.24023438 276.73217773 C176.25000206 280.18822749 176.2811116 283.64369714 176.3125 287.09960938 C176.31902565 289.30989234 176.32427784 291.5201795 176.328125 293.73046875 C176.3466452 295.26975288 176.3466452 295.26975288 176.36553955 296.84013367 C176.34746618 302.67107066 175.98421544 306.92805346 173 312 C169.39462062 315.46129225 167.16407701 316.50028138 162.18531895 316.50615788 C161.01560978 316.51720556 159.8459006 316.52825325 158.6407457 316.53963572 C156.71936599 316.52727457 156.71936599 316.52727457 154.75917053 316.5146637 C153.38144052 316.51998912 152.00371632 316.5270548 150.62600321 316.53571075 C146.84063332 316.55436591 143.05565389 316.54802342 139.27026761 316.53755772 C135.18768648 316.53057378 131.10518623 316.54655751 127.02262878 316.55955505 C119.02483579 316.58121399 111.02718498 316.58106331 103.02937228 316.57292951 C96.52971908 316.56663337 90.03010739 316.56776299 83.53045464 316.57420158 C82.60589377 316.57510324 81.6813329 316.57600489 80.72875504 316.57693387 C78.85059908 316.57878505 76.97244314 316.58064761 75.09428721 316.58252143 C57.47571989 316.59910656 39.85723262 316.59037471 22.2386701 316.57353585 C6.11545427 316.5588389 -10.00757521 316.57346595 -26.13076704 316.60230602 C-42.68113628 316.63169 -59.23141949 316.64267517 -75.78181368 316.63312382 C-77.65342206 316.63210125 -79.52503046 316.63110664 -81.39663887 316.6301403 C-82.31753249 316.62966391 -83.23842611 316.62918752 -84.18722559 316.6286967 C-90.6791861 316.62653121 -97.17106527 316.63634382 -103.66300774 316.65091133 C-111.57451016 316.66841637 -119.48577498 316.66834373 -127.39726799 316.64555968 C-131.43454785 316.63440061 -135.47140881 316.63129222 -139.50867081 316.64986038 C-143.20435854 316.66663898 -146.89926119 316.66035084 -150.59489781 316.63564359 C-152.56560887 316.6284327 -154.53636246 316.64581441 -156.50700229 316.66405493 C-166.06927112 316.56273176 -166.06927112 316.56273176 -169.75058842 313.62467861 C-174.80600021 307.72587765 -174.29502299 301.36680522 -174.265625 293.96875 C-174.26753845 292.90064087 -174.2694519 291.83253174 -174.27142334 290.73205566 C-174.27278204 288.47273523 -174.2691076 286.21340691 -174.26074219 283.95410156 C-174.25012293 280.53952903 -174.26060454 277.12549282 -174.2734375 273.7109375 C-174.28845571 252.53691431 -172.7313791 234.76671105 -160 217 C-159.53980469 216.35417969 -159.07960938 215.70835937 -158.60546875 215.04296875 C-145.69196527 198.55685336 -121.89804615 192.71690555 -103 186 C-103.96099609 185.32517578 -103.96099609 185.32517578 -104.94140625 184.63671875 C-115.18189367 177.02121469 -121.14384226 167.63372011 -123.5546875 155.12109375 C-125.3010865 142.88098148 -124.24125638 130.18928296 -116.80078125 119.9609375 C-113.18829397 116.0271661 -108.6465636 113.54920796 -104.078125 110.875 C-94.73559425 104.92223704 -91.54197124 94.27217096 -89 84 C-88.6435691 82.00398694 -88.30312117 80.0048014 -88 78 C-88.74121094 77.896875 -89.48242188 77.79375 -90.24609375 77.6875 C-95.55560244 76.36200563 -99.3236704 72.40009307 -102.40234375 67.9921875 C-105.96601336 61.11849024 -106.34395638 53.08183507 -104.375 45.63671875 C-101.72658009 39.54771761 -96.57596831 34.50907037 -90.47241211 31.93334961 C-86.0092761 30.73370334 -81.84795187 30.66456616 -77.24609375 30.62109375 C-76.30878922 30.60409927 -75.37148468 30.5871048 -74.40577698 30.56959534 C-71.4164195 30.51668649 -68.42707053 30.47634439 -65.4375 30.4375 C-35.49509201 31.42209294 -35.49509201 31.42209294 -10 18 C-5.54958597 12.56612394 -2.60674958 6.4862063 0 0 Z " fill="#FEB0A0" transform="translate(255,196)"/>
<path d="M0 0 C0.70055104 -0.00438225 1.40110209 -0.00876451 2.12288195 -0.01327956 C4.47633829 -0.02666094 6.82975718 -0.03284505 9.1832428 -0.03897095 C10.86862863 -0.04687277 12.55401278 -0.05514177 14.23939514 -0.06375122 C19.78194056 -0.08997368 25.3244935 -0.10528439 30.86708069 -0.11953735 C32.77708503 -0.12489794 34.68708933 -0.13027546 36.59709358 -0.13566971 C44.54674977 -0.15730348 52.49640393 -0.17603707 60.44608212 -0.1872921 C71.82473111 -0.20350889 83.2030374 -0.23662572 94.58155721 -0.29369295 C102.58853303 -0.33247463 110.59541753 -0.35193482 118.60248476 -0.35721266 C123.38057149 -0.36085638 128.15829272 -0.37277205 132.93627739 -0.4053154 C137.43847794 -0.43553914 141.94009463 -0.44165726 146.44237518 -0.42993164 C148.08700558 -0.42971206 149.73166418 -0.43792052 151.37619972 -0.45558548 C164.99244832 -0.59377774 175.82559308 1.83720837 185.95301819 11.5406189 C191.19399172 17.76834765 195.25863532 25.74283342 195.29940796 33.96507263 C195.31014091 35.45150772 195.31014091 35.45150772 195.3210907 36.9679718 C195.3237796 38.05421341 195.32646851 39.14045502 195.32923889 40.25961304 C195.33581009 41.40466309 195.34238129 42.54971313 195.34915161 43.72946167 C195.36890177 47.52849389 195.38055262 51.3274865 195.39051819 55.1265564 C195.39459372 56.42419859 195.39866924 57.72184078 195.40286827 59.05880547 C195.42158608 65.22150395 195.436148 71.3841826 195.44448024 77.54690367 C195.45423462 84.64324841 195.48050641 91.73927972 195.52098113 98.83551413 C195.55123769 104.33038016 195.56595835 109.82515688 195.56926125 115.32010454 C195.57160213 118.59689037 195.58243639 121.87326681 195.60572243 125.14998055 C195.63013965 128.81438023 195.62914319 132.47796894 195.62220764 136.14242554 C195.64142273 137.75053352 195.64142273 137.75053352 195.661026 139.39112854 C195.58389857 150.61728039 191.60261733 159.44912318 184.02723694 167.71640015 C174.39592172 177.03835834 162.33874717 178.46716372 149.57411194 178.54452515 C143.75323043 178.70522433 138.87189391 179.5543067 134.15223694 183.15390015 C130.25077037 187.28379068 128.23641514 190.75909593 126.36317444 196.1968689 C126.01822433 197.17228386 126.01822433 197.17228386 125.66630554 198.16740417 C124.941142 200.2213965 124.23277765 202.28059306 123.52723694 204.34140015 C122.81308084 206.41230827 122.0951609 208.48159319 121.366745 210.54753113 C120.7095207 212.41328481 120.06599797 214.28384829 119.42323303 216.15463257 C118.24987179 218.92350366 117.58343528 220.43980442 115.15223694 222.15390015 C109.52041876 222.9584456 109.52041876 222.9584456 107.15223694 222.15390015 C101.85133957 216.09723127 100.04275439 207.7590114 97.50770569 200.2749939 C94.47807401 191.54007644 91.70201653 184.4899825 83.01678467 180.06622314 C79.25907493 178.8694391 75.66128264 178.83290057 71.75697327 178.80673218 C70.5071315 178.78667114 70.5071315 178.78667114 69.23204041 178.76620483 C67.42715023 178.7381696 65.62219051 178.71436066 63.81719398 178.69430923 C60.95317068 178.66135483 58.0896582 178.61487204 55.22589111 178.56451416 C47.0849834 178.42335981 38.94386439 178.30306539 30.80238342 178.20028687 C25.81661746 178.13639755 20.83143847 178.0537681 15.84615135 177.95989609 C13.95379464 177.92803586 12.06130296 177.90331045 10.16875648 177.8860817 C-4.04821595 177.75482517 -15.19433808 176.56241881 -25.84776306 166.15390015 C-28.1295995 163.29413134 -30.03611962 160.32864508 -31.84776306 157.15390015 C-32.74495056 155.60702515 -32.74495056 155.60702515 -33.66026306 154.02890015 C-35.8851473 148.6423383 -35.98530794 142.91974048 -36.15757751 137.1499939 C-36.17789976 136.48693741 -36.19822201 135.82388092 -36.21916008 135.14073181 C-36.28394501 132.95773059 -36.34184175 130.77462544 -36.39854431 128.59140015 C-36.41935877 127.82980591 -36.44017323 127.06821167 -36.46161842 126.28353882 C-36.9150735 109.49971424 -37.0353221 92.71809546 -37.0330658 75.92880249 C-37.03296197 71.88512381 -37.04691161 67.84161211 -37.06383801 63.79797363 C-37.0749906 60.61330389 -37.07698444 57.4286753 -37.07645607 54.24398804 C-37.07761973 52.75146885 -37.08194815 51.25894802 -37.08978844 49.76644897 C-37.16105513 34.88188649 -36.09323757 21.87823609 -25.72276306 10.34140015 C-18.70649875 3.8128134 -9.45880784 0.04191736 0 0 Z " fill="#FEE459" transform="translate(316.84776306152344,-0.153900146484375)"/>
<path d="M0 0 C10.89 0.495 10.89 0.495 22 1 C22.37125 3.866875 22.7425 6.73375 23.125 9.6875 C24.39396214 18.254824 26.68655252 25.42368709 31 33 C31.56074219 33.98742187 32.12148437 34.97484375 32.69921875 35.9921875 C36.63329434 42.51656455 40.9579092 49.29179455 48.1796875 52.34375 C51.61309383 55.5774291 51.47315308 56.6061086 51.69140625 61.19140625 C51.67944497 63.64878408 51.6352329 66.10616965 51.5625 68.5625 C51.56056641 69.80708984 51.55863281 71.05167969 51.55664062 72.33398438 C51.42382271 81.41971341 51.42382271 81.41971341 49.70117188 83.77832031 C47.92004804 85.05741671 46.33405629 85.85036844 44.27734375 86.60546875 C43.57416016 86.86650391 42.87097656 87.12753906 42.14648438 87.39648438 C41.05303711 87.78803711 41.05303711 87.78803711 39.9375 88.1875 C39.20466797 88.46013672 38.47183594 88.73277344 37.71679688 89.01367188 C32.29546523 91 32.29546523 91 30 91 C30 139.51 30 188.02 30 238 C12.30375 238.103125 -5.3925 238.20625 -23.625 238.3125 C-29.20873535 238.35802002 -34.7924707 238.40354004 -40.54541016 238.45043945 C-47.3737793 238.47302246 -47.3737793 238.47302246 -50.57235718 238.47721863 C-52.80214426 238.48488712 -55.03191084 238.50245331 -57.26156616 238.52787781 C-60.64300449 238.56450217 -64.02317807 238.56952943 -67.40478516 238.56762695 C-68.39497965 238.58561749 -69.38517414 238.60360804 -70.40537453 238.62214375 C-74.86943951 238.58854468 -78.01083194 238.48488933 -81.57730103 235.62846375 C-86.89047961 229.86402606 -86.29513024 223.39379413 -86.265625 215.96875 C-86.26753845 214.90064087 -86.2694519 213.83253174 -86.27142334 212.73205566 C-86.27278204 210.47273523 -86.2691076 208.21340691 -86.26074219 205.95410156 C-86.25012293 202.53952903 -86.26060454 199.12549282 -86.2734375 195.7109375 C-86.28845571 174.53691431 -84.7313791 156.76671105 -72 139 C-71.53980469 138.35417969 -71.07960938 137.70835937 -70.60546875 137.04296875 C-57.69196527 120.55685336 -33.89804615 114.71690555 -15 108 C-15.64066406 107.55011719 -16.28132813 107.10023438 -16.94140625 106.63671875 C-27.18189367 99.02121469 -33.14384226 89.63372011 -35.5546875 77.12109375 C-37.3010865 64.88098148 -36.24125638 52.18928296 -28.80078125 41.9609375 C-25.18829397 38.0271661 -20.6465636 35.54920796 -16.078125 32.875 C-6.73559425 26.92223704 -3.54197124 16.27217096 -1 6 C-0.67 4.02 -0.34 2.04 0 0 Z " fill="#5FB8FD" transform="translate(167,274)"/>
<path d="M0 0 C0.14695312 0.87140625 0.29390625 1.7428125 0.4453125 2.640625 C2.62455903 14.21317556 5.94665428 25.46145368 16.1015625 32.4453125 C17.66007295 33.48258199 19.22260243 34.51383781 20.7890625 35.5390625 C28.46166554 40.60894507 32.68931915 46.3574246 34.68359375 55.484375 C36.75981257 71.99159624 33.82292904 86.00441877 23.5625 99.3125 C21.50766279 101.46757317 19.7449626 102.98860506 17.33984375 104.66796875 C16.71327881 105.10778076 16.08671387 105.54759277 15.44116211 106.00073242 C14.96557861 106.33049072 14.48999512 106.66024902 14 107 C15.13260254 107.46055786 15.13260254 107.46055786 16.28808594 107.93041992 C19.15104407 109.09489075 22.01381332 110.25982448 24.87646484 111.42504883 C26.70005495 112.16717443 28.5238527 112.90878972 30.34765625 113.65039062 C32.73164273 114.62092064 35.11486285 115.59333521 37.49731445 116.56762695 C39.79626549 117.50775003 42.09683829 118.44391897 44.39916992 119.37573242 C45.45209229 119.8060376 46.50501465 120.23634277 47.58984375 120.6796875 C48.98384399 121.24598877 48.98384399 121.24598877 50.40600586 121.82373047 C54.62509767 123.73691488 58.30358205 126.22948091 62 129 C62.59167969 129.41507813 63.18335938 129.83015625 63.79296875 130.2578125 C74.73179906 138.61838304 82.64549337 153.61318105 85 167 C85.95125549 174.21936063 86.17281988 181.39369805 86.203125 188.66796875 C86.20882507 189.74701981 86.21452515 190.82607086 86.22039795 191.93782043 C86.2297835 194.20259641 86.23635603 196.46738564 86.24023438 198.73217773 C86.25000206 202.18822749 86.2811116 205.64369714 86.3125 209.09960938 C86.31902565 211.30989234 86.32427784 213.5201795 86.328125 215.73046875 C86.3404718 216.75665817 86.3528186 217.7828476 86.36553955 218.84013367 C86.34407451 225.76531039 85.86682096 230.83274259 81.04310608 236.16197205 C76.57779273 238.8590094 72.64095065 238.52828933 67.51831055 238.45410156 C66.44719182 238.4545837 65.37607309 238.45506584 64.27249622 238.45556259 C60.81023071 238.4525804 57.34882988 238.42213558 53.88671875 238.390625 C51.74727798 238.38474282 49.60783147 238.38066275 47.46838379 238.37841797 C39.54133466 238.35745855 31.61440881 238.30161358 23.6875 238.25 C-2.8878125 238.12625 -2.8878125 238.12625 -30 238 C-30 189.49 -30 140.98 -30 91 C-31.98 90.67 -33.96 90.34 -36 90 C-38.08539288 89.27076828 -40.14937046 88.47744962 -42.1875 87.625 C-43.21230469 87.20476562 -44.23710937 86.78453125 -45.29296875 86.3515625 C-47.91786346 85.04100901 -49.23810898 84.2942858 -51 82 C-51.80810632 77.64254849 -51.74043722 73.23622463 -51.8125 68.8125 C-51.88275391 67.60529297 -51.95300781 66.39808594 -52.02539062 65.15429688 C-52.16505442 56.34584569 -52.16505442 56.34584569 -48.88549805 52.55737305 C-46.33190416 50.56393759 -43.69904253 48.78856025 -41 47 C-34.52035978 40.64809641 -30.22196142 32.37964669 -27 24 C-26.70480469 23.27554687 -26.40960938 22.55109375 -26.10546875 21.8046875 C-23.59280044 15.09598689 -22.85584414 8.07833448 -22 1 C-19.08340625 0.83196579 -16.16673658 0.66552033 -13.25 0.5 C-12.425 0.45230469 -11.6 0.40460938 -10.75 0.35546875 C-9.55117188 0.28779297 -9.55117188 0.28779297 -8.328125 0.21875 C-7.5949707 0.17685547 -6.86181641 0.13496094 -6.10644531 0.09179688 C-4.07266386 0.00316662 -2.03571175 0 0 0 Z " fill="#5FB8FD" transform="translate(345,274)"/>
<path d="M0 0 C1.30324219 -0.01740234 1.30324219 -0.01740234 2.6328125 -0.03515625 C10.32701663 -0.00150813 17.54059383 1.58229235 25 3.375 C25.029729 4.89468384 25.029729 4.89468384 25.06005859 6.44506836 C25.13673611 10.24168719 25.2253519 14.03795341 25.31738281 17.83422852 C25.355418 19.47022486 25.39031288 21.10629761 25.421875 22.74243164 C25.68644158 36.28906734 26.02375336 48.26747012 35.3125 59.0625 C43.86164022 66.41873693 51.17816908 70.78842417 62.65625 70.88671875 C63.83785706 70.91364555 63.83785706 70.91364555 65.04333496 70.94111633 C67.52883749 70.99476305 70.0141532 71.02896616 72.5 71.0625 C74.19794242 71.09571357 75.89586032 71.1302069 77.59375 71.16601562 C81.72903075 71.25046223 85.86426052 71.31748856 90 71.375 C93.31828744 78.45401321 93.14632282 86.03303194 93.09765625 93.6875 C93.09553383 94.96898926 93.09553383 94.96898926 93.09336853 96.27636719 C93.08781962 98.97594873 93.07527697 101.67544399 93.0625 104.375 C93.05747839 106.21744671 93.05291664 108.05989473 93.04882812 109.90234375 C93.03786699 114.39326186 93.02063825 118.88411636 93 123.375 C92.06768555 123.21507568 91.13537109 123.05515137 90.17480469 122.89038086 C85.1961448 122.18276159 80.22400889 122.18242372 75.203125 122.12890625 C73.08853762 122.09596215 70.97395438 122.0627506 68.859375 122.02929688 C65.55732099 121.98201969 62.25528312 121.93756299 58.953125 121.89819336 C55.74461918 121.85813501 52.5364436 121.80667568 49.328125 121.75390625 C48.35691711 121.7454921 47.38570923 121.73707794 46.3850708 121.72840881 C32.33896014 121.47908877 20.62015137 118.60614176 10.1171875 108.83203125 C5.95725981 104.00436609 1 96.89067281 1 90.375 C-1.73803435 91.74401717 -1.7559617 93.08181981 -2.75 95.9375 C-6.57221043 105.76604111 -13.09264277 112.90555116 -22.56640625 117.6640625 C-36.89019533 123.46029738 -54.34000207 121.665884 -69.53808594 121.92724609 C-72.47338983 121.97903439 -75.40855455 122.03618727 -78.34375 122.09375 C-79.68753723 122.11411316 -79.68753723 122.11411316 -81.05847168 122.1348877 C-85.15487777 122.21655213 -89.00416073 122.35855067 -93 123.375 C-93.04996785 118.18295648 -93.08598438 112.99105731 -93.10986328 107.79882812 C-93.11983294 106.03773557 -93.13341356 104.27665917 -93.15087891 102.515625 C-93.38625279 78.14750557 -93.38625279 78.14750557 -90 71.375 C-88.99735107 71.3656543 -87.99470215 71.35630859 -86.96166992 71.34667969 C-83.19089629 71.30637712 -79.42090456 71.24051415 -75.65063477 71.16748047 C-74.02834222 71.13950159 -72.40591919 71.11817397 -70.78344727 71.10400391 C-57.81138149 70.9840033 -45.75236666 69.99876402 -36 60.375 C-33.64629977 57.52980784 -31.70329106 54.65055972 -30 51.375 C-29.48808105 50.46645264 -29.48808105 50.46645264 -28.96582031 49.53955078 C-24.69021563 40.77972866 -25.32587928 31.27373188 -25.25 21.75 C-25.22179752 19.96481532 -25.19186422 18.17965711 -25.16015625 16.39453125 C-25.08680005 12.05473547 -25.03691665 7.71525246 -25 3.375 C-16.58885366 1.35356209 -8.65856975 -0.11561888 0 0 Z " fill="#6B7ED8" transform="translate(256,105.625)"/>
<path d="M0 0 C0.66 0 1.32 0 2 0 C2.4846875 1.07378906 2.969375 2.14757812 3.46875 3.25390625 C8.75437328 14.61279863 13.72587071 21.10031879 25.01953125 26.95703125 C33.21209117 29.82389036 41.65051156 30.28950434 50.2578125 30.30859375 C52.36849256 30.33373541 54.47916958 30.35913368 56.58984375 30.38476562 C59.86571577 30.41352722 63.14153537 30.43759441 66.41748047 30.45629883 C69.61451333 30.47804573 72.81097859 30.51746396 76.0078125 30.55859375 C76.97679474 30.55870956 77.94577698 30.55882538 78.94412231 30.5589447 C87.54796905 30.68304 95.10146611 32.19558397 101.4921875 38.2890625 C106.75373769 44.25942256 107.66667665 49.93202191 107.375 57.81640625 C106.57742004 64.58752779 104.19237472 69.19398905 99.3125 73.9375 C90.38036981 80.96606146 78.77005397 79.20912726 68 79 C68.03673828 80.80210937 68.03673828 80.80210937 68.07421875 82.640625 C68.05875066 96.71040309 61.39612539 110.08700329 53 121 C52.278125 122.010625 51.55625 123.02125 50.8125 124.0625 C44.29143862 131.61320265 35.07031408 137.08577434 26 141 C24.73929687 141.55494141 24.73929687 141.55494141 23.453125 142.12109375 C17.26944807 144.33658309 11.85067187 142.12518809 6.21240234 139.52197266 C-11.69634792 130.75401609 -23.39767619 117.78226422 -30.07983398 98.95800781 C-34.17203995 85.18363294 -33.44064013 71.24405527 -33.25 57 C-33.22989758 54.37501368 -33.21165346 51.75001243 -33.1953125 49.125 C-33.15163037 42.74966971 -33.08501674 36.37490616 -33 30 C-32.04738281 29.67676758 -31.09476563 29.35353516 -30.11328125 29.02050781 C-28.84623184 28.58173329 -27.57931153 28.14258584 -26.3125 27.703125 C-25.07113281 27.27676758 -23.82976562 26.85041016 -22.55078125 26.41113281 C-11.89867313 22.17782802 -6.19763101 14.08651029 -1.625 3.9375 C-1.07460585 2.62863587 -0.52947745 1.31746448 0 0 Z " fill="#FECDBD" transform="translate(255,196)"/>
<path d="M0 0 C2.32958689 3.10611585 3.8337747 5.58627013 5.5 9 C13.76424521 24.26334671 26.90813398 33.21362321 43 39 C47.85985921 40.43591106 52.72180185 40.18419197 57.75 40.1875 C58.71421875 40.19974609 59.6784375 40.21199219 60.671875 40.22460938 C76.71364783 40.25730321 90.84853729 33.61470865 102.625 22.875 C108.80892023 16.41265682 113.11555482 7.97270383 117 0 C117.33 0 117.66 0 118 0 C118 32.34 118 64.68 118 98 C79.06 98 40.12 98 0 98 C0 65.66 0 33.32 0 0 Z " fill="#FFE459" transform="translate(197,414)"/>
<path d="M0 0 C1.23093636 0.0001133 1.23093636 0.0001133 2.48674011 0.00022888 C3.36808121 0.00539017 4.2494223 0.01055145 5.1574707 0.01586914 C6.5161602 0.01799156 6.5161602 0.01799156 7.90229797 0.02015686 C10.79598286 0.02575538 13.68959044 0.03830758 16.58325195 0.05102539 C18.54483938 0.05604058 20.50642801 0.06060346 22.46801758 0.06469727 C27.27729217 0.07572432 32.08650895 0.09298792 36.89575195 0.11352539 C36.89575195 0.44352539 36.89575195 0.77352539 36.89575195 1.11352539 C35.98696289 1.22567383 35.98696289 1.22567383 35.05981445 1.34008789 C24.86686092 2.93959752 16.27136383 7.96564691 9.89575195 16.11352539 C1.48499114 28.07083355 3.05996022 42.11056923 3.16918945 56.06274414 C3.17022832 58.68821715 3.16918647 61.31369173 3.16616821 63.93916321 C3.1644115 69.42205496 3.18637419 74.9044478 3.22338867 80.38720703 C3.26577432 86.70121794 3.27272506 93.01450092 3.26026475 99.32862538 C3.24882887 105.43962375 3.2604363 111.55032826 3.28261185 117.66129494 C3.29028182 120.24593905 3.29262646 122.83060488 3.28944016 125.41525841 C3.28869459 129.0308367 3.31405337 132.64532801 3.34643555 136.26074219 C3.34148071 137.31710373 3.33652588 138.37346527 3.3314209 139.46183777 C3.48546223 150.29224588 7.15959734 159.43425427 14.89575195 167.11352539 C25.00594263 174.81372875 33.17037441 176.43658324 45.57739258 176.50415039 C54.12063935 176.71582065 61.69731591 178.91508935 67.89575195 185.11352539 C69.64015531 189.03117391 68.1625802 191.86441275 66.69262695 195.70727539 C66.45417053 196.33581421 66.21571411 196.96435303 65.97003174 197.61193848 C65.46402427 198.93853531 64.95264344 200.26309335 64.4362793 201.58569336 C63.65030666 203.60184181 62.88311986 205.62438697 62.1184082 207.64868164 C57.82569588 218.84274119 57.82569588 218.84274119 54.89575195 222.11352539 C52.95825195 222.60961914 52.95825195 222.60961914 50.89575195 222.55102539 C49.87481445 222.5490918 49.87481445 222.5490918 48.83325195 222.54711914 C46.24992432 221.96899542 45.57286563 221.17489423 43.89575195 219.11352539 C42.98287642 216.94364813 42.16543417 214.7328721 41.4074707 212.50415039 C40.9436575 211.17849672 40.47945205 209.85298023 40.01489258 208.52758789 C39.29841653 206.45173848 38.58693929 204.37442664 37.88330078 202.29418945 C33.54928498 189.23622836 33.54928498 189.23622836 23.62231445 180.20336914 C19.07113918 178.87236505 14.98341216 178.71786172 10.27075195 178.67602539 C-2.96193275 178.26295825 -13.43030688 175.72430655 -23.00268555 166.23071289 C-29.23579699 159.52420057 -33.19797423 152.46385617 -33.25814819 143.19555664 C-33.26674866 142.20611557 -33.27534912 141.2166745 -33.28421021 140.19725037 C-33.28847015 139.11774612 -33.2927301 138.03824188 -33.29711914 136.92602539 C-33.30529663 135.7840419 -33.31347412 134.64205841 -33.32189941 133.46546936 C-33.34673463 129.68149334 -33.36326743 125.89755487 -33.37768555 122.11352539 C-33.38300922 120.81929657 -33.3883329 119.52506775 -33.3938179 118.19161987 C-33.41504569 112.74766132 -33.43417356 107.30371492 -33.44544029 101.85972595 C-33.4616413 94.08500678 -33.49472891 86.31079034 -33.55184114 78.5362606 C-33.59541441 72.3928094 -33.61120607 66.24955325 -33.61757278 60.10595703 C-33.62426991 57.50338163 -33.63945148 54.90081309 -33.66346359 52.29833984 C-33.69524997 48.64390455 -33.69513042 44.99072014 -33.68774414 41.33618164 C-33.70414948 40.27287125 -33.72055481 39.20956085 -33.73745728 38.11402893 C-33.64448905 26.80381439 -29.5116439 17.44744191 -21.7175293 9.31274414 C-15.82278678 4.3519967 -7.85324202 -0.02416382 0 0 Z " fill="#1CA8FE" transform="translate(33.104248046875,-0.113525390625)"/>
<path d="M0 0 C1.23093636 0.0001133 1.23093636 0.0001133 2.48674011 0.00022888 C3.36808121 0.00539017 4.2494223 0.01055145 5.1574707 0.01586914 C6.5161602 0.01799156 6.5161602 0.01799156 7.90229797 0.02015686 C10.79598286 0.02575538 13.68959044 0.03830758 16.58325195 0.05102539 C18.54483938 0.05604058 20.50642801 0.06060346 22.46801758 0.06469727 C27.27729217 0.07572432 32.08650895 0.09298792 36.89575195 0.11352539 C36.89575195 0.44352539 36.89575195 0.77352539 36.89575195 1.11352539 C36.12231445 1.27208008 35.34887695 1.43063477 34.55200195 1.59399414 C28.56957255 2.93411756 23.64967421 4.38543538 18.61450195 7.92993164 C16.89575195 9.11352539 16.89575195 9.11352539 14.80200195 10.01586914 C12.40561671 11.39575491 11.97043024 12.60285457 10.89575195 15.11352539 C9.66192584 17.06708341 8.39254716 18.99335212 7.11450195 20.91821289 C3.56396942 27.31372341 3.59915262 33.32059369 3.60522461 40.45214844 C3.59850739 41.5862767 3.59179016 42.72040497 3.58486938 43.88890076 C3.56588853 47.63439327 3.56196483 51.37970653 3.55981445 55.12524414 C3.55338564 57.73590671 3.54665722 60.34656856 3.53964233 62.95722961 C3.52686648 68.4304826 3.52387572 73.90368724 3.52514648 79.37695312 C3.52634583 85.67994404 3.50528068 91.98259139 3.47365916 98.28549546 C3.44422244 104.37237223 3.43717405 110.45908585 3.43836594 116.54603004 C3.43601308 119.12429009 3.42720746 121.70255295 3.4117012 124.28076744 C3.39199306 127.89677351 3.39789965 131.51190804 3.40991211 135.12792969 C3.39305359 136.70954895 3.39305359 136.70954895 3.37585449 138.32312012 C3.46077014 148.43853156 6.24317887 157.20340534 12.77075195 165.03930664 C18.2447128 170.38245592 24.61576357 173.90066549 31.89575195 176.11352539 C31.89575195 176.44352539 31.89575195 176.77352539 31.89575195 177.11352539 C26.95196246 177.21327592 22.00877374 177.28540441 17.06420898 177.33325195 C15.38637064 177.35322238 13.70860059 177.38040871 12.03100586 177.4152832 C-1.01207959 177.67940763 -10.63357461 176.69428303 -21.06518555 168.10571289 C-24.41254572 164.83530352 -26.79468573 161.16082914 -29.10424805 157.11352539 C-30.00143555 155.56665039 -30.00143555 155.56665039 -30.91674805 153.98852539 C-33.14163229 148.60196354 -33.24179293 142.87936573 -33.4140625 137.10961914 C-33.43438475 136.44656265 -33.45470699 135.78350616 -33.47564507 135.10035706 C-33.54042999 132.91735584 -33.59832673 130.73425068 -33.6550293 128.55102539 C-33.67584375 127.78943115 -33.69665821 127.02783691 -33.71810341 126.24316406 C-34.17155849 109.45933948 -34.29180709 92.6777207 -34.28955078 75.88842773 C-34.28944695 71.84474905 -34.3033966 67.80123735 -34.32032299 63.75759888 C-34.33147559 60.57292914 -34.33346943 57.38830054 -34.33294106 54.20361328 C-34.33410471 52.7110941 -34.33843313 51.21857326 -34.34627342 49.72607422 C-34.41754012 34.84151173 -33.34972256 21.83786134 -22.97924805 10.30102539 C-17.1240656 4.85281751 -8.10796415 -0.02494758 0 0 Z " fill="#FED501" transform="translate(314.104248046875,-0.113525390625)"/>
<path d="M0 0 C2.671875 1.328125 2.671875 1.328125 5 4 C5.63070439 7.76347189 5.46932195 11.44767088 5.3125 15.25 C5.28994141 16.28125 5.26738281 17.3125 5.24414062 18.375 C5.18527163 20.91814065 5.10310065 23.45833113 5 26 C5.59246521 25.99111755 6.18493042 25.98223511 6.79534912 25.9730835 C12.95949662 25.88461704 19.12346393 25.82426874 25.28808594 25.78027344 C27.58894169 25.76015312 29.88974629 25.73285366 32.19042969 25.69824219 C35.49687317 25.64974388 38.80264085 25.62703522 42.109375 25.609375 C43.13867126 25.58872986 44.16796753 25.56808472 45.22845459 25.54681396 C52.33177163 25.54458008 52.33177163 25.54458008 55.64941406 27.80566406 C57.64571376 31.04910978 57.53235585 33.27350908 57 37 C55.671875 39.203125 55.671875 39.203125 53 41 C49.2397876 41.49767517 45.53440874 41.37486628 41.75 41.25 C40.71875 41.23195312 39.6875 41.21390625 38.625 41.1953125 C36.08238936 41.14822712 33.54166838 41.0824805 31 41 C30.78633789 42.1293396 30.78633789 42.1293396 30.56835938 43.28149414 C28.01348049 55.50167301 22.09843024 65.91344379 15 76 C14.443125 76.80050781 13.88625 77.60101563 13.3125 78.42578125 C12.22734613 79.96411018 11.11795985 81.48534472 10 83 C22.82890684 90.78827318 35.56785961 96.3919649 50.171875 100.04296875 C52.9874125 100.99574042 54.27179837 101.61852627 56 104 C56.5686413 107.73678572 56.33681466 109.45603642 54.3359375 112.6875 C52 115 52 115 49.29296875 115.4453125 C31.96963796 113.65850354 14.63430705 106.58841643 0.796875 95.93359375 C-0.93067654 94.84485002 -0.93067654 94.84485002 -2.80859375 95.0859375 C-6.02904348 96.42922669 -8.87953652 98.31945003 -11.8125 100.1875 C-19.26722114 104.78844642 -26.73769081 108.08336939 -35 111 C-36.16015625 111.41378906 -37.3203125 111.82757813 -38.515625 112.25390625 C-44.83776382 114.3637363 -50.3391296 115.95155291 -57 115 C-59.625 112.9375 -59.625 112.9375 -61 110 C-60.94073901 106.5628627 -60.88936617 104.12205505 -58.70947266 101.37182617 C-56.7128618 99.7695759 -55.19149188 99.28203911 -52.7109375 98.67578125 C-51.85943115 98.45583496 -51.0079248 98.23588867 -50.13061523 98.00927734 C-49.22126221 97.77934082 -48.31190918 97.5494043 -47.375 97.3125 C-40.11232843 95.35979761 -33.24190312 93.09207845 -26.4375 89.875 C-25.74253418 89.55055908 -25.04756836 89.22611816 -24.33154297 88.8918457 C-20.59670024 87.05884257 -17.74108501 85.13864696 -15 82 C-15.6290625 81.25878906 -16.258125 80.51757812 -16.90625 79.75390625 C-21.93771509 73.63615822 -26.07720321 67.50221546 -29.4375 60.3125 C-29.75460938 59.63711182 -30.07171875 58.96172363 -30.3984375 58.26586914 C-32.76812606 52.98682849 -34.44040916 47.56648444 -36 42 C-36.64549805 41.9906543 -37.29099609 41.98130859 -37.95605469 41.97167969 C-40.88813944 41.91790899 -43.81864008 41.8342766 -46.75 41.75 C-47.76578125 41.73582031 -48.7815625 41.72164062 -49.828125 41.70703125 C-57.32717803 41.46035187 -57.32717803 41.46035187 -60.671875 39.171875 C-62.6482405 35.93993612 -62.52936796 33.70557573 -62 30 C-60.64941406 27.80566406 -60.64941406 27.80566406 -58 26 C-54.36847039 25.43719982 -50.77628978 25.53582574 -47.109375 25.609375 C-45.51974945 25.61786469 -45.51974945 25.61786469 -43.89801025 25.62652588 C-40.51487972 25.6489076 -37.13281016 25.69910902 -33.75 25.75 C-31.45574447 25.7700626 -29.16147233 25.78831379 -26.8671875 25.8046875 C-21.24442997 25.8487782 -15.62229079 25.91570864 -10 26 C-10.02094727 25.35450195 -10.04189453 24.70900391 -10.06347656 24.04394531 C-10.14674205 21.11278932 -10.19869206 18.18188223 -10.25 15.25 C-10.30027344 13.72632813 -10.30027344 13.72632813 -10.3515625 12.171875 C-10.45044327 4.65693645 -10.45044327 4.65693645 -8.16796875 1.328125 C-5.17191537 -0.50729509 -3.45759241 -0.56450488 0 0 Z " fill="#0155A4" transform="translate(118,29)"/>
<path d="M0 0 C10.89 0.495 10.89 0.495 22 1 C22.37125 3.866875 22.7425 6.73375 23.125 9.6875 C24.39396214 18.254824 26.68655252 25.42368709 31 33 C31.56074219 33.98742187 32.12148437 34.97484375 32.69921875 35.9921875 C36.63329434 42.51656455 40.9579092 49.29179455 48.1796875 52.34375 C51.61309383 55.5774291 51.47315308 56.6061086 51.69140625 61.19140625 C51.67944497 63.64878408 51.6352329 66.10616965 51.5625 68.5625 C51.56056641 69.80708984 51.55863281 71.05167969 51.55664062 72.33398438 C51.42293485 81.48044952 51.42293485 81.48044952 49.73062134 83.55935669 C47.82696678 85.14404027 46.18515129 85.92432188 43.87426758 86.8059082 C43.04522415 87.12666824 42.21618073 87.44742828 41.36201477 87.77790833 C40.46524521 88.11545639 39.56847565 88.45300446 38.64453125 88.80078125 C37.71009689 89.15963913 36.77566254 89.51849701 35.81291199 89.88822937 C32.81559537 91.03719217 29.81415356 92.17492222 26.8125 93.3125 C24.84152003 94.06633385 22.87081382 94.82088388 20.90039062 95.57617188 C17.0635595 97.04590263 13.22222119 98.50286343 9.37744141 99.95166016 C5.96018692 101.24266012 2.56380982 102.57168222 -0.81884766 103.95068359 C-1.91632072 104.38902779 -1.91632072 104.38902779 -3.03596497 104.83622742 C-4.37384388 105.37190376 -5.70667569 105.92045444 -7.03276062 106.48469543 C-10.03908659 107.67229169 -11.64943645 108.09797356 -14.8059082 107.21582031 C-24.98437144 101.57559032 -31.08178205 93.32733341 -34.4921875 82.16796875 C-37.46668391 69.46915717 -37.24989936 55.54497172 -30.375 44.125 C-26.59048713 38.92246866 -21.54129052 36.07295055 -16.078125 32.875 C-6.73559425 26.92223704 -3.54197124 16.27217096 -1 6 C-0.67 4.02 -0.34 2.04 0 0 Z " fill="#4D66D2" transform="translate(167,274)"/>
<path d="M0 0 C0.14695312 0.87140625 0.29390625 1.7428125 0.4453125 2.640625 C2.62455903 14.21317556 5.94665428 25.46145368 16.1015625 32.4453125 C17.66007295 33.48258199 19.22260243 34.51383781 20.7890625 35.5390625 C28.46166554 40.60894507 32.68931915 46.3574246 34.68359375 55.484375 C36.75981257 71.99159624 33.82292904 86.00441877 23.5625 99.3125 C17.43664921 105.73717277 17.43664921 105.73717277 14 107 C7.91033898 106.57029772 2.86180273 105.07774888 -2.78515625 102.83203125 C-4.01328285 102.35608772 -4.01328285 102.35608772 -5.26622009 101.87052917 C-7.86838625 100.85968301 -10.46540249 99.83628828 -13.0625 98.8125 C-14.77767528 98.14436149 -16.49316797 97.47703722 -18.20898438 96.81054688 C-22.36246042 95.19458534 -26.50863599 93.56075311 -30.65313721 91.92193604 C-32.92571974 91.02918008 -35.20369621 90.15192092 -37.48388672 89.27880859 C-38.84215275 88.75235695 -40.20039018 88.22583152 -41.55859375 87.69921875 C-42.73607178 87.24764404 -43.9135498 86.79606934 -45.12670898 86.33081055 C-49.43960678 84.33322317 -49.43960678 84.33322317 -51 82 C-51.80810632 77.64254849 -51.74043722 73.23622463 -51.8125 68.8125 C-51.88275391 67.60529297 -51.95300781 66.39808594 -52.02539062 65.15429688 C-52.16505442 56.34584569 -52.16505442 56.34584569 -48.88549805 52.55737305 C-46.33190416 50.56393759 -43.69904253 48.78856025 -41 47 C-34.52035978 40.64809641 -30.22196142 32.37964669 -27 24 C-26.70480469 23.27554687 -26.40960938 22.55109375 -26.10546875 21.8046875 C-23.59280044 15.09598689 -22.85584414 8.07833448 -22 1 C-19.08340625 0.83196579 -16.16673658 0.66552033 -13.25 0.5 C-12.425 0.45230469 -11.6 0.40460938 -10.75 0.35546875 C-9.55117188 0.28779297 -9.55117188 0.28779297 -8.328125 0.21875 C-7.5949707 0.17685547 -6.86181641 0.13496094 -6.10644531 0.09179688 C-4.07266386 0.00316662 -2.03571175 0 0 0 Z " fill="#6A7DD9" transform="translate(345,274)"/>
<path d="M0 0 C2.43731228 0.97174383 4.87113537 1.94568334 7.2890625 2.96484375 C16.94185659 6.98415099 25.51439743 8.95143974 36 10 C36 47.62 36 85.24 36 124 C19.39390665 124 6.45591073 118.90436296 -5.65234375 107.41015625 C-9.47300645 103.48777874 -12.82829775 99.46066614 -16 95 C-16.54962402 94.25951416 -17.09924805 93.51902832 -17.66552734 92.75610352 C-24.25704425 82.08367749 -22.65015638 69.83438386 -22.375 57.75 C-22.34485892 55.44404528 -22.31749046 53.13805257 -22.29296875 50.83203125 C-22.22731381 45.22051598 -22.12729565 39.61043778 -22 34 C-21.47043701 33.80889648 -20.94087402 33.61779297 -20.39526367 33.42089844 C-17.98767304 32.54368357 -15.58774236 31.64711575 -13.1875 30.75 C-12.35412109 30.44964844 -11.52074219 30.14929688 -10.66210938 29.83984375 C-4.7320112 27.77031266 -4.7320112 27.77031266 -1 23 C-0.50051541 20.39837029 -0.50051541 20.39837029 -0.48828125 17.578125 C-0.45283203 16.55332031 -0.41738281 15.52851563 -0.38085938 14.47265625 C-0.35830078 13.40917969 -0.33574219 12.34570312 -0.3125 11.25 C-0.27833984 10.17105469 -0.24417969 9.09210938 -0.20898438 7.98046875 C-0.12659337 5.32041623 -0.05741355 2.66068965 0 0 Z " fill="#FEA68D" transform="translate(219,331)"/>
<path d="M0 0 C3.8149408 0.62284748 5.25914777 1.87060806 8.0625 4.5 C9.43600464 7.03437805 9.43600464 7.03437805 10.50341797 9.93481445 C11.12167702 11.57938126 11.12167702 11.57938126 11.75242615 13.25717163 C12.18217239 14.44718781 12.61191864 15.63720398 13.0546875 16.86328125 C13.5214309 18.12052641 13.98960753 19.37724031 14.4591217 20.63345337 C15.71073571 23.99304705 16.94401867 27.35909369 18.17380905 30.72672653 C19.44721367 34.20461713 20.73659541 37.67656182 22.02563477 41.14868164 C22.54228212 42.54074489 23.05889896 43.93281947 23.57548523 45.3249054 C23.83071142 46.01263849 24.08593761 46.70037159 24.34889793 47.40894508 C25.12128834 49.49271248 25.8915085 51.57727079 26.66120911 53.66203308 C29.67088382 61.80665677 32.74261055 69.9229186 35.91015625 78.0078125 C36.26758911 78.92215561 36.62502197 79.83649872 36.99328613 80.77854919 C38.30993979 84.14195974 39.62833674 87.50451028 40.96502686 90.86001587 C41.84850898 93.07920503 42.72016727 95.30271647 43.58984375 97.52734375 C44.07187256 98.74156006 44.55390137 99.95577637 45.05053711 101.20678711 C46.07787849 104.55004595 46.38154923 107.02875672 46.0625 110.5 C44.5 113.375 44.5 113.375 42.0625 115.5 C38.5625 116.0625 38.5625 116.0625 35.0625 115.5 C30.56679724 112.18132179 29.17378682 107.43162901 27.3125 102.375 C26.99667969 101.55128906 26.68085938 100.72757812 26.35546875 99.87890625 C24.0625 93.81395427 24.0625 93.81395427 24.0625 91.5 C8.5525 91.83 -6.9575 92.16 -22.9375 92.5 C-25.2475 98.77 -27.5575 105.04 -29.9375 111.5 C-33.9375 115.5 -33.9375 115.5 -37.4375 116 C-40.9375 115.5 -40.9375 115.5 -43.375 113.9375 C-45.45141561 110.69829164 -45.46610289 108.20293706 -44.9375 104.5 C-43.75732979 100.44270886 -42.22738318 96.53810596 -40.6875 92.60546875 C-40.24211884 91.44039291 -39.79673767 90.27531708 -39.33786011 89.07493591 C-38.13162819 85.92587761 -36.91538567 82.78106947 -35.69399261 79.63788605 C-34.42927636 76.37719996 -33.17621272 73.11204466 -31.92236328 69.84716797 C-30.40133191 65.88845139 -28.87914291 61.93020024 -27.35110474 57.97418213 C-24.20361101 49.82234529 -21.10607753 41.65320654 -18.0546875 33.46484375 C-16.97781982 30.58704282 -15.90031148 27.70948237 -14.82275391 24.8319397 C-14.15272507 23.03662108 -13.486021 21.2400579 -12.82275391 19.44223022 C-11.90989855 16.97069759 -10.98389309 14.50448519 -10.0546875 12.0390625 C-9.79517303 11.32511826 -9.53565857 10.61117401 -9.26828003 9.87559509 C-7.35737238 4.86153273 -5.57642117 0.94917807 0 0 Z " fill="#63B9FA" transform="translate(395.9375,28.5)"/>
<path d="M0 0 C2.32958689 3.10611585 3.8337747 5.58627013 5.5 9 C13.77597218 24.28500541 26.90327101 33.20517756 43 39 C47.95 39.99 52.9 40.98 58 42 C58 60.48 58 78.96 58 98 C38.86 98 19.72 98 0 98 C0 65.66 0 33.32 0 0 Z " fill="#FFD400" transform="translate(197,414)"/>
<path d="M0 0 C-0.96099609 0.78310547 -0.96099609 0.78310547 -1.94140625 1.58203125 C-14.15114964 11.97214075 -21.23346174 25.26466341 -24 41 C-24.41729347 46.87729708 -24.42375866 52.73149262 -24.3984375 58.62109375 C-24.40046309 60.29590481 -24.40337856 61.970715 -24.40713501 63.64552307 C-24.41152701 67.13087481 -24.40522338 70.61599391 -24.39111328 74.10131836 C-24.37392946 78.56225815 -24.38393994 83.02265997 -24.40183067 87.48358059 C-24.41267405 90.93144282 -24.40922126 94.37917745 -24.4014473 97.82704353 C-24.39945164 99.47244392 -24.4018822 101.11785603 -24.40888596 102.76324272 C-24.41652012 105.05788826 -24.40487389 107.35165971 -24.38818359 109.64624023 C-24.38460342 111.60049171 -24.38460342 111.60049171 -24.38095093 113.59422302 C-23.97514736 117.22218753 -23.0902621 119.05752222 -21 122 C-20.67 122.66 -20.34 123.32 -20 124 C-24.44733299 124.12415248 -28.8937326 124.21459457 -33.34228516 124.2746582 C-34.85353174 124.29971095 -36.36465824 124.33376377 -37.87548828 124.37719727 C-40.05531501 124.4382669 -42.23353262 124.46629916 -44.4140625 124.48828125 C-46.37786865 124.52755737 -46.37786865 124.52755737 -48.38134766 124.56762695 C-52.98731596 123.84512821 -54.84222266 122.38840153 -58 119 C-60.75257541 113.68481844 -60.28887486 107.81961696 -60.265625 101.96875 C-60.26753845 100.90064087 -60.2694519 99.83253174 -60.27142334 98.73205566 C-60.27278204 96.47273523 -60.2691076 94.21340691 -60.26074219 91.95410156 C-60.25012293 88.53952903 -60.26060454 85.12549282 -60.2734375 81.7109375 C-60.28845571 60.53691431 -58.7313791 42.76671105 -46 25 C-45.53980469 24.35417969 -45.07960938 23.70835937 -44.60546875 23.04296875 C-38.20797068 14.87555767 -10.57327948 -5.28663974 0 0 Z " fill="#1CA8FE" transform="translate(141,388)"/>
<path d="M0 0 C0.17015625 0.90621094 0.3403125 1.81242187 0.515625 2.74609375 C2.13086286 11.05424319 2.13086286 11.05424319 5.375 18.8125 C6.94176288 22.09120843 7.19688794 23.92605346 6.1875 27.4375 C2.57109639 36.00971597 -3.61714371 42.93849368 -9.88671875 49.67578125 C-15.56531648 55.92118911 -17.13471016 59.77518609 -17.31640625 68.16796875 C-17.33718735 68.96278152 -17.35796844 69.7575943 -17.37937927 70.57649231 C-17.44472087 73.11340763 -17.50368808 75.65042573 -17.5625 78.1875 C-17.60569986 79.90821372 -17.64931463 81.62891708 -17.69335938 83.34960938 C-17.80038648 87.56630113 -17.90169724 91.7830962 -18 96 C-24.97147911 94.02551108 -31.71209794 91.69218502 -38.4375 89 C-39.32115234 88.65710938 -40.20480469 88.31421875 -41.11523438 87.9609375 C-41.96279297 87.62320313 -42.81035156 87.28546875 -43.68359375 86.9375 C-44.44212646 86.63714844 -45.20065918 86.33679688 -45.98217773 86.02734375 C-48.23482219 84.88044383 -49.50948995 84.05159944 -51 82 C-51.80810632 77.64254849 -51.74043722 73.23622463 -51.8125 68.8125 C-51.88275391 67.60529297 -51.95300781 66.39808594 -52.02539062 65.15429688 C-52.16505442 56.34584569 -52.16505442 56.34584569 -48.88549805 52.55737305 C-46.33190416 50.56393759 -43.69904253 48.78856025 -41 47 C-34.52035978 40.64809641 -30.22196142 32.37964669 -27 24 C-26.70480469 23.27554687 -26.40960938 22.55109375 -26.10546875 21.8046875 C-23.59280044 15.09598689 -22.85584414 8.07833448 -22 1 C-19.08340625 0.83196579 -16.16673658 0.66552033 -13.25 0.5 C-12.425 0.45230469 -11.6 0.40460938 -10.75 0.35546875 C-9.55117188 0.28779297 -9.55117188 0.28779297 -8.328125 0.21875 C-7.5949707 0.17685547 -6.86181641 0.13496094 -6.10644531 0.09179688 C-4.07266386 0.00316662 -2.03571175 0 0 0 Z " fill="#4D66D1" transform="translate(345,274)"/>
<path d="M0 0 C1.87083913 2.8062587 3.2016669 5.51306848 4.625 8.5625 C9.26189294 17.88130426 16.3944975 28.19724875 26 33 C26.08690253 37.43737712 26.14035926 41.87453634 26.1875 46.3125 C26.21263672 47.57513672 26.23777344 48.83777344 26.26367188 50.13867188 C26.27333984 51.34716797 26.28300781 52.55566406 26.29296875 53.80078125 C26.3086792 54.91622314 26.32438965 56.03166504 26.34057617 57.1809082 C25.94565543 60.44983276 25.45884608 60.95853612 23 63 C21.15864563 63.93022156 21.15864563 63.93022156 19.0793457 64.7175293 C18.29876297 65.01761398 17.51818024 65.31769867 16.71394348 65.62687683 C15.45755318 66.09581108 15.45755318 66.09581108 14.17578125 66.57421875 C13.31438034 66.90291458 12.45297943 67.23161041 11.56547546 67.57026672 C8.81729774 68.6169357 6.06502731 69.65233074 3.3125 70.6875 C1.44698486 71.39574528 -0.41825313 72.10472104 -2.28320312 72.81445312 C-6.85229757 74.55145717 -11.4250942 76.27836325 -16 78 C-20.25399563 73.8189202 -22.67760727 70.41891637 -25 65 C-25.30164063 64.37867188 -25.60328125 63.75734375 -25.9140625 63.1171875 C-30.07879956 53.19187956 -29.30507405 39.37569518 -25.96484375 29.32421875 C-22.60719678 21.23595984 -18.45015317 17.47774617 -11 13 C-4.18097207 8.61449483 -4.18097207 8.61449483 -0.3125 1.75 C-0.209375 1.1725 -0.10625 0.595 0 0 Z " fill="#6B7ED8" transform="translate(192,296)"/>
<path d="M0 0 C25.84756098 0 25.84756098 0 33.4921875 7.2890625 C38.75373769 13.25942256 39.66667665 18.93202191 39.375 26.81640625 C38.57742004 33.58752779 36.19237472 38.19398905 31.3125 42.9375 C21.98253194 50.27911421 11.91836974 48 0 48 C0 32.16 0 16.32 0 0 Z " fill="#FEA58E" transform="translate(323,227)"/>
<path d="M0 0 C1.25159912 0.00523682 2.50319824 0.01047363 3.79272461 0.01586914 C4.78942421 0.01799156 4.78942421 0.01799156 5.80625916 0.02015686 C7.93590735 0.02577021 10.06545175 0.03832485 12.19506836 0.05102539 C13.63582205 0.05603868 15.07657739 0.06060188 16.51733398 0.06469727 C20.05577938 0.07574394 23.59416375 0.09301747 27.13256836 0.11352539 C26.92688232 1.30969482 26.92688232 1.30969482 26.71704102 2.5300293 C25.12778132 12.53937753 24.70804275 22.37292152 24.50756836 32.48852539 C24.46926407 34.1109393 24.43020582 35.73333559 24.39038086 37.35571289 C24.29578222 41.27483575 24.21127777 45.19405257 24.13256836 49.11352539 C23.40142822 49.13858154 22.67028809 49.1636377 21.91699219 49.18945312 C18.59285419 49.3057518 15.26897595 49.42832467 11.94506836 49.55102539 C10.79458008 49.5903418 9.6440918 49.6296582 8.45874023 49.67016602 C7.34692383 49.71206055 6.23510742 49.75395508 5.08959961 49.79711914 C3.55783081 49.85210571 3.55783081 49.85210571 1.99511719 49.90820312 C-0.70571627 50.10192602 -3.22909293 50.51804493 -5.86743164 51.11352539 C-5.91739949 45.92148187 -5.95341602 40.7295827 -5.97729492 35.53735352 C-5.98726458 33.77626096 -6.0008452 32.01518456 -6.01831055 30.25415039 C-6.21319457 10.07792209 -6.21319457 10.07792209 -3.86743164 1.11352539 C-2.86743164 0.11352539 -2.86743164 0.11352539 0 0 Z " fill="#4D65D2" transform="translate(168.867431640625,177.886474609375)"/>
<path d="M0 0 C4.94375668 -0.12468733 9.88657507 -0.2148439 14.83154297 -0.2746582 C16.50943977 -0.29962211 18.18722986 -0.33360619 19.86474609 -0.37719727 C31.32761879 -0.66735336 39.21299049 -0.05079777 48.6875 7 C50 9 50 9 49.71826172 11.21826172 C48.40370731 16.30936742 46.57969344 21.22517321 44.81689453 26.17529297 C44.12570159 28.12302297 43.44748559 30.07497272 42.76953125 32.02734375 C42.33253906 33.25839844 41.89554687 34.48945313 41.4453125 35.7578125 C41.04844238 36.8833252 40.65157227 38.00883789 40.24267578 39.16845703 C39.07110075 41.83799086 38.34644832 43.31369252 36 45 C30.36818182 45.80454545 30.36818182 45.80454545 28 45 C22.69910263 38.94333112 20.89051745 30.60511125 18.35546875 23.12109375 C15.03252696 13.54051587 11.99856688 7.1690542 2.6875 2.25 C1.800625 1.8375 0.91375 1.425 0 1 C0 0.67 0 0.34 0 0 Z " fill="#FFD501" transform="translate(396,177)"/>
<path d="M0 0 C1.00353516 0.1546875 1.00353516 0.1546875 2.02734375 0.3125 C2.69894531 0.395 3.37054688 0.4775 4.0625 0.5625 C6.74300903 1.61929206 7.50187722 2.83242735 8.96484375 5.3125 C9.3256073 8.4130249 9.3256073 8.4130249 9.30541992 12.10058594 C9.305858 12.77416641 9.30629608 13.44774689 9.30674744 14.14173889 C9.30466321 16.36041604 9.28135074 18.57833043 9.2578125 20.796875 C9.25221521 22.33815091 9.24794574 23.87943217 9.24494934 25.42071533 C9.23351093 29.47160656 9.20405264 33.52217361 9.1708374 37.57293701 C9.14011473 41.70873632 9.12643932 45.84458815 9.11132812 49.98046875 C9.07918169 58.09131097 9.02642221 66.20182777 8.96484375 74.3125 C4.01484375 74.3125 -0.93515625 74.3125 -6.03515625 74.3125 C-6.12552538 65.2547327 -6.19891103 56.1972648 -6.24240494 47.13914871 C-6.26327986 42.93309023 -6.29159525 38.72735615 -6.33691406 34.52148438 C-6.38037601 30.4625403 -6.40429407 26.40390826 -6.41466522 22.34474945 C-6.42205605 20.79616127 -6.43648877 19.24759017 -6.45807648 17.69913483 C-6.48711673 15.52984216 -6.49111224 13.36183859 -6.48925781 11.19238281 C-6.50258148 9.34039276 -6.50258148 9.34039276 -6.51617432 7.45098877 C-5.89822358 3.41905818 -4.25003402 0.65259639 0 0 Z " fill="#0094FD" transform="translate(372.03515625,437.6875)"/>
<path d="M0 0 C4.4959123 1.33212216 4.4959123 1.33212216 6.375 4 C6.73576355 7.01823425 6.73576355 7.01823425 6.71557617 10.76635742 C6.71601425 11.44954544 6.71645233 12.13273346 6.71690369 12.83662415 C6.71481482 15.09319712 6.69148037 17.34902569 6.66796875 19.60546875 C6.66237311 21.17059422 6.65810286 22.73572494 6.65510559 24.30085754 C6.64365419 28.41916424 6.6141847 32.53715325 6.58099365 36.65533447 C6.55029901 40.85806989 6.53660156 45.06085666 6.52148438 49.26367188 C6.48931501 57.50927658 6.43654489 65.75456216 6.375 74 C1.425 74 -3.525 74 -8.625 74 C-8.73803265 65.08989671 -8.82973348 56.18027077 -8.88406086 47.26961231 C-8.91013747 43.13186282 -8.94549885 38.99462992 -9.00219727 34.85717773 C-9.0565881 30.86304854 -9.08643511 26.86941569 -9.09938622 22.87494469 C-9.10861359 21.3522733 -9.12663316 19.82962861 -9.15365028 18.30716896 C-9.19003836 16.17138957 -9.19494183 14.03765161 -9.19262695 11.90161133 C-9.20373001 10.6869368 -9.21483307 9.47226227 -9.22627258 8.22077942 C-8.21427369 2.7999016 -5.54100846 0 0 0 Z " fill="#0094FD" transform="translate(139.625,438)"/>
<path d="M0 0 C0.66 0 1.32 0 2 0 C3.39364976 1.62668628 4.62749049 3.34025385 5.87890625 5.078125 C12.11270853 10.72643204 19.45857411 11.61700415 27.5625 11.75 C30.676875 11.8325 33.79125 11.915 37 12 C37 19.92 37 27.84 37 36 C32.2665625 36.061875 32.2665625 36.061875 27.4375 36.125 C26.4570874 36.14320801 25.4766748 36.16141602 24.46655273 36.18017578 C16.04500717 36.23311463 10.0204424 34.91666106 3.80078125 29.03515625 C-1.82698525 22.67492557 -2.43599549 16.30042681 -2.3359375 8.015625 C-2.00050998 5.00457794 -1.26719095 2.73713245 0 0 Z " fill="#FEA58E" transform="translate(152,239)"/>
<path d="M0 0 C2.04875904 2.04875904 2.60623202 3.19686321 3.60400391 5.85131836 C3.90416412 6.6423143 4.20432434 7.43331024 4.51358032 8.24827576 C4.83136444 9.10349319 5.14914856 9.95871063 5.4765625 10.83984375 C5.80667328 11.71774063 6.13678406 12.59563751 6.47689819 13.50013733 C7.17379921 15.35773203 7.86795169 17.21635984 8.55957031 19.07592773 C9.62047459 21.92534547 10.69239605 24.77043921 11.765625 27.61523438 C12.44076993 29.41902178 13.11527082 31.22305041 13.7890625 33.02734375 C14.11089508 33.88053696 14.43272766 34.73373016 14.76431274 35.61277771 C15.05816864 36.40692581 15.35202454 37.20107391 15.65478516 38.01928711 C15.91522614 38.71718857 16.17566711 39.41509003 16.44400024 40.13414001 C17 42 17 42 17 45 C5.78 45 -5.44 45 -17 45 C-11.81637208 29.78717893 -6.07117809 14.87943799 0 0 Z " fill="#FBE45C" transform="translate(396,59)"/>
<path d="M0 0 C2.949375 -0.061875 5.89875 -0.12375 8.9375 -0.1875 C9.84749756 -0.21481201 10.75749512 -0.24212402 11.69506836 -0.27026367 C19.04913331 -0.34382805 26.4083246 0.83845348 32 6 C32.556875 6.495 33.11375 6.99 33.6875 7.5 C35 9 35 9 36 12 C34.8828125 13.90234375 34.8828125 13.90234375 33.125 15.9375 C32.57070313 16.60652344 32.01640625 17.27554688 31.4453125 17.96484375 C24.7052965 23.57434588 17.97535714 24.57312747 9.4375 24.25 C6.323125 24.1675 3.20875 24.085 0 24 C0 16.08 0 8.16 0 0 Z " fill="#FEB09F" transform="translate(323,227)"/>
<path d="M0 0 C11.55 0 23.1 0 35 0 C31.37563507 12.08121644 26.9383664 22.00729702 18 31 C8.84772401 24.39002289 3.59351691 12.45229678 0 2 C0 1.34 0 0.68 0 0 Z " fill="#5DB6FB" transform="translate(98,70)"/>
</svg>
