<?xml version="1.0" encoding="UTF-8"?>
<svg version="1.1" xmlns="http://www.w3.org/2000/svg" width="160" height="160">
<path d="M0 0 C52.8 0 105.6 0 160 0 C160 52.8 160 105.6 160 160 C107.2 160 54.4 160 0 160 C0 107.2 0 54.4 0 0 Z " fill="#FEC225" transform="translate(0,0)"/>
<path d="M0 0 C4.95 0 9.9 0 15 0 C15.03738281 1.94003906 15.07476562 3.88007812 15.11328125 5.87890625 C15.17895348 8.44012309 15.24540038 11.00132015 15.3125 13.5625 C15.33505859 14.83931641 15.35761719 16.11613281 15.38085938 17.43164062 C15.61613925 25.66643618 15.87107377 31.47995799 21.5 37.8125 C27.27006634 42.86130804 32.50902108 43.06332953 40 43 C45.20673263 41.98960258 48.56026153 38.91747993 52 35 C52.556875 34.38125 53.11375 33.7625 53.6875 33.125 C55.46922055 30.24030959 56.18214307 27.27142771 57 24 C61.62 24 66.24 24 71 24 C70.89385355 33.97776597 69.58361311 39.48594049 63 47 C62.195625 47.928125 61.39125 48.85625 60.5625 49.8125 C50.49065526 58.41041624 40.91765574 59.8449007 28.05224609 59.18212891 C19.26041714 58.40188808 12.79320101 52.24148442 7 46 C6.505 44.515 6.505 44.515 6 43 C5.34 43 4.68 43 4 43 C1.11915286 36.48678038 -0.1264038 31.85375793 -0.09765625 24.609375 C-0.0962413 23.90476135 -0.09482635 23.20014771 -0.09336853 22.47418213 C-0.08778933 20.23274416 -0.07524073 17.99140757 -0.0625 15.75 C-0.05748231 14.22656395 -0.05291987 12.70312632 -0.04882812 11.1796875 C-0.03867934 7.4530549 -0.01910009 3.7266404 0 0 Z " fill="#FEFDF4" transform="translate(44,57)"/>
<path d="M0 0 C2.5 1.5 2.5 1.5 4 4 C4.791013 8.02098277 4.62153384 10.96411027 2.5 14.5 C-1.03588973 16.62153384 -3.97901723 16.791013 -8 16 C-10.5 14.5 -10.5 14.5 -12 12 C-12.791013 7.97901723 -12.62153384 5.03588973 -10.5 1.5 C-6.96411027 -0.62153384 -4.02098277 -0.791013 0 0 Z " fill="#FEFBEB" transform="translate(112,56)"/>
<path d="M0 0 C1.12535156 0.00580078 1.12535156 0.00580078 2.2734375 0.01171875 C3.02367188 0.00785156 3.77390625 0.00398438 4.546875 0 C10.14682697 0.01010822 10.14682697 0.01010822 11.2734375 1.13671875 C11.75584956 8.49350267 11.75584956 8.49350267 8.2734375 13.13671875 C8.6034375 9.50671875 8.9334375 5.87671875 9.2734375 2.13671875 C4.6534375 2.46671875 0.0334375 2.79671875 -4.7265625 3.13671875 C-5.0153125 4.25046875 -5.3040625 5.36421875 -5.6015625 6.51171875 C-6.7265625 10.13671875 -6.7265625 10.13671875 -8.7265625 12.13671875 C-8.7265625 10.81671875 -8.7265625 9.49671875 -8.7265625 8.13671875 C-8.0665625 8.13671875 -7.4065625 8.13671875 -6.7265625 8.13671875 C-6.7471875 7.00234375 -6.7678125 5.86796875 -6.7890625 4.69921875 C-6.68992781 -0.95145839 -5.16485768 0.00932285 0 0 Z " fill="#F5C958" transform="translate(105.7265625,78.86328125)"/>
<path d="M0 0 C0.763125 0.309375 1.52625 0.61875 2.3125 0.9375 C4.18789677 1.67893593 6.08684652 2.36228217 8 3 C8 3.66 8 4.32 8 5 C8.969375 4.979375 9.93875 4.95875 10.9375 4.9375 C14 5 14 5 15 6 C17.69235776 6.23678716 20.36498156 6.42198025 23.0625 6.5625 C24.20041992 6.62727539 24.20041992 6.62727539 25.36132812 6.69335938 C27.24065438 6.79973633 29.12030244 6.90039934 31 7 C31 7.33 31 7.66 31 8 C9.50619835 8.83471074 9.50619835 8.83471074 1.4375 1.75 C0.963125 1.1725 0.48875 0.595 0 0 Z " fill="#FEF6C5" transform="translate(57,108)"/>
<path d="M0 0 C0.33 0.99 0.66 1.98 1 3 C-4.76240474 6.84160316 -10.29157865 7.23538321 -17 7 C-17 6.34 -17 5.68 -17 5 C-17.99 4.67 -18.98 4.34 -20 4 C-18.93072266 4.05220703 -18.93072266 4.05220703 -17.83984375 4.10546875 C-11.66739981 4.27992544 -7.46225847 3.90545663 -2 1 C-1.34 0.67 -0.68 0.34 0 0 Z " fill="#FDF3C4" transform="translate(93,96)"/>
<path d="M0 0 C0.66 0 1.32 0 2 0 C2 1.32 2 2.64 2 4 C2.66 4 3.32 4 4 4 C4 4.66 4 5.32 4 6 C5.32 6 6.64 6 8 6 C8 6.66 8 7.32 8 8 C5.36 8 2.72 8 0 8 C0 5.36 0 2.72 0 0 Z " fill="#CBC1AE" transform="translate(0,152)"/>
<path d="M0 0 C0.66 0 1.32 0 2 0 C2 2.64 2 5.28 2 8 C-0.64 8 -3.28 8 -6 8 C-6 7.34 -6 6.68 -6 6 C-4.68 6 -3.36 6 -2 6 C-2 5.34 -2 4.68 -2 4 C-1.34 4 -0.68 4 0 4 C0 2.68 0 1.36 0 0 Z " fill="#CBC1AE" transform="translate(158,152)"/>
<path d="M0 0 C2.64 0 5.28 0 8 0 C8 0.66 8 1.32 8 2 C6.68 2 5.36 2 4 2 C4 2.66 4 3.32 4 4 C3.34 4 2.68 4 2 4 C2 5.32 2 6.64 2 8 C1.34 8 0.68 8 0 8 C0 5.36 0 2.72 0 0 Z " fill="#C7C3B2" transform="translate(0,0)"/>
<path d="M0 0 C2.64 0 5.28 0 8 0 C8 2.64 8 5.28 8 8 C7.34 8 6.68 8 6 8 C6 6.68 6 5.36 6 4 C5.34 4 4.68 4 4 4 C4 3.34 4 2.68 4 2 C2.68 2 1.36 2 0 2 C0 1.34 0 0.68 0 0 Z " fill="#CBC1AE" transform="translate(152,0)"/>
<path d="M0 0 C0.33 1.32 0.66 2.64 1 4 C0.34 4 -0.32 4 -1 4 C-1.33 5.65 -1.66 7.3 -2 9 C-3.65 9.33 -5.3 9.66 -7 10 C-6.57847656 9.44570312 -6.15695313 8.89140625 -5.72265625 8.3203125 C-5.17480469 7.59585938 -4.62695312 6.87140625 -4.0625 6.125 C-3.51722656 5.40570313 -2.97195312 4.68640625 -2.41015625 3.9453125 C-0.96035376 2.05642921 -0.96035376 2.05642921 0 0 Z " fill="#F8CA50" transform="translate(111,97)"/>
<path d="M0 0 C-0.99 1.485 -0.99 1.485 -2 3 C-3.9453125 3.29296875 -3.9453125 3.29296875 -6.125 3.1875 C-7.40375 3.125625 -8.6825 3.06375 -10 3 C-10.33 2.34 -10.66 1.68 -11 1 C-7.26562152 0.12132271 -3.83225427 -0.08912219 0 0 Z " fill="#FEF2C5" transform="translate(114,69)"/>
<path d="M0 0 C0.33 0 0.66 0 1 0 C1.103125 1.155 1.20625 2.31 1.3125 3.5 C1.86035113 8.01171519 3.2774879 11.80605749 5 16 C4.34 16 3.68 16 3 16 C-0.39366878 10.62669111 -0.32712342 6.13053511 0 0 Z " fill="#FEF6D0" transform="translate(57,76)"/>
</svg>
