<svg xmlns="http://www.w3.org/2000/svg" width="712.293" height="395.091" viewBox="0 0 712.293 395.091">
  <g id="vacation" transform="translate(-11215 -5411)">
    <g id="undraw_navigator_a479" transform="translate(11215 5411)">
      <circle id="Ellipse_15" data-name="Ellipse 15" cx="40.794" cy="40.794" r="40.794" transform="translate(145.965 42.181)" fill="#eab308"/>
      <path id="Path_2577" data-name="Path 2577" d="M499.32,422.964H299.2a4.08,4.08,0,0,1-.748-.059L393.1,258.958a6.627,6.627,0,0,1,11.536,0l63.522,110.021,3.043,5.264Z" transform="translate(-184.636 -214.276)" fill="#3f3d56"/>
      <path id="Path_2578" data-name="Path 2578" d="M374.885,246.486H306.558l33.542-48.72,2.414-3.509,1.207-1.754,3.043,5.264Z" transform="translate(-60.201 -37.798)" opacity="0.2"/>
      <path id="Path_2579" data-name="Path 2579" d="M644.766,434.771H471.675l33.542-48.72,2.414-3.51,43.708-63.492c2.865-4.161,9.759-4.42,13.128-.785a7.893,7.893,0,0,1,.629.785Z" transform="translate(-218.654 -226.083)" fill="#3f3d56"/>
      <circle id="Ellipse_16" data-name="Ellipse 16" cx="12.293" cy="12.293" r="12.293" transform="translate(464.628 157.132)" fill="#f16623"/>
      <path id="Path_2580" data-name="Path 2580" d="M594.323,247.394H591.8l1.148-38.878Z" transform="translate(-116.217 -40.943)" fill="#3f3d56"/>
      <path id="Path_2581" data-name="Path 2581" d="M593.428,216.771l2.7-3.74-2.74,4.666-.3-.518Z" transform="translate(-116.47 -41.83)" fill="#3f3d56"/>
      <path id="Path_2582" data-name="Path 2582" d="M592.48,221.47l-2.7-3.739,2.74,4.665.3-.518Z" transform="translate(-115.818 -42.753)" fill="#3f3d56"/>
      <circle id="Ellipse_17" data-name="Ellipse 17" cx="12.293" cy="12.293" r="12.293" transform="translate(577.39 157.132)" fill="#f16623"/>
      <path id="Path_2583" data-name="Path 2583" d="M734.639,247.394h-2.518l1.148-38.878Z" transform="translate(-143.771 -40.943)" fill="#3f3d56"/>
      <path id="Path_2584" data-name="Path 2584" d="M733.744,216.771l2.7-3.74-2.74,4.666-.3-.518Z" transform="translate(-144.025 -41.83)" fill="#3f3d56"/>
      <path id="Path_2585" data-name="Path 2585" d="M732.8,221.47l-2.7-3.739,2.74,4.665.3-.518Z" transform="translate(-143.373 -42.753)" fill="#3f3d56"/>
      <circle id="Ellipse_18" data-name="Ellipse 18" cx="18.155" cy="18.155" r="18.155" transform="translate(494.376 133.61)" fill="#f16623"/>
      <path id="Path_2586" data-name="Path 2586" d="M639.043,242.863h-3.718l1.695-57.419Z" transform="translate(-124.763 -36.412)" fill="#3f3d56"/>
      <path id="Path_2587" data-name="Path 2587" d="M637.723,197.635l3.992-5.523L637.668,199l-.438-.766Z" transform="translate(-125.137 -37.722)" fill="#3f3d56"/>
      <path id="Path_2588" data-name="Path 2588" d="M636.323,204.576l-3.992-5.522,4.046,6.889.438-.765Z" transform="translate(-124.175 -39.085)" fill="#3f3d56"/>
      <circle id="Ellipse_19" data-name="Ellipse 19" cx="18.155" cy="18.155" r="18.155" transform="translate(538.65 133.61)" fill="#f16623"/>
      <path id="Path_2589" data-name="Path 2589" d="M694.137,242.863h-3.718l1.695-57.419Z" transform="translate(-135.582 -36.412)" fill="#3f3d56"/>
      <path id="Path_2590" data-name="Path 2590" d="M692.816,197.635l3.992-5.523L692.761,199l-.437-.766Z" transform="translate(-135.956 -37.722)" fill="#3f3d56"/>
      <path id="Path_2591" data-name="Path 2591" d="M691.416,204.576l-3.992-5.522,4.047,6.889.437-.765Z" transform="translate(-134.994 -39.085)" fill="#3f3d56"/>
      <circle id="Ellipse_20" data-name="Ellipse 20" cx="18.155" cy="18.155" r="18.155" transform="translate(423.813 133.61)" fill="#f16623"/>
      <path id="Path_2592" data-name="Path 2592" d="M551.237,242.863h-3.718l1.7-57.419Z" transform="translate(-107.52 -36.412)" fill="#3f3d56"/>
      <path id="Path_2593" data-name="Path 2593" d="M549.917,197.635l3.992-5.523L549.862,199l-.437-.766Z" transform="translate(-107.894 -37.722)" fill="#3f3d56"/>
      <path id="Path_2594" data-name="Path 2594" d="M548.517,204.576l-3.992-5.522,4.047,6.889.437-.765Z" transform="translate(-106.932 -39.085)" fill="#3f3d56"/>
      <path id="Path_2595" data-name="Path 2595" d="M815.4,648.8H222.917a56.844,56.844,0,1,1,0-113.687H814.09a21.863,21.863,0,1,0,0-43.726H203.241V456.409H814.09a56.844,56.844,0,0,1,0,113.687H222.917a21.863,21.863,0,0,0,0,43.726H815.4Z" transform="translate(-158.641 -253.711)" fill="#e6e6e6"/>
      <rect id="Rectangle_32" data-name="Rectangle 32" width="27.11" height="1.749" transform="translate(66.463 219.313)" fill="#fff"/>
      <rect id="Rectangle_33" data-name="Rectangle 33" width="27.11" height="1.749" transform="translate(143.42 219.313)" fill="#fff"/>
      <rect id="Rectangle_34" data-name="Rectangle 34" width="27.11" height="1.749" transform="translate(220.378 219.313)" fill="#fff"/>
      <rect id="Rectangle_35" data-name="Rectangle 35" width="27.11" height="1.749" transform="translate(297.335 219.313)" fill="#fff"/>
      <rect id="Rectangle_36" data-name="Rectangle 36" width="27.11" height="1.749" transform="translate(374.292 219.313)" fill="#fff"/>
      <rect id="Rectangle_37" data-name="Rectangle 37" width="27.11" height="1.749" transform="translate(451.25 219.313)" fill="#fff"/>
      <rect id="Rectangle_38" data-name="Rectangle 38" width="27.11" height="1.749" transform="translate(528.207 219.313)" fill="#fff"/>
      <rect id="Rectangle_39" data-name="Rectangle 39" width="27.11" height="1.749" transform="translate(605.165 219.313)" fill="#fff"/>
      <rect id="Rectangle_40" data-name="Rectangle 40" width="27.11" height="1.749" transform="translate(66.463 298.019)" fill="#fff"/>
      <rect id="Rectangle_41" data-name="Rectangle 41" width="27.11" height="1.749" transform="translate(143.42 298.019)" fill="#fff"/>
      <rect id="Rectangle_42" data-name="Rectangle 42" width="27.11" height="1.749" transform="translate(220.378 298.019)" fill="#fff"/>
      <rect id="Rectangle_43" data-name="Rectangle 43" width="27.11" height="1.749" transform="translate(297.335 298.019)" fill="#fff"/>
      <rect id="Rectangle_44" data-name="Rectangle 44" width="27.11" height="1.749" transform="translate(374.292 298.019)" fill="#fff"/>
      <rect id="Rectangle_45" data-name="Rectangle 45" width="27.11" height="1.749" transform="translate(451.25 298.019)" fill="#fff"/>
      <rect id="Rectangle_46" data-name="Rectangle 46" width="27.11" height="1.749" transform="translate(528.207 298.019)" fill="#fff"/>
      <rect id="Rectangle_47" data-name="Rectangle 47" width="27.11" height="1.749" transform="translate(605.165 298.019)" fill="#fff"/>
      <rect id="Rectangle_48" data-name="Rectangle 48" width="27.11" height="1.749" transform="translate(66.463 376.726)" fill="#fff"/>
      <rect id="Rectangle_49" data-name="Rectangle 49" width="27.11" height="1.749" transform="translate(143.42 376.726)" fill="#fff"/>
      <rect id="Rectangle_50" data-name="Rectangle 50" width="27.11" height="1.749" transform="translate(220.378 376.726)" fill="#fff"/>
      <rect id="Rectangle_51" data-name="Rectangle 51" width="27.11" height="1.749" transform="translate(297.335 376.726)" fill="#fff"/>
      <rect id="Rectangle_52" data-name="Rectangle 52" width="27.11" height="1.749" transform="translate(374.292 376.726)" fill="#fff"/>
      <rect id="Rectangle_53" data-name="Rectangle 53" width="27.11" height="1.749" transform="translate(451.25 376.726)" fill="#fff"/>
      <rect id="Rectangle_54" data-name="Rectangle 54" width="27.11" height="1.749" transform="translate(528.207 376.726)" fill="#fff"/>
      <rect id="Rectangle_55" data-name="Rectangle 55" width="27.11" height="1.749" transform="translate(605.165 376.726)" fill="#fff"/>
      <path id="Path_2596" data-name="Path 2596" d="M730.823,297.759a23.3,23.3,0,0,0-4.858-4.583H736.11a16.968,16.968,0,0,0-5.287,4.583Z" transform="translate(-268.59 -221.656)" fill="none"/>
      <path id="Path_2597" data-name="Path 2597" d="M690.743,293.176h1.749c-.376.264-.753.527-1.111.812C691.175,293.711,690.957,293.445,690.743,293.176Z" transform="translate(-261.673 -221.656)" fill="none"/>
      <path id="Path_2598" data-name="Path 2598" d="M746.708,290.559a16.741,16.741,0,0,1,8.14,2.1H738.589a16.668,16.668,0,0,1,8.119-2.1Z" transform="translate(-271.069 -221.142)" fill="#e6e6e6"/>
      <path id="Path_2599" data-name="Path 2599" d="M706.188,287.941a23,23,0,0,1,13.287,4.207H692.919A23,23,0,0,1,706.188,287.941Z" transform="translate(-262.101 -220.628)" fill="#e6e6e6"/>
      <path id="Path_2600" data-name="Path 2600" d="M487.024,244.865a43.119,43.119,0,0,1,84.6-9.091c.522-.019,1.044-.04,1.571-.04a43.127,43.127,0,0,1,41.37,30.963,30.474,30.474,0,0,1,36.162,9h-134.5a29.166,29.166,0,0,1-29.23-30.2Q487.006,245.184,487.024,244.865Z" transform="translate(-221.658 -204.179)" fill="#e6e6e6"/>
      <path id="Path_2601" data-name="Path 2601" d="M776.295,336.935a23.3,23.3,0,0,1,4.858-4.583H771.008a16.969,16.969,0,0,1,5.287,4.583Z" transform="translate(-277.436 -229.349)" fill="none"/>
      <path id="Path_2602" data-name="Path 2602" d="M818.427,332.352h-1.749c.376.264.753.527,1.111.812C817.994,332.887,818.213,332.621,818.427,332.352Z" transform="translate(-286.404 -229.349)" fill="none"/>
      <path id="Path_2603" data-name="Path 2603" d="M758.916,329.734a16.741,16.741,0,0,0-8.14,2.1h16.259a16.669,16.669,0,0,0-8.119-2.1Z" transform="translate(-273.462 -228.835)" fill="#e6e6e6"/>
      <path id="Path_2604" data-name="Path 2604" d="M796.919,327.117a23,23,0,0,0-13.287,4.207h26.556A23,23,0,0,0,796.919,327.117Z" transform="translate(-279.915 -228.321)" fill="#e6e6e6"/>
      <path id="Path_2605" data-name="Path 2605" d="M982.557,284.041a43.119,43.119,0,0,0-84.6-9.091c-.522-.019-1.044-.04-1.571-.04a43.127,43.127,0,0,0-41.37,30.963,30.474,30.474,0,0,0-36.161,9h134.5a29.166,29.166,0,0,0,29.23-30.2Q982.573,284.359,982.557,284.041Z" transform="translate(-286.831 -211.872)" fill="#e6e6e6"/>
      <rect id="Rectangle_56" data-name="Rectangle 56" width="15.633" height="2.481" transform="matrix(-1, -0.001, 0.001, -1, 621.684, 370.658)" fill="#3f3d56"/>
      <path id="Path_2606" data-name="Path 2606" d="M770.332,648.166l3.225.746,122.579.065,1.1-2.568a25.923,25.923,0,0,0,1.906-14.017c-.528-3.547-1.851-7.071-4.856-8.6l-5.44-36.231-67.817-.121L794.794,608.6s-12.377-.222-19.1,8.148a19.648,19.648,0,0,0-4.11,10.821l-.265,4.355Z" transform="translate(-277.303 -279.442)" fill="#21dc72"/>
      <circle id="Ellipse_21" data-name="Ellipse 21" cx="15.136" cy="15.136" r="15.136" transform="translate(504.815 352.982)" fill="#3f3d56"/>
      <circle id="Ellipse_22" data-name="Ellipse 22" cx="7.966" cy="7.966" r="7.966" transform="translate(511.985 360.152)" fill="#ccc"/>
      <circle id="Ellipse_23" data-name="Ellipse 23" cx="15.136" cy="15.136" r="15.136" transform="translate(579.505 353.022)" fill="#3f3d56"/>
      <circle id="Ellipse_24" data-name="Ellipse 24" cx="7.966" cy="7.966" r="7.966" transform="translate(586.675 360.192)" fill="#ccc"/>
      <path id="Path_2607" data-name="Path 2607" d="M656.92,402.935l36.615.015h4.47l7.546.006v-.55l.006-6.636.006-7.451h-5.021l-4.47,0-7.917-.006h-4.47l-9.14-.006Z" transform="translate(-129.004 -76.249)" fill="#fff"/>
      <path id="Path_2608" data-name="Path 2608" d="M724.849,402.967l19.351.01,0-3.8v-6.636l.006-4.2h-2.834l-4.47-.006-12.053,0Z" transform="translate(-142.343 -76.254)" fill="#fff"/>
      <rect id="Rectangle_57" data-name="Rectangle 57" width="2.481" height="4.715" transform="matrix(-1, -0.001, 0.001, -1, 576.538, 342.345)" fill="#3f3d56"/>
      <rect id="Rectangle_58" data-name="Rectangle 58" width="2.481" height="4.715" transform="matrix(-0.001, 1, -1, -0.001, 537.841, 330.91)" fill="#3f3d56"/>
      <path id="Path_2609" data-name="Path 2609" d="M0,0H.273A5.186,5.186,0,0,1,5.459,5.186h0A5.186,5.186,0,0,1,.273,10.372H0Z" transform="matrix(-1, -0.001, 0.001, -1, 536.098, 332.001)" fill="#3f3d56"/>
      <path id="Path_2610" data-name="Path 2610" d="M771.559,639.089a8.016,8.016,0,0,0,4.375-15.176,19.649,19.649,0,0,0-4.11,10.822Z" transform="translate(-277.544 -286.605)" fill="#3f3d56"/>
      <path id="Path_2611" data-name="Path 2611" d="M705.639,388.316l9.48,14.092.006-6.636-5.015-7.451Z" transform="translate(-138.571 -76.252)" fill="#f2f2f2"/>
      <path id="Path_2612" data-name="Path 2612" d="M739.854,388.335l7.3,10.846v-6.636l-2.828-4.2Z" transform="translate(-145.29 -76.255)" fill="#f2f2f2"/>
      <path id="Path_2613" data-name="Path 2613" d="M690.225,388.309l9.851,14.643h4.47l-9.851-14.643Z" transform="translate(-135.544 -76.25)" fill="#f2f2f2"/>
      <circle id="Ellipse_25" data-name="Ellipse 25" cx="40.228" cy="40.228" r="40.228" transform="translate(0 169.466)" fill="#3f3d56"/>
      <path id="Path_2614" data-name="Path 2614" d="M201.921,464.189,181.79,444.058a3.5,3.5,0,1,1,4.947-4.947l14.849,14.849,47.385-54.035a3.5,3.5,0,1,1,5.26,4.613Z" transform="translate(-161.526 -242.385)" fill="#21dc72"/>
    </g>
    <g id="undraw_aircraft_re_m05i" transform="translate(11479.776 5434.5)">
      <path id="Path_2539" data-name="Path 2539" d="M618.244,104.413c0,.18.2.324.453.324h77.738c.251,0,.453-.144.453-.324s-.2-.324-.453-.324H618.7c-.251,0-.453.144-.453.324Z" transform="translate(-453.946 -100.545)" fill="#e6e6e6"/>
      <path id="Path_2540" data-name="Path 2540" d="M377.29,279.582l.769,20.388h-1.873v2.308h5.234V299.97h-1.527L380,279.582Z" transform="translate(-276.215 -229.401)" fill="#3f3d56"/>
      <path id="Path_2541" data-name="Path 2541" d="M368.753,344h0a1.443,1.443,0,0,1,1.443,1.443V351.4a1.443,1.443,0,0,1-1.443,1.443h0a1.443,1.443,0,0,1-1.443-1.443V345.44A1.443,1.443,0,0,1,368.753,344Z" transform="translate(-269.698 -276.698)" fill="#3f3d56"/>
      <path id="Path_2542" data-name="Path 2542" d="M396.256,344h0a1.443,1.443,0,0,1,1.443,1.443V351.4a1.443,1.443,0,0,1-1.443,1.443h0a1.443,1.443,0,0,1-1.443-1.443V345.44A1.443,1.443,0,0,1,396.256,344Z" transform="translate(-289.892 -276.698)" fill="#3f3d56"/>
      <path id="Path_2543" data-name="Path 2543" d="M362.552,222.216l-29.621-1.346,4.616-2.116,25.966.385Z" transform="translate(-244.455 -184.738)" fill="#21dc72"/>
      <path id="Path_2544" data-name="Path 2544" d="M0,239.312l3.577-1.347,111.058,2.885,4.616-2.116-1.924,13.079-88.218-9.4Z" transform="translate(0 -198.844)" fill="#21dc72"/>
      <path id="Path_2545" data-name="Path 2545" d="M107.479,259.2l.547-4.5,88.218,9.4-.481,6.636Z" transform="translate(-78.916 -211.134)" fill="#3f3d56"/>
      <ellipse id="Ellipse_6" data-name="Ellipse 6" cx="9.136" cy="9.713" rx="9.136" ry="9.713" transform="translate(78.763 41.91)" fill="#3f3d56"/>
      <ellipse id="Ellipse_7" data-name="Ellipse 7" cx="6.732" cy="6.732" rx="6.732" ry="6.732" transform="translate(81.168 43.16)" fill="#21dc72"/>
      <path id="Path_2546" data-name="Path 2546" d="M601.979,279.582l-.769,20.388h1.873v2.308h-5.234V299.97h1.526l-.109-20.388Z" transform="translate(-438.97 -229.401)" fill="#3f3d56"/>
      <rect id="Rectangle_28" data-name="Rectangle 28" width="2.885" height="8.848" rx="1.443" transform="translate(163.586 67.299)" fill="#3f3d56"/>
      <rect id="Rectangle_29" data-name="Rectangle 29" width="2.885" height="8.848" rx="1.443" transform="translate(156.277 67.299)" fill="#3f3d56"/>
      <path id="Path_2547" data-name="Path 2547" d="M546.681,222.216l29.62-1.346-4.616-2.116-25.966.385Z" transform="translate(-400.694 -184.738)" fill="#21dc72"/>
      <path id="Path_2548" data-name="Path 2548" d="M499.878,134.348l-1.346-29.62-2.116,4.616.385,25.966Z" transform="translate(-364.493 -101.014)" fill="#21dc72"/>
      <path id="Path_2549" data-name="Path 2549" d="M664.247,239.312l-3.577-1.347L549.612,240.85,545,238.734l1.923,13.079,88.218-9.4Z" transform="translate(-400.163 -198.844)" fill="#21dc72"/>
      <path id="Path_2550" data-name="Path 2550" d="M641,259.2l-.547-4.5-88.218,9.4.481,6.636Z" transform="translate(-405.477 -211.134)" fill="#3f3d56"/>
      <ellipse id="Ellipse_8" data-name="Ellipse 8" cx="9.136" cy="9.713" rx="9.136" ry="9.713" transform="translate(167.048 41.91)" fill="#3f3d56"/>
      <ellipse id="Ellipse_9" data-name="Ellipse 9" cx="6.732" cy="6.732" rx="6.732" ry="6.732" transform="translate(169.452 43.16)" fill="#21dc72"/>
      <path id="Path_2551" data-name="Path 2551" d="M472.552,176.7l-.437,3.217-.227,17.318a17.5,17.5,0,0,1-.465,3.8,16.848,16.848,0,0,1-5.716,9.24,15.392,15.392,0,0,1-10.994,3.5C442.018,213,440.9,202.2,440.9,202.2l.479-19.592.065-2.687.577-4.848s1.539-13.656,15.772-13.271,14.762,14.9,14.762,14.9Z" transform="translate(-323.728 -142.912)" fill="#21dc72"/>
      <path id="Path_2552" data-name="Path 2552" d="M456.7,184.96l2.885-4.616,3.654-1.154h12.5l3.077,1.154,2.793,4.616-5.1-2.308H462.2Z" transform="translate(-335.329 -155.688)" fill="#e6e6e6"/>
      <g id="Group_171" data-name="Group 171" transform="translate(129.726 62.459)">
        <path id="Path_2553" data-name="Path 2553" d="M494.554,325.785l.493,13.079h-1.2v1.481H497.2v-1.481h-.979l.07-13.079Z" transform="translate(-492.333 -325.785)" fill="#3f3d56"/>
        <path id="Path_2554" data-name="Path 2554" d="M489.077,367.108h0a.925.925,0,0,1,.925.925v3.825a.925.925,0,0,1-.925.925h0a.925.925,0,0,1-.925-.925v-3.825A.925.925,0,0,1,489.077,367.108Z" transform="translate(-488.152 -356.126)" fill="#3f3d56"/>
        <path id="Path_2555" data-name="Path 2555" d="M506.72,367.108h0a.925.925,0,0,1,.925.925v3.825a.925.925,0,0,1-.925.925h0a.925.925,0,0,1-.925-.925v-3.825A.925.925,0,0,1,506.72,367.108Z" transform="translate(-501.106 -356.126)" fill="#3f3d56"/>
      </g>
      <rect id="Rectangle_30" data-name="Rectangle 30" width="9.929" height="0.531" transform="translate(125.709 30.235) rotate(-74.477)" fill="#21dc72"/>
      <rect id="Rectangle_31" data-name="Rectangle 31" width="0.532" height="9.929" transform="translate(139.896 22.296) rotate(-11.117)" fill="#21dc72"/>
      <ellipse id="Ellipse_10" data-name="Ellipse 10" cx="3.455" cy="3.455" rx="3.455" ry="3.455" transform="translate(191.716 0)" fill="#21dc72"/>
      <ellipse id="Ellipse_11" data-name="Ellipse 11" cx="3.455" cy="3.455" rx="3.455" ry="3.455" transform="translate(96.096 11.308)" fill="#21dc72"/>
      <path id="Path_2556" data-name="Path 2556" d="M80.244,389.413c0,.18.2.324.453.324h77.738c.251,0,.453-.144.453-.324s-.2-.324-.453-.324H80.7c-.251,0-.453.144-.453.324Z" transform="translate(-58.919 -309.806)" fill="#e6e6e6"/>
      <ellipse id="Ellipse_12" data-name="Ellipse 12" cx="3.455" cy="3.455" rx="3.455" ry="3.455" transform="translate(48.743 75.739)" fill="#21dc72"/>
    </g>
    <g id="undraw_travel_mode_re_2lxo" transform="translate(11379.479 5637.366)">
      <path id="Path_2518" data-name="Path 2518" d="M677.311,409.235a2,2,0,0,0,1.51-3.682l-4.253-4.825-3.6.777,5.06,4.956a1.993,1.993,0,0,0,1.281,2.774Z" transform="translate(-603.14 -371.85)" fill="#a0616a"/>
      <path id="Path_2519" data-name="Path 2519" d="M440.016,99.223l10.6,13.307,3.231-1.484-12.46-19.4Z" transform="translate(-379.839 -79.113)" fill="#3f3d56"/>
      <path id="a9adb9ea-63bd-4fab-ab8c-5a8362c24c0e" d="M933.16,621.7a4.108,4.108,0,0,0-.523-4.106,12.1,12.1,0,0,0-3.242-2.862l-1.661-1.144.793,3.981a6.165,6.165,0,0,0,1.649,3.682,3.108,3.108,0,0,0,3,.529" transform="translate(-824.788 -555.596)" fill="#e6e6e6"/>
      <path id="ed5b34f6-0534-4519-a094-dcdf83ab50dc" d="M951.484,658.525a.12.12,0,0,1-.147.083.123.123,0,0,1-.083-.147c.093-.674.184-1.349.228-2.028a7.729,7.729,0,0,0-.41-3.333,4.828,4.828,0,0,0-1.91-2.3c-.13-.082-.01-.288.121-.206a5.077,5.077,0,0,1,1.3,1.181,5.822,5.822,0,0,1,1.123,3.053,16.072,16.072,0,0,1-.223,3.7Z" transform="translate(-843.238 -587.524)" fill="#f2f2f2"/>
      <path id="e0867f2b-861c-49f4-a2d1-8ca31a29fe8f" d="M842.9,653.44c5.232,3.22,3.488,7.513,3.488,7.513Z" transform="translate(-751.559 -590.001)" fill="#e6e6e6"/>
      <path id="b461d634-05fb-4647-ba4f-16823402cab1" d="M888.742,685.62c-4.118-.026-4.65,3.034-4.65,3.034Z" transform="translate(-787.115 -617.78)" fill="#e6e6e6"/>
      <ellipse id="Ellipse_2" data-name="Ellipse 2" cx="1.163" cy="1.163" rx="1.163" ry="1.163" transform="translate(34.031 68.88)" fill="#3f3d56"/>
      <path id="Path_2520" data-name="Path 2520" d="M432.177,465.445s2.748-8.35,2.96-8.932,2.431.37,3.013.529a.59.59,0,0,1,.423.74l-2.96,8.562.9.423,2.748-8.615c1.586-1.638.423-1.744.423-1.744a32.205,32.205,0,0,0-4.651-1.268c-1.268-.106-.793,1.427-.793,1.427l-3.065,8.139Z" transform="translate(-396.138 -418.816)" fill="#3f3d56"/>
      <path id="Path_2521" data-name="Path 2521" d="M345.376,516.019h0a3.3,3.3,0,0,0-1.585-1.215l-.079-.029c-1.456-.509-11.6-3.248-11.6-3.248a2.289,2.289,0,0,0-2.907,1.268c-.9,2.008-6.236,18.657-6.236,18.657s10.44,5.583,13.484,6.191a1.838,1.838,0,0,0,.574.045,8.1,8.1,0,0,0,1.521-.363,6.366,6.366,0,0,0,1.545-.747l5.919-17.705S346.856,516.917,345.376,516.019Z" transform="translate(-302.731 -467.381)" fill="#6c63ff"/>
      <path id="Path_2522" data-name="Path 2522" d="M430.487,537.362h0a3.3,3.3,0,0,0-1.585-1.215l-.079-.028a7.224,7.224,0,0,1,.661,2.143s-5.814,17.282-6.342,18.921a2.665,2.665,0,0,1-1.579,1.8,1.839,1.839,0,0,0,.574.045,8.1,8.1,0,0,0,1.521-.363,3.379,3.379,0,0,0,.382-.535s5.919-17.705,6.448-18.551A2.97,2.97,0,0,0,430.487,537.362Z" transform="translate(-387.842 -488.725)" fill="#3f3d56"/>
      <ellipse id="Ellipse_3" data-name="Ellipse 3" cx="1.163" cy="1.163" rx="1.163" ry="1.163" transform="translate(30.463 68.906)" fill="#3f3d56"/>
      <ellipse id="Ellipse_4" data-name="Ellipse 4" cx="1.163" cy="1.163" rx="1.163" ry="1.163" transform="translate(19.179 64.017)" fill="#3f3d56"/>
      <path id="Path_2523" data-name="Path 2523" d="M457.131,416.111a2,2,0,0,1-1.64-3.626l4.079-4.974,3.623.649-4.88,5.133a1.993,1.993,0,0,1-1.182,2.818Z" transform="translate(-416.294 -377.706)" fill="#a0616a"/>
      <path id="Path_2524" data-name="Path 2524" d="M501.866,440.6l2.526-.04-.3,8.611h-2.222Z" transform="translate(-433.23 -380.305)" fill="#a0616a"/>
      <path id="Path_2525" data-name="Path 2525" d="M672.724,687.794H677.1a2.789,2.789,0,0,1,2.789,2.789v.091h-7.166Z" transform="translate(-604.654 -619.657)" fill="#2f2e41"/>
      <path id="Path_2526" data-name="Path 2526" d="M350.319,424.146l2.76,1.772-5.521,6.642-1.87-1.2Z" transform="translate(-298.411 -366.139)" fill="#a0616a"/>
      <path id="Path_2527" data-name="Path 2527" d="M510.246,659.762l3.683,2.364h0a2.789,2.789,0,0,1,.84,3.854l-.049.076-6.03-3.871Z" transform="translate(-463.054 -595.459)" fill="#2f2e41"/>
      <path id="Path_2528" data-name="Path 2528" d="M535.257,291.093s6.132-20.368,8.1-20.643,5.146,5.226,5.146,5.226c4.117,5.253,8.362,22.268,8.362,22.268s-7.077.443-12.25,3.2S533.34,301,533.34,301Z" transform="translate(-484.333 -259.381)" fill="#3f3d56"/>
      <path id="Path_2529" data-name="Path 2529" d="M535.257,291.093s6.132-20.367,8.1-20.643,4.34,5.282,4.34,5.282c2.051,8.479,9.169,22.212,9.169,22.212s-7.077.443-12.25,3.2S533.34,301,533.34,301Z" transform="translate(-484.333 -259.382)" opacity="0.1"/>
      <path id="Path_2530" data-name="Path 2530" d="M363.562,178.355v10.235l-1.2,14.826-6.018,11.214,2.872,2.051,8.206-10.667,3.245-10.592,5.1,23.448,3.829-.274-2.659-32.51-5.047-9.151Z" transform="translate(-307.606 -152.737)" fill="#2f2e41"/>
      <path id="Path_2531" data-name="Path 2531" d="M570.642,275.162a2.887,2.887,0,0,1,.137,3.966l2.188,4.923-8.616,2.325-3.011-13.454,2.051-2.188a29.244,29.244,0,0,0,4.105-.222A51.328,51.328,0,0,1,570.642,275.162Z" transform="translate(-508.503 -259.443)" fill="#ccc"/>
      <path id="Path_2532" data-name="Path 2532" d="M520.051,273.44h0a3.676,3.676,0,0,0-1.064,4.695,12.853,12.853,0,0,1,1.5,8.007c-.991,5.8-4.167,10.2-5.936,11.62a1.724,1.724,0,0,0-.547,1.725,5.137,5.137,0,0,0,2.613,3.4.624.624,0,0,0,.2.032c1.568,0,5.423-4.992,9.854-14.744a13.377,13.377,0,0,0-1.409-13.96,3.677,3.677,0,0,0-5.166-.809Z" transform="translate(-467.609 -261.32)" fill="#3f3d56"/>
      <path id="Path_2533" data-name="Path 2533" d="M314.081,100.807l-12.443,16.326-3.282-1.368,11.762-19.83Z" transform="translate(-257.552 -82.815)" fill="#3f3d56"/>
      <path id="Path_2534" data-name="Path 2534" d="M557.116,198.873h-8.558a.665.665,0,0,1-.664-.664V194.52h0a4.943,4.943,0,1,1,9.886,0v3.689A.665.665,0,0,1,557.116,198.873Z" transform="translate(-496.896 -189.577)" fill="#2f2e41"/>
      <ellipse id="Ellipse_5" data-name="Ellipse 5" cx="3.624" cy="3.624" rx="3.624" ry="3.624" transform="translate(52.038 7.028) rotate(-61.337)" fill="#a0616a"/>
      <path id="Path_2535" data-name="Path 2535" d="M574.713,203.272H569.48l-.054-.751-.268.751h-.806l-.106-1.489-.532,1.489h-1.559V203.2a3.915,3.915,0,0,1,3.91-3.91h.738a3.915,3.915,0,0,1,3.91,3.91Z" transform="translate(-512.66 -197.96)" fill="#2f2e41"/>
      <path id="Path_2536" data-name="Path 2536" d="M565.227,218.279a.676.676,0,0,1-.117-.01l-3.832-.676v-6.333H565.5l-.1.122c-1.453,1.695-.358,4.442.424,5.93a.654.654,0,0,1-.052.695A.662.662,0,0,1,565.227,218.279Z" transform="translate(-508.449 -208.294)" fill="#2f2e41"/>
      <path id="Path_2537" data-name="Path 2537" d="M175,708.559a.137.137,0,0,1,.137-.137H291.111a.137.137,0,0,1,0,.274H175.137A.137.137,0,0,1,175,708.559Z" transform="translate(-175 -637.464)" fill="#cbcbcb"/>
    </g>
  </g>
</svg>
