<?xml version="1.0" encoding="UTF-8"?>
<svg version="1.1" xmlns="http://www.w3.org/2000/svg" width="160" height="160">
<path d="M0 0 C52.8 0 105.6 0 160 0 C160 52.8 160 105.6 160 160 C107.2 160 54.4 160 0 160 C0 107.2 0 54.4 0 0 Z " fill="#7F55B2" transform="translate(0,0)"/>
<path d="M0 0 C3.34265205 1.20706879 3.94704566 1.92056849 6 5 C6.42731796 9.51885831 5.62104356 12.45499449 3.69921875 16.51953125 C0.81806843 23.10545294 -0.76756553 29.65904237 -2.1875 36.6875 C-2.44233154 37.92209961 -2.69716309 39.15669922 -2.9597168 40.42871094 C-5.90276734 55.01675347 -7.2383716 69.19190793 -7.5715332 84.06933594 C-7.61346802 85.54708496 -7.61346802 85.54708496 -7.65625 87.0546875 C-7.67494141 87.93624512 -7.69363281 88.81780273 -7.71289062 89.72607422 C-8 92 -8 92 -10 95 C-13.89458105 96.20866308 -16.29475846 96.86769658 -19.98828125 94.98828125 C-32.91954508 84.70028177 -39.12961589 66.79990488 -45 52 C-45.38220703 52.78536133 -45.76441406 53.57072266 -46.15820312 54.37988281 C-47.61265568 57.35792256 -49.07483143 60.33192362 -50.54199219 63.30371094 C-51.16935978 64.5782712 -51.79382319 65.85426606 -52.41503906 67.13183594 C-63.55375664 90.02208079 -63.55375664 90.02208079 -72 96 C-74.5 96.6875 -74.5 96.6875 -77 96 C-81.87145164 90.35567383 -83.63933299 84.63668436 -85.5 77.5 C-85.79624268 76.39849609 -86.09248535 75.29699219 -86.39770508 74.16210938 C-90.4780751 58.74517198 -93.73987107 43.23735243 -96.3125 27.5 C-96.48418701 26.45521484 -96.65587402 25.41042969 -96.83276367 24.33398438 C-99.00805599 10.4357161 -99.00805599 10.4357161 -95.9375 6.0625 C-93 4 -93 4 -89.5 3.375 C-85.02617003 4.17389821 -83.84246 5.49765206 -81 9 C-80.19764202 11.67818533 -79.6799269 13.95602477 -79.3046875 16.6875 C-79.18570099 17.42645508 -79.06671448 18.16541016 -78.94412231 18.92675781 C-78.56849718 21.28196861 -78.22067481 23.64022552 -77.875 26 C-77.40070602 29.08451973 -76.91528997 32.16724367 -76.4296875 35.25 C-76.31429626 35.99950928 -76.19890503 36.74901855 -76.08001709 37.52124023 C-75.19317694 43.16007968 -73.98747634 48.67501157 -72.55517578 54.203125 C-71.96036147 57.19969175 -71.90477346 59.95275077 -72 63 C-71.34 63 -70.68 63 -70 63 C-69.73735352 62.14116211 -69.47470703 61.28232422 -69.20410156 60.39746094 C-67.97626283 56.93302383 -66.47448116 53.87611977 -64.734375 50.640625 C-64.41849426 50.05134216 -64.10261353 49.46205933 -63.77716064 48.85491943 C-63.11035726 47.61333506 -62.44127159 46.37297396 -61.77001953 45.13378906 C-60.76178551 43.27176568 -59.76116562 41.40581428 -58.76171875 39.5390625 C-48.13558822 19.75705881 -48.13558822 19.75705881 -44 17 C-37.77591767 16.44427836 -37.77591767 16.44427836 -35.38867188 18.15405273 C-33.53846198 20.61351776 -33.01517429 22.86094131 -32.28125 25.84765625 C-31.84232422 27.59272461 -31.84232422 27.59272461 -31.39453125 29.37304688 C-31.09933594 30.59056641 -30.80414063 31.80808594 -30.5 33.0625 C-29.90805495 35.44966705 -29.31433169 37.83639392 -28.71875 40.22265625 C-28.43386719 41.36750488 -28.14898437 42.51235352 -27.85546875 43.69189453 C-26.69784972 48.16841789 -25.38545245 52.58926241 -24 57 C-23.89977539 56.32122803 -23.79955078 55.64245605 -23.69628906 54.94311523 C-17.24125907 11.70831971 -17.24125907 11.70831971 -8.5625 1.75 C-5.39073983 -0.41608012 -3.77048502 -0.5615616 0 0 Z " fill="#FCFAFD" transform="translate(126,32)"/>
<path d="M0 0 C0.66 0 1.32 0 2 0 C2 2.64 2 5.28 2 8 C-0.64 8 -3.28 8 -6 8 C-6 7.34 -6 6.68 -6 6 C-4.68 6 -3.36 6 -2 6 C-2 5.34 -2 4.68 -2 4 C-1.34 4 -0.68 4 0 4 C0 2.68 0 1.36 0 0 Z " fill="#6D6872" transform="translate(158,152)"/>
<path d="M0 0 C2.64 0 5.28 0 8 0 C8 2.64 8 5.28 8 8 C7.34 8 6.68 8 6 8 C6 6.68 6 5.36 6 4 C5.34 4 4.68 4 4 4 C4 3.34 4 2.68 4 2 C2.68 2 1.36 2 0 2 C0 1.34 0 0.68 0 0 Z " fill="#6D6873" transform="translate(152,0)"/>
<path d="M0 0 C0.66 0 1.32 0 2 0 C0.55049545 3.7910119 -1.15172566 7.3874638 -3 11 C-3.66 11 -4.32 11 -5 11 C-5.33 8.03 -5.66 5.06 -6 2 C-5.01 2.495 -5.01 2.495 -4 3 C-4 3.99 -4 4.98 -4 6 C-3.34 6 -2.68 6 -2 6 C-1.855625 5.38125 -1.71125 4.7625 -1.5625 4.125 C-1 2 -1 2 0 0 Z " fill="#8468A7" transform="translate(59,84)"/>
<path d="M0 0 C0.66 0 1.32 0 2 0 C2.33 1.98 2.66 3.96 3 6 C4.65 6 6.3 6 8 6 C8 6.66 8 7.32 8 8 C5.36 8 2.72 8 0 8 C0 5.36 0 2.72 0 0 Z " fill="#6E6972" transform="translate(0,152)"/>
<path d="M0 0 C1.98 0 3.96 0 6 0 C5.34 1.32 4.68 2.64 4 4 C3.34 4 2.68 4 2 4 C2 5.32 2 6.64 2 8 C1.34 8 0.68 8 0 8 C0 5.36 0 2.72 0 0 Z " fill="#6E6971" transform="translate(0,0)"/>
<path d="M0 0 C2 2 2 2 2 5 C1.01 5.495 1.01 5.495 0 6 C-0.33 6.66 -0.66 7.32 -1 8 C-1.99 7.67 -2.98 7.34 -4 7 C-2.68 4.69 -1.36 2.38 0 0 Z " fill="#8869AB" transform="translate(81,83)"/>
</svg>
