<?xml version="1.0" encoding="UTF-8"?>
<svg version="1.1" xmlns="http://www.w3.org/2000/svg" width="258" height="326">
<path d="M0 0 C1.06605469 0.3403125 2.13210937 0.680625 3.23046875 1.03125 C26.7289485 9.34134559 44.40000891 24.72733377 55.31811523 47.12548828 C61.04383342 59.27343421 63.19050422 69.58370101 63.25 83 C63.2809375 84.74410156 63.2809375 84.74410156 63.3125 86.5234375 C63.36141145 97.21059036 63.36141145 97.21059036 60 102 C54.22423012 107.47957656 48.84457861 107.35502655 41.13671875 107.27734375 C37.02679197 106.91395047 34.95096804 105.8753022 32 103 C27.60167692 97.57716793 26.36960206 91.68529014 24.6875 85 C20.11663798 67.9164955 14.18368009 52.9757755 -1.75 43.5625 C-14.22047181 36.66049762 -27.28208081 35.19157623 -40.921875 38.96875 C-53.72407539 43.25781206 -64.16057285 50.46880934 -70.75390625 62.44140625 C-80.75422516 82.97497643 -78.18674776 106.28257341 -78.23828125 128.6015625 C-78.24234174 130.11373281 -78.24645898 131.62590296 -78.25063133 133.13807297 C-78.2695782 140.23832151 -78.28384056 147.33856024 -78.2922433 154.43882906 C-78.30203115 162.56786355 -78.32843533 170.69662692 -78.36874419 178.82556593 C-78.39905781 185.16073583 -78.41372576 191.49582844 -78.41702431 197.83106935 C-78.41935358 201.59292392 -78.4280356 205.35448531 -78.45348549 209.11626053 C-79.22031555 237.06265726 -79.22031555 237.06265726 -68 262 C-66.9171875 263.05960937 -66.9171875 263.05960937 -65.8125 264.140625 C-64 266 -64 266 -64 268 C-63.34 268 -62.68 268 -62 268 C-62 268.66 -62 269.32 -62 270 C-61.41089844 270.28101563 -60.82179687 270.56203125 -60.21484375 270.8515625 C-58.18803078 271.90250256 -56.42952995 273.0693265 -54.5625 274.375 C-42.28183493 281.94096733 -27.36784644 283.00377488 -13.40234375 280.3046875 C-10.45560479 279.39975347 -7.77604075 278.33583916 -5 277 C-4.13246094 276.5875 -3.26492187 276.175 -2.37109375 275.75 C11.92451128 268.06747638 16.88516794 255.55234117 22.15625 241.08203125 C22.54296875 240.02967285 22.9296875 238.97731445 23.328125 237.89306641 C24.09143006 235.80510902 24.84210272 233.71247626 25.578125 231.61474609 C28.26858203 224.18308964 31.29009447 216.60482729 37.9375 211.9375 C42.98920421 210.39105993 46.60880638 210.54426416 51.625 212.1875 C58.4501077 215.85283562 61.75386903 220.7415669 64 228 C67.83062294 245.92835772 60.31267859 265.94271891 51 281 C36.60920967 302.59246969 15.33385903 316.63200243 -10 322 C-36.65071471 326.43145605 -62.89368208 319.60347489 -84.671875 304.09765625 C-103.61574504 289.71325804 -114.78070403 269.47554024 -118 246 C-118.94678525 237.6883031 -119.49534018 229.34833514 -120 221 C-120.05929688 220.06397949 -120.11859375 219.12795898 -120.1796875 218.16357422 C-120.6434574 210.44649828 -120.85134477 202.72880304 -121 195 C-121.01673767 194.18905884 -121.03347534 193.37811768 -121.05072021 192.54260254 C-121.61634328 164.17168895 -120.89355735 135.93764249 -119.31838608 107.61474228 C-119.18866287 105.27100977 -119.06241065 102.9271099 -118.93667603 100.5831604 C-118.7344899 96.84627531 -118.5191431 93.11035435 -118.29367447 89.37480354 C-118.17320202 87.35343243 -118.06124552 85.3315592 -117.94967651 83.30967712 C-116.34075489 58.03060995 -109.08953752 36.5039043 -90 19 C-65.57237862 -0.75130092 -30.50326882 -9.81168699 0 0 Z " fill="#EC6743" transform="translate(121,3)"/>
<path d="M0 0 C5.79948515 4.29161901 8.00994183 9.32752817 9.125 16.3125 C9.41032132 20.97469369 9.39829142 25.62687292 9.38378906 30.29663086 C9.38650309 31.70191122 9.39006633 33.10719016 9.39440918 34.51246643 C9.40348732 38.31003236 9.40000768 42.107489 9.39365101 45.90505672 C9.38856624 49.89134296 9.39328942 53.87762022 9.39642334 57.86390686 C9.40005621 64.55764434 9.39528218 71.2513376 9.38574219 77.94506836 C9.37486339 85.66699042 9.37838177 93.3888068 9.389395 101.1107263 C9.39849258 107.75726691 9.39974096 114.40377585 9.39451766 121.05032068 C9.39141095 125.01264428 9.39095263 128.97491834 9.39759064 132.93723869 C9.40339936 136.66456572 9.39930319 140.39175752 9.38780212 144.11907005 C9.38392775 146.1270975 9.38981134 148.13513649 9.39605713 150.14315796 C9.35344797 159.30355656 9.27833151 167.96268736 3.125 175.3125 C-3.40240694 180.2413583 -8.85109878 181.12985579 -16.875 180.3125 C-22.7151887 177.50055729 -26.76692859 172.91646782 -29.28125 167.0078125 C-29.82265625 165.24050781 -29.82265625 165.24050781 -30.375 163.4375 C-30.57875244 162.79329102 -30.78250488 162.14908203 -30.99243164 161.48535156 C-32.06996336 158.05808151 -33.08112273 154.6120839 -34.08984375 151.1640625 C-38.41613157 136.53378524 -44.19155047 123.31460352 -58.0859375 115.6328125 C-71.97377059 109.05846014 -86.30812792 108.31664134 -100.875 113.3125 C-107.94081738 116.48155431 -113.42904046 119.80981171 -118.875 125.3125 C-119.535 125.3125 -120.195 125.3125 -120.875 125.3125 C-121.15601563 125.89644531 -121.43703125 126.48039063 -121.7265625 127.08203125 C-123.12363628 129.79539563 -124.77459013 132.28381804 -126.4609375 134.82421875 C-130.42281363 141.7958074 -132.48653694 148.36150357 -133.75 156.25 C-135.25725384 164.53037582 -136.94840475 171.94251527 -143.5 177.75390625 C-147.81126259 180.61810154 -152.77358514 181.6701952 -157.875 181.3125 C-163.55945471 179.76136469 -167.76837475 177.45038023 -170.875 172.3125 C-173.84670753 166.14895847 -174.99636528 161.02916489 -175.01544189 154.22906494 C-175.02400711 152.39556488 -175.02400711 152.39556488 -175.03274536 150.52502441 C-175.03399055 149.1784669 -175.03511568 147.83190927 -175.03613281 146.48535156 C-175.04076449 145.06081006 -175.04578962 143.6362698 -175.05117798 142.21173096 C-175.06427061 138.34791006 -175.07074084 134.48410652 -175.07518864 130.62026691 C-175.07812454 128.20350475 -175.08223033 125.78674728 -175.08669281 123.36998749 C-175.10035972 115.80037593 -175.11003022 108.23077516 -175.1138947 100.66115212 C-175.11837308 91.93824585 -175.13591408 83.21549646 -175.1648953 74.49263787 C-175.18654782 67.74000743 -175.19660089 60.98742101 -175.19793582 54.23475623 C-175.19898133 50.20639235 -175.20483473 46.17817611 -175.22275543 42.14984894 C-175.23929797 38.35769218 -175.24136188 34.56579307 -175.23261642 30.77361298 C-175.23184933 29.38735766 -175.23614522 28.00108813 -175.24607468 26.61486816 C-175.36016357 9.68479612 -175.36016357 9.68479612 -170.15625 3.15625 C-169.5684375 2.7128125 -168.980625 2.269375 -168.375 1.8125 C-167.7871875 1.3484375 -167.199375 0.884375 -166.59375 0.40625 C-162.74322341 -2.0440851 -159.01009959 -1.91641504 -154.5625 -2 C-153.26699219 -2.03738281 -151.97148437 -2.07476562 -150.63671875 -2.11328125 C-145.56499119 -1.53922278 -142.75929634 0.05666615 -139.47460938 3.98901367 C-135.81382837 9.26583328 -134.68668068 14.57731412 -133.5625 20.8125 C-130.21283135 37.23592677 -123.82271758 51.17874347 -109.6015625 60.73828125 C-97.68981761 67.6156927 -83.98202437 69.18346483 -70.625 66.125 C-56.09702069 61.94387068 -45.30706725 53.08427527 -37.578125 40.140625 C-33.82445904 32.86500085 -32.30054634 25.08297332 -30.74975586 17.10498047 C-29.25089321 9.74316694 -26.92272763 4.1506821 -20.875 -0.6875 C-14.08253826 -3.54033393 -6.59672853 -3.38330069 0 0 Z " fill="#EE8C4F" transform="translate(248.875,73.6875)"/>
<path d="M0 0 C1.06605469 0.3403125 2.13210937 0.680625 3.23046875 1.03125 C26.7289485 9.34134559 44.40000891 24.72733377 55.31811523 47.12548828 C61.04383342 59.27343421 63.19050422 69.58370101 63.25 83 C63.2809375 84.74410156 63.2809375 84.74410156 63.3125 86.5234375 C63.36141145 97.21059036 63.36141145 97.21059036 60 102 C54.22423012 107.47957656 48.84457861 107.35502655 41.13671875 107.27734375 C37.02679197 106.91395047 34.95096804 105.8753022 32 103 C27.60167692 97.57716793 26.36960206 91.68529014 24.6875 85 C20.11663798 67.9164955 14.18368009 52.9757755 -1.75 43.5625 C-14.22047181 36.66049762 -27.28208081 35.19157623 -40.921875 38.96875 C-53.72407539 43.25781206 -64.16057285 50.46880934 -70.75390625 62.44140625 C-74.76800343 70.68351801 -77.0736481 77.86219715 -77.52734375 87.0234375 C-77.58933205 88.20756729 -77.58933205 88.20756729 -77.65257263 89.4156189 C-78.10653742 98.48098075 -78.34178904 107.55152728 -78.5625 116.625 C-78.60587416 118.32552712 -78.64949302 120.02604801 -78.69335938 121.7265625 C-78.79837566 125.81764257 -78.90014393 129.90879087 -79 134 C-79.73637695 133.99476318 -80.47275391 133.98952637 -81.23144531 133.98413086 C-84.57095485 133.96333133 -87.91045074 133.95033032 -91.25 133.9375 C-92.40886719 133.92912109 -93.56773438 133.92074219 -94.76171875 133.91210938 C-95.87675781 133.90888672 -96.99179688 133.90566406 -98.140625 133.90234375 C-99.16704102 133.89710693 -100.19345703 133.89187012 -101.25097656 133.88647461 C-103.68836805 133.98713065 -105.67143259 134.32573687 -108 135 C-109.99789845 135.24583516 -111.99555619 135.43709207 -114 135.62109375 C-116.265551 136.05030947 -117.96368113 136.9396824 -120 138 C-120.23929078 125.62144995 -119.6040288 113.3125641 -118.88305664 100.95776367 C-118.68811926 97.57325157 -118.50887659 94.18813248 -118.33007812 90.80273438 C-116.76267961 62.72846242 -111.61443318 38.81907468 -90 19 C-65.57237862 -0.75130092 -30.50326882 -9.81168699 0 0 Z " fill="#EB8E2F" transform="translate(121,3)"/>
<path d="M0 0 C1.57667788 0.46248855 3.15252517 0.92780916 4.72802734 1.39428711 C5.60566742 1.65310165 6.4833075 1.9119162 7.38754272 2.17857361 C11.24870611 3.39262658 14.93136727 4.91489924 18.625 6.5625 C19.39424805 6.90547119 20.16349609 7.24844238 20.95605469 7.60180664 C30.35666546 11.92118863 38.92671203 17.51464854 47.44140625 23.35546875 C59.34008775 31.42275071 72.3513707 36.61445912 86 41 C86 41.33 86 41.66 86 42 C85.28457031 42.13535156 84.56914062 42.27070313 83.83203125 42.41015625 C72.908901 44.77000457 63.87831952 49.02577051 56 57 C55.34 57 54.68 57 54 57 C53.71898437 57.58394531 53.43796875 58.16789062 53.1484375 58.76953125 C51.75136372 61.48289563 50.10040987 63.97131804 48.4140625 66.51171875 C44.45218637 73.4833074 42.38846306 80.04900357 41.125 87.9375 C39.61774616 96.21787582 37.92659525 103.63001527 31.375 109.44140625 C27.06373741 112.30560154 22.10141486 113.3576952 17 113 C11.31554529 111.44886469 7.10662525 109.13788023 4 104 C0.52255205 96.78751537 -0.14703811 90.83832937 -0.11352539 82.98706055 C-0.11367142 82.08900192 -0.11381744 81.1909433 -0.1139679 80.26567078 C-0.11327287 77.30599528 -0.10549965 74.34638321 -0.09765625 71.38671875 C-0.09579061 69.33120254 -0.0943674 67.27568588 -0.09336853 65.22016907 C-0.08955482 59.81642423 -0.0797343 54.41270637 -0.06866455 49.00897217 C-0.0584258 43.49231328 -0.05386563 37.97565003 -0.04882812 32.45898438 C-0.03811102 21.63931108 -0.02104834 10.81965779 0 0 Z " fill="#EC7837" transform="translate(74,142)"/>
<path d="M0 0 C0.99 0 1.98 0 3 0 C3.04649356 8.97141262 3.08195527 17.94278328 3.10362434 26.91429043 C3.11402832 31.08084326 3.12812512 35.24731321 3.15087891 39.41381836 C3.17272875 43.44034189 3.18459405 47.46678606 3.18975449 51.49336433 C3.19342856 53.02382721 3.20060271 54.55428611 3.21146011 56.08471489 C3.35661195 77.40738017 3.35661195 77.40738017 -3 85 C-9.52740694 89.9288583 -14.97609878 90.81735579 -23 90 C-28.8401887 87.18805729 -32.89192859 82.60396782 -35.40625 76.6953125 C-35.7671875 75.51710938 -36.128125 74.33890625 -36.5 73.125 C-36.70375244 72.48079102 -36.90750488 71.83658203 -37.11743164 71.17285156 C-38.19496336 67.74558151 -39.20612273 64.2995839 -40.21484375 60.8515625 C-44.70881574 45.65422499 -50.51821049 33.09108828 -64.86328125 25.2265625 C-67 24 -67 24 -69 22 C-68.37134033 21.93006836 -67.74268066 21.86013672 -67.0949707 21.78808594 C-55.3185997 20.44812385 -44.18136499 19.04629507 -33 15 C-32.02546875 14.70351562 -31.0509375 14.40703125 -30.046875 14.1015625 C-21.85899779 11.59375718 -14.56952654 7.94971663 -7 4 C-5.89398438 3.45472656 -4.78796875 2.90945312 -3.6484375 2.34765625 C-1.1401366 1.24331241 -1.1401366 1.24331241 0 0 Z " fill="#EB8428" transform="translate(255,164)"/>
<path d="M0 0 C7.36842105 -0.49122807 7.36842105 -0.49122807 10.25 1.75 C10.8275 2.4925 11.405 3.235 12 4 C12.70125 4.639375 13.4025 5.27875 14.125 5.9375 C16.16593474 8.18252821 17.04698027 10.14094082 18 13 C17.5153125 12.62488281 17.030625 12.24976563 16.53125 11.86328125 C12.36912963 8.68566243 8.15964365 5.76472728 3.6640625 3.078125 C2 2 2 2 0 0 Z " fill="#E99C13" transform="translate(186,186)"/>
</svg>
