<?xml version="1.0" encoding="UTF-8"?>
<svg version="1.1" xmlns="http://www.w3.org/2000/svg" width="413" height="85">
<path d="M0 0 C4.29 0 8.58 0 13 0 C13 8.25 13 16.5 13 25 C19.6 25 26.2 25 33 25 C33 16.75 33 8.5 33 0 C36.96 0 40.92 0 45 0 C45 20.79 45 41.58 45 63 C41.04 63 37.08 63 33 63 C33 54.75 33 46.5 33 38 C26.4 38 19.8 38 13 38 C13 46.25 13 54.5 13 63 C8.71 63 4.42 63 0 63 C0 42.21 0 21.42 0 0 Z " fill="#EA8F38" transform="translate(299,11)"/>
<path d="M0 0 C2.14186363 1.3485808 4.2690332 2.72102213 6.375 4.125 C6.375 4.785 6.375 5.445 6.375 6.125 C7.035 6.125 7.695 6.125 8.375 6.125 C12.18073507 12.42824871 13.44361755 17.74408344 12.375 25.125 C11.715 25.785 11.055 26.445 10.375 27.125 C6.75 26.75 6.75 26.75 3.375 26.125 C3.07207031 25.22136719 2.76914062 24.31773438 2.45703125 23.38671875 C2.03808594 22.20722656 1.61914062 21.02773438 1.1875 19.8125 C0.78144531 18.64074219 0.37539063 17.46898437 -0.04296875 16.26171875 C-2.17991961 12.02475199 -4.63412536 10.87830392 -8.9375 9.25 C-12.93484557 9.06407695 -16.15495895 10.16039975 -19.625 12.125 C-22.79631855 16.11472333 -23.73602999 20.13949362 -23.78613281 25.15576172 C-23.79574036 25.93692352 -23.8053479 26.71808533 -23.81524658 27.5229187 C-23.8216214 28.77614426 -23.8216214 28.77614426 -23.828125 30.0546875 C-23.83382507 30.92263947 -23.83952515 31.79059143 -23.84539795 32.68484497 C-23.85483108 34.51888821 -23.86137522 36.35294828 -23.86523438 38.18701172 C-23.87494116 40.98304985 -23.90598064 43.77835295 -23.9375 46.57421875 C-23.94403058 48.35937065 -23.94928084 50.14452779 -23.953125 51.9296875 C-23.9654718 52.76112274 -23.9778186 53.59255798 -23.99053955 54.44918823 C-23.96849123 60.234506 -22.91672865 64.35582788 -19.125 68.9375 C-15.64201288 71.6948648 -11.85988949 71.41706134 -7.625 71.125 C-0.46761567 68.03431131 1.48895 60.84935001 4.375 54.125 C7.1875 53.8125 7.1875 53.8125 10.375 54.125 C12.375 56 12.375 56 13.375 59.125 C12.9304801 67.22065024 9.93757774 72.92238998 4 78.375 C-2.29770223 83.4503634 -8.76391122 83.840661 -16.625 83.125 C-22.8545752 81.75727165 -28.30725191 78.70899385 -31.84765625 73.234375 C-35.39359825 66.57461297 -35.78206693 60.11919536 -35.79296875 52.6484375 C-35.79629715 51.84193756 -35.79962555 51.03543762 -35.80305481 50.20449829 C-35.80809974 48.50173509 -35.81046389 46.79896207 -35.81030273 45.09619141 C-35.81247563 42.52879921 -35.83061962 39.96184682 -35.84960938 37.39453125 C-35.93694687 12.31360616 -35.93694687 12.31360616 -29.625 5.125 C-21.79637705 -2.36324804 -10.05028544 -4.98791944 0 0 Z " fill="#0A0C0F" transform="translate(35.625,1.875)"/>
<path d="M0 0 C2.34400368 2.34400368 2.54411672 3.69775873 3.3125 6.875 C4.29162293 10.25078205 4.89113785 11.87601811 7.25 14.5625 C11.30090145 16.68001667 14.49203919 17.46815268 19.05078125 16.6171875 C21.58218822 15.71141099 23.05573923 14.88247282 25 13 C26.50877275 9.64298064 27.61568929 6.34598132 28.6015625 2.80078125 C30 0 30 0 32.9609375 -1.01953125 C36 -1 36 -1 39 1 C39.38768005 2.89073181 39.38768005 2.89073181 39.40405273 5.21850586 C39.41673691 6.08958481 39.42942108 6.96066376 39.44248962 7.85813904 C39.43955399 8.80085159 39.43661835 9.74356415 39.43359375 10.71484375 C39.4388356 11.68152481 39.44407745 12.64820587 39.44947815 13.6441803 C39.45590907 15.69108112 39.45454757 17.73801885 39.44604492 19.78491211 C39.43754274 22.92172959 39.46626912 26.05672238 39.49804688 29.19335938 C39.49965908 31.17968695 39.49908099 33.16601776 39.49609375 35.15234375 C39.51294472 36.56337624 39.51294472 36.56337624 39.53013611 38.00291443 C39.46072208 44.47175831 39.46072208 44.47175831 37.13085938 47.14306641 C35 48 35 48 32.41015625 47.55859375 C29.20746464 45.48748524 28.67933427 43.63223266 27.4375 40.0625 C25.94884882 35.82319232 25.01712126 33.22270864 21 31 C16.87326665 29.83358878 13.21714982 29.54018784 9.1875 31.0625 C5.32796095 34.48094887 3.29875718 37.7196121 2.125 42.75 C1.75375 43.8225 1.3825 44.895 1 46 C-2.125 47.4375 -2.125 47.4375 -5 48 C-7.35365925 46.31510018 -8.81659058 44.93718203 -9.38500977 42.03268433 C-9.52997462 39.52346417 -9.55415085 37.04072613 -9.53125 34.52734375 C-9.5350769 33.60788467 -9.53890381 32.6884256 -9.54284668 31.74110413 C-9.54556524 29.80029198 -9.53820798 27.85944317 -9.52148438 25.91870117 C-9.50004916 22.944322 -9.52130016 19.97235156 -9.546875 16.99804688 C-9.54423219 15.11197383 -9.53910819 13.22590228 -9.53125 11.33984375 C-9.53934692 10.44917709 -9.54744385 9.55851044 -9.55578613 8.64085388 C-9.46252649 2.5185299 -9.46252649 2.5185299 -7.13085938 -0.09545898 C-4.32810579 -1.28521632 -2.85105834 -0.97536206 0 0 Z " fill="#292B2F" transform="translate(28,19)"/>
<path d="M0 0 C0 4.29 0 8.58 0 13 C-1.340625 12.67 -2.68125 12.34 -4.0625 12 C-10.75800401 10.53306641 -16.53445774 10.43818137 -23 13 C-26.35432648 16.26366901 -28.03377091 19.43237159 -29 24 C-29 29.15611772 -28.59774671 33.08940575 -25 37 C-25 37.66 -25 38.32 -25 39 C-16.64018595 42.51992171 -8.52327614 41.19955513 0 39 C0 43.29 0 47.58 0 52 C-9.67509756 55.22503252 -22.44740504 56.29729567 -31.875 51.875 C-39.05161856 47.40207281 -42.89242114 41.06772125 -45 33 C-46.09588327 23.55105092 -44.61178859 16.44281699 -39.125 8.75 C-29.82071734 -2.81809839 -13.72885087 -5.10840963 0 0 Z " fill="#090909" transform="translate(126,20)"/>
<path d="M0 0 C3.3 0 6.6 0 10 0 C11.44207941 2.88415883 11.09394887 5.41721528 11.0625 8.625 C11.05347656 9.81351563 11.04445313 11.00203125 11.03515625 12.2265625 C11.02355469 13.14179687 11.01195312 14.05703125 11 15 C11.99 14.34 12.98 13.68 14 13 C19.63257986 11.59185504 22.97839945 12.06283742 28 15 C31.88440863 18.78480841 32.31258328 22.15151463 32.5 27.375 C32.31228704 33.04522609 31.52937344 37.47218538 28 42 C24.31473083 45.36938896 20.85608513 45.3008072 16.0859375 45.203125 C14 45 14 45 11 44 C7.37 44 3.74 44 0 44 C0 29.48 0 14.96 0 0 Z M11.0625 22.9375 C9.62021426 27.09467653 9.89118211 30.75647891 11 35 C11.66 35.66 12.32 36.32 13 37 C16.59679066 36.67673447 16.59679066 36.67673447 20 36 C21.7987144 32.17773189 22.4491436 29.22194982 22 25 C21.02896212 22.53813421 21.02896212 22.53813421 19 21 C15.29593444 20.30548771 13.77322091 20.22677909 11.0625 22.9375 Z " fill="#080808" transform="translate(381,27)"/>
<path d="M0 0 C2.14186363 1.3485808 4.2690332 2.72102213 6.375 4.125 C6.375 4.785 6.375 5.445 6.375 6.125 C7.035 6.125 7.695 6.125 8.375 6.125 C12.18073507 12.42824871 13.44361755 17.74408344 12.375 25.125 C11.715 25.785 11.055 26.445 10.375 27.125 C6.75 26.75 6.75 26.75 3.375 26.125 C3.07207031 25.22136719 2.76914062 24.31773438 2.45703125 23.38671875 C2.03808594 22.20722656 1.61914062 21.02773438 1.1875 19.8125 C0.78144531 18.64074219 0.37539063 17.46898437 -0.04296875 16.26171875 C-2.17991961 12.02475199 -4.63412536 10.87830392 -8.9375 9.25 C-12.93484557 9.06407695 -16.15495895 10.16039975 -19.625 12.125 C-23.44537672 16.93128039 -23.76909549 21.89779279 -24.1875 27.875 C-24.27128906 29.04546875 -24.35507812 30.2159375 -24.44140625 31.421875 C-24.50199219 32.31390625 -24.56257813 33.2059375 -24.625 34.125 C-30.07 34.62 -30.07 34.62 -35.625 35.125 C-36.16202511 12.56994527 -36.16202511 12.56994527 -29.625 5.125 C-21.79637705 -2.36324804 -10.05028544 -4.98791944 0 0 Z " fill="#10141A" transform="translate(35.625,1.875)"/>
<path d="M0 0 C3.3 0 6.6 0 10 0 C10.33 7.59 10.66 15.18 11 23 C16.51563484 22.67811123 16.51563484 22.67811123 18 21 C18.15686249 19.44051458 18.25076639 17.87457332 18.31640625 16.30859375 C18.35830078 15.36435547 18.40019531 14.42011719 18.44335938 13.44726562 C18.48267578 12.45404297 18.52199219 11.46082031 18.5625 10.4375 C18.60568359 9.44041016 18.64886719 8.44332031 18.69335938 7.41601562 C18.79980167 4.94418889 18.90043759 2.4721134 19 0 C22.3 0 25.6 0 29 0 C29 10.23 29 20.46 29 31 C25 31 21 31 17 31 C16.34 31.33 15.68 31.66 15 32 C10.40123316 32.55112923 7.02212113 32.61753151 3 30.1875 C-0.19558917 26.69232435 -0.12074765 23.78728681 -0.09765625 19.23828125 C-0.09443359 18.12001953 -0.09121094 17.00175781 -0.08789062 15.84960938 C-0.07951172 14.68236328 -0.07113281 13.51511719 -0.0625 12.3125 C-0.05573242 10.54422852 -0.05573242 10.54422852 -0.04882812 8.74023438 C-0.03703273 5.82677211 -0.0205727 2.91341137 0 0 Z " fill="#080808" transform="translate(348,40)"/>
<path d="M0 0 C0 16.17 0 32.34 0 49 C-3.96 49 -7.92 49 -12 49 C-12 40.75 -12 32.5 -12 24 C-15.63 24 -19.26 24 -23 24 C-19.08178637 19.31991149 -15.01337545 14.79741722 -10.875 10.3125 C-10.3603418 9.75409424 -9.84568359 9.19568848 -9.31542969 8.62036133 C-1.33595386 0 -1.33595386 0 0 0 Z " fill="#EB4898" transform="translate(344,25)"/>
<path d="M0 0 C3.67613756 2.64681905 5.1845273 4.62828824 6 9 C6.07708723 10.36800819 6.10803609 11.73923592 6.09765625 13.109375 C6.09443359 13.86347656 6.09121094 14.61757813 6.08789062 15.39453125 C6.07951172 16.17183594 6.07113281 16.94914062 6.0625 17.75 C6.05798828 18.54277344 6.05347656 19.33554688 6.04882812 20.15234375 C6.03708565 22.10159508 6.01915146 24.05080738 6 26 C4.95199219 25.98259766 4.95199219 25.98259766 3.8828125 25.96484375 C2.97273438 25.95582031 2.06265625 25.94679688 1.125 25.9375 C0.22007812 25.92589844 -0.68484375 25.91429688 -1.6171875 25.90234375 C-4.0168585 25.83750743 -4.0168585 25.83750743 -6 27 C-8.93421006 27.28395581 -11.15098834 27.49548029 -14 27 C-16.99993115 24.45005852 -17.85480459 22.87117244 -18.5 19 C-17.84164567 15.049874 -17.02359959 13.66364726 -14 11 C-10.72739185 9.71763004 -7.41925364 8.80261107 -4 8 C-8.02659396 7.07395198 -10.93720525 7.14964761 -15 8 C-15 5.69 -15 3.38 -15 1 C-10.05384206 -0.41983828 -5.09750759 -0.67966768 0 0 Z M-8 15 C-8.66 16.32 -9.32 17.64 -10 19 C-8.02 19.99 -8.02 19.99 -6 21 C-5.01 20.34 -4.02 19.68 -3 19 C-3 17.68 -3 16.36 -3 15 C-4.65 15 -6.3 15 -8 15 Z " fill="#080808" transform="translate(196,45)"/>
<path d="M0 0 C3.1786241 2.5699514 4.70728109 4.12184327 6 8 C6 10.31 6 12.62 6 15 C0.72 15 -4.56 15 -10 15 C-9.67 16.32 -9.34 17.64 -9 19 C-4.48382401 19.07654536 -0.40914783 19.10228696 4 18 C4 20.31 4 22.62 4 25 C-0.96541546 26.98616619 -4.72722269 27.41847439 -10 27 C-14.11639609 25.22246532 -16.76553623 22.88962212 -19 19 C-19.81992572 14.12185607 -19.63634058 9.54585028 -17.4375 5.0625 C-12.87319388 -0.67214103 -6.87193427 -2.39149075 0 0 Z M-8 6 C-8.66 7.32 -9.32 8.64 -10 10 C-7.69 10 -5.38 10 -3 10 C-3.33 8.68 -3.66 7.36 -4 6 C-5.32 6 -6.64 6 -8 6 Z " fill="#080808" transform="translate(290,45)"/>
<path d="M0 0 C2.87029869 1.79393668 4.49131638 2.98263276 6 6 C6.13677734 9.33736713 6.04283944 12.6585233 6 16 C1.05 16 -3.9 16 -9 16 C-7.37840854 19.01202694 -7.37840854 19.01202694 -5.3125 19.75 C-2.09886176 20.09742035 0.82974537 19.54869792 4 19 C4 21.31 4 23.62 4 26 C-1.22358692 27.74119564 -8.01033532 28.45004336 -13.0859375 25.98828125 C-16.46670266 23.24244028 -17.76949314 20.83238368 -18.30859375 16.546875 C-18.5449487 11.41868876 -18.58226045 7.9251845 -15.1875 3.875 C-10.93887474 -0.51000089 -5.82660934 -0.76665912 0 0 Z M-6 6 C-6.99 6.66 -7.98 7.32 -9 8 C-9 8.99 -9 9.98 -9 11 C-6.69 11 -4.38 11 -2 11 C-2.26676204 9.01508358 -2.26676204 9.01508358 -3 7 C-3.99 6.67 -4.98 6.34 -6 6 Z " fill="#080808" transform="translate(168,45)"/>
<path d="M0 0 C2.97 0 5.94 0 9 0 C9.71614583 1.953125 10.43229167 3.90625 11.1484375 5.859375 C11.98999011 7.97483752 12.95326494 9.97934624 14 12 C14.20496094 11.21753906 14.40992188 10.43507813 14.62109375 9.62890625 C14.89050781 8.61699219 15.15992188 7.60507812 15.4375 6.5625 C15.70433594 5.55316406 15.97117188 4.54382812 16.24609375 3.50390625 C17 1 17 1 18 0 C19.51928038 -0.07179964 21.04167482 -0.08392007 22.5625 -0.0625 C23.38878906 -0.05347656 24.21507812 -0.04445312 25.06640625 -0.03515625 C25.70449219 -0.02355469 26.34257812 -0.01195312 27 0 C21.76595745 21.23404255 21.76595745 21.23404255 18 25 C16.31391034 25.07205511 14.62499341 25.08386068 12.9375 25.0625 C12.01839844 25.05347656 11.09929687 25.04445313 10.15234375 25.03515625 C9.44207031 25.02355469 8.73179687 25.01195313 8 25 C6.65882147 21.39870379 5.3284161 17.79352141 4 14.1875 C3.6184375 13.16333984 3.236875 12.13917969 2.84375 11.08398438 C2.4828125 10.10107422 2.121875 9.11816406 1.75 8.10546875 C1.41484375 7.19949951 1.0796875 6.29353027 0.734375 5.36010742 C0 3 0 3 0 0 Z " fill="#080808" transform="translate(240,47)"/>
<path d="M0 0 C0 2.64 0 5.28 0 8 C1.98 8 3.96 8 6 8 C6 9.98 6 11.96 6 14 C4.02 14 2.04 14 0 14 C0.33 18.29 0.66 22.58 1 27 C2.65 27 4.3 27 6 27 C6.04254356 28.99954746 6.04080783 31.00041636 6 33 C4.43022426 34.56977574 2.85803613 34.20737081 0.6875 34.25 C-2.33526605 34.21636031 -3.78482394 34.11296743 -6.5 32.6875 C-9.64379627 29.15072919 -9.10373518 25.30713445 -9.0625 20.8125 C-9.05347656 19.54019531 -9.04445312 18.26789062 -9.03515625 16.95703125 C-9.02355469 15.98121094 -9.01195312 15.00539063 -9 14 C-10.32 14 -11.64 14 -13 14 C-13 12.02 -13 10.04 -13 8 C-11.68 8 -10.36 8 -9 8 C-9 6.02 -9 4.04 -9 2 C-3.375 0 -3.375 0 0 0 Z " fill="#080808" transform="translate(218,38)"/>
<path d="M0 0 C4.46344933 1.42257156 8.17652446 3.12744641 12.1875 5.5625 C16.43173628 8.13063318 16.43173628 8.13063318 21 10 C21 10.66 21 11.32 21 12 C20.2575 12.4125 19.515 12.825 18.75 13.25 C14.21385583 16.1366372 12.33461513 19.56593514 11.125 24.75 C10.75375 25.8225 10.3825 26.895 10 28 C6.875 29.4375 6.875 29.4375 4 30 C1.31343399 27.79682995 0.10382275 26.64950618 -0.45410156 23.15917969 C-0.4331543 22.09086914 -0.41220703 21.02255859 -0.390625 19.921875 C-0.37773437 18.76171875 -0.36484375 17.6015625 -0.3515625 16.40625 C-0.31804688 15.1996875 -0.28453125 13.993125 -0.25 12.75 C-0.22292969 10.91695312 -0.22292969 10.91695312 -0.1953125 9.046875 C-0.148181 6.03045922 -0.08239413 3.01562509 0 0 Z " fill="#0A0B0C" transform="translate(19,37)"/>
<path d="M0 0 C4.29 0 8.58 0 13 0 C13.91380222 15.99153887 13.91380222 15.99153887 11.875 20.47265625 C10.35168523 22.15068268 8.73219095 23.54151868 7 25 C5.86387425 26.45476332 4.7593893 27.93477868 3.6875 29.4375 C2.81599487 30.64296772 1.92739439 31.83698097 1 33 C0.67 33 0.34 33 0 33 C0 22.11 0 11.22 0 0 Z " fill="#EF4443" transform="translate(299,11)"/>
<path d="M0 0 C5.66666667 0 11.33333333 0 17 0 C17 2.64 17 5.28 17 8 C14.69 8.33 12.38 8.66 10 9 C9.67 14.61 9.34 20.22 9 26 C6.03 26 3.06 26 0 26 C0 17.42 0 8.84 0 0 Z " fill="#080808" transform="translate(129,46)"/>
<path d="M0 0 C0.33 0 0.66 0 1 0 C1 2.31 1 4.62 1 7 C4.3 7 7.6 7 11 7 C6.55381621 12.26085722 1.96038338 17.34997412 -2.75 22.375 C-3.42160156 23.09816406 -4.09320313 23.82132813 -4.78515625 24.56640625 C-5.42839844 25.25347656 -6.07164062 25.94054687 -6.734375 26.6484375 C-7.31413086 27.26895996 -7.89388672 27.88948242 -8.49121094 28.52880859 C-10 30 -10 30 -12 31 C-13.03348803 15.22973823 -13.03348803 15.22973823 -9.375 10.4375 C-8.27664793 9.26609838 -7.15094587 8.11976901 -6 7 C-4.88796242 5.67322413 -3.78345547 4.34009083 -2.6875 3 C-1.81771604 1.9772619 -0.92946327 0.96882165 0 0 Z " fill="#EAAA13" transform="translate(311,29)"/>
<path d="M0 0 C0.11604679 3.4372166 0.18719508 6.87393086 0.25 10.3125 C0.30027344 11.77719727 0.30027344 11.77719727 0.3515625 13.27148438 C0.36445312 14.20927734 0.37734375 15.14707031 0.390625 16.11328125 C0.41157227 16.97735596 0.43251953 17.84143066 0.45410156 18.73168945 C0 21 0 21 -1.86254883 22.83325195 C-4 24 -4 24 -6.58984375 23.5546875 C-9.77996074 21.49688108 -10.31657574 19.67610119 -11.5625 16.125 C-13.10806851 11.77173783 -14.50151035 9.06210299 -18 6 C-17.02417969 5.73445313 -16.04835937 5.46890625 -15.04296875 5.1953125 C-13.75773414 4.83882407 -12.47258216 4.48203761 -11.1875 4.125 C-9.29064453 3.60292969 -9.29064453 3.60292969 -7.35546875 3.0703125 C-5.13432921 2.36182329 -2.12293082 0 0 0 Z " fill="#0A0A0A" transform="translate(67,43)"/>
<path d="M0 0 C1.64061341 11.20257235 1.64061341 11.20257235 -1.07958984 15.84082031 C-4.01194681 19.61054552 -7.43298214 22.83832508 -11 26 C-11.33 25.34 -11.66 24.68 -12 24 C-15.63 24 -19.26 24 -23 24 C-19.08178637 19.31991149 -15.01337545 14.79741722 -10.875 10.3125 C-10.3603418 9.75409424 -9.84568359 9.19568848 -9.31542969 8.62036133 C-1.33595386 0 -1.33595386 0 0 0 Z " fill="#EB7160" transform="translate(344,25)"/>
<path d="M0 0 C2.97 0 5.94 0 9 0 C9 8.25 9 16.5 9 25 C6.03 25 3.06 25 0 25 C0 16.75 0 8.5 0 0 Z " fill="#080808" transform="translate(227,47)"/>
<path d="M0 0 C3.96 0 7.92 0 12 0 C12 6.46858063 11.84288919 6.92892544 7.6875 11.25 C6.88699219 12.10078125 6.08648437 12.9515625 5.26171875 13.828125 C3 16 3 16 0 18 C0 12.06 0 6.12 0 0 Z " fill="#EA962E" transform="translate(332,11)"/>
<path d="M0 0 C0.65651228 6.86353746 0.65651228 6.86353746 -1.03125 9.78515625 C-2.44679096 11.45404687 -3.92396919 12.98205386 -5.5 14.5 C-6.02464844 15.03625 -6.54929687 15.5725 -7.08984375 16.125 C-8.3756413 17.43417569 -9.68550163 18.71964444 -11 20 C-11.33 19.34 -11.66 18.68 -12 18 C-13.65 18 -15.3 18 -17 18 C-4.63128492 -0 -4.63128492 -0 0 0 Z " fill="#EB6274" transform="translate(344,31)"/>
<path d="M0 0 C0.33 0 0.66 0 1 0 C1 4.95 1 9.9 1 15 C-3.29 15 -7.58 15 -12 15 C-9.65316794 11.08861323 -8.04439273 8.83570303 -4.875 5.8125 C-2.05582432 3.18734543 -2.05582432 3.18734543 0 0 Z " fill="#EB7856" transform="translate(311,59)"/>
<path d="M0 0 C0.33 0 0.66 0 1 0 C1 2.64 1 5.28 1 8 C0.38125 8.2475 -0.2375 8.495 -0.875 8.75 C-3.45751682 10.26912754 -3.79710858 11.2934943 -5 14 C-7.16588855 17.49336862 -8.55749533 19.70499689 -12 22 C-12.59098233 17.27214136 -12.26466828 14.85289105 -9.375 11 C-8.26700143 9.65250531 -7.14146987 8.31926089 -6 7 C-5.43925781 6.319375 -4.87851562 5.63875 -4.30078125 4.9375 C-1.43486476 1.4956245 -1.43486476 1.4956245 0 0 Z " fill="#EC732A" transform="translate(311,29)"/>
<path d="M0 0 C-0.33 2.31 -0.66 4.62 -1 7 C-3.64 7 -6.28 7 -9 7 C-9.33 4.69 -9.66 2.38 -10 0 C-6.22996568 -2.61002376 -4.07631429 -1.66758312 0 0 Z " fill="#F4A524" transform="translate(236,33)"/>
<path d="M0 0 C3.63 0 7.26 0 11 0 C7.6473889 4.67806201 4.7486611 8.64800393 0 12 C0 8.04 0 4.08 0 0 Z " fill="#EAA11F" transform="translate(332,11)"/>
<path d="M0 0 C0 2.31 0 4.62 0 7 C-5.25798504 7.89497618 -10.6716379 8.64027162 -16 8 C-16.66 7.34 -17.32 6.68 -18 6 C-17.02417969 5.73445313 -16.04835937 5.46890625 -15.04296875 5.1953125 C-13.75773414 4.83882407 -12.47258216 4.48203761 -11.1875 4.125 C-9.29064453 3.60292969 -9.29064453 3.60292969 -7.35546875 3.0703125 C-5.13432921 2.36182329 -2.12293082 0 0 0 Z " fill="#0C1017" transform="translate(67,43)"/>
<path d="M0 0 C0.57861328 1.87939453 0.57861328 1.87939453 1 4 C-0.2578125 5.9296875 -0.2578125 5.9296875 -2.125 7.875 C-3.09179688 8.90753906 -3.09179688 8.90753906 -4.078125 9.9609375 C-4.71234375 10.63382813 -5.3465625 11.30671875 -6 12 C-6.96799606 13.15866195 -7.92776029 14.32430836 -8.875 15.5 C-9.926875 16.7375 -9.926875 16.7375 -11 18 C-11.33 18 -11.66 18 -12 18 C-12.48030296 15.34332425 -12.42993761 13.62344686 -10.875 11.36865234 C-9.30104635 9.58412091 -7.67401627 7.87848265 -6 6.1875 C-5.42765625 5.59001953 -4.8553125 4.99253906 -4.265625 4.37695312 C-2.85476855 2.90731099 -1.42880761 1.45219583 0 0 Z " fill="#EA8841" transform="translate(311,55)"/>
<path d="M0 0 C0.33 1.32 0.66 2.64 1 4 C-0.74748644 6.28267265 -2.43162684 8.22229751 -4.4375 10.25 C-4.96666016 10.80429687 -5.49582031 11.35859375 -6.04101562 11.9296875 C-7.34956405 13.29717954 -8.6733804 14.65003189 -10 16 C-10.66 15.01 -11.32 14.02 -12 13 C-8.04 8.71 -4.08 4.42 0 0 Z " fill="#EB5784" transform="translate(343,35)"/>
<path d="M0 0 C0.66015625 1.796875 0.66015625 1.796875 1 4 C-0.00390625 5.640625 -0.00390625 5.640625 -1.5625 7.25 C-5.00605028 10.96774398 -8.00772011 14.91479519 -11 19 C-11.33 18.01 -11.66 17.02 -12 16 C-10.63671875 13.30078125 -10.63671875 13.30078125 -8.6875 10.3125 C-8.05199219 9.31863281 -7.41648437 8.32476562 -6.76171875 7.30078125 C-6.18035156 6.54152344 -5.59898437 5.78226563 -5 5 C-4.34 5 -3.68 5 -3 5 C-2.690625 4.360625 -2.38125 3.72125 -2.0625 3.0625 C-1 1 -1 1 0 0 Z " fill="#EE5938" transform="translate(311,25)"/>
<path d="M0 0 C-1.51553404 3.47775179 -3.5773456 5.9557984 -6.125 8.75 C-7.21167969 9.94882812 -7.21167969 9.94882812 -8.3203125 11.171875 C-8.87460937 11.77515625 -9.42890625 12.3784375 -10 13 C-11.32 12.67 -12.64 12.34 -14 12 C-12.23885299 9.99067777 -10.46713537 7.99283255 -8.6875 6 C-8.18798828 5.42765625 -7.68847656 4.8553125 -7.17382812 4.265625 C-3.33984375 0 -3.33984375 0 0 0 Z " fill="#EA8A3F" transform="translate(329,36)"/>
<path d="M0 0 C0.33 1.32 0.66 2.64 1 4 C0.38125 4.2475 -0.2375 4.495 -0.875 4.75 C-3.45751682 6.26912754 -3.79710858 7.2934943 -5 10 C-7.16588855 13.49336862 -8.55749533 15.70499689 -12 18 C-11.5773076 13.06858861 -9.49586397 11.34049224 -6 8 C-3.92399752 5.38794054 -1.95311237 2.70482572 0 0 Z " fill="#EB8C1C" transform="translate(311,33)"/>
<path d="M0 0 C0.33 0 0.66 0 1 0 C1 2.97 1 5.94 1 9 C-1.97 9 -4.94 9 -8 9 C-2.25 2.25 -2.25 2.25 0 0 Z " fill="#EB6A69" transform="translate(311,65)"/>
<path d="M0 0 C0.64428711 1.81152344 0.64428711 1.81152344 1 4 C-0.74748644 6.28267265 -2.43162684 8.22229751 -4.4375 10.25 C-4.96666016 10.80429687 -5.49582031 11.35859375 -6.04101562 11.9296875 C-7.34956405 13.29717954 -8.6733804 14.65003189 -10 16 C-10.76953125 14.28515625 -10.76953125 14.28515625 -11 12 C-9.19921875 9.74609375 -9.19921875 9.74609375 -6.6875 7.4375 C-4.06657653 4.99761363 -1.99385547 2.99078321 0 0 Z " fill="#EA8644" transform="translate(343,17)"/>
<path d="M0 0 C3.91211733 1.15585285 6.8745041 2.35534962 10 5 C9.05125 5.309375 8.1025 5.61875 7.125 5.9375 C4.13919592 6.87394742 4.13919592 6.87394742 2 8 C1.34 7.67 0.68 7.34 0 7 C0 4.69 0 2.38 0 0 Z " fill="#0E192A" transform="translate(19,37)"/>
<path d="M0 0 C0.66 0.33 1.32 0.66 2 1 C0.625 2.5 0.625 2.5 -1 4 C-1.66 4 -2.32 4 -3 4 C-3.185625 4.845625 -3.37125 5.69125 -3.5625 6.5625 C-5.45794692 11.09509046 -8.40039022 13.74687672 -12 17 C-12 13.01810511 -10.52821667 12.01981435 -8 9 C-7.34 7.96875 -6.68 6.9375 -6 5.875 C-4.1640619 3.23583898 -2.67406994 1.71904496 0 0 Z " fill="#EAA012" transform="translate(312,36)"/>
<path d="M0 0 C2.31 0 4.62 0 7 0 C3.375 5.75 3.375 5.75 0 8 C0 5.36 0 2.72 0 0 Z " fill="#EAAB0F" transform="translate(332,11)"/>
<path d="M0 0 C0 3.69840628 -0.82866944 4.31415433 -3.25 7 C-4.15492188 8.0209375 -4.15492188 8.0209375 -5.078125 9.0625 C-6.93766612 10.93715934 -8.84794211 12.47641919 -11 14 C-9.42219077 10.28954753 -7.09296752 7.70093616 -4.375 4.75 C-3.55773437 3.85796875 -2.74046875 2.9659375 -1.8984375 2.046875 C-1.27195312 1.37140625 -0.64546875 0.6959375 0 0 Z " fill="#EA8E39" transform="translate(343,15)"/>
<path d="M0 0 C0.66 0.33 1.32 0.66 2 1 C-1.63 4.96 -5.26 8.92 -9 13 C-9.66 12.67 -10.32 12.34 -11 12 C-7.37 8.04 -3.74 4.08 0 0 Z " fill="#EA9331" transform="translate(324,36)"/>
<path d="M0 0 C0 0.99 0 1.98 0 3 C-0.66 3 -1.32 3 -2 3 C-2.66 4.98 -3.32 6.96 -4 9 C-6 7 -6 7 -6.125 4.375 C-6.08375 3.59125 -6.0425 2.8075 -6 2 C-2.25 0 -2.25 0 0 0 Z " fill="#EF4A42" transform="translate(232,31)"/>
<path d="M0 0 C0.33 0.99 0.66 1.98 1 3 C-0.40445835 5.2636564 -2.1967913 7.0208685 -4 9 C-4.99 8.67 -5.98 8.34 -7 8 C-4.69 5.36 -2.38 2.72 0 0 Z " fill="#EA7F4D" transform="translate(306,65)"/>
<path d="M0 0 C0.33 1.32 0.66 2.64 1 4 C-2.21451269 5.60725635 -5.43612536 5.05748185 -9 5 C-6.08596738 3.05731159 -3.14191424 1.53604696 0 0 Z " fill="#0E1827" transform="translate(66,43)"/>
<path d="M0 0 C0.66 0 1.32 0 2 0 C1.67 2.31 1.34 4.62 1 7 C0.01 7 -0.98 7 -2 7 C-1.34 4.69 -0.68 2.38 0 0 Z " fill="#F1904D" transform="translate(234,33)"/>
</svg>
