<?xml version="1.0" encoding="UTF-8"?>
<svg version="1.1" xmlns="http://www.w3.org/2000/svg" width="419" height="85">
<path d="M0 0 C4.29 0 8.58 0 13 0 C13 8.25 13 16.5 13 25 C19.27 25 25.54 25 32 25 C32 16.75 32 8.5 32 0 C35.96 0 39.92 0 44 0 C44.495 0.495 44.495 0.495 45 1 C45.09920863 2.92761817 45.12799365 4.85889354 45.12939453 6.7890625 C45.13254669 8.0270459 45.13569885 9.2650293 45.13894653 10.54052734 C45.13715675 11.90201859 45.1351058 13.26350951 45.1328125 14.625 C45.13348559 16.01123064 45.13445566 17.39746117 45.13571167 18.78369141 C45.1371884 21.69239422 45.1350349 24.60106637 45.13037109 27.50976562 C45.12467381 31.24596598 45.12795294 34.98209452 45.13394356 38.71829224 C45.13754985 41.58179266 45.13641027 44.44527593 45.13381577 47.30877686 C45.13314668 48.68674732 45.13397426 50.06471932 45.13629532 51.44268799 C45.13882292 53.36543754 45.13429024 55.28819252 45.12939453 57.2109375 C45.12859894 58.30712402 45.12780334 59.40331055 45.12698364 60.53271484 C45.08507904 61.34691895 45.04317444 62.16112305 45 63 C44.67 63.33 44.34 63.66 44 64 C40.04 64 36.08 64 32 64 C32 55.42 32 46.84 32 38 C25.73 38 19.46 38 13 38 C13 46.58 13 55.16 13 64 C8.71 64 4.42 64 0 64 C0 42.88 0 21.76 0 0 Z " fill="#EB8E38" transform="translate(305,10)"/>
<path d="M0 0 C4.10488378 1.35129714 7.41285443 3.60856962 11 6 C11 6.66 11 7.32 11 8 C11.66 8 12.32 8 13 8 C15.2399537 11.70992331 16.83605316 14.57976283 17.3359375 18.91015625 C17.3722205 21.66403607 17.3947682 24.27334523 17 27 C16.34 27.66 15.68 28.32 15 29 C11.375 28.625 11.375 28.625 8 28 C7.69707031 27.09636719 7.39414062 26.19273438 7.08203125 25.26171875 C6.66308594 24.08222656 6.24414062 22.90273438 5.8125 21.6875 C5.40644531 20.51574219 5.00039063 19.34398437 4.58203125 18.13671875 C3.23563538 14.87937729 3.23563538 14.87937729 0.46875 13.13671875 C-2.2329977 11.89271783 -4.01468047 11.13885207 -7 11 C-9.88398884 11.63459086 -12.4278108 12.54372803 -15 14 C-17.29375845 16.88569612 -18.24563562 19.44336239 -19 23 C-19.09614307 24.34121887 -19.14770292 25.68616841 -19.16113281 27.03076172 C-19.17074036 27.81192352 -19.1803479 28.59308533 -19.19024658 29.3979187 C-19.1966214 30.65114426 -19.1966214 30.65114426 -19.203125 31.9296875 C-19.20882507 32.79763947 -19.21452515 33.66559143 -19.22039795 34.55984497 C-19.22983108 36.39388821 -19.23637522 38.22794828 -19.24023438 40.06201172 C-19.24994116 42.85804985 -19.28098064 45.65335295 -19.3125 48.44921875 C-19.31903058 50.23437065 -19.32428084 52.01952779 -19.328125 53.8046875 C-19.3404718 54.63612274 -19.3528186 55.46755798 -19.36553955 56.32418823 C-19.35062237 60.23834734 -19.08904747 62.7839639 -17.57324219 66.46142578 C-16.18382695 68.70337792 -15.05875047 70.37015588 -13 72 C-9.42365687 73.19211438 -6.75935317 73.25926574 -3 73 C-0.19670262 71.93478871 -0.19670262 71.93478871 2 70 C5.09254273 65.79414189 6.94853597 60.77980705 9 56 C11.8125 55.6875 11.8125 55.6875 15 56 C15.66 56.61875 16.32 57.2375 17 57.875 C18 61 18 61 17.87109375 63.34765625 C17.19792602 67.36846888 16.19638167 70.62178344 14.3125 74.25 C10.77555386 78.45609811 7.19330843 81.90334579 2.25 84.375 C-3.25859105 85.43434443 -8.76678544 85.70986529 -14.27734375 84.5 C-18.97840582 82.91192529 -22.50550032 80.57392012 -26 77 C-28.93457175 72.46219575 -30.27026476 68.35177661 -31 63 C-31.10346389 60.16595885 -31.16383352 57.35720908 -31.16796875 54.5234375 C-31.17129715 53.71693756 -31.17462555 52.91043762 -31.17805481 52.07949829 C-31.18309974 50.37673509 -31.18546389 48.67396207 -31.18530273 46.97119141 C-31.18747563 44.40379921 -31.20561962 41.83684682 -31.22460938 39.26953125 C-31.25543531 30.41717056 -31.27777336 21.62781739 -29 13 C-27.1002858 9.26841854 -25.14519848 7.1388855 -22.125 4.25 C-15.3440337 -0.63229574 -8.1034961 -0.83011423 0 0 Z " fill="#ED4563" transform="translate(31,0)"/>
<path d="M0 0 C2.625 0.1875 2.625 0.1875 5 1 C5.66 1.66 6.32 2.32 7 3 C7.48562727 4.61127198 7.91692023 6.23928979 8.3125 7.875 C9.29162293 11.25078205 9.89113785 12.87601811 12.25 15.5625 C15.01597359 17.1176892 15.01597359 17.1176892 18.3125 18 C21.43859028 18 23.26394181 17.8987308 26.125 16.875 C28.25713745 15.85017712 28.25713745 15.85017712 30 14 C31.50877275 10.64298064 32.61568929 7.34598132 33.6015625 3.80078125 C34.06304687 2.87652344 34.52453125 1.95226562 35 1 C37.9609375 -0.01953125 37.9609375 -0.01953125 41 0 C41.99 0.66 42.98 1.32 44 2 C44.38768005 3.89073181 44.38768005 3.89073181 44.40405273 6.21850586 C44.41673691 7.08958481 44.42942108 7.96066376 44.44248962 8.85813904 C44.43955399 9.80085159 44.43661835 10.74356415 44.43359375 11.71484375 C44.4388356 12.68152481 44.44407745 13.64820587 44.44947815 14.6441803 C44.45590907 16.69108112 44.45454757 18.73801885 44.44604492 20.78491211 C44.43754274 23.92172959 44.46626912 27.05672238 44.49804688 30.19335938 C44.49965908 32.17968695 44.49908099 34.16601776 44.49609375 36.15234375 C44.51294472 37.56337624 44.51294472 37.56337624 44.53013611 39.00291443 C44.50438351 41.40285505 44.44197373 43.64118811 44 46 C42.13085938 48.14306641 42.13085938 48.14306641 40 49 C37.41015625 48.55859375 37.41015625 48.55859375 35 47 C33.55859375 44.28515625 33.55859375 44.28515625 32.4375 41.0625 C30.94278574 36.70486049 30.94278574 36.70486049 28.125 33.17578125 C25.12983845 31.51853193 22.55622501 31.2015657 19.1796875 30.94140625 C16.83905929 30.88503495 16.83905929 30.88503495 14.1875 32.0625 C11.45151298 34.48580279 9.7827203 36.80339808 8 40 C7.71125 41.2375 7.4225 42.475 7.125 43.75 C6.75375 44.8225 6.3825 45.895 6 47 C2.875 48.4375 2.875 48.4375 0 49 C-1.96679687 47.59204102 -1.96679687 47.59204102 -4 45 C-4.61664697 41.8490689 -4.56042936 38.72979718 -4.53125 35.52734375 C-4.5350769 34.60788467 -4.53890381 33.6884256 -4.54284668 32.74110413 C-4.54556524 30.80029198 -4.53820798 28.85944317 -4.52148438 26.91870117 C-4.50004916 23.944322 -4.52130016 20.97235156 -4.546875 17.99804688 C-4.54423219 16.11197383 -4.53910819 14.22590228 -4.53125 12.33984375 C-4.53934692 11.44917709 -4.54744385 10.55851044 -4.55578613 9.64085388 C-4.52098389 7.35615028 -4.44853623 5.24030696 -4 3 C-2.13085938 0.90454102 -2.13085938 0.90454102 0 0 Z " fill="#F06374" transform="translate(23,18)"/>
<path d="M0 0 C0.84111328 0.00064453 1.68222656 0.00128906 2.54882812 0.00195312 C6.42778632 0.029638 9.50220834 0.23492709 13.3125 1.1875 C13.3125 5.4775 13.3125 9.7675 13.3125 14.1875 C12.384375 14.0225 11.45625 13.8575 10.5 13.6875 C4.22179093 12.81978005 -2.04875203 12.32390976 -8.125 14.3125 C-10.78682222 16.14320153 -10.78682222 16.14320153 -13.0625 18.6875 C-14.65611878 22.11990969 -15.00925315 23.98360068 -15.125 27.6875 C-14.98668764 31.08076323 -14.60266766 33.43753215 -13.5 36.6875 C-11.80547802 39.21826749 -11.80547802 39.21826749 -9.625 41 C-5.33917279 42.73256845 -1.30002866 43.21404693 3.3125 43.1875 C6.7331707 42.72210263 9.94949724 42.00422924 13.3125 41.1875 C13.3125 45.4775 13.3125 49.7675 13.3125 54.1875 C5.45953828 56.80515391 -2.51268949 56.82322804 -10.6875 56.1875 C-14.46319451 55.41375197 -17.4666621 54.30897441 -20.6875 52.1875 C-24.48455203 48.85966542 -27.08347676 45.25460772 -29.5625 40.875 C-31.5009442 34.52121067 -32.2536183 28.14994559 -31.125 21.5625 C-29.74146142 16.40651289 -27.04810161 12.28805058 -23.6875 8.1875 C-20.55226139 4.82215214 -17.92276852 2.64259893 -13.5703125 1.0390625 C-8.95547724 0.02695577 -4.70434885 -0.06945037 0 0 Z " fill="#FFFFFF" transform="translate(117.6875,17.8125)"/>
<path d="M0 0 C3.3 0 6.6 0 10 0 C10.33 4.95 10.66 9.9 11 15 C12.32 14.34 13.64 13.68 15 13 C17.87197324 12.77206562 20.19127315 12.6419153 23 13 C25.8125 14.1875 25.8125 14.1875 28 16 C29.609375 18.15234375 29.609375 18.15234375 31 21 C31.70231151 26.7070719 31.85388481 32.83859313 30.34375 38.4296875 C29.4375 40.25 29.4375 40.25 27 43 C24.31002231 44.72158572 23.01114077 45.47607302 20 46 C17.5889816 45.94732229 15.29855356 45.70527622 12.91796875 45.32421875 C8.63696803 44.848552 4.30734559 45 0 45 C0 30.15 0 15.3 0 0 Z M14 21 C11.60705606 22.30357301 11.60705606 22.30357301 10 25 C9.43742451 28.40330321 9.23396909 31.62608447 10 35 C11.81210743 36.87388191 11.81210743 36.87388191 14 38 C16.11149645 38.07642709 16.11149645 38.07642709 18 37 C19.91213816 35.48135227 19.91213816 35.48135227 21 33 C21.47022921 30.24094426 21.51921989 27.75412291 21 25 C19.35246985 22.4331496 19.35246985 22.4331496 17 21 C16.01 21 15.02 21 14 21 Z " fill="#FFFFFF" transform="translate(387,26)"/>
<path d="M0 0 C3.3 0 6.6 0 10 0 C10.75115321 3.00461285 11.16527775 5.305555 11.31640625 8.328125 C11.37924805 9.52695312 11.37924805 9.52695312 11.44335938 10.75 C11.48267578 11.575 11.52199219 12.4 11.5625 13.25 C11.60568359 14.09046875 11.64886719 14.9309375 11.69335938 15.796875 C11.79908543 17.86440671 11.90001295 19.93218281 12 22 C13.66611905 22.042721 15.33382885 22.04063832 17 22 C17.33 21.67 17.66 21.34 18 21 C18.22670908 19.44246949 18.39435092 17.87622641 18.53515625 16.30859375 C18.62216797 15.36435547 18.70917969 14.42011719 18.79882812 13.44726562 C18.88583984 12.45404297 18.97285156 11.46082031 19.0625 10.4375 C19.15337891 9.44041016 19.24425781 8.44332031 19.33789062 7.41601562 C19.56258568 4.94437007 19.78179998 2.47222741 20 0 C23.3 0 26.6 0 30 0 C30 10.23 30 20.46 30 31 C20 31 20 31 18 30 C17.29875 30.33 16.5975 30.66 15.875 31 C13.14003496 31.95129219 11.75116287 32.14184423 8.9375 31.9375 C6.8671875 31.61328125 6.8671875 31.61328125 5 31 C2.5625 28.625 2.5625 28.625 1 26 C-0.01973129 22.94080612 -0.11533602 20.87581975 -0.09765625 17.67578125 C-0.09443359 16.64775391 -0.09121094 15.61972656 -0.08789062 14.56054688 C-0.07951172 13.48869141 -0.07113281 12.41683594 -0.0625 11.3125 C-0.05798828 10.22904297 -0.05347656 9.14558594 -0.04882812 8.02929688 C-0.03703757 5.35284106 -0.01910208 2.67641361 0 0 Z " fill="#FFFFFF" transform="translate(353,40)"/>
<path d="M0 0 C4.29 0 8.58 0 13 0 C13 8.25 13 16.5 13 25 C15.97 25 18.94 25 22 25 C21.113125 26.03125 20.22625 27.0625 19.3125 28.125 C18.7659375 28.764375 18.219375 29.40375 17.65625 30.0625 C16.63871327 31.25282598 15.61848329 32.44086376 14.59375 33.625 C12.75756519 35.77467978 11.0714991 37.87975152 9.625 40.3125 C7.11488825 44.46383866 4.14061986 48.30373201 1 52 C0.67 52 0.34 52 0 52 C0 34.84 0 17.68 0 0 Z " fill="#EAAD0D" transform="translate(305,10)"/>
<path d="M0 0 C3.0625 0.375 3.0625 0.375 6 1 C6.33 1.33 6.66 1.66 7 2 C7.11345662 3.36489083 7.15950227 4.73549402 7.17700195 6.10498047 C7.18983719 6.97613495 7.20267242 7.84728943 7.21589661 8.74484253 C7.22328354 9.69271637 7.23067047 10.64059021 7.23828125 11.6171875 C7.246353 12.58528351 7.25442474 13.55337952 7.26274109 14.55081177 C7.27659884 16.60368041 7.28731339 18.65657226 7.29516602 20.70947266 C7.31239012 23.85493424 7.35626241 26.99934818 7.40039062 30.14453125 C7.41051597 32.13540891 7.41903257 34.12629553 7.42578125 36.1171875 C7.44328934 37.06101288 7.46079742 38.00483826 7.47883606 38.9772644 C7.47080934 41.3846987 7.42587889 43.63073116 7 46 C6.38463379 46.70793701 5.76926758 47.41587402 5.13525391 48.14526367 C4.43062012 48.42732666 3.72598633 48.70938965 3 49 C0.41015625 48.55859375 0.41015625 48.55859375 -2 47 C-3.44140625 44.28515625 -3.44140625 44.28515625 -4.5625 41.0625 C-5.62734001 37.870842 -5.62734001 37.870842 -7 35 C-9.05663161 33.27019925 -9.05663161 33.27019925 -11 32 C-11 31.34 -11 30.68 -11 30 C-7.535 29.505 -7.535 29.505 -4 29 C-3.67 28.01 -3.34 27.02 -3 26 C-3.721875 25.7525 -4.44375 25.505 -5.1875 25.25 C-8.24713266 23.89016326 -10.4673738 22.17082246 -13 20 C-12.505 18.515 -12.505 18.515 -12 17 C-10.81470703 16.36964844 -10.81470703 16.36964844 -9.60546875 15.7265625 C-8.74566406 15.15679687 -7.88585938 14.58703125 -7 14 C-5.39907566 10.8874355 -5.39907566 10.8874355 -4.3125 7.375 C-3.58704581 5.23408308 -2.82601499 3.1041645 -2 1 C-1.34 0.67 -0.68 0.34 0 0 Z " fill="#ECBC26" transform="translate(60,18)"/>
<path d="M0 0 C0.66 0.33 1.32 0.66 2 1 C2.02527002 7.53278786 2.04283292 14.06556321 2.05493164 20.59838867 C2.05997317 22.82267732 2.06680623 25.04696263 2.07543945 27.27124023 C2.08751298 30.46078309 2.09322996 33.65028229 2.09765625 36.83984375 C2.10281754 37.84087631 2.10797882 38.84190887 2.11329651 39.87327576 C2.11340981 41.25459435 2.11340981 41.25459435 2.11352539 42.66381836 C2.115746 43.47878281 2.11796661 44.29374725 2.12025452 45.13340759 C2.06072853 46.05737083 2.06072853 46.05737083 2 47 C1.67 47.33 1.34 47.66 1 48 C-2.96 48 -6.92 48 -11 48 C-11 39.42 -11 30.84 -11 22 C-13.31 22 -15.62 22 -18 22 C-17.0690673 19.26390845 -16.20641965 17.23773849 -14.30078125 15.04296875 C-13.64464844 14.43066406 -12.98851562 13.81835938 -12.3125 13.1875 C-8.78381176 9.80047443 -5.53393262 6.27526098 -2.34765625 2.56640625 C-1.59150381 1.68751602 -0.81982149 0.81982149 0 0 Z " fill="#ED499A" transform="translate(348,26)"/>
<path d="M0 0 C4.10488378 1.35129714 7.41285443 3.60856962 11 6 C11 6.66 11 7.32 11 8 C11.66 8 12.32 8 13 8 C15.2399537 11.70992331 16.83605316 14.57976283 17.3359375 18.91015625 C17.3722205 21.66403607 17.3947682 24.27334523 17 27 C16.34 27.66 15.68 28.32 15 29 C11.375 28.625 11.375 28.625 8 28 C7.69707031 27.09636719 7.39414062 26.19273438 7.08203125 25.26171875 C6.66308594 24.08222656 6.24414062 22.90273438 5.8125 21.6875 C5.20341797 19.92986328 5.20341797 19.92986328 4.58203125 18.13671875 C3.23513392 14.87868885 3.23513392 14.87868885 0.46484375 13.1328125 C-2.22567689 11.89628162 -4.03345147 11.20226467 -7 11 C-10.04286081 11.51312998 -13.01703119 12.21364003 -16 13 C-16.33 12.01 -16.66 11.02 -17 10 C-18.95597184 8.60287726 -20.95436401 7.26220093 -23 6 C-21.375 4.125 -21.375 4.125 -19 2 C-12.7138476 -0.53589103 -6.69013313 -0.68533071 0 0 Z " fill="#EAB30A" transform="translate(31,0)"/>
<path d="M0 0 C2.32588297 2.32588297 2.95486329 3.86458988 4 7 C4.12781786 9.67394964 4.04391871 12.32095857 4 15 C-0.95 15.33 -5.9 15.66 -11 16 C-10.34 16.66 -9.68 17.32 -9 18 C-5.15541573 18.21358801 -1.68379022 18.17881287 2 17 C2 19.31 2 21.62 2 24 C-1.16257104 25.63229473 -3.92488868 26.19976416 -7.4375 26.3125 C-10.43236745 26.22280347 -12.46471179 25.85370184 -15.375 24.9375 C-18 23 -18 23 -19.875 19.75 C-21.05348063 15.82173124 -21.44408131 13.0707453 -21 9 C-19.6685903 5.42621606 -18.35707035 3.34767376 -15.625 0.6875 C-13 -1 -13 -1 -10.6875 -1.875 C-6.87969255 -2.05210732 -3.53412343 -1.44124773 0 0 Z M-10 5 C-10.66 6.32 -11.32 7.64 -12 9 C-9.36 9 -6.72 9 -4 9 C-4.66 7.68 -5.32 6.36 -6 5 C-7.32 5 -8.64 5 -10 5 Z " fill="#FFFFFF" transform="translate(176,46)"/>
<path d="M0 0 C1.9453125 0.99609375 1.9453125 0.99609375 3.69140625 2.94140625 C5.52321711 7.40394859 5.2642846 11.53851642 5.1328125 16.30859375 C5.11250977 17.70561523 5.11250977 17.70561523 5.09179688 19.13085938 C5.05658132 21.41987021 5.00733349 23.70767833 4.9453125 25.99609375 C1.61197917 25.99609375 -1.72135417 25.99609375 -5.0546875 25.99609375 C-6.1478125 26.20234375 -7.2409375 26.40859375 -8.3671875 26.62109375 C-12.0546875 26.99609375 -12.0546875 26.99609375 -14.9296875 26.18359375 C-15.6309375 25.79171875 -16.3321875 25.39984375 -17.0546875 24.99609375 C-18.20462116 22.69622644 -18.2863804 21.18140287 -18.3671875 18.62109375 C-18.31640625 16.19140625 -18.31640625 16.19140625 -18.0546875 13.99609375 C-17.6009375 13.17109375 -17.1471875 12.34609375 -16.6796875 11.49609375 C-13.19450649 9.50456174 -10.06739581 9.32638156 -6.1015625 9.07421875 C-5.42609375 9.0484375 -4.750625 9.02265625 -4.0546875 8.99609375 C-4.3846875 8.33609375 -4.7146875 7.67609375 -5.0546875 6.99609375 C-8.6846875 7.32609375 -12.3146875 7.65609375 -16.0546875 7.99609375 C-16.0546875 5.68609375 -16.0546875 3.37609375 -16.0546875 0.99609375 C-10.37122451 -0.750597 -5.83451619 -1.18154181 0 0 Z M-7.0546875 13.99609375 C-8.0446875 14.65609375 -9.0346875 15.31609375 -10.0546875 15.99609375 C-9.7246875 17.31609375 -9.3946875 18.63609375 -9.0546875 19.99609375 C-7.4046875 19.66609375 -5.7546875 19.33609375 -4.0546875 18.99609375 C-3.7246875 17.34609375 -3.3946875 15.69609375 -3.0546875 13.99609375 C-4.3746875 13.99609375 -5.6946875 13.99609375 -7.0546875 13.99609375 Z " fill="#FFFFFF" transform="translate(202.0546875,45.00390625)"/>
<path d="M0 0 C2.29390423 0.49708859 3.57013742 1.28394002 5.40234375 2.73828125 C7.96484375 5.42578125 7.96484375 5.42578125 8.96484375 8.42578125 C9.09266161 11.09973089 9.00876246 13.74673982 8.96484375 16.42578125 C4.01484375 16.75578125 -0.93515625 17.08578125 -6.03515625 17.42578125 C-5.70515625 18.08578125 -5.37515625 18.74578125 -5.03515625 19.42578125 C-1.82212657 20.46529085 0.38606831 20.37744401 3.77734375 19.98828125 C4.82921875 19.80265625 5.88109375 19.61703125 6.96484375 19.42578125 C6.96484375 21.73578125 6.96484375 24.04578125 6.96484375 26.42578125 C1.76844286 28.15791488 -3.62233835 28.0302239 -9.03515625 27.42578125 C-12.26088085 25.21204868 -13.41676575 23.43769298 -15.41015625 20.17578125 C-16.33512024 16.10593969 -15.92010777 12.48180905 -15.03515625 8.42578125 C-13.84765625 5.55078125 -13.84765625 5.55078125 -12.03515625 3.42578125 C-8.12357468 0.78773787 -4.65132588 -0.16962609 0 0 Z M-4.03515625 6.42578125 C-5.84815117 7.65532141 -5.84815117 7.65532141 -7.03515625 9.42578125 C-7.03515625 10.08578125 -7.03515625 10.74578125 -7.03515625 11.42578125 C-4.39515625 11.42578125 -1.75515625 11.42578125 0.96484375 11.42578125 C0.63484375 10.10578125 0.30484375 8.78578125 -0.03515625 7.42578125 C-1.87216414 6.65335856 -1.87216414 6.65335856 -4.03515625 6.42578125 Z " fill="#FFFFFF" transform="translate(292.03515625,43.57421875)"/>
<path d="M0 0 C2.97 0 5.94 0 9 0 C10.76405007 4.65067745 12.42548518 9.27645553 14 14 C15.32 9.38 16.64 4.76 18 0 C21.3 0 24.6 0 28 0 C26.87685665 3.39645758 25.75155928 6.79217551 24.625 10.1875 C24.30789063 11.14720703 23.99078125 12.10691406 23.6640625 13.09570312 C23.3546875 14.02705078 23.0453125 14.95839844 22.7265625 15.91796875 C22.30238037 17.19837036 22.30238037 17.19837036 21.86962891 18.50463867 C20.98715604 21.03685517 20.01453525 23.51808139 19 26 C15.7 26 12.4 26 9 26 C0 5.19672131 0 5.19672131 0 0 Z " fill="#FFFFFF" transform="translate(245,46)"/>
<path d="M0 0 C0 2.31 0 4.62 0 7 C1.98 7 3.96 7 6 7 C6 9.31 6 11.62 6 14 C4.02 14 2.04 14 0 14 C0.66 17.96 1.32 21.92 2 26 C3.32 26 4.64 26 6 26 C6 28.31 6 30.62 6 33 C4 34 4 34 1.94140625 34.01953125 C1.15636719 33.95121094 0.37132812 33.88289063 -0.4375 33.8125 C-1.21996094 33.75707031 -2.00242188 33.70164063 -2.80859375 33.64453125 C-5 33 -5 33 -6.7734375 31.43359375 C-8 29 -8 29 -8.29296875 25.328125 C-8.27316751 23.96843965 -8.23759202 22.6089066 -8.1875 21.25 C-8.17396484 20.55261719 -8.16042969 19.85523437 -8.14648438 19.13671875 C-8.1112945 17.42414459 -8.05749155 15.71197059 -8 14 C-9.32 14 -10.64 14 -12 14 C-12 11.69 -12 9.38 -12 7 C-10.68 7 -9.36 7 -8 7 C-8 5.35 -8 3.7 -8 2 C-4.91190305 0.23537317 -3.76687864 0 0 0 Z " fill="#FFFFFF" transform="translate(223,38)"/>
<path d="M0 0 C2.9719385 1.12451727 5.33440687 2.22293791 8 4 C8.875 5.8125 8.875 5.8125 9 8 C7.625 10.5 7.625 10.5 6 13 C4.85214923 16.5147982 4.69457156 20.07754912 4.4375 23.75 C4.35371094 24.92046875 4.26992187 26.0909375 4.18359375 27.296875 C4.12300781 28.18890625 4.06242188 29.0809375 4 30 C0.37 30 -3.26 30 -7 30 C-7.20618561 22.16494665 -7.01053028 14.62002082 -5 7 C-3.69798322 4.29304021 -2.13727341 2.13727341 0 0 Z " fill="#EE4F75" transform="translate(7,6)"/>
<path d="M0 0 C4.29 0 8.58 0 13 0 C14.07854664 10.73220483 14.07854664 10.73220483 13 16 C11.04981021 19.16203612 9.02444777 21.3244057 6.26171875 23.7890625 C3.69889895 26.29434058 2.44216022 28.74230474 1 32 C0.67 32 0.34 32 0 32 C0 21.44 0 10.88 0 0 Z " fill="#EE4443" transform="translate(305,10)"/>
<path d="M0 0 C5.61 0 11.22 0 17 0 C17 2.64 17 5.28 17 8 C14.69 8 12.38 8 10 8 C9.93941406 8.97582031 9.87882813 9.95164062 9.81640625 10.95703125 C9.73261719 12.22933594 9.64882812 13.50164063 9.5625 14.8125 C9.48128906 16.07707031 9.40007812 17.34164062 9.31640625 18.64453125 C9 22 9 22 8 25 C5.36 25 2.72 25 0 25 C0 16.75 0 8.5 0 0 Z " fill="#FFFFFF" transform="translate(135,46)"/>
<path d="M0 0 C0.33 0 0.66 0 1 0 C1.11604679 3.4372166 1.18719508 6.87393086 1.25 10.3125 C1.30027344 11.77719727 1.30027344 11.77719727 1.3515625 13.27148438 C1.36445312 14.20927734 1.37734375 15.14707031 1.390625 16.11328125 C1.41157227 16.97735596 1.43251953 17.84143066 1.45410156 18.73168945 C1.22932129 19.85450317 1.22932129 19.85450317 1 21 C-0.86254883 22.83300781 -0.86254883 22.83300781 -3 24 C-5.58984375 23.55859375 -5.58984375 23.55859375 -8 22 C-9.44140625 19.28515625 -9.44140625 19.28515625 -10.5625 16.0625 C-11.62734001 12.870842 -11.62734001 12.870842 -13 10 C-15.05663161 8.27019925 -15.05663161 8.27019925 -17 7 C-17 6.34 -17 5.68 -17 5 C-15.53626953 4.70996094 -15.53626953 4.70996094 -14.04296875 4.4140625 C-12.13451172 4.02347656 -12.13451172 4.02347656 -10.1875 3.625 C-8.92292969 3.36976562 -7.65835938 3.11453125 -6.35546875 2.8515625 C-2.89760982 2.17222819 -2.89760982 2.17222819 0 0 Z " fill="#EAB208" transform="translate(66,43)"/>
<path d="M0 0 C2.64 0 5.28 0 8 0 C8 8.58 8 17.16 8 26 C5.36 26 2.72 26 0 26 C0 17.42 0 8.84 0 0 Z " fill="#FFFFFF" transform="translate(233,46)"/>
<path d="M0 0 C1.32 0 2.64 0 4 0 C4 0.66 4 1.32 4 2 C4.886875 2.144375 5.77375 2.28875 6.6875 2.4375 C9.47117646 2.91019978 12.23483757 3.43070185 15 4 C14.731875 4.639375 14.46375 5.27875 14.1875 5.9375 C12.99686182 8.83401404 12.99686182 8.83401404 12.41015625 11.265625 C11.76028338 13.64977399 11.12009574 15.79494878 10 18 C6.8125 19.5625 6.8125 19.5625 4 20 C2.015625 18.515625 2.015625 18.515625 0 16 C-0.2906124 13.10550051 -0.38186045 10.62050065 -0.25 7.75 C-0.23195313 7.00492188 -0.21390625 6.25984375 -0.1953125 5.4921875 C-0.14835649 3.66090299 -0.07661652 1.83028351 0 0 Z " fill="#EE4556" transform="translate(19,47)"/>
<path d="M0 0 C0.33 0 0.66 0 1 0 C1 6.93 1 13.86 1 21 C-3.29 21 -7.58 21 -12 21 C-12.36873561 17.99743862 -12.58501174 15.91992702 -12 13 C-10.47833718 10.93242989 -8.80975032 9.37257381 -6.88671875 7.67578125 C-5.08720721 6.07745734 -3.62408621 4.43965487 -2.125 2.5625 C-1.42375 1.716875 -0.7225 0.87125 0 0 Z " fill="#EA814B" transform="translate(317,53)"/>
<path d="M0 0 C7.82804886 2.97686365 15.02448142 6.34965428 22 11 C19.51295867 12.93436548 17.96459084 14.10455191 15 15 C11.15695008 14.46939123 7.63286481 13.34015266 4 12 C4 11.34 4 10.68 4 10 C2.68 10 1.36 10 0 10 C0 6.7 0 3.4 0 0 Z " fill="#EAAF0B" transform="translate(19,37)"/>
<path d="M0 0 C3.63 0 7.26 0 11 0 C11 5.28 11 10.56 11 16 C8.36 15.34 5.72 14.68 3 14 C3 13.34 3 12.68 3 12 C2.01 12 1.02 12 0 12 C0 8.04 0 4.08 0 0 Z " fill="#EAB209" transform="translate(0,36)"/>
<path d="M0 0 C0.66 0.66 1.32 1.32 2 2 C1.52418422 4.59055258 1.06232199 6.61443483 0 9 C-1.61527794 10.93167259 -3.34444106 12.59166932 -5.203125 14.2890625 C-6.90242584 15.90709243 -8.19210063 17.5420775 -9.5625 19.4375 C-10.366875 20.283125 -11.17125 21.12875 -12 22 C-15.3125 22.375 -15.3125 22.375 -18 22 C-17.0690673 19.26390845 -16.20641965 17.23773849 -14.30078125 15.04296875 C-13.64464844 14.43066406 -12.98851562 13.81835938 -12.3125 13.1875 C-8.78381176 9.80047443 -5.53393262 6.27526098 -2.34765625 2.56640625 C-1.59150381 1.68751602 -0.81982149 0.81982149 0 0 Z " fill="#EB7061" transform="translate(348,26)"/>
<path d="M0 0 C3.96 0 7.92 0 12 0 C12.33 0.66 12.66 1.32 13 2 C12.45730469 2.66386719 11.91460937 3.32773438 11.35546875 4.01171875 C10.28232422 5.33623047 10.28232422 5.33623047 9.1875 6.6875 C8.47980469 7.55761719 7.77210938 8.42773438 7.04296875 9.32421875 C4.96009296 11.94311426 4.96009296 11.94311426 3.36328125 14.76953125 C2.68845703 15.87361328 2.68845703 15.87361328 2 17 C1.34 17.33 0.68 17.66 0 18 C0 12.06 0 6.12 0 0 Z " fill="#EA9E23" transform="translate(337,10)"/>
<path d="M0 0 C0.33 0 0.66 0 1 0 C1 3.3 1 6.6 1 10 C0.01 10.495 0.01 10.495 -1 11 C-1.433125 11.721875 -1.86625 12.44375 -2.3125 13.1875 C-4.976892 17.62815334 -8.30785304 21.37225095 -12 25 C-12.3184741 21.94264866 -12.37181516 19.05555791 -12 16 C-9.48764672 9.92282113 -4.58004368 4.62929146 0 0 Z " fill="#EC7D25" transform="translate(317,26)"/>
<path d="M0 0 C2.8125 -0.3125 2.8125 -0.3125 6 0 C7.9375 2 7.9375 2 9 5 C8.93837426 7.77829356 8.51282925 10.24937041 8 13 C4.06845568 13 1.4934597 11.74672985 -2 10 C-2.33 9.01 -2.66 8.02 -3 7 C-2.07796291 4.63477442 -1.08301035 2.29598193 0 0 Z " fill="#EAB208" transform="translate(40,56)"/>
<path d="M0 0 C4.85963179 0.60745397 8.7405518 2.72758967 13 5 C13.25 7.3125 13.25 7.3125 13 10 C11.3125 11.9375 11.3125 11.9375 9 13 C6.5 12.3828125 6.5 12.3828125 4 11 C2.63671875 8.65234375 2.63671875 8.65234375 1.6875 5.9375 C1.36136719 5.03902344 1.03523438 4.14054687 0.69921875 3.21484375 C0 1 0 1 0 0 Z " fill="#EE4451" transform="translate(54,54)"/>
<path d="M0 0 C0.33 0 0.66 0 1 0 C1 4.29 1 8.58 1 13 C-2.96 13 -6.92 13 -11 13 C-7.58224707 8.31052505 -4.28642779 3.91901969 0 0 Z " fill="#EA755B" transform="translate(317,61)"/>
<path d="M0 0 C2.85858653 -0.2422531 5.19549 -0.42904817 8 0 C10.6875 2.3125 10.6875 2.3125 13 5 C13.928125 5.556875 14.85625 6.11375 15.8125 6.6875 C16.8953125 7.3371875 16.8953125 7.3371875 18 8 C18 8.66 18 9.32 18 10 C18.66 10.33 19.32 10.66 20 11 C17.5 11.875 17.5 11.875 14 12 C11.00207403 10.37271049 8.40880798 8.41455693 6 6 C5.67 5.01 5.34 4.02 5 3 C2.49552484 1.78130071 2.49552484 1.78130071 0 1 C0 0.67 0 0.34 0 0 Z " fill="#F1765F" transform="translate(39,36)"/>
<path d="M0 0 C1.46224799 0.42423244 2.91973412 0.86490245 4.375 1.3125 C5.18710937 1.55613281 5.99921875 1.79976563 6.8359375 2.05078125 C7.55007812 2.36402344 8.26421875 2.67726563 9 3 C9.99 4.485 9.99 4.485 11 6 C10.34 7.32 9.68 8.64 9 10 C5.8125 9.75 5.8125 9.75 2 9 C-0.9375 6.9375 -0.9375 6.9375 -3 5 C-2.01 3.35 -1.02 1.7 0 0 Z " fill="#EC881F" transform="translate(36,65)"/>
<path d="M0 0 C0.66 0.33 1.32 0.66 2 1 C1.24074219 1.80824219 0.48148437 2.61648437 -0.30078125 3.44921875 C-1.30491813 4.52843129 -2.30881153 5.60787041 -3.3125 6.6875 C-3.81201172 7.21794922 -4.31152344 7.74839844 -4.82617188 8.29492188 C-7.67066355 11.36546587 -9.91797165 14.3460699 -12 18 C-13.18216802 19.62354517 -14.39036385 21.22848809 -15.625 22.8125 C-16.54152344 23.99779297 -16.54152344 23.99779297 -17.4765625 25.20703125 C-17.97929687 25.79871094 -18.48203125 26.39039062 -19 27 C-19.33 27 -19.66 27 -20 27 C-20.5 24.5 -20.5 24.5 -20 21 C-18.23467288 18.81692371 -16.28806553 16.98691833 -14.2265625 15.08203125 C-12.09710751 13.09080404 -10.20573491 11.02683423 -8.3125 8.8125 C-5.6610837 5.72931636 -2.91879192 2.83034368 0 0 Z " fill="#EAA41B" transform="translate(325,35)"/>
<path d="M0 0 C2.3400417 0.28241883 4.67504723 0.61250787 7 1 C7 3.31 7 5.62 7 8 C5 9 5 9 1.875 9.0625 C0.92625 9.041875 -0.0225 9.02125 -1 9 C-2.0625 6.6875 -2.0625 6.6875 -3 4 C-2.67 3.01 -2.34 2.02 -2 1 C-1.34 0.67 -0.68 0.34 0 0 Z " fill="#F4A032" transform="translate(234,31)"/>
<path d="M0 0 C2.1875 0.5625 2.1875 0.5625 5 2 C6.88102834 4.20131154 8.46081696 6.55040657 10 9 C9.67 9.66 9.34 10.32 9 11 C6.6875 11.875 6.6875 11.875 4 12 C1.6875 10.5625 1.6875 10.5625 0 8 C-0.33107933 5.24100561 -0.18642023 2.79630351 0 0 Z " fill="#ED467D" transform="translate(19,55)"/>
<path d="M0 0 C0.33 0 0.66 0 1 0 C1.25 3.0625 1.25 3.0625 1 7 C-1.71797405 13.22869053 -6.07801862 17.40057565 -11 22 C-11.66 21.01 -12.32 20.02 -13 19 C-12.14535156 18.13117187 -11.29070312 17.26234375 -10.41015625 16.3671875 C-9.29362564 15.20374384 -8.17777574 14.03964663 -7.0625 12.875 C-6.49853516 12.30523437 -5.93457031 11.73546875 -5.35351562 11.1484375 C-3.77548423 9.48536249 -2.32084366 7.87471137 -1 6 C-0.04240186 2.74430789 -0.04240186 2.74430789 0 0 Z " fill="#ED5881" transform="translate(349,28)"/>
<path d="M0 0 C0.7265625 1.7578125 0.7265625 1.7578125 1 4 C-0.4765625 5.9296875 -0.4765625 5.9296875 -2.625 7.875 C-5.23709188 10.30930552 -7.63351701 12.6706744 -9.8125 15.5 C-10.8953125 16.7375 -10.8953125 16.7375 -12 18 C-12.99 18 -13.98 18 -15 18 C-13.34890181 13.93122232 -10.46404222 11.02285879 -7.5 7.875 C-7.00113281 7.33746094 -6.50226563 6.79992188 -5.98828125 6.24609375 C-4.02214504 4.13236554 -2.04136111 2.04136111 0 0 Z " fill="#EB6570" transform="translate(348,30)"/>
<path d="M0 0 C0.33 0 0.66 0 1 0 C1.34375 2.6015625 1.34375 2.6015625 1 6 C-0.53902709 8.41784654 -2.47414426 10.35909932 -4.5 12.375 C-5.02464844 12.92027344 -5.54929687 13.46554688 -6.08984375 14.02734375 C-7.38001995 15.36443545 -8.68828775 16.68402894 -10 18 C-10.578125 16.08984375 -10.578125 16.08984375 -11 14 C-9.75 12.5625 -9.75 12.5625 -8 11 C-7.54625 10.236875 -7.0925 9.47375 -6.625 8.6875 C-4.67907402 5.4692378 -2.49053707 2.81823932 0 0 Z " fill="#EA8B3E" transform="translate(348,14)"/>
<path d="M0 0 C2.9719385 1.12451727 5.33440687 2.22293791 8 4 C8.875 5.9375 8.875 5.9375 9 8 C7.5625 9.75 7.5625 9.75 6 11 C6 10.34 6 9.68 6 9 C3.06279492 7.47700477 0.0831351 6.19899698 -3 5 C-1.125 1.125 -1.125 1.125 0 0 Z " fill="#EC7728" transform="translate(7,6)"/>
<path d="M0 0 C0.99 0 1.98 0 3 0 C3 0.66 3 1.32 3 2 C3.763125 1.95875 4.52625 1.9175 5.3125 1.875 C6.199375 1.91625 7.08625 1.9575 8 2 C8.99 2.66 9.98 3.32 11 4 C11.1875 6.625 11.1875 6.625 11 9 C6.87248551 8.39301257 3.6678852 6.96189209 0 5 C0 3.35 0 1.7 0 0 Z " fill="#ED702C" transform="translate(0,48)"/>
<path d="M0 0 C1.32 0.33 2.64 0.66 4 1 C2.2790132 2.99170383 0.55061848 4.97585874 -1.19140625 6.94921875 C-2.53706232 8.47507067 -3.86660376 10.0151644 -5.1875 11.5625 C-5.785625 12.036875 -6.38375 12.51125 -7 13 C-8.32 12.67 -9.64 12.34 -11 12 C-7.37 8.04 -3.74 4.08 0 0 Z " fill="#EA8C3C" transform="translate(331,35)"/>
<path d="M0 0 C3.28943459 0.3869923 5.37142044 1.20323005 8.3125 2.8125 C9.199375 3.534375 10.08625 4.25625 11 5 C11 6.32 11 7.64 11 9 C8.36 8.34 5.72 7.68 3 7 C3 6.34 3 5.68 3 5 C2.01 5 1.02 5 0 5 C0 3.35 0 1.7 0 0 Z " fill="#EB8D1C" transform="translate(0,43)"/>
<path d="M0 0 C0 0.99 0 1.98 0 3 C-1.43701172 4.83764648 -1.43701172 4.83764648 -3.4296875 6.87109375 C-4.14253906 7.61037109 -4.85539062 8.34964844 -5.58984375 9.11132812 C-6.34394531 9.87896484 -7.09804688 10.64660156 -7.875 11.4375 C-9.35583781 12.95286511 -10.8325713 14.47225455 -12.3046875 15.99609375 C-12.96452637 16.66825928 -13.62436523 17.3404248 -14.30419922 18.03295898 C-15.95204691 19.9443769 -16.98881581 21.6993152 -18 24 C-19.32 23.67 -20.64 23.34 -22 23 C-21.14277344 22.154375 -20.28554688 21.30875 -19.40234375 20.4375 C-11.08547563 12.19902478 -11.08547563 12.19902478 -3.26953125 3.48828125 C-2 2 -2 2 0 0 Z " fill="#EB7956" transform="translate(348,24)"/>
<path d="M0 0 C2.97 0 5.94 0 9 0 C8.06862408 1.29608947 7.1296434 2.58671632 6.1875 3.875 C5.66542969 4.59429688 5.14335937 5.31359375 4.60546875 6.0546875 C3 8 3 8 0 10 C0 6.7 0 3.4 0 0 Z " fill="#EAA911" transform="translate(337,10)"/>
<path d="M0 0 C0.6953125 1.7890625 0.6953125 1.7890625 1 4 C-0.2578125 5.7109375 -0.2578125 5.7109375 -2.125 7.375 C-5.39259781 10.40685929 -8.20656219 13.52936514 -11 17 C-11.6953125 15.2109375 -11.6953125 15.2109375 -12 13 C-10.7421875 11.2890625 -10.7421875 11.2890625 -8.875 9.625 C-5.60740219 6.59314071 -2.79343781 3.47063486 0 0 Z " fill="#EA8B3D" transform="translate(317,53)"/>
<path d="M0 0 C2.86952504 0.62491879 5.2701532 1.52550106 7.875 2.875 C8.56335937 3.22820313 9.25171875 3.58140625 9.9609375 3.9453125 C10.63382813 4.29335938 11.30671875 4.64140625 12 5 C13.155 5.5775 14.31 6.155 15.5 6.75 C16.325 7.1625 17.15 7.575 18 8 C17.67 8.99 17.34 9.98 17 11 C16.48050781 10.73445313 15.96101563 10.46890625 15.42578125 10.1953125 C12.39525075 8.66044123 9.42123112 7.16274839 6.25 5.9375 C3.80439829 4.91849929 1.97882875 3.75895889 0 2 C0 1.34 0 0.68 0 0 Z " fill="#EB8F1C" transform="translate(49,48)"/>
<path d="M0 0 C1.32 0 2.64 0 4 0 C4 0.66 4 1.32 4 2 C4.886875 2.144375 5.77375 2.28875 6.6875 2.4375 C9.47117646 2.91019978 12.23483757 3.43070185 15 4 C14.67 4.99 14.34 5.98 14 7 C7.10431846 6.52443576 7.10431846 6.52443576 4.1328125 5.11328125 C2.5 4.0625 2.5 4.0625 0 2 C0 1.34 0 0.68 0 0 Z " fill="#ED6830" transform="translate(19,47)"/>
<path d="M0 0 C0.6015625 1.8828125 0.6015625 1.8828125 1 4 C-0.625 5.875 -0.625 5.875 -3 8 C-6.05815361 11.50568828 -8.72915235 14.93637789 -11 19 C-11.33 18.01 -11.66 17.02 -12 16 C-9.39634008 9.88411134 -4.45144996 4.82347316 0 0 Z " fill="#ED6730" transform="translate(317,26)"/>
<path d="M0 0 C2.5 0.3125 2.5 0.3125 5 1 C5.66 1.66 6.32 2.32 7 3 C7.56520003 5.65537372 7.73788198 8.29144713 8 11 C0.51708428 4.84965831 0.51708428 4.84965831 -2 1 C-1.34 0.67 -0.68 0.34 0 0 Z " fill="#EE6F3A" transform="translate(23,18)"/>
<path d="M0 0 C0.33 0 0.66 0 1 0 C1.3359375 2.14453125 1.3359375 2.14453125 1 5 C-0.74478784 7.10950102 -2.37961328 8.85423845 -4.375 10.6875 C-5.13683594 11.41549805 -5.13683594 11.41549805 -5.9140625 12.15820312 C-7.26675855 13.44860397 -8.63269927 14.72508445 -10 16 C-10.66 16.66 -11.32 17.32 -12 18 C-11.7421875 15.75 -11.7421875 15.75 -11 13 C-9.2578125 10.9375 -9.2578125 10.9375 -7.125 9 C-4.14645945 6.1866379 -1.93824538 3.64846189 0 0 Z " fill="#EE4F90" transform="translate(349,36)"/>
<path d="M0 0 C0.33 0 0.66 0 1 0 C1 2.97 1 5.94 1 9 C-1.64 9 -4.28 9 -7 9 C-6.02180976 7.68677212 -5.0424189 6.37443848 -4.0625 5.0625 C-3.51722656 4.33160156 -2.97195313 3.60070312 -2.41015625 2.84765625 C-1 1 -1 1 0 0 Z " fill="#EA666F" transform="translate(317,65)"/>
<path d="M0 0 C0.66 0 1.32 0 2 0 C2 0.66 2 1.32 2 2 C1.01 2.495 1.01 2.495 0 3 C-0.6496875 4.0828125 -0.6496875 4.0828125 -1.3125 5.1875 C-3.96196666 9.60327777 -7.25698345 13.45398432 -11 17 C-10.75 14.75 -10.75 14.75 -10 12 C-8.71034824 10.62437146 -7.37310707 9.29233607 -6 8 C-4.98812105 6.34051852 -3.9873454 4.67419438 -3 3 C-1.4375 1.1875 -1.4375 1.1875 0 0 Z " fill="#EB911A" transform="translate(316,34)"/>
<path d="M0 0 C0.66 0 1.32 0 2 0 C3.66666667 1.66666667 5.33333333 3.33333333 7 5 C7.928125 5.556875 8.85625 6.11375 9.8125 6.6875 C10.534375 7.120625 11.25625 7.55375 12 8 C12 8.66 12 9.32 12 10 C12.66 10.33 13.32 10.66 14 11 C12.68 11.33 11.36 11.66 10 12 C9.938125 11.071875 9.938125 11.071875 9.875 10.125 C9.58625 9.42375 9.2975 8.7225 9 8 C7.00428677 7.32060826 5.00405227 6.65438441 3 6 C1.75 3.9375 1.75 3.9375 1 2 C0.34 1.67 -0.32 1.34 -1 1 C-0.67 0.67 -0.34 0.34 0 0 Z " fill="#EF974B" transform="translate(45,36)"/>
<path d="M0 0 C0.33 0.99 0.66 1.98 1 3 C0.38511719 3.65226562 -0.22976563 4.30453125 -0.86328125 4.9765625 C-1.67152344 5.85054687 -2.47976563 6.72453125 -3.3125 7.625 C-4.11300781 8.48351563 -4.91351563 9.34203125 -5.73828125 10.2265625 C-8.01794872 13.02200966 -9.51580738 15.72420916 -11 19 C-11.64208984 17.19775391 -11.64208984 17.19775391 -12 15 C-10.28160357 12.60841734 -8.59980021 10.53283048 -6.625 8.375 C-2.92672536 4.45966732 -2.92672536 4.45966732 0 0 Z " fill="#EE543B" transform="translate(317,23)"/>
<path d="M0 0 C0 0.99 0 1.98 0 3 C-0.99 3.66 -1.98 4.32 -3 5 C-1.125 1.125 -1.125 1.125 0 0 Z M-4 5 C-4 5.99 -4 6.98 -4 8 C-5.3125 10.04296875 -5.3125 10.04296875 -7 12.1875 C-7.556875 12.90292969 -8.11375 13.61835938 -8.6875 14.35546875 C-9.120625 14.89816406 -9.55375 15.44085938 -10 16 C-10.71484375 14.234375 -10.71484375 14.234375 -11 12 C-9.56640625 10.078125 -9.56640625 10.078125 -7.5625 8.25 C-6.90378906 7.63640625 -6.24507813 7.0228125 -5.56640625 6.390625 C-5.04949219 5.93171875 -4.53257812 5.4728125 -4 5 Z " fill="#EA952F" transform="translate(348,12)"/>
<path d="M0 0 C2.97 0.99 5.94 1.98 9 3 C9 3.99 9 4.98 9 6 C7.25 6.6875 7.25 6.6875 5 7 C2.8125 5.8125 2.8125 5.8125 1 4 C0.67 2.68 0.34 1.36 0 0 Z " fill="#ED466C" transform="translate(56,60)"/>
<path d="M0 0 C4.78296895 1.34521002 7.82688263 4.27943159 11.42578125 7.5390625 C11.94527344 8.02117188 12.46476562 8.50328125 13 9 C12.67 9.66 12.34 10.32 12 11 C11.34 10.67 10.68 10.34 10 10 C10 9.34 10 8.68 10 8 C9.278125 7.7525 8.55625 7.505 7.8125 7.25 C4.72393418 5.87730408 2.48988582 4.27646704 0 2 C0 1.34 0 0.68 0 0 Z " fill="#EEAE3B" transform="translate(47,36)"/>
<path d="M0 0 C3.33333333 1.66666667 6.66666667 3.33333333 10 5 C10 5.66 10 6.32 10 7 C6.8125 6.75 6.8125 6.75 3 6 C0.0625 3.9375 0.0625 3.9375 -2 2 C-1.34 1.34 -0.68 0.68 0 0 Z " fill="#EE5D36" transform="translate(35,68)"/>
<path d="M0 0 C4.85963179 0.60745397 8.7405518 2.72758967 13 5 C12.01 5.33 11.02 5.66 10 6 C7.64811553 5.40206327 5.31074405 4.74118205 3 4 C3 3.34 3 2.68 3 2 C2.01 1.67 1.02 1.34 0 1 C0 0.67 0 0.34 0 0 Z " fill="#EE5839" transform="translate(54,54)"/>
<path d="M0 0 C-0.66 1.65 -1.32 3.3 -2 5 C-2.66 5 -3.32 5 -4 5 C-4 5.99 -4 6.98 -4 8 C-4.66 8 -5.32 8 -6 8 C-6.5625 6.1875 -6.5625 6.1875 -7 4 C-6.67 3.01 -6.34 2.02 -6 1 C-4 0 -4 0 0 0 Z " fill="#EE503F" transform="translate(238,31)"/>
<path d="M0 0 C0.66 0 1.32 0 2 0 C1.34 1.65 0.68 3.3 0 5 C-0.99 5 -1.98 5 -3 5 C-1.625 2.5 -1.625 2.5 0 0 Z M-4 6 C-4 6.99 -4 7.98 -4 9 C-6.5 11.6875 -6.5 11.6875 -9 14 C-8.06204028 11.33042235 -7.27642919 9.30832487 -5.375 7.1875 C-4.92125 6.795625 -4.4675 6.40375 -4 6 Z " fill="#EAA011" transform="translate(316,36)"/>
<path d="M0 0 C2.25 0.25 2.25 0.25 5 1 C7.125 2.9375 7.125 2.9375 9 5 C9.99 5.66 10.98 6.32 12 7 C10.35 7.33 8.7 7.66 7 8 C6.67 7.01 6.34 6.02 6 5 C4.02514795 3.6296945 2.02613283 2.29327628 0 1 C0 0.67 0 0.34 0 0 Z " fill="#EA9816" transform="translate(8,5)"/>
<path d="M0 0 C3.91593446 0.78318689 7.36406635 2.39179858 11 4 C10.67 4.99 10.34 5.98 10 7 C9.01 6.34 8.02 5.68 7 5 C5.453125 4.5359375 5.453125 4.5359375 3.875 4.0625 C2.92625 3.711875 1.9775 3.36125 1 3 C0.67 2.01 0.34 1.02 0 0 Z " fill="#EAA012" transform="translate(37,63)"/>
<path d="M0 0 C0.66 0 1.32 0 2 0 C4.125 2.875 4.125 2.875 6 6 C6 6.66 6 7.32 6 8 C3.5625 7.375 3.5625 7.375 1 6 C0.1875 2.875 0.1875 2.875 0 0 Z " fill="#EC478A" transform="translate(19,59)"/>
<path d="M0 0 C1.4589426 0.47730838 2.91713496 0.95691042 4.375 1.4375 C5.18710938 1.70433594 5.99921875 1.97117188 6.8359375 2.24609375 C9 3 9 3 11 4 C11 4.66 11 5.32 11 6 C6.87248551 5.39301257 3.6678852 3.96189209 0 2 C0 1.34 0 0.68 0 0 Z " fill="#EE5739" transform="translate(0,51)"/>
<path d="M0 0 C2.91280837 1.30574169 4.80294493 2.7074208 7 5 C7.99 5.66 8.98 6.32 10 7 C9.34 7.66 8.68 8.32 8 9 C8 8.34 8 7.68 8 7 C5.06279492 5.47700477 2.0831351 4.19899698 -1 3 C-0.67 2.01 -0.34 1.02 0 0 Z " fill="#EE553B" transform="translate(5,8)"/>
<path d="M0 0 C4.3177458 0.50797009 8.03302114 1.19682779 12 3 C11.67 3.66 11.34 4.32 11 5 C7.37 4.01 3.74 3.02 0 2 C0 1.34 0 0.68 0 0 Z " fill="#EB9319" transform="translate(23,47)"/>
<path d="M0 0 C2.3125 0.25 2.3125 0.25 5 1 C6.8125 3.0625 6.8125 3.0625 8 5 C5.6875 4.75 5.6875 4.75 3 4 C1.1875 1.9375 1.1875 1.9375 0 0 Z " fill="#ED732A" transform="translate(37,68)"/>
<path d="M0 0 C2.3125 0.3125 2.3125 0.3125 5 1 C6.8125 2.5625 6.8125 2.5625 8 4 C5.36 3.67 2.72 3.34 0 3 C0 2.01 0 1.02 0 0 Z " fill="#EA9E13" transform="translate(0,43)"/>
<path d="M0 0 C1.8125 0.3125 1.8125 0.3125 4 1 C5.75 2.4375 5.75 2.4375 7 4 C7 4.66 7 5.32 7 6 C5.68 5.67 4.36 5.34 3 5 C3 4.01 3 3.02 3 2 C2.01 1.67 1.02 1.34 0 1 C0 0.67 0 0.34 0 0 Z " fill="#F18A60" transform="translate(48,42)"/>
<path d="M0 0 C2.375 0.75 2.375 0.75 5 2 C6.3125 4.125 6.3125 4.125 7 6 C5.1875 5.6875 5.1875 5.6875 3 5 C1.25 3.5625 1.25 3.5625 0 2 C0 1.34 0 0.68 0 0 Z " fill="#ED466B" transform="translate(19,55)"/>
</svg>
