<?xml version="1.0" encoding="UTF-8"?>
<svg version="1.1" xmlns="http://www.w3.org/2000/svg" width="419" height="85">
<path d="M0 0 C4.29 0 8.58 0 13 0 C13 8.25 13 16.5 13 25 C19.27 25 25.54 25 32 25 C32 16.75 32 8.5 32 0 C35.96 0 39.92 0 44 0 C45.77916467 1.77916467 45.12764835 4.38313299 45.12939453 6.7890625 C45.13254669 8.0270459 45.13569885 9.2650293 45.13894653 10.54052734 C45.13715675 11.90201859 45.1351058 13.26350951 45.1328125 14.625 C45.13348559 16.01123064 45.13445566 17.39746117 45.13571167 18.78369141 C45.1371884 21.69239422 45.1350349 24.60106637 45.13037109 27.50976562 C45.12467381 31.24596598 45.12795294 34.98209452 45.13394356 38.71829224 C45.13754985 41.58179266 45.13641027 44.44527593 45.13381577 47.30877686 C45.13314668 48.68674732 45.13397426 50.06471932 45.13629532 51.44268799 C45.13882292 53.36543754 45.13429024 55.28819252 45.12939453 57.2109375 C45.12859894 58.30712402 45.12780334 59.40331055 45.12698364 60.53271484 C45 63 45 63 44 64 C40.04 64 36.08 64 32 64 C32 55.42 32 46.84 32 38 C25.73 38 19.46 38 13 38 C13 46.58 13 55.16 13 64 C8.71 64 4.42 64 0 64 C0 42.88 0 21.76 0 0 Z " fill="#EB8E38" transform="translate(305,10)"/>
<path d="M0 0 C2.14186363 1.3485808 4.2690332 2.72102213 6.375 4.125 C6.375 4.785 6.375 5.445 6.375 6.125 C7.035 6.125 7.695 6.125 8.375 6.125 C12.18073507 12.42824871 13.44361755 17.74408344 12.375 25.125 C11.715 25.785 11.055 26.445 10.375 27.125 C6.75 26.75 6.75 26.75 3.375 26.125 C3.07207031 25.22136719 2.76914062 24.31773438 2.45703125 23.38671875 C2.03808594 22.20722656 1.61914062 21.02773438 1.1875 19.8125 C0.78144531 18.64074219 0.37539063 17.46898437 -0.04296875 16.26171875 C-2.17991961 12.02475199 -4.63412536 10.87830392 -8.9375 9.25 C-12.93484557 9.06407695 -16.15495895 10.16039975 -19.625 12.125 C-22.79631855 16.11472333 -23.73602999 20.13949362 -23.78613281 25.15576172 C-23.79574036 25.93692352 -23.8053479 26.71808533 -23.81524658 27.5229187 C-23.8216214 28.77614426 -23.8216214 28.77614426 -23.828125 30.0546875 C-23.83382507 30.92263947 -23.83952515 31.79059143 -23.84539795 32.68484497 C-23.85483108 34.51888821 -23.86137522 36.35294828 -23.86523438 38.18701172 C-23.87494116 40.98304985 -23.90598064 43.77835295 -23.9375 46.57421875 C-23.94403058 48.35937065 -23.94928084 50.14452779 -23.953125 51.9296875 C-23.9654718 52.76112274 -23.9778186 53.59255798 -23.99053955 54.44918823 C-23.96849123 60.234506 -22.91672865 64.35582788 -19.125 68.9375 C-15.64201288 71.6948648 -11.85988949 71.41706134 -7.625 71.125 C-0.46761567 68.03431131 1.48895 60.84935001 4.375 54.125 C7.1875 53.8125 7.1875 53.8125 10.375 54.125 C12.375 56 12.375 56 13.375 59.125 C12.9304801 67.22065024 9.93757774 72.92238998 4 78.375 C-2.29770223 83.4503634 -8.76391122 83.840661 -16.625 83.125 C-22.8545752 81.75727165 -28.30725191 78.70899385 -31.84765625 73.234375 C-35.39359825 66.57461297 -35.78206693 60.11919536 -35.79296875 52.6484375 C-35.79629715 51.84193756 -35.79962555 51.03543762 -35.80305481 50.20449829 C-35.80809974 48.50173509 -35.81046389 46.79896207 -35.81030273 45.09619141 C-35.81247563 42.52879921 -35.83061962 39.96184682 -35.84960938 37.39453125 C-35.93694687 12.31360616 -35.93694687 12.31360616 -29.625 5.125 C-21.79637705 -2.36324804 -10.05028544 -4.98791944 0 0 Z " fill="#ED4563" transform="translate(35.625,1.875)"/>
<path d="M0 0 C2.34400368 2.34400368 2.54411672 3.69775873 3.3125 6.875 C4.29162293 10.25078205 4.89113785 11.87601811 7.25 14.5625 C11.30090145 16.68001667 14.49203919 17.46815268 19.05078125 16.6171875 C21.58218822 15.71141099 23.05573923 14.88247282 25 13 C26.50877275 9.64298064 27.61568929 6.34598132 28.6015625 2.80078125 C30 0 30 0 32.9609375 -1.01953125 C36 -1 36 -1 39 1 C39.38768005 2.89073181 39.38768005 2.89073181 39.40405273 5.21850586 C39.41673691 6.08958481 39.42942108 6.96066376 39.44248962 7.85813904 C39.43955399 8.80085159 39.43661835 9.74356415 39.43359375 10.71484375 C39.4388356 11.68152481 39.44407745 12.64820587 39.44947815 13.6441803 C39.45590907 15.69108112 39.45454757 17.73801885 39.44604492 19.78491211 C39.43754274 22.92172959 39.46626912 26.05672238 39.49804688 29.19335938 C39.49965908 31.17968695 39.49908099 33.16601776 39.49609375 35.15234375 C39.51294472 36.56337624 39.51294472 36.56337624 39.53013611 38.00291443 C39.46072208 44.47175831 39.46072208 44.47175831 37.13085938 47.14306641 C35 48 35 48 32.41015625 47.55859375 C29.20746464 45.48748524 28.67933427 43.63223266 27.4375 40.0625 C25.94884882 35.82319232 25.01712126 33.22270864 21 31 C16.87326665 29.83358878 13.21714982 29.54018784 9.1875 31.0625 C5.32796095 34.48094887 3.29875718 37.7196121 2.125 42.75 C1.75375 43.8225 1.3825 44.895 1 46 C-2.125 47.4375 -2.125 47.4375 -5 48 C-7.35365925 46.31510018 -8.81659058 44.93718203 -9.38500977 42.03268433 C-9.52997462 39.52346417 -9.55415085 37.04072613 -9.53125 34.52734375 C-9.5350769 33.60788467 -9.53890381 32.6884256 -9.54284668 31.74110413 C-9.54556524 29.80029198 -9.53820798 27.85944317 -9.52148438 25.91870117 C-9.50004916 22.944322 -9.52130016 19.97235156 -9.546875 16.99804688 C-9.54423219 15.11197383 -9.53910819 13.22590228 -9.53125 11.33984375 C-9.53934692 10.44917709 -9.54744385 9.55851044 -9.55578613 8.64085388 C-9.46252649 2.5185299 -9.46252649 2.5185299 -7.13085938 -0.09545898 C-4.32810579 -1.28521632 -2.85105834 -0.97536206 0 0 Z " fill="#F06374" transform="translate(28,19)"/>
<path d="M0 0 C0.84111328 0.00064453 1.68222656 0.00128906 2.54882812 0.00195312 C6.42778632 0.029638 9.50220834 0.23492709 13.3125 1.1875 C13.3125 5.4775 13.3125 9.7675 13.3125 14.1875 C12.384375 14.0225 11.45625 13.8575 10.5 13.6875 C3.26481795 12.68751549 -4.51682595 11.67237265 -10.6875 16.1875 C-14.1743071 19.85782326 -14.97113464 22.76380842 -15.125 27.6875 C-14.94141917 32.19134972 -14.39314647 35.45557383 -11.6875 39.1875 C-7.42548622 42.93290605 -2.16654028 43.21903404 3.3125 43.1875 C6.7331707 42.72210263 9.94949724 42.00422924 13.3125 41.1875 C13.3125 45.4775 13.3125 49.7675 13.3125 54.1875 C3.50379953 57.45706682 -9.08250416 58.10231704 -18.5703125 53.58203125 C-24.56008708 49.63673692 -28.60245373 44.02181831 -30.6875 37.1875 C-32.33640634 28.08387423 -31.96013559 20.44417439 -27 12.5 C-19.72948266 2.40598079 -12.2571068 -0.18095185 0 0 Z " fill="#090909" transform="translate(117.6875,17.8125)"/>
<path d="M0 0 C3.3 0 6.6 0 10 0 C10.33 4.95 10.66 9.9 11 15 C12.32 14.34 13.64 13.68 15 13 C20.31237628 12.57838283 23.73772763 12.46840289 28 16 C32.47373924 21.9830833 31.67372062 28.91062162 31 36 C29.80551967 40.42242121 27.76578693 42.50989636 23.875 45 C20.12133104 46.32058716 16.7954171 45.94487744 12.91796875 45.32421875 C8.63696803 44.848552 4.30734559 45 0 45 C0 30.15 0 15.3 0 0 Z M11.8125 22.375 C9.40229543 25.8656411 9.51872763 28.50576552 9.46875 32.66015625 C9.80743575 35.15120569 9.80743575 35.15120569 11.90234375 36.8125 C13.89772007 38.18159275 13.89772007 38.18159275 16.0625 37.9375 C18.73936407 36.64224319 19.63165911 35.66826474 21 33 C21.47022921 30.24094426 21.51921989 27.75412291 21 25 C19.35246985 22.4331496 19.35246985 22.4331496 17 21 C13.99269272 20.73391423 13.99269272 20.73391423 11.8125 22.375 Z " fill="#080808" transform="translate(387,26)"/>
<path d="M0 0 C3.3 0 6.6 0 10 0 C10.75115321 3.00461285 11.16527775 5.305555 11.31640625 8.328125 C11.37924805 9.52695312 11.37924805 9.52695312 11.44335938 10.75 C11.48267578 11.575 11.52199219 12.4 11.5625 13.25 C11.60568359 14.09046875 11.64886719 14.9309375 11.69335938 15.796875 C11.79908543 17.86440671 11.90001295 19.93218281 12 22 C13.66611905 22.042721 15.33382885 22.04063832 17 22 C18.6085029 20.3914971 18.33543801 18.53212353 18.53515625 16.30859375 C18.62216797 15.36435547 18.70917969 14.42011719 18.79882812 13.44726562 C18.88583984 12.45404297 18.97285156 11.46082031 19.0625 10.4375 C19.15337891 9.44041016 19.24425781 8.44332031 19.33789062 7.41601562 C19.56258568 4.94437007 19.78179998 2.47222741 20 0 C23.3 0 26.6 0 30 0 C30 10.23 30 20.46 30 31 C20 31 20 31 18 30 C17.29875 30.33 16.5975 30.66 15.875 31 C12.02318496 32.33976175 8.88076608 32.27464492 5 31 C1.77190042 27.85467221 0.09812825 25.11935909 -0.11352539 20.5480957 C-0.10828857 19.60023193 -0.10305176 18.65236816 -0.09765625 17.67578125 C-0.09443359 16.64775391 -0.09121094 15.61972656 -0.08789062 14.56054688 C-0.07951172 13.48869141 -0.07113281 12.41683594 -0.0625 11.3125 C-0.05798828 10.22904297 -0.05347656 9.14558594 -0.04882812 8.02929688 C-0.03703757 5.35284106 -0.01910208 2.67641361 0 0 Z " fill="#080808" transform="translate(353,40)"/>
<path d="M0 0 C4.29 0 8.58 0 13 0 C13 8.25 13 16.5 13 25 C15.97 25 18.94 25 22 25 C21.113125 26.03125 20.22625 27.0625 19.3125 28.125 C18.7659375 28.764375 18.219375 29.40375 17.65625 30.0625 C16.63871327 31.25282598 15.61848329 32.44086376 14.59375 33.625 C12.75756519 35.77467978 11.0714991 37.87975152 9.625 40.3125 C7.11488825 44.46383866 4.14061986 48.30373201 1 52 C0.67 52 0.34 52 0 52 C0 34.84 0 17.68 0 0 Z " fill="#EAAD0D" transform="translate(305,10)"/>
<path d="M0 0 C1.53708186 1.53708186 1.14963484 2.96329032 1.17700195 5.10498047 C1.18983719 5.97613495 1.20267242 6.84728943 1.21589661 7.74484253 C1.22328354 8.69271637 1.23067047 9.64059021 1.23828125 10.6171875 C1.246353 11.58528351 1.25442474 12.55337952 1.26274109 13.55081177 C1.27659884 15.60368041 1.28731339 17.65657226 1.29516602 19.70947266 C1.31239012 22.85493424 1.35626241 25.99934818 1.40039062 29.14453125 C1.41051597 31.13540891 1.41903257 33.12629553 1.42578125 35.1171875 C1.44328934 36.06101288 1.46079742 37.00483826 1.47883606 37.9772644 C1.45717488 44.47405136 1.45717488 44.47405136 -0.86474609 47.14526367 C-3 48 -3 48 -5.58984375 47.55859375 C-8.79253536 45.48748524 -9.32066573 43.63223266 -10.5625 40.0625 C-12.10115807 35.68078514 -13.15207854 33.59510982 -17 31 C-17 30.34 -17 29.68 -17 29 C-13.535 28.505 -13.535 28.505 -10 28 C-9.67 27.01 -9.34 26.02 -9 25 C-9.721875 24.7525 -10.44375 24.505 -11.1875 24.25 C-14.24713266 22.89016326 -16.4673738 21.17082246 -19 19 C-18 16 -18 16 -15.60546875 14.7265625 C-12.12887943 12.42273569 -11.61734929 10.28521283 -10.3125 6.375 C-7.98594936 -0.49097682 -7.25666895 -1.54397212 0 0 Z " fill="#ECBC26" transform="translate(66,19)"/>
<path d="M0 0 C0.66 0.33 1.32 0.66 2 1 C2.02527002 7.53278786 2.04283292 14.06556321 2.05493164 20.59838867 C2.05997317 22.82267732 2.06680623 25.04696263 2.07543945 27.27124023 C2.08751298 30.46078309 2.09322996 33.65028229 2.09765625 36.83984375 C2.10281754 37.84087631 2.10797882 38.84190887 2.11329651 39.87327576 C2.11340981 41.25459435 2.11340981 41.25459435 2.11352539 42.66381836 C2.115746 43.47878281 2.11796661 44.29374725 2.12025452 45.13340759 C2 47 2 47 1 48 C-2.96 48 -6.92 48 -11 48 C-11 39.42 -11 30.84 -11 22 C-13.31 22 -15.62 22 -18 22 C-16.70176525 18.18437605 -15.25033142 15.92909121 -12.3125 13.1875 C-8.78381176 9.80047443 -5.53393262 6.27526098 -2.34765625 2.56640625 C-1.59150381 1.68751602 -0.81982149 0.81982149 0 0 Z " fill="#ED499A" transform="translate(348,26)"/>
<path d="M0 0 C2.14186363 1.3485808 4.2690332 2.72102213 6.375 4.125 C6.375 4.785 6.375 5.445 6.375 6.125 C7.035 6.125 7.695 6.125 8.375 6.125 C12.18073507 12.42824871 13.44361755 17.74408344 12.375 25.125 C11.715 25.785 11.055 26.445 10.375 27.125 C6.75 26.75 6.75 26.75 3.375 26.125 C3.07207031 25.22136719 2.76914062 24.31773438 2.45703125 23.38671875 C2.03808594 22.20722656 1.61914062 21.02773438 1.1875 19.8125 C0.57841797 18.05486328 0.57841797 18.05486328 -0.04296875 16.26171875 C-2.16207225 12.06013824 -4.5734037 10.86585422 -8.875 9.3125 C-12.97074435 9.0332447 -16.68103003 10.08530421 -20.625 11.125 C-20.955 10.135 -21.285 9.145 -21.625 8.125 C-23.58097184 6.72787726 -25.57936401 5.38720093 -27.625 4.125 C-21.10689186 -3.39589401 -8.73346307 -4.33438538 0 0 Z " fill="#EAB30A" transform="translate(35.625,1.875)"/>
<path d="M0 0 C2.63810808 2.63810808 3.91641557 5.25141381 4.09765625 9.04296875 C4.06510417 11.02864583 4.03255208 13.01432292 4 15 C-0.95 15.33 -5.9 15.66 -11 16 C-9.07231782 18.37221208 -9.07231782 18.37221208 -5.625 18.1875 C-2.85272822 18.04410663 -0.61594556 17.83710258 2 17 C2 19.31 2 21.62 2 24 C-3.66700998 26.92490838 -9.40217899 26.81783254 -15.375 24.9375 C-18.88835651 22.34430829 -19.75291724 20.15694255 -21 16 C-21.55254919 10.75078266 -20.86327143 7.44300739 -18 3 C-12.37443769 -2.4775212 -7.09824232 -2.89472789 0 0 Z M-10 5 C-10.66 6.32 -11.32 7.64 -12 9 C-9.36 9 -6.72 9 -4 9 C-4.66 7.68 -5.32 6.36 -6 5 C-7.32 5 -8.64 5 -10 5 Z " fill="#080808" transform="translate(176,46)"/>
<path d="M0 0 C4.02549065 4.48477481 3.34375155 9.64337312 3.1875 15.3125 C3.16719727 16.70952148 3.16719727 16.70952148 3.14648438 18.13476562 C3.11126882 20.42377646 3.06202099 22.71158458 3 25 C-0.33333333 25 -3.66666667 25 -7 25 C-8.093125 25.20625 -9.18625 25.4125 -10.3125 25.625 C-14.06272428 26.00637874 -15.75609842 25.81276853 -19 24 C-20.73538432 20.52923137 -20.45239921 16.79475156 -20 13 C-18.625 10.5 -18.625 10.5 -16 9 C-12.67063019 8.39466003 -9.3790312 8.12897066 -6 8 C-6.33 7.34 -6.66 6.68 -7 6 C-10.63 6.33 -14.26 6.66 -18 7 C-18 4.69 -18 2.38 -18 0 C-11.95107944 -1.85900632 -5.87920597 -3.01043679 0 0 Z M-12 15 C-11.67 16.32 -11.34 17.64 -11 19 C-9.35 18.67 -7.7 18.34 -6 18 C-5.67 16.35 -5.34 14.7 -5 13 C-9.04622502 12.63019987 -9.04622502 12.63019987 -12 15 Z " fill="#080808" transform="translate(204,46)"/>
<path d="M0 0 C3.51964045 1.98407377 5.69850196 4.09550588 7 8 C7.12781786 10.67394964 7.04391871 13.32095857 7 16 C2.05 16.33 -2.9 16.66 -8 17 C-7.67 17.66 -7.34 18.32 -7 19 C-2.8265198 20.35024359 0.73933592 19.7518819 5 19 C5 21.31 5 23.62 5 26 C-0.19640089 27.73213363 -5.5871821 27.60444265 -11 27 C-14.83753787 24.36639558 -16.96627699 21.54838124 -18 17 C-17.99048353 11.78497471 -17.47949705 7.07941034 -14 3 C-9.58062441 0.01949088 -5.22484489 -1.13222285 0 0 Z M-6 6 C-7.81299492 7.22954016 -7.81299492 7.22954016 -9 9 C-9 9.66 -9 10.32 -9 11 C-6.36 11 -3.72 11 -1 11 C-1.33 9.68 -1.66 8.36 -2 7 C-3.83700789 6.22757731 -3.83700789 6.22757731 -6 6 Z " fill="#080808" transform="translate(294,44)"/>
<path d="M0 0 C2.97 0 5.94 0 9 0 C10.76405007 4.65067745 12.42548518 9.27645553 14 14 C15.32 9.38 16.64 4.76 18 0 C21.3 0 24.6 0 28 0 C26.87685665 3.39645758 25.75155928 6.79217551 24.625 10.1875 C24.30789063 11.14720703 23.99078125 12.10691406 23.6640625 13.09570312 C23.3546875 14.02705078 23.0453125 14.95839844 22.7265625 15.91796875 C22.30238037 17.19837036 22.30238037 17.19837036 21.86962891 18.50463867 C20.98715604 21.03685517 20.01453525 23.51808139 19 26 C15.7 26 12.4 26 9 26 C0 5.19672131 0 5.19672131 0 0 Z " fill="#080808" transform="translate(245,46)"/>
<path d="M0 0 C0 2.31 0 4.62 0 7 C1.98 7 3.96 7 6 7 C6 9.31 6 11.62 6 14 C4.02 14 2.04 14 0 14 C0.66 17.96 1.32 21.92 2 26 C3.32 26 4.64 26 6 26 C6 28.31 6 30.62 6 33 C3.56539024 34.21730488 2.25609714 34.04691814 -0.4375 33.8125 C-1.21996094 33.75707031 -2.00242188 33.70164063 -2.80859375 33.64453125 C-5 33 -5 33 -6.7734375 31.43359375 C-8.47418096 28.05918873 -8.32324788 24.9325962 -8.1875 21.25 C-8.17396484 20.55261719 -8.16042969 19.85523437 -8.14648438 19.13671875 C-8.1112945 17.42414459 -8.05749155 15.71197059 -8 14 C-9.32 14 -10.64 14 -12 14 C-12 11.69 -12 9.38 -12 7 C-10.68 7 -9.36 7 -8 7 C-8 5.35 -8 3.7 -8 2 C-4.91190305 0.23537317 -3.76687864 0 0 0 Z " fill="#080808" transform="translate(223,38)"/>
<path d="M0 0 C7.42531357 2.80957811 7.42531357 2.80957811 8.875 5.8125 C9.05200391 8.91006837 7.66412432 10.43980874 6 13 C4.85214923 16.5147982 4.69457156 20.07754912 4.4375 23.75 C4.35371094 24.92046875 4.26992187 26.0909375 4.18359375 27.296875 C4.12300781 28.18890625 4.06242188 29.0809375 4 30 C0.37 30 -3.26 30 -7 30 C-7.55720165 8.82633745 -7.55720165 8.82633745 -1 1 C-0.67 0.67 -0.34 0.34 0 0 Z " fill="#EE4F75" transform="translate(7,6)"/>
<path d="M0 0 C4.29 0 8.58 0 13 0 C14.3826458 13.75817923 14.3826458 13.75817923 11.1015625 19.078125 C8.6875 21.625 8.6875 21.625 6.26171875 23.7890625 C3.69889895 26.29434058 2.44216022 28.74230474 1 32 C0.67 32 0.34 32 0 32 C0 21.44 0 10.88 0 0 Z " fill="#EE4443" transform="translate(305,10)"/>
<path d="M0 0 C5.61 0 11.22 0 17 0 C17 2.64 17 5.28 17 8 C14.69 8 12.38 8 10 8 C9.93941406 8.97582031 9.87882813 9.95164062 9.81640625 10.95703125 C9.73261719 12.22933594 9.64882812 13.50164063 9.5625 14.8125 C9.48128906 16.07707031 9.40007812 17.34164062 9.31640625 18.64453125 C9 22 9 22 8 25 C5.36 25 2.72 25 0 25 C0 16.75 0 8.5 0 0 Z " fill="#080808" transform="translate(135,46)"/>
<path d="M0 0 C0.11604679 3.4372166 0.18719508 6.87393086 0.25 10.3125 C0.30027344 11.77719727 0.30027344 11.77719727 0.3515625 13.27148438 C0.36445312 14.20927734 0.37734375 15.14707031 0.390625 16.11328125 C0.41157227 16.97735596 0.43251953 17.84143066 0.45410156 18.73168945 C0 21 0 21 -1.86254883 22.83300781 C-4 24 -4 24 -6.58984375 23.55859375 C-9.79253536 21.48748524 -10.32066573 19.63223266 -11.5625 16.0625 C-13.10115807 11.68078514 -14.15207854 9.59510982 -18 7 C-18 6.34 -18 5.68 -18 5 C-16.53626953 4.70996094 -16.53626953 4.70996094 -15.04296875 4.4140625 C-13.13451172 4.02347656 -13.13451172 4.02347656 -11.1875 3.625 C-9.92292969 3.36976562 -8.65835938 3.11453125 -7.35546875 2.8515625 C-4.98149241 2.24908655 -2.1820097 0 0 0 Z " fill="#EAB208" transform="translate(67,43)"/>
<path d="M0 0 C2.64 0 5.28 0 8 0 C8 8.58 8 17.16 8 26 C5.36 26 2.72 26 0 26 C0 17.42 0 8.84 0 0 Z " fill="#080808" transform="translate(233,46)"/>
<path d="M0 0 C1.32 0 2.64 0 4 0 C4 0.66 4 1.32 4 2 C4.886875 2.144375 5.77375 2.28875 6.6875 2.4375 C9.47117646 2.91019978 12.23483757 3.43070185 15 4 C14.731875 4.639375 14.46375 5.27875 14.1875 5.9375 C12.99686182 8.83401404 12.99686182 8.83401404 12.41015625 11.265625 C11.76028338 13.64977399 11.12009574 15.79494878 10 18 C6.8125 19.5625 6.8125 19.5625 4 20 C2.015625 18.515625 2.015625 18.515625 0 16 C-0.2906124 13.10550051 -0.38186045 10.62050065 -0.25 7.75 C-0.23195313 7.00492188 -0.21390625 6.25984375 -0.1953125 5.4921875 C-0.14835649 3.66090299 -0.07661652 1.83028351 0 0 Z " fill="#EE4556" transform="translate(19,47)"/>
<path d="M0 0 C0.33 0 0.66 0 1 0 C1 6.93 1 13.86 1 21 C-3.29 21 -7.58 21 -12 21 C-12.8419622 14.14402209 -12.8419622 14.14402209 -10.6171875 11.12109375 C-9.40069469 9.94409746 -8.15595638 8.79569681 -6.88671875 7.67578125 C-5.08720721 6.07745734 -3.62408621 4.43965487 -2.125 2.5625 C-1.42375 1.716875 -0.7225 0.87125 0 0 Z " fill="#EA814B" transform="translate(317,53)"/>
<path d="M0 0 C7.82804886 2.97686365 15.02448142 6.34965428 22 11 C19.51295867 12.93436548 17.96459084 14.10455191 15 15 C11.15695008 14.46939123 7.63286481 13.34015266 4 12 C4 11.34 4 10.68 4 10 C2.68 10 1.36 10 0 10 C0 6.7 0 3.4 0 0 Z " fill="#EAAF0B" transform="translate(19,37)"/>
<path d="M0 0 C3.63 0 7.26 0 11 0 C11 5.28 11 10.56 11 16 C8.36 15.34 5.72 14.68 3 14 C3 13.34 3 12.68 3 12 C2.01 12 1.02 12 0 12 C0 8.04 0 4.08 0 0 Z " fill="#EAB209" transform="translate(0,36)"/>
<path d="M0 0 C0.66 0.66 1.32 1.32 2 2 C0.95068464 7.71293917 -0.93741773 10.39351991 -5.203125 14.2890625 C-6.90242584 15.90709243 -8.19210063 17.5420775 -9.5625 19.4375 C-12 22 -12 22 -15.3125 22.375 C-16.199375 22.25125 -17.08625 22.1275 -18 22 C-16.70176525 18.18437605 -15.25033142 15.92909121 -12.3125 13.1875 C-8.78381176 9.80047443 -5.53393262 6.27526098 -2.34765625 2.56640625 C-1.59150381 1.68751602 -0.81982149 0.81982149 0 0 Z " fill="#EB7061" transform="translate(348,26)"/>
<path d="M0 0 C3.96 0 7.92 0 12 0 C12.33 0.66 12.66 1.32 13 2 C12.45730469 2.66386719 11.91460937 3.32773438 11.35546875 4.01171875 C10.28232422 5.33623047 10.28232422 5.33623047 9.1875 6.6875 C8.47980469 7.55761719 7.77210938 8.42773438 7.04296875 9.32421875 C4.96009296 11.94311426 4.96009296 11.94311426 3.36328125 14.76953125 C2 17 2 17 0 18 C0 12.06 0 6.12 0 0 Z " fill="#EA9E23" transform="translate(337,10)"/>
<path d="M0 0 C0.33 0 0.66 0 1 0 C1 3.3 1 6.6 1 10 C0.01 10.495 0.01 10.495 -1 11 C-1.433125 11.721875 -1.86625 12.44375 -2.3125 13.1875 C-4.976892 17.62815334 -8.30785304 21.37225095 -12 25 C-12.74864719 17.81298698 -11.45014297 13.64273712 -7 8 C-4.7568253 5.24679821 -2.49899432 2.52586523 0 0 Z " fill="#EC7D25" transform="translate(317,26)"/>
<path d="M0 0 C2.8125 -0.3125 2.8125 -0.3125 6 0 C7.9375 2 7.9375 2 9 5 C8.93837426 7.77829356 8.51282925 10.24937041 8 13 C4.06845568 13 1.4934597 11.74672985 -2 10 C-3.39195915 5.82412255 -1.82323219 3.86525224 0 0 Z " fill="#EAB208" transform="translate(40,56)"/>
<path d="M0 0 C4.85963179 0.60745397 8.7405518 2.72758967 13 5 C13.25 7.3125 13.25 7.3125 13 10 C11.3125 11.9375 11.3125 11.9375 9 13 C6.5 12.3828125 6.5 12.3828125 4 11 C2.63671875 8.65234375 2.63671875 8.65234375 1.6875 5.9375 C1.36136719 5.03902344 1.03523438 4.14054687 0.69921875 3.21484375 C0 1 0 1 0 0 Z " fill="#EE4451" transform="translate(54,54)"/>
<path d="M0 0 C0 4.29 0 8.58 0 13 C-3.96 13 -7.92 13 -12 13 C-2.52542373 0 -2.52542373 0 0 0 Z " fill="#EA755B" transform="translate(318,61)"/>
<path d="M0 0 C2.85858653 -0.2422531 5.19549 -0.42904817 8 0 C10.6875 2.3125 10.6875 2.3125 13 5 C13.928125 5.556875 14.85625 6.11375 15.8125 6.6875 C16.8953125 7.3371875 16.8953125 7.3371875 18 8 C18 8.66 18 9.32 18 10 C18.66 10.33 19.32 10.66 20 11 C17.5 11.875 17.5 11.875 14 12 C9.86591728 9.75599881 6.51139061 7.53417182 5 3 C2.49552484 1.78130071 2.49552484 1.78130071 0 1 C0 0.67 0 0.34 0 0 Z " fill="#F1765F" transform="translate(39,36)"/>
<path d="M0 0 C1.46224799 0.42423244 2.91973412 0.86490245 4.375 1.3125 C5.18710937 1.55613281 5.99921875 1.79976563 6.8359375 2.05078125 C9 3 9 3 11 6 C10.34 7.32 9.68 8.64 9 10 C3.71201818 9.58525633 0.88309282 8.64775386 -3 5 C-2.01 3.35 -1.02 1.7 0 0 Z " fill="#EC881F" transform="translate(36,65)"/>
<path d="M0 0 C0.66 0.33 1.32 0.66 2 1 C1.24074219 1.80824219 0.48148437 2.61648437 -0.30078125 3.44921875 C-1.30491813 4.52843129 -2.30881153 5.60787041 -3.3125 6.6875 C-3.81201172 7.21794922 -4.31152344 7.74839844 -4.82617188 8.29492188 C-7.67066355 11.36546587 -9.91797165 14.3460699 -12 18 C-13.18216802 19.62354517 -14.39036385 21.22848809 -15.625 22.8125 C-16.54152344 23.99779297 -16.54152344 23.99779297 -17.4765625 25.20703125 C-17.97929687 25.79871094 -18.48203125 26.39039062 -19 27 C-19.33 27 -19.66 27 -20 27 C-20.5 24.5 -20.5 24.5 -20 21 C-18.23467288 18.81692371 -16.28806553 16.98691833 -14.2265625 15.08203125 C-12.09710751 13.09080404 -10.20573491 11.02683423 -8.3125 8.8125 C-5.6610837 5.72931636 -2.91879192 2.83034368 0 0 Z " fill="#EAA41B" transform="translate(325,35)"/>
<path d="M0 0 C0 2.31 0 4.62 0 7 C-2.70879335 8.35439668 -5.00933268 8.06501451 -8 8 C-10.125 3.375 -10.125 3.375 -9 0 C-5.93109813 -1.53445094 -3.29905734 -0.54984289 0 0 Z " fill="#F4A032" transform="translate(241,32)"/>
<path d="M0 0 C5.29500913 1.36157378 7.23745533 4.60343955 10 9 C9 11 9 11 6.6875 11.875 C4 12 4 12 1.6875 10.5625 C-0.73632831 6.88187182 -0.29025695 4.35385418 0 0 Z " fill="#ED467D" transform="translate(19,55)"/>
<path d="M0 0 C0.33 0 0.66 0 1 0 C1.46676446 5.7178646 0.47212208 9.49768785 -3 14 C-5.56473925 16.78009904 -8.23684095 19.41792176 -11 22 C-11.66 21.01 -12.32 20.02 -13 19 C-12.14535156 18.13117187 -11.29070312 17.26234375 -10.41015625 16.3671875 C-9.29362564 15.20374384 -8.17777574 14.03964663 -7.0625 12.875 C-6.49853516 12.30523437 -5.93457031 11.73546875 -5.35351562 11.1484375 C-1.94512014 7.55635603 -0.24294394 5.15668105 0 0 Z " fill="#ED5881" transform="translate(349,28)"/>
<path d="M0 0 C0.7265625 1.7578125 0.7265625 1.7578125 1 4 C-0.4765625 5.9296875 -0.4765625 5.9296875 -2.625 7.875 C-5.23709188 10.30930552 -7.63351701 12.6706744 -9.8125 15.5 C-10.8953125 16.7375 -10.8953125 16.7375 -12 18 C-12.99 18 -13.98 18 -15 18 C-13.34890181 13.93122232 -10.46404222 11.02285879 -7.5 7.875 C-7.00113281 7.33746094 -6.50226563 6.79992188 -5.98828125 6.24609375 C-4.02214504 4.13236554 -2.04136111 2.04136111 0 0 Z " fill="#EB6570" transform="translate(348,30)"/>
<path d="M0 0 C0.33 0 0.66 0 1 0 C1.38112866 2.88445098 1.57513479 5.09645017 -0.03125 7.62011719 C-1.46191964 9.27534506 -2.94921709 10.83183764 -4.5 12.375 C-5.02464844 12.92027344 -5.54929687 13.46554688 -6.08984375 14.02734375 C-7.38001995 15.36443545 -8.68828775 16.68402894 -10 18 C-10.578125 16.08984375 -10.578125 16.08984375 -11 14 C-9.75 12.5625 -9.75 12.5625 -8 11 C-7.54625 10.236875 -7.0925 9.47375 -6.625 8.6875 C-4.67907402 5.4692378 -2.49053707 2.81823932 0 0 Z " fill="#EA8B3E" transform="translate(348,14)"/>
<path d="M0 0 C7.47003155 2.82649842 7.47003155 2.82649842 8.875 5.9375 C9 8 9 8 7.5625 9.75 C6.7890625 10.36875 6.7890625 10.36875 6 11 C6 10.34 6 9.68 6 9 C3.06279492 7.47700477 0.0831351 6.19899698 -3 5 C-1.125 1.125 -1.125 1.125 0 0 Z " fill="#EC7728" transform="translate(7,6)"/>
<path d="M0 0 C0.99 0 1.98 0 3 0 C3 0.66 3 1.32 3 2 C3.763125 1.95875 4.52625 1.9175 5.3125 1.875 C8 2 8 2 11 4 C11.1875 6.625 11.1875 6.625 11 9 C6.87248551 8.39301257 3.6678852 6.96189209 0 5 C0 3.35 0 1.7 0 0 Z " fill="#ED702C" transform="translate(0,48)"/>
<path d="M0 0 C1.32 0.33 2.64 0.66 4 1 C2.2790132 2.99170383 0.55061848 4.97585874 -1.19140625 6.94921875 C-2.53706232 8.47507067 -3.86660376 10.0151644 -5.1875 11.5625 C-5.785625 12.036875 -6.38375 12.51125 -7 13 C-8.32 12.67 -9.64 12.34 -11 12 C-7.37 8.04 -3.74 4.08 0 0 Z " fill="#EA8C3C" transform="translate(331,35)"/>
<path d="M0 0 C4.50931237 0.53050734 7.48681339 2.1404295 11 5 C11 6.32 11 7.64 11 9 C8.36 8.34 5.72 7.68 3 7 C3 6.34 3 5.68 3 5 C2.01 5 1.02 5 0 5 C0 3.35 0 1.7 0 0 Z " fill="#EB8D1C" transform="translate(0,43)"/>
<path d="M0 0 C0 3.7711698 -0.8489758 4.23757896 -3.4296875 6.87109375 C-4.14253906 7.61037109 -4.85539062 8.34964844 -5.58984375 9.11132812 C-6.34394531 9.87896484 -7.09804688 10.64660156 -7.875 11.4375 C-9.35583781 12.95286511 -10.8325713 14.47225455 -12.3046875 15.99609375 C-12.96452637 16.66825928 -13.62436523 17.3404248 -14.30419922 18.03295898 C-15.95204691 19.9443769 -16.98881581 21.6993152 -18 24 C-19.32 23.67 -20.64 23.34 -22 23 C-21.14277344 22.154375 -20.28554688 21.30875 -19.40234375 20.4375 C-11.08547563 12.19902478 -11.08547563 12.19902478 -3.26953125 3.48828125 C-2 2 -2 2 0 0 Z " fill="#EB7956" transform="translate(348,24)"/>
<path d="M0 0 C2.97 0 5.94 0 9 0 C8.06862408 1.29608947 7.1296434 2.58671632 6.1875 3.875 C5.66542969 4.59429688 5.14335937 5.31359375 4.60546875 6.0546875 C3 8 3 8 0 10 C0 6.7 0 3.4 0 0 Z " fill="#EAA911" transform="translate(337,10)"/>
<path d="M0 0 C0.6953125 1.7890625 0.6953125 1.7890625 1 4 C-0.2578125 5.7109375 -0.2578125 5.7109375 -2.125 7.375 C-5.39259781 10.40685929 -8.20656219 13.52936514 -11 17 C-11.6953125 15.2109375 -11.6953125 15.2109375 -12 13 C-10.7421875 11.2890625 -10.7421875 11.2890625 -8.875 9.625 C-5.60740219 6.59314071 -2.79343781 3.47063486 0 0 Z " fill="#EA8B3D" transform="translate(317,53)"/>
<path d="M0 0 C2.86952504 0.62491879 5.2701532 1.52550106 7.875 2.875 C8.56335937 3.22820313 9.25171875 3.58140625 9.9609375 3.9453125 C10.63382813 4.29335938 11.30671875 4.64140625 12 5 C13.155 5.5775 14.31 6.155 15.5 6.75 C16.325 7.1625 17.15 7.575 18 8 C17.67 8.99 17.34 9.98 17 11 C16.48050781 10.73445313 15.96101563 10.46890625 15.42578125 10.1953125 C12.39525075 8.66044123 9.42123112 7.16274839 6.25 5.9375 C3.80439829 4.91849929 1.97882875 3.75895889 0 2 C0 1.34 0 0.68 0 0 Z " fill="#EB8F1C" transform="translate(49,48)"/>
<path d="M0 0 C1.32 0 2.64 0 4 0 C4 0.66 4 1.32 4 2 C4.886875 2.144375 5.77375 2.28875 6.6875 2.4375 C9.47117646 2.91019978 12.23483757 3.43070185 15 4 C14.67 4.99 14.34 5.98 14 7 C8.06666693 6.59080462 4.61951506 5.81109992 0 2 C0 1.34 0 0.68 0 0 Z " fill="#ED6830" transform="translate(19,47)"/>
<path d="M0 0 C0.6015625 1.8828125 0.6015625 1.8828125 1 4 C-0.625 5.875 -0.625 5.875 -3 8 C-6.05815361 11.50568828 -8.72915235 14.93637789 -11 19 C-12 16 -12 16 -11.25 14.23828125 C-7.9090951 9.09119964 -4.16049066 4.50819738 0 0 Z " fill="#ED6730" transform="translate(317,26)"/>
<path d="M0 0 C3.00617269 3.00617269 2.59585316 5.82381598 3 10 C-4.48291572 3.84965831 -4.48291572 3.84965831 -7 0 C-4.29393021 -1.35303489 -2.8671629 -0.7884698 0 0 Z " fill="#EE6F3A" transform="translate(28,19)"/>
<path d="M0 0 C0.33 0 0.66 0 1 0 C1.3359375 2.14453125 1.3359375 2.14453125 1 5 C-0.74478784 7.10950102 -2.37961328 8.85423845 -4.375 10.6875 C-5.13683594 11.41549805 -5.13683594 11.41549805 -5.9140625 12.15820312 C-7.26675855 13.44860397 -8.63269927 14.72508445 -10 16 C-10.66 16.66 -11.32 17.32 -12 18 C-11.50610028 13.6896024 -10.30962227 11.8929902 -7.125 9 C-4.14645945 6.1866379 -1.93824538 3.64846189 0 0 Z " fill="#EE4F90" transform="translate(349,36)"/>
<path d="M0 0 C0.33 0 0.66 0 1 0 C1 2.97 1 5.94 1 9 C-1.64 9 -4.28 9 -7 9 C-6.02180976 7.68677212 -5.0424189 6.37443848 -4.0625 5.0625 C-3.51722656 4.33160156 -2.97195313 3.60070312 -2.41015625 2.84765625 C-1 1 -1 1 0 0 Z " fill="#EA666F" transform="translate(317,65)"/>
<path d="M0 0 C0 0.66 0 1.32 0 2 C-0.99 2.495 -0.99 2.495 -2 3 C-2.6496875 4.0828125 -2.6496875 4.0828125 -3.3125 5.1875 C-5.96196666 9.60327777 -9.25698345 13.45398432 -13 17 C-12.51016883 12.59151947 -11.17580418 10.98899217 -8 8 C-6.98812105 6.34051852 -5.9873454 4.67419438 -5 3 C-2.4137931 0 -2.4137931 0 0 0 Z " fill="#EB911A" transform="translate(318,34)"/>
<path d="M0 0 C0.66 0 1.32 0 2 0 C3.66666667 1.66666667 5.33333333 3.33333333 7 5 C7.928125 5.556875 8.85625 6.11375 9.8125 6.6875 C10.534375 7.120625 11.25625 7.55375 12 8 C12 8.66 12 9.32 12 10 C12.66 10.33 13.32 10.66 14 11 C12.68 11.33 11.36 11.66 10 12 C9.938125 11.071875 9.938125 11.071875 9.875 10.125 C9.58625 9.42375 9.2975 8.7225 9 8 C7.00428677 7.32060826 5.00405227 6.65438441 3 6 C1.75 3.9375 1.75 3.9375 1 2 C0.34 1.67 -0.32 1.34 -1 1 C-0.67 0.67 -0.34 0.34 0 0 Z " fill="#EF974B" transform="translate(45,36)"/>
<path d="M0 0 C0.33 0.99 0.66 1.98 1 3 C0.38511719 3.65226562 -0.22976563 4.30453125 -0.86328125 4.9765625 C-1.67152344 5.85054687 -2.47976563 6.72453125 -3.3125 7.625 C-4.11300781 8.48351563 -4.91351563 9.34203125 -5.73828125 10.2265625 C-8.01794872 13.02200966 -9.51580738 15.72420916 -11 19 C-11.64208984 17.19775391 -11.64208984 17.19775391 -12 15 C-10.28160357 12.60841734 -8.59980021 10.53283048 -6.625 8.375 C-2.92672536 4.45966732 -2.92672536 4.45966732 0 0 Z " fill="#EE543B" transform="translate(317,23)"/>
<path d="M0 0 C0 0.99 0 1.98 0 3 C-0.99 3.66 -1.98 4.32 -3 5 C-1.125 1.125 -1.125 1.125 0 0 Z M-4 5 C-4 8.60573896 -4.81707462 9.41336566 -7 12.1875 C-7.556875 12.90292969 -8.11375 13.61835938 -8.6875 14.35546875 C-9.120625 14.89816406 -9.55375 15.44085938 -10 16 C-10.71484375 14.234375 -10.71484375 14.234375 -11 12 C-9.56640625 10.078125 -9.56640625 10.078125 -7.5625 8.25 C-6.90378906 7.63640625 -6.24507813 7.0228125 -5.56640625 6.390625 C-5.04949219 5.93171875 -4.53257812 5.4728125 -4 5 Z " fill="#EA952F" transform="translate(348,12)"/>
<path d="M0 0 C2.97 0.99 5.94 1.98 9 3 C9 3.99 9 4.98 9 6 C7.25 6.6875 7.25 6.6875 5 7 C2.8125 5.8125 2.8125 5.8125 1 4 C0.67 2.68 0.34 1.36 0 0 Z " fill="#ED466C" transform="translate(56,60)"/>
<path d="M0 0 C5.40489519 1.52012677 8.98492628 5.27385218 13 9 C12.67 9.66 12.34 10.32 12 11 C11.34 10.67 10.68 10.34 10 10 C10 9.34 10 8.68 10 8 C9.278125 7.7525 8.55625 7.505 7.8125 7.25 C4.72393418 5.87730408 2.48988582 4.27646704 0 2 C0 1.34 0 0.68 0 0 Z " fill="#EEAE3B" transform="translate(47,36)"/>
<path d="M0 0 C3.33333333 1.66666667 6.66666667 3.33333333 10 5 C10 5.66 10 6.32 10 7 C4.71201818 6.58525633 1.88309282 5.64775386 -2 2 C-1.34 1.34 -0.68 0.68 0 0 Z " fill="#EE5D36" transform="translate(35,68)"/>
<path d="M0 0 C4.85963179 0.60745397 8.7405518 2.72758967 13 5 C9.06329512 6.31223496 6.87511856 5.24296256 3 4 C3 3.34 3 2.68 3 2 C2.01 1.67 1.02 1.34 0 1 C0 0.67 0 0.34 0 0 Z " fill="#EE5839" transform="translate(54,54)"/>
<path d="M0 0 C-0.66 1.65 -1.32 3.3 -2 5 C-2.66 5 -3.32 5 -4 5 C-4 5.99 -4 6.98 -4 8 C-4.66 8 -5.32 8 -6 8 C-6.93423645 4.98968256 -7.04449911 4.13349732 -6 1 C-4 0 -4 0 0 0 Z " fill="#EE503F" transform="translate(238,31)"/>
<path d="M0 0 C0.66 0 1.32 0 2 0 C1.34 1.65 0.68 3.3 0 5 C-0.99 5 -1.98 5 -3 5 C-1.625 2.5 -1.625 2.5 0 0 Z M-4 6 C-4 9 -4 9 -6.5 11.6875 C-7.325 12.450625 -8.15 13.21375 -9 14 C-7.8141763 10.62496331 -6.72426311 8.35277269 -4 6 Z " fill="#EAA011" transform="translate(316,36)"/>
<path d="M0 0 C4.36924844 0.48547205 6.07983415 1.78781757 9 5 C9.99 5.66 10.98 6.32 12 7 C10.35 7.33 8.7 7.66 7 8 C6.67 7.01 6.34 6.02 6 5 C4.02514795 3.6296945 2.02613283 2.29327628 0 1 C0 0.67 0 0.34 0 0 Z " fill="#EA9816" transform="translate(8,5)"/>
<path d="M0 0 C3.91593446 0.78318689 7.36406635 2.39179858 11 4 C10.67 4.99 10.34 5.98 10 7 C9.01 6.34 8.02 5.68 7 5 C5.453125 4.5359375 5.453125 4.5359375 3.875 4.0625 C2.92625 3.711875 1.9775 3.36125 1 3 C0.67 2.01 0.34 1.02 0 0 Z " fill="#EAA012" transform="translate(37,63)"/>
<path d="M0 0 C0.66 0 1.32 0 2 0 C6 5.41176471 6 5.41176471 6 8 C3.5625 7.375 3.5625 7.375 1 6 C0.1875 2.875 0.1875 2.875 0 0 Z " fill="#EC478A" transform="translate(19,59)"/>
<path d="M0 0 C1.4589426 0.47730838 2.91713496 0.95691042 4.375 1.4375 C5.18710938 1.70433594 5.99921875 1.97117188 6.8359375 2.24609375 C9 3 9 3 11 4 C11 4.66 11 5.32 11 6 C6.87248551 5.39301257 3.6678852 3.96189209 0 2 C0 1.34 0 0.68 0 0 Z " fill="#EE5739" transform="translate(0,51)"/>
<path d="M0 0 C2.91280837 1.30574169 4.80294493 2.7074208 7 5 C7.99 5.66 8.98 6.32 10 7 C9.34 7.66 8.68 8.32 8 9 C8 8.34 8 7.68 8 7 C5.06279492 5.47700477 2.0831351 4.19899698 -1 3 C-0.67 2.01 -0.34 1.02 0 0 Z " fill="#EE553B" transform="translate(5,8)"/>
<path d="M0 0 C4.3177458 0.50797009 8.03302114 1.19682779 12 3 C11.67 3.66 11.34 4.32 11 5 C7.37 4.01 3.74 3.02 0 2 C0 1.34 0 0.68 0 0 Z " fill="#EB9319" transform="translate(23,47)"/>
<path d="M0 0 C3.24208567 0.35049575 4.61527704 0.56221181 6.8125 3.0625 C7.204375 3.701875 7.59625 4.34125 8 5 C4.75791433 4.64950425 3.38472296 4.43778819 1.1875 1.9375 C0.795625 1.298125 0.40375 0.65875 0 0 Z " fill="#ED732A" transform="translate(37,68)"/>
<path d="M0 0 C3.68754757 0.49831724 5.60490662 1.10067643 8 4 C5.36 3.67 2.72 3.34 0 3 C0 2.01 0 1.02 0 0 Z " fill="#EA9E13" transform="translate(0,43)"/>
<path d="M0 0 C3.24271506 0.5590888 4.93057424 1.4132178 7 4 C7 4.66 7 5.32 7 6 C5.68 5.67 4.36 5.34 3 5 C3 4.01 3 3.02 3 2 C2.01 1.67 1.02 1.34 0 1 C0 0.67 0 0.34 0 0 Z " fill="#F18A60" transform="translate(48,42)"/>
<path d="M0 0 C4.67692308 1.47692308 4.67692308 1.47692308 6.3125 4.125 C6.539375 4.74375 6.76625 5.3625 7 6 C3.75728494 5.4409112 2.06942576 4.5867822 0 2 C0 1.34 0 0.68 0 0 Z " fill="#ED466B" transform="translate(19,55)"/>
</svg>
