<svg xmlns="http://www.w3.org/2000/svg" width="389.687" height="337.6" viewBox="0 0 389.687 337.6">
  <g id="Group" transform="translate(2.049 0.775)">
    <path id="Path" d="M35.445,8.231c-1.206,2.016-3.73,2.869-5.9,3.3a74.692,74.692,0,0,1-8.451.967l-1.632.4a2.455,2.455,0,0,0-1.62,3.08,49.325,49.325,0,0,0,4.144,10L19.4,28.567c-.732-.991-.766-2.725-1.749-2.558-.943-.943-2.063-1.4-3.222-.142-2.266,2.48-1.9,7.625,1.428,9.047l-.747,3.708a5.713,5.713,0,0,1-5.6,4.6l.571-4.389C6.208,40.8,1.81,36.558,2.116,33.065A6.481,6.481,0,0,0,0,27.281c-.116-.116.594-.547.487-.663A6.349,6.349,0,0,1,.42,22.341c.861-1.783,3.4-2.826,2.231-4.772a9.317,9.317,0,0,1-1.107-2.739A9.114,9.114,0,0,1,3.383,7.507C5.106,5.441,7.906,6,10.193,5.263,12.98,4.4,14.268,1.417,17.183.495A7.74,7.74,0,0,1,21.43.577c1.228.284,2.442.6,3.648.982a5.637,5.637,0,0,0,3.446.34c1.559-.43,2.762-1.886,4.462-1.9a3.8,3.8,0,0,1,2.36.754A8.147,8.147,0,0,1,35.445,8.231Z" transform="translate(33.413 81.824)" fill="#3fbdf1"/>
    <g id="Group-2" data-name="Group" transform="translate(0.001 48.59)">
      <path id="Path-2" data-name="Path" d="M15.554,99.782s-46.89-51.72,22.164-77.527A50.762,50.762,0,0,1,50.14,19.4c11.022-1.172,35.387-5.336,38.2-19.4" transform="translate(-0.002 0)" fill="none" stroke="#ccdde2" stroke-miterlimit="10" stroke-width="4"/>
      <path id="Path-3" data-name="Path" d="M.49.486V.475" transform="translate(211.905 26.892)" fill="none" stroke="#ccdde2" stroke-miterlimit="10" stroke-width="4"/>
      <g id="Group-3" data-name="Group" transform="translate(40.848 43.648)">
        <path id="Path-4" data-name="Path" d="M.49.486V.475" transform="translate(48.021 76.367)" fill="none" stroke="#000" stroke-miterlimit="10" stroke-width="4"/>
        <path id="Path-5" data-name="Path" d="M9.764,3.123A12.323,12.323,0,0,0,8.138.918C7.2-.026,6.075-.487,4.917.776,2.649,3.25,3.015,8.4,6.344,9.818L5.6,13.527a5.713,5.713,0,0,1-5.6,4.6" transform="translate(2.085 14.689)" fill="none" stroke="#000" stroke-linecap="round" stroke-linejoin="round" stroke-miterlimit="10" stroke-width="4"/>
        <path id="Path-6" data-name="Path" d="M0,20.808c.189-1.438.659-5.216,1.111-8.817.431-3.338.814-6.551.967-7.611L2.653,0" transform="translate(0 28.422)" fill="none" stroke="#000" stroke-linecap="round" stroke-linejoin="round" stroke-miterlimit="10" stroke-width="4"/>
        <g id="Group-4" data-name="Group" transform="translate(20.028 0)">
          <path id="Path-7" data-name="Path" d="M6.564,0S1.064.271,0,4.824" transform="translate(0 6.069)" fill="none" stroke="#000" stroke-miterlimit="10" stroke-width="4"/>
          <path id="Path-8" data-name="Path" d="M3.282,18.1c1.5-.039,3.446-.258,4.152-1.779l-3.79-4.183A6.06,6.06,0,0,1,2.093,8.424C1.943,6.112,2.214,2.442,0,0" transform="translate(5.281)" fill="none" stroke="#000" stroke-miterlimit="10" stroke-width="4"/>
        </g>
      </g>
    </g>
    <ellipse id="Oval" cx="1.675" cy="1.421" rx="1.675" ry="1.421" transform="matrix(0.671, -0.742, 0.742, 0.671, 62.966, 103.883)"/>
    <path id="Path-9" data-name="Path" d="M2.857,13.844,0,0" transform="translate(62.97 123.964)" fill="none" stroke="#000" stroke-miterlimit="10" stroke-width="4.11"/>
    <path id="Path-10" data-name="Path" d="M109.456,64.4l-18.4,15.049c22.143,33.768,5.384,39.965,5.384,39.965a89.59,89.59,0,0,1-9.833,1.322,71,71,0,0,1-45.616-12.228C14.283,89.771-8.976,52.274,3.427,19.626a52.425,52.425,0,0,1,3.812-7.977A23.612,23.612,0,0,1,12.09,5.756,23.258,23.258,0,0,1,37.071,2.1a22.961,22.961,0,0,1,4.4,2.637c6.973,5.336,13.313,12.921,18.779,20.881A195.027,195.027,0,0,1,73.32,48.109c1.064,2.123,2.029,4.131,2.881,5.97C83.932,50.951,90.414,45.64,96.444,39.9,89.152,53.514,109.456,64.4,109.456,64.4Z" transform="translate(28.759 135.711)" fill="#353642"/>
    <g id="Group-5" data-name="Group" transform="translate(70.925 153.907)">
      <path id="Path-11" data-name="Path" d="M1.086,0C.732.271.366.556,0,.827" transform="translate(53.326 57.211)" fill="none" stroke="#000" stroke-miterlimit="10" stroke-width="4.11"/>
      <path id="Path-12" data-name="Path" d="M0,0Q7.322,14.02,14.644,28.091c3.683,7.081,9.906,11.452,18.67,8.1,9.537-3.652,17.228-10.636,24.344-17.75S71.984,4.518,82.256,2.683C95.535.31,108.1,7.546,117.144,16.69a4.381,4.381,0,0,1-5.939,6.43c-4.286-3.657-11.259-8.946-16.108-9.015" transform="translate(0 0)" fill="none" stroke="#000" stroke-miterlimit="10" stroke-width="4.11"/>
      <path id="Path-13" data-name="Path" d="M0,0C1.49,1,3.558,2.1,5.281,2.1" transform="translate(81.864 26.652)" fill="none" stroke="#000" stroke-miterlimit="10" stroke-width="4.11"/>
      <path id="Path-14" data-name="Path" d="M19.994,0c3.178,1.572,4.337,6.172,2.093,8.922a31.916,31.916,0,0,1-10.458,8.457C7.2,19.588,4.359,18.239,0,15.544" transform="translate(80.969 15.919)" fill="none" stroke="#000" stroke-miterlimit="10" stroke-width="4.11"/>
      <path id="Path-15" data-name="Path" d="M0,0S6.3,1.559,6.129,7.671a2.912,2.912,0,0,1-.138.766" transform="translate(93.606 20.041)" fill="none" stroke="#000" stroke-miterlimit="10" stroke-width="4.11"/>
      <path id="Path-16" data-name="Path" d="M0,0S8.446,5.457,4.428,8.89" transform="translate(89.157 23.892)" fill="none" stroke="#000" stroke-miterlimit="10" stroke-width="4.11"/>
    </g>
    <path id="Path-17" data-name="Path" d="M42.42,16.347C32.471,43.692,4.617,44.463,1.43,44.463,2.765,41.65,3.127,36.71.2,28.053A16.9,16.9,0,0,0,0,8.671c.039-.034.06-.082.095-.116A23.452,23.452,0,0,0,4.226,7.93c4.807-1.146,14.284-3.661,21.8-7.2A7.39,7.39,0,0,1,36.641,7.809a.69.69,0,0,1-.026.224,6.181,6.181,0,0,1,5.8,8.313Z" transform="translate(280.818 182.841)" fill="#3fbdf1"/>
    <path id="Path-18" data-name="Path" d="M186.372,119.565c-3.351,5.75-8.567,10.647-13.605,14.922-17.742,15.012-40.917,22.634-64.176,22.933-23.337-.3-46.6-7.947-64.421-22.828C-12.146,87.567-1.969,32.045,7.141,6.336A10.983,10.983,0,0,1,8.433,3.824,8.946,8.946,0,0,1,14.679,0c4.78.659,9.122,4.626,8.355,10.768,0,.237-.095.564-.116.8C10.524,44.217,33.788,81.713,60.475,100.45a70.536,70.536,0,0,0,41.664,12.4h.168q1.9-.039,3.786-.176a112.739,112.739,0,0,0,24.279-4.983c9.346-2.8,18.591-6.185,27.927-8.558,3.282-.835,6.573-1.641,9.88-2.395a21.85,21.85,0,0,1,5.806-.4c11.471.775,19.528,10.974,12.387,23.224Z" transform="translate(9.192 143.759)" fill="#d7e8f0"/>
    <path id="Path-19" data-name="Path" d="M189.207,119.565c-3.351,5.75-8.573,10.647-13.61,14.922-18.447,15.626-42.786,23.258-67.018,22.935-23.337-.3-46.6-7.947-64.421-22.828C-12.145,87.567-1.968,32.045,7.142,6.336A10.983,10.983,0,0,1,8.434,3.824,8.946,8.946,0,0,1,14.679,0C19.46.659,23.8,4.626,23.035,10.768c0,.237-.095.564-.116.8C10.525,44.217,33.789,81.713,60.476,100.45a70.536,70.536,0,0,0,41.664,12.4h.168q3.329.052,6.62-.176a112.788,112.788,0,0,0,24.279-4.983c9.346-2.8,18.591-6.185,27.927-8.558,3.278-.835,6.573-1.641,9.876-2.395a22.086,22.086,0,0,1,2.976-.4c12.9-.866,22.94,9.984,15.221,23.224Z" transform="translate(9.191 143.759)" fill="#d7e8f0"/>
    <path id="Path-20" data-name="Path" d="M71.855.151l5.67,8.02s34.3,1.335,53.068,17.09a4.863,4.863,0,0,1-3.138,8.58,4.794,4.794,0,0,1-3.106-1.129c-4.432-3.721-21.363-15.419-59.662-15.773C27.371,16.591,13.059,28.138,9.1,32.347a4.8,4.8,0,0,1-3.506,1.494H4.858a4.863,4.863,0,0,1-2.946-8.727C17.58,12.93,52.705,9.045,52.705,9.045L58.7,0" transform="translate(49.804 300.95)" fill="#353642"/>
    <path id="Path-21" data-name="Path" d="M32.578,0s10.5,9.98,7.227,40.917a13.809,13.809,0,0,1-2.241,6.176l-1.143,1.723a13.964,13.964,0,0,1-7.947,5.72C21.617,56.41,9.169,60.751,1.481,68.978a5.422,5.422,0,1,0,8.425,6.768c3.131-4.712,12.611-14.717,35.478-14.506,25.791.237,36.179,10.492,39.511,14.911a4.945,4.945,0,1,0,7.57-6.342A56.551,56.551,0,0,0,63.318,53.3,13.876,13.876,0,0,1,52.335,40.267c-.379-9.592-.577-32.874,5.922-40.258" transform="translate(240.867 256.631)" fill="#353642"/>
    <g id="Group-6" data-name="Group" transform="translate(6.46 128.24)">
      <path id="Path-22" data-name="Path" d="M0,40.9c18.473-8.966,38.522-14.851,58.236-20.39C78.075,14.933,98.107,10.07,118.2,5.5c8.028-1.822,16.13-3.446,24.12-5.5" transform="translate(133.189 82.331)" fill="none" stroke="#000" stroke-miterlimit="10" stroke-width="4"/>
      <path id="Path-23" data-name="Path" d="M.465.49H.487" transform="translate(150.056 53.802)" fill="none" stroke="#000" stroke-miterlimit="10" stroke-width="4"/>
      <path id="Path-24" data-name="Path" d="M114.061,36.205c-1.159,1.146-5.293,7.266-6.331,8.365A212.772,212.772,0,0,1,89.588,61.85c-1.606,1.335-3.308,2.713-5.1,4.109-.352.271-.719.556-1.086.827-12.146,9.217-28,18.09-42.64,12.4-.388-.142-.766-.308-1.143-.474C17.16,68.659,1.461,43.471.091,19.158.043,18.367.018,17.576.009,16.8-.111,10.152.871,3.506,7.245,0" transform="translate(34.389 16.919)" fill="none" stroke="#000" stroke-miterlimit="10" stroke-width="4"/>
      <path id="Path-25" data-name="Path" d="M25.763,11.6l.091-.706C27.284-.577,11-4.444,7.139,6.45-1.966,32.155-12.148,87.664,44.18,134.7c36.356,30.369,95.217,30.58,131.435-.1,5.039-4.268,10.255-9.174,13.61-14.924,8.489-14.541-4.475-26.2-19.1-22.621" transform="translate(-0.001 15.407)" fill="none" stroke="#000" stroke-miterlimit="10" stroke-width="4"/>
      <path id="Path-26" data-name="Path" d="M71.855.151l5.67,8.02s34.3,1.335,53.068,17.09a4.863,4.863,0,0,1-3.138,8.58,4.794,4.794,0,0,1-3.106-1.129c-4.432-3.721-21.363-15.419-59.662-15.773C27.371,16.591,13.059,28.138,9.1,32.347a4.8,4.8,0,0,1-3.506,1.494H4.858a4.863,4.863,0,0,1-2.946-8.727C17.58,12.93,52.705,9.045,52.705,9.045L58.7,0" transform="translate(43.344 172.711)" fill="none" stroke="#000" stroke-miterlimit="10" stroke-width="4"/>
      <path id="Path-27" data-name="Path" d="M0,37.8C14.377,33.92,20.3,13.639,22.686,0" transform="translate(96.049 17.096)" fill="none" stroke="#000" stroke-miterlimit="10" stroke-width="4"/>
      <path id="Path-28" data-name="Path" d="M0,33.1A23.551,23.551,0,0,0,18.447,19.353a5.169,5.169,0,0,0-.129-4.652c-1.568-2.9-3.907-6.267-3.351-9.747A6.052,6.052,0,0,1,19.7.217a6.629,6.629,0,0,1,3.575.06,4.889,4.889,0,0,1,3.153,2.761,3.016,3.016,0,0,1-1.146,3.493,8.759,8.759,0,0,1-3.519,1.512c-.163.047-.612.142-1.107.237" transform="translate(82.534 -0.001)" fill="none" stroke="#000" stroke-miterlimit="10" stroke-width="4"/>
      <path id="Path-29" data-name="Path" d="M0,19.653S28.341,13.72,33.666,5.168A11.954,11.954,0,0,0,35.482,0" transform="translate(275.491 62.669)" fill="none" stroke="#000" stroke-miterlimit="10" stroke-width="4"/>
      <path id="Path-30" data-name="Path" d="M113.734,60.28C163.166,55.03,218.958,55.8,218.958,55.8H250.27a25.611,25.611,0,0,0,6.008-.706c4.807-1.146,14.284-3.657,21.8-7.2a7.39,7.39,0,0,1,10.613,7.085.7.7,0,0,1-.026.224,6.181,6.181,0,0,1,5.806,8.3c-10.561,29.025-41.288,28.116-41.288,28.116q-5.892.175-11.779.474a515.276,515.276,0,0,0-102.59,15.131c-9.338,2.373-18.581,5.757-27.927,8.558A112.39,112.39,0,0,1,86.6,120.76a70.968,70.968,0,0,1-45.616-12.228c-28.9-20.28-53.765-62.556-33.745-96.875A23.253,23.253,0,0,1,41.465,4.766C57.2,16.8,69.769,40.256,76.215,54.091" transform="translate(22.303 7.441)" fill="none" stroke="#000" stroke-miterlimit="10" stroke-width="4"/>
      <path id="Path-31" data-name="Path" d="M68.793.49H0" transform="translate(247.331 127.901)" fill="none" stroke="#000" stroke-miterlimit="10" stroke-width="4"/>
      <path id="Path-32" data-name="Path" d="M0,13.9A13.938,13.938,0,0,1,13.895,0H82.7A13.938,13.938,0,0,1,96.6,13.9" transform="translate(233.445 100.597)" fill="none" stroke="#000" stroke-miterlimit="10" stroke-width="4"/>
    </g>
    <path id="Path-33" data-name="Path" d="M97.491,6.626a8.942,8.942,0,0,1-8.971,8.966H7.114A7.813,7.813,0,0,1,8.3.015H89.7a8.942,8.942,0,0,1,7.356,3.838,9.075,9.075,0,0,1,.435,2.774Z" transform="translate(240.361 241.037)" fill="#d7e8f0"/>
    <g id="Group-7" data-name="Group" transform="translate(31.779 1.225)">
      <g id="Group-8" data-name="Group" transform="translate(0 78.901)">
        <g id="Group-9" data-name="Group" transform="translate(76.628 30.843)">
          <path id="Path-34" data-name="Path" d="M99.795,8.971a8.942,8.942,0,0,1-8.971,8.966H9.419A8.971,8.971,0,1,1,9.419,0l81.4,0a8.971,8.971,0,0,1,8.537,6.2A9.075,9.075,0,0,1,99.8,8.968Z" transform="translate(129.65 127.722)" fill="none" stroke="#000" stroke-miterlimit="10" stroke-width="4"/>
          <path id="Path-35" data-name="Path" d="M16.633,21.815,16.469,23.2a2.584,2.584,0,0,1-2.563,2.278H4.96A2.584,2.584,0,0,1,2.4,23.2L1.243,13.292c.5-.095.943-.189,1.107-.237A8.51,8.51,0,0,0,5.87,11.543,3.014,3.014,0,0,0,7.015,8.05,4.889,4.889,0,0,0,3.862,5.289,6.629,6.629,0,0,0,.287,5.23L.016,2.869A2.584,2.584,0,0,1,2.579,0H16.306a2.584,2.584,0,0,1,2.558,2.869l-.317,2.692" transform="translate(0 12.232)" fill="none" stroke="#000" stroke-miterlimit="10" stroke-width="4"/>
          <path id="Path-36" data-name="Path" d="M.486.382l-.011.1" transform="translate(17.337 23.565)" fill="none" stroke="#000" stroke-miterlimit="10" stroke-width="4"/>
          <path id="Path-37" data-name="Path" d="M.49.485V.446" transform="translate(16.663 29.152)" fill="none" stroke="#000" stroke-miterlimit="10" stroke-width="4"/>
          <path id="Path-38" data-name="Path" d="M3.763,11.894a.352.352,0,0,0-.116,0,.72.72,0,0,0-.163,0,2.227,2.227,0,0,0-.357,4.424,1.835,1.835,0,0,0,.719,0,4.664,4.664,0,0,0,2.774-1.533,15.269,15.269,0,0,0,1.96-5.113.091.091,0,0,0,0-.056,16.759,16.759,0,0,0,.3-4.049,14.223,14.223,0,0,0-.142-1.723A4.445,4.445,0,0,0,5.026.066.311.311,0,0,1,4.875.04C3.066-.183.527.5.059,2.543-.371,4.386,1.627,5.967,3.268,6.109c0,0,.431.056,1.038.095a9.427,9.427,0,0,0,4.571-.637A3.067,3.067,0,0,0,9.428,5.2" transform="translate(13.519 17.743)" fill="none" stroke="#000" stroke-miterlimit="10" stroke-width="4"/>
          <path id="Path-39" data-name="Path" d="M6.3,0H2.7a2.681,2.681,0,0,0-.392,5.328c2.972.478,6.366.577,6.947-2.085" transform="translate(12.867 24.046)" fill="none" stroke="#000" stroke-miterlimit="10" stroke-width="4"/>
          <path id="Path-40" data-name="Path" d="M32.578,0s10.5,9.98,7.227,40.917a13.809,13.809,0,0,1-2.241,6.176l-1.143,1.723a13.964,13.964,0,0,1-7.947,5.72C21.617,56.41,9.169,60.751,1.481,68.978a5.422,5.422,0,1,0,8.425,6.768c3.131-4.712,12.611-14.717,35.478-14.506,25.791.237,36.179,10.492,39.511,14.911a4.945,4.945,0,1,0,7.57-6.342A56.551,56.551,0,0,0,63.318,53.3,13.876,13.876,0,0,1,52.335,40.267c-.379-9.592-.577-32.874,5.922-40.258" transform="translate(132.46 145.661)" fill="none" stroke="#000" stroke-miterlimit="10" stroke-width="4"/>
          <path id="Path-41" data-name="Path" d="M76.78,5.113v.7c0,4.776-3.85,5.6-7.176,5.681l-64.35,1.5A5.38,5.38,0,0,1,0,7.511V7.384a5.406,5.406,0,0,1,5.005-5.6S41.008.766,68.883,0a7.636,7.636,0,0,0,3.446,4.01,7.86,7.86,0,0,0,4.451,1.1Z" transform="translate(66.418 68.237)" fill="none" stroke="#000" stroke-miterlimit="10" stroke-width="4"/>
          <path id="Path-42" data-name="Path" d="M39.233,5.256a5.056,5.056,0,0,1-.527,2.266l-28.778,59a5.237,5.237,0,0,1-3.446,2.769,5.169,5.169,0,0,1-3.549-.362A5.255,5.255,0,0,1,0,64.189a5.84,5.84,0,0,1,.052-.725,5.168,5.168,0,0,1,.474-1.538l28.776-59a5.22,5.22,0,0,1,9.906,2.3Z" transform="translate(138.174 -0.001)" fill="none" stroke="#000" stroke-miterlimit="10" stroke-width="4"/>
        </g>
        <path id="Path-43" data-name="Path" d="M.456.732C.423.612.374.5.335.379S.24.129.206,0" transform="translate(20.583 29.542)" fill="none" stroke="#000" stroke-linecap="round" stroke-linejoin="round" stroke-miterlimit="10" stroke-width="4"/>
        <path id="Path-44" data-name="Path" d="M0,2.6.883,1.71,2.572,0" transform="translate(21.039 27.682)" fill="none" stroke="#000" stroke-linecap="round" stroke-linejoin="round" stroke-miterlimit="10" stroke-width="4"/>
        <path id="Path-45" data-name="Path" d="M0,0A5.892,5.892,0,0,0,5.461,3.609" transform="translate(30.976 32.613)" fill="none" stroke="#000" stroke-miterlimit="10" stroke-width="4"/>
        <path id="Path-46" data-name="Path" d="M11.72,40.534c-3.876,1.96-8.274-2.278-7.968-5.77A6.481,6.481,0,0,0,1.637,28.98c-.116-.116-.224-.237-.327-.352A4.975,4.975,0,0,1,.492,23.1c.805-1.874,2.539-2.97,1.335-4.992A9.625,9.625,0,0,1,.682,15.286a9.389,9.389,0,0,1,1.9-7.542C4.356,5.59,7.245,6.185,9.619,5.431c2.857-.909,4.191-3.98,7.188-4.922A8.087,8.087,0,0,1,21.2.59c1.262.3,2.528.629,3.756,1.017a5.86,5.86,0,0,0,3.575.352C30.133,1.49,31.37.013,33.118,0a4.354,4.354,0,0,1,3.876,2.455,8.213,8.213,0,0,1,.082,7.486c-1.206,2.016-3.73,2.869-5.9,3.3a75.2,75.2,0,0,1-8.451.969l-1.631.4a2.455,2.455,0,0,0-1.62,3.067,49.325,49.325,0,0,0,4.144,10" transform="translate(0.003 0)" fill="none" stroke="#000" stroke-miterlimit="10" stroke-width="4"/>
        <path id="Path-47" data-name="Path" d="M0,10.755s8.545,6.258,13.417,2.808S15.536,0,15.536,0" transform="translate(23.611 30.274)" fill="none" stroke="#000" stroke-linecap="round" stroke-linejoin="round" stroke-miterlimit="10" stroke-width="4"/>
        <g id="Group-10" data-name="Group" transform="translate(81.901 27.979)">
          <path id="Path-48" data-name="Path" d="M2.09,10.776S-1.538,8.321.768,5.815,0,0,0,0" transform="translate(0 0)" fill="none" stroke="#000" stroke-miterlimit="10" stroke-width="4"/>
          <path id="Path-49" data-name="Path" d="M0,7.164S2.4,5.538.861,3.876,1.374,0,1.374,0" transform="translate(5.441 4.04)" fill="none" stroke="#000" stroke-miterlimit="10" stroke-width="4"/>
        </g>
      </g>
      <g id="Group-11" data-name="Group" transform="translate(56.56 0)">
        <circle id="Oval-2" data-name="Oval" cx="47.344" cy="47.344" r="47.344" transform="translate(0)" fill="none" stroke="#ccdde2" stroke-miterlimit="10" stroke-width="4"/>
        <circle id="Oval-3" data-name="Oval" cx="26.002" cy="26.002" r="26.002" transform="translate(21.342 21.342)" fill="none" stroke="#ccdde2" stroke-miterlimit="10" stroke-width="4"/>
        <circle id="Oval-4" data-name="Oval" cx="4.458" cy="4.458" r="4.458" transform="translate(42.886 42.885)" fill="none" stroke="#ccdde2" stroke-miterlimit="10" stroke-width="4"/>
        <path id="Path-50" data-name="Path" d="M6.883,0,0,11.1" transform="translate(49.691 32.458)" fill="none" stroke="#ccdde2" stroke-miterlimit="10" stroke-width="4"/>
        <path id="Path-51" data-name="Path" d="M.49,0V4.626" transform="translate(46.854 21.342)" fill="none" stroke="#ccdde2" stroke-miterlimit="10" stroke-width="4"/>
        <path id="Path-52" data-name="Path" d="M4.384.49H0" transform="translate(68.961 46.853)" fill="none" stroke="#ccdde2" stroke-miterlimit="10" stroke-width="4"/>
        <path id="Path-53" data-name="Path" d="M.49,4.5V0" transform="translate(46.854 68.853)" fill="none" stroke="#ccdde2" stroke-miterlimit="10" stroke-width="4"/>
        <path id="Path-54" data-name="Path" d="M0,.49H3.955" transform="translate(21.337 46.853)" fill="none" stroke="#ccdde2" stroke-miterlimit="10" stroke-width="4"/>
      </g>
    </g>
    <circle id="Oval-5" data-name="Oval" cx="17.616" cy="17.616" r="17.616" transform="translate(163.441 92.053)" fill="#3fbdf1"/>
    <path id="Path-55" data-name="Path" d="M14.986,3.151A6.164,6.164,0,0,0,14,1.575,4.445,4.445,0,0,0,8.185.714,4.583,4.583,0,0,0,6.12,4.224,4.553,4.553,0,0,0,.95,11.283,11.108,11.108,0,0,0,6.3,14.639a15.828,15.828,0,0,0,3.131.663c.538.06,3.609.474,3.876,0C15.224,12.306,16.585,6.812,14.986,3.151Z" transform="translate(171.863 100.634)" fill="#fff"/>
    <g id="Group-12" data-name="Group" transform="translate(215.264 82.978)" opacity="0.72">
      <circle id="Oval-6" data-name="Oval" cx="9.7" cy="9.7" r="9.7" transform="translate(0 0)" fill="#3fbdf1"/>
      <path id="Path-56" data-name="Path" d="M7.706,6.7A3.3,3.3,0,0,0,8.3,5.87a2.446,2.446,0,0,0-.771-3.144,2.515,2.515,0,0,0-2.218-.319A2.505,2.505,0,0,0,.634,1.252,6.12,6.12,0,0,0,.044,4.7,8.756,8.756,0,0,0,.362,6.421c.082.289.512,1.938.806,1.99,1.925.323,5.01-.129,6.538-1.71Z" transform="translate(6.201 4.717)" fill="#fff"/>
    </g>
    <rect id="Rectangle" width="24.947" height="24.947" rx="12.473" transform="translate(203.426 154.632) rotate(-64.69)" fill="#3fbdf1"/>
    <path id="Path-57" data-name="Path" d="M23.5,5.28l-3.34,7.059a6.168,6.168,0,0,1-8.183,2.933L3.513,11.267A6.168,6.168,0,0,1,.584,3.083l.224-.474C3.108.774,7.083-1.7,8.535,1.666c2.089,4.858,4.807,3.291,8.278,1.258C19.714,1.21,23.192.638,23.5,5.28Z" transform="translate(207.483 145.573)" fill="#fff"/>
    <circle id="Oval-7" data-name="Oval" cx="2.606" cy="2.606" r="2.606" transform="translate(215.264 138.138)" fill="#fff"/>
    <path id="Path-58" data-name="Path" d="M28.918,5.977a10.936,10.936,0,0,1,1.115,3.015,11.362,11.362,0,0,1-3.481,10.676c-1.154,1.021-2.623,1.818-3.79,2.886a5.977,5.977,0,0,0-1.809,2.769,2.317,2.317,0,0,1-.431,1.011c-.68.732-1.348-.431-1.938-.629a4.079,4.079,0,0,0-2.9.142A11.315,11.315,0,0,1,3.239,7.492,24.75,24.75,0,0,1,9.7,3.28,33.588,33.588,0,0,1,15.885.446,11.37,11.37,0,0,1,28.918,5.977Z" transform="translate(233.409 100.527)" fill="#3fbdf1"/>
    <g id="Group-13" data-name="Group" transform="translate(239.302 108.045)">
      <circle id="Oval-8" data-name="Oval" cx="2.455" cy="2.455" r="2.455" transform="translate(0 6.852)" fill="#fff"/>
      <circle id="Oval-9" data-name="Oval" cx="2.455" cy="2.455" r="2.455" transform="translate(6.611 3.316)" fill="#fff"/>
      <circle id="Oval-10" data-name="Oval" cx="2.455" cy="2.455" r="2.455" transform="translate(12.814 0)" fill="#fff"/>
    </g>
    <path id="Path-59" data-name="Path" d="M0,0S16.164,50,78.389,47.3c20.674-2.584,45.28,0,67.19,28.857,33.306,43.9,19.933,92.8,4.8,123.841" transform="translate(179.718 31.164)" fill="none" stroke="#ccdde2" stroke-miterlimit="10" stroke-width="4.11"/>
    <g id="Group-14" data-name="Group" transform="translate(225.429 34.88)" opacity="0.54">
      <path id="Path-60" data-name="Path" d="M44.234,15.919a15.367,15.367,0,0,1-.349,2.241l-1.938,8.408c-.594,2.584-1.262,5.289-3.105,7.176C35.4,37.26,29.667,36.453,24.877,35.39L13.12,32.777a28.97,28.97,0,0,1-7.865-2.554A9.787,9.787,0,0,1,.172,23.982a14.323,14.323,0,0,1,.469-6.055L2.417,9.855C3.006,7.21,3.669,4.42,5.578,2.494,8.976-.93,14.623-.15,19.317.87L31.36,3.489c7.262,1.568,13.451,4.936,12.874,12.43Z" transform="translate(0 0)" fill="#3fbdf1"/>
      <path id="Path-61" data-name="Path" d="M13.753,6.161a3.915,3.915,0,0,1-1.52,6.611l-3.584,1.1-3.584,1.1A3.919,3.919,0,0,1,.1,10.343L.961,6.691,1.8,3.043a3.915,3.915,0,0,1,6.485-1.99L11.031,3.6Z" transform="translate(14.265 9.982)" fill="#fff"/>
    </g>
    <path id="Path-62" data-name="Path" d="M0,.49H371.925" transform="translate(15.712 334.28)" fill="none" stroke="#000" stroke-miterlimit="10" stroke-width="4.11"/>
  </g>
</svg>
