<svg xmlns="http://www.w3.org/2000/svg" width="854.785" height="217.217" viewBox="0 0 854.785 217.217"><g transform="translate(-3652.215 -324)"><g transform="translate(3652.214 324)"><path d="M1980.666,1246.414a39.982,39.982,0,0,0-1.76-5.123c-.5-1.19-1.049-2.339-1.645-3.455a40.818,40.818,0,0,0-20.522-18.8,39.668,39.668,0,0,0-9.405-2.71,42.4,42.4,0,0,0-6.6-.514,28.184,28.184,0,0,0-3.439.208,20.573,20.573,0,0,0-2.09.329c-7.833,1.037-17.224,4.182-20.555,8.422-.046.038-12.142,6.258-15.44,32.557q0,1.576.114,3.121v0a39.914,39.914,0,0,0,3.109,12.844,41.1,41.1,0,0,0,5.123,8.844q1.159,1.524,2.465,2.935a.462.462,0,0,1,.057.075c.216.231.439.47.671.7.149.157.313.329.47.488.067.065.149.139.216.206s.124.116.19.182l.008.008c.463.463.933.9,1.421,1.339.172.156.355.306.537.463.313.272.635.553.959.81.288.249.586.47.892.7.216.167.429.339.653.5.406.3.81.588,1.223.869.124.082.239.165.365.249.5.337,1.008.661,1.53.974a.733.733,0,0,1,.106.067c.571.339,1.133.661,1.72.974a.008.008,0,0,0,.008.008c.562.306,1.125.588,1.693.869.067.026.118.059.183.082.455.223.918.429,1.388.629.133.065.275.123.414.19.241.1.48.2.735.3.506.208,1.018.4,1.521.578.257.1.5.19.768.272.239.084.481.159.72.233.438.139.884.263,1.322.388h.01c.578.157,1.146.3,1.727.429.329.083.661.149,1,.216s.668.131,1,.188.677.116,1.015.167a42.038,42.038,0,0,0,6.143.455c.37,0,.725,0,1.1-.01.687-.024,1.38-.057,2.067-.116a39.529,39.529,0,0,0,12-2.743,40.09,40.09,0,0,0,4.563-2.133c.272-.141.538-.288.8-.437.463-.265.91-.537,1.355-.81a40.81,40.81,0,0,0,7.456-5.894,40.54,40.54,0,0,0,3.206-3.611,41.378,41.378,0,0,0,5.67-9.638,40.838,40.838,0,0,0,3.182-15.967A41.5,41.5,0,0,0,1980.666,1246.414Zm-13.571,12.5c-.008.157-.016.305-.023.462-.018.231-.043.473-.06.7-.041.347-.082.694-.131,1.041a26.618,26.618,0,0,1-2.076,7.107c-.024.059-.049.1-.065.149-.257.563-.537,1.116-.828,1.653a.526.526,0,0,0-.074.133c-.288.512-.594,1.016-.908,1.5-.074.116-.141.214-.208.321-.19.281-.4.571-.594.843s-.39.545-.6.81c-.141.182-.3.38-.455.563-.231.272-.455.545-.694.8-.288.321-.578.627-.884.933a26.524,26.524,0,0,1-43.218-8.454c-.206-.5-.414-1-.586-1.514-.1-.255-.183-.512-.257-.768s-.164-.512-.231-.777c-.066-.2-.115-.406-.165-.612s-.107-.422-.158-.628c-.173-.812-.329-1.637-.43-2.48-.026-.182-.049-.363-.068-.541-.028-.263-.051-.526-.071-.79-.018-.157-.025-.306-.033-.462-.033-.52-.041-1.041-.041-1.579,0-.488.008-.958.041-1.439.008-.306.033-.61.057-.916.01-.1.018-.215.033-.316s.02-.224.033-.331.022-.186.033-.281c.025-.231.057-.463.09-.676.033-.249.082-.488.125-.727.09-.48.188-.967.3-1.431.008-.031.018-.065.026-.106a24.776,24.776,0,0,1,1.563-4.562c.031-.074.064-.149.106-.231a2.556,2.556,0,0,1,.208-.447c.026-.067.057-.124.09-.2.1-.216.216-.429.331-.645.057-.1.1-.19.157-.3.115-.2.224-.4.339-.6.09-.167.19-.339.3-.506.116-.19.231-.38.363-.561a8.9,8.9,0,0,1,.488-.745,5.105,5.105,0,0,1,.4-.561c.306-.431.62-.835.959-1.241.521-.635,1.084-1.255,1.67-1.843.157-.157.322-.322.488-.478.3-.29.62-.579.941-.851.157-.141.331-.282.488-.406.239-.206.5-.413.743-.6a27.247,27.247,0,0,1,26.392-3.321c.792.322,1.561.686,2.306,1.065.173.108.363.215.553.316a26.471,26.471,0,0,1,13.1,19.82c.033.28.049.545.083.825s.049.571.057.859c.033.48.041.951.041,1.439C1967.143,1257.87,1967.135,1258.391,1967.094,1258.911Z" transform="translate(-1899.214 -1149.4)" fill="#091926"/><g transform="translate(32.449 0)"><path d="M2567.606,719.492a3.442,3.442,0,0,0,1.6.405,3.493,3.493,0,0,0,3.083-1.86l.959-1.843a3.466,3.466,0,1,0-6.141-3.215l-.958,1.835A3.464,3.464,0,0,0,2567.606,719.492Z" transform="translate(-2516.431 -706.622)" fill="#f16623"/><path d="M2521.239,809.3a3.453,3.453,0,0,0,4.67-1.463l.859-1.637a3.462,3.462,0,1,0-6.133-3.215l-.859,1.636A3.458,3.458,0,0,0,2521.239,809.3Z" transform="translate(-2475.742 -785.586)" fill="#f16623"/><path d="M2823.8,930.839a3.411,3.411,0,0,0,2.356-.934l1.521-1.413a3.462,3.462,0,1,0-4.711-5.074l-1.521,1.413a3.471,3.471,0,0,0,2.356,6.009Z" transform="translate(-2739.78 -892.057)" fill="#f16623"/><path d="M2938.694,1235.231a3.247,3.247,0,0,0,1.38-.3l1.7-.728a3.466,3.466,0,0,0-2.769-6.356l-1.686.736a3.466,3.466,0,0,0,1.372,6.645Z" transform="translate(-2840.582 -1159.705)" fill="#f16623"/><path d="M3030.215,1194.891a3.394,3.394,0,0,0,1.38-.289l1.909-.826a3.461,3.461,0,1,0-2.761-6.348l-1.909.826a3.462,3.462,0,0,0,1.38,6.637Z" transform="translate(-2920.871 -1124.242)" fill="#f16623"/><path d="M3067.713,1516.544l-2.075-.041a.257.257,0,0,0-.074-.008,3.463,3.463,0,0,0-.075,6.926l2.083.05h.074a3.463,3.463,0,0,0,.066-6.926Z" transform="translate(-2951.884 -1413.19)" fill="#f16623"/><path d="M2933.528,1819.682l-1.653-.818a3.465,3.465,0,1,0-3.066,6.215l1.661.818a3.463,3.463,0,0,0,3.058-6.215Z" transform="translate(-2833.252 -1678.149)" fill="#f16623"/><path d="M3023.265,1863.833l-1.868-.909a3.46,3.46,0,0,0-3.059,6.207l1.868.917a3.513,3.513,0,0,0,1.529.364,3.468,3.468,0,0,0,1.529-6.579Z" transform="translate(-2911.797 -1716.804)" fill="#f16623"/><path d="M2464.812,2114.708a3.455,3.455,0,0,0,2.383-4.271l-.5-1.776a3.465,3.465,0,1,0-6.67,1.882l.5,1.782a3.459,3.459,0,0,0,4.282,2.383Z" transform="translate(-2423.558 -1930.491)" fill="#f16623"/><path d="M2493.921,2204.688a3.46,3.46,0,0,0-6.658,1.883l.569,2a3.517,3.517,0,0,0,.753,1.379,3.468,3.468,0,0,0,5.912-3.268Z" transform="translate(-2447.453 -2014.747)" fill="#f16623"/><path d="M2817.344,2129.305a3.465,3.465,0,0,0-5.083,4.711l1.406,1.529a3.463,3.463,0,0,0,5.083-4.7Z" transform="translate(-2731.881 -1949.85)" fill="#f16623"/><path d="M2224.895,683.438a3.462,3.462,0,0,0,3.43-3.5l-.025-2.083a3.444,3.444,0,0,0-3.446-3.422h-.05a3.462,3.462,0,0,0-3.43,3.5l.017,2.083A3.446,3.446,0,0,0,2224.895,683.438Z" transform="translate(-2214.299 -674.437)" fill="#f16623"/><path d="M2226.451,2371.651h-.049a3.461,3.461,0,0,0-3.43,3.5l.016,2.083a3.467,3.467,0,0,0,6.934-.075l-.025-2.083A3.444,3.444,0,0,0,2226.451,2371.651Z" transform="translate(-2215.701 -2163.435)" fill="#f16623"/><path d="M2531.034,1826.683a10.311,10.311,0,0,0-2.075-1.612,10.637,10.637,0,0,0-9.242-.779L2498.631,1804l-1.144,1.251c-.469.512-.939,1-1.408,1.473-.763.764-1.586,1.528-2.445,2.271l-1.371,1.185,21.271,20.468a10.683,10.683,0,0,0,1.129,9.39,11.093,11.093,0,0,0,1.364,1.678,10.623,10.623,0,0,0,14.29.661c.24-.2.479-.413.728-.661a10.636,10.636,0,0,0-.009-15.034Z" transform="translate(-2451.954 -1665.425)" fill="#f16623"/><path d="M2164.272,780.129a10.4,10.4,0,0,0,2.538,4.124,8.354,8.354,0,0,0,.736.661,10.524,10.524,0,0,0,2.469,1.549v28.253l1.714-.064c.369-.014.72-.02,1.057-.02,1.43,0,2.878.063,4.3.188l1.8.158V786.339c.3-.14.586-.289.869-.457a10.505,10.505,0,0,0,4.38-5.133,10.825,10.825,0,0,0,.587-6.034,10.529,10.529,0,0,0-2.257-4.785,9.033,9.033,0,0,0-.636-.694,10.626,10.626,0,0,0-15.018,0,10.524,10.524,0,0,0-2.752,4.827,10.6,10.6,0,0,0,.207,6.067Z" transform="translate(-2163.71 -754.879)" fill="#f16623"/><path d="M2183.391,2050.17a10.859,10.859,0,0,0-.934-1.314,7.5,7.5,0,0,0-.636-.695,10.582,10.582,0,0,0-4.5-2.678h0l-.322-19.632h-5.564l.321,19.508h0a10.536,10.536,0,0,0-4.943,2.8,10.136,10.136,0,0,0-1.364,1.678c-.19.3-.372.595-.529.9a10.485,10.485,0,0,0-1.148,5.984,10.6,10.6,0,0,0,3.041,6.464,9.848,9.848,0,0,0,.736.66,10.428,10.428,0,0,0,6.769,2.447,10.611,10.611,0,0,0,5.438-1.488,10.279,10.279,0,0,0,2.075-1.62,10.729,10.729,0,0,0,1.57-13.018Z" transform="translate(-2163.703 -1860.058)" fill="#f16623"/><path d="M2494,1007.982c.977.991,1.93,2.045,2.831,3.132l1.128,1.361,21.333-20.238a10.558,10.558,0,0,0,3.93.744,10.68,10.68,0,0,0,5.438-1.48,10.277,10.277,0,0,0,2.075-1.628,10.7,10.7,0,0,0,.636-14.323c-.174-.215-.388-.446-.636-.7a10.626,10.626,0,0,0-15.018,0,10.145,10.145,0,0,0-1.364,1.686,10.622,10.622,0,0,0-1.168,9.271l-21.274,20.181,1.269,1.2C2493.466,1007.459,2493.742,1007.726,2494,1007.982Z" transform="translate(-2451.645 -935.268)" fill="#f16623"/><path d="M2675.506,1471.865c-.174-.215-.388-.447-.636-.7a10.626,10.626,0,0,0-15.017,0,10.978,10.978,0,0,0-1.372,1.678,10.506,10.506,0,0,0-.773,1.4h-30.212l.1,1.742c.049.9.073,1.787.073,2.642,0,.9-.027,1.791-.083,2.735l-.1,1.75h30.236a10.527,10.527,0,0,0,2.138,3.076,9.633,9.633,0,0,0,.727.661,10.406,10.406,0,0,0,6.777,2.446,10.608,10.608,0,0,0,5.438-1.488,10.415,10.415,0,0,0,2.074-1.62A10.7,10.7,0,0,0,2675.506,1471.865Z" transform="translate(-2570.581 -1370.693)" fill="#f16623"/></g></g><text transform="translate(3819 474)" fill="#091926" font-size="97" font-family="Segoe UI Variable Text" font-weight="700" letter-spacing="0.04em"><tspan x="0" y="0">PARTNERSHIP</tspan></text></g></svg>